ISO-10303-21;
HEADER;
FILE_DESCRIPTION(('Open CASCADE Model'),'2;1');
FILE_NAME('Open CASCADE Shape Model','2026-09-10T14:14:24',('Author'),(
    'Open CASCADE'),'Open CASCADE STEP processor 7.9','Open CASCADE 7.9'
  ,'Unknown');
FILE_SCHEMA(('AUTOMOTIVE_DESIGN { 1 0 10303 214 1 1 1 1 }'));
ENDSEC;
DATA;
#1 = APPLICATION_PROTOCOL_DEFINITION('international standard',
  'automotive_design',2000,#2);
#2 = APPLICATION_CONTEXT(
  'core data for automotive mechanical design processes');
#3 = SHAPE_DEFINITION_REPRESENTATION(#4,#10);
#4 = PRODUCT_DEFINITION_SHAPE('','',#5);
#5 = PRODUCT_DEFINITION('design','',#6,#9);
#6 = PRODUCT_DEFINITION_FORMATION('','',#7);
#7 = PRODUCT('Open CASCADE STEP translator 7.9 3',
  'Open CASCADE STEP translator 7.9 3','',(#8));
#8 = PRODUCT_CONTEXT('',#2,'mechanical');
#9 = PRODUCT_DEFINITION_CONTEXT('part definition',#2,'design');
#10 = ADVANCED_BREP_SHAPE_REPRESENTATION('',(#11,#15),#1656);
#11 = AXIS2_PLACEMENT_3D('',#12,#13,#14);
#12 = CARTESIAN_POINT('',(0.,0.,0.));
#13 = DIRECTION('',(0.,0.,1.));
#14 = DIRECTION('',(1.,0.,-0.));
#15 = BREP_WITH_VOIDS('',#16,(#1460,#1558));
#16 = CLOSED_SHELL('',(#17,#139,#367,#597,#649,#952,#977,#1026,#1079,
    #1106,#1134,#1162,#1190,#1278,#1325,#1352,#1402,#1426,#1453));
#17 = ADVANCED_FACE('',(#18),#33,.T.);
#18 = FACE_BOUND('',#19,.F.);
#19 = EDGE_LOOP('',(#20,#56,#82,#115));
#20 = ORIENTED_EDGE('',*,*,#21,.F.);
#21 = EDGE_CURVE('',#22,#24,#26,.T.);
#22 = VERTEX_POINT('',#23);
#23 = CARTESIAN_POINT('',(-46.49999988881,3.215651064172E-03,0.));
#24 = VERTEX_POINT('',#25);
#25 = CARTESIAN_POINT('',(46.499999888813,3.215651064169E-03,0.));
#26 = SURFACE_CURVE('',#27,(#32,#44),.PCURVE_S1.);
#27 = CIRCLE('',#28,46.5);
#28 = AXIS2_PLACEMENT_3D('',#29,#30,#31);
#29 = CARTESIAN_POINT('',(0.,0.,0.));
#30 = DIRECTION('',(0.,0.,1.));
#31 = DIRECTION('',(-0.999999997609,6.915378632629E-05,0.));
#32 = PCURVE('',#33,#38);
#33 = CYLINDRICAL_SURFACE('',#34,46.5);
#34 = AXIS2_PLACEMENT_3D('',#35,#36,#37);
#35 = CARTESIAN_POINT('',(0.,0.,0.));
#36 = DIRECTION('',(-0.,-0.,-1.));
#37 = DIRECTION('',(1.,0.,0.));
#38 = DEFINITIONAL_REPRESENTATION('',(#39),#43);
#39 = LINE('',#40,#41);
#40 = CARTESIAN_POINT('',(-3.141523499803,0.));
#41 = VECTOR('',#42,1.);
#42 = DIRECTION('',(-1.,0.));
#43 = ( GEOMETRIC_REPRESENTATION_CONTEXT(2) 
PARAMETRIC_REPRESENTATION_CONTEXT() REPRESENTATION_CONTEXT('2D SPACE',''
  ) );
#44 = PCURVE('',#45,#50);
#45 = PLANE('',#46);
#46 = AXIS2_PLACEMENT_3D('',#47,#48,#49);
#47 = CARTESIAN_POINT('',(-1.882068139409E-15,-1.61343992693E-17,0.));
#48 = DIRECTION('',(0.,0.,1.));
#49 = DIRECTION('',(1.,0.,-0.));
#50 = DEFINITIONAL_REPRESENTATION('',(#51),#55);
#51 = CIRCLE('',#52,46.5);
#52 = AXIS2_PLACEMENT_2D('',#53,#54);
#53 = CARTESIAN_POINT('',(1.882068139409E-15,1.61343992693E-17));
#54 = DIRECTION('',(-0.999999997609,6.915378632629E-05));
#55 = ( GEOMETRIC_REPRESENTATION_CONTEXT(2) 
PARAMETRIC_REPRESENTATION_CONTEXT() REPRESENTATION_CONTEXT('2D SPACE',''
  ) );
#56 = ORIENTED_EDGE('',*,*,#57,.F.);
#57 = EDGE_CURVE('',#58,#22,#60,.T.);
#58 = VERTEX_POINT('',#59);
#59 = CARTESIAN_POINT('',(-46.49999988881,3.215651064172E-03,69.9));
#60 = SURFACE_CURVE('',#61,(#65,#71),.PCURVE_S1.);
#61 = LINE('',#62,#63);
#62 = CARTESIAN_POINT('',(-46.49999988881,3.215651064169E-03,0.));
#63 = VECTOR('',#64,1.);
#64 = DIRECTION('',(-0.,-0.,-1.));
#65 = PCURVE('',#33,#66);
#66 = DEFINITIONAL_REPRESENTATION('',(#67),#70);
#67 = B_SPLINE_CURVE_WITH_KNOTS('',1,(#68,#69),.UNSPECIFIED.,.F.,.F.,(2,
    2),(-69.9,-0.),.PIECEWISE_BEZIER_KNOTS.);
#68 = CARTESIAN_POINT('',(-3.141523499803,-69.9));
#69 = CARTESIAN_POINT('',(-3.141523499803,0.));
#70 = ( GEOMETRIC_REPRESENTATION_CONTEXT(2) 
PARAMETRIC_REPRESENTATION_CONTEXT() REPRESENTATION_CONTEXT('2D SPACE',''
  ) );
#71 = PCURVE('',#72,#77);
#72 = PLANE('',#73);
#73 = AXIS2_PLACEMENT_3D('',#74,#75,#76);
#74 = CARTESIAN_POINT('',(1.723583053445E-02,3.215651064169E-03,
    59.570304582995));
#75 = DIRECTION('',(-0.,-1.,-0.));
#76 = DIRECTION('',(0.,0.,-1.));
#77 = DEFINITIONAL_REPRESENTATION('',(#78),#81);
#78 = B_SPLINE_CURVE_WITH_KNOTS('',1,(#79,#80),.UNSPECIFIED.,.F.,.F.,(2,
    2),(-69.9000006,6.E-07),.PIECEWISE_BEZIER_KNOTS.);
#79 = CARTESIAN_POINT('',(-10.329696017,-46.51723571934));
#80 = CARTESIAN_POINT('',(59.570305182995,-46.51723571934));
#81 = ( GEOMETRIC_REPRESENTATION_CONTEXT(2) 
PARAMETRIC_REPRESENTATION_CONTEXT() REPRESENTATION_CONTEXT('2D SPACE',''
  ) );
#82 = ORIENTED_EDGE('',*,*,#83,.F.);
#83 = EDGE_CURVE('',#84,#58,#86,.T.);
#84 = VERTEX_POINT('',#85);
#85 = CARTESIAN_POINT('',(46.499999888813,3.215651064169E-03,69.9));
#86 = SURFACE_CURVE('',#87,(#92,#99),.PCURVE_S1.);
#87 = CIRCLE('',#88,46.5);
#88 = AXIS2_PLACEMENT_3D('',#89,#90,#91);
#89 = CARTESIAN_POINT('',(0.,0.,69.9));
#90 = DIRECTION('',(0.,0.,-1.));
#91 = DIRECTION('',(0.999999997609,6.915378632622E-05,0.));
#92 = PCURVE('',#33,#93);
#93 = DEFINITIONAL_REPRESENTATION('',(#94),#98);
#94 = LINE('',#95,#96);
#95 = CARTESIAN_POINT('',(-6.283254460966,-69.9));
#96 = VECTOR('',#97,1.);
#97 = DIRECTION('',(1.,-0.));
#98 = ( GEOMETRIC_REPRESENTATION_CONTEXT(2) 
PARAMETRIC_REPRESENTATION_CONTEXT() REPRESENTATION_CONTEXT('2D SPACE',''
  ) );
#99 = PCURVE('',#100,#105);
#100 = PLANE('',#101);
#101 = AXIS2_PLACEMENT_3D('',#102,#103,#104);
#102 = CARTESIAN_POINT('',(-1.882068139409E-15,-1.61343992693E-17,69.9)
  );
#103 = DIRECTION('',(0.,0.,1.));
#104 = DIRECTION('',(1.,0.,-0.));
#105 = DEFINITIONAL_REPRESENTATION('',(#106),#114);
#106 = ( BOUNDED_CURVE() B_SPLINE_CURVE(2,(#107,#108,#109,#110,#111,#112
,#113),.UNSPECIFIED.,.T.,.F.) B_SPLINE_CURVE_WITH_KNOTS((1,2,2,2,2,1),(
    -2.094395102393,0.,2.094395102393,4.188790204786,6.28318530718,
8.377580409573),.UNSPECIFIED.) CURVE() GEOMETRIC_REPRESENTATION_ITEM() 
RATIONAL_B_SPLINE_CURVE((1.,0.5,1.,0.5,1.,0.5,1.)) REPRESENTATION_ITEM(
  '') );
#107 = CARTESIAN_POINT('',(46.499999888813,3.215651064169E-03));
#108 = CARTESIAN_POINT('',(46.505569559835,-80.5371467083));
#109 = CARTESIAN_POINT('',(-23.24721510889,-40.27178900521));
#110 = CARTESIAN_POINT('',(-92.99999977762,-6.43130212835E-03));
#111 = CARTESIAN_POINT('',(-23.25278477991,40.268573354153));
#112 = CARTESIAN_POINT('',(46.49443021779,80.543578010435));
#113 = CARTESIAN_POINT('',(46.499999888813,3.215651064169E-03));
#114 = ( GEOMETRIC_REPRESENTATION_CONTEXT(2) 
PARAMETRIC_REPRESENTATION_CONTEXT() REPRESENTATION_CONTEXT('2D SPACE',''
  ) );
#115 = ORIENTED_EDGE('',*,*,#116,.T.);
#116 = EDGE_CURVE('',#84,#24,#117,.T.);
#117 = SURFACE_CURVE('',#118,(#122,#128),.PCURVE_S1.);
#118 = LINE('',#119,#120);
#119 = CARTESIAN_POINT('',(46.499999888813,3.215651064169E-03,0.));
#120 = VECTOR('',#121,1.);
#121 = DIRECTION('',(-0.,-0.,-1.));
#122 = PCURVE('',#33,#123);
#123 = DEFINITIONAL_REPRESENTATION('',(#124),#127);
#124 = B_SPLINE_CURVE_WITH_KNOTS('',1,(#125,#126),.UNSPECIFIED.,.F.,.F.,
  (2,2),(-69.9,-0.),.PIECEWISE_BEZIER_KNOTS.);
#125 = CARTESIAN_POINT('',(-6.283254460966,-69.9));
#126 = CARTESIAN_POINT('',(-6.283254460966,0.));
#127 = ( GEOMETRIC_REPRESENTATION_CONTEXT(2) 
PARAMETRIC_REPRESENTATION_CONTEXT() REPRESENTATION_CONTEXT('2D SPACE',''
  ) );
#128 = PCURVE('',#129,#134);
#129 = PLANE('',#130);
#130 = AXIS2_PLACEMENT_3D('',#131,#132,#133);
#131 = CARTESIAN_POINT('',(1.723583053445E-02,3.215651064169E-03,
    59.570304582995));
#132 = DIRECTION('',(-0.,-1.,-0.));
#133 = DIRECTION('',(0.,0.,-1.));
#134 = DEFINITIONAL_REPRESENTATION('',(#135),#138);
#135 = B_SPLINE_CURVE_WITH_KNOTS('',1,(#136,#137),.UNSPECIFIED.,.F.,.F.,
  (2,2),(-69.9000006,6.E-07),.PIECEWISE_BEZIER_KNOTS.);
#136 = CARTESIAN_POINT('',(-10.329696017,46.482764058278));
#137 = CARTESIAN_POINT('',(59.570305182995,46.482764058278));
#138 = ( GEOMETRIC_REPRESENTATION_CONTEXT(2) 
PARAMETRIC_REPRESENTATION_CONTEXT() REPRESENTATION_CONTEXT('2D SPACE',''
  ) );
#139 = ADVANCED_FACE('',(#140),#45,.F.);
#140 = FACE_BOUND('',#141,.F.);
#141 = EDGE_LOOP('',(#142,#143,#164,#212,#256,#304,#348));
#142 = ORIENTED_EDGE('',*,*,#21,.T.);
#143 = ORIENTED_EDGE('',*,*,#144,.F.);
#144 = EDGE_CURVE('',#145,#24,#147,.T.);
#145 = VERTEX_POINT('',#146);
#146 = CARTESIAN_POINT('',(37.799999863222,3.215651064169E-03,0.));
#147 = SURFACE_CURVE('',#148,(#152,#158),.PCURVE_S1.);
#148 = LINE('',#149,#150);
#149 = CARTESIAN_POINT('',(8.617915267224E-03,3.215651064169E-03,0.));
#150 = VECTOR('',#151,1.);
#151 = DIRECTION('',(1.,0.,0.));
#152 = PCURVE('',#45,#153);
#153 = DEFINITIONAL_REPRESENTATION('',(#154),#157);
#154 = B_SPLINE_CURVE_WITH_KNOTS('',1,(#155,#156),.UNSPECIFIED.,.F.,.F.,
  (2,2),(-46.50861791526,46.491382084733),.PIECEWISE_BEZIER_KNOTS.);
#155 = CARTESIAN_POINT('',(-46.5,3.215651064169E-03));
#156 = CARTESIAN_POINT('',(46.5,3.215651064169E-03));
#157 = ( GEOMETRIC_REPRESENTATION_CONTEXT(2) 
PARAMETRIC_REPRESENTATION_CONTEXT() REPRESENTATION_CONTEXT('2D SPACE',''
  ) );
#158 = PCURVE('',#129,#159);
#159 = DEFINITIONAL_REPRESENTATION('',(#160),#163);
#160 = B_SPLINE_CURVE_WITH_KNOTS('',1,(#161,#162),.UNSPECIFIED.,.F.,.F.,
  (2,2),(-46.50861791526,46.491382084733),.PIECEWISE_BEZIER_KNOTS.);
#161 = CARTESIAN_POINT('',(59.570304582995,-46.51723583053));
#162 = CARTESIAN_POINT('',(59.570304582995,46.482764169466));
#163 = ( GEOMETRIC_REPRESENTATION_CONTEXT(2) 
PARAMETRIC_REPRESENTATION_CONTEXT() REPRESENTATION_CONTEXT('2D SPACE',''
  ) );
#164 = ORIENTED_EDGE('',*,*,#165,.F.);
#165 = EDGE_CURVE('',#166,#145,#168,.T.);
#166 = VERTEX_POINT('',#167);
#167 = CARTESIAN_POINT('',(37.8,0.,0.));
#168 = SURFACE_CURVE('',#169,(#174,#181),.PCURVE_S1.);
#169 = CIRCLE('',#170,37.8);
#170 = AXIS2_PLACEMENT_3D('',#171,#172,#173);
#171 = CARTESIAN_POINT('',(0.,0.,0.));
#172 = DIRECTION('',(0.,0.,1.));
#173 = DIRECTION('',(1.,0.,0.));
#174 = PCURVE('',#45,#175);
#175 = DEFINITIONAL_REPRESENTATION('',(#176),#180);
#176 = CIRCLE('',#177,37.8);
#177 = AXIS2_PLACEMENT_2D('',#178,#179);
#178 = CARTESIAN_POINT('',(1.882068139409E-15,1.61343992693E-17));
#179 = DIRECTION('',(1.,0.));
#180 = ( GEOMETRIC_REPRESENTATION_CONTEXT(2) 
PARAMETRIC_REPRESENTATION_CONTEXT() REPRESENTATION_CONTEXT('2D SPACE',''
  ) );
#181 = PCURVE('',#182,#207);
#182 = B_SPLINE_SURFACE_WITH_KNOTS('',11,1,(
    (#183,#184)
    ,(#185,#186)
    ,(#187,#188)
    ,(#189,#190)
    ,(#191,#192)
    ,(#193,#194)
    ,(#195,#196)
    ,(#197,#198)
    ,(#199,#200)
    ,(#201,#202)
    ,(#203,#204)
    ,(#205,#206
    )),.UNSPECIFIED.,.F.,.F.,.F.,(12,12),(2,2),(-73.5,0.),(0.,1.),
  .PIECEWISE_BEZIER_KNOTS.);
#183 = CARTESIAN_POINT('',(37.8,-7.105427357601E-15,0.));
#184 = CARTESIAN_POINT('',(36.75,0.75,99.));
#185 = CARTESIAN_POINT('',(37.8,10.725534618702,0.));
#186 = CARTESIAN_POINT('',(30.068181818182,0.75,99.));
#187 = CARTESIAN_POINT('',(34.452359659639,21.451068457069,0.));
#188 = CARTESIAN_POINT('',(23.386363636364,0.75,99.));
#189 = CARTESIAN_POINT('',(27.757079789678,31.015652162493,0.));
#190 = CARTESIAN_POINT('',(16.704545454545,0.75,99.));
#191 = CARTESIAN_POINT('',(18.167101192845,38.2582922896,0.));
#192 = CARTESIAN_POINT('',(10.022727272727,0.75,99.));
#193 = CARTESIAN_POINT('',(6.588333853533,42.220109895496,0.));
#194 = CARTESIAN_POINT('',(3.340909090909,0.75,99.));
#195 = CARTESIAN_POINT('',(-5.725506764718,42.345748249928,0.));
#196 = CARTESIAN_POINT('',(-3.340909090909,0.75,99.));
#197 = CARTESIAN_POINT('',(-17.38270020679,38.621007601877,0.));
#198 = CARTESIAN_POINT('',(-10.02272727272,0.75,99.));
#199 = CARTESIAN_POINT('',(-27.11846055823,31.575548363709,0.));
#200 = CARTESIAN_POINT('',(-16.70454545454,0.75,99.));
#201 = CARTESIAN_POINT('',(-34.00750154424,22.149565747081,0.));
#202 = CARTESIAN_POINT('',(-23.38636363636,0.75,99.));
#203 = CARTESIAN_POINT('',(-37.57328784484,11.494569734672,0.));
#204 = CARTESIAN_POINT('',(-30.06818181818,0.75,99.));
#205 = CARTESIAN_POINT('',(-37.79213073791,0.771267974243,0.));
#206 = CARTESIAN_POINT('',(-36.75,0.75,99.));
#207 = DEFINITIONAL_REPRESENTATION('',(#208),#211);
#208 = B_SPLINE_CURVE_WITH_KNOTS('',1,(#209,#210),.UNSPECIFIED.,.F.,.F.,
  (2,2),(0.,3.121187322903),.PIECEWISE_BEZIER_KNOTS.);
#209 = CARTESIAN_POINT('',(-73.5,0.));
#210 = CARTESIAN_POINT('',(0.,0.));
#211 = ( GEOMETRIC_REPRESENTATION_CONTEXT(2) 
PARAMETRIC_REPRESENTATION_CONTEXT() REPRESENTATION_CONTEXT('2D SPACE',''
  ) );
#212 = ORIENTED_EDGE('',*,*,#213,.F.);
#213 = EDGE_CURVE('',#214,#166,#216,.T.);
#214 = VERTEX_POINT('',#215);
#215 = CARTESIAN_POINT('',(37.792130737918,-0.771267974243,0.));
#216 = SURFACE_CURVE('',#217,(#222,#229),.PCURVE_S1.);
#217 = CIRCLE('',#218,37.8);
#218 = AXIS2_PLACEMENT_3D('',#219,#220,#221);
#219 = CARTESIAN_POINT('',(0.,0.,0.));
#220 = DIRECTION('',(0.,0.,1.));
#221 = DIRECTION('',(1.,0.,0.));
#222 = PCURVE('',#45,#223);
#223 = DEFINITIONAL_REPRESENTATION('',(#224),#228);
#224 = CIRCLE('',#225,37.8);
#225 = AXIS2_PLACEMENT_2D('',#226,#227);
#226 = CARTESIAN_POINT('',(1.882068139409E-15,1.61343992693E-17));
#227 = DIRECTION('',(1.,0.));
#228 = ( GEOMETRIC_REPRESENTATION_CONTEXT(2) 
PARAMETRIC_REPRESENTATION_CONTEXT() REPRESENTATION_CONTEXT('2D SPACE',''
  ) );
#229 = PCURVE('',#230,#251);
#230 = B_SPLINE_SURFACE_WITH_KNOTS('',9,1,(
    (#231,#232)
    ,(#233,#234)
    ,(#235,#236)
    ,(#237,#238)
    ,(#239,#240)
    ,(#241,#242)
    ,(#243,#244)
    ,(#245,#246)
    ,(#247,#248)
    ,(#249,#250
    )),.UNSPECIFIED.,.F.,.F.,.F.,(10,10),(2,2),(3.14159265359,
    6.28318530718),(0.,1.),.PIECEWISE_BEZIER_KNOTS.);
#231 = CARTESIAN_POINT('',(37.792130737918,-0.771267974243,0.));
#232 = CARTESIAN_POINT('',(36.75,-0.75,99.));
#233 = CARTESIAN_POINT('',(37.793879402147,-0.685583427015,0.));
#234 = CARTESIAN_POINT('',(37.011799387799,-0.75,99.));
#235 = CARTESIAN_POINT('',(37.795409506102,-0.599894419434,0.));
#236 = CARTESIAN_POINT('',(37.273601492499,-0.647191900061,
    98.999999999999));
#237 = CARTESIAN_POINT('',(37.796721043281,-0.514201588687,0.));
#238 = CARTESIAN_POINT('',(37.48924283384,-0.44157278914,99.000000000004
    ));
#239 = CARTESIAN_POINT('',(37.797814007183,-0.428505571955,0.));
#240 = CARTESIAN_POINT('',(37.612680472816,-0.157317457926,
    98.999999999993));
#241 = CARTESIAN_POINT('',(37.798688391308,-0.342807006425,0.));
#242 = CARTESIAN_POINT('',(37.612680472822,0.157317457926,
    99.000000000007));
#243 = CARTESIAN_POINT('',(37.799344189153,-0.25710652928,0.));
#244 = CARTESIAN_POINT('',(37.489242833835,0.44157278914,98.999999999994
    ));
#245 = CARTESIAN_POINT('',(37.799781394217,-0.171404777705,0.));
#246 = CARTESIAN_POINT('',(37.2736014925,0.647191900061,99.000000000003)
  );
#247 = CARTESIAN_POINT('',(37.8,-8.570238888347E-02,0.));
#248 = CARTESIAN_POINT('',(37.011799387799,0.75,98.999999999999));
#249 = CARTESIAN_POINT('',(37.8,-9.27036225562E-15,0.));
#250 = CARTESIAN_POINT('',(36.75,0.75,99.));
#251 = DEFINITIONAL_REPRESENTATION('',(#252),#255);
#252 = B_SPLINE_CURVE_WITH_KNOTS('',1,(#253,#254),.UNSPECIFIED.,.F.,.F.,
  (2,2),(6.262779976493,6.28318530718),.PIECEWISE_BEZIER_KNOTS.);
#253 = CARTESIAN_POINT('',(3.14159265359,0.));
#254 = CARTESIAN_POINT('',(6.28318530718,0.));
#255 = ( GEOMETRIC_REPRESENTATION_CONTEXT(2) 
PARAMETRIC_REPRESENTATION_CONTEXT() REPRESENTATION_CONTEXT('2D SPACE',''
  ) );
#256 = ORIENTED_EDGE('',*,*,#257,.F.);
#257 = EDGE_CURVE('',#258,#214,#260,.T.);
#258 = VERTEX_POINT('',#259);
#259 = CARTESIAN_POINT('',(-37.79213073791,-0.771267974243,0.));
#260 = SURFACE_CURVE('',#261,(#266,#273),.PCURVE_S1.);
#261 = CIRCLE('',#262,37.8);
#262 = AXIS2_PLACEMENT_3D('',#263,#264,#265);
#263 = CARTESIAN_POINT('',(0.,0.,0.));
#264 = DIRECTION('',(0.,0.,1.));
#265 = DIRECTION('',(1.,0.,0.));
#266 = PCURVE('',#45,#267);
#267 = DEFINITIONAL_REPRESENTATION('',(#268),#272);
#268 = CIRCLE('',#269,37.8);
#269 = AXIS2_PLACEMENT_2D('',#270,#271);
#270 = CARTESIAN_POINT('',(1.882068139409E-15,1.61343992693E-17));
#271 = DIRECTION('',(1.,0.));
#272 = ( GEOMETRIC_REPRESENTATION_CONTEXT(2) 
PARAMETRIC_REPRESENTATION_CONTEXT() REPRESENTATION_CONTEXT('2D SPACE',''
  ) );
#273 = PCURVE('',#274,#299);
#274 = B_SPLINE_SURFACE_WITH_KNOTS('',11,1,(
    (#275,#276)
    ,(#277,#278)
    ,(#279,#280)
    ,(#281,#282)
    ,(#283,#284)
    ,(#285,#286)
    ,(#287,#288)
    ,(#289,#290)
    ,(#291,#292)
    ,(#293,#294)
    ,(#295,#296)
    ,(#297,#298
    )),.UNSPECIFIED.,.F.,.F.,.F.,(12,12),(2,2),(-73.5,0.),(0.,1.),
  .PIECEWISE_BEZIER_KNOTS.);
#275 = CARTESIAN_POINT('',(-37.79213073791,-0.771267974243,0.));
#276 = CARTESIAN_POINT('',(-36.75,-0.75,99.));
#277 = CARTESIAN_POINT('',(-37.57471857012,-11.42446419602,0.));
#278 = CARTESIAN_POINT('',(-30.06818181818,-0.75,99.));
#279 = CARTESIAN_POINT('',(-34.05398244305,-22.01024492189,0.));
#280 = CARTESIAN_POINT('',(-23.38636363636,-0.75,99.));
#281 = CARTESIAN_POINT('',(-27.25314953237,-31.390518583,0.));
#282 = CARTESIAN_POINT('',(-16.70454545454,-0.75,99.));
#283 = CARTESIAN_POINT('',(-17.63656680973,-38.43615531257,0.));
#284 = CARTESIAN_POINT('',(-10.02272727272,-0.75,99.));
#285 = CARTESIAN_POINT('',(-6.105738169345,-42.22257429826,0.));
#286 = CARTESIAN_POINT('',(-3.340909090909,-0.75,99.));
#287 = CARTESIAN_POINT('',(6.105738169345,-42.22257429824,0.));
#288 = CARTESIAN_POINT('',(3.340909090909,-0.75,99.));
#289 = CARTESIAN_POINT('',(17.636566809734,-38.43615531259,0.));
#290 = CARTESIAN_POINT('',(10.022727272727,-0.75,99.));
#291 = CARTESIAN_POINT('',(27.253149532378,-31.39051858299,0.));
#292 = CARTESIAN_POINT('',(16.704545454545,-0.75,99.));
#293 = CARTESIAN_POINT('',(34.053982443054,-22.01024492189,0.));
#294 = CARTESIAN_POINT('',(23.386363636364,-0.75,99.));
#295 = CARTESIAN_POINT('',(37.574718570127,-11.42446419602,0.));
#296 = CARTESIAN_POINT('',(30.068181818182,-0.75,99.));
#297 = CARTESIAN_POINT('',(37.792130737918,-0.771267974243,0.));
#298 = CARTESIAN_POINT('',(36.75,-0.75,99.));
#299 = DEFINITIONAL_REPRESENTATION('',(#300),#303);
#300 = B_SPLINE_CURVE_WITH_KNOTS('',1,(#301,#302),.UNSPECIFIED.,.F.,.F.,
  (2,2),(3.161997984276,6.262779976493),.PIECEWISE_BEZIER_KNOTS.);
#301 = CARTESIAN_POINT('',(-73.5,0.));
#302 = CARTESIAN_POINT('',(0.,0.));
#303 = ( GEOMETRIC_REPRESENTATION_CONTEXT(2) 
PARAMETRIC_REPRESENTATION_CONTEXT() REPRESENTATION_CONTEXT('2D SPACE',''
  ) );
#304 = ORIENTED_EDGE('',*,*,#305,.F.);
#305 = EDGE_CURVE('',#306,#258,#308,.T.);
#306 = VERTEX_POINT('',#307);
#307 = CARTESIAN_POINT('',(-37.79999986322,3.215651064173E-03,0.));
#308 = SURFACE_CURVE('',#309,(#314,#321),.PCURVE_S1.);
#309 = CIRCLE('',#310,37.8);
#310 = AXIS2_PLACEMENT_3D('',#311,#312,#313);
#311 = CARTESIAN_POINT('',(0.,0.,0.));
#312 = DIRECTION('',(0.,0.,1.));
#313 = DIRECTION('',(1.,0.,0.));
#314 = PCURVE('',#45,#315);
#315 = DEFINITIONAL_REPRESENTATION('',(#316),#320);
#316 = CIRCLE('',#317,37.8);
#317 = AXIS2_PLACEMENT_2D('',#318,#319);
#318 = CARTESIAN_POINT('',(1.882068139409E-15,1.61343992693E-17));
#319 = DIRECTION('',(1.,0.));
#320 = ( GEOMETRIC_REPRESENTATION_CONTEXT(2) 
PARAMETRIC_REPRESENTATION_CONTEXT() REPRESENTATION_CONTEXT('2D SPACE',''
  ) );
#321 = PCURVE('',#322,#343);
#322 = B_SPLINE_SURFACE_WITH_KNOTS('',9,1,(
    (#323,#324)
    ,(#325,#326)
    ,(#327,#328)
    ,(#329,#330)
    ,(#331,#332)
    ,(#333,#334)
    ,(#335,#336)
    ,(#337,#338)
    ,(#339,#340)
    ,(#341,#342
    )),.UNSPECIFIED.,.F.,.F.,.F.,(10,10),(2,2),(3.14159265359,
    6.28318530718),(0.,1.),.PIECEWISE_BEZIER_KNOTS.);
#323 = CARTESIAN_POINT('',(-37.79213073791,0.771267974243,0.));
#324 = CARTESIAN_POINT('',(-36.75,0.75,99.));
#325 = CARTESIAN_POINT('',(-37.79562806637,0.599898879786,0.));
#326 = CARTESIAN_POINT('',(-37.01179938779,0.75,99.));
#327 = CARTESIAN_POINT('',(-37.79825118407,0.428511943798,0.));
#328 = CARTESIAN_POINT('',(-37.27360149249,0.647191900061,
    98.999999999999));
#329 = CARTESIAN_POINT('',(-37.79999998699,0.257112263859,0.));
#330 = CARTESIAN_POINT('',(-37.48924283384,0.44157278914,99.000000000004
    ));
#331 = CARTESIAN_POINT('',(-37.80087440579,8.570493754982E-02,0.));
#332 = CARTESIAN_POINT('',(-37.61268047281,0.157317457926,
    98.999999999993));
#333 = CARTESIAN_POINT('',(-37.80087440579,-8.570493754981E-02,0.));
#334 = CARTESIAN_POINT('',(-37.61268047282,-0.157317457926,
    99.000000000007));
#335 = CARTESIAN_POINT('',(-37.79999998699,-0.257112263859,0.));
#336 = CARTESIAN_POINT('',(-37.48924283383,-0.44157278914,
    98.999999999994));
#337 = CARTESIAN_POINT('',(-37.79825118407,-0.428511943798,0.));
#338 = CARTESIAN_POINT('',(-37.2736014925,-0.647191900061,
    99.000000000003));
#339 = CARTESIAN_POINT('',(-37.79562806637,-0.599898879786,0.));
#340 = CARTESIAN_POINT('',(-37.01179938779,-0.75,98.999999999999));
#341 = CARTESIAN_POINT('',(-37.79213073791,-0.771267974243,0.));
#342 = CARTESIAN_POINT('',(-36.75,-0.75,99.));
#343 = DEFINITIONAL_REPRESENTATION('',(#344),#347);
#344 = B_SPLINE_CURVE_WITH_KNOTS('',1,(#345,#346),.UNSPECIFIED.,.F.,.F.,
  (2,2),(3.121187322903,3.161997984276),.PIECEWISE_BEZIER_KNOTS.);
#345 = CARTESIAN_POINT('',(3.14159265359,0.));
#346 = CARTESIAN_POINT('',(6.28318530718,0.));
#347 = ( GEOMETRIC_REPRESENTATION_CONTEXT(2) 
PARAMETRIC_REPRESENTATION_CONTEXT() REPRESENTATION_CONTEXT('2D SPACE',''
  ) );
#348 = ORIENTED_EDGE('',*,*,#349,.F.);
#349 = EDGE_CURVE('',#22,#306,#350,.T.);
#350 = SURFACE_CURVE('',#351,(#355,#361),.PCURVE_S1.);
#351 = LINE('',#352,#353);
#352 = CARTESIAN_POINT('',(8.617915267224E-03,3.215651064169E-03,0.));
#353 = VECTOR('',#354,1.);
#354 = DIRECTION('',(1.,0.,0.));
#355 = PCURVE('',#45,#356);
#356 = DEFINITIONAL_REPRESENTATION('',(#357),#360);
#357 = B_SPLINE_CURVE_WITH_KNOTS('',1,(#358,#359),.UNSPECIFIED.,.F.,.F.,
  (2,2),(-46.50861791526,46.491382084733),.PIECEWISE_BEZIER_KNOTS.);
#358 = CARTESIAN_POINT('',(-46.5,3.215651064169E-03));
#359 = CARTESIAN_POINT('',(46.5,3.215651064169E-03));
#360 = ( GEOMETRIC_REPRESENTATION_CONTEXT(2) 
PARAMETRIC_REPRESENTATION_CONTEXT() REPRESENTATION_CONTEXT('2D SPACE',''
  ) );
#361 = PCURVE('',#72,#362);
#362 = DEFINITIONAL_REPRESENTATION('',(#363),#366);
#363 = B_SPLINE_CURVE_WITH_KNOTS('',1,(#364,#365),.UNSPECIFIED.,.F.,.F.,
  (2,2),(-46.50861791526,46.491382084733),.PIECEWISE_BEZIER_KNOTS.);
#364 = CARTESIAN_POINT('',(59.570304582995,-46.51723583053));
#365 = CARTESIAN_POINT('',(59.570304582995,46.482764169466));
#366 = ( GEOMETRIC_REPRESENTATION_CONTEXT(2) 
PARAMETRIC_REPRESENTATION_CONTEXT() REPRESENTATION_CONTEXT('2D SPACE',''
  ) );
#367 = ADVANCED_FACE('',(#368),#72,.F.);
#368 = FACE_BOUND('',#369,.F.);
#369 = EDGE_LOOP('',(#370,#391,#392,#393,#437,#463,#495,#521,#547,#573)
  );
#370 = ORIENTED_EDGE('',*,*,#371,.F.);
#371 = EDGE_CURVE('',#58,#372,#374,.T.);
#372 = VERTEX_POINT('',#373);
#373 = CARTESIAN_POINT('',(-44.74999988446,3.215651064184E-03,69.9));
#374 = SURFACE_CURVE('',#375,(#379,#385),.PCURVE_S1.);
#375 = LINE('',#376,#377);
#376 = CARTESIAN_POINT('',(8.617915267224E-03,3.215651064169E-03,69.9));
#377 = VECTOR('',#378,1.);
#378 = DIRECTION('',(1.,0.,0.));
#379 = PCURVE('',#72,#380);
#380 = DEFINITIONAL_REPRESENTATION('',(#381),#384);
#381 = B_SPLINE_CURVE_WITH_KNOTS('',1,(#382,#383),.UNSPECIFIED.,.F.,.F.,
  (2,2),(-46.50861791526,46.491382084733),.PIECEWISE_BEZIER_KNOTS.);
#382 = CARTESIAN_POINT('',(-10.329695417,-46.51723583053));
#383 = CARTESIAN_POINT('',(-10.329695417,46.482764169466));
#384 = ( GEOMETRIC_REPRESENTATION_CONTEXT(2) 
PARAMETRIC_REPRESENTATION_CONTEXT() REPRESENTATION_CONTEXT('2D SPACE',''
  ) );
#385 = PCURVE('',#100,#386);
#386 = DEFINITIONAL_REPRESENTATION('',(#387),#390);
#387 = B_SPLINE_CURVE_WITH_KNOTS('',1,(#388,#389),.UNSPECIFIED.,.F.,.F.,
  (2,2),(-46.50861791526,46.491382084733),.PIECEWISE_BEZIER_KNOTS.);
#388 = CARTESIAN_POINT('',(-46.5,3.215651064169E-03));
#389 = CARTESIAN_POINT('',(46.5,3.215651064169E-03));
#390 = ( GEOMETRIC_REPRESENTATION_CONTEXT(2) 
PARAMETRIC_REPRESENTATION_CONTEXT() REPRESENTATION_CONTEXT('2D SPACE',''
  ) );
#391 = ORIENTED_EDGE('',*,*,#57,.T.);
#392 = ORIENTED_EDGE('',*,*,#349,.T.);
#393 = ORIENTED_EDGE('',*,*,#394,.T.);
#394 = EDGE_CURVE('',#306,#395,#397,.T.);
#395 = VERTEX_POINT('',#396);
#396 = CARTESIAN_POINT('',(-37.49999310636,3.215651064169E-03,99.));
#397 = SURFACE_CURVE('',#398,(#409,#423),.PCURVE_S1.);
#398 = B_SPLINE_CURVE_WITH_KNOTS('',5,(#399,#400,#401,#402,#403,#404,
    #405,#406,#407,#408),.UNSPECIFIED.,.F.,.F.,(6,4,6),(0.,
    0.842000002341,1.),.UNSPECIFIED.);
#399 = CARTESIAN_POINT('',(-37.79999986322,3.215651064169E-03,0.));
#400 = CARTESIAN_POINT('',(-37.74947719294,3.215651064169E-03,
    16.67160003621));
#401 = CARTESIAN_POINT('',(-37.69895569905,3.215651064169E-03,
    33.343200080328));
#402 = CARTESIAN_POINT('',(-37.64843464845,3.215651064169E-03,
    50.014800127493));
#403 = CARTESIAN_POINT('',(-37.5979139459,3.215651064169E-03,
    66.686400176616));
#404 = CARTESIAN_POINT('',(-37.53791335563,3.215651064169E-03,
    86.486400181712));
#405 = CARTESIAN_POINT('',(-37.52843326995,3.215651064169E-03,
    89.614800136223));
#406 = CARTESIAN_POINT('',(-37.51895319101,3.215651064169E-03,
    92.743200090777));
#407 = CARTESIAN_POINT('',(-37.50947311822,3.215651064169E-03,
    95.87160004537));
#408 = CARTESIAN_POINT('',(-37.49999305105,3.215651064169E-03,99.));
#409 = PCURVE('',#72,#410);
#410 = DEFINITIONAL_REPRESENTATION('',(#411),#422);
#411 = B_SPLINE_CURVE_WITH_KNOTS('',5,(#412,#413,#414,#415,#416,#417,
    #418,#419,#420,#421),.UNSPECIFIED.,.F.,.F.,(6,4,6),(0.,
    0.842000002341,1.),.UNSPECIFIED.);
#412 = CARTESIAN_POINT('',(59.570304582995,-37.81723569375));
#413 = CARTESIAN_POINT('',(42.898704546785,-37.76671302347));
#414 = CARTESIAN_POINT('',(26.227104502667,-37.71619152958));
#415 = CARTESIAN_POINT('',(9.555504455501,-37.66567047899));
#416 = CARTESIAN_POINT('',(-7.116095593621,-37.61514977643));
#417 = CARTESIAN_POINT('',(-26.91609559871,-37.55514918616));
#418 = CARTESIAN_POINT('',(-30.04449555322,-37.54566910048));
#419 = CARTESIAN_POINT('',(-33.17289550778,-37.53618902155));
#420 = CARTESIAN_POINT('',(-36.30129546237,-37.52670894875));
#421 = CARTESIAN_POINT('',(-39.429695417,-37.51722888159));
#422 = ( GEOMETRIC_REPRESENTATION_CONTEXT(2) 
PARAMETRIC_REPRESENTATION_CONTEXT() REPRESENTATION_CONTEXT('2D SPACE',''
  ) );
#423 = PCURVE('',#322,#424);
#424 = DEFINITIONAL_REPRESENTATION('',(#425),#436);
#425 = B_SPLINE_CURVE_WITH_KNOTS('',5,(#426,#427,#428,#429,#430,#431,
    #432,#433,#434,#435),.UNSPECIFIED.,.F.,.F.,(6,4,6),(0.,
    0.842000002341,1.),.UNSPECIFIED.);
#426 = CARTESIAN_POINT('',(4.705840306591,0.));
#427 = CARTESIAN_POINT('',(4.706421881993,0.168400000366));
#428 = CARTESIAN_POINT('',(4.706874680023,0.336800000811));
#429 = CARTESIAN_POINT('',(4.707253622333,0.505200001288));
#430 = CARTESIAN_POINT('',(4.707575128213,0.673600001784));
#431 = CARTESIAN_POINT('',(4.707906365778,0.873600001835));
#432 = CARTESIAN_POINT('',(4.707957191511,0.905200001376));
#433 = CARTESIAN_POINT('',(4.708006594054,0.936800000917));
#434 = CARTESIAN_POINT('',(4.708054651287,0.968400000458));
#435 = CARTESIAN_POINT('',(4.708101432352,1.));
#436 = ( GEOMETRIC_REPRESENTATION_CONTEXT(2) 
PARAMETRIC_REPRESENTATION_CONTEXT() REPRESENTATION_CONTEXT('2D SPACE',''
  ) );
#437 = ORIENTED_EDGE('',*,*,#438,.F.);
#438 = EDGE_CURVE('',#439,#395,#441,.T.);
#439 = VERTEX_POINT('',#440);
#440 = CARTESIAN_POINT('',(-37.49999310636,3.215651064169E-03,108.5));
#441 = SURFACE_CURVE('',#442,(#446,#452),.PCURVE_S1.);
#442 = LINE('',#443,#444);
#443 = CARTESIAN_POINT('',(-37.49999310636,3.215651064169E-03,99.));
#444 = VECTOR('',#445,1.);
#445 = DIRECTION('',(0.,-0.,-1.));
#446 = PCURVE('',#72,#447);
#447 = DEFINITIONAL_REPRESENTATION('',(#448),#451);
#448 = B_SPLINE_CURVE_WITH_KNOTS('',1,(#449,#450),.UNSPECIFIED.,.F.,.F.,
  (2,2),(-9.5000006,6.000000070117E-07),.PIECEWISE_BEZIER_KNOTS.);
#449 = CARTESIAN_POINT('',(-48.929696017,-37.51722893689));
#450 = CARTESIAN_POINT('',(-39.429694817,-37.51722893689));
#451 = ( GEOMETRIC_REPRESENTATION_CONTEXT(2) 
PARAMETRIC_REPRESENTATION_CONTEXT() REPRESENTATION_CONTEXT('2D SPACE',''
  ) );
#452 = PCURVE('',#453,#458);
#453 = CYLINDRICAL_SURFACE('',#454,0.75);
#454 = AXIS2_PLACEMENT_3D('',#455,#456,#457);
#455 = CARTESIAN_POINT('',(-36.75,0.,99.));
#456 = DIRECTION('',(0.,-0.,-1.));
#457 = DIRECTION('',(0.,-1.,0.));
#458 = DEFINITIONAL_REPRESENTATION('',(#459),#462);
#459 = B_SPLINE_CURVE_WITH_KNOTS('',1,(#460,#461),.UNSPECIFIED.,.F.,.F.,
  (2,2),(-9.5000006,6.000000070117E-07),.PIECEWISE_BEZIER_KNOTS.);
#460 = CARTESIAN_POINT('',(1.575083874683,-9.5000006));
#461 = CARTESIAN_POINT('',(1.575083874683,6.000000070117E-07));
#462 = ( GEOMETRIC_REPRESENTATION_CONTEXT(2) 
PARAMETRIC_REPRESENTATION_CONTEXT() REPRESENTATION_CONTEXT('2D SPACE',''
  ) );
#463 = ORIENTED_EDGE('',*,*,#464,.T.);
#464 = EDGE_CURVE('',#439,#465,#467,.T.);
#465 = VERTEX_POINT('',#466);
#466 = CARTESIAN_POINT('',(-37.99999586382,3.215651064169E-03,109.));
#467 = SURFACE_CURVE('',#468,(#473,#480),.PCURVE_S1.);
#468 = HYPERBOLA('',#469,3.215651064169E-03,3.215651064169E-03);
#469 = AXIS2_PLACEMENT_3D('',#470,#471,#472);
#470 = CARTESIAN_POINT('',(-36.75,3.215651064169E-03,107.75));
#471 = DIRECTION('',(-0.,-1.,0.));
#472 = DIRECTION('',(-0.,0.,1.));
#473 = PCURVE('',#72,#474);
#474 = DEFINITIONAL_REPRESENTATION('',(#475),#479);
#475 = ( BOUNDED_CURVE() B_SPLINE_CURVE(2,(#476,#477,#478),
.UNSPECIFIED.,.F.,.F.) B_SPLINE_CURVE_WITH_KNOTS((3,3),(6.145185945837,
6.656014510904),.PIECEWISE_BEZIER_KNOTS.) CURVE() 
GEOMETRIC_REPRESENTATION_ITEM() RATIONAL_B_SPLINE_CURVE((1.,
1.03279593871,1.)) REPRESENTATION_ITEM('') );
#476 = CARTESIAN_POINT('',(-48.929695417,-37.51722893689));
#477 = CARTESIAN_POINT('',(-49.11719472763,-37.70472997094));
#478 = CARTESIAN_POINT('',(-49.429695417,-38.01723169436));
#479 = ( GEOMETRIC_REPRESENTATION_CONTEXT(2) 
PARAMETRIC_REPRESENTATION_CONTEXT() REPRESENTATION_CONTEXT('2D SPACE',''
  ) );
#480 = PCURVE('',#481,#486);
#481 = CONICAL_SURFACE('',#482,0.75,0.785398163397);
#482 = AXIS2_PLACEMENT_3D('',#483,#484,#485);
#483 = CARTESIAN_POINT('',(-36.75,0.,108.5));
#484 = DIRECTION('',(-0.,0.,1.));
#485 = DIRECTION('',(0.,-1.,0.));
#486 = DEFINITIONAL_REPRESENTATION('',(#487),#494);
#487 = B_SPLINE_CURVE_WITH_KNOTS('',5,(#488,#489,#490,#491,#492,#493),
  .UNSPECIFIED.,.F.,.F.,(6,6),(6.145185945837,6.656014510904),
  .PIECEWISE_BEZIER_KNOTS.);
#488 = CARTESIAN_POINT('',(-1.575083874683,1.7763568394E-15));
#489 = CARTESIAN_POINT('',(-1.574645835638,7.662358046634E-02));
#490 = CARTESIAN_POINT('',(-1.574263734942,0.163032119383));
#491 = CARTESIAN_POINT('',(-1.573928059907,0.260895136508));
#492 = CARTESIAN_POINT('',(-1.573631673911,0.372293281308));
#493 = CARTESIAN_POINT('',(-1.573368850484,0.5));
#494 = ( GEOMETRIC_REPRESENTATION_CONTEXT(2) 
PARAMETRIC_REPRESENTATION_CONTEXT() REPRESENTATION_CONTEXT('2D SPACE',''
  ) );
#495 = ORIENTED_EDGE('',*,*,#496,.F.);
#496 = EDGE_CURVE('',#497,#465,#499,.T.);
#497 = VERTEX_POINT('',#498);
#498 = CARTESIAN_POINT('',(-39.74999986993,3.215651064183E-03,109.));
#499 = SURFACE_CURVE('',#500,(#504,#510),.PCURVE_S1.);
#500 = LINE('',#501,#502);
#501 = CARTESIAN_POINT('',(8.617915267223E-03,3.215651064169E-03,109.));
#502 = VECTOR('',#503,1.);
#503 = DIRECTION('',(1.,0.,0.));
#504 = PCURVE('',#72,#505);
#505 = DEFINITIONAL_REPRESENTATION('',(#506),#509);
#506 = B_SPLINE_CURVE_WITH_KNOTS('',1,(#507,#508),.UNSPECIFIED.,.F.,.F.,
  (2,2),(-39.75861791526,39.741382084733),.PIECEWISE_BEZIER_KNOTS.);
#507 = CARTESIAN_POINT('',(-49.429695417,-39.76723583053));
#508 = CARTESIAN_POINT('',(-49.429695417,39.732764169466));
#509 = ( GEOMETRIC_REPRESENTATION_CONTEXT(2) 
PARAMETRIC_REPRESENTATION_CONTEXT() REPRESENTATION_CONTEXT('2D SPACE',''
  ) );
#510 = PCURVE('',#511,#516);
#511 = PLANE('',#512);
#512 = AXIS2_PLACEMENT_3D('',#513,#514,#515);
#513 = CARTESIAN_POINT('',(-4.403329231825E-15,5.790076070423E-16,109.)
  );
#514 = DIRECTION('',(0.,0.,1.));
#515 = DIRECTION('',(1.,0.,-0.));
#516 = DEFINITIONAL_REPRESENTATION('',(#517),#520);
#517 = B_SPLINE_CURVE_WITH_KNOTS('',1,(#518,#519),.UNSPECIFIED.,.F.,.F.,
  (2,2),(-39.75861791526,39.741382084733),.PIECEWISE_BEZIER_KNOTS.);
#518 = CARTESIAN_POINT('',(-39.75,3.215651064168E-03));
#519 = CARTESIAN_POINT('',(39.75,3.215651064168E-03));
#520 = ( GEOMETRIC_REPRESENTATION_CONTEXT(2) 
PARAMETRIC_REPRESENTATION_CONTEXT() REPRESENTATION_CONTEXT('2D SPACE',''
  ) );
#521 = ORIENTED_EDGE('',*,*,#522,.T.);
#522 = EDGE_CURVE('',#497,#523,#525,.T.);
#523 = VERTEX_POINT('',#524);
#524 = CARTESIAN_POINT('',(-39.74999986993,3.215651064183E-03,80.7));
#525 = SURFACE_CURVE('',#526,(#530,#536),.PCURVE_S1.);
#526 = LINE('',#527,#528);
#527 = CARTESIAN_POINT('',(-39.74999986993,3.215651064169E-03,80.7));
#528 = VECTOR('',#529,1.);
#529 = DIRECTION('',(-0.,-0.,-1.));
#530 = PCURVE('',#72,#531);
#531 = DEFINITIONAL_REPRESENTATION('',(#532),#535);
#532 = B_SPLINE_CURVE_WITH_KNOTS('',1,(#533,#534),.UNSPECIFIED.,.F.,.F.,
  (2,2),(-28.3000006,6.000000070117E-07),.PIECEWISE_BEZIER_KNOTS.);
#533 = CARTESIAN_POINT('',(-49.429696017,-39.76723570046));
#534 = CARTESIAN_POINT('',(-21.129694817,-39.76723570046));
#535 = ( GEOMETRIC_REPRESENTATION_CONTEXT(2) 
PARAMETRIC_REPRESENTATION_CONTEXT() REPRESENTATION_CONTEXT('2D SPACE',''
  ) );
#536 = PCURVE('',#537,#542);
#537 = CYLINDRICAL_SURFACE('',#538,39.75);
#538 = AXIS2_PLACEMENT_3D('',#539,#540,#541);
#539 = CARTESIAN_POINT('',(0.,0.,80.7));
#540 = DIRECTION('',(-0.,-0.,-1.));
#541 = DIRECTION('',(1.,0.,0.));
#542 = DEFINITIONAL_REPRESENTATION('',(#543),#546);
#543 = B_SPLINE_CURVE_WITH_KNOTS('',1,(#544,#545),.UNSPECIFIED.,.F.,.F.,
  (2,2),(-28.3,-0.),.PIECEWISE_BEZIER_KNOTS.);
#544 = CARTESIAN_POINT('',(-3.141511756708,-28.3));
#545 = CARTESIAN_POINT('',(-3.141511756708,0.));
#546 = ( GEOMETRIC_REPRESENTATION_CONTEXT(2) 
PARAMETRIC_REPRESENTATION_CONTEXT() REPRESENTATION_CONTEXT('2D SPACE',''
  ) );
#547 = ORIENTED_EDGE('',*,*,#548,.F.);
#548 = EDGE_CURVE('',#549,#523,#551,.T.);
#549 = VERTEX_POINT('',#550);
#550 = CARTESIAN_POINT('',(-44.74999988446,3.215651064184E-03,80.7));
#551 = SURFACE_CURVE('',#552,(#556,#562),.PCURVE_S1.);
#552 = LINE('',#553,#554);
#553 = CARTESIAN_POINT('',(8.617915267224E-03,3.215651064169E-03,80.7));
#554 = VECTOR('',#555,1.);
#555 = DIRECTION('',(1.,0.,0.));
#556 = PCURVE('',#72,#557);
#557 = DEFINITIONAL_REPRESENTATION('',(#558),#561);
#558 = B_SPLINE_CURVE_WITH_KNOTS('',1,(#559,#560),.UNSPECIFIED.,.F.,.F.,
  (2,2),(-44.75861791526,44.741382084733),.PIECEWISE_BEZIER_KNOTS.);
#559 = CARTESIAN_POINT('',(-21.129695417,-44.76723583053));
#560 = CARTESIAN_POINT('',(-21.129695417,44.732764169466));
#561 = ( GEOMETRIC_REPRESENTATION_CONTEXT(2) 
PARAMETRIC_REPRESENTATION_CONTEXT() REPRESENTATION_CONTEXT('2D SPACE',''
  ) );
#562 = PCURVE('',#563,#568);
#563 = PLANE('',#564);
#564 = AXIS2_PLACEMENT_3D('',#565,#566,#567);
#565 = CARTESIAN_POINT('',(-2.933502854163E-15,4.040240899597E-15,80.7)
  );
#566 = DIRECTION('',(0.,0.,1.));
#567 = DIRECTION('',(1.,0.,-0.));
#568 = DEFINITIONAL_REPRESENTATION('',(#569),#572);
#569 = B_SPLINE_CURVE_WITH_KNOTS('',1,(#570,#571),.UNSPECIFIED.,.F.,.F.,
  (2,2),(-44.75861791526,44.741382084733),.PIECEWISE_BEZIER_KNOTS.);
#570 = CARTESIAN_POINT('',(-44.75,3.215651064165E-03));
#571 = CARTESIAN_POINT('',(44.75,3.215651064165E-03));
#572 = ( GEOMETRIC_REPRESENTATION_CONTEXT(2) 
PARAMETRIC_REPRESENTATION_CONTEXT() REPRESENTATION_CONTEXT('2D SPACE',''
  ) );
#573 = ORIENTED_EDGE('',*,*,#574,.T.);
#574 = EDGE_CURVE('',#549,#372,#575,.T.);
#575 = SURFACE_CURVE('',#576,(#580,#586),.PCURVE_S1.);
#576 = LINE('',#577,#578);
#577 = CARTESIAN_POINT('',(-44.74999988446,3.215651064169E-03,69.9));
#578 = VECTOR('',#579,1.);
#579 = DIRECTION('',(-0.,-0.,-1.));
#580 = PCURVE('',#72,#581);
#581 = DEFINITIONAL_REPRESENTATION('',(#582),#585);
#582 = B_SPLINE_CURVE_WITH_KNOTS('',1,(#583,#584),.UNSPECIFIED.,.F.,.F.,
  (2,2),(-10.8000006,6.000000070117E-07),.PIECEWISE_BEZIER_KNOTS.);
#583 = CARTESIAN_POINT('',(-21.129696017,-44.76723571499));
#584 = CARTESIAN_POINT('',(-10.329694817,-44.76723571499));
#585 = ( GEOMETRIC_REPRESENTATION_CONTEXT(2) 
PARAMETRIC_REPRESENTATION_CONTEXT() REPRESENTATION_CONTEXT('2D SPACE',''
  ) );
#586 = PCURVE('',#587,#592);
#587 = CYLINDRICAL_SURFACE('',#588,44.75);
#588 = AXIS2_PLACEMENT_3D('',#589,#590,#591);
#589 = CARTESIAN_POINT('',(0.,0.,69.9));
#590 = DIRECTION('',(-0.,-0.,-1.));
#591 = DIRECTION('',(1.,0.,0.));
#592 = DEFINITIONAL_REPRESENTATION('',(#593),#596);
#593 = B_SPLINE_CURVE_WITH_KNOTS('',1,(#594,#595),.UNSPECIFIED.,.F.,.F.,
  (2,2),(-10.8,-0.),.PIECEWISE_BEZIER_KNOTS.);
#594 = CARTESIAN_POINT('',(-3.141520795465,-10.8));
#595 = CARTESIAN_POINT('',(-3.141520795465,0.));
#596 = ( GEOMETRIC_REPRESENTATION_CONTEXT(2) 
PARAMETRIC_REPRESENTATION_CONTEXT() REPRESENTATION_CONTEXT('2D SPACE',''
  ) );
#597 = ADVANCED_FACE('',(#598),#100,.T.);
#598 = FACE_BOUND('',#599,.T.);
#599 = EDGE_LOOP('',(#600,#601,#602,#623));
#600 = ORIENTED_EDGE('',*,*,#371,.F.);
#601 = ORIENTED_EDGE('',*,*,#83,.F.);
#602 = ORIENTED_EDGE('',*,*,#603,.F.);
#603 = EDGE_CURVE('',#604,#84,#606,.T.);
#604 = VERTEX_POINT('',#605);
#605 = CARTESIAN_POINT('',(44.749999884465,3.215651064169E-03,69.9));
#606 = SURFACE_CURVE('',#607,(#611,#617),.PCURVE_S1.);
#607 = LINE('',#608,#609);
#608 = CARTESIAN_POINT('',(8.617915267224E-03,3.215651064169E-03,69.9));
#609 = VECTOR('',#610,1.);
#610 = DIRECTION('',(1.,0.,0.));
#611 = PCURVE('',#100,#612);
#612 = DEFINITIONAL_REPRESENTATION('',(#613),#616);
#613 = B_SPLINE_CURVE_WITH_KNOTS('',1,(#614,#615),.UNSPECIFIED.,.F.,.F.,
  (2,2),(-46.50861791526,46.491382084733),.PIECEWISE_BEZIER_KNOTS.);
#614 = CARTESIAN_POINT('',(-46.5,3.215651064169E-03));
#615 = CARTESIAN_POINT('',(46.5,3.215651064169E-03));
#616 = ( GEOMETRIC_REPRESENTATION_CONTEXT(2) 
PARAMETRIC_REPRESENTATION_CONTEXT() REPRESENTATION_CONTEXT('2D SPACE',''
  ) );
#617 = PCURVE('',#129,#618);
#618 = DEFINITIONAL_REPRESENTATION('',(#619),#622);
#619 = B_SPLINE_CURVE_WITH_KNOTS('',1,(#620,#621),.UNSPECIFIED.,.F.,.F.,
  (2,2),(-46.50861791526,46.491382084733),.PIECEWISE_BEZIER_KNOTS.);
#620 = CARTESIAN_POINT('',(-10.329695417,-46.51723583053));
#621 = CARTESIAN_POINT('',(-10.329695417,46.482764169466));
#622 = ( GEOMETRIC_REPRESENTATION_CONTEXT(2) 
PARAMETRIC_REPRESENTATION_CONTEXT() REPRESENTATION_CONTEXT('2D SPACE',''
  ) );
#623 = ORIENTED_EDGE('',*,*,#624,.T.);
#624 = EDGE_CURVE('',#604,#372,#625,.T.);
#625 = SURFACE_CURVE('',#626,(#631,#642),.PCURVE_S1.);
#626 = CIRCLE('',#627,44.75);
#627 = AXIS2_PLACEMENT_3D('',#628,#629,#630);
#628 = CARTESIAN_POINT('',(0.,0.,69.9));
#629 = DIRECTION('',(0.,0.,-1.));
#630 = DIRECTION('',(0.999999997418,7.185812433897E-05,0.));
#631 = PCURVE('',#100,#632);
#632 = DEFINITIONAL_REPRESENTATION('',(#633),#641);
#633 = ( BOUNDED_CURVE() B_SPLINE_CURVE(2,(#634,#635,#636,#637,#638,#639
,#640),.UNSPECIFIED.,.T.,.F.) B_SPLINE_CURVE_WITH_KNOTS((1,2,2,2,2,1),(
    -2.094395102393,0.,2.094395102393,4.188790204786,6.28318530718,
8.377580409573),.UNSPECIFIED.) CURVE() GEOMETRIC_REPRESENTATION_ITEM() 
RATIONAL_B_SPLINE_CURVE((1.,0.5,1.,0.5,1.,0.5,1.)) REPRESENTATION_ITEM(
  '') );
#634 = CARTESIAN_POINT('',(44.749999884465,3.215651064169E-03));
#635 = CARTESIAN_POINT('',(44.755569555487,-77.50605778753));
#636 = CARTESIAN_POINT('',(-22.37221510672,-38.75624454482));
#637 = CARTESIAN_POINT('',(-89.49999976892,-6.431302128349E-03));
#638 = CARTESIAN_POINT('',(-22.37778477774,38.753028893765));
#639 = CARTESIAN_POINT('',(44.744430213442,77.512489089658));
#640 = CARTESIAN_POINT('',(44.749999884465,3.215651064169E-03));
#641 = ( GEOMETRIC_REPRESENTATION_CONTEXT(2) 
PARAMETRIC_REPRESENTATION_CONTEXT() REPRESENTATION_CONTEXT('2D SPACE',''
  ) );
#642 = PCURVE('',#587,#643);
#643 = DEFINITIONAL_REPRESENTATION('',(#644),#648);
#644 = LINE('',#645,#646);
#645 = CARTESIAN_POINT('',(-6.283257165304,0.));
#646 = VECTOR('',#647,1.);
#647 = DIRECTION('',(1.,-0.));
#648 = ( GEOMETRIC_REPRESENTATION_CONTEXT(2) 
PARAMETRIC_REPRESENTATION_CONTEXT() REPRESENTATION_CONTEXT('2D SPACE',''
  ) );
#649 = ADVANCED_FACE('',(#650),#129,.F.);
#650 = FACE_BOUND('',#651,.F.);
#651 = EDGE_LOOP('',(#652,#653,#654,#675,#696,#717,#738,#770,#796,#924,
    #951));
#652 = ORIENTED_EDGE('',*,*,#116,.F.);
#653 = ORIENTED_EDGE('',*,*,#603,.F.);
#654 = ORIENTED_EDGE('',*,*,#655,.F.);
#655 = EDGE_CURVE('',#656,#604,#658,.T.);
#656 = VERTEX_POINT('',#657);
#657 = CARTESIAN_POINT('',(44.749999884465,3.215651064169E-03,80.7));
#658 = SURFACE_CURVE('',#659,(#663,#669),.PCURVE_S1.);
#659 = LINE('',#660,#661);
#660 = CARTESIAN_POINT('',(44.749999884465,3.215651064169E-03,69.9));
#661 = VECTOR('',#662,1.);
#662 = DIRECTION('',(-0.,-0.,-1.));
#663 = PCURVE('',#129,#664);
#664 = DEFINITIONAL_REPRESENTATION('',(#665),#668);
#665 = B_SPLINE_CURVE_WITH_KNOTS('',1,(#666,#667),.UNSPECIFIED.,.F.,.F.,
  (2,2),(-10.8000006,6.000000070117E-07),.PIECEWISE_BEZIER_KNOTS.);
#666 = CARTESIAN_POINT('',(-21.129696017,44.73276405393));
#667 = CARTESIAN_POINT('',(-10.329694817,44.73276405393));
#668 = ( GEOMETRIC_REPRESENTATION_CONTEXT(2) 
PARAMETRIC_REPRESENTATION_CONTEXT() REPRESENTATION_CONTEXT('2D SPACE',''
  ) );
#669 = PCURVE('',#587,#670);
#670 = DEFINITIONAL_REPRESENTATION('',(#671),#674);
#671 = B_SPLINE_CURVE_WITH_KNOTS('',1,(#672,#673),.UNSPECIFIED.,.F.,.F.,
  (2,2),(-10.8,-0.),.PIECEWISE_BEZIER_KNOTS.);
#672 = CARTESIAN_POINT('',(-6.283257165304,-10.8));
#673 = CARTESIAN_POINT('',(-6.283257165304,0.));
#674 = ( GEOMETRIC_REPRESENTATION_CONTEXT(2) 
PARAMETRIC_REPRESENTATION_CONTEXT() REPRESENTATION_CONTEXT('2D SPACE',''
  ) );
#675 = ORIENTED_EDGE('',*,*,#676,.F.);
#676 = EDGE_CURVE('',#677,#656,#679,.T.);
#677 = VERTEX_POINT('',#678);
#678 = CARTESIAN_POINT('',(39.749999869932,3.215651064169E-03,80.7));
#679 = SURFACE_CURVE('',#680,(#684,#690),.PCURVE_S1.);
#680 = LINE('',#681,#682);
#681 = CARTESIAN_POINT('',(8.617915267224E-03,3.215651064169E-03,80.7));
#682 = VECTOR('',#683,1.);
#683 = DIRECTION('',(1.,0.,0.));
#684 = PCURVE('',#129,#685);
#685 = DEFINITIONAL_REPRESENTATION('',(#686),#689);
#686 = B_SPLINE_CURVE_WITH_KNOTS('',1,(#687,#688),.UNSPECIFIED.,.F.,.F.,
  (2,2),(-44.75861791526,44.741382084733),.PIECEWISE_BEZIER_KNOTS.);
#687 = CARTESIAN_POINT('',(-21.129695417,-44.76723583053));
#688 = CARTESIAN_POINT('',(-21.129695417,44.732764169466));
#689 = ( GEOMETRIC_REPRESENTATION_CONTEXT(2) 
PARAMETRIC_REPRESENTATION_CONTEXT() REPRESENTATION_CONTEXT('2D SPACE',''
  ) );
#690 = PCURVE('',#563,#691);
#691 = DEFINITIONAL_REPRESENTATION('',(#692),#695);
#692 = B_SPLINE_CURVE_WITH_KNOTS('',1,(#693,#694),.UNSPECIFIED.,.F.,.F.,
  (2,2),(-44.75861791526,44.741382084733),.PIECEWISE_BEZIER_KNOTS.);
#693 = CARTESIAN_POINT('',(-44.75,3.215651064165E-03));
#694 = CARTESIAN_POINT('',(44.75,3.215651064165E-03));
#695 = ( GEOMETRIC_REPRESENTATION_CONTEXT(2) 
PARAMETRIC_REPRESENTATION_CONTEXT() REPRESENTATION_CONTEXT('2D SPACE',''
  ) );
#696 = ORIENTED_EDGE('',*,*,#697,.F.);
#697 = EDGE_CURVE('',#698,#677,#700,.T.);
#698 = VERTEX_POINT('',#699);
#699 = CARTESIAN_POINT('',(39.749999869932,3.215651064169E-03,109.));
#700 = SURFACE_CURVE('',#701,(#705,#711),.PCURVE_S1.);
#701 = LINE('',#702,#703);
#702 = CARTESIAN_POINT('',(39.749999869932,3.215651064169E-03,80.7));
#703 = VECTOR('',#704,1.);
#704 = DIRECTION('',(-0.,-0.,-1.));
#705 = PCURVE('',#129,#706);
#706 = DEFINITIONAL_REPRESENTATION('',(#707),#710);
#707 = B_SPLINE_CURVE_WITH_KNOTS('',1,(#708,#709),.UNSPECIFIED.,.F.,.F.,
  (2,2),(-28.3000006,6.000000070117E-07),.PIECEWISE_BEZIER_KNOTS.);
#708 = CARTESIAN_POINT('',(-49.429696017,39.732764039397));
#709 = CARTESIAN_POINT('',(-21.129694817,39.732764039397));
#710 = ( GEOMETRIC_REPRESENTATION_CONTEXT(2) 
PARAMETRIC_REPRESENTATION_CONTEXT() REPRESENTATION_CONTEXT('2D SPACE',''
  ) );
#711 = PCURVE('',#537,#712);
#712 = DEFINITIONAL_REPRESENTATION('',(#713),#716);
#713 = B_SPLINE_CURVE_WITH_KNOTS('',1,(#714,#715),.UNSPECIFIED.,.F.,.F.,
  (2,2),(-28.3,-0.),.PIECEWISE_BEZIER_KNOTS.);
#714 = CARTESIAN_POINT('',(-6.283266204062,-28.3));
#715 = CARTESIAN_POINT('',(-6.283266204062,0.));
#716 = ( GEOMETRIC_REPRESENTATION_CONTEXT(2) 
PARAMETRIC_REPRESENTATION_CONTEXT() REPRESENTATION_CONTEXT('2D SPACE',''
  ) );
#717 = ORIENTED_EDGE('',*,*,#718,.F.);
#718 = EDGE_CURVE('',#719,#698,#721,.T.);
#719 = VERTEX_POINT('',#720);
#720 = CARTESIAN_POINT('',(37.999995863828,3.215651064169E-03,109.));
#721 = SURFACE_CURVE('',#722,(#726,#732),.PCURVE_S1.);
#722 = LINE('',#723,#724);
#723 = CARTESIAN_POINT('',(8.617915267223E-03,3.215651064169E-03,109.));
#724 = VECTOR('',#725,1.);
#725 = DIRECTION('',(1.,0.,0.));
#726 = PCURVE('',#129,#727);
#727 = DEFINITIONAL_REPRESENTATION('',(#728),#731);
#728 = B_SPLINE_CURVE_WITH_KNOTS('',1,(#729,#730),.UNSPECIFIED.,.F.,.F.,
  (2,2),(-39.75861791526,39.741382084733),.PIECEWISE_BEZIER_KNOTS.);
#729 = CARTESIAN_POINT('',(-49.429695417,-39.76723583053));
#730 = CARTESIAN_POINT('',(-49.429695417,39.732764169466));
#731 = ( GEOMETRIC_REPRESENTATION_CONTEXT(2) 
PARAMETRIC_REPRESENTATION_CONTEXT() REPRESENTATION_CONTEXT('2D SPACE',''
  ) );
#732 = PCURVE('',#511,#733);
#733 = DEFINITIONAL_REPRESENTATION('',(#734),#737);
#734 = B_SPLINE_CURVE_WITH_KNOTS('',1,(#735,#736),.UNSPECIFIED.,.F.,.F.,
  (2,2),(-39.75861791526,39.741382084733),.PIECEWISE_BEZIER_KNOTS.);
#735 = CARTESIAN_POINT('',(-39.75,3.215651064168E-03));
#736 = CARTESIAN_POINT('',(39.75,3.215651064168E-03));
#737 = ( GEOMETRIC_REPRESENTATION_CONTEXT(2) 
PARAMETRIC_REPRESENTATION_CONTEXT() REPRESENTATION_CONTEXT('2D SPACE',''
  ) );
#738 = ORIENTED_EDGE('',*,*,#739,.T.);
#739 = EDGE_CURVE('',#719,#740,#742,.T.);
#740 = VERTEX_POINT('',#741);
#741 = CARTESIAN_POINT('',(37.49999310636,3.215651064169E-03,108.5));
#742 = SURFACE_CURVE('',#743,(#748,#755),.PCURVE_S1.);
#743 = HYPERBOLA('',#744,3.215651064169E-03,3.215651064169E-03);
#744 = AXIS2_PLACEMENT_3D('',#745,#746,#747);
#745 = CARTESIAN_POINT('',(36.75,3.215651064169E-03,107.75));
#746 = DIRECTION('',(-0.,-1.,0.));
#747 = DIRECTION('',(0.,-0.,1.));
#748 = PCURVE('',#129,#749);
#749 = DEFINITIONAL_REPRESENTATION('',(#750),#754);
#750 = ( BOUNDED_CURVE() B_SPLINE_CURVE(2,(#751,#752,#753),
.UNSPECIFIED.,.F.,.F.) B_SPLINE_CURVE_WITH_KNOTS((3,3),(-6.656014510904,
-6.145185945837),.PIECEWISE_BEZIER_KNOTS.) CURVE() 
GEOMETRIC_REPRESENTATION_ITEM() RATIONAL_B_SPLINE_CURVE((1.,
1.03279593871,1.)) REPRESENTATION_ITEM('') );
#751 = CARTESIAN_POINT('',(-49.429695417,37.982760033294));
#752 = CARTESIAN_POINT('',(-49.11719472763,37.670258309877));
#753 = CARTESIAN_POINT('',(-48.929695417,37.482757275826));
#754 = ( GEOMETRIC_REPRESENTATION_CONTEXT(2) 
PARAMETRIC_REPRESENTATION_CONTEXT() REPRESENTATION_CONTEXT('2D SPACE',''
  ) );
#755 = PCURVE('',#756,#761);
#756 = CONICAL_SURFACE('',#757,0.75,0.785398163397);
#757 = AXIS2_PLACEMENT_3D('',#758,#759,#760);
#758 = CARTESIAN_POINT('',(36.75,0.,108.5));
#759 = DIRECTION('',(-0.,-0.,1.));
#760 = DIRECTION('',(0.,1.,0.));
#761 = DEFINITIONAL_REPRESENTATION('',(#762),#769);
#762 = B_SPLINE_CURVE_WITH_KNOTS('',5,(#763,#764,#765,#766,#767,#768),
  .UNSPECIFIED.,.F.,.F.,(6,6),(-6.656014510904,-6.145185945837),
  .PIECEWISE_BEZIER_KNOTS.);
#763 = CARTESIAN_POINT('',(-1.568223803106,0.5));
#764 = CARTESIAN_POINT('',(-1.567960979679,0.372293281308));
#765 = CARTESIAN_POINT('',(-1.567664593682,0.260895136508));
#766 = CARTESIAN_POINT('',(-1.567328918647,0.163032119383));
#767 = CARTESIAN_POINT('',(-1.566946817951,7.662358046634E-02));
#768 = CARTESIAN_POINT('',(-1.566508778906,1.7763568394E-15));
#769 = ( GEOMETRIC_REPRESENTATION_CONTEXT(2) 
PARAMETRIC_REPRESENTATION_CONTEXT() REPRESENTATION_CONTEXT('2D SPACE',''
  ) );
#770 = ORIENTED_EDGE('',*,*,#771,.T.);
#771 = EDGE_CURVE('',#740,#772,#774,.T.);
#772 = VERTEX_POINT('',#773);
#773 = CARTESIAN_POINT('',(37.49999310636,3.215651064169E-03,99.));
#774 = SURFACE_CURVE('',#775,(#779,#785),.PCURVE_S1.);
#775 = LINE('',#776,#777);
#776 = CARTESIAN_POINT('',(37.49999310636,3.215651064169E-03,99.));
#777 = VECTOR('',#778,1.);
#778 = DIRECTION('',(0.,0.,-1.));
#779 = PCURVE('',#129,#780);
#780 = DEFINITIONAL_REPRESENTATION('',(#781),#784);
#781 = B_SPLINE_CURVE_WITH_KNOTS('',1,(#782,#783),.UNSPECIFIED.,.F.,.F.,
  (2,2),(-9.5000006,6.000000070117E-07),.PIECEWISE_BEZIER_KNOTS.);
#782 = CARTESIAN_POINT('',(-48.929696017,37.482757275826));
#783 = CARTESIAN_POINT('',(-39.429694817,37.482757275826));
#784 = ( GEOMETRIC_REPRESENTATION_CONTEXT(2) 
PARAMETRIC_REPRESENTATION_CONTEXT() REPRESENTATION_CONTEXT('2D SPACE',''
  ) );
#785 = PCURVE('',#786,#791);
#786 = CYLINDRICAL_SURFACE('',#787,0.75);
#787 = AXIS2_PLACEMENT_3D('',#788,#789,#790);
#788 = CARTESIAN_POINT('',(36.75,0.,99.));
#789 = DIRECTION('',(0.,0.,-1.));
#790 = DIRECTION('',(0.,1.,0.));
#791 = DEFINITIONAL_REPRESENTATION('',(#792),#795);
#792 = B_SPLINE_CURVE_WITH_KNOTS('',1,(#793,#794),.UNSPECIFIED.,.F.,.F.,
  (2,2),(-9.5000006,6.000000070117E-07),.PIECEWISE_BEZIER_KNOTS.);
#793 = CARTESIAN_POINT('',(1.566508778906,-9.5000006));
#794 = CARTESIAN_POINT('',(1.566508778906,6.000000070117E-07));
#795 = ( GEOMETRIC_REPRESENTATION_CONTEXT(2) 
PARAMETRIC_REPRESENTATION_CONTEXT() REPRESENTATION_CONTEXT('2D SPACE',''
  ) );
#796 = ORIENTED_EDGE('',*,*,#797,.F.);
#797 = EDGE_CURVE('',#798,#772,#800,.T.);
#798 = VERTEX_POINT('',#799);
#799 = CARTESIAN_POINT('',(37.79549808851,3.215651064169E-03,
    0.424465940471));
#800 = SURFACE_CURVE('',#801,(#840,#882),.PCURVE_S1.);
#801 = B_SPLINE_CURVE_WITH_KNOTS('',7,(#802,#803,#804,#805,#806,#807,
    #808,#809,#810,#811,#812,#813,#814,#815,#816,#817,#818,#819,#820,
    #821,#822,#823,#824,#825,#826,#827,#828,#829,#830,#831,#832,#833,
    #834,#835,#836,#837,#838,#839),.UNSPECIFIED.,.F.,.F.,(8,6,6,6,6,6,8)
  ,(0.,7.444457893322E-02,0.194737178131,0.376728889695,0.558632199441,
    0.969465938579,1.),.UNSPECIFIED.);
#802 = CARTESIAN_POINT('',(37.79549808851,3.215651064169E-03,
    0.424465940472));
#803 = CARTESIAN_POINT('',(37.784487678795,3.215651064169E-03,
    1.472436526121));
#804 = CARTESIAN_POINT('',(37.774079655472,3.215651064169E-03,
    2.520388913424));
#805 = CARTESIAN_POINT('',(37.764299506447,3.215651064169E-03,
    3.568326469891));
#806 = CARTESIAN_POINT('',(37.75516233108,3.215651064169E-03,
    4.616253937396));
#807 = CARTESIAN_POINT('',(37.746667755997,3.215651064169E-03,
    5.664176979381));
#808 = CARTESIAN_POINT('',(37.738799490643,3.215651064169E-03,
    6.712101595765));
#809 = CARTESIAN_POINT('',(37.719782215159,3.215651064169E-03,
    9.453352690673));
#810 = CARTESIAN_POINT('',(37.709596967784,3.215651064169E-03,
    11.146690676231));
#811 = CARTESIAN_POINT('',(37.700856448026,3.215651064169E-03,
    12.840070342546));
#812 = CARTESIAN_POINT('',(37.693359055565,3.215651064169E-03,
    14.533510450967));
#813 = CARTESIAN_POINT('',(37.686876375477,3.215651064169E-03,
    16.227018824199));
#814 = CARTESIAN_POINT('',(37.681213624166,3.215651064169E-03,
    17.92059586375));
#815 = CARTESIAN_POINT('',(37.66862395726,3.215651064169E-03,
    22.176560942312));
#816 = CARTESIAN_POINT('',(37.662538922623,3.215651064169E-03,
    24.739032933084));
#817 = CARTESIAN_POINT('',(37.657369855022,3.215651064169E-03,
    27.301640445644));
#818 = CARTESIAN_POINT('',(37.652712717304,3.215651064169E-03,
    29.864358786017));
#819 = CARTESIAN_POINT('',(37.648341300933,3.215651064169E-03,
    32.427165772377));
#820 = CARTESIAN_POINT('',(37.644093709297,3.215651064169E-03,
    34.990043015845));
#821 = CARTESIAN_POINT('',(37.635642987494,3.215651064169E-03,
    40.114665350437));
#822 = CARTESIAN_POINT('',(37.631439493486,3.215651064169E-03,
    42.676411111583));
#823 = CARTESIAN_POINT('',(37.627153280933,3.215651064169E-03,
    45.238201927529));
#824 = CARTESIAN_POINT('',(37.622730448874,3.215651064169E-03,
    47.800028149514));
#825 = CARTESIAN_POINT('',(37.618141283688,3.215651064169E-03,
    50.36188249142));
#826 = CARTESIAN_POINT('',(37.613366940457,3.215651064169E-03,
    52.923759893227));
#827 = CARTESIAN_POINT('',(37.597176408798,3.215651064169E-03,
    61.27177443464));
#828 = CARTESIAN_POINT('',(37.58496245611,3.215651064169E-03,
    67.057986809817));
#829 = CARTESIAN_POINT('',(37.571648670421,3.215651064169E-03,
    72.844258016996));
#830 = CARTESIAN_POINT('',(37.557321814297,3.215651064169E-03,
    78.630565931244));
#831 = CARTESIAN_POINT('',(37.542039490392,3.215651064169E-03,
    84.416896944487));
#832 = CARTESIAN_POINT('',(37.525881493148,3.215651064169E-03,
    90.203245076415));
#833 = CARTESIAN_POINT('',(37.507652529736,3.215651064169E-03,
    96.419666311501));
#834 = CARTESIAN_POINT('',(37.506386968305,3.215651064169E-03,
    96.849721746555));
#835 = CARTESIAN_POINT('',(37.505116962781,3.215651064169E-03,
    97.279777255952));
#836 = CARTESIAN_POINT('',(37.503842540857,3.215651064169E-03,
    97.709832837794));
#837 = CARTESIAN_POINT('',(37.502563730054,3.215651064169E-03,
    98.139888490251));
#838 = CARTESIAN_POINT('',(37.501280557727,3.215651064169E-03,
    98.569944211555));
#839 = CARTESIAN_POINT('',(37.499993051058,3.215651064169E-03,99.));
#840 = PCURVE('',#129,#841);
#841 = DEFINITIONAL_REPRESENTATION('',(#842),#881);
#842 = B_SPLINE_CURVE_WITH_KNOTS('',7,(#843,#844,#845,#846,#847,#848,
    #849,#850,#851,#852,#853,#854,#855,#856,#857,#858,#859,#860,#861,
    #862,#863,#864,#865,#866,#867,#868,#869,#870,#871,#872,#873,#874,
    #875,#876,#877,#878,#879,#880),.UNSPECIFIED.,.F.,.F.,(8,6,6,6,6,6,8)
  ,(0.,7.444457893322E-02,0.194737178131,0.376728889695,0.558632199441,
    0.969465938579,1.),.UNSPECIFIED.);
#843 = CARTESIAN_POINT('',(59.145838642523,37.778262257976));
#844 = CARTESIAN_POINT('',(58.097868056874,37.767251848261));
#845 = CARTESIAN_POINT('',(57.049915669571,37.756843824938));
#846 = CARTESIAN_POINT('',(56.001978113104,37.747063675913));
#847 = CARTESIAN_POINT('',(54.954050645599,37.737926500546));
#848 = CARTESIAN_POINT('',(53.906127603614,37.729431925462));
#849 = CARTESIAN_POINT('',(52.85820298723,37.721563660109));
#850 = CARTESIAN_POINT('',(50.116951892322,37.702546384625));
#851 = CARTESIAN_POINT('',(48.423613906764,37.692361137249));
#852 = CARTESIAN_POINT('',(46.730234240449,37.683620617492));
#853 = CARTESIAN_POINT('',(45.036794132027,37.676123225031));
#854 = CARTESIAN_POINT('',(43.343285758796,37.669640544942));
#855 = CARTESIAN_POINT('',(41.649708719245,37.663977793631));
#856 = CARTESIAN_POINT('',(37.393743640683,37.651388126725));
#857 = CARTESIAN_POINT('',(34.831271649911,37.645303092089));
#858 = CARTESIAN_POINT('',(32.268664137351,37.640134024487));
#859 = CARTESIAN_POINT('',(29.705945796978,37.635476886769));
#860 = CARTESIAN_POINT('',(27.143138810618,37.631105470398));
#861 = CARTESIAN_POINT('',(24.58026156715,37.626857878763));
#862 = CARTESIAN_POINT('',(19.455639232558,37.618407156959));
#863 = CARTESIAN_POINT('',(16.893893471412,37.614203662951));
#864 = CARTESIAN_POINT('',(14.332102655465,37.609917450399));
#865 = CARTESIAN_POINT('',(11.770276433481,37.60549461834));
#866 = CARTESIAN_POINT('',(9.208422091575,37.600905453153));
#867 = CARTESIAN_POINT('',(6.646544689768,37.596131109923));
#868 = CARTESIAN_POINT('',(-1.701469851645,37.579940578264));
#869 = CARTESIAN_POINT('',(-7.487682226822,37.567726625575));
#870 = CARTESIAN_POINT('',(-13.273953434,37.554412839886));
#871 = CARTESIAN_POINT('',(-19.06026134824,37.540085983762));
#872 = CARTESIAN_POINT('',(-24.84659236149,37.524803659857));
#873 = CARTESIAN_POINT('',(-30.63294049342,37.508645662614));
#874 = CARTESIAN_POINT('',(-36.8493617285,37.490416699201));
#875 = CARTESIAN_POINT('',(-37.27941716356,37.489151137771));
#876 = CARTESIAN_POINT('',(-37.70947267295,37.487881132247));
#877 = CARTESIAN_POINT('',(-38.1395282548,37.486606710322));
#878 = CARTESIAN_POINT('',(-38.56958390725,37.48532789952));
#879 = CARTESIAN_POINT('',(-38.99963962856,37.484044727192));
#880 = CARTESIAN_POINT('',(-39.429695417,37.482757220523));
#881 = ( GEOMETRIC_REPRESENTATION_CONTEXT(2) 
PARAMETRIC_REPRESENTATION_CONTEXT() REPRESENTATION_CONTEXT('2D SPACE',''
  ) );
#882 = PCURVE('',#230,#883);
#883 = DEFINITIONAL_REPRESENTATION('',(#884),#923);
#884 = B_SPLINE_CURVE_WITH_KNOTS('',7,(#885,#886,#887,#888,#889,#890,
    #891,#892,#893,#894,#895,#896,#897,#898,#899,#900,#901,#902,#903,
    #904,#905,#906,#907,#908,#909,#910,#911,#912,#913,#914,#915,#916,
    #917,#918,#919,#920,#921,#922),.UNSPECIFIED.,.F.,.F.,(8,6,6,6,6,6,8)
  ,(0.,7.444457893322E-02,0.194737178131,0.376728889695,0.558632199441,
    0.969465938579,1.),.UNSPECIFIED.);
#885 = CARTESIAN_POINT('',(6.28318530718,4.287534752238E-03));
#886 = CARTESIAN_POINT('',(6.250709821606,1.487309622344E-02));
#887 = CARTESIAN_POINT('',(6.217445618083,2.545847387297E-02));
#888 = CARTESIAN_POINT('',(6.183525991574,3.604370171607E-02));
#889 = CARTESIAN_POINT('',(6.149120277905,4.662882765047E-02));
#890 = CARTESIAN_POINT('',(6.114421679986,5.721390888264E-02));
#891 = CARTESIAN_POINT('',(6.079629672181,6.779900601783E-02));
#892 = CARTESIAN_POINT('',(5.988852023997,9.54884110169E-02));
#893 = CARTESIAN_POINT('',(5.933010807836,0.112592835113));
#894 = CARTESIAN_POINT('',(5.87817589031,0.129697680228));
#895 = CARTESIAN_POINT('',(5.82503078246,0.146803135868));
#896 = CARTESIAN_POINT('',(5.773951687044,0.163909281053));
#897 = CARTESIAN_POINT('',(5.725114284813,0.181016119836));
#898 = CARTESIAN_POINT('',(5.60814681126,0.224005666084));
#899 = CARTESIAN_POINT('',(5.542968829799,0.249889221546));
#900 = CARTESIAN_POINT('',(5.48320470482,0.275774145916));
#901 = CARTESIAN_POINT('',(5.428342440606,0.301660189758));
#902 = CARTESIAN_POINT('',(5.377849356257,0.327547129014));
#903 = CARTESIAN_POINT('',(5.331221911639,0.353434777938));
#904 = CARTESIAN_POINT('',(5.244831908879,0.405198639903));
#905 = CARTESIAN_POINT('',(5.205066330071,0.431074859713));
#906 = CARTESIAN_POINT('',(5.168274746935,0.456951534622));
#907 = CARTESIAN_POINT('',(5.134077428918,0.482828567167));
#908 = CARTESIAN_POINT('',(5.102160625326,0.508705883752));
#909 = CARTESIAN_POINT('',(5.072267500121,0.534583433265));
#910 = CARTESIAN_POINT('',(4.98074106444,0.618906812471));
#911 = CARTESIAN_POINT('',(4.926510430843,0.677353402119));
#912 = CARTESIAN_POINT('',(4.878979447734,0.73580058603));
#913 = CARTESIAN_POINT('',(4.836718624009,0.79424814072));
#914 = CARTESIAN_POINT('',(4.798712521819,0.852695928732));
#915 = CARTESIAN_POINT('',(4.764234579081,0.911143889661));
#916 = CARTESIAN_POINT('',(4.730388376002,0.973936023348));
#917 = CARTESIAN_POINT('',(4.728063301912,0.978280017642));
#918 = CARTESIAN_POINT('',(4.725754425156,0.982624012686));
#919 = CARTESIAN_POINT('',(4.723461523756,0.986968008463));
#920 = CARTESIAN_POINT('',(4.721184380835,0.991312004952));
#921 = CARTESIAN_POINT('',(4.718922784615,0.995656002137));
#922 = CARTESIAN_POINT('',(4.716676528418,1.));
#923 = ( GEOMETRIC_REPRESENTATION_CONTEXT(2) 
PARAMETRIC_REPRESENTATION_CONTEXT() REPRESENTATION_CONTEXT('2D SPACE',''
  ) );
#924 = ORIENTED_EDGE('',*,*,#925,.F.);
#925 = EDGE_CURVE('',#145,#798,#926,.T.);
#926 = SURFACE_CURVE('',#927,(#933,#942),.PCURVE_S1.);
#927 = B_SPLINE_CURVE_WITH_KNOTS('',4,(#928,#929,#930,#931,#932),
  .UNSPECIFIED.,.F.,.F.,(5,5),(0.,1.),.PIECEWISE_BEZIER_KNOTS.);
#928 = CARTESIAN_POINT('',(37.799999863222,3.215651064169E-03,0.));
#929 = CARTESIAN_POINT('',(37.798872306425,3.215651064169E-03,
    0.106116472814));
#930 = CARTESIAN_POINT('',(37.797746152333,3.215651064169E-03,
    0.212232953833));
#931 = CARTESIAN_POINT('',(37.796621409969,3.215651064169E-03,
    0.318349443055));
#932 = CARTESIAN_POINT('',(37.79549808851,3.215651064169E-03,
    0.424465940471));
#933 = PCURVE('',#129,#934);
#934 = DEFINITIONAL_REPRESENTATION('',(#935),#941);
#935 = B_SPLINE_CURVE_WITH_KNOTS('',4,(#936,#937,#938,#939,#940),
  .UNSPECIFIED.,.F.,.F.,(5,5),(0.,1.),.PIECEWISE_BEZIER_KNOTS.);
#936 = CARTESIAN_POINT('',(59.570304582995,37.782764032688));
#937 = CARTESIAN_POINT('',(59.464188110181,37.78163647589));
#938 = CARTESIAN_POINT('',(59.358071629162,37.780510321799));
#939 = CARTESIAN_POINT('',(59.25195513994,37.779385579434));
#940 = CARTESIAN_POINT('',(59.145838642524,37.778262257976));
#941 = ( GEOMETRIC_REPRESENTATION_CONTEXT(2) 
PARAMETRIC_REPRESENTATION_CONTEXT() REPRESENTATION_CONTEXT('2D SPACE',''
  ) );
#942 = PCURVE('',#182,#943);
#943 = DEFINITIONAL_REPRESENTATION('',(#944),#950);
#944 = B_SPLINE_CURVE_WITH_KNOTS('',4,(#945,#946,#947,#948,#949),
  .UNSPECIFIED.,.F.,.F.,(5,5),(0.,1.),.PIECEWISE_BEZIER_KNOTS.);
#945 = CARTESIAN_POINT('',(-73.49799670631,0.));
#946 = CARTESIAN_POINT('',(-73.49849538238,1.071883563781E-03));
#947 = CARTESIAN_POINT('',(-73.49899548388,2.143767210432E-03));
#948 = CARTESIAN_POINT('',(-73.49949701997,3.215650939946E-03));
#949 = CARTESIAN_POINT('',(-73.5,4.287534752235E-03));
#950 = ( GEOMETRIC_REPRESENTATION_CONTEXT(2) 
PARAMETRIC_REPRESENTATION_CONTEXT() REPRESENTATION_CONTEXT('2D SPACE',''
  ) );
#951 = ORIENTED_EDGE('',*,*,#144,.T.);
#952 = ADVANCED_FACE('',(#953),#182,.F.);
#953 = FACE_BOUND('',#954,.F.);
#954 = EDGE_LOOP('',(#955,#975,#976));
#955 = ORIENTED_EDGE('',*,*,#956,.F.);
#956 = EDGE_CURVE('',#166,#798,#957,.T.);
#957 = SURFACE_CURVE('',#958,(#961,#968),.PCURVE_S1.);
#958 = B_SPLINE_CURVE_WITH_KNOTS('',1,(#959,#960),.UNSPECIFIED.,.F.,.F.,
  (2,2),(0.,1.),.PIECEWISE_BEZIER_KNOTS.);
#959 = CARTESIAN_POINT('',(37.8,-7.105427357601E-15,0.));
#960 = CARTESIAN_POINT('',(36.75,0.75,99.));
#961 = PCURVE('',#182,#962);
#962 = DEFINITIONAL_REPRESENTATION('',(#963),#967);
#963 = LINE('',#964,#965);
#964 = CARTESIAN_POINT('',(-73.5,0.));
#965 = VECTOR('',#966,1.);
#966 = DIRECTION('',(0.,1.));
#967 = ( GEOMETRIC_REPRESENTATION_CONTEXT(2) 
PARAMETRIC_REPRESENTATION_CONTEXT() REPRESENTATION_CONTEXT('2D SPACE',''
  ) );
#968 = PCURVE('',#230,#969);
#969 = DEFINITIONAL_REPRESENTATION('',(#970),#974);
#970 = LINE('',#971,#972);
#971 = CARTESIAN_POINT('',(6.28318530718,0.));
#972 = VECTOR('',#973,1.);
#973 = DIRECTION('',(0.,1.));
#974 = ( GEOMETRIC_REPRESENTATION_CONTEXT(2) 
PARAMETRIC_REPRESENTATION_CONTEXT() REPRESENTATION_CONTEXT('2D SPACE',''
  ) );
#975 = ORIENTED_EDGE('',*,*,#165,.T.);
#976 = ORIENTED_EDGE('',*,*,#925,.T.);
#977 = ADVANCED_FACE('',(#978),#230,.F.);
#978 = FACE_BOUND('',#979,.F.);
#979 = EDGE_LOOP('',(#980,#1002,#1003,#1004,#1005));
#980 = ORIENTED_EDGE('',*,*,#981,.F.);
#981 = EDGE_CURVE('',#214,#982,#984,.T.);
#982 = VERTEX_POINT('',#983);
#983 = CARTESIAN_POINT('',(36.75,-0.75,99.));
#984 = SURFACE_CURVE('',#985,(#988,#995),.PCURVE_S1.);
#985 = B_SPLINE_CURVE_WITH_KNOTS('',1,(#986,#987),.UNSPECIFIED.,.F.,.F.,
  (2,2),(0.,1.),.PIECEWISE_BEZIER_KNOTS.);
#986 = CARTESIAN_POINT('',(37.792130737918,-0.771267974243,0.));
#987 = CARTESIAN_POINT('',(36.75,-0.75,99.));
#988 = PCURVE('',#230,#989);
#989 = DEFINITIONAL_REPRESENTATION('',(#990),#994);
#990 = LINE('',#991,#992);
#991 = CARTESIAN_POINT('',(3.14159265359,0.));
#992 = VECTOR('',#993,1.);
#993 = DIRECTION('',(0.,1.));
#994 = ( GEOMETRIC_REPRESENTATION_CONTEXT(2) 
PARAMETRIC_REPRESENTATION_CONTEXT() REPRESENTATION_CONTEXT('2D SPACE',''
  ) );
#995 = PCURVE('',#274,#996);
#996 = DEFINITIONAL_REPRESENTATION('',(#997),#1001);
#997 = LINE('',#998,#999);
#998 = CARTESIAN_POINT('',(0.,0.));
#999 = VECTOR('',#1000,1.);
#1000 = DIRECTION('',(0.,1.));
#1001 = ( GEOMETRIC_REPRESENTATION_CONTEXT(2) 
PARAMETRIC_REPRESENTATION_CONTEXT() REPRESENTATION_CONTEXT('2D SPACE',''
  ) );
#1002 = ORIENTED_EDGE('',*,*,#213,.T.);
#1003 = ORIENTED_EDGE('',*,*,#956,.T.);
#1004 = ORIENTED_EDGE('',*,*,#797,.T.);
#1005 = ORIENTED_EDGE('',*,*,#1006,.T.);
#1006 = EDGE_CURVE('',#772,#982,#1007,.T.);
#1007 = SURFACE_CURVE('',#1008,(#1013,#1020),.PCURVE_S1.);
#1008 = CIRCLE('',#1009,0.75);
#1009 = AXIS2_PLACEMENT_3D('',#1010,#1011,#1012);
#1010 = CARTESIAN_POINT('',(36.75,0.,99.));
#1011 = DIRECTION('',(0.,0.,-1.));
#1012 = DIRECTION('',(0.,1.,0.));
#1013 = PCURVE('',#230,#1014);
#1014 = DEFINITIONAL_REPRESENTATION('',(#1015),#1019);
#1015 = LINE('',#1016,#1017);
#1016 = CARTESIAN_POINT('',(6.28318530718,1.));
#1017 = VECTOR('',#1018,1.);
#1018 = DIRECTION('',(-1.,0.));
#1019 = ( GEOMETRIC_REPRESENTATION_CONTEXT(2) 
PARAMETRIC_REPRESENTATION_CONTEXT() REPRESENTATION_CONTEXT('2D SPACE',''
  ) );
#1020 = PCURVE('',#786,#1021);
#1021 = DEFINITIONAL_REPRESENTATION('',(#1022),#1025);
#1022 = B_SPLINE_CURVE_WITH_KNOTS('',1,(#1023,#1024),.UNSPECIFIED.,.F.,
  .F.,(2,2),(0.,3.14159265359),.PIECEWISE_BEZIER_KNOTS.);
#1023 = CARTESIAN_POINT('',(0.,0.));
#1024 = CARTESIAN_POINT('',(3.14159265359,0.));
#1025 = ( GEOMETRIC_REPRESENTATION_CONTEXT(2) 
PARAMETRIC_REPRESENTATION_CONTEXT() REPRESENTATION_CONTEXT('2D SPACE',''
  ) );
#1026 = ADVANCED_FACE('',(#1027),#274,.F.);
#1027 = FACE_BOUND('',#1028,.F.);
#1028 = EDGE_LOOP('',(#1029,#1030,#1031,#1059));
#1029 = ORIENTED_EDGE('',*,*,#257,.T.);
#1030 = ORIENTED_EDGE('',*,*,#981,.T.);
#1031 = ORIENTED_EDGE('',*,*,#1032,.T.);
#1032 = EDGE_CURVE('',#982,#1033,#1035,.T.);
#1033 = VERTEX_POINT('',#1034);
#1034 = CARTESIAN_POINT('',(-36.75,-0.75,99.));
#1035 = SURFACE_CURVE('',#1036,(#1040,#1047),.PCURVE_S1.);
#1036 = LINE('',#1037,#1038);
#1037 = CARTESIAN_POINT('',(36.75,-0.75,99.));
#1038 = VECTOR('',#1039,1.);
#1039 = DIRECTION('',(-1.,0.,0.));
#1040 = PCURVE('',#274,#1041);
#1041 = DEFINITIONAL_REPRESENTATION('',(#1042),#1046);
#1042 = LINE('',#1043,#1044);
#1043 = CARTESIAN_POINT('',(0.,1.));
#1044 = VECTOR('',#1045,1.);
#1045 = DIRECTION('',(-1.,0.));
#1046 = ( GEOMETRIC_REPRESENTATION_CONTEXT(2) 
PARAMETRIC_REPRESENTATION_CONTEXT() REPRESENTATION_CONTEXT('2D SPACE',''
  ) );
#1047 = PCURVE('',#1048,#1053);
#1048 = PLANE('',#1049);
#1049 = AXIS2_PLACEMENT_3D('',#1050,#1051,#1052);
#1050 = CARTESIAN_POINT('',(36.75,-0.75,99.));
#1051 = DIRECTION('',(0.,-1.,0.));
#1052 = DIRECTION('',(-1.,0.,0.));
#1053 = DEFINITIONAL_REPRESENTATION('',(#1054),#1058);
#1054 = LINE('',#1055,#1056);
#1055 = CARTESIAN_POINT('',(0.,-0.));
#1056 = VECTOR('',#1057,1.);
#1057 = DIRECTION('',(1.,0.));
#1058 = ( GEOMETRIC_REPRESENTATION_CONTEXT(2) 
PARAMETRIC_REPRESENTATION_CONTEXT() REPRESENTATION_CONTEXT('2D SPACE',''
  ) );
#1059 = ORIENTED_EDGE('',*,*,#1060,.F.);
#1060 = EDGE_CURVE('',#258,#1033,#1061,.T.);
#1061 = SURFACE_CURVE('',#1062,(#1065,#1072),.PCURVE_S1.);
#1062 = B_SPLINE_CURVE_WITH_KNOTS('',1,(#1063,#1064),.UNSPECIFIED.,.F.,
  .F.,(2,2),(0.,1.),.PIECEWISE_BEZIER_KNOTS.);
#1063 = CARTESIAN_POINT('',(-37.79213073791,-0.771267974243,0.));
#1064 = CARTESIAN_POINT('',(-36.75,-0.75,99.));
#1065 = PCURVE('',#274,#1066);
#1066 = DEFINITIONAL_REPRESENTATION('',(#1067),#1071);
#1067 = LINE('',#1068,#1069);
#1068 = CARTESIAN_POINT('',(-73.5,0.));
#1069 = VECTOR('',#1070,1.);
#1070 = DIRECTION('',(0.,1.));
#1071 = ( GEOMETRIC_REPRESENTATION_CONTEXT(2) 
PARAMETRIC_REPRESENTATION_CONTEXT() REPRESENTATION_CONTEXT('2D SPACE',''
  ) );
#1072 = PCURVE('',#322,#1073);
#1073 = DEFINITIONAL_REPRESENTATION('',(#1074),#1078);
#1074 = LINE('',#1075,#1076);
#1075 = CARTESIAN_POINT('',(6.28318530718,0.));
#1076 = VECTOR('',#1077,1.);
#1077 = DIRECTION('',(0.,1.));
#1078 = ( GEOMETRIC_REPRESENTATION_CONTEXT(2) 
PARAMETRIC_REPRESENTATION_CONTEXT() REPRESENTATION_CONTEXT('2D SPACE',''
  ) );
#1079 = ADVANCED_FACE('',(#1080),#322,.F.);
#1080 = FACE_BOUND('',#1081,.F.);
#1081 = EDGE_LOOP('',(#1082,#1083,#1084,#1085));
#1082 = ORIENTED_EDGE('',*,*,#394,.F.);
#1083 = ORIENTED_EDGE('',*,*,#305,.T.);
#1084 = ORIENTED_EDGE('',*,*,#1060,.T.);
#1085 = ORIENTED_EDGE('',*,*,#1086,.T.);
#1086 = EDGE_CURVE('',#1033,#395,#1087,.T.);
#1087 = SURFACE_CURVE('',#1088,(#1093,#1100),.PCURVE_S1.);
#1088 = CIRCLE('',#1089,0.75);
#1089 = AXIS2_PLACEMENT_3D('',#1090,#1091,#1092);
#1090 = CARTESIAN_POINT('',(-36.75,0.,99.));
#1091 = DIRECTION('',(0.,-0.,-1.));
#1092 = DIRECTION('',(0.,-1.,0.));
#1093 = PCURVE('',#322,#1094);
#1094 = DEFINITIONAL_REPRESENTATION('',(#1095),#1099);
#1095 = LINE('',#1096,#1097);
#1096 = CARTESIAN_POINT('',(6.28318530718,1.));
#1097 = VECTOR('',#1098,1.);
#1098 = DIRECTION('',(-1.,0.));
#1099 = ( GEOMETRIC_REPRESENTATION_CONTEXT(2) 
PARAMETRIC_REPRESENTATION_CONTEXT() REPRESENTATION_CONTEXT('2D SPACE',''
  ) );
#1100 = PCURVE('',#453,#1101);
#1101 = DEFINITIONAL_REPRESENTATION('',(#1102),#1105);
#1102 = B_SPLINE_CURVE_WITH_KNOTS('',1,(#1103,#1104),.UNSPECIFIED.,.F.,
  .F.,(2,2),(0.,3.14159265359),.PIECEWISE_BEZIER_KNOTS.);
#1103 = CARTESIAN_POINT('',(0.,0.));
#1104 = CARTESIAN_POINT('',(3.14159265359,0.));
#1105 = ( GEOMETRIC_REPRESENTATION_CONTEXT(2) 
PARAMETRIC_REPRESENTATION_CONTEXT() REPRESENTATION_CONTEXT('2D SPACE',''
  ) );
#1106 = ADVANCED_FACE('',(#1107),#587,.T.);
#1107 = FACE_BOUND('',#1108,.F.);
#1108 = EDGE_LOOP('',(#1109,#1110,#1111,#1133));
#1109 = ORIENTED_EDGE('',*,*,#624,.T.);
#1110 = ORIENTED_EDGE('',*,*,#574,.F.);
#1111 = ORIENTED_EDGE('',*,*,#1112,.T.);
#1112 = EDGE_CURVE('',#549,#656,#1113,.T.);
#1113 = SURFACE_CURVE('',#1114,(#1119,#1126),.PCURVE_S1.);
#1114 = CIRCLE('',#1115,44.75);
#1115 = AXIS2_PLACEMENT_3D('',#1116,#1117,#1118);
#1116 = CARTESIAN_POINT('',(0.,0.,80.7));
#1117 = DIRECTION('',(0.,0.,1.));
#1118 = DIRECTION('',(-0.999999997418,7.185812433931E-05,0.));
#1119 = PCURVE('',#587,#1120);
#1120 = DEFINITIONAL_REPRESENTATION('',(#1121),#1125);
#1121 = LINE('',#1122,#1123);
#1122 = CARTESIAN_POINT('',(-3.141520795465,-10.8));
#1123 = VECTOR('',#1124,1.);
#1124 = DIRECTION('',(-1.,0.));
#1125 = ( GEOMETRIC_REPRESENTATION_CONTEXT(2) 
PARAMETRIC_REPRESENTATION_CONTEXT() REPRESENTATION_CONTEXT('2D SPACE',''
  ) );
#1126 = PCURVE('',#563,#1127);
#1127 = DEFINITIONAL_REPRESENTATION('',(#1128),#1132);
#1128 = CIRCLE('',#1129,44.75);
#1129 = AXIS2_PLACEMENT_2D('',#1130,#1131);
#1130 = CARTESIAN_POINT('',(2.933502854163E-15,-4.040240899597E-15));
#1131 = DIRECTION('',(-0.999999997418,7.185812433931E-05));
#1132 = ( GEOMETRIC_REPRESENTATION_CONTEXT(2) 
PARAMETRIC_REPRESENTATION_CONTEXT() REPRESENTATION_CONTEXT('2D SPACE',''
  ) );
#1133 = ORIENTED_EDGE('',*,*,#655,.T.);
#1134 = ADVANCED_FACE('',(#1135),#563,.T.);
#1135 = FACE_BOUND('',#1136,.T.);
#1136 = EDGE_LOOP('',(#1137,#1138,#1139,#1161));
#1137 = ORIENTED_EDGE('',*,*,#1112,.T.);
#1138 = ORIENTED_EDGE('',*,*,#676,.F.);
#1139 = ORIENTED_EDGE('',*,*,#1140,.F.);
#1140 = EDGE_CURVE('',#523,#677,#1141,.T.);
#1141 = SURFACE_CURVE('',#1142,(#1147,#1154),.PCURVE_S1.);
#1142 = CIRCLE('',#1143,39.75);
#1143 = AXIS2_PLACEMENT_3D('',#1144,#1145,#1146);
#1144 = CARTESIAN_POINT('',(0.,0.,80.7));
#1145 = DIRECTION('',(0.,0.,1.));
#1146 = DIRECTION('',(-0.999999996728,8.08968821178E-05,0.));
#1147 = PCURVE('',#563,#1148);
#1148 = DEFINITIONAL_REPRESENTATION('',(#1149),#1153);
#1149 = CIRCLE('',#1150,39.75);
#1150 = AXIS2_PLACEMENT_2D('',#1151,#1152);
#1151 = CARTESIAN_POINT('',(2.933502854163E-15,-4.040240899597E-15));
#1152 = DIRECTION('',(-0.999999996728,8.08968821178E-05));
#1153 = ( GEOMETRIC_REPRESENTATION_CONTEXT(2) 
PARAMETRIC_REPRESENTATION_CONTEXT() REPRESENTATION_CONTEXT('2D SPACE',''
  ) );
#1154 = PCURVE('',#537,#1155);
#1155 = DEFINITIONAL_REPRESENTATION('',(#1156),#1160);
#1156 = LINE('',#1157,#1158);
#1157 = CARTESIAN_POINT('',(-3.141511756708,0.));
#1158 = VECTOR('',#1159,1.);
#1159 = DIRECTION('',(-1.,0.));
#1160 = ( GEOMETRIC_REPRESENTATION_CONTEXT(2) 
PARAMETRIC_REPRESENTATION_CONTEXT() REPRESENTATION_CONTEXT('2D SPACE',''
  ) );
#1161 = ORIENTED_EDGE('',*,*,#548,.F.);
#1162 = ADVANCED_FACE('',(#1163),#537,.T.);
#1163 = FACE_BOUND('',#1164,.F.);
#1164 = EDGE_LOOP('',(#1165,#1166,#1167,#1189));
#1165 = ORIENTED_EDGE('',*,*,#1140,.F.);
#1166 = ORIENTED_EDGE('',*,*,#522,.F.);
#1167 = ORIENTED_EDGE('',*,*,#1168,.T.);
#1168 = EDGE_CURVE('',#497,#698,#1169,.T.);
#1169 = SURFACE_CURVE('',#1170,(#1175,#1182),.PCURVE_S1.);
#1170 = CIRCLE('',#1171,39.75);
#1171 = AXIS2_PLACEMENT_3D('',#1172,#1173,#1174);
#1172 = CARTESIAN_POINT('',(0.,0.,109.));
#1173 = DIRECTION('',(0.,0.,1.));
#1174 = DIRECTION('',(-0.999999996728,8.08968821178E-05,0.));
#1175 = PCURVE('',#537,#1176);
#1176 = DEFINITIONAL_REPRESENTATION('',(#1177),#1181);
#1177 = LINE('',#1178,#1179);
#1178 = CARTESIAN_POINT('',(-3.141511756708,-28.3));
#1179 = VECTOR('',#1180,1.);
#1180 = DIRECTION('',(-1.,0.));
#1181 = ( GEOMETRIC_REPRESENTATION_CONTEXT(2) 
PARAMETRIC_REPRESENTATION_CONTEXT() REPRESENTATION_CONTEXT('2D SPACE',''
  ) );
#1182 = PCURVE('',#511,#1183);
#1183 = DEFINITIONAL_REPRESENTATION('',(#1184),#1188);
#1184 = CIRCLE('',#1185,39.75);
#1185 = AXIS2_PLACEMENT_2D('',#1186,#1187);
#1186 = CARTESIAN_POINT('',(4.403329231825E-15,-5.790076070423E-16));
#1187 = DIRECTION('',(-0.999999996728,8.08968821178E-05));
#1188 = ( GEOMETRIC_REPRESENTATION_CONTEXT(2) 
PARAMETRIC_REPRESENTATION_CONTEXT() REPRESENTATION_CONTEXT('2D SPACE',''
  ) );
#1189 = ORIENTED_EDGE('',*,*,#697,.T.);
#1190 = ADVANCED_FACE('',(#1191),#511,.T.);
#1191 = FACE_BOUND('',#1192,.T.);
#1192 = EDGE_LOOP('',(#1193,#1194,#1195,#1223,#1251,#1277));
#1193 = ORIENTED_EDGE('',*,*,#1168,.T.);
#1194 = ORIENTED_EDGE('',*,*,#718,.F.);
#1195 = ORIENTED_EDGE('',*,*,#1196,.T.);
#1196 = EDGE_CURVE('',#719,#1197,#1199,.T.);
#1197 = VERTEX_POINT('',#1198);
#1198 = CARTESIAN_POINT('',(36.75,-1.25,109.));
#1199 = SURFACE_CURVE('',#1200,(#1205,#1216),.PCURVE_S1.);
#1200 = CIRCLE('',#1201,1.25);
#1201 = AXIS2_PLACEMENT_3D('',#1202,#1203,#1204);
#1202 = CARTESIAN_POINT('',(36.75,-1.110223024625E-16,109.));
#1203 = DIRECTION('',(0.,0.,-1.));
#1204 = DIRECTION('',(0.,1.,0.));
#1205 = PCURVE('',#511,#1206);
#1206 = DEFINITIONAL_REPRESENTATION('',(#1207),#1215);
#1207 = ( BOUNDED_CURVE() B_SPLINE_CURVE(2,(#1208,#1209,#1210,#1211,
#1212,#1213,#1214),.UNSPECIFIED.,.T.,.F.) B_SPLINE_CURVE_WITH_KNOTS((1,2
    ,2,2,2,1),(-2.094395102393,0.,2.094395102393,4.188790204786,
6.28318530718,8.377580409573),.UNSPECIFIED.) CURVE() 
GEOMETRIC_REPRESENTATION_ITEM() RATIONAL_B_SPLINE_CURVE((1.,0.5,1.,0.5,
1.,0.5,1.)) REPRESENTATION_ITEM('') );
#1208 = CARTESIAN_POINT('',(36.75,1.25));
#1209 = CARTESIAN_POINT('',(38.915063509461,1.25));
#1210 = CARTESIAN_POINT('',(37.832531754731,-0.625));
#1211 = CARTESIAN_POINT('',(36.75,-2.5));
#1212 = CARTESIAN_POINT('',(35.667468245269,-0.625));
#1213 = CARTESIAN_POINT('',(34.584936490539,1.25));
#1214 = CARTESIAN_POINT('',(36.75,1.25));
#1215 = ( GEOMETRIC_REPRESENTATION_CONTEXT(2) 
PARAMETRIC_REPRESENTATION_CONTEXT() REPRESENTATION_CONTEXT('2D SPACE',''
  ) );
#1216 = PCURVE('',#756,#1217);
#1217 = DEFINITIONAL_REPRESENTATION('',(#1218),#1222);
#1218 = LINE('',#1219,#1220);
#1219 = CARTESIAN_POINT('',(-0.,0.5));
#1220 = VECTOR('',#1221,1.);
#1221 = DIRECTION('',(-1.,0.));
#1222 = ( GEOMETRIC_REPRESENTATION_CONTEXT(2) 
PARAMETRIC_REPRESENTATION_CONTEXT() REPRESENTATION_CONTEXT('2D SPACE',''
  ) );
#1223 = ORIENTED_EDGE('',*,*,#1224,.T.);
#1224 = EDGE_CURVE('',#1197,#1225,#1227,.T.);
#1225 = VERTEX_POINT('',#1226);
#1226 = CARTESIAN_POINT('',(-36.75,-1.25,109.));
#1227 = SURFACE_CURVE('',#1228,(#1232,#1239),.PCURVE_S1.);
#1228 = LINE('',#1229,#1230);
#1229 = CARTESIAN_POINT('',(36.75,-1.25,109.));
#1230 = VECTOR('',#1231,1.);
#1231 = DIRECTION('',(-1.,0.,0.));
#1232 = PCURVE('',#511,#1233);
#1233 = DEFINITIONAL_REPRESENTATION('',(#1234),#1238);
#1234 = LINE('',#1235,#1236);
#1235 = CARTESIAN_POINT('',(36.75,-1.25));
#1236 = VECTOR('',#1237,1.);
#1237 = DIRECTION('',(-1.,0.));
#1238 = ( GEOMETRIC_REPRESENTATION_CONTEXT(2) 
PARAMETRIC_REPRESENTATION_CONTEXT() REPRESENTATION_CONTEXT('2D SPACE',''
  ) );
#1239 = PCURVE('',#1240,#1245);
#1240 = PLANE('',#1241);
#1241 = AXIS2_PLACEMENT_3D('',#1242,#1243,#1244);
#1242 = CARTESIAN_POINT('',(36.75,-1.25,109.));
#1243 = DIRECTION('',(0.,0.707106781187,0.707106781187));
#1244 = DIRECTION('',(-1.,0.,0.));
#1245 = DEFINITIONAL_REPRESENTATION('',(#1246),#1250);
#1246 = LINE('',#1247,#1248);
#1247 = CARTESIAN_POINT('',(0.,0.));
#1248 = VECTOR('',#1249,1.);
#1249 = DIRECTION('',(1.,0.));
#1250 = ( GEOMETRIC_REPRESENTATION_CONTEXT(2) 
PARAMETRIC_REPRESENTATION_CONTEXT() REPRESENTATION_CONTEXT('2D SPACE',''
  ) );
#1251 = ORIENTED_EDGE('',*,*,#1252,.T.);
#1252 = EDGE_CURVE('',#1225,#465,#1253,.T.);
#1253 = SURFACE_CURVE('',#1254,(#1259,#1270),.PCURVE_S1.);
#1254 = CIRCLE('',#1255,1.25);
#1255 = AXIS2_PLACEMENT_3D('',#1256,#1257,#1258);
#1256 = CARTESIAN_POINT('',(-36.75,1.110223024625E-16,109.));
#1257 = DIRECTION('',(0.,-0.,-1.));
#1258 = DIRECTION('',(0.,-1.,0.));
#1259 = PCURVE('',#511,#1260);
#1260 = DEFINITIONAL_REPRESENTATION('',(#1261),#1269);
#1261 = ( BOUNDED_CURVE() B_SPLINE_CURVE(2,(#1262,#1263,#1264,#1265,
#1266,#1267,#1268),.UNSPECIFIED.,.T.,.F.) B_SPLINE_CURVE_WITH_KNOTS((1,2
    ,2,2,2,1),(-2.094395102393,0.,2.094395102393,4.188790204786,
6.28318530718,8.377580409573),.UNSPECIFIED.) CURVE() 
GEOMETRIC_REPRESENTATION_ITEM() RATIONAL_B_SPLINE_CURVE((1.,0.5,1.,0.5,
1.,0.5,1.)) REPRESENTATION_ITEM('') );
#1262 = CARTESIAN_POINT('',(-36.75,-1.25));
#1263 = CARTESIAN_POINT('',(-38.91506350946,-1.25));
#1264 = CARTESIAN_POINT('',(-37.83253175473,0.625));
#1265 = CARTESIAN_POINT('',(-36.75,2.5));
#1266 = CARTESIAN_POINT('',(-35.66746824526,0.625));
#1267 = CARTESIAN_POINT('',(-34.58493649053,-1.25));
#1268 = CARTESIAN_POINT('',(-36.75,-1.25));
#1269 = ( GEOMETRIC_REPRESENTATION_CONTEXT(2) 
PARAMETRIC_REPRESENTATION_CONTEXT() REPRESENTATION_CONTEXT('2D SPACE',''
  ) );
#1270 = PCURVE('',#481,#1271);
#1271 = DEFINITIONAL_REPRESENTATION('',(#1272),#1276);
#1272 = LINE('',#1273,#1274);
#1273 = CARTESIAN_POINT('',(-0.,0.5));
#1274 = VECTOR('',#1275,1.);
#1275 = DIRECTION('',(-1.,0.));
#1276 = ( GEOMETRIC_REPRESENTATION_CONTEXT(2) 
PARAMETRIC_REPRESENTATION_CONTEXT() REPRESENTATION_CONTEXT('2D SPACE',''
  ) );
#1277 = ORIENTED_EDGE('',*,*,#496,.F.);
#1278 = ADVANCED_FACE('',(#1279),#481,.F.);
#1279 = FACE_BOUND('',#1280,.T.);
#1280 = EDGE_LOOP('',(#1281,#1301,#1323,#1324));
#1281 = ORIENTED_EDGE('',*,*,#1282,.F.);
#1282 = EDGE_CURVE('',#1283,#1225,#1285,.T.);
#1283 = VERTEX_POINT('',#1284);
#1284 = CARTESIAN_POINT('',(-36.75,-0.75,108.5));
#1285 = SURFACE_CURVE('',#1286,(#1289,#1295),.PCURVE_S1.);
#1286 = B_SPLINE_CURVE_WITH_KNOTS('',1,(#1287,#1288),.UNSPECIFIED.,.F.,
  .F.,(2,2),(0.,1.),.PIECEWISE_BEZIER_KNOTS.);
#1287 = CARTESIAN_POINT('',(-36.75,-0.75,108.5));
#1288 = CARTESIAN_POINT('',(-36.75,-1.25,109.));
#1289 = PCURVE('',#481,#1290);
#1290 = DEFINITIONAL_REPRESENTATION('',(#1291),#1294);
#1291 = B_SPLINE_CURVE_WITH_KNOTS('',1,(#1292,#1293),.UNSPECIFIED.,.F.,
  .F.,(2,2),(0.,1.),.PIECEWISE_BEZIER_KNOTS.);
#1292 = CARTESIAN_POINT('',(0.,0.));
#1293 = CARTESIAN_POINT('',(0.,0.5));
#1294 = ( GEOMETRIC_REPRESENTATION_CONTEXT(2) 
PARAMETRIC_REPRESENTATION_CONTEXT() REPRESENTATION_CONTEXT('2D SPACE',''
  ) );
#1295 = PCURVE('',#1240,#1296);
#1296 = DEFINITIONAL_REPRESENTATION('',(#1297),#1300);
#1297 = B_SPLINE_CURVE_WITH_KNOTS('',1,(#1298,#1299),.UNSPECIFIED.,.F.,
  .F.,(2,2),(0.,1.),.PIECEWISE_BEZIER_KNOTS.);
#1298 = CARTESIAN_POINT('',(73.5,-0.707106781187));
#1299 = CARTESIAN_POINT('',(73.5,0.));
#1300 = ( GEOMETRIC_REPRESENTATION_CONTEXT(2) 
PARAMETRIC_REPRESENTATION_CONTEXT() REPRESENTATION_CONTEXT('2D SPACE',''
  ) );
#1301 = ORIENTED_EDGE('',*,*,#1302,.T.);
#1302 = EDGE_CURVE('',#1283,#439,#1303,.T.);
#1303 = SURFACE_CURVE('',#1304,(#1309,#1316),.PCURVE_S1.);
#1304 = CIRCLE('',#1305,0.75);
#1305 = AXIS2_PLACEMENT_3D('',#1306,#1307,#1308);
#1306 = CARTESIAN_POINT('',(-36.75,0.,108.5));
#1307 = DIRECTION('',(0.,-0.,-1.));
#1308 = DIRECTION('',(0.,-1.,0.));
#1309 = PCURVE('',#481,#1310);
#1310 = DEFINITIONAL_REPRESENTATION('',(#1311),#1315);
#1311 = LINE('',#1312,#1313);
#1312 = CARTESIAN_POINT('',(-0.,0.));
#1313 = VECTOR('',#1314,1.);
#1314 = DIRECTION('',(-1.,0.));
#1315 = ( GEOMETRIC_REPRESENTATION_CONTEXT(2) 
PARAMETRIC_REPRESENTATION_CONTEXT() REPRESENTATION_CONTEXT('2D SPACE',''
  ) );
#1316 = PCURVE('',#453,#1317);
#1317 = DEFINITIONAL_REPRESENTATION('',(#1318),#1322);
#1318 = LINE('',#1319,#1320);
#1319 = CARTESIAN_POINT('',(0.,-9.5));
#1320 = VECTOR('',#1321,1.);
#1321 = DIRECTION('',(1.,0.));
#1322 = ( GEOMETRIC_REPRESENTATION_CONTEXT(2) 
PARAMETRIC_REPRESENTATION_CONTEXT() REPRESENTATION_CONTEXT('2D SPACE',''
  ) );
#1323 = ORIENTED_EDGE('',*,*,#464,.T.);
#1324 = ORIENTED_EDGE('',*,*,#1252,.F.);
#1325 = ADVANCED_FACE('',(#1326),#453,.F.);
#1326 = FACE_BOUND('',#1327,.F.);
#1327 = EDGE_LOOP('',(#1328,#1329,#1350,#1351));
#1328 = ORIENTED_EDGE('',*,*,#1086,.F.);
#1329 = ORIENTED_EDGE('',*,*,#1330,.T.);
#1330 = EDGE_CURVE('',#1033,#1283,#1331,.T.);
#1331 = SURFACE_CURVE('',#1332,(#1336,#1343),.PCURVE_S1.);
#1332 = LINE('',#1333,#1334);
#1333 = CARTESIAN_POINT('',(-36.75,-0.75,99.));
#1334 = VECTOR('',#1335,1.);
#1335 = DIRECTION('',(0.,0.,1.));
#1336 = PCURVE('',#453,#1337);
#1337 = DEFINITIONAL_REPRESENTATION('',(#1338),#1342);
#1338 = LINE('',#1339,#1340);
#1339 = CARTESIAN_POINT('',(0.,0.));
#1340 = VECTOR('',#1341,1.);
#1341 = DIRECTION('',(0.,-1.));
#1342 = ( GEOMETRIC_REPRESENTATION_CONTEXT(2) 
PARAMETRIC_REPRESENTATION_CONTEXT() REPRESENTATION_CONTEXT('2D SPACE',''
  ) );
#1343 = PCURVE('',#1048,#1344);
#1344 = DEFINITIONAL_REPRESENTATION('',(#1345),#1349);
#1345 = LINE('',#1346,#1347);
#1346 = CARTESIAN_POINT('',(73.5,0.));
#1347 = VECTOR('',#1348,1.);
#1348 = DIRECTION('',(0.,-1.));
#1349 = ( GEOMETRIC_REPRESENTATION_CONTEXT(2) 
PARAMETRIC_REPRESENTATION_CONTEXT() REPRESENTATION_CONTEXT('2D SPACE',''
  ) );
#1350 = ORIENTED_EDGE('',*,*,#1302,.T.);
#1351 = ORIENTED_EDGE('',*,*,#438,.T.);
#1352 = ADVANCED_FACE('',(#1353),#786,.F.);
#1353 = FACE_BOUND('',#1354,.F.);
#1354 = EDGE_LOOP('',(#1355,#1356,#1357,#1381));
#1355 = ORIENTED_EDGE('',*,*,#1006,.F.);
#1356 = ORIENTED_EDGE('',*,*,#771,.F.);
#1357 = ORIENTED_EDGE('',*,*,#1358,.T.);
#1358 = EDGE_CURVE('',#740,#1359,#1361,.T.);
#1359 = VERTEX_POINT('',#1360);
#1360 = CARTESIAN_POINT('',(36.75,-0.75,108.5));
#1361 = SURFACE_CURVE('',#1362,(#1367,#1374),.PCURVE_S1.);
#1362 = CIRCLE('',#1363,0.75);
#1363 = AXIS2_PLACEMENT_3D('',#1364,#1365,#1366);
#1364 = CARTESIAN_POINT('',(36.75,0.,108.5));
#1365 = DIRECTION('',(0.,0.,-1.));
#1366 = DIRECTION('',(0.,1.,0.));
#1367 = PCURVE('',#786,#1368);
#1368 = DEFINITIONAL_REPRESENTATION('',(#1369),#1373);
#1369 = LINE('',#1370,#1371);
#1370 = CARTESIAN_POINT('',(0.,-9.5));
#1371 = VECTOR('',#1372,1.);
#1372 = DIRECTION('',(1.,0.));
#1373 = ( GEOMETRIC_REPRESENTATION_CONTEXT(2) 
PARAMETRIC_REPRESENTATION_CONTEXT() REPRESENTATION_CONTEXT('2D SPACE',''
  ) );
#1374 = PCURVE('',#756,#1375);
#1375 = DEFINITIONAL_REPRESENTATION('',(#1376),#1380);
#1376 = LINE('',#1377,#1378);
#1377 = CARTESIAN_POINT('',(-0.,0.));
#1378 = VECTOR('',#1379,1.);
#1379 = DIRECTION('',(-1.,0.));
#1380 = ( GEOMETRIC_REPRESENTATION_CONTEXT(2) 
PARAMETRIC_REPRESENTATION_CONTEXT() REPRESENTATION_CONTEXT('2D SPACE',''
  ) );
#1381 = ORIENTED_EDGE('',*,*,#1382,.F.);
#1382 = EDGE_CURVE('',#982,#1359,#1383,.T.);
#1383 = SURFACE_CURVE('',#1384,(#1388,#1395),.PCURVE_S1.);
#1384 = LINE('',#1385,#1386);
#1385 = CARTESIAN_POINT('',(36.75,-0.75,99.));
#1386 = VECTOR('',#1387,1.);
#1387 = DIRECTION('',(0.,0.,1.));
#1388 = PCURVE('',#786,#1389);
#1389 = DEFINITIONAL_REPRESENTATION('',(#1390),#1394);
#1390 = LINE('',#1391,#1392);
#1391 = CARTESIAN_POINT('',(3.14159265359,0.));
#1392 = VECTOR('',#1393,1.);
#1393 = DIRECTION('',(0.,-1.));
#1394 = ( GEOMETRIC_REPRESENTATION_CONTEXT(2) 
PARAMETRIC_REPRESENTATION_CONTEXT() REPRESENTATION_CONTEXT('2D SPACE',''
  ) );
#1395 = PCURVE('',#1048,#1396);
#1396 = DEFINITIONAL_REPRESENTATION('',(#1397),#1401);
#1397 = LINE('',#1398,#1399);
#1398 = CARTESIAN_POINT('',(0.,-0.));
#1399 = VECTOR('',#1400,1.);
#1400 = DIRECTION('',(0.,-1.));
#1401 = ( GEOMETRIC_REPRESENTATION_CONTEXT(2) 
PARAMETRIC_REPRESENTATION_CONTEXT() REPRESENTATION_CONTEXT('2D SPACE',''
  ) );
#1402 = ADVANCED_FACE('',(#1403),#756,.F.);
#1403 = FACE_BOUND('',#1404,.T.);
#1404 = EDGE_LOOP('',(#1405,#1406,#1407,#1425));
#1405 = ORIENTED_EDGE('',*,*,#739,.T.);
#1406 = ORIENTED_EDGE('',*,*,#1358,.T.);
#1407 = ORIENTED_EDGE('',*,*,#1408,.T.);
#1408 = EDGE_CURVE('',#1359,#1197,#1409,.T.);
#1409 = SURFACE_CURVE('',#1410,(#1413,#1419),.PCURVE_S1.);
#1410 = B_SPLINE_CURVE_WITH_KNOTS('',1,(#1411,#1412),.UNSPECIFIED.,.F.,
  .F.,(2,2),(0.,1.),.PIECEWISE_BEZIER_KNOTS.);
#1411 = CARTESIAN_POINT('',(36.75,-0.75,108.5));
#1412 = CARTESIAN_POINT('',(36.75,-1.25,109.));
#1413 = PCURVE('',#756,#1414);
#1414 = DEFINITIONAL_REPRESENTATION('',(#1415),#1418);
#1415 = B_SPLINE_CURVE_WITH_KNOTS('',1,(#1416,#1417),.UNSPECIFIED.,.F.,
  .F.,(2,2),(0.,1.),.PIECEWISE_BEZIER_KNOTS.);
#1416 = CARTESIAN_POINT('',(-3.14159265359,0.));
#1417 = CARTESIAN_POINT('',(-3.14159265359,0.5));
#1418 = ( GEOMETRIC_REPRESENTATION_CONTEXT(2) 
PARAMETRIC_REPRESENTATION_CONTEXT() REPRESENTATION_CONTEXT('2D SPACE',''
  ) );
#1419 = PCURVE('',#1240,#1420);
#1420 = DEFINITIONAL_REPRESENTATION('',(#1421),#1424);
#1421 = B_SPLINE_CURVE_WITH_KNOTS('',1,(#1422,#1423),.UNSPECIFIED.,.F.,
  .F.,(2,2),(0.,1.),.PIECEWISE_BEZIER_KNOTS.);
#1422 = CARTESIAN_POINT('',(0.,-0.707106781187));
#1423 = CARTESIAN_POINT('',(0.,0.));
#1424 = ( GEOMETRIC_REPRESENTATION_CONTEXT(2) 
PARAMETRIC_REPRESENTATION_CONTEXT() REPRESENTATION_CONTEXT('2D SPACE',''
  ) );
#1425 = ORIENTED_EDGE('',*,*,#1196,.F.);
#1426 = ADVANCED_FACE('',(#1427),#1048,.F.);
#1427 = FACE_BOUND('',#1428,.F.);
#1428 = EDGE_LOOP('',(#1429,#1430,#1431,#1452));
#1429 = ORIENTED_EDGE('',*,*,#1032,.F.);
#1430 = ORIENTED_EDGE('',*,*,#1382,.T.);
#1431 = ORIENTED_EDGE('',*,*,#1432,.T.);
#1432 = EDGE_CURVE('',#1359,#1283,#1433,.T.);
#1433 = SURFACE_CURVE('',#1434,(#1438,#1445),.PCURVE_S1.);
#1434 = LINE('',#1435,#1436);
#1435 = CARTESIAN_POINT('',(36.75,-0.75,108.5));
#1436 = VECTOR('',#1437,1.);
#1437 = DIRECTION('',(-1.,0.,0.));
#1438 = PCURVE('',#1048,#1439);
#1439 = DEFINITIONAL_REPRESENTATION('',(#1440),#1444);
#1440 = LINE('',#1441,#1442);
#1441 = CARTESIAN_POINT('',(0.,-9.5));
#1442 = VECTOR('',#1443,1.);
#1443 = DIRECTION('',(1.,0.));
#1444 = ( GEOMETRIC_REPRESENTATION_CONTEXT(2) 
PARAMETRIC_REPRESENTATION_CONTEXT() REPRESENTATION_CONTEXT('2D SPACE',''
  ) );
#1445 = PCURVE('',#1240,#1446);
#1446 = DEFINITIONAL_REPRESENTATION('',(#1447),#1451);
#1447 = LINE('',#1448,#1449);
#1448 = CARTESIAN_POINT('',(0.,-0.707106781187));
#1449 = VECTOR('',#1450,1.);
#1450 = DIRECTION('',(1.,0.));
#1451 = ( GEOMETRIC_REPRESENTATION_CONTEXT(2) 
PARAMETRIC_REPRESENTATION_CONTEXT() REPRESENTATION_CONTEXT('2D SPACE',''
  ) );
#1452 = ORIENTED_EDGE('',*,*,#1330,.F.);
#1453 = ADVANCED_FACE('',(#1454),#1240,.T.);
#1454 = FACE_BOUND('',#1455,.T.);
#1455 = EDGE_LOOP('',(#1456,#1457,#1458,#1459));
#1456 = ORIENTED_EDGE('',*,*,#1432,.T.);
#1457 = ORIENTED_EDGE('',*,*,#1282,.T.);
#1458 = ORIENTED_EDGE('',*,*,#1224,.F.);
#1459 = ORIENTED_EDGE('',*,*,#1408,.F.);
#1460 = ORIENTED_CLOSED_SHELL('',*,#1461,.F.);
#1461 = CLOSED_SHELL('',(#1462,#1550,#1554));
#1462 = ADVANCED_FACE('',(#1463),#1477,.T.);
#1463 = FACE_BOUND('',#1464,.F.);
#1464 = EDGE_LOOP('',(#1465,#1495,#1522,#1523));
#1465 = ORIENTED_EDGE('',*,*,#1466,.T.);
#1466 = EDGE_CURVE('',#1467,#1469,#1471,.T.);
#1467 = VERTEX_POINT('',#1468);
#1468 = CARTESIAN_POINT('',(-39.5,0.,54.5));
#1469 = VERTEX_POINT('',#1470);
#1470 = CARTESIAN_POINT('',(-39.5,-12.,54.5));
#1471 = SEAM_CURVE('',#1472,(#1476,#1488),.PCURVE_S1.);
#1472 = LINE('',#1473,#1474);
#1473 = CARTESIAN_POINT('',(-39.5,0.,54.5));
#1474 = VECTOR('',#1475,1.);
#1475 = DIRECTION('',(0.,-1.,0.));
#1476 = PCURVE('',#1477,#1482);
#1477 = CYLINDRICAL_SURFACE('',#1478,2.);
#1478 = AXIS2_PLACEMENT_3D('',#1479,#1480,#1481);
#1479 = CARTESIAN_POINT('',(-41.5,0.,54.5));
#1480 = DIRECTION('',(-0.,1.,-0.));
#1481 = DIRECTION('',(1.,0.,0.));
#1482 = DEFINITIONAL_REPRESENTATION('',(#1483),#1487);
#1483 = LINE('',#1484,#1485);
#1484 = CARTESIAN_POINT('',(-0.,0.));
#1485 = VECTOR('',#1486,1.);
#1486 = DIRECTION('',(-0.,-1.));
#1487 = ( GEOMETRIC_REPRESENTATION_CONTEXT(2) 
PARAMETRIC_REPRESENTATION_CONTEXT() REPRESENTATION_CONTEXT('2D SPACE',''
  ) );
#1488 = PCURVE('',#1477,#1489);
#1489 = DEFINITIONAL_REPRESENTATION('',(#1490),#1494);
#1490 = LINE('',#1491,#1492);
#1491 = CARTESIAN_POINT('',(-6.28318530718,0.));
#1492 = VECTOR('',#1493,1.);
#1493 = DIRECTION('',(-0.,-1.));
#1494 = ( GEOMETRIC_REPRESENTATION_CONTEXT(2) 
PARAMETRIC_REPRESENTATION_CONTEXT() REPRESENTATION_CONTEXT('2D SPACE',''
  ) );
#1495 = ORIENTED_EDGE('',*,*,#1496,.T.);
#1496 = EDGE_CURVE('',#1469,#1469,#1497,.T.);
#1497 = SURFACE_CURVE('',#1498,(#1503,#1510),.PCURVE_S1.);
#1498 = CIRCLE('',#1499,2.);
#1499 = AXIS2_PLACEMENT_3D('',#1500,#1501,#1502);
#1500 = CARTESIAN_POINT('',(-41.5,-12.,54.5));
#1501 = DIRECTION('',(0.,-1.,0.));
#1502 = DIRECTION('',(1.,0.,0.));
#1503 = PCURVE('',#1477,#1504);
#1504 = DEFINITIONAL_REPRESENTATION('',(#1505),#1509);
#1505 = LINE('',#1506,#1507);
#1506 = CARTESIAN_POINT('',(-0.,-12.));
#1507 = VECTOR('',#1508,1.);
#1508 = DIRECTION('',(-1.,0.));
#1509 = ( GEOMETRIC_REPRESENTATION_CONTEXT(2) 
PARAMETRIC_REPRESENTATION_CONTEXT() REPRESENTATION_CONTEXT('2D SPACE',''
  ) );
#1510 = PCURVE('',#1511,#1516);
#1511 = PLANE('',#1512);
#1512 = AXIS2_PLACEMENT_3D('',#1513,#1514,#1515);
#1513 = CARTESIAN_POINT('',(-41.5,-12.,54.5));
#1514 = DIRECTION('',(-0.,-1.,-0.));
#1515 = DIRECTION('',(0.,0.,-1.));
#1516 = DEFINITIONAL_REPRESENTATION('',(#1517),#1521);
#1517 = CIRCLE('',#1518,2.);
#1518 = AXIS2_PLACEMENT_2D('',#1519,#1520);
#1519 = CARTESIAN_POINT('',(-7.105427357601E-15,0.));
#1520 = DIRECTION('',(0.,1.));
#1521 = ( GEOMETRIC_REPRESENTATION_CONTEXT(2) 
PARAMETRIC_REPRESENTATION_CONTEXT() REPRESENTATION_CONTEXT('2D SPACE',''
  ) );
#1522 = ORIENTED_EDGE('',*,*,#1466,.F.);
#1523 = ORIENTED_EDGE('',*,*,#1524,.F.);
#1524 = EDGE_CURVE('',#1467,#1467,#1525,.T.);
#1525 = SURFACE_CURVE('',#1526,(#1531,#1538),.PCURVE_S1.);
#1526 = CIRCLE('',#1527,2.);
#1527 = AXIS2_PLACEMENT_3D('',#1528,#1529,#1530);
#1528 = CARTESIAN_POINT('',(-41.5,0.,54.5));
#1529 = DIRECTION('',(0.,-1.,0.));
#1530 = DIRECTION('',(1.,0.,0.));
#1531 = PCURVE('',#1477,#1532);
#1532 = DEFINITIONAL_REPRESENTATION('',(#1533),#1537);
#1533 = LINE('',#1534,#1535);
#1534 = CARTESIAN_POINT('',(-0.,0.));
#1535 = VECTOR('',#1536,1.);
#1536 = DIRECTION('',(-1.,0.));
#1537 = ( GEOMETRIC_REPRESENTATION_CONTEXT(2) 
PARAMETRIC_REPRESENTATION_CONTEXT() REPRESENTATION_CONTEXT('2D SPACE',''
  ) );
#1538 = PCURVE('',#1539,#1544);
#1539 = PLANE('',#1540);
#1540 = AXIS2_PLACEMENT_3D('',#1541,#1542,#1543);
#1541 = CARTESIAN_POINT('',(-41.5,0.,54.5));
#1542 = DIRECTION('',(-0.,-1.,-0.));
#1543 = DIRECTION('',(0.,0.,-1.));
#1544 = DEFINITIONAL_REPRESENTATION('',(#1545),#1549);
#1545 = CIRCLE('',#1546,2.);
#1546 = AXIS2_PLACEMENT_2D('',#1547,#1548);
#1547 = CARTESIAN_POINT('',(-7.105427357601E-15,0.));
#1548 = DIRECTION('',(0.,1.));
#1549 = ( GEOMETRIC_REPRESENTATION_CONTEXT(2) 
PARAMETRIC_REPRESENTATION_CONTEXT() REPRESENTATION_CONTEXT('2D SPACE',''
  ) );
#1550 = ADVANCED_FACE('',(#1551),#1539,.F.);
#1551 = FACE_BOUND('',#1552,.F.);
#1552 = EDGE_LOOP('',(#1553));
#1553 = ORIENTED_EDGE('',*,*,#1524,.T.);
#1554 = ADVANCED_FACE('',(#1555),#1511,.T.);
#1555 = FACE_BOUND('',#1556,.T.);
#1556 = EDGE_LOOP('',(#1557));
#1557 = ORIENTED_EDGE('',*,*,#1496,.T.);
#1558 = ORIENTED_CLOSED_SHELL('',*,#1559,.F.);
#1559 = CLOSED_SHELL('',(#1560,#1648,#1652));
#1560 = ADVANCED_FACE('',(#1561),#1575,.T.);
#1561 = FACE_BOUND('',#1562,.F.);
#1562 = EDGE_LOOP('',(#1563,#1593,#1620,#1621));
#1563 = ORIENTED_EDGE('',*,*,#1564,.T.);
#1564 = EDGE_CURVE('',#1565,#1567,#1569,.T.);
#1565 = VERTEX_POINT('',#1566);
#1566 = CARTESIAN_POINT('',(43.5,0.,54.5));
#1567 = VERTEX_POINT('',#1568);
#1568 = CARTESIAN_POINT('',(43.5,-12.,54.5));
#1569 = SEAM_CURVE('',#1570,(#1574,#1586),.PCURVE_S1.);
#1570 = LINE('',#1571,#1572);
#1571 = CARTESIAN_POINT('',(43.5,0.,54.5));
#1572 = VECTOR('',#1573,1.);
#1573 = DIRECTION('',(0.,-1.,0.));
#1574 = PCURVE('',#1575,#1580);
#1575 = CYLINDRICAL_SURFACE('',#1576,2.);
#1576 = AXIS2_PLACEMENT_3D('',#1577,#1578,#1579);
#1577 = CARTESIAN_POINT('',(41.5,0.,54.5));
#1578 = DIRECTION('',(-0.,1.,-0.));
#1579 = DIRECTION('',(1.,0.,0.));
#1580 = DEFINITIONAL_REPRESENTATION('',(#1581),#1585);
#1581 = LINE('',#1582,#1583);
#1582 = CARTESIAN_POINT('',(-0.,0.));
#1583 = VECTOR('',#1584,1.);
#1584 = DIRECTION('',(-0.,-1.));
#1585 = ( GEOMETRIC_REPRESENTATION_CONTEXT(2) 
PARAMETRIC_REPRESENTATION_CONTEXT() REPRESENTATION_CONTEXT('2D SPACE',''
  ) );
#1586 = PCURVE('',#1575,#1587);
#1587 = DEFINITIONAL_REPRESENTATION('',(#1588),#1592);
#1588 = LINE('',#1589,#1590);
#1589 = CARTESIAN_POINT('',(-6.28318530718,0.));
#1590 = VECTOR('',#1591,1.);
#1591 = DIRECTION('',(-0.,-1.));
#1592 = ( GEOMETRIC_REPRESENTATION_CONTEXT(2) 
PARAMETRIC_REPRESENTATION_CONTEXT() REPRESENTATION_CONTEXT('2D SPACE',''
  ) );
#1593 = ORIENTED_EDGE('',*,*,#1594,.T.);
#1594 = EDGE_CURVE('',#1567,#1567,#1595,.T.);
#1595 = SURFACE_CURVE('',#1596,(#1601,#1608),.PCURVE_S1.);
#1596 = CIRCLE('',#1597,2.);
#1597 = AXIS2_PLACEMENT_3D('',#1598,#1599,#1600);
#1598 = CARTESIAN_POINT('',(41.5,-12.,54.5));
#1599 = DIRECTION('',(0.,-1.,0.));
#1600 = DIRECTION('',(1.,0.,0.));
#1601 = PCURVE('',#1575,#1602);
#1602 = DEFINITIONAL_REPRESENTATION('',(#1603),#1607);
#1603 = LINE('',#1604,#1605);
#1604 = CARTESIAN_POINT('',(-0.,-12.));
#1605 = VECTOR('',#1606,1.);
#1606 = DIRECTION('',(-1.,0.));
#1607 = ( GEOMETRIC_REPRESENTATION_CONTEXT(2) 
PARAMETRIC_REPRESENTATION_CONTEXT() REPRESENTATION_CONTEXT('2D SPACE',''
  ) );
#1608 = PCURVE('',#1609,#1614);
#1609 = PLANE('',#1610);
#1610 = AXIS2_PLACEMENT_3D('',#1611,#1612,#1613);
#1611 = CARTESIAN_POINT('',(41.5,-12.,54.5));
#1612 = DIRECTION('',(-0.,-1.,-0.));
#1613 = DIRECTION('',(0.,0.,-1.));
#1614 = DEFINITIONAL_REPRESENTATION('',(#1615),#1619);
#1615 = CIRCLE('',#1616,2.);
#1616 = AXIS2_PLACEMENT_2D('',#1617,#1618);
#1617 = CARTESIAN_POINT('',(-7.105427357601E-15,7.105427357601E-15));
#1618 = DIRECTION('',(0.,1.));
#1619 = ( GEOMETRIC_REPRESENTATION_CONTEXT(2) 
PARAMETRIC_REPRESENTATION_CONTEXT() REPRESENTATION_CONTEXT('2D SPACE',''
  ) );
#1620 = ORIENTED_EDGE('',*,*,#1564,.F.);
#1621 = ORIENTED_EDGE('',*,*,#1622,.F.);
#1622 = EDGE_CURVE('',#1565,#1565,#1623,.T.);
#1623 = SURFACE_CURVE('',#1624,(#1629,#1636),.PCURVE_S1.);
#1624 = CIRCLE('',#1625,2.);
#1625 = AXIS2_PLACEMENT_3D('',#1626,#1627,#1628);
#1626 = CARTESIAN_POINT('',(41.5,0.,54.5));
#1627 = DIRECTION('',(0.,-1.,0.));
#1628 = DIRECTION('',(1.,0.,0.));
#1629 = PCURVE('',#1575,#1630);
#1630 = DEFINITIONAL_REPRESENTATION('',(#1631),#1635);
#1631 = LINE('',#1632,#1633);
#1632 = CARTESIAN_POINT('',(-0.,0.));
#1633 = VECTOR('',#1634,1.);
#1634 = DIRECTION('',(-1.,0.));
#1635 = ( GEOMETRIC_REPRESENTATION_CONTEXT(2) 
PARAMETRIC_REPRESENTATION_CONTEXT() REPRESENTATION_CONTEXT('2D SPACE',''
  ) );
#1636 = PCURVE('',#1637,#1642);
#1637 = PLANE('',#1638);
#1638 = AXIS2_PLACEMENT_3D('',#1639,#1640,#1641);
#1639 = CARTESIAN_POINT('',(41.5,0.,54.5));
#1640 = DIRECTION('',(-0.,-1.,-0.));
#1641 = DIRECTION('',(0.,0.,-1.));
#1642 = DEFINITIONAL_REPRESENTATION('',(#1643),#1647);
#1643 = CIRCLE('',#1644,2.);
#1644 = AXIS2_PLACEMENT_2D('',#1645,#1646);
#1645 = CARTESIAN_POINT('',(-7.105427357601E-15,7.105427357601E-15));
#1646 = DIRECTION('',(0.,1.));
#1647 = ( GEOMETRIC_REPRESENTATION_CONTEXT(2) 
PARAMETRIC_REPRESENTATION_CONTEXT() REPRESENTATION_CONTEXT('2D SPACE',''
  ) );
#1648 = ADVANCED_FACE('',(#1649),#1637,.F.);
#1649 = FACE_BOUND('',#1650,.F.);
#1650 = EDGE_LOOP('',(#1651));
#1651 = ORIENTED_EDGE('',*,*,#1622,.T.);
#1652 = ADVANCED_FACE('',(#1653),#1609,.T.);
#1653 = FACE_BOUND('',#1654,.T.);
#1654 = EDGE_LOOP('',(#1655));
#1655 = ORIENTED_EDGE('',*,*,#1594,.T.);
#1656 = ( GEOMETRIC_REPRESENTATION_CONTEXT(3) 
GLOBAL_UNCERTAINTY_ASSIGNED_CONTEXT((#1660)) 
GLOBAL_UNIT_ASSIGNED_CONTEXT((#1657,#1658,#1659)) REPRESENTATION_CONTEXT
('Context #1','3D Context with UNIT and UNCERTAINTY') );
#1657 = ( LENGTH_UNIT() NAMED_UNIT(*) SI_UNIT(.MILLI.,.METRE.) );
#1658 = ( NAMED_UNIT(*) PLANE_ANGLE_UNIT() SI_UNIT($,.RADIAN.) );
#1659 = ( NAMED_UNIT(*) SI_UNIT($,.STERADIAN.) SOLID_ANGLE_UNIT() );
#1660 = UNCERTAINTY_MEASURE_WITH_UNIT(LENGTH_MEASURE(5.E-07),#1657,
  'distance_accuracy_value','confusion accuracy');
#1661 = PRODUCT_RELATED_PRODUCT_CATEGORY('part',$,(#7));
ENDSEC;
END-ISO-10303-21;
