ISO-10303-21;
HEADER;
FILE_DESCRIPTION(('Open CASCADE Model'),'2;1');
FILE_NAME('Open CASCADE Shape Model','2026-09-12T22:44:09',('Author'),(
    'Open CASCADE'),'Open CASCADE STEP processor 7.9','Open CASCADE 7.9'
  ,'Unknown');
FILE_SCHEMA(('AUTOMOTIVE_DESIGN { 1 0 10303 214 1 1 1 1 }'));
ENDSEC;
DATA;
#1 = APPLICATION_PROTOCOL_DEFINITION('international standard',
  'automotive_design',2000,#2);
#2 = APPLICATION_CONTEXT(
  'core data for automotive mechanical design processes');
#3 = SHAPE_DEFINITION_REPRESENTATION(#4,#10);
#4 = PRODUCT_DEFINITION_SHAPE('','',#5);
#5 = PRODUCT_DEFINITION('design','',#6,#9);
#6 = PRODUCT_DEFINITION_FORMATION('','',#7);
#7 = PRODUCT('Open CASCADE STEP translator 7.9 3',
  'Open CASCADE STEP translator 7.9 3','',(#8));
#8 = PRODUCT_CONTEXT('',#2,'mechanical');
#9 = PRODUCT_DEFINITION_CONTEXT('part definition',#2,'design');
#10 = ADVANCED_BREP_SHAPE_REPRESENTATION('',(#11,#15),#719);
#11 = AXIS2_PLACEMENT_3D('',#12,#13,#14);
#12 = CARTESIAN_POINT('',(0.,0.,0.));
#13 = DIRECTION('',(0.,0.,1.));
#14 = DIRECTION('',(1.,0.,-0.));
#15 = MANIFOLD_SOLID_BREP('',#16);
#16 = CLOSED_SHELL('',(#17,#54,#500,#582,#631,#685,#712));
#17 = ADVANCED_FACE('',(#18),#31,.F.);
#18 = FACE_BOUND('',#19,.F.);
#19 = EDGE_LOOP('',(#20));
#20 = ORIENTED_EDGE('',*,*,#21,.T.);
#21 = EDGE_CURVE('',#22,#22,#24,.T.);
#22 = VERTEX_POINT('',#23);
#23 = CARTESIAN_POINT('',(37.8,0.,0.));
#24 = SURFACE_CURVE('',#25,(#30,#42),.PCURVE_S1.);
#25 = CIRCLE('',#26,37.8);
#26 = AXIS2_PLACEMENT_3D('',#27,#28,#29);
#27 = CARTESIAN_POINT('',(0.,0.,0.));
#28 = DIRECTION('',(0.,0.,1.));
#29 = DIRECTION('',(1.,0.,-0.));
#30 = PCURVE('',#31,#36);
#31 = PLANE('',#32);
#32 = AXIS2_PLACEMENT_3D('',#33,#34,#35);
#33 = CARTESIAN_POINT('',(0.,0.,0.));
#34 = DIRECTION('',(0.,0.,1.));
#35 = DIRECTION('',(1.,0.,0.));
#36 = DEFINITIONAL_REPRESENTATION('',(#37),#41);
#37 = CIRCLE('',#38,37.8);
#38 = AXIS2_PLACEMENT_2D('',#39,#40);
#39 = CARTESIAN_POINT('',(0.,0.));
#40 = DIRECTION('',(1.,0.));
#41 = ( GEOMETRIC_REPRESENTATION_CONTEXT(2) 
PARAMETRIC_REPRESENTATION_CONTEXT() REPRESENTATION_CONTEXT('2D SPACE',''
  ) );
#42 = PCURVE('',#43,#48);
#43 = CONICAL_SURFACE('',#44,37.8,1.055647906843);
#44 = AXIS2_PLACEMENT_3D('',#45,#46,#47);
#45 = CARTESIAN_POINT('',(0.,0.,0.));
#46 = DIRECTION('',(-0.,-0.,-1.));
#47 = DIRECTION('',(1.,0.,-0.));
#48 = DEFINITIONAL_REPRESENTATION('',(#49),#53);
#49 = LINE('',#50,#51);
#50 = CARTESIAN_POINT('',(6.28318530718,0.));
#51 = VECTOR('',#52,1.);
#52 = DIRECTION('',(-1.,0.));
#53 = ( GEOMETRIC_REPRESENTATION_CONTEXT(2) 
PARAMETRIC_REPRESENTATION_CONTEXT() REPRESENTATION_CONTEXT('2D SPACE',''
  ) );
#54 = ADVANCED_FACE('',(#55),#43,.T.);
#55 = FACE_BOUND('',#56,.T.);
#56 = EDGE_LOOP('',(#57,#80,#81,#82,#149,#240,#349,#440));
#57 = ORIENTED_EDGE('',*,*,#58,.F.);
#58 = EDGE_CURVE('',#22,#59,#61,.T.);
#59 = VERTEX_POINT('',#60);
#60 = CARTESIAN_POINT('',(37.5,0.,0.169841269841));
#61 = SEAM_CURVE('',#62,(#66,#73),.PCURVE_S1.);
#62 = LINE('',#63,#64);
#63 = CARTESIAN_POINT('',(37.8,0.,0.));
#64 = VECTOR('',#65,1.);
#65 = DIRECTION('',(-0.870219610714,0.,0.492664012415));
#66 = PCURVE('',#43,#67);
#67 = DEFINITIONAL_REPRESENTATION('',(#68),#72);
#68 = LINE('',#69,#70);
#69 = CARTESIAN_POINT('',(6.28318530718,0.));
#70 = VECTOR('',#71,1.);
#71 = DIRECTION('',(-0.,-1.));
#72 = ( GEOMETRIC_REPRESENTATION_CONTEXT(2) 
PARAMETRIC_REPRESENTATION_CONTEXT() REPRESENTATION_CONTEXT('2D SPACE',''
  ) );
#73 = PCURVE('',#43,#74);
#74 = DEFINITIONAL_REPRESENTATION('',(#75),#79);
#75 = LINE('',#76,#77);
#76 = CARTESIAN_POINT('',(-4.138911435803E-13,0.));
#77 = VECTOR('',#78,1.);
#78 = DIRECTION('',(-0.,-1.));
#79 = ( GEOMETRIC_REPRESENTATION_CONTEXT(2) 
PARAMETRIC_REPRESENTATION_CONTEXT() REPRESENTATION_CONTEXT('2D SPACE',''
  ) );
#80 = ORIENTED_EDGE('',*,*,#21,.T.);
#81 = ORIENTED_EDGE('',*,*,#58,.T.);
#82 = ORIENTED_EDGE('',*,*,#83,.T.);
#83 = EDGE_CURVE('',#59,#84,#86,.T.);
#84 = VERTEX_POINT('',#85);
#85 = CARTESIAN_POINT('',(36.75,-0.75,0.590112210029));
#86 = SURFACE_CURVE('',#87,(#104,#124),.PCURVE_S1.);
#87 = B_SPLINE_CURVE_WITH_KNOTS('',8,(#88,#89,#90,#91,#92,#93,#94,#95,
    #96,#97,#98,#99,#100,#101,#102,#103),.UNSPECIFIED.,.F.,.F.,(9,7,9),(
    0.,0.363278324605,1.),.UNSPECIFIED.);
#88 = CARTESIAN_POINT('',(37.5,0.,0.169841269841));
#89 = CARTESIAN_POINT('',(37.5,-6.193974728916E-02,0.169841269841));
#90 = CARTESIAN_POINT('',(37.494153860894,-0.123897574485,0.173084799636
    ));
#91 = CARTESIAN_POINT('',(37.482455570439,-0.184674175029,0.179575162474
    ));
#92 = CARTESIAN_POINT('',(37.465277997556,-0.243289947852,0.189108349707
    ));
#93 = CARTESIAN_POINT('',(37.443190243259,-0.299010757603,0.201374039775
    ));
#94 = CARTESIAN_POINT('',(37.416843055582,-0.351330621857,0.21601745269)
  );
#95 = CARTESIAN_POINT('',(37.386896849763,-0.399934165792,0.23267764199)
  );
#96 = CARTESIAN_POINT('',(37.296250167577,-0.523056069984,0.28316280138)
  );
#97 = CARTESIAN_POINT('',(37.229417009095,-0.589476104407,0.320440989818
    ));
#98 = CARTESIAN_POINT('',(37.156137009089,-0.644003486788,0.361396763871
    ));
#99 = CARTESIAN_POINT('',(37.078429203258,-0.686895936748,0.404929618941
    ));
#100 = CARTESIAN_POINT('',(36.997918678844,-0.718586811378,
    0.450146975956));
#101 = CARTESIAN_POINT('',(36.915814075272,-0.739507993105,
    0.496379322341));
#102 = CARTESIAN_POINT('',(36.832978190429,-0.75,0.543144919016));
#103 = CARTESIAN_POINT('',(36.75,-0.75,0.590112210029));
#104 = PCURVE('',#43,#105);
#105 = DEFINITIONAL_REPRESENTATION('',(#106),#123);
#106 = B_SPLINE_CURVE_WITH_KNOTS('',8,(#107,#108,#109,#110,#111,#112,
    #113,#114,#115,#116,#117,#118,#119,#120,#121,#122),.UNSPECIFIED.,.F.
  ,.F.,(9,7,9),(0.,0.363278324605,1.),.UNSPECIFIED.);
#107 = CARTESIAN_POINT('',(-4.138911435803E-13,-0.169841269841));
#108 = CARTESIAN_POINT('',(1.651726594586E-03,-0.169841269841));
#109 = CARTESIAN_POINT('',(3.303935496586E-03,-0.173084799636));
#110 = CARTESIAN_POINT('',(4.925660251586E-03,-0.179575162474));
#111 = CARTESIAN_POINT('',(6.491800890586E-03,-0.189108349707));
#112 = CARTESIAN_POINT('',(7.983496397586E-03,-0.201374039775));
#113 = CARTESIAN_POINT('',(9.387594525586E-03,-0.21601745269));
#114 = CARTESIAN_POINT('',(1.069571966959E-02,-0.23267764199));
#115 = CARTESIAN_POINT('',(1.402022240359E-02,-0.28316280138));
#116 = CARTESIAN_POINT('',(1.582674529159E-02,-0.320440989818));
#117 = CARTESIAN_POINT('',(1.732452685959E-02,-0.36139676387));
#118 = CARTESIAN_POINT('',(1.851822990559E-02,-0.404929618942));
#119 = CARTESIAN_POINT('',(1.941657261859E-02,-0.450146975956));
#120 = CARTESIAN_POINT('',(2.002814811959E-02,-0.496379322341));
#121 = CARTESIAN_POINT('',(2.035927007559E-02,-0.543144919016));
#122 = CARTESIAN_POINT('',(2.040533068659E-02,-0.590112210029));
#123 = ( GEOMETRIC_REPRESENTATION_CONTEXT(2) 
PARAMETRIC_REPRESENTATION_CONTEXT() REPRESENTATION_CONTEXT('2D SPACE',''
  ) );
#124 = PCURVE('',#125,#130);
#125 = CYLINDRICAL_SURFACE('',#126,0.75);
#126 = AXIS2_PLACEMENT_3D('',#127,#128,#129);
#127 = CARTESIAN_POINT('',(36.75,0.,0.));
#128 = DIRECTION('',(0.,0.,-1.));
#129 = DIRECTION('',(0.,1.,0.));
#130 = DEFINITIONAL_REPRESENTATION('',(#131),#148);
#131 = B_SPLINE_CURVE_WITH_KNOTS('',8,(#132,#133,#134,#135,#136,#137,
    #138,#139,#140,#141,#142,#143,#144,#145,#146,#147),.UNSPECIFIED.,.F.
  ,.F.,(9,7,9),(0.,0.363278324605,1.),.UNSPECIFIED.);
#132 = CARTESIAN_POINT('',(1.570796326795,-0.169841269841));
#133 = CARTESIAN_POINT('',(1.653382656514,-0.169841269841));
#134 = CARTESIAN_POINT('',(1.735992920462,-0.173084799635));
#135 = CARTESIAN_POINT('',(1.817887442533,-0.179575162474));
#136 = CARTESIAN_POINT('',(1.898617608981,-0.189108349707));
#137 = CARTESIAN_POINT('',(1.977891152533,-0.201374039775));
#138 = CARTESIAN_POINT('',(2.055513900031,-0.21601745269));
#139 = CARTESIAN_POINT('',(2.131373371259,-0.23267764199));
#140 = CARTESIAN_POINT('',(2.335228763505,-0.28316280138));
#141 = CARTESIAN_POINT('',(2.459377965207,-0.320440989818));
#142 = CARTESIAN_POINT('',(2.579182733486,-0.361396763871));
#143 = CARTESIAN_POINT('',(2.6954553848,-0.404929618941));
#144 = CARTESIAN_POINT('',(2.808973344276,-0.450146975956));
#145 = CARTESIAN_POINT('',(2.92050668111,-0.496379322341));
#146 = CARTESIAN_POINT('',(3.030955066352,-0.543144919016));
#147 = CARTESIAN_POINT('',(3.14159265359,-0.590112210029));
#148 = ( GEOMETRIC_REPRESENTATION_CONTEXT(2) 
PARAMETRIC_REPRESENTATION_CONTEXT() REPRESENTATION_CONTEXT('2D SPACE',''
  ) );
#149 = ORIENTED_EDGE('',*,*,#150,.F.);
#150 = EDGE_CURVE('',#151,#84,#153,.T.);
#151 = VERTEX_POINT('',#152);
#152 = CARTESIAN_POINT('',(-36.75,-0.75,0.590112210029));
#153 = SURFACE_CURVE('',#154,(#159,#228),.PCURVE_S1.);
#154 = HYPERBOLA('',#155,0.424603174603,0.75);
#155 = AXIS2_PLACEMENT_3D('',#156,#157,#158);
#156 = CARTESIAN_POINT('',(0.,-0.75,21.4));
#157 = DIRECTION('',(0.,-1.,0.));
#158 = DIRECTION('',(-0.,-0.,-1.));
#159 = PCURVE('',#43,#160);
#160 = DEFINITIONAL_REPRESENTATION('',(#161),#227);
#161 = B_SPLINE_CURVE_WITH_KNOTS('',8,(#162,#163,#164,#165,#166,#167,
    #168,#169,#170,#171,#172,#173,#174,#175,#176,#177,#178,#179,#180,
    #181,#182,#183,#184,#185,#186,#187,#188,#189,#190,#191,#192,#193,
    #194,#195,#196,#197,#198,#199,#200,#201,#202,#203,#204,#205,#206,
    #207,#208,#209,#210,#211,#212,#213,#214,#215,#216,#217,#218,#219,
    #220,#221,#222,#223,#224,#225,#226),.UNSPECIFIED.,.F.,.F.,(9,7,7,7,7
    ,7,7,7,7,9),(-4.613039922107,-3.459779941581,-2.45067745862,
    -1.567712786029,-0.795118697512,-0.119098870059,0.472418478962,
    1.507573839748,3.060306880928,4.613039922107),.UNSPECIFIED.);
#162 = CARTESIAN_POINT('',(3.12175008168,-7.817175169021E-15));
#163 = CARTESIAN_POINT('',(3.118889813871,-3.084363148738));
#164 = CARTESIAN_POINT('',(3.115558405765,-5.660473067664));
#165 = CARTESIAN_POINT('',(3.111665351765,-7.826001428352));
#166 = CARTESIAN_POINT('',(3.107099314144,-9.656089668735));
#167 = CARTESIAN_POINT('',(3.101722124873,-11.2098337937));
#168 = CARTESIAN_POINT('',(3.095360597726,-12.53431111965));
#169 = CARTESIAN_POINT('',(3.087794712375,-13.6674396978));
#170 = CARTESIAN_POINT('',(3.070817116985,-15.49102328654));
#171 = CARTESIAN_POINT('',(3.061754338832,-16.21910752542));
#172 = CARTESIAN_POINT('',(3.051361173275,-16.84490201541));
#173 = CARTESIAN_POINT('',(3.03940903309,-17.38486974606));
#174 = CARTESIAN_POINT('',(3.02562311247,-17.85234441644));
#175 = CARTESIAN_POINT('',(3.009669805989,-18.25824474134));
#176 = CARTESIAN_POINT('',(2.991142427227,-18.61157216287));
#177 = CARTESIAN_POINT('',(2.950652856106,-19.18950024628));
#178 = CARTESIAN_POINT('',(2.929409473119,-19.42467093691));
#179 = CARTESIAN_POINT('',(2.905487963452,-19.63031873739));
#180 = CARTESIAN_POINT('',(2.878506978701,-19.81055299656));
#181 = CARTESIAN_POINT('',(2.84803115372,-19.96877989663));
#182 = CARTESIAN_POINT('',(2.813563194195,-20.10784165939));
#183 = CARTESIAN_POINT('',(2.774552355856,-20.2301175367));
#184 = CARTESIAN_POINT('',(2.691843702752,-20.43165247929));
#185 = CARTESIAN_POINT('',(2.649341129552,-20.51437813945));
#186 = CARTESIAN_POINT('',(2.602560860215,-20.58711611784));
#187 = CARTESIAN_POINT('',(2.551125766598,-20.65097833917));
#188 = CARTESIAN_POINT('',(2.494680369884,-20.70689029871));
#189 = CARTESIAN_POINT('',(2.432943596133,-20.7556209662));
#190 = CARTESIAN_POINT('',(2.365788004299,-20.79780464994));
#191 = CARTESIAN_POINT('',(2.229958283841,-20.86558622058));
#192 = CARTESIAN_POINT('',(2.162522134913,-20.89259826746));
#193 = CARTESIAN_POINT('',(2.091127444551,-20.91533510035));
#194 = CARTESIAN_POINT('',(2.015999357522,-20.93407061353));
#195 = CARTESIAN_POINT('',(1.937565380646,-20.94901605786));
#196 = CARTESIAN_POINT('',(1.856467860439,-20.96032540629));
#197 = CARTESIAN_POINT('',(1.773521316517,-20.96809848409));
#198 = CARTESIAN_POINT('',(1.616196280696,-20.9761298206));
#199 = CARTESIAN_POINT('',(1.542043190902,-20.97720598207));
#200 = CARTESIAN_POINT('',(1.46774637358,-20.97564157589));
#201 = CARTESIAN_POINT('',(1.393948935235,-20.97143665755));
#202 = CARTESIAN_POINT('',(1.321275826365,-20.96456067351));
#203 = CARTESIAN_POINT('',(1.25028233201,-20.95495210474));
#204 = CARTESIAN_POINT('',(1.181421303167,-20.94251719028));
#205 = CARTESIAN_POINT('',(0.998842824313,-20.90019617707));
#206 = CARTESIAN_POINT('',(0.890218994728,-20.86421632461));
#207 = CARTESIAN_POINT('',(0.790973227482,-20.81850107471));
#208 = CARTESIAN_POINT('',(0.701886666022,-20.76204010645));
#209 = CARTESIAN_POINT('',(0.622612105657,-20.69346319678));
#210 = CARTESIAN_POINT('',(0.552440676656,-20.61097421218));
#211 = CARTESIAN_POINT('',(0.490488366956,-20.51225077907));
#212 = CARTESIAN_POINT('',(0.35391592099,-20.21733182132));
#213 = CARTESIAN_POINT('',(0.288450005288,-19.99708099239));
#214 = CARTESIAN_POINT('',(0.236431872708,-19.72337396933));
#215 = CARTESIAN_POINT('',(0.19475378011,-19.38256886632));
#216 = CARTESIAN_POINT('',(0.161199234731,-18.95633565258));
#217 = CARTESIAN_POINT('',(0.133998418028,-18.41967861636));
#218 = CARTESIAN_POINT('',(0.111833594262,-17.73794551958));
#219 = CARTESIAN_POINT('',(7.552250618959E-02,-15.98362398434));
#220 = CARTESIAN_POINT('',(6.137655642159E-02,-14.91103486875));
#221 = CARTESIAN_POINT('',(5.021616290759E-02,-13.59266952721));
#222 = CARTESIAN_POINT('',(4.132301101259E-02,-11.96244874885));
#223 = CARTESIAN_POINT('',(3.417875145059E-02,-9.932594912761));
#224 = CARTESIAN_POINT('',(2.839867791059E-02,-7.384148313979));
#225 = CARTESIAN_POINT('',(2.369359631859E-02,-4.15274322608));
#226 = CARTESIAN_POINT('',(1.984257191059E-02,-4.770894536145E-15));
#227 = ( GEOMETRIC_REPRESENTATION_CONTEXT(2) 
PARAMETRIC_REPRESENTATION_CONTEXT() REPRESENTATION_CONTEXT('2D SPACE',''
  ) );
#228 = PCURVE('',#229,#234);
#229 = PLANE('',#230);
#230 = AXIS2_PLACEMENT_3D('',#231,#232,#233);
#231 = CARTESIAN_POINT('',(36.75,-0.75,0.));
#232 = DIRECTION('',(0.,-1.,0.));
#233 = DIRECTION('',(-1.,0.,0.));
#234 = DEFINITIONAL_REPRESENTATION('',(#235),#239);
#235 = HYPERBOLA('',#236,0.424603174603,0.75);
#236 = AXIS2_PLACEMENT_2D('',#237,#238);
#237 = CARTESIAN_POINT('',(36.75,-21.4));
#238 = DIRECTION('',(0.,1.));
#239 = ( GEOMETRIC_REPRESENTATION_CONTEXT(2) 
PARAMETRIC_REPRESENTATION_CONTEXT() REPRESENTATION_CONTEXT('2D SPACE',''
  ) );
#240 = ORIENTED_EDGE('',*,*,#241,.T.);
#241 = EDGE_CURVE('',#151,#242,#244,.T.);
#242 = VERTEX_POINT('',#243);
#243 = CARTESIAN_POINT('',(-36.75,0.75,0.590112210029));
#244 = SURFACE_CURVE('',#245,(#276,#310),.PCURVE_S1.);
#245 = B_SPLINE_CURVE_WITH_KNOTS('',8,(#246,#247,#248,#249,#250,#251,
    #252,#253,#254,#255,#256,#257,#258,#259,#260,#261,#262,#263,#264,
    #265,#266,#267,#268,#269,#270,#271,#272,#273,#274,#275),
  .UNSPECIFIED.,.F.,.F.,(9,7,7,7,9),(0.,0.31786964747,0.499560045775,
    0.682119034809,1.),.UNSPECIFIED.);
#246 = CARTESIAN_POINT('',(-36.75,-0.75,0.590112210029));
#247 = CARTESIAN_POINT('',(-36.83285227553,-0.75,0.543216189325));
#248 = CARTESIAN_POINT('',(-36.91556246569,-0.739539815272,
    0.496521370926));
#249 = CARTESIAN_POINT('',(-36.99754423475,-0.718682053815,
    0.450357823749));
#250 = CARTESIAN_POINT('',(-37.07793897105,-0.687088587885,
    0.405204953082));
#251 = CARTESIAN_POINT('',(-37.15554482115,-0.644329809582,
    0.361728518961));
#252 = CARTESIAN_POINT('',(-37.22874638783,-0.589974601405,
    0.320815798758));
#253 = CARTESIAN_POINT('',(-37.2955370817,-0.523764343002,0.283560549165
    ));
#254 = CARTESIAN_POINT('',(-37.38626021927,-0.400945174337,
    0.233031873285));
#255 = CARTESIAN_POINT('',(-37.41627880364,-0.352396950726,
    0.216331137848));
#256 = CARTESIAN_POINT('',(-37.44270639473,-0.300126764733,
    0.201642820162));
#257 = CARTESIAN_POINT('',(-37.46488278933,-0.244446833823,
    0.189327754395));
#258 = CARTESIAN_POINT('',(-37.48215591724,-0.185860158582,
    0.179741448311));
#259 = CARTESIAN_POINT('',(-37.49395415387,-0.125098579347,
    0.173195600317));
#260 = CARTESIAN_POINT('',(-37.4999012555,-6.314034160526E-02,
    0.169896054752));
#261 = CARTESIAN_POINT('',(-37.50009734289,6.10684968806E-02,
    0.169787262562));
#262 = CARTESIAN_POINT('',(-37.49429032725,0.123355417038,0.173009086501
    ));
#263 = CARTESIAN_POINT('',(-37.4825677055,0.184458163415,0.17951291474)
  );
#264 = CARTESIAN_POINT('',(-37.4653067328,0.243380555691,0.189092330891)
  );
#265 = CARTESIAN_POINT('',(-37.44308549982,0.299376702156,0.201432116035
    ));
#266 = CARTESIAN_POINT('',(-37.41656536759,0.351933681722,0.216171708696
    ));
#267 = CARTESIAN_POINT('',(-37.38641696448,0.400732975807,0.232944573307
    ));
#268 = CARTESIAN_POINT('',(-37.29553676086,0.523764777346,0.283560727857
    ));
#269 = CARTESIAN_POINT('',(-37.22874629852,0.589974464299,0.320815849107
    ));
#270 = CARTESIAN_POINT('',(-37.15554506232,0.644329630332,0.361728384875
    ));
#271 = CARTESIAN_POINT('',(-37.07793931889,0.687088455313,0.405204757676
    ));
#272 = CARTESIAN_POINT('',(-36.99754421906,0.718682227791,0.450357830885
    ));
#273 = CARTESIAN_POINT('',(-36.91556182077,0.739540077922,0.49652173288)
  );
#274 = CARTESIAN_POINT('',(-36.83285121594,0.75,0.543216789076));
#275 = CARTESIAN_POINT('',(-36.75,0.75,0.590112210029));
#276 = PCURVE('',#43,#277);
#277 = DEFINITIONAL_REPRESENTATION('',(#278),#309);
#278 = B_SPLINE_CURVE_WITH_KNOTS('',8,(#279,#280,#281,#282,#283,#284,
    #285,#286,#287,#288,#289,#290,#291,#292,#293,#294,#295,#296,#297,
    #298,#299,#300,#301,#302,#303,#304,#305,#306,#307,#308),
  .UNSPECIFIED.,.F.,.F.,(9,7,7,7,9),(0.,0.31786964747,0.499560045775,
    0.682119034809,1.),.UNSPECIFIED.);
#279 = CARTESIAN_POINT('',(3.121187322904,-0.590112210029));
#280 = CARTESIAN_POINT('',(3.12123331362,-0.543216189325));
#281 = CARTESIAN_POINT('',(3.121563500977,-0.496521370926));
#282 = CARTESIAN_POINT('',(3.122173296413,-0.45035782375));
#283 = CARTESIAN_POINT('',(3.123068962082,-0.405204953081));
#284 = CARTESIAN_POINT('',(3.124259044355,-0.361728518962));
#285 = CARTESIAN_POINT('',(3.125752214863,-0.320815798758));
#286 = CARTESIAN_POINT('',(3.12755316689,-0.283560549165));
#287 = CARTESIAN_POINT('',(3.130869713481,-0.233031873285));
#288 = CARTESIAN_POINT('',(3.132176423488,-0.216331137848));
#289 = CARTESIAN_POINT('',(3.13357925522,-0.201642820162));
#290 = CARTESIAN_POINT('',(3.135069913849,-0.189327754395));
#291 = CARTESIAN_POINT('',(3.136635322189,-0.179741448311));
#292 = CARTESIAN_POINT('',(3.138256676475,-0.173195600317));
#293 = CARTESIAN_POINT('',(3.139908911025,-0.169896054752));
#294 = CARTESIAN_POINT('',(3.143221146962,-0.169787262562));
#295 = CARTESIAN_POINT('',(3.144882117094,-0.173009086501));
#296 = CARTESIAN_POINT('',(3.14651252515,-0.17951291474));
#297 = CARTESIAN_POINT('',(3.148086847531,-0.189092330891));
#298 = CARTESIAN_POINT('',(3.149585921794,-0.201432116035));
#299 = CARTESIAN_POINT('',(3.150996414402,-0.216171708696));
#300 = CARTESIAN_POINT('',(3.152309863598,-0.232944573307));
#301 = CARTESIAN_POINT('',(3.155632152019,-0.283560727857));
#302 = CARTESIAN_POINT('',(3.157433088757,-0.320815849107));
#303 = CARTESIAN_POINT('',(3.158926257913,-0.361728384874));
#304 = CARTESIAN_POINT('',(3.160116341306,-0.405204757676));
#305 = CARTESIAN_POINT('',(3.1610120154,-0.450357830885));
#306 = CARTESIAN_POINT('',(3.161621813701,-0.49652173288));
#307 = CARTESIAN_POINT('',(3.161951994149,-0.543216789076));
#308 = CARTESIAN_POINT('',(3.161997984277,-0.590112210029));
#309 = ( GEOMETRIC_REPRESENTATION_CONTEXT(2) 
PARAMETRIC_REPRESENTATION_CONTEXT() REPRESENTATION_CONTEXT('2D SPACE',''
  ) );
#310 = PCURVE('',#311,#316);
#311 = CYLINDRICAL_SURFACE('',#312,0.75);
#312 = AXIS2_PLACEMENT_3D('',#313,#314,#315);
#313 = CARTESIAN_POINT('',(-36.75,0.,0.));
#314 = DIRECTION('',(0.,-0.,-1.));
#315 = DIRECTION('',(0.,-1.,0.));
#316 = DEFINITIONAL_REPRESENTATION('',(#317),#348);
#317 = B_SPLINE_CURVE_WITH_KNOTS('',8,(#318,#319,#320,#321,#322,#323,
    #324,#325,#326,#327,#328,#329,#330,#331,#332,#333,#334,#335,#336,
    #337,#338,#339,#340,#341,#342,#343,#344,#345,#346,#347),
  .UNSPECIFIED.,.F.,.F.,(9,7,7,7,9),(0.,0.31786964747,0.499560045775,
    0.682119034809,1.),.UNSPECIFIED.);
#318 = CARTESIAN_POINT('',(0.,-0.590112210029));
#319 = CARTESIAN_POINT('',(0.110469700718,-0.543216189325));
#320 = CARTESIAN_POINT('',(0.220750484044,-0.496521370926));
#321 = CARTESIAN_POINT('',(0.332110715217,-0.45035782375));
#322 = CARTESIAN_POINT('',(0.445446128218,-0.405204953081));
#323 = CARTESIAN_POINT('',(0.561524223261,-0.361728518962));
#324 = CARTESIAN_POINT('',(0.681118723208,-0.320815798758));
#325 = CARTESIAN_POINT('',(0.805039540609,-0.283560549165));
#326 = CARTESIAN_POINT('',(1.00863057242,-0.233031873285));
#327 = CARTESIAN_POINT('',(1.084478061436,-0.216331137848));
#328 = CARTESIAN_POINT('',(1.162090254062,-0.201642820162));
#329 = CARTESIAN_POINT('',(1.241357045321,-0.189327754395));
#330 = CARTESIAN_POINT('',(1.322085959129,-0.179741448311));
#331 = CARTESIAN_POINT('',(1.403985873202,-0.173195600317));
#332 = CARTESIAN_POINT('',(1.486609101058,-0.169896054752));
#333 = CARTESIAN_POINT('',(1.65222109208,-0.169787262562));
#334 = CARTESIAN_POINT('',(1.735257816614,-0.173009086501));
#335 = CARTESIAN_POINT('',(1.817575507559,-0.17951291474));
#336 = CARTESIAN_POINT('',(1.898718110021,-0.189092330891));
#337 = CARTESIAN_POINT('',(1.978388805865,-0.201432116035));
#338 = CARTESIAN_POINT('',(2.056390729384,-0.216171708696));
#339 = CARTESIAN_POINT('',(2.132610330558,-0.232944573307));
#340 = CARTESIAN_POINT('',(2.33655383297,-0.283560727857));
#341 = CARTESIAN_POINT('',(2.460473855564,-0.320815849107));
#342 = CARTESIAN_POINT('',(2.580068092254,-0.361728384874));
#343 = CARTESIAN_POINT('',(2.696146033127,-0.405204757676));
#344 = CARTESIAN_POINT('',(2.809482054067,-0.450357830885));
#345 = CARTESIAN_POINT('',(2.920843026418,-0.49652173288));
#346 = CARTESIAN_POINT('',(3.031124365663,-0.543216789076));
#347 = CARTESIAN_POINT('',(3.14159265359,-0.590112210029));
#348 = ( GEOMETRIC_REPRESENTATION_CONTEXT(2) 
PARAMETRIC_REPRESENTATION_CONTEXT() REPRESENTATION_CONTEXT('2D SPACE',''
  ) );
#349 = ORIENTED_EDGE('',*,*,#350,.F.);
#350 = EDGE_CURVE('',#351,#242,#353,.T.);
#351 = VERTEX_POINT('',#352);
#352 = CARTESIAN_POINT('',(36.75,0.75,0.590112210029));
#353 = SURFACE_CURVE('',#354,(#359,#428),.PCURVE_S1.);
#354 = HYPERBOLA('',#355,0.424603174603,0.75);
#355 = AXIS2_PLACEMENT_3D('',#356,#357,#358);
#356 = CARTESIAN_POINT('',(0.,0.75,21.4));
#357 = DIRECTION('',(0.,1.,0.));
#358 = DIRECTION('',(0.,0.,-1.));
#359 = PCURVE('',#43,#360);
#360 = DEFINITIONAL_REPRESENTATION('',(#361),#427);
#361 = B_SPLINE_CURVE_WITH_KNOTS('',8,(#362,#363,#364,#365,#366,#367,
    #368,#369,#370,#371,#372,#373,#374,#375,#376,#377,#378,#379,#380,
    #381,#382,#383,#384,#385,#386,#387,#388,#389,#390,#391,#392,#393,
    #394,#395,#396,#397,#398,#399,#400,#401,#402,#403,#404,#405,#406,
    #407,#408,#409,#410,#411,#412,#413,#414,#415,#416,#417,#418,#419,
    #420,#421,#422,#423,#424,#425,#426),.UNSPECIFIED.,.F.,.F.,(9,7,7,7,7
    ,7,7,7,7,9),(-4.613039922107,-3.459779941581,-2.45067745862,
    -1.567712786029,-0.795118697512,-0.119098870059,0.472418478961,
    1.507573839748,3.060306880928,4.613039922107),.UNSPECIFIED.);
#362 = CARTESIAN_POINT('',(6.263342735269,-7.817175169021E-15));
#363 = CARTESIAN_POINT('',(6.26048246746,-3.084363148738));
#364 = CARTESIAN_POINT('',(6.257151059356,-5.660473067664));
#365 = CARTESIAN_POINT('',(6.253258005343,-7.826001428352));
#366 = CARTESIAN_POINT('',(6.24869196774,-9.656089668735));
#367 = CARTESIAN_POINT('',(6.243314778445,-11.2098337937));
#368 = CARTESIAN_POINT('',(6.236953251315,-12.53431111965));
#369 = CARTESIAN_POINT('',(6.229387365964,-13.6674396978));
#370 = CARTESIAN_POINT('',(6.212409770574,-15.49102328654));
#371 = CARTESIAN_POINT('',(6.203346992421,-16.21910752542));
#372 = CARTESIAN_POINT('',(6.192953826865,-16.84490201541));
#373 = CARTESIAN_POINT('',(6.18100168668,-17.38486974606));
#374 = CARTESIAN_POINT('',(6.16721576606,-17.85234441644));
#375 = CARTESIAN_POINT('',(6.151262459579,-18.25824474134));
#376 = CARTESIAN_POINT('',(6.132735080816,-18.61157216287));
#377 = CARTESIAN_POINT('',(6.092245509695,-19.18950024628));
#378 = CARTESIAN_POINT('',(6.071002126708,-19.42467093691));
#379 = CARTESIAN_POINT('',(6.047080617042,-19.63031873739));
#380 = CARTESIAN_POINT('',(6.020099632291,-19.81055299656));
#381 = CARTESIAN_POINT('',(5.989623807311,-19.96877989663));
#382 = CARTESIAN_POINT('',(5.955155847784,-20.10784165939));
#383 = CARTESIAN_POINT('',(5.916145009446,-20.2301175367));
#384 = CARTESIAN_POINT('',(5.833436356341,-20.43165247929));
#385 = CARTESIAN_POINT('',(5.790933783142,-20.51437813945));
#386 = CARTESIAN_POINT('',(5.744153513805,-20.58711611784));
#387 = CARTESIAN_POINT('',(5.692718420188,-20.65097833917));
#388 = CARTESIAN_POINT('',(5.636273023474,-20.70689029871));
#389 = CARTESIAN_POINT('',(5.574536249723,-20.7556209662));
#390 = CARTESIAN_POINT('',(5.507380657889,-20.79780464994));
#391 = CARTESIAN_POINT('',(5.37155093743,-20.86558622058));
#392 = CARTESIAN_POINT('',(5.304114788503,-20.89259826746));
#393 = CARTESIAN_POINT('',(5.23272009814,-20.91533510035));
#394 = CARTESIAN_POINT('',(5.157592011112,-20.93407061353));
#395 = CARTESIAN_POINT('',(5.079158034236,-20.94901605786));
#396 = CARTESIAN_POINT('',(4.998060514029,-20.96032540629));
#397 = CARTESIAN_POINT('',(4.915113970107,-20.96809848409));
#398 = CARTESIAN_POINT('',(4.757788934286,-20.9761298206));
#399 = CARTESIAN_POINT('',(4.683635844492,-20.97720598207));
#400 = CARTESIAN_POINT('',(4.60933902717,-20.97564157589));
#401 = CARTESIAN_POINT('',(4.535541588825,-20.97143665755));
#402 = CARTESIAN_POINT('',(4.462868479954,-20.96456067351));
#403 = CARTESIAN_POINT('',(4.3918749856,-20.95495210474));
#404 = CARTESIAN_POINT('',(4.323013956757,-20.94251719028));
#405 = CARTESIAN_POINT('',(4.140435477903,-20.90019617707));
#406 = CARTESIAN_POINT('',(4.031811648322,-20.86421632461));
#407 = CARTESIAN_POINT('',(3.932565881046,-20.81850107471));
#408 = CARTESIAN_POINT('',(3.843479319641,-20.76204010645));
#409 = CARTESIAN_POINT('',(3.764204759209,-20.69346319678));
#410 = CARTESIAN_POINT('',(3.694033330251,-20.61097421218));
#411 = CARTESIAN_POINT('',(3.632081020546,-20.51225077907));
#412 = CARTESIAN_POINT('',(3.49550857458,-20.21733182132));
#413 = CARTESIAN_POINT('',(3.430042658876,-19.99708099239));
#414 = CARTESIAN_POINT('',(3.378024526286,-19.72337396933));
#415 = CARTESIAN_POINT('',(3.336346433703,-19.38256886632));
#416 = CARTESIAN_POINT('',(3.302791888312,-18.95633565258));
#417 = CARTESIAN_POINT('',(3.275591071615,-18.41967861636));
#418 = CARTESIAN_POINT('',(3.253426247851,-17.73794551958));
#419 = CARTESIAN_POINT('',(3.217115159779,-15.98362398434));
#420 = CARTESIAN_POINT('',(3.202969210033,-14.91103486875));
#421 = CARTESIAN_POINT('',(3.191808816429,-13.59266952724));
#422 = CARTESIAN_POINT('',(3.182915664663,-11.96244874884));
#423 = CARTESIAN_POINT('',(3.175771404967,-9.932594912768));
#424 = CARTESIAN_POINT('',(3.169991331518,-7.384148313974));
#425 = CARTESIAN_POINT('',(3.165286249908,-4.15274322608));
#426 = CARTESIAN_POINT('',(3.161435225501,-7.817175169021E-15));
#427 = ( GEOMETRIC_REPRESENTATION_CONTEXT(2) 
PARAMETRIC_REPRESENTATION_CONTEXT() REPRESENTATION_CONTEXT('2D SPACE',''
  ) );
#428 = PCURVE('',#429,#434);
#429 = PLANE('',#430);
#430 = AXIS2_PLACEMENT_3D('',#431,#432,#433);
#431 = CARTESIAN_POINT('',(-36.75,0.75,0.));
#432 = DIRECTION('',(0.,1.,0.));
#433 = DIRECTION('',(1.,0.,0.));
#434 = DEFINITIONAL_REPRESENTATION('',(#435),#439);
#435 = HYPERBOLA('',#436,0.424603174603,0.75);
#436 = AXIS2_PLACEMENT_2D('',#437,#438);
#437 = CARTESIAN_POINT('',(36.75,-21.4));
#438 = DIRECTION('',(0.,1.));
#439 = ( GEOMETRIC_REPRESENTATION_CONTEXT(2) 
PARAMETRIC_REPRESENTATION_CONTEXT() REPRESENTATION_CONTEXT('2D SPACE',''
  ) );
#440 = ORIENTED_EDGE('',*,*,#441,.T.);
#441 = EDGE_CURVE('',#351,#59,#442,.T.);
#442 = SURFACE_CURVE('',#443,(#460,#480),.PCURVE_S1.);
#443 = B_SPLINE_CURVE_WITH_KNOTS('',8,(#444,#445,#446,#447,#448,#449,
    #450,#451,#452,#453,#454,#455,#456,#457,#458,#459),.UNSPECIFIED.,.F.
  ,.F.,(9,7,9),(0.,0.635749954163,1.),.UNSPECIFIED.);
#444 = CARTESIAN_POINT('',(36.75,0.75,0.590112210029));
#445 = CARTESIAN_POINT('',(36.832852275539,0.75,0.543216189325));
#446 = CARTESIAN_POINT('',(36.915562465693,0.739539815271,0.496521370926
    ));
#447 = CARTESIAN_POINT('',(36.997544234754,0.718682053816,0.450357823749
    ));
#448 = CARTESIAN_POINT('',(37.07793897105,0.687088587884,0.405204953082)
  );
#449 = CARTESIAN_POINT('',(37.155544821155,0.644329809583,0.361728518962
    ));
#450 = CARTESIAN_POINT('',(37.228746387836,0.589974601405,0.320815798758
    ));
#451 = CARTESIAN_POINT('',(37.295537081704,0.523764343002,0.283560549165
    ));
#452 = CARTESIAN_POINT('',(37.386338595192,0.400839070584,0.23298822145)
  );
#453 = CARTESIAN_POINT('',(37.416422102394,0.352165336531,0.21625141383)
  );
#454 = CARTESIAN_POINT('',(37.44289600602,0.299751800784,0.201537435168)
  );
#455 = CARTESIAN_POINT('',(37.465094905106,0.243913818032,0.189209962224
    ));
#456 = CARTESIAN_POINT('',(37.482362093186,0.185159329967,0.179627024693
    ));
#457 = CARTESIAN_POINT('',(37.494122712603,0.124227178317,0.173102081274
    ));
#458 = CARTESIAN_POINT('',(37.5,6.210454974118E-02,0.169841269841));
#459 = CARTESIAN_POINT('',(37.5,0.,0.169841269841));
#460 = PCURVE('',#43,#461);
#461 = DEFINITIONAL_REPRESENTATION('',(#462),#479);
#462 = B_SPLINE_CURVE_WITH_KNOTS('',8,(#463,#464,#465,#466,#467,#468,
    #469,#470,#471,#472,#473,#474,#475,#476,#477,#478),.UNSPECIFIED.,.F.
  ,.F.,(9,7,9),(0.,0.635749954163,1.),.UNSPECIFIED.);
#463 = CARTESIAN_POINT('',(6.262779976493,-0.590112210029));
#464 = CARTESIAN_POINT('',(6.262825967209,-0.543216189325));
#465 = CARTESIAN_POINT('',(6.263156154567,-0.496521370926));
#466 = CARTESIAN_POINT('',(6.263765950002,-0.450357823749));
#467 = CARTESIAN_POINT('',(6.264661615672,-0.405204953082));
#468 = CARTESIAN_POINT('',(6.265851697944,-0.361728518961));
#469 = CARTESIAN_POINT('',(6.267344868452,-0.320815798758));
#470 = CARTESIAN_POINT('',(6.26914582048,-0.283560549165));
#471 = CARTESIAN_POINT('',(6.272465232242,-0.23298822145));
#472 = CARTESIAN_POINT('',(6.273775311197,-0.21625141383));
#473 = CARTESIAN_POINT('',(6.275181972149,-0.201537435168));
#474 = CARTESIAN_POINT('',(6.276676837157,-0.189209962224));
#475 = CARTESIAN_POINT('',(6.278246701352,-0.179627024693));
#476 = CARTESIAN_POINT('',(6.279872582242,-0.173102081274));
#477 = CARTESIAN_POINT('',(6.281529185853,-0.169841269841));
#478 = CARTESIAN_POINT('',(6.28318530718,-0.169841269841));
#479 = ( GEOMETRIC_REPRESENTATION_CONTEXT(2) 
PARAMETRIC_REPRESENTATION_CONTEXT() REPRESENTATION_CONTEXT('2D SPACE',''
  ) );
#480 = PCURVE('',#125,#481);
#481 = DEFINITIONAL_REPRESENTATION('',(#482),#499);
#482 = B_SPLINE_CURVE_WITH_KNOTS('',8,(#483,#484,#485,#486,#487,#488,
    #489,#490,#491,#492,#493,#494,#495,#496,#497,#498),.UNSPECIFIED.,.F.
  ,.F.,(9,7,9),(0.,0.635749954163,1.),.UNSPECIFIED.);
#483 = CARTESIAN_POINT('',(0.,-0.590112210029));
#484 = CARTESIAN_POINT('',(0.110469700718,-0.543216189325));
#485 = CARTESIAN_POINT('',(0.220750484043,-0.496521370926));
#486 = CARTESIAN_POINT('',(0.332110715218,-0.450357823749));
#487 = CARTESIAN_POINT('',(0.445446128216,-0.405204953082));
#488 = CARTESIAN_POINT('',(0.561524223262,-0.361728518962));
#489 = CARTESIAN_POINT('',(0.681118723207,-0.320815798758));
#490 = CARTESIAN_POINT('',(0.805039540609,-0.283560549165));
#491 = CARTESIAN_POINT('',(1.008806455166,-0.23298822145));
#492 = CARTESIAN_POINT('',(1.084839984327,-0.21625141383));
#493 = CARTESIAN_POINT('',(1.162647014917,-0.201537435168));
#494 = CARTESIAN_POINT('',(1.242115729339,-0.189209962224));
#495 = CARTESIAN_POINT('',(1.323051465596,-0.179627024693));
#496 = CARTESIAN_POINT('',(1.40516026232,-0.173102081274));
#497 = CARTESIAN_POINT('',(1.487990260473,-0.169841269841));
#498 = CARTESIAN_POINT('',(1.570796326795,-0.169841269841));
#499 = ( GEOMETRIC_REPRESENTATION_CONTEXT(2) 
PARAMETRIC_REPRESENTATION_CONTEXT() REPRESENTATION_CONTEXT('2D SPACE',''
  ) );
#500 = ADVANCED_FACE('',(#501),#125,.T.);
#501 = FACE_BOUND('',#502,.T.);
#502 = EDGE_LOOP('',(#503,#504,#527,#560,#581));
#503 = ORIENTED_EDGE('',*,*,#441,.F.);
#504 = ORIENTED_EDGE('',*,*,#505,.T.);
#505 = EDGE_CURVE('',#351,#506,#508,.T.);
#506 = VERTEX_POINT('',#507);
#507 = CARTESIAN_POINT('',(36.75,0.75,109.));
#508 = SURFACE_CURVE('',#509,(#513,#520),.PCURVE_S1.);
#509 = LINE('',#510,#511);
#510 = CARTESIAN_POINT('',(36.75,0.75,0.));
#511 = VECTOR('',#512,1.);
#512 = DIRECTION('',(0.,0.,1.));
#513 = PCURVE('',#125,#514);
#514 = DEFINITIONAL_REPRESENTATION('',(#515),#519);
#515 = LINE('',#516,#517);
#516 = CARTESIAN_POINT('',(0.,0.));
#517 = VECTOR('',#518,1.);
#518 = DIRECTION('',(0.,-1.));
#519 = ( GEOMETRIC_REPRESENTATION_CONTEXT(2) 
PARAMETRIC_REPRESENTATION_CONTEXT() REPRESENTATION_CONTEXT('2D SPACE',''
  ) );
#520 = PCURVE('',#429,#521);
#521 = DEFINITIONAL_REPRESENTATION('',(#522),#526);
#522 = LINE('',#523,#524);
#523 = CARTESIAN_POINT('',(73.5,0.));
#524 = VECTOR('',#525,1.);
#525 = DIRECTION('',(0.,-1.));
#526 = ( GEOMETRIC_REPRESENTATION_CONTEXT(2) 
PARAMETRIC_REPRESENTATION_CONTEXT() REPRESENTATION_CONTEXT('2D SPACE',''
  ) );
#527 = ORIENTED_EDGE('',*,*,#528,.T.);
#528 = EDGE_CURVE('',#506,#529,#531,.T.);
#529 = VERTEX_POINT('',#530);
#530 = CARTESIAN_POINT('',(36.75,-0.75,109.));
#531 = SURFACE_CURVE('',#532,(#537,#544),.PCURVE_S1.);
#532 = CIRCLE('',#533,0.75);
#533 = AXIS2_PLACEMENT_3D('',#534,#535,#536);
#534 = CARTESIAN_POINT('',(36.75,0.,109.));
#535 = DIRECTION('',(0.,0.,-1.));
#536 = DIRECTION('',(0.,1.,0.));
#537 = PCURVE('',#125,#538);
#538 = DEFINITIONAL_REPRESENTATION('',(#539),#543);
#539 = LINE('',#540,#541);
#540 = CARTESIAN_POINT('',(0.,-109.));
#541 = VECTOR('',#542,1.);
#542 = DIRECTION('',(1.,0.));
#543 = ( GEOMETRIC_REPRESENTATION_CONTEXT(2) 
PARAMETRIC_REPRESENTATION_CONTEXT() REPRESENTATION_CONTEXT('2D SPACE',''
  ) );
#544 = PCURVE('',#545,#550);
#545 = PLANE('',#546);
#546 = AXIS2_PLACEMENT_3D('',#547,#548,#549);
#547 = CARTESIAN_POINT('',(0.,0.,109.));
#548 = DIRECTION('',(0.,0.,1.));
#549 = DIRECTION('',(1.,0.,0.));
#550 = DEFINITIONAL_REPRESENTATION('',(#551),#559);
#551 = ( BOUNDED_CURVE() B_SPLINE_CURVE(2,(#552,#553,#554,#555,#556,#557
,#558),.UNSPECIFIED.,.T.,.F.) B_SPLINE_CURVE_WITH_KNOTS((1,2,2,2,2,1),(
    -2.094395102393,0.,2.094395102393,4.188790204786,6.28318530718,
8.377580409573),.UNSPECIFIED.) CURVE() GEOMETRIC_REPRESENTATION_ITEM() 
RATIONAL_B_SPLINE_CURVE((1.,0.5,1.,0.5,1.,0.5,1.)) REPRESENTATION_ITEM(
  '') );
#552 = CARTESIAN_POINT('',(36.75,0.75));
#553 = CARTESIAN_POINT('',(38.049038105677,0.75));
#554 = CARTESIAN_POINT('',(37.399519052838,-0.375));
#555 = CARTESIAN_POINT('',(36.75,-1.5));
#556 = CARTESIAN_POINT('',(36.100480947162,-0.375));
#557 = CARTESIAN_POINT('',(35.450961894323,0.75));
#558 = CARTESIAN_POINT('',(36.75,0.75));
#559 = ( GEOMETRIC_REPRESENTATION_CONTEXT(2) 
PARAMETRIC_REPRESENTATION_CONTEXT() REPRESENTATION_CONTEXT('2D SPACE',''
  ) );
#560 = ORIENTED_EDGE('',*,*,#561,.F.);
#561 = EDGE_CURVE('',#84,#529,#562,.T.);
#562 = SURFACE_CURVE('',#563,(#567,#574),.PCURVE_S1.);
#563 = LINE('',#564,#565);
#564 = CARTESIAN_POINT('',(36.75,-0.75,0.));
#565 = VECTOR('',#566,1.);
#566 = DIRECTION('',(0.,0.,1.));
#567 = PCURVE('',#125,#568);
#568 = DEFINITIONAL_REPRESENTATION('',(#569),#573);
#569 = LINE('',#570,#571);
#570 = CARTESIAN_POINT('',(3.14159265359,0.));
#571 = VECTOR('',#572,1.);
#572 = DIRECTION('',(0.,-1.));
#573 = ( GEOMETRIC_REPRESENTATION_CONTEXT(2) 
PARAMETRIC_REPRESENTATION_CONTEXT() REPRESENTATION_CONTEXT('2D SPACE',''
  ) );
#574 = PCURVE('',#229,#575);
#575 = DEFINITIONAL_REPRESENTATION('',(#576),#580);
#576 = LINE('',#577,#578);
#577 = CARTESIAN_POINT('',(0.,-0.));
#578 = VECTOR('',#579,1.);
#579 = DIRECTION('',(0.,-1.));
#580 = ( GEOMETRIC_REPRESENTATION_CONTEXT(2) 
PARAMETRIC_REPRESENTATION_CONTEXT() REPRESENTATION_CONTEXT('2D SPACE',''
  ) );
#581 = ORIENTED_EDGE('',*,*,#83,.F.);
#582 = ADVANCED_FACE('',(#583),#229,.T.);
#583 = FACE_BOUND('',#584,.T.);
#584 = EDGE_LOOP('',(#585,#586,#587,#610));
#585 = ORIENTED_EDGE('',*,*,#150,.T.);
#586 = ORIENTED_EDGE('',*,*,#561,.T.);
#587 = ORIENTED_EDGE('',*,*,#588,.T.);
#588 = EDGE_CURVE('',#529,#589,#591,.T.);
#589 = VERTEX_POINT('',#590);
#590 = CARTESIAN_POINT('',(-36.75,-0.75,109.));
#591 = SURFACE_CURVE('',#592,(#596,#603),.PCURVE_S1.);
#592 = LINE('',#593,#594);
#593 = CARTESIAN_POINT('',(36.75,-0.75,109.));
#594 = VECTOR('',#595,1.);
#595 = DIRECTION('',(-1.,0.,0.));
#596 = PCURVE('',#229,#597);
#597 = DEFINITIONAL_REPRESENTATION('',(#598),#602);
#598 = LINE('',#599,#600);
#599 = CARTESIAN_POINT('',(0.,-109.));
#600 = VECTOR('',#601,1.);
#601 = DIRECTION('',(1.,0.));
#602 = ( GEOMETRIC_REPRESENTATION_CONTEXT(2) 
PARAMETRIC_REPRESENTATION_CONTEXT() REPRESENTATION_CONTEXT('2D SPACE',''
  ) );
#603 = PCURVE('',#545,#604);
#604 = DEFINITIONAL_REPRESENTATION('',(#605),#609);
#605 = LINE('',#606,#607);
#606 = CARTESIAN_POINT('',(36.75,-0.75));
#607 = VECTOR('',#608,1.);
#608 = DIRECTION('',(-1.,0.));
#609 = ( GEOMETRIC_REPRESENTATION_CONTEXT(2) 
PARAMETRIC_REPRESENTATION_CONTEXT() REPRESENTATION_CONTEXT('2D SPACE',''
  ) );
#610 = ORIENTED_EDGE('',*,*,#611,.F.);
#611 = EDGE_CURVE('',#151,#589,#612,.T.);
#612 = SURFACE_CURVE('',#613,(#617,#624),.PCURVE_S1.);
#613 = LINE('',#614,#615);
#614 = CARTESIAN_POINT('',(-36.75,-0.75,0.));
#615 = VECTOR('',#616,1.);
#616 = DIRECTION('',(0.,0.,1.));
#617 = PCURVE('',#229,#618);
#618 = DEFINITIONAL_REPRESENTATION('',(#619),#623);
#619 = LINE('',#620,#621);
#620 = CARTESIAN_POINT('',(73.5,0.));
#621 = VECTOR('',#622,1.);
#622 = DIRECTION('',(0.,-1.));
#623 = ( GEOMETRIC_REPRESENTATION_CONTEXT(2) 
PARAMETRIC_REPRESENTATION_CONTEXT() REPRESENTATION_CONTEXT('2D SPACE',''
  ) );
#624 = PCURVE('',#311,#625);
#625 = DEFINITIONAL_REPRESENTATION('',(#626),#630);
#626 = LINE('',#627,#628);
#627 = CARTESIAN_POINT('',(0.,0.));
#628 = VECTOR('',#629,1.);
#629 = DIRECTION('',(0.,-1.));
#630 = ( GEOMETRIC_REPRESENTATION_CONTEXT(2) 
PARAMETRIC_REPRESENTATION_CONTEXT() REPRESENTATION_CONTEXT('2D SPACE',''
  ) );
#631 = ADVANCED_FACE('',(#632),#311,.T.);
#632 = FACE_BOUND('',#633,.T.);
#633 = EDGE_LOOP('',(#634,#635,#636,#664));
#634 = ORIENTED_EDGE('',*,*,#241,.F.);
#635 = ORIENTED_EDGE('',*,*,#611,.T.);
#636 = ORIENTED_EDGE('',*,*,#637,.T.);
#637 = EDGE_CURVE('',#589,#638,#640,.T.);
#638 = VERTEX_POINT('',#639);
#639 = CARTESIAN_POINT('',(-36.75,0.75,109.));
#640 = SURFACE_CURVE('',#641,(#646,#653),.PCURVE_S1.);
#641 = CIRCLE('',#642,0.75);
#642 = AXIS2_PLACEMENT_3D('',#643,#644,#645);
#643 = CARTESIAN_POINT('',(-36.75,0.,109.));
#644 = DIRECTION('',(0.,-0.,-1.));
#645 = DIRECTION('',(0.,-1.,0.));
#646 = PCURVE('',#311,#647);
#647 = DEFINITIONAL_REPRESENTATION('',(#648),#652);
#648 = LINE('',#649,#650);
#649 = CARTESIAN_POINT('',(0.,-109.));
#650 = VECTOR('',#651,1.);
#651 = DIRECTION('',(1.,0.));
#652 = ( GEOMETRIC_REPRESENTATION_CONTEXT(2) 
PARAMETRIC_REPRESENTATION_CONTEXT() REPRESENTATION_CONTEXT('2D SPACE',''
  ) );
#653 = PCURVE('',#545,#654);
#654 = DEFINITIONAL_REPRESENTATION('',(#655),#663);
#655 = ( BOUNDED_CURVE() B_SPLINE_CURVE(2,(#656,#657,#658,#659,#660,#661
,#662),.UNSPECIFIED.,.T.,.F.) B_SPLINE_CURVE_WITH_KNOTS((1,2,2,2,2,1),(
    -2.094395102393,0.,2.094395102393,4.188790204786,6.28318530718,
8.377580409573),.UNSPECIFIED.) CURVE() GEOMETRIC_REPRESENTATION_ITEM() 
RATIONAL_B_SPLINE_CURVE((1.,0.5,1.,0.5,1.,0.5,1.)) REPRESENTATION_ITEM(
  '') );
#656 = CARTESIAN_POINT('',(-36.75,-0.75));
#657 = CARTESIAN_POINT('',(-38.04903810567,-0.75));
#658 = CARTESIAN_POINT('',(-37.39951905283,0.375));
#659 = CARTESIAN_POINT('',(-36.75,1.5));
#660 = CARTESIAN_POINT('',(-36.10048094716,0.375));
#661 = CARTESIAN_POINT('',(-35.45096189432,-0.75));
#662 = CARTESIAN_POINT('',(-36.75,-0.75));
#663 = ( GEOMETRIC_REPRESENTATION_CONTEXT(2) 
PARAMETRIC_REPRESENTATION_CONTEXT() REPRESENTATION_CONTEXT('2D SPACE',''
  ) );
#664 = ORIENTED_EDGE('',*,*,#665,.F.);
#665 = EDGE_CURVE('',#242,#638,#666,.T.);
#666 = SURFACE_CURVE('',#667,(#671,#678),.PCURVE_S1.);
#667 = LINE('',#668,#669);
#668 = CARTESIAN_POINT('',(-36.75,0.75,0.));
#669 = VECTOR('',#670,1.);
#670 = DIRECTION('',(0.,0.,1.));
#671 = PCURVE('',#311,#672);
#672 = DEFINITIONAL_REPRESENTATION('',(#673),#677);
#673 = LINE('',#674,#675);
#674 = CARTESIAN_POINT('',(3.14159265359,0.));
#675 = VECTOR('',#676,1.);
#676 = DIRECTION('',(0.,-1.));
#677 = ( GEOMETRIC_REPRESENTATION_CONTEXT(2) 
PARAMETRIC_REPRESENTATION_CONTEXT() REPRESENTATION_CONTEXT('2D SPACE',''
  ) );
#678 = PCURVE('',#429,#679);
#679 = DEFINITIONAL_REPRESENTATION('',(#680),#684);
#680 = LINE('',#681,#682);
#681 = CARTESIAN_POINT('',(0.,0.));
#682 = VECTOR('',#683,1.);
#683 = DIRECTION('',(0.,-1.));
#684 = ( GEOMETRIC_REPRESENTATION_CONTEXT(2) 
PARAMETRIC_REPRESENTATION_CONTEXT() REPRESENTATION_CONTEXT('2D SPACE',''
  ) );
#685 = ADVANCED_FACE('',(#686),#429,.T.);
#686 = FACE_BOUND('',#687,.T.);
#687 = EDGE_LOOP('',(#688,#689,#690,#711));
#688 = ORIENTED_EDGE('',*,*,#350,.T.);
#689 = ORIENTED_EDGE('',*,*,#665,.T.);
#690 = ORIENTED_EDGE('',*,*,#691,.T.);
#691 = EDGE_CURVE('',#638,#506,#692,.T.);
#692 = SURFACE_CURVE('',#693,(#697,#704),.PCURVE_S1.);
#693 = LINE('',#694,#695);
#694 = CARTESIAN_POINT('',(-36.75,0.75,109.));
#695 = VECTOR('',#696,1.);
#696 = DIRECTION('',(1.,0.,0.));
#697 = PCURVE('',#429,#698);
#698 = DEFINITIONAL_REPRESENTATION('',(#699),#703);
#699 = LINE('',#700,#701);
#700 = CARTESIAN_POINT('',(0.,-109.));
#701 = VECTOR('',#702,1.);
#702 = DIRECTION('',(1.,0.));
#703 = ( GEOMETRIC_REPRESENTATION_CONTEXT(2) 
PARAMETRIC_REPRESENTATION_CONTEXT() REPRESENTATION_CONTEXT('2D SPACE',''
  ) );
#704 = PCURVE('',#545,#705);
#705 = DEFINITIONAL_REPRESENTATION('',(#706),#710);
#706 = LINE('',#707,#708);
#707 = CARTESIAN_POINT('',(-36.75,0.75));
#708 = VECTOR('',#709,1.);
#709 = DIRECTION('',(1.,0.));
#710 = ( GEOMETRIC_REPRESENTATION_CONTEXT(2) 
PARAMETRIC_REPRESENTATION_CONTEXT() REPRESENTATION_CONTEXT('2D SPACE',''
  ) );
#711 = ORIENTED_EDGE('',*,*,#505,.F.);
#712 = ADVANCED_FACE('',(#713),#545,.T.);
#713 = FACE_BOUND('',#714,.T.);
#714 = EDGE_LOOP('',(#715,#716,#717,#718));
#715 = ORIENTED_EDGE('',*,*,#528,.F.);
#716 = ORIENTED_EDGE('',*,*,#691,.F.);
#717 = ORIENTED_EDGE('',*,*,#637,.F.);
#718 = ORIENTED_EDGE('',*,*,#588,.F.);
#719 = ( GEOMETRIC_REPRESENTATION_CONTEXT(3) 
GLOBAL_UNCERTAINTY_ASSIGNED_CONTEXT((#723)) GLOBAL_UNIT_ASSIGNED_CONTEXT
((#720,#721,#722)) REPRESENTATION_CONTEXT('Context #1',
  '3D Context with UNIT and UNCERTAINTY') );
#720 = ( LENGTH_UNIT() NAMED_UNIT(*) SI_UNIT(.MILLI.,.METRE.) );
#721 = ( NAMED_UNIT(*) PLANE_ANGLE_UNIT() SI_UNIT($,.RADIAN.) );
#722 = ( NAMED_UNIT(*) SI_UNIT($,.STERADIAN.) SOLID_ANGLE_UNIT() );
#723 = UNCERTAINTY_MEASURE_WITH_UNIT(LENGTH_MEASURE(1.E-07),#720,
  'distance_accuracy_value','confusion accuracy');
#724 = PRODUCT_RELATED_PRODUCT_CATEGORY('part',$,(#7));
ENDSEC;
END-ISO-10303-21;
