ISO-10303-21;
HEADER;
FILE_DESCRIPTION(('Open CASCADE Model'),'2;1');
FILE_NAME('Open CASCADE Shape Model','2026-09-11T16:14:23',('Author'),(
    'Open CASCADE'),'Open CASCADE STEP processor 7.9','Open CASCADE 7.9'
  ,'Unknown');
FILE_SCHEMA(('AUTOMOTIVE_DESIGN { 1 0 10303 214 1 1 1 1 }'));
ENDSEC;
DATA;
#1 = APPLICATION_PROTOCOL_DEFINITION('international standard',
  'automotive_design',2000,#2);
#2 = APPLICATION_CONTEXT(
  'core data for automotive mechanical design processes');
#3 = SHAPE_DEFINITION_REPRESENTATION(#4,#10);
#4 = PRODUCT_DEFINITION_SHAPE('','',#5);
#5 = PRODUCT_DEFINITION('design','',#6,#9);
#6 = PRODUCT_DEFINITION_FORMATION('','',#7);
#7 = PRODUCT('Open CASCADE STEP translator 7.9 3',
  'Open CASCADE STEP translator 7.9 3','',(#8));
#8 = PRODUCT_CONTEXT('',#2,'mechanical');
#9 = PRODUCT_DEFINITION_CONTEXT('part definition',#2,'design');
#10 = SHAPE_REPRESENTATION('',(#11,#15,#19,#23),#27);
#11 = AXIS2_PLACEMENT_3D('',#12,#13,#14);
#12 = CARTESIAN_POINT('',(0.,0.,0.));
#13 = DIRECTION('',(0.,0.,1.));
#14 = DIRECTION('',(1.,0.,-0.));
#15 = AXIS2_PLACEMENT_3D('',#16,#17,#18);
#16 = CARTESIAN_POINT('',(0.,0.,0.));
#17 = DIRECTION('',(0.,0.,1.));
#18 = DIRECTION('',(1.,0.,-0.));
#19 = AXIS2_PLACEMENT_3D('',#20,#21,#22);
#20 = CARTESIAN_POINT('',(0.,0.,0.));
#21 = DIRECTION('',(0.,0.,1.));
#22 = DIRECTION('',(1.,0.,-0.));
#23 = AXIS2_PLACEMENT_3D('',#24,#25,#26);
#24 = CARTESIAN_POINT('',(0.,0.,0.));
#25 = DIRECTION('',(0.,0.,1.));
#26 = DIRECTION('',(1.,0.,-0.));
#27 = ( GEOMETRIC_REPRESENTATION_CONTEXT(3) 
GLOBAL_UNCERTAINTY_ASSIGNED_CONTEXT((#31)) GLOBAL_UNIT_ASSIGNED_CONTEXT(
(#28,#29,#30)) REPRESENTATION_CONTEXT('Context #1',
  '3D Context with UNIT and UNCERTAINTY') );
#28 = ( LENGTH_UNIT() NAMED_UNIT(*) SI_UNIT(.MILLI.,.METRE.) );
#29 = ( NAMED_UNIT(*) PLANE_ANGLE_UNIT() SI_UNIT($,.RADIAN.) );
#30 = ( NAMED_UNIT(*) SI_UNIT($,.STERADIAN.) SOLID_ANGLE_UNIT() );
#31 = UNCERTAINTY_MEASURE_WITH_UNIT(LENGTH_MEASURE(1.E-07),#28,
  'distance_accuracy_value','confusion accuracy');
#32 = PRODUCT_RELATED_PRODUCT_CATEGORY('part',$,(#7));
#33 = SHAPE_DEFINITION_REPRESENTATION(#34,#40);
#34 = PRODUCT_DEFINITION_SHAPE('','',#35);
#35 = PRODUCT_DEFINITION('design','',#36,#39);
#36 = PRODUCT_DEFINITION_FORMATION('','',#37);
#37 = PRODUCT('Open CASCADE STEP translator 7.9 3.1',
  'Open CASCADE STEP translator 7.9 3.1','',(#38));
#38 = PRODUCT_CONTEXT('',#2,'mechanical');
#39 = PRODUCT_DEFINITION_CONTEXT('part definition',#2,'design');
#40 = ADVANCED_BREP_SHAPE_REPRESENTATION('',(#11,#41),#1256);
#41 = MANIFOLD_SOLID_BREP('',#42);
#42 = CLOSED_SHELL('',(#43,#327,#550,#603,#678,#726,#806,#812,#838,#916,
    #970,#1026,#1058,#1129,#1175,#1222,#1249));
#43 = ADVANCED_FACE('',(#44),#59,.F.);
#44 = FACE_BOUND('',#45,.F.);
#45 = EDGE_LOOP('',(#46,#97,#145,#193,#237,#281));
#46 = ORIENTED_EDGE('',*,*,#47,.T.);
#47 = EDGE_CURVE('',#48,#50,#52,.T.);
#48 = VERTEX_POINT('',#49);
#49 = CARTESIAN_POINT('',(37.792130737918,-0.771267974243,0.));
#50 = VERTEX_POINT('',#51);
#51 = CARTESIAN_POINT('',(37.8,0.,0.));
#52 = SURFACE_CURVE('',#53,(#58,#70),.PCURVE_S1.);
#53 = CIRCLE('',#54,37.8);
#54 = AXIS2_PLACEMENT_3D('',#55,#56,#57);
#55 = CARTESIAN_POINT('',(0.,0.,0.));
#56 = DIRECTION('',(0.,0.,1.));
#57 = DIRECTION('',(1.,0.,0.));
#58 = PCURVE('',#59,#64);
#59 = PLANE('',#60);
#60 = AXIS2_PLACEMENT_3D('',#61,#62,#63);
#61 = CARTESIAN_POINT('',(-1.882068139409E-15,-1.61343992693E-17,0.));
#62 = DIRECTION('',(0.,0.,1.));
#63 = DIRECTION('',(1.,0.,-0.));
#64 = DEFINITIONAL_REPRESENTATION('',(#65),#69);
#65 = CIRCLE('',#66,37.8);
#66 = AXIS2_PLACEMENT_2D('',#67,#68);
#67 = CARTESIAN_POINT('',(1.882068139409E-15,1.61343992693E-17));
#68 = DIRECTION('',(1.,0.));
#69 = ( GEOMETRIC_REPRESENTATION_CONTEXT(2) 
PARAMETRIC_REPRESENTATION_CONTEXT() REPRESENTATION_CONTEXT('2D SPACE',''
  ) );
#70 = PCURVE('',#71,#92);
#71 = B_SPLINE_SURFACE_WITH_KNOTS('',9,1,(
    (#72,#73)
    ,(#74,#75)
    ,(#76,#77)
    ,(#78,#79)
    ,(#80,#81)
    ,(#82,#83)
    ,(#84,#85)
    ,(#86,#87)
    ,(#88,#89)
    ,(#90,#91
    )),.UNSPECIFIED.,.F.,.F.,.F.,(10,10),(2,2),(3.14159265359,
    6.28318530718),(0.,1.),.PIECEWISE_BEZIER_KNOTS.);
#72 = CARTESIAN_POINT('',(37.792130737918,-0.771267974243,0.));
#73 = CARTESIAN_POINT('',(36.75,-0.75,99.));
#74 = CARTESIAN_POINT('',(37.793879402147,-0.685583427015,0.));
#75 = CARTESIAN_POINT('',(37.011799387799,-0.75,99.));
#76 = CARTESIAN_POINT('',(37.795409506102,-0.599894419434,0.));
#77 = CARTESIAN_POINT('',(37.273601492499,-0.647191900061,
    98.999999999999));
#78 = CARTESIAN_POINT('',(37.796721043281,-0.514201588687,0.));
#79 = CARTESIAN_POINT('',(37.48924283384,-0.44157278914,99.000000000004)
  );
#80 = CARTESIAN_POINT('',(37.797814007183,-0.428505571955,0.));
#81 = CARTESIAN_POINT('',(37.612680472816,-0.157317457926,
    98.999999999993));
#82 = CARTESIAN_POINT('',(37.798688391308,-0.342807006425,0.));
#83 = CARTESIAN_POINT('',(37.612680472822,0.157317457926,99.000000000007
    ));
#84 = CARTESIAN_POINT('',(37.799344189153,-0.25710652928,0.));
#85 = CARTESIAN_POINT('',(37.489242833835,0.44157278914,98.999999999994)
  );
#86 = CARTESIAN_POINT('',(37.799781394217,-0.171404777705,0.));
#87 = CARTESIAN_POINT('',(37.2736014925,0.647191900061,99.000000000003)
  );
#88 = CARTESIAN_POINT('',(37.8,-8.570238888347E-02,0.));
#89 = CARTESIAN_POINT('',(37.011799387799,0.75,98.999999999999));
#90 = CARTESIAN_POINT('',(37.8,-9.27036225562E-15,0.));
#91 = CARTESIAN_POINT('',(36.75,0.75,99.));
#92 = DEFINITIONAL_REPRESENTATION('',(#93),#96);
#93 = B_SPLINE_CURVE_WITH_KNOTS('',1,(#94,#95),.UNSPECIFIED.,.F.,.F.,(2,
    2),(6.262779976493,6.28318530718),.PIECEWISE_BEZIER_KNOTS.);
#94 = CARTESIAN_POINT('',(3.14159265359,0.));
#95 = CARTESIAN_POINT('',(6.28318530718,0.));
#96 = ( GEOMETRIC_REPRESENTATION_CONTEXT(2) 
PARAMETRIC_REPRESENTATION_CONTEXT() REPRESENTATION_CONTEXT('2D SPACE',''
  ) );
#97 = ORIENTED_EDGE('',*,*,#98,.T.);
#98 = EDGE_CURVE('',#50,#99,#101,.T.);
#99 = VERTEX_POINT('',#100);
#100 = CARTESIAN_POINT('',(37.799999863132,3.216713912751E-03,0.));
#101 = SURFACE_CURVE('',#102,(#107,#114),.PCURVE_S1.);
#102 = CIRCLE('',#103,37.8);
#103 = AXIS2_PLACEMENT_3D('',#104,#105,#106);
#104 = CARTESIAN_POINT('',(0.,0.,0.));
#105 = DIRECTION('',(0.,0.,1.));
#106 = DIRECTION('',(1.,0.,0.));
#107 = PCURVE('',#59,#108);
#108 = DEFINITIONAL_REPRESENTATION('',(#109),#113);
#109 = CIRCLE('',#110,37.8);
#110 = AXIS2_PLACEMENT_2D('',#111,#112);
#111 = CARTESIAN_POINT('',(1.882068139409E-15,1.61343992693E-17));
#112 = DIRECTION('',(1.,0.));
#113 = ( GEOMETRIC_REPRESENTATION_CONTEXT(2) 
PARAMETRIC_REPRESENTATION_CONTEXT() REPRESENTATION_CONTEXT('2D SPACE',''
  ) );
#114 = PCURVE('',#115,#140);
#115 = B_SPLINE_SURFACE_WITH_KNOTS('',11,1,(
    (#116,#117)
    ,(#118,#119)
    ,(#120,#121)
    ,(#122,#123)
    ,(#124,#125)
    ,(#126,#127)
    ,(#128,#129)
    ,(#130,#131)
    ,(#132,#133)
    ,(#134,#135)
    ,(#136,#137)
    ,(#138,#139
    )),.UNSPECIFIED.,.F.,.F.,.F.,(12,12),(2,2),(-73.5,0.),(0.,1.),
  .PIECEWISE_BEZIER_KNOTS.);
#116 = CARTESIAN_POINT('',(37.8,-7.105427357601E-15,0.));
#117 = CARTESIAN_POINT('',(36.75,0.75,99.));
#118 = CARTESIAN_POINT('',(37.8,10.725534618702,0.));
#119 = CARTESIAN_POINT('',(30.068181818182,0.75,99.));
#120 = CARTESIAN_POINT('',(34.452359659639,21.451068457069,0.));
#121 = CARTESIAN_POINT('',(23.386363636364,0.75,99.));
#122 = CARTESIAN_POINT('',(27.757079789678,31.015652162493,0.));
#123 = CARTESIAN_POINT('',(16.704545454545,0.75,99.));
#124 = CARTESIAN_POINT('',(18.167101192845,38.2582922896,0.));
#125 = CARTESIAN_POINT('',(10.022727272727,0.75,99.));
#126 = CARTESIAN_POINT('',(6.588333853533,42.220109895496,0.));
#127 = CARTESIAN_POINT('',(3.340909090909,0.75,99.));
#128 = CARTESIAN_POINT('',(-5.725506764718,42.345748249928,0.));
#129 = CARTESIAN_POINT('',(-3.340909090909,0.75,99.));
#130 = CARTESIAN_POINT('',(-17.38270020679,38.621007601877,0.));
#131 = CARTESIAN_POINT('',(-10.02272727272,0.75,99.));
#132 = CARTESIAN_POINT('',(-27.11846055823,31.575548363709,0.));
#133 = CARTESIAN_POINT('',(-16.70454545454,0.75,99.));
#134 = CARTESIAN_POINT('',(-34.00750154424,22.149565747081,0.));
#135 = CARTESIAN_POINT('',(-23.38636363636,0.75,99.));
#136 = CARTESIAN_POINT('',(-37.57328784484,11.494569734672,0.));
#137 = CARTESIAN_POINT('',(-30.06818181818,0.75,99.));
#138 = CARTESIAN_POINT('',(-37.79213073791,0.771267974243,0.));
#139 = CARTESIAN_POINT('',(-36.75,0.75,99.));
#140 = DEFINITIONAL_REPRESENTATION('',(#141),#144);
#141 = B_SPLINE_CURVE_WITH_KNOTS('',1,(#142,#143),.UNSPECIFIED.,.F.,.F.,
  (2,2),(0.,3.121187322903),.PIECEWISE_BEZIER_KNOTS.);
#142 = CARTESIAN_POINT('',(-73.5,0.));
#143 = CARTESIAN_POINT('',(0.,0.));
#144 = ( GEOMETRIC_REPRESENTATION_CONTEXT(2) 
PARAMETRIC_REPRESENTATION_CONTEXT() REPRESENTATION_CONTEXT('2D SPACE',''
  ) );
#145 = ORIENTED_EDGE('',*,*,#146,.T.);
#146 = EDGE_CURVE('',#99,#147,#149,.T.);
#147 = VERTEX_POINT('',#148);
#148 = CARTESIAN_POINT('',(-37.79213073791,0.771267974243,0.));
#149 = SURFACE_CURVE('',#150,(#155,#162),.PCURVE_S1.);
#150 = CIRCLE('',#151,37.8);
#151 = AXIS2_PLACEMENT_3D('',#152,#153,#154);
#152 = CARTESIAN_POINT('',(0.,0.,0.));
#153 = DIRECTION('',(0.,0.,1.));
#154 = DIRECTION('',(1.,0.,0.));
#155 = PCURVE('',#59,#156);
#156 = DEFINITIONAL_REPRESENTATION('',(#157),#161);
#157 = CIRCLE('',#158,37.8);
#158 = AXIS2_PLACEMENT_2D('',#159,#160);
#159 = CARTESIAN_POINT('',(1.882068139409E-15,1.61343992693E-17));
#160 = DIRECTION('',(1.,0.));
#161 = ( GEOMETRIC_REPRESENTATION_CONTEXT(2) 
PARAMETRIC_REPRESENTATION_CONTEXT() REPRESENTATION_CONTEXT('2D SPACE',''
  ) );
#162 = PCURVE('',#163,#188);
#163 = B_SPLINE_SURFACE_WITH_KNOTS('',11,1,(
    (#164,#165)
    ,(#166,#167)
    ,(#168,#169)
    ,(#170,#171)
    ,(#172,#173)
    ,(#174,#175)
    ,(#176,#177)
    ,(#178,#179)
    ,(#180,#181)
    ,(#182,#183)
    ,(#184,#185)
    ,(#186,#187
    )),.UNSPECIFIED.,.F.,.F.,.F.,(12,12),(2,2),(-73.5,0.),(0.,1.),
  .PIECEWISE_BEZIER_KNOTS.);
#164 = CARTESIAN_POINT('',(37.8,-7.105427357601E-15,0.));
#165 = CARTESIAN_POINT('',(36.75,0.75,99.));
#166 = CARTESIAN_POINT('',(37.8,10.725534618702,0.));
#167 = CARTESIAN_POINT('',(30.068181818182,0.75,99.));
#168 = CARTESIAN_POINT('',(34.452359659639,21.451068457069,0.));
#169 = CARTESIAN_POINT('',(23.386363636364,0.75,99.));
#170 = CARTESIAN_POINT('',(27.757079789678,31.015652162493,0.));
#171 = CARTESIAN_POINT('',(16.704545454545,0.75,99.));
#172 = CARTESIAN_POINT('',(18.167101192845,38.2582922896,0.));
#173 = CARTESIAN_POINT('',(10.022727272727,0.75,99.));
#174 = CARTESIAN_POINT('',(6.588333853533,42.220109895496,0.));
#175 = CARTESIAN_POINT('',(3.340909090909,0.75,99.));
#176 = CARTESIAN_POINT('',(-5.725506764718,42.345748249928,0.));
#177 = CARTESIAN_POINT('',(-3.340909090909,0.75,99.));
#178 = CARTESIAN_POINT('',(-17.38270020679,38.621007601877,0.));
#179 = CARTESIAN_POINT('',(-10.02272727272,0.75,99.));
#180 = CARTESIAN_POINT('',(-27.11846055823,31.575548363709,0.));
#181 = CARTESIAN_POINT('',(-16.70454545454,0.75,99.));
#182 = CARTESIAN_POINT('',(-34.00750154424,22.149565747081,0.));
#183 = CARTESIAN_POINT('',(-23.38636363636,0.75,99.));
#184 = CARTESIAN_POINT('',(-37.57328784484,11.494569734672,0.));
#185 = CARTESIAN_POINT('',(-30.06818181818,0.75,99.));
#186 = CARTESIAN_POINT('',(-37.79213073791,0.771267974243,0.));
#187 = CARTESIAN_POINT('',(-36.75,0.75,99.));
#188 = DEFINITIONAL_REPRESENTATION('',(#189),#192);
#189 = B_SPLINE_CURVE_WITH_KNOTS('',1,(#190,#191),.UNSPECIFIED.,.F.,.F.,
  (2,2),(0.,3.121187322903),.PIECEWISE_BEZIER_KNOTS.);
#190 = CARTESIAN_POINT('',(-73.5,0.));
#191 = CARTESIAN_POINT('',(0.,0.));
#192 = ( GEOMETRIC_REPRESENTATION_CONTEXT(2) 
PARAMETRIC_REPRESENTATION_CONTEXT() REPRESENTATION_CONTEXT('2D SPACE',''
  ) );
#193 = ORIENTED_EDGE('',*,*,#194,.T.);
#194 = EDGE_CURVE('',#147,#195,#197,.T.);
#195 = VERTEX_POINT('',#196);
#196 = CARTESIAN_POINT('',(-37.79999986313,3.216713912749E-03,0.));
#197 = SURFACE_CURVE('',#198,(#203,#210),.PCURVE_S1.);
#198 = CIRCLE('',#199,37.8);
#199 = AXIS2_PLACEMENT_3D('',#200,#201,#202);
#200 = CARTESIAN_POINT('',(0.,0.,0.));
#201 = DIRECTION('',(0.,0.,1.));
#202 = DIRECTION('',(1.,0.,0.));
#203 = PCURVE('',#59,#204);
#204 = DEFINITIONAL_REPRESENTATION('',(#205),#209);
#205 = CIRCLE('',#206,37.8);
#206 = AXIS2_PLACEMENT_2D('',#207,#208);
#207 = CARTESIAN_POINT('',(1.882068139409E-15,1.61343992693E-17));
#208 = DIRECTION('',(1.,0.));
#209 = ( GEOMETRIC_REPRESENTATION_CONTEXT(2) 
PARAMETRIC_REPRESENTATION_CONTEXT() REPRESENTATION_CONTEXT('2D SPACE',''
  ) );
#210 = PCURVE('',#211,#232);
#211 = B_SPLINE_SURFACE_WITH_KNOTS('',9,1,(
    (#212,#213)
    ,(#214,#215)
    ,(#216,#217)
    ,(#218,#219)
    ,(#220,#221)
    ,(#222,#223)
    ,(#224,#225)
    ,(#226,#227)
    ,(#228,#229)
    ,(#230,#231
    )),.UNSPECIFIED.,.F.,.F.,.F.,(10,10),(2,2),(3.14159265359,
    6.28318530718),(0.,1.),.PIECEWISE_BEZIER_KNOTS.);
#212 = CARTESIAN_POINT('',(-37.79213073791,0.771267974243,0.));
#213 = CARTESIAN_POINT('',(-36.75,0.75,99.));
#214 = CARTESIAN_POINT('',(-37.79562806637,0.599898879786,0.));
#215 = CARTESIAN_POINT('',(-37.01179938779,0.75,99.));
#216 = CARTESIAN_POINT('',(-37.79825118407,0.428511943798,0.));
#217 = CARTESIAN_POINT('',(-37.27360149249,0.647191900061,
    98.999999999999));
#218 = CARTESIAN_POINT('',(-37.79999998699,0.257112263859,0.));
#219 = CARTESIAN_POINT('',(-37.48924283384,0.44157278914,99.000000000004
    ));
#220 = CARTESIAN_POINT('',(-37.80087440579,8.570493754982E-02,0.));
#221 = CARTESIAN_POINT('',(-37.61268047281,0.157317457926,
    98.999999999993));
#222 = CARTESIAN_POINT('',(-37.80087440579,-8.570493754981E-02,0.));
#223 = CARTESIAN_POINT('',(-37.61268047282,-0.157317457926,
    99.000000000007));
#224 = CARTESIAN_POINT('',(-37.79999998699,-0.257112263859,0.));
#225 = CARTESIAN_POINT('',(-37.48924283383,-0.44157278914,
    98.999999999994));
#226 = CARTESIAN_POINT('',(-37.79825118407,-0.428511943798,0.));
#227 = CARTESIAN_POINT('',(-37.2736014925,-0.647191900061,
    99.000000000003));
#228 = CARTESIAN_POINT('',(-37.79562806637,-0.599898879786,0.));
#229 = CARTESIAN_POINT('',(-37.01179938779,-0.75,98.999999999999));
#230 = CARTESIAN_POINT('',(-37.79213073791,-0.771267974243,0.));
#231 = CARTESIAN_POINT('',(-36.75,-0.75,99.));
#232 = DEFINITIONAL_REPRESENTATION('',(#233),#236);
#233 = B_SPLINE_CURVE_WITH_KNOTS('',1,(#234,#235),.UNSPECIFIED.,.F.,.F.,
  (2,2),(3.121187322903,3.161997984276),.PIECEWISE_BEZIER_KNOTS.);
#234 = CARTESIAN_POINT('',(3.14159265359,0.));
#235 = CARTESIAN_POINT('',(6.28318530718,0.));
#236 = ( GEOMETRIC_REPRESENTATION_CONTEXT(2) 
PARAMETRIC_REPRESENTATION_CONTEXT() REPRESENTATION_CONTEXT('2D SPACE',''
  ) );
#237 = ORIENTED_EDGE('',*,*,#238,.T.);
#238 = EDGE_CURVE('',#195,#239,#241,.T.);
#239 = VERTEX_POINT('',#240);
#240 = CARTESIAN_POINT('',(-37.79213073791,-0.771267974243,0.));
#241 = SURFACE_CURVE('',#242,(#247,#254),.PCURVE_S1.);
#242 = CIRCLE('',#243,37.8);
#243 = AXIS2_PLACEMENT_3D('',#244,#245,#246);
#244 = CARTESIAN_POINT('',(0.,0.,0.));
#245 = DIRECTION('',(0.,0.,1.));
#246 = DIRECTION('',(1.,0.,0.));
#247 = PCURVE('',#59,#248);
#248 = DEFINITIONAL_REPRESENTATION('',(#249),#253);
#249 = CIRCLE('',#250,37.8);
#250 = AXIS2_PLACEMENT_2D('',#251,#252);
#251 = CARTESIAN_POINT('',(1.882068139409E-15,1.61343992693E-17));
#252 = DIRECTION('',(1.,0.));
#253 = ( GEOMETRIC_REPRESENTATION_CONTEXT(2) 
PARAMETRIC_REPRESENTATION_CONTEXT() REPRESENTATION_CONTEXT('2D SPACE',''
  ) );
#254 = PCURVE('',#255,#276);
#255 = B_SPLINE_SURFACE_WITH_KNOTS('',9,1,(
    (#256,#257)
    ,(#258,#259)
    ,(#260,#261)
    ,(#262,#263)
    ,(#264,#265)
    ,(#266,#267)
    ,(#268,#269)
    ,(#270,#271)
    ,(#272,#273)
    ,(#274,#275
    )),.UNSPECIFIED.,.F.,.F.,.F.,(10,10),(2,2),(3.14159265359,
    6.28318530718),(0.,1.),.PIECEWISE_BEZIER_KNOTS.);
#256 = CARTESIAN_POINT('',(-37.79213073791,0.771267974243,0.));
#257 = CARTESIAN_POINT('',(-36.75,0.75,99.));
#258 = CARTESIAN_POINT('',(-37.79562806637,0.599898879786,0.));
#259 = CARTESIAN_POINT('',(-37.01179938779,0.75,99.));
#260 = CARTESIAN_POINT('',(-37.79825118407,0.428511943798,0.));
#261 = CARTESIAN_POINT('',(-37.27360149249,0.647191900061,
    98.999999999999));
#262 = CARTESIAN_POINT('',(-37.79999998699,0.257112263859,0.));
#263 = CARTESIAN_POINT('',(-37.48924283384,0.44157278914,99.000000000004
    ));
#264 = CARTESIAN_POINT('',(-37.80087440579,8.570493754982E-02,0.));
#265 = CARTESIAN_POINT('',(-37.61268047281,0.157317457926,
    98.999999999993));
#266 = CARTESIAN_POINT('',(-37.80087440579,-8.570493754981E-02,0.));
#267 = CARTESIAN_POINT('',(-37.61268047282,-0.157317457926,
    99.000000000007));
#268 = CARTESIAN_POINT('',(-37.79999998699,-0.257112263859,0.));
#269 = CARTESIAN_POINT('',(-37.48924283383,-0.44157278914,
    98.999999999994));
#270 = CARTESIAN_POINT('',(-37.79825118407,-0.428511943798,0.));
#271 = CARTESIAN_POINT('',(-37.2736014925,-0.647191900061,
    99.000000000003));
#272 = CARTESIAN_POINT('',(-37.79562806637,-0.599898879786,0.));
#273 = CARTESIAN_POINT('',(-37.01179938779,-0.75,98.999999999999));
#274 = CARTESIAN_POINT('',(-37.79213073791,-0.771267974243,0.));
#275 = CARTESIAN_POINT('',(-36.75,-0.75,99.));
#276 = DEFINITIONAL_REPRESENTATION('',(#277),#280);
#277 = B_SPLINE_CURVE_WITH_KNOTS('',1,(#278,#279),.UNSPECIFIED.,.F.,.F.,
  (2,2),(3.121187322903,3.161997984276),.PIECEWISE_BEZIER_KNOTS.);
#278 = CARTESIAN_POINT('',(3.14159265359,0.));
#279 = CARTESIAN_POINT('',(6.28318530718,0.));
#280 = ( GEOMETRIC_REPRESENTATION_CONTEXT(2) 
PARAMETRIC_REPRESENTATION_CONTEXT() REPRESENTATION_CONTEXT('2D SPACE',''
  ) );
#281 = ORIENTED_EDGE('',*,*,#282,.T.);
#282 = EDGE_CURVE('',#239,#48,#283,.T.);
#283 = SURFACE_CURVE('',#284,(#289,#296),.PCURVE_S1.);
#284 = CIRCLE('',#285,37.8);
#285 = AXIS2_PLACEMENT_3D('',#286,#287,#288);
#286 = CARTESIAN_POINT('',(0.,0.,0.));
#287 = DIRECTION('',(0.,0.,1.));
#288 = DIRECTION('',(1.,0.,0.));
#289 = PCURVE('',#59,#290);
#290 = DEFINITIONAL_REPRESENTATION('',(#291),#295);
#291 = CIRCLE('',#292,37.8);
#292 = AXIS2_PLACEMENT_2D('',#293,#294);
#293 = CARTESIAN_POINT('',(1.882068139409E-15,1.61343992693E-17));
#294 = DIRECTION('',(1.,0.));
#295 = ( GEOMETRIC_REPRESENTATION_CONTEXT(2) 
PARAMETRIC_REPRESENTATION_CONTEXT() REPRESENTATION_CONTEXT('2D SPACE',''
  ) );
#296 = PCURVE('',#297,#322);
#297 = B_SPLINE_SURFACE_WITH_KNOTS('',11,1,(
    (#298,#299)
    ,(#300,#301)
    ,(#302,#303)
    ,(#304,#305)
    ,(#306,#307)
    ,(#308,#309)
    ,(#310,#311)
    ,(#312,#313)
    ,(#314,#315)
    ,(#316,#317)
    ,(#318,#319)
    ,(#320,#321
    )),.UNSPECIFIED.,.F.,.F.,.F.,(12,12),(2,2),(-73.5,0.),(0.,1.),
  .PIECEWISE_BEZIER_KNOTS.);
#298 = CARTESIAN_POINT('',(-37.79213073791,-0.771267974243,0.));
#299 = CARTESIAN_POINT('',(-36.75,-0.75,99.));
#300 = CARTESIAN_POINT('',(-37.57471857012,-11.42446419602,0.));
#301 = CARTESIAN_POINT('',(-30.06818181818,-0.75,99.));
#302 = CARTESIAN_POINT('',(-34.05398244305,-22.01024492189,0.));
#303 = CARTESIAN_POINT('',(-23.38636363636,-0.75,99.));
#304 = CARTESIAN_POINT('',(-27.25314953237,-31.390518583,0.));
#305 = CARTESIAN_POINT('',(-16.70454545454,-0.75,99.));
#306 = CARTESIAN_POINT('',(-17.63656680973,-38.43615531257,0.));
#307 = CARTESIAN_POINT('',(-10.02272727272,-0.75,99.));
#308 = CARTESIAN_POINT('',(-6.105738169345,-42.22257429826,0.));
#309 = CARTESIAN_POINT('',(-3.340909090909,-0.75,99.));
#310 = CARTESIAN_POINT('',(6.105738169345,-42.22257429824,0.));
#311 = CARTESIAN_POINT('',(3.340909090909,-0.75,99.));
#312 = CARTESIAN_POINT('',(17.636566809734,-38.43615531259,0.));
#313 = CARTESIAN_POINT('',(10.022727272727,-0.75,99.));
#314 = CARTESIAN_POINT('',(27.253149532378,-31.39051858299,0.));
#315 = CARTESIAN_POINT('',(16.704545454545,-0.75,99.));
#316 = CARTESIAN_POINT('',(34.053982443054,-22.01024492189,0.));
#317 = CARTESIAN_POINT('',(23.386363636364,-0.75,99.));
#318 = CARTESIAN_POINT('',(37.574718570127,-11.42446419602,0.));
#319 = CARTESIAN_POINT('',(30.068181818182,-0.75,99.));
#320 = CARTESIAN_POINT('',(37.792130737918,-0.771267974243,0.));
#321 = CARTESIAN_POINT('',(36.75,-0.75,99.));
#322 = DEFINITIONAL_REPRESENTATION('',(#323),#326);
#323 = B_SPLINE_CURVE_WITH_KNOTS('',1,(#324,#325),.UNSPECIFIED.,.F.,.F.,
  (2,2),(3.161997984276,6.262779976493),.PIECEWISE_BEZIER_KNOTS.);
#324 = CARTESIAN_POINT('',(-73.5,0.));
#325 = CARTESIAN_POINT('',(0.,0.));
#326 = ( GEOMETRIC_REPRESENTATION_CONTEXT(2) 
PARAMETRIC_REPRESENTATION_CONTEXT() REPRESENTATION_CONTEXT('2D SPACE',''
  ) );
#327 = ADVANCED_FACE('',(#328),#71,.T.);
#328 = FACE_BOUND('',#329,.T.);
#329 = EDGE_LOOP('',(#330,#352,#353,#375,#524));
#330 = ORIENTED_EDGE('',*,*,#331,.F.);
#331 = EDGE_CURVE('',#48,#332,#334,.T.);
#332 = VERTEX_POINT('',#333);
#333 = CARTESIAN_POINT('',(36.75,-0.75,99.));
#334 = SURFACE_CURVE('',#335,(#338,#345),.PCURVE_S1.);
#335 = B_SPLINE_CURVE_WITH_KNOTS('',1,(#336,#337),.UNSPECIFIED.,.F.,.F.,
  (2,2),(0.,1.),.PIECEWISE_BEZIER_KNOTS.);
#336 = CARTESIAN_POINT('',(37.792130737918,-0.771267974243,0.));
#337 = CARTESIAN_POINT('',(36.75,-0.75,99.));
#338 = PCURVE('',#71,#339);
#339 = DEFINITIONAL_REPRESENTATION('',(#340),#344);
#340 = LINE('',#341,#342);
#341 = CARTESIAN_POINT('',(3.14159265359,0.));
#342 = VECTOR('',#343,1.);
#343 = DIRECTION('',(0.,1.));
#344 = ( GEOMETRIC_REPRESENTATION_CONTEXT(2) 
PARAMETRIC_REPRESENTATION_CONTEXT() REPRESENTATION_CONTEXT('2D SPACE',''
  ) );
#345 = PCURVE('',#297,#346);
#346 = DEFINITIONAL_REPRESENTATION('',(#347),#351);
#347 = LINE('',#348,#349);
#348 = CARTESIAN_POINT('',(0.,0.));
#349 = VECTOR('',#350,1.);
#350 = DIRECTION('',(0.,1.));
#351 = ( GEOMETRIC_REPRESENTATION_CONTEXT(2) 
PARAMETRIC_REPRESENTATION_CONTEXT() REPRESENTATION_CONTEXT('2D SPACE',''
  ) );
#352 = ORIENTED_EDGE('',*,*,#47,.T.);
#353 = ORIENTED_EDGE('',*,*,#354,.T.);
#354 = EDGE_CURVE('',#50,#355,#357,.T.);
#355 = VERTEX_POINT('',#356);
#356 = CARTESIAN_POINT('',(37.795496600522,3.216713912751E-03,
    0.424606236484));
#357 = SURFACE_CURVE('',#358,(#361,#368),.PCURVE_S1.);
#358 = B_SPLINE_CURVE_WITH_KNOTS('',1,(#359,#360),.UNSPECIFIED.,.F.,.F.,
  (2,2),(0.,1.),.PIECEWISE_BEZIER_KNOTS.);
#359 = CARTESIAN_POINT('',(37.8,-7.105427357601E-15,0.));
#360 = CARTESIAN_POINT('',(36.75,0.75,99.));
#361 = PCURVE('',#71,#362);
#362 = DEFINITIONAL_REPRESENTATION('',(#363),#367);
#363 = LINE('',#364,#365);
#364 = CARTESIAN_POINT('',(6.28318530718,0.));
#365 = VECTOR('',#366,1.);
#366 = DIRECTION('',(0.,1.));
#367 = ( GEOMETRIC_REPRESENTATION_CONTEXT(2) 
PARAMETRIC_REPRESENTATION_CONTEXT() REPRESENTATION_CONTEXT('2D SPACE',''
  ) );
#368 = PCURVE('',#115,#369);
#369 = DEFINITIONAL_REPRESENTATION('',(#370),#374);
#370 = LINE('',#371,#372);
#371 = CARTESIAN_POINT('',(-73.5,0.));
#372 = VECTOR('',#373,1.);
#373 = DIRECTION('',(0.,1.));
#374 = ( GEOMETRIC_REPRESENTATION_CONTEXT(2) 
PARAMETRIC_REPRESENTATION_CONTEXT() REPRESENTATION_CONTEXT('2D SPACE',''
  ) );
#375 = ORIENTED_EDGE('',*,*,#376,.T.);
#376 = EDGE_CURVE('',#355,#377,#379,.T.);
#377 = VERTEX_POINT('',#378);
#378 = CARTESIAN_POINT('',(37.499993101803,3.216713912751E-03,99.));
#379 = SURFACE_CURVE('',#380,(#419,#461),.PCURVE_S1.);
#380 = B_SPLINE_CURVE_WITH_KNOTS('',7,(#381,#382,#383,#384,#385,#386,
    #387,#388,#389,#390,#391,#392,#393,#394,#395,#396,#397,#398,#399,
    #400,#401,#402,#403,#404,#405,#406,#407,#408,#409,#410,#411,#412,
    #413,#414,#415,#416,#417,#418),.UNSPECIFIED.,.F.,.F.,(8,6,6,6,6,6,8)
  ,(0.,7.444463539427E-02,0.19473740372,0.376729374166,0.55863294258,
    0.969467266241,1.),.UNSPECIFIED.);
#381 = CARTESIAN_POINT('',(37.795496600522,3.216713912751E-03,
    0.424606236484));
#382 = CARTESIAN_POINT('',(37.784486232802,3.216713912751E-03,
    1.472576124453));
#383 = CARTESIAN_POINT('',(37.774078252353,3.216713912751E-03,
    2.520527814157));
#384 = CARTESIAN_POINT('',(37.764298146723,3.216713912751E-03,
    3.568464673152));
#385 = CARTESIAN_POINT('',(37.755161014797,3.216713912751E-03,
    4.616391443341));
#386 = CARTESIAN_POINT('',(37.746666482676,3.216713912751E-03,
    5.664313788188));
#387 = CARTESIAN_POINT('',(37.738798259306,3.216713912751E-03,
    6.712237707624));
#388 = CARTESIAN_POINT('',(37.719781082469,3.216713912751E-03,
    9.453488076345));
#389 = CARTESIAN_POINT('',(37.709595891579,3.216713912751E-03,
    11.14682603285));
#390 = CARTESIAN_POINT('',(37.700855424893,3.216713912751E-03,
    12.840205670887));
#391 = CARTESIAN_POINT('',(37.693358080667,3.216713912751E-03,
    14.533645750873));
#392 = CARTESIAN_POINT('',(37.686875443827,3.216713912751E-03,
    16.227154096293));
#393 = CARTESIAN_POINT('',(37.68121273103,3.216713912751E-03,
    17.920731107828));
#394 = CARTESIAN_POINT('',(37.668623150032,3.216713912751E-03,
    22.176696158487));
#395 = CARTESIAN_POINT('',(37.662538157324,3.216713912751E-03,
    24.739168149203));
#396 = CARTESIAN_POINT('',(37.657369123469,3.216713912751E-03,
    27.30177566164));
#397 = CARTESIAN_POINT('',(37.652712013809,3.216713912751E-03,
    29.864494001434));
#398 = CARTESIAN_POINT('',(37.648340621158,3.216713912751E-03,
    32.427300987111));
#399 = CARTESIAN_POINT('',(37.64409305003,3.216713912751E-03,
    34.990178229651));
#400 = CARTESIAN_POINT('',(37.635642364291,3.216713912751E-03,
    40.114800560927));
#401 = CARTESIAN_POINT('',(37.631438885845,3.216713912751E-03,
    42.676546319639));
#402 = CARTESIAN_POINT('',(37.627152687144,3.216713912751E-03,
    45.238337133044));
#403 = CARTESIAN_POINT('',(37.622729867682,3.216713912751E-03,
    47.8001633524));
#404 = CARTESIAN_POINT('',(37.618140714134,3.216713912751E-03,
    50.362017691611));
#405 = CARTESIAN_POINT('',(37.613366381798,3.216713912751E-03,
    52.923895090678));
#406 = CARTESIAN_POINT('',(37.597175883693,3.216713912751E-03,
    61.271909627469));
#407 = CARTESIAN_POINT('',(37.584961951229,3.216713912751E-03,
    67.058122000603));
#408 = CARTESIAN_POINT('',(37.571648184461,3.216713912751E-03,
    72.844393205691));
#409 = CARTESIAN_POINT('',(37.557321346263,3.216713912751E-03,
    78.630701117722));
#410 = CARTESIAN_POINT('',(37.542039039641,3.216713912751E-03,
    84.417032128806));
#411 = CARTESIAN_POINT('',(37.525881059143,3.216713912751E-03,
    90.203380258518));
#412 = CARTESIAN_POINT('',(37.507652169882,3.216713912751E-03,
    96.419782179988));
#413 = CARTESIAN_POINT('',(37.506386666691,3.216713912751E-03,
    96.849818303643));
#414 = CARTESIAN_POINT('',(37.505116719802,3.216713912751E-03,
    97.279854501635));
#415 = CARTESIAN_POINT('',(37.503842356905,3.216713912751E-03,
    97.709890772066));
#416 = CARTESIAN_POINT('',(37.502563605517,3.216713912751E-03,
    98.139927113105));
#417 = CARTESIAN_POINT('',(37.501280492988,3.216713912751E-03,
    98.569963522984));
#418 = CARTESIAN_POINT('',(37.4999930465,3.216713912751E-03,99.));
#419 = PCURVE('',#71,#420);
#420 = DEFINITIONAL_REPRESENTATION('',(#421),#460);
#421 = B_SPLINE_CURVE_WITH_KNOTS('',7,(#422,#423,#424,#425,#426,#427,
    #428,#429,#430,#431,#432,#433,#434,#435,#436,#437,#438,#439,#440,
    #441,#442,#443,#444,#445,#446,#447,#448,#449,#450,#451,#452,#453,
    #454,#455,#456,#457,#458,#459),.UNSPECIFIED.,.F.,.F.,(8,6,6,6,6,6,8)
  ,(0.,7.444463539427E-02,0.19473740372,0.376729374166,0.55863294258,
    0.969467266241,1.),.UNSPECIFIED.);
#422 = CARTESIAN_POINT('',(6.28318530718,4.28895188368E-03));
#423 = CARTESIAN_POINT('',(6.250709797006,1.487450630761E-02));
#424 = CARTESIAN_POINT('',(6.21744557306,2.545987691068E-02));
#425 = CARTESIAN_POINT('',(6.183525931298,3.604509770861E-02));
#426 = CARTESIAN_POINT('',(6.149120208428,4.66302165994E-02));
#427 = CARTESIAN_POINT('',(6.114421607825,5.721529078978E-02));
#428 = CARTESIAN_POINT('',(6.079629603808,6.780038088509E-02));
#429 = CARTESIAN_POINT('',(5.98885194505,9.548977854894E-02));
#430 = CARTESIAN_POINT('',(5.933010724573,0.112594202352));
#431 = CARTESIAN_POINT('',(5.878175818595,0.129699047181));
#432 = CARTESIAN_POINT('',(5.825030734921,0.146804502534));
#433 = CARTESIAN_POINT('',(5.77395167175,0.163910647437));
#434 = CARTESIAN_POINT('',(5.725114306725,0.181017485938));
#435 = CARTESIAN_POINT('',(5.608146931779,0.224007031904));
#436 = CARTESIAN_POINT('',(5.542969015149,0.249890587366));
#437 = CARTESIAN_POINT('',(5.483204952483,0.275775511734));
#438 = CARTESIAN_POINT('',(5.428342744793,0.30166155557));
#439 = CARTESIAN_POINT('',(5.37784971102,0.327548494819));
#440 = CARTESIAN_POINT('',(5.331222311046,0.353436143734));
#441 = CARTESIAN_POINT('',(5.244832386812,0.405200005666));
#442 = CARTESIAN_POINT('',(5.205066841876,0.431076225451));
#443 = CARTESIAN_POINT('',(5.168275287732,0.456952900334));
#444 = CARTESIAN_POINT('',(5.134077994546,0.482829932853));
#445 = CARTESIAN_POINT('',(5.102161212276,0.50870724941));
#446 = CARTESIAN_POINT('',(5.072268105382,0.534584798896));
#447 = CARTESIAN_POINT('',(4.980741720974,0.618908178055));
#448 = CARTESIAN_POINT('',(4.926511109839,0.677354767683));
#449 = CARTESIAN_POINT('',(4.878980141188,0.735801951573));
#450 = CARTESIAN_POINT('',(4.836719326568,0.794249506239));
#451 = CARTESIAN_POINT('',(4.798713229686,0.85269729423));
#452 = CARTESIAN_POINT('',(4.764235289529,0.911145255137));
#453 = CARTESIAN_POINT('',(4.730389192199,0.973937193737));
#454 = CARTESIAN_POINT('',(4.728064221807,0.978280992966));
#455 = CARTESIAN_POINT('',(4.725755447295,0.982624792946));
#456 = CARTESIAN_POINT('',(4.723462646713,0.986968593657));
#457 = CARTESIAN_POINT('',(4.721185603214,0.991312395082));
#458 = CARTESIAN_POINT('',(4.718924105047,0.995656197202));
#459 = CARTESIAN_POINT('',(4.716677945562,1.));
#460 = ( GEOMETRIC_REPRESENTATION_CONTEXT(2) 
PARAMETRIC_REPRESENTATION_CONTEXT() REPRESENTATION_CONTEXT('2D SPACE',''
  ) );
#461 = PCURVE('',#462,#483);
#462 = B_SPLINE_SURFACE_WITH_KNOTS('',9,1,(
    (#463,#464)
    ,(#465,#466)
    ,(#467,#468)
    ,(#469,#470)
    ,(#471,#472)
    ,(#473,#474)
    ,(#475,#476)
    ,(#477,#478)
    ,(#479,#480)
    ,(#481,#482
    )),.UNSPECIFIED.,.F.,.F.,.F.,(10,10),(2,2),(3.14159265359,
    6.28318530718),(0.,1.),.PIECEWISE_BEZIER_KNOTS.);
#463 = CARTESIAN_POINT('',(37.792130737918,-0.771267974243,0.));
#464 = CARTESIAN_POINT('',(36.75,-0.75,99.));
#465 = CARTESIAN_POINT('',(37.793879402147,-0.685583427015,0.));
#466 = CARTESIAN_POINT('',(37.011799387799,-0.75,99.));
#467 = CARTESIAN_POINT('',(37.795409506102,-0.599894419434,0.));
#468 = CARTESIAN_POINT('',(37.273601492499,-0.647191900061,
    98.999999999999));
#469 = CARTESIAN_POINT('',(37.796721043281,-0.514201588687,0.));
#470 = CARTESIAN_POINT('',(37.48924283384,-0.44157278914,99.000000000004
    ));
#471 = CARTESIAN_POINT('',(37.797814007183,-0.428505571955,0.));
#472 = CARTESIAN_POINT('',(37.612680472816,-0.157317457926,
    98.999999999993));
#473 = CARTESIAN_POINT('',(37.798688391308,-0.342807006425,0.));
#474 = CARTESIAN_POINT('',(37.612680472822,0.157317457926,
    99.000000000007));
#475 = CARTESIAN_POINT('',(37.799344189153,-0.25710652928,0.));
#476 = CARTESIAN_POINT('',(37.489242833835,0.44157278914,98.999999999994
    ));
#477 = CARTESIAN_POINT('',(37.799781394217,-0.171404777705,0.));
#478 = CARTESIAN_POINT('',(37.2736014925,0.647191900061,99.000000000003)
  );
#479 = CARTESIAN_POINT('',(37.8,-8.570238888347E-02,0.));
#480 = CARTESIAN_POINT('',(37.011799387799,0.75,98.999999999999));
#481 = CARTESIAN_POINT('',(37.8,-9.27036225562E-15,0.));
#482 = CARTESIAN_POINT('',(36.75,0.75,99.));
#483 = DEFINITIONAL_REPRESENTATION('',(#484),#523);
#484 = B_SPLINE_CURVE_WITH_KNOTS('',7,(#485,#486,#487,#488,#489,#490,
    #491,#492,#493,#494,#495,#496,#497,#498,#499,#500,#501,#502,#503,
    #504,#505,#506,#507,#508,#509,#510,#511,#512,#513,#514,#515,#516,
    #517,#518,#519,#520,#521,#522),.UNSPECIFIED.,.F.,.F.,(8,6,6,6,6,6,8)
  ,(0.,7.444463539427E-02,0.19473740372,0.376729374166,0.55863294258,
    0.969467266241,1.),.UNSPECIFIED.);
#485 = CARTESIAN_POINT('',(6.28318530718,4.28895188368E-03));
#486 = CARTESIAN_POINT('',(6.250709797006,1.487450630761E-02));
#487 = CARTESIAN_POINT('',(6.21744557306,2.545987691068E-02));
#488 = CARTESIAN_POINT('',(6.183525931298,3.604509770861E-02));
#489 = CARTESIAN_POINT('',(6.149120208428,4.66302165994E-02));
#490 = CARTESIAN_POINT('',(6.114421607825,5.721529078978E-02));
#491 = CARTESIAN_POINT('',(6.079629603808,6.780038088509E-02));
#492 = CARTESIAN_POINT('',(5.98885194505,9.548977854894E-02));
#493 = CARTESIAN_POINT('',(5.933010724573,0.112594202352));
#494 = CARTESIAN_POINT('',(5.878175818595,0.129699047181));
#495 = CARTESIAN_POINT('',(5.825030734921,0.146804502534));
#496 = CARTESIAN_POINT('',(5.77395167175,0.163910647437));
#497 = CARTESIAN_POINT('',(5.725114306725,0.181017485938));
#498 = CARTESIAN_POINT('',(5.608146931779,0.224007031904));
#499 = CARTESIAN_POINT('',(5.542969015149,0.249890587366));
#500 = CARTESIAN_POINT('',(5.483204952483,0.275775511734));
#501 = CARTESIAN_POINT('',(5.428342744793,0.30166155557));
#502 = CARTESIAN_POINT('',(5.37784971102,0.327548494819));
#503 = CARTESIAN_POINT('',(5.331222311046,0.353436143734));
#504 = CARTESIAN_POINT('',(5.244832386812,0.405200005666));
#505 = CARTESIAN_POINT('',(5.205066841876,0.431076225451));
#506 = CARTESIAN_POINT('',(5.168275287732,0.456952900334));
#507 = CARTESIAN_POINT('',(5.134077994546,0.482829932853));
#508 = CARTESIAN_POINT('',(5.102161212276,0.50870724941));
#509 = CARTESIAN_POINT('',(5.072268105382,0.534584798896));
#510 = CARTESIAN_POINT('',(4.980741720974,0.618908178055));
#511 = CARTESIAN_POINT('',(4.926511109839,0.677354767683));
#512 = CARTESIAN_POINT('',(4.878980141188,0.735801951573));
#513 = CARTESIAN_POINT('',(4.836719326568,0.794249506239));
#514 = CARTESIAN_POINT('',(4.798713229686,0.85269729423));
#515 = CARTESIAN_POINT('',(4.764235289529,0.911145255137));
#516 = CARTESIAN_POINT('',(4.730389192199,0.973937193737));
#517 = CARTESIAN_POINT('',(4.728064221807,0.978280992966));
#518 = CARTESIAN_POINT('',(4.725755447295,0.982624792946));
#519 = CARTESIAN_POINT('',(4.723462646713,0.986968593657));
#520 = CARTESIAN_POINT('',(4.721185603214,0.991312395082));
#521 = CARTESIAN_POINT('',(4.718924105047,0.995656197202));
#522 = CARTESIAN_POINT('',(4.716677945562,1.));
#523 = ( GEOMETRIC_REPRESENTATION_CONTEXT(2) 
PARAMETRIC_REPRESENTATION_CONTEXT() REPRESENTATION_CONTEXT('2D SPACE',''
  ) );
#524 = ORIENTED_EDGE('',*,*,#525,.T.);
#525 = EDGE_CURVE('',#377,#332,#526,.T.);
#526 = SURFACE_CURVE('',#527,(#532,#539),.PCURVE_S1.);
#527 = CIRCLE('',#528,0.75);
#528 = AXIS2_PLACEMENT_3D('',#529,#530,#531);
#529 = CARTESIAN_POINT('',(36.75,0.,99.));
#530 = DIRECTION('',(0.,0.,-1.));
#531 = DIRECTION('',(0.,1.,0.));
#532 = PCURVE('',#71,#533);
#533 = DEFINITIONAL_REPRESENTATION('',(#534),#538);
#534 = LINE('',#535,#536);
#535 = CARTESIAN_POINT('',(6.28318530718,1.));
#536 = VECTOR('',#537,1.);
#537 = DIRECTION('',(-1.,0.));
#538 = ( GEOMETRIC_REPRESENTATION_CONTEXT(2) 
PARAMETRIC_REPRESENTATION_CONTEXT() REPRESENTATION_CONTEXT('2D SPACE',''
  ) );
#539 = PCURVE('',#540,#545);
#540 = CYLINDRICAL_SURFACE('',#541,0.75);
#541 = AXIS2_PLACEMENT_3D('',#542,#543,#544);
#542 = CARTESIAN_POINT('',(36.75,0.,99.));
#543 = DIRECTION('',(0.,0.,-1.));
#544 = DIRECTION('',(0.,1.,0.));
#545 = DEFINITIONAL_REPRESENTATION('',(#546),#549);
#546 = B_SPLINE_CURVE_WITH_KNOTS('',1,(#547,#548),.UNSPECIFIED.,.F.,.F.,
  (2,2),(0.,3.14159265359),.PIECEWISE_BEZIER_KNOTS.);
#547 = CARTESIAN_POINT('',(0.,0.));
#548 = CARTESIAN_POINT('',(3.14159265359,0.));
#549 = ( GEOMETRIC_REPRESENTATION_CONTEXT(2) 
PARAMETRIC_REPRESENTATION_CONTEXT() REPRESENTATION_CONTEXT('2D SPACE',''
  ) );
#550 = ADVANCED_FACE('',(#551),#297,.T.);
#551 = FACE_BOUND('',#552,.T.);
#552 = EDGE_LOOP('',(#553,#554,#555,#583));
#553 = ORIENTED_EDGE('',*,*,#282,.T.);
#554 = ORIENTED_EDGE('',*,*,#331,.T.);
#555 = ORIENTED_EDGE('',*,*,#556,.T.);
#556 = EDGE_CURVE('',#332,#557,#559,.T.);
#557 = VERTEX_POINT('',#558);
#558 = CARTESIAN_POINT('',(-36.75,-0.75,99.));
#559 = SURFACE_CURVE('',#560,(#564,#571),.PCURVE_S1.);
#560 = LINE('',#561,#562);
#561 = CARTESIAN_POINT('',(36.75,-0.75,99.));
#562 = VECTOR('',#563,1.);
#563 = DIRECTION('',(-1.,0.,0.));
#564 = PCURVE('',#297,#565);
#565 = DEFINITIONAL_REPRESENTATION('',(#566),#570);
#566 = LINE('',#567,#568);
#567 = CARTESIAN_POINT('',(0.,1.));
#568 = VECTOR('',#569,1.);
#569 = DIRECTION('',(-1.,0.));
#570 = ( GEOMETRIC_REPRESENTATION_CONTEXT(2) 
PARAMETRIC_REPRESENTATION_CONTEXT() REPRESENTATION_CONTEXT('2D SPACE',''
  ) );
#571 = PCURVE('',#572,#577);
#572 = PLANE('',#573);
#573 = AXIS2_PLACEMENT_3D('',#574,#575,#576);
#574 = CARTESIAN_POINT('',(36.75,-0.75,99.));
#575 = DIRECTION('',(0.,-1.,0.));
#576 = DIRECTION('',(-1.,0.,0.));
#577 = DEFINITIONAL_REPRESENTATION('',(#578),#582);
#578 = LINE('',#579,#580);
#579 = CARTESIAN_POINT('',(0.,-0.));
#580 = VECTOR('',#581,1.);
#581 = DIRECTION('',(1.,0.));
#582 = ( GEOMETRIC_REPRESENTATION_CONTEXT(2) 
PARAMETRIC_REPRESENTATION_CONTEXT() REPRESENTATION_CONTEXT('2D SPACE',''
  ) );
#583 = ORIENTED_EDGE('',*,*,#584,.F.);
#584 = EDGE_CURVE('',#239,#557,#585,.T.);
#585 = SURFACE_CURVE('',#586,(#589,#596),.PCURVE_S1.);
#586 = B_SPLINE_CURVE_WITH_KNOTS('',1,(#587,#588),.UNSPECIFIED.,.F.,.F.,
  (2,2),(0.,1.),.PIECEWISE_BEZIER_KNOTS.);
#587 = CARTESIAN_POINT('',(-37.79213073791,-0.771267974243,0.));
#588 = CARTESIAN_POINT('',(-36.75,-0.75,99.));
#589 = PCURVE('',#297,#590);
#590 = DEFINITIONAL_REPRESENTATION('',(#591),#595);
#591 = LINE('',#592,#593);
#592 = CARTESIAN_POINT('',(-73.5,0.));
#593 = VECTOR('',#594,1.);
#594 = DIRECTION('',(0.,1.));
#595 = ( GEOMETRIC_REPRESENTATION_CONTEXT(2) 
PARAMETRIC_REPRESENTATION_CONTEXT() REPRESENTATION_CONTEXT('2D SPACE',''
  ) );
#596 = PCURVE('',#255,#597);
#597 = DEFINITIONAL_REPRESENTATION('',(#598),#602);
#598 = LINE('',#599,#600);
#599 = CARTESIAN_POINT('',(6.28318530718,0.));
#600 = VECTOR('',#601,1.);
#601 = DIRECTION('',(0.,1.));
#602 = ( GEOMETRIC_REPRESENTATION_CONTEXT(2) 
PARAMETRIC_REPRESENTATION_CONTEXT() REPRESENTATION_CONTEXT('2D SPACE',''
  ) );
#603 = ADVANCED_FACE('',(#604),#255,.T.);
#604 = FACE_BOUND('',#605,.T.);
#605 = EDGE_LOOP('',(#606,#650,#651,#652));
#606 = ORIENTED_EDGE('',*,*,#607,.F.);
#607 = EDGE_CURVE('',#195,#608,#610,.T.);
#608 = VERTEX_POINT('',#609);
#609 = CARTESIAN_POINT('',(-37.4999931018,3.216713912751E-03,99.));
#610 = SURFACE_CURVE('',#611,(#622,#636),.PCURVE_S1.);
#611 = B_SPLINE_CURVE_WITH_KNOTS('',5,(#612,#613,#614,#615,#616,#617,
    #618,#619,#620,#621),.UNSPECIFIED.,.F.,.F.,(6,4,6),(0.,
    0.842000002342,1.),.UNSPECIFIED.);
#612 = CARTESIAN_POINT('',(-37.79999986313,3.216713912751E-03,0.));
#613 = CARTESIAN_POINT('',(-37.74947719109,3.216713912751E-03,
    16.671600036235));
#614 = CARTESIAN_POINT('',(-37.69895569622,3.216713912751E-03,
    33.343200080379));
#615 = CARTESIAN_POINT('',(-37.64843464493,3.216713912751E-03,
    50.014800127579));
#616 = CARTESIAN_POINT('',(-37.59791394192,3.216713912751E-03,
    66.686400176733));
#617 = CARTESIAN_POINT('',(-37.53791335127,3.216713912751E-03,
    86.486400181832));
#618 = CARTESIAN_POINT('',(-37.52843326553,3.216713912751E-03,
    89.614800136313));
#619 = CARTESIAN_POINT('',(-37.51895318655,3.216713912751E-03,
    92.743200090837));
#620 = CARTESIAN_POINT('',(-37.5094731137,3.216713912751E-03,
    95.8716000454));
#621 = CARTESIAN_POINT('',(-37.4999930465,3.216713912751E-03,99.));
#622 = PCURVE('',#255,#623);
#623 = DEFINITIONAL_REPRESENTATION('',(#624),#635);
#624 = B_SPLINE_CURVE_WITH_KNOTS('',5,(#625,#626,#627,#628,#629,#630,
    #631,#632,#633,#634),.UNSPECIFIED.,.F.,.F.,(6,4,6),(0.,
    0.842000002342,1.),.UNSPECIFIED.);
#625 = CARTESIAN_POINT('',(4.7058381421,0.));
#626 = CARTESIAN_POINT('',(4.706419909718,0.168400000366));
#627 = CARTESIAN_POINT('',(4.706872857408,0.336800000812));
#628 = CARTESIAN_POINT('',(4.707251924966,0.505200001289));
#629 = CARTESIAN_POINT('',(4.707573537111,0.673600001785));
#630 = CARTESIAN_POINT('',(4.707904884159,0.873600001837));
#631 = CARTESIAN_POINT('',(4.707955726691,0.905200001377));
#632 = CARTESIAN_POINT('',(4.708005145563,0.936800000918));
#633 = CARTESIAN_POINT('',(4.708053218681,0.968400000459));
#634 = CARTESIAN_POINT('',(4.708100015207,1.));
#635 = ( GEOMETRIC_REPRESENTATION_CONTEXT(2) 
PARAMETRIC_REPRESENTATION_CONTEXT() REPRESENTATION_CONTEXT('2D SPACE',''
  ) );
#636 = PCURVE('',#211,#637);
#637 = DEFINITIONAL_REPRESENTATION('',(#638),#649);
#638 = B_SPLINE_CURVE_WITH_KNOTS('',5,(#639,#640,#641,#642,#643,#644,
    #645,#646,#647,#648),.UNSPECIFIED.,.F.,.F.,(6,4,6),(0.,
    0.842000002342,1.),.UNSPECIFIED.);
#639 = CARTESIAN_POINT('',(4.7058381421,0.));
#640 = CARTESIAN_POINT('',(4.706419909718,0.168400000366));
#641 = CARTESIAN_POINT('',(4.706872857408,0.336800000812));
#642 = CARTESIAN_POINT('',(4.707251924966,0.505200001289));
#643 = CARTESIAN_POINT('',(4.707573537111,0.673600001785));
#644 = CARTESIAN_POINT('',(4.707904884159,0.873600001837));
#645 = CARTESIAN_POINT('',(4.707955726691,0.905200001377));
#646 = CARTESIAN_POINT('',(4.708005145563,0.936800000918));
#647 = CARTESIAN_POINT('',(4.708053218681,0.968400000459));
#648 = CARTESIAN_POINT('',(4.708100015207,1.));
#649 = ( GEOMETRIC_REPRESENTATION_CONTEXT(2) 
PARAMETRIC_REPRESENTATION_CONTEXT() REPRESENTATION_CONTEXT('2D SPACE',''
  ) );
#650 = ORIENTED_EDGE('',*,*,#238,.T.);
#651 = ORIENTED_EDGE('',*,*,#584,.T.);
#652 = ORIENTED_EDGE('',*,*,#653,.T.);
#653 = EDGE_CURVE('',#557,#608,#654,.T.);
#654 = SURFACE_CURVE('',#655,(#660,#667),.PCURVE_S1.);
#655 = CIRCLE('',#656,0.75);
#656 = AXIS2_PLACEMENT_3D('',#657,#658,#659);
#657 = CARTESIAN_POINT('',(-36.75,0.,99.));
#658 = DIRECTION('',(-0.,-0.,-1.));
#659 = DIRECTION('',(0.,-1.,0.));
#660 = PCURVE('',#255,#661);
#661 = DEFINITIONAL_REPRESENTATION('',(#662),#666);
#662 = LINE('',#663,#664);
#663 = CARTESIAN_POINT('',(6.28318530718,1.));
#664 = VECTOR('',#665,1.);
#665 = DIRECTION('',(-1.,0.));
#666 = ( GEOMETRIC_REPRESENTATION_CONTEXT(2) 
PARAMETRIC_REPRESENTATION_CONTEXT() REPRESENTATION_CONTEXT('2D SPACE',''
  ) );
#667 = PCURVE('',#668,#673);
#668 = CYLINDRICAL_SURFACE('',#669,0.75);
#669 = AXIS2_PLACEMENT_3D('',#670,#671,#672);
#670 = CARTESIAN_POINT('',(-36.75,0.,99.));
#671 = DIRECTION('',(0.,0.,-1.));
#672 = DIRECTION('',(0.,-1.,0.));
#673 = DEFINITIONAL_REPRESENTATION('',(#674),#677);
#674 = B_SPLINE_CURVE_WITH_KNOTS('',1,(#675,#676),.UNSPECIFIED.,.F.,.F.,
  (2,2),(0.,3.14159265359),.PIECEWISE_BEZIER_KNOTS.);
#675 = CARTESIAN_POINT('',(0.,0.));
#676 = CARTESIAN_POINT('',(3.14159265359,0.));
#677 = ( GEOMETRIC_REPRESENTATION_CONTEXT(2) 
PARAMETRIC_REPRESENTATION_CONTEXT() REPRESENTATION_CONTEXT('2D SPACE',''
  ) );
#678 = ADVANCED_FACE('',(#679),#211,.T.);
#679 = FACE_BOUND('',#680,.T.);
#680 = EDGE_LOOP('',(#681,#703,#704,#705));
#681 = ORIENTED_EDGE('',*,*,#682,.F.);
#682 = EDGE_CURVE('',#147,#683,#685,.T.);
#683 = VERTEX_POINT('',#684);
#684 = CARTESIAN_POINT('',(-36.75,0.75,99.));
#685 = SURFACE_CURVE('',#686,(#689,#696),.PCURVE_S1.);
#686 = B_SPLINE_CURVE_WITH_KNOTS('',1,(#687,#688),.UNSPECIFIED.,.F.,.F.,
  (2,2),(0.,1.),.PIECEWISE_BEZIER_KNOTS.);
#687 = CARTESIAN_POINT('',(-37.79213073791,0.771267974243,0.));
#688 = CARTESIAN_POINT('',(-36.75,0.75,99.));
#689 = PCURVE('',#211,#690);
#690 = DEFINITIONAL_REPRESENTATION('',(#691),#695);
#691 = LINE('',#692,#693);
#692 = CARTESIAN_POINT('',(3.14159265359,0.));
#693 = VECTOR('',#694,1.);
#694 = DIRECTION('',(0.,1.));
#695 = ( GEOMETRIC_REPRESENTATION_CONTEXT(2) 
PARAMETRIC_REPRESENTATION_CONTEXT() REPRESENTATION_CONTEXT('2D SPACE',''
  ) );
#696 = PCURVE('',#163,#697);
#697 = DEFINITIONAL_REPRESENTATION('',(#698),#702);
#698 = LINE('',#699,#700);
#699 = CARTESIAN_POINT('',(0.,0.));
#700 = VECTOR('',#701,1.);
#701 = DIRECTION('',(0.,1.));
#702 = ( GEOMETRIC_REPRESENTATION_CONTEXT(2) 
PARAMETRIC_REPRESENTATION_CONTEXT() REPRESENTATION_CONTEXT('2D SPACE',''
  ) );
#703 = ORIENTED_EDGE('',*,*,#194,.T.);
#704 = ORIENTED_EDGE('',*,*,#607,.T.);
#705 = ORIENTED_EDGE('',*,*,#706,.T.);
#706 = EDGE_CURVE('',#608,#683,#707,.T.);
#707 = SURFACE_CURVE('',#708,(#713,#720),.PCURVE_S1.);
#708 = CIRCLE('',#709,0.75);
#709 = AXIS2_PLACEMENT_3D('',#710,#711,#712);
#710 = CARTESIAN_POINT('',(-36.75,0.,99.));
#711 = DIRECTION('',(-0.,-0.,-1.));
#712 = DIRECTION('',(0.,-1.,0.));
#713 = PCURVE('',#211,#714);
#714 = DEFINITIONAL_REPRESENTATION('',(#715),#719);
#715 = LINE('',#716,#717);
#716 = CARTESIAN_POINT('',(6.28318530718,1.));
#717 = VECTOR('',#718,1.);
#718 = DIRECTION('',(-1.,0.));
#719 = ( GEOMETRIC_REPRESENTATION_CONTEXT(2) 
PARAMETRIC_REPRESENTATION_CONTEXT() REPRESENTATION_CONTEXT('2D SPACE',''
  ) );
#720 = PCURVE('',#668,#721);
#721 = DEFINITIONAL_REPRESENTATION('',(#722),#725);
#722 = B_SPLINE_CURVE_WITH_KNOTS('',1,(#723,#724),.UNSPECIFIED.,.F.,.F.,
  (2,2),(0.,3.14159265359),.PIECEWISE_BEZIER_KNOTS.);
#723 = CARTESIAN_POINT('',(0.,0.));
#724 = CARTESIAN_POINT('',(3.14159265359,0.));
#725 = ( GEOMETRIC_REPRESENTATION_CONTEXT(2) 
PARAMETRIC_REPRESENTATION_CONTEXT() REPRESENTATION_CONTEXT('2D SPACE',''
  ) );
#726 = ADVANCED_FACE('',(#727),#163,.T.);
#727 = FACE_BOUND('',#728,.T.);
#728 = EDGE_LOOP('',(#729,#756,#757,#758,#786));
#729 = ORIENTED_EDGE('',*,*,#730,.F.);
#730 = EDGE_CURVE('',#99,#355,#731,.T.);
#731 = SURFACE_CURVE('',#732,(#738,#747),.PCURVE_S1.);
#732 = B_SPLINE_CURVE_WITH_KNOTS('',4,(#733,#734,#735,#736,#737),
  .UNSPECIFIED.,.F.,.F.,(5,5),(0.,1.),.PIECEWISE_BEZIER_KNOTS.);
#733 = CARTESIAN_POINT('',(37.799999863132,3.216713912751E-03,0.));
#734 = CARTESIAN_POINT('',(37.798871932963,3.216713912751E-03,
    0.106151546809));
#735 = CARTESIAN_POINT('',(37.797745406425,3.216713912751E-03,
    0.212303101828));
#736 = CARTESIAN_POINT('',(37.796620292549,3.216713912751E-03,
    0.318454665056));
#737 = CARTESIAN_POINT('',(37.795496600522,3.216713912751E-03,
    0.424606236484));
#738 = PCURVE('',#163,#739);
#739 = DEFINITIONAL_REPRESENTATION('',(#740),#746);
#740 = B_SPLINE_CURVE_WITH_KNOTS('',4,(#741,#742,#743,#744,#745),
  .UNSPECIFIED.,.F.,.F.,(5,5),(0.,1.),.PIECEWISE_BEZIER_KNOTS.);
#741 = CARTESIAN_POINT('',(-73.49799604417,0.));
#742 = CARTESIAN_POINT('',(-73.49849488436,1.072237846559E-03));
#743 = CARTESIAN_POINT('',(-73.49899515091,2.144475776043E-03));
#744 = CARTESIAN_POINT('',(-73.49949685301,3.216713788446E-03));
#745 = CARTESIAN_POINT('',(-73.5,4.288951883677E-03));
#746 = ( GEOMETRIC_REPRESENTATION_CONTEXT(2) 
PARAMETRIC_REPRESENTATION_CONTEXT() REPRESENTATION_CONTEXT('2D SPACE',''
  ) );
#747 = PCURVE('',#115,#748);
#748 = DEFINITIONAL_REPRESENTATION('',(#749),#755);
#749 = B_SPLINE_CURVE_WITH_KNOTS('',4,(#750,#751,#752,#753,#754),
  .UNSPECIFIED.,.F.,.F.,(5,5),(0.,1.),.PIECEWISE_BEZIER_KNOTS.);
#750 = CARTESIAN_POINT('',(-73.49799604417,0.));
#751 = CARTESIAN_POINT('',(-73.49849488436,1.072237846559E-03));
#752 = CARTESIAN_POINT('',(-73.49899515091,2.144475776043E-03));
#753 = CARTESIAN_POINT('',(-73.49949685301,3.216713788446E-03));
#754 = CARTESIAN_POINT('',(-73.5,4.288951883677E-03));
#755 = ( GEOMETRIC_REPRESENTATION_CONTEXT(2) 
PARAMETRIC_REPRESENTATION_CONTEXT() REPRESENTATION_CONTEXT('2D SPACE',''
  ) );
#756 = ORIENTED_EDGE('',*,*,#146,.T.);
#757 = ORIENTED_EDGE('',*,*,#682,.T.);
#758 = ORIENTED_EDGE('',*,*,#759,.T.);
#759 = EDGE_CURVE('',#683,#760,#762,.T.);
#760 = VERTEX_POINT('',#761);
#761 = CARTESIAN_POINT('',(36.75,0.75,99.));
#762 = SURFACE_CURVE('',#763,(#767,#774),.PCURVE_S1.);
#763 = LINE('',#764,#765);
#764 = CARTESIAN_POINT('',(-36.75,0.75,99.));
#765 = VECTOR('',#766,1.);
#766 = DIRECTION('',(1.,0.,0.));
#767 = PCURVE('',#163,#768);
#768 = DEFINITIONAL_REPRESENTATION('',(#769),#773);
#769 = LINE('',#770,#771);
#770 = CARTESIAN_POINT('',(0.,1.));
#771 = VECTOR('',#772,1.);
#772 = DIRECTION('',(-1.,0.));
#773 = ( GEOMETRIC_REPRESENTATION_CONTEXT(2) 
PARAMETRIC_REPRESENTATION_CONTEXT() REPRESENTATION_CONTEXT('2D SPACE',''
  ) );
#774 = PCURVE('',#775,#780);
#775 = PLANE('',#776);
#776 = AXIS2_PLACEMENT_3D('',#777,#778,#779);
#777 = CARTESIAN_POINT('',(-36.75,0.75,99.));
#778 = DIRECTION('',(0.,1.,0.));
#779 = DIRECTION('',(1.,0.,0.));
#780 = DEFINITIONAL_REPRESENTATION('',(#781),#785);
#781 = LINE('',#782,#783);
#782 = CARTESIAN_POINT('',(0.,0.));
#783 = VECTOR('',#784,1.);
#784 = DIRECTION('',(1.,0.));
#785 = ( GEOMETRIC_REPRESENTATION_CONTEXT(2) 
PARAMETRIC_REPRESENTATION_CONTEXT() REPRESENTATION_CONTEXT('2D SPACE',''
  ) );
#786 = ORIENTED_EDGE('',*,*,#787,.F.);
#787 = EDGE_CURVE('',#355,#760,#788,.T.);
#788 = SURFACE_CURVE('',#789,(#792,#799),.PCURVE_S1.);
#789 = B_SPLINE_CURVE_WITH_KNOTS('',1,(#790,#791),.UNSPECIFIED.,.F.,.F.,
  (2,2),(0.,1.),.PIECEWISE_BEZIER_KNOTS.);
#790 = CARTESIAN_POINT('',(37.8,-7.105427357601E-15,0.));
#791 = CARTESIAN_POINT('',(36.75,0.75,99.));
#792 = PCURVE('',#163,#793);
#793 = DEFINITIONAL_REPRESENTATION('',(#794),#798);
#794 = LINE('',#795,#796);
#795 = CARTESIAN_POINT('',(-73.5,0.));
#796 = VECTOR('',#797,1.);
#797 = DIRECTION('',(0.,1.));
#798 = ( GEOMETRIC_REPRESENTATION_CONTEXT(2) 
PARAMETRIC_REPRESENTATION_CONTEXT() REPRESENTATION_CONTEXT('2D SPACE',''
  ) );
#799 = PCURVE('',#462,#800);
#800 = DEFINITIONAL_REPRESENTATION('',(#801),#805);
#801 = LINE('',#802,#803);
#802 = CARTESIAN_POINT('',(6.28318530718,0.));
#803 = VECTOR('',#804,1.);
#804 = DIRECTION('',(0.,1.));
#805 = ( GEOMETRIC_REPRESENTATION_CONTEXT(2) 
PARAMETRIC_REPRESENTATION_CONTEXT() REPRESENTATION_CONTEXT('2D SPACE',''
  ) );
#806 = ADVANCED_FACE('',(#807),#115,.T.);
#807 = FACE_BOUND('',#808,.T.);
#808 = EDGE_LOOP('',(#809,#810,#811));
#809 = ORIENTED_EDGE('',*,*,#354,.F.);
#810 = ORIENTED_EDGE('',*,*,#98,.T.);
#811 = ORIENTED_EDGE('',*,*,#730,.T.);
#812 = ADVANCED_FACE('',(#813),#462,.T.);
#813 = FACE_BOUND('',#814,.T.);
#814 = EDGE_LOOP('',(#815,#816,#817));
#815 = ORIENTED_EDGE('',*,*,#376,.F.);
#816 = ORIENTED_EDGE('',*,*,#787,.T.);
#817 = ORIENTED_EDGE('',*,*,#818,.T.);
#818 = EDGE_CURVE('',#760,#377,#819,.T.);
#819 = SURFACE_CURVE('',#820,(#825,#832),.PCURVE_S1.);
#820 = CIRCLE('',#821,0.75);
#821 = AXIS2_PLACEMENT_3D('',#822,#823,#824);
#822 = CARTESIAN_POINT('',(36.75,0.,99.));
#823 = DIRECTION('',(0.,0.,-1.));
#824 = DIRECTION('',(0.,1.,0.));
#825 = PCURVE('',#462,#826);
#826 = DEFINITIONAL_REPRESENTATION('',(#827),#831);
#827 = LINE('',#828,#829);
#828 = CARTESIAN_POINT('',(6.28318530718,1.));
#829 = VECTOR('',#830,1.);
#830 = DIRECTION('',(-1.,0.));
#831 = ( GEOMETRIC_REPRESENTATION_CONTEXT(2) 
PARAMETRIC_REPRESENTATION_CONTEXT() REPRESENTATION_CONTEXT('2D SPACE',''
  ) );
#832 = PCURVE('',#540,#833);
#833 = DEFINITIONAL_REPRESENTATION('',(#834),#837);
#834 = B_SPLINE_CURVE_WITH_KNOTS('',1,(#835,#836),.UNSPECIFIED.,.F.,.F.,
  (2,2),(0.,3.14159265359),.PIECEWISE_BEZIER_KNOTS.);
#835 = CARTESIAN_POINT('',(0.,0.));
#836 = CARTESIAN_POINT('',(3.14159265359,0.));
#837 = ( GEOMETRIC_REPRESENTATION_CONTEXT(2) 
PARAMETRIC_REPRESENTATION_CONTEXT() REPRESENTATION_CONTEXT('2D SPACE',''
  ) );
#838 = ADVANCED_FACE('',(#839),#540,.T.);
#839 = FACE_BOUND('',#840,.T.);
#840 = EDGE_LOOP('',(#841,#842,#843,#866,#895));
#841 = ORIENTED_EDGE('',*,*,#525,.F.);
#842 = ORIENTED_EDGE('',*,*,#818,.F.);
#843 = ORIENTED_EDGE('',*,*,#844,.T.);
#844 = EDGE_CURVE('',#760,#845,#847,.T.);
#845 = VERTEX_POINT('',#846);
#846 = CARTESIAN_POINT('',(36.75,0.75,107.5));
#847 = SURFACE_CURVE('',#848,(#852,#859),.PCURVE_S1.);
#848 = LINE('',#849,#850);
#849 = CARTESIAN_POINT('',(36.75,0.75,99.));
#850 = VECTOR('',#851,1.);
#851 = DIRECTION('',(0.,0.,1.));
#852 = PCURVE('',#540,#853);
#853 = DEFINITIONAL_REPRESENTATION('',(#854),#858);
#854 = LINE('',#855,#856);
#855 = CARTESIAN_POINT('',(0.,0.));
#856 = VECTOR('',#857,1.);
#857 = DIRECTION('',(0.,-1.));
#858 = ( GEOMETRIC_REPRESENTATION_CONTEXT(2) 
PARAMETRIC_REPRESENTATION_CONTEXT() REPRESENTATION_CONTEXT('2D SPACE',''
  ) );
#859 = PCURVE('',#775,#860);
#860 = DEFINITIONAL_REPRESENTATION('',(#861),#865);
#861 = LINE('',#862,#863);
#862 = CARTESIAN_POINT('',(73.5,0.));
#863 = VECTOR('',#864,1.);
#864 = DIRECTION('',(0.,-1.));
#865 = ( GEOMETRIC_REPRESENTATION_CONTEXT(2) 
PARAMETRIC_REPRESENTATION_CONTEXT() REPRESENTATION_CONTEXT('2D SPACE',''
  ) );
#866 = ORIENTED_EDGE('',*,*,#867,.F.);
#867 = EDGE_CURVE('',#868,#845,#870,.T.);
#868 = VERTEX_POINT('',#869);
#869 = CARTESIAN_POINT('',(36.75,-0.75,107.5));
#870 = SURFACE_CURVE('',#871,(#876,#883),.PCURVE_S1.);
#871 = CIRCLE('',#872,0.75);
#872 = AXIS2_PLACEMENT_3D('',#873,#874,#875);
#873 = CARTESIAN_POINT('',(36.75,0.,107.5));
#874 = DIRECTION('',(-0.,0.,1.));
#875 = DIRECTION('',(0.,-1.,0.));
#876 = PCURVE('',#540,#877);
#877 = DEFINITIONAL_REPRESENTATION('',(#878),#882);
#878 = LINE('',#879,#880);
#879 = CARTESIAN_POINT('',(3.14159265359,-8.5));
#880 = VECTOR('',#881,1.);
#881 = DIRECTION('',(-1.,-0.));
#882 = ( GEOMETRIC_REPRESENTATION_CONTEXT(2) 
PARAMETRIC_REPRESENTATION_CONTEXT() REPRESENTATION_CONTEXT('2D SPACE',''
  ) );
#883 = PCURVE('',#884,#889);
#884 = CONICAL_SURFACE('',#885,0.75,0.785398163397);
#885 = AXIS2_PLACEMENT_3D('',#886,#887,#888);
#886 = CARTESIAN_POINT('',(36.75,0.,107.5));
#887 = DIRECTION('',(0.,0.,1.));
#888 = DIRECTION('',(0.,1.,0.));
#889 = DEFINITIONAL_REPRESENTATION('',(#890),#894);
#890 = LINE('',#891,#892);
#891 = CARTESIAN_POINT('',(3.14159265359,0.));
#892 = VECTOR('',#893,1.);
#893 = DIRECTION('',(1.,-0.));
#894 = ( GEOMETRIC_REPRESENTATION_CONTEXT(2) 
PARAMETRIC_REPRESENTATION_CONTEXT() REPRESENTATION_CONTEXT('2D SPACE',''
  ) );
#895 = ORIENTED_EDGE('',*,*,#896,.F.);
#896 = EDGE_CURVE('',#332,#868,#897,.T.);
#897 = SURFACE_CURVE('',#898,(#902,#909),.PCURVE_S1.);
#898 = LINE('',#899,#900);
#899 = CARTESIAN_POINT('',(36.75,-0.75,99.));
#900 = VECTOR('',#901,1.);
#901 = DIRECTION('',(0.,0.,1.));
#902 = PCURVE('',#540,#903);
#903 = DEFINITIONAL_REPRESENTATION('',(#904),#908);
#904 = LINE('',#905,#906);
#905 = CARTESIAN_POINT('',(3.14159265359,0.));
#906 = VECTOR('',#907,1.);
#907 = DIRECTION('',(0.,-1.));
#908 = ( GEOMETRIC_REPRESENTATION_CONTEXT(2) 
PARAMETRIC_REPRESENTATION_CONTEXT() REPRESENTATION_CONTEXT('2D SPACE',''
  ) );
#909 = PCURVE('',#572,#910);
#910 = DEFINITIONAL_REPRESENTATION('',(#911),#915);
#911 = LINE('',#912,#913);
#912 = CARTESIAN_POINT('',(0.,-0.));
#913 = VECTOR('',#914,1.);
#914 = DIRECTION('',(0.,-1.));
#915 = ( GEOMETRIC_REPRESENTATION_CONTEXT(2) 
PARAMETRIC_REPRESENTATION_CONTEXT() REPRESENTATION_CONTEXT('2D SPACE',''
  ) );
#916 = ADVANCED_FACE('',(#917),#572,.T.);
#917 = FACE_BOUND('',#918,.T.);
#918 = EDGE_LOOP('',(#919,#920,#921,#949));
#919 = ORIENTED_EDGE('',*,*,#556,.F.);
#920 = ORIENTED_EDGE('',*,*,#896,.T.);
#921 = ORIENTED_EDGE('',*,*,#922,.T.);
#922 = EDGE_CURVE('',#868,#923,#925,.T.);
#923 = VERTEX_POINT('',#924);
#924 = CARTESIAN_POINT('',(-36.75,-0.75,107.5));
#925 = SURFACE_CURVE('',#926,(#930,#937),.PCURVE_S1.);
#926 = LINE('',#927,#928);
#927 = CARTESIAN_POINT('',(36.75,-0.75,107.5));
#928 = VECTOR('',#929,1.);
#929 = DIRECTION('',(-1.,0.,0.));
#930 = PCURVE('',#572,#931);
#931 = DEFINITIONAL_REPRESENTATION('',(#932),#936);
#932 = LINE('',#933,#934);
#933 = CARTESIAN_POINT('',(0.,-8.5));
#934 = VECTOR('',#935,1.);
#935 = DIRECTION('',(1.,0.));
#936 = ( GEOMETRIC_REPRESENTATION_CONTEXT(2) 
PARAMETRIC_REPRESENTATION_CONTEXT() REPRESENTATION_CONTEXT('2D SPACE',''
  ) );
#937 = PCURVE('',#938,#943);
#938 = PLANE('',#939);
#939 = AXIS2_PLACEMENT_3D('',#940,#941,#942);
#940 = CARTESIAN_POINT('',(36.75,-2.25,109.));
#941 = DIRECTION('',(0.,0.707106781187,0.707106781187));
#942 = DIRECTION('',(-1.,0.,0.));
#943 = DEFINITIONAL_REPRESENTATION('',(#944),#948);
#944 = LINE('',#945,#946);
#945 = CARTESIAN_POINT('',(0.,-2.12132034356));
#946 = VECTOR('',#947,1.);
#947 = DIRECTION('',(1.,0.));
#948 = ( GEOMETRIC_REPRESENTATION_CONTEXT(2) 
PARAMETRIC_REPRESENTATION_CONTEXT() REPRESENTATION_CONTEXT('2D SPACE',''
  ) );
#949 = ORIENTED_EDGE('',*,*,#950,.F.);
#950 = EDGE_CURVE('',#557,#923,#951,.T.);
#951 = SURFACE_CURVE('',#952,(#956,#963),.PCURVE_S1.);
#952 = LINE('',#953,#954);
#953 = CARTESIAN_POINT('',(-36.75,-0.75,99.));
#954 = VECTOR('',#955,1.);
#955 = DIRECTION('',(0.,0.,1.));
#956 = PCURVE('',#572,#957);
#957 = DEFINITIONAL_REPRESENTATION('',(#958),#962);
#958 = LINE('',#959,#960);
#959 = CARTESIAN_POINT('',(73.5,0.));
#960 = VECTOR('',#961,1.);
#961 = DIRECTION('',(0.,-1.));
#962 = ( GEOMETRIC_REPRESENTATION_CONTEXT(2) 
PARAMETRIC_REPRESENTATION_CONTEXT() REPRESENTATION_CONTEXT('2D SPACE',''
  ) );
#963 = PCURVE('',#668,#964);
#964 = DEFINITIONAL_REPRESENTATION('',(#965),#969);
#965 = LINE('',#966,#967);
#966 = CARTESIAN_POINT('',(0.,0.));
#967 = VECTOR('',#968,1.);
#968 = DIRECTION('',(0.,-1.));
#969 = ( GEOMETRIC_REPRESENTATION_CONTEXT(2) 
PARAMETRIC_REPRESENTATION_CONTEXT() REPRESENTATION_CONTEXT('2D SPACE',''
  ) );
#970 = ADVANCED_FACE('',(#971),#668,.T.);
#971 = FACE_BOUND('',#972,.T.);
#972 = EDGE_LOOP('',(#973,#974,#975,#1004,#1025));
#973 = ORIENTED_EDGE('',*,*,#653,.F.);
#974 = ORIENTED_EDGE('',*,*,#950,.T.);
#975 = ORIENTED_EDGE('',*,*,#976,.F.);
#976 = EDGE_CURVE('',#977,#923,#979,.T.);
#977 = VERTEX_POINT('',#978);
#978 = CARTESIAN_POINT('',(-36.75,0.75,107.5));
#979 = SURFACE_CURVE('',#980,(#985,#992),.PCURVE_S1.);
#980 = CIRCLE('',#981,0.75);
#981 = AXIS2_PLACEMENT_3D('',#982,#983,#984);
#982 = CARTESIAN_POINT('',(-36.75,0.,107.5));
#983 = DIRECTION('',(0.,-0.,1.));
#984 = DIRECTION('',(0.,1.,0.));
#985 = PCURVE('',#668,#986);
#986 = DEFINITIONAL_REPRESENTATION('',(#987),#991);
#987 = LINE('',#988,#989);
#988 = CARTESIAN_POINT('',(3.14159265359,-8.5));
#989 = VECTOR('',#990,1.);
#990 = DIRECTION('',(-1.,-0.));
#991 = ( GEOMETRIC_REPRESENTATION_CONTEXT(2) 
PARAMETRIC_REPRESENTATION_CONTEXT() REPRESENTATION_CONTEXT('2D SPACE',''
  ) );
#992 = PCURVE('',#993,#998);
#993 = CONICAL_SURFACE('',#994,0.75,0.785398163397);
#994 = AXIS2_PLACEMENT_3D('',#995,#996,#997);
#995 = CARTESIAN_POINT('',(-36.75,0.,107.5));
#996 = DIRECTION('',(0.,0.,1.));
#997 = DIRECTION('',(0.,-1.,0.));
#998 = DEFINITIONAL_REPRESENTATION('',(#999),#1003);
#999 = LINE('',#1000,#1001);
#1000 = CARTESIAN_POINT('',(3.14159265359,0.));
#1001 = VECTOR('',#1002,1.);
#1002 = DIRECTION('',(1.,-0.));
#1003 = ( GEOMETRIC_REPRESENTATION_CONTEXT(2) 
PARAMETRIC_REPRESENTATION_CONTEXT() REPRESENTATION_CONTEXT('2D SPACE',''
  ) );
#1004 = ORIENTED_EDGE('',*,*,#1005,.F.);
#1005 = EDGE_CURVE('',#683,#977,#1006,.T.);
#1006 = SURFACE_CURVE('',#1007,(#1011,#1018),.PCURVE_S1.);
#1007 = LINE('',#1008,#1009);
#1008 = CARTESIAN_POINT('',(-36.75,0.75,99.));
#1009 = VECTOR('',#1010,1.);
#1010 = DIRECTION('',(0.,0.,1.));
#1011 = PCURVE('',#668,#1012);
#1012 = DEFINITIONAL_REPRESENTATION('',(#1013),#1017);
#1013 = LINE('',#1014,#1015);
#1014 = CARTESIAN_POINT('',(3.14159265359,0.));
#1015 = VECTOR('',#1016,1.);
#1016 = DIRECTION('',(0.,-1.));
#1017 = ( GEOMETRIC_REPRESENTATION_CONTEXT(2) 
PARAMETRIC_REPRESENTATION_CONTEXT() REPRESENTATION_CONTEXT('2D SPACE',''
  ) );
#1018 = PCURVE('',#775,#1019);
#1019 = DEFINITIONAL_REPRESENTATION('',(#1020),#1024);
#1020 = LINE('',#1021,#1022);
#1021 = CARTESIAN_POINT('',(0.,0.));
#1022 = VECTOR('',#1023,1.);
#1023 = DIRECTION('',(0.,-1.));
#1024 = ( GEOMETRIC_REPRESENTATION_CONTEXT(2) 
PARAMETRIC_REPRESENTATION_CONTEXT() REPRESENTATION_CONTEXT('2D SPACE',''
  ) );
#1025 = ORIENTED_EDGE('',*,*,#706,.F.);
#1026 = ADVANCED_FACE('',(#1027),#775,.T.);
#1027 = FACE_BOUND('',#1028,.T.);
#1028 = EDGE_LOOP('',(#1029,#1030,#1031,#1057));
#1029 = ORIENTED_EDGE('',*,*,#759,.F.);
#1030 = ORIENTED_EDGE('',*,*,#1005,.T.);
#1031 = ORIENTED_EDGE('',*,*,#1032,.T.);
#1032 = EDGE_CURVE('',#977,#845,#1033,.T.);
#1033 = SURFACE_CURVE('',#1034,(#1038,#1045),.PCURVE_S1.);
#1034 = LINE('',#1035,#1036);
#1035 = CARTESIAN_POINT('',(-36.75,0.75,107.5));
#1036 = VECTOR('',#1037,1.);
#1037 = DIRECTION('',(1.,0.,0.));
#1038 = PCURVE('',#775,#1039);
#1039 = DEFINITIONAL_REPRESENTATION('',(#1040),#1044);
#1040 = LINE('',#1041,#1042);
#1041 = CARTESIAN_POINT('',(0.,-8.5));
#1042 = VECTOR('',#1043,1.);
#1043 = DIRECTION('',(1.,0.));
#1044 = ( GEOMETRIC_REPRESENTATION_CONTEXT(2) 
PARAMETRIC_REPRESENTATION_CONTEXT() REPRESENTATION_CONTEXT('2D SPACE',''
  ) );
#1045 = PCURVE('',#1046,#1051);
#1046 = PLANE('',#1047);
#1047 = AXIS2_PLACEMENT_3D('',#1048,#1049,#1050);
#1048 = CARTESIAN_POINT('',(-36.75,2.25,109.));
#1049 = DIRECTION('',(0.,-0.707106781187,0.707106781187));
#1050 = DIRECTION('',(1.,0.,0.));
#1051 = DEFINITIONAL_REPRESENTATION('',(#1052),#1056);
#1052 = LINE('',#1053,#1054);
#1053 = CARTESIAN_POINT('',(0.,-2.12132034356));
#1054 = VECTOR('',#1055,1.);
#1055 = DIRECTION('',(1.,0.));
#1056 = ( GEOMETRIC_REPRESENTATION_CONTEXT(2) 
PARAMETRIC_REPRESENTATION_CONTEXT() REPRESENTATION_CONTEXT('2D SPACE',''
  ) );
#1057 = ORIENTED_EDGE('',*,*,#844,.F.);
#1058 = ADVANCED_FACE('',(#1059),#884,.T.);
#1059 = FACE_BOUND('',#1060,.T.);
#1060 = EDGE_LOOP('',(#1061,#1092,#1110,#1111));
#1061 = ORIENTED_EDGE('',*,*,#1062,.F.);
#1062 = EDGE_CURVE('',#1063,#1065,#1067,.T.);
#1063 = VERTEX_POINT('',#1064);
#1064 = CARTESIAN_POINT('',(36.75,-2.25,109.));
#1065 = VERTEX_POINT('',#1066);
#1066 = CARTESIAN_POINT('',(36.75,2.25,109.));
#1067 = SURFACE_CURVE('',#1068,(#1073,#1080),.PCURVE_S1.);
#1068 = CIRCLE('',#1069,2.25);
#1069 = AXIS2_PLACEMENT_3D('',#1070,#1071,#1072);
#1070 = CARTESIAN_POINT('',(36.75,0.,109.));
#1071 = DIRECTION('',(-0.,0.,1.));
#1072 = DIRECTION('',(0.,-1.,0.));
#1073 = PCURVE('',#884,#1074);
#1074 = DEFINITIONAL_REPRESENTATION('',(#1075),#1079);
#1075 = LINE('',#1076,#1077);
#1076 = CARTESIAN_POINT('',(3.14159265359,1.5));
#1077 = VECTOR('',#1078,1.);
#1078 = DIRECTION('',(1.,-0.));
#1079 = ( GEOMETRIC_REPRESENTATION_CONTEXT(2) 
PARAMETRIC_REPRESENTATION_CONTEXT() REPRESENTATION_CONTEXT('2D SPACE',''
  ) );
#1080 = PCURVE('',#1081,#1086);
#1081 = PLANE('',#1082);
#1082 = AXIS2_PLACEMENT_3D('',#1083,#1084,#1085);
#1083 = CARTESIAN_POINT('',(-4.403329231825E-15,5.790076070423E-16,109.)
  );
#1084 = DIRECTION('',(0.,0.,1.));
#1085 = DIRECTION('',(1.,0.,-0.));
#1086 = DEFINITIONAL_REPRESENTATION('',(#1087),#1091);
#1087 = CIRCLE('',#1088,2.25);
#1088 = AXIS2_PLACEMENT_2D('',#1089,#1090);
#1089 = CARTESIAN_POINT('',(36.75,-5.790076070423E-16));
#1090 = DIRECTION('',(0.,-1.));
#1091 = ( GEOMETRIC_REPRESENTATION_CONTEXT(2) 
PARAMETRIC_REPRESENTATION_CONTEXT() REPRESENTATION_CONTEXT('2D SPACE',''
  ) );
#1092 = ORIENTED_EDGE('',*,*,#1093,.F.);
#1093 = EDGE_CURVE('',#868,#1063,#1094,.T.);
#1094 = SURFACE_CURVE('',#1095,(#1098,#1104),.PCURVE_S1.);
#1095 = B_SPLINE_CURVE_WITH_KNOTS('',1,(#1096,#1097),.UNSPECIFIED.,.F.,
  .F.,(2,2),(0.,1.),.PIECEWISE_BEZIER_KNOTS.);
#1096 = CARTESIAN_POINT('',(36.75,-0.75,107.5));
#1097 = CARTESIAN_POINT('',(36.75,-2.25,109.));
#1098 = PCURVE('',#884,#1099);
#1099 = DEFINITIONAL_REPRESENTATION('',(#1100),#1103);
#1100 = B_SPLINE_CURVE_WITH_KNOTS('',1,(#1101,#1102),.UNSPECIFIED.,.F.,
  .F.,(2,2),(0.,1.),.PIECEWISE_BEZIER_KNOTS.);
#1101 = CARTESIAN_POINT('',(3.14159265359,0.));
#1102 = CARTESIAN_POINT('',(3.14159265359,1.5));
#1103 = ( GEOMETRIC_REPRESENTATION_CONTEXT(2) 
PARAMETRIC_REPRESENTATION_CONTEXT() REPRESENTATION_CONTEXT('2D SPACE',''
  ) );
#1104 = PCURVE('',#938,#1105);
#1105 = DEFINITIONAL_REPRESENTATION('',(#1106),#1109);
#1106 = B_SPLINE_CURVE_WITH_KNOTS('',1,(#1107,#1108),.UNSPECIFIED.,.F.,
  .F.,(2,2),(0.,1.),.PIECEWISE_BEZIER_KNOTS.);
#1107 = CARTESIAN_POINT('',(0.,-2.12132034356));
#1108 = CARTESIAN_POINT('',(0.,0.));
#1109 = ( GEOMETRIC_REPRESENTATION_CONTEXT(2) 
PARAMETRIC_REPRESENTATION_CONTEXT() REPRESENTATION_CONTEXT('2D SPACE',''
  ) );
#1110 = ORIENTED_EDGE('',*,*,#867,.T.);
#1111 = ORIENTED_EDGE('',*,*,#1112,.T.);
#1112 = EDGE_CURVE('',#845,#1065,#1113,.T.);
#1113 = SURFACE_CURVE('',#1114,(#1117,#1123),.PCURVE_S1.);
#1114 = B_SPLINE_CURVE_WITH_KNOTS('',1,(#1115,#1116),.UNSPECIFIED.,.F.,
  .F.,(2,2),(0.,1.),.PIECEWISE_BEZIER_KNOTS.);
#1115 = CARTESIAN_POINT('',(36.75,0.75,107.5));
#1116 = CARTESIAN_POINT('',(36.75,2.25,109.));
#1117 = PCURVE('',#884,#1118);
#1118 = DEFINITIONAL_REPRESENTATION('',(#1119),#1122);
#1119 = B_SPLINE_CURVE_WITH_KNOTS('',1,(#1120,#1121),.UNSPECIFIED.,.F.,
  .F.,(2,2),(0.,1.),.PIECEWISE_BEZIER_KNOTS.);
#1120 = CARTESIAN_POINT('',(6.28318530718,0.));
#1121 = CARTESIAN_POINT('',(6.28318530718,1.5));
#1122 = ( GEOMETRIC_REPRESENTATION_CONTEXT(2) 
PARAMETRIC_REPRESENTATION_CONTEXT() REPRESENTATION_CONTEXT('2D SPACE',''
  ) );
#1123 = PCURVE('',#1046,#1124);
#1124 = DEFINITIONAL_REPRESENTATION('',(#1125),#1128);
#1125 = B_SPLINE_CURVE_WITH_KNOTS('',1,(#1126,#1127),.UNSPECIFIED.,.F.,
  .F.,(2,2),(0.,1.),.PIECEWISE_BEZIER_KNOTS.);
#1126 = CARTESIAN_POINT('',(73.5,-2.12132034356));
#1127 = CARTESIAN_POINT('',(73.5,0.));
#1128 = ( GEOMETRIC_REPRESENTATION_CONTEXT(2) 
PARAMETRIC_REPRESENTATION_CONTEXT() REPRESENTATION_CONTEXT('2D SPACE',''
  ) );
#1129 = ADVANCED_FACE('',(#1130),#938,.F.);
#1130 = FACE_BOUND('',#1131,.F.);
#1131 = EDGE_LOOP('',(#1132,#1133,#1153,#1174));
#1132 = ORIENTED_EDGE('',*,*,#922,.T.);
#1133 = ORIENTED_EDGE('',*,*,#1134,.T.);
#1134 = EDGE_CURVE('',#923,#1135,#1137,.T.);
#1135 = VERTEX_POINT('',#1136);
#1136 = CARTESIAN_POINT('',(-36.75,-2.25,109.));
#1137 = SURFACE_CURVE('',#1138,(#1141,#1147),.PCURVE_S1.);
#1138 = B_SPLINE_CURVE_WITH_KNOTS('',1,(#1139,#1140),.UNSPECIFIED.,.F.,
  .F.,(2,2),(0.,1.),.PIECEWISE_BEZIER_KNOTS.);
#1139 = CARTESIAN_POINT('',(-36.75,-0.75,107.5));
#1140 = CARTESIAN_POINT('',(-36.75,-2.25,109.));
#1141 = PCURVE('',#938,#1142);
#1142 = DEFINITIONAL_REPRESENTATION('',(#1143),#1146);
#1143 = B_SPLINE_CURVE_WITH_KNOTS('',1,(#1144,#1145),.UNSPECIFIED.,.F.,
  .F.,(2,2),(0.,1.),.PIECEWISE_BEZIER_KNOTS.);
#1144 = CARTESIAN_POINT('',(73.5,-2.12132034356));
#1145 = CARTESIAN_POINT('',(73.5,0.));
#1146 = ( GEOMETRIC_REPRESENTATION_CONTEXT(2) 
PARAMETRIC_REPRESENTATION_CONTEXT() REPRESENTATION_CONTEXT('2D SPACE',''
  ) );
#1147 = PCURVE('',#993,#1148);
#1148 = DEFINITIONAL_REPRESENTATION('',(#1149),#1152);
#1149 = B_SPLINE_CURVE_WITH_KNOTS('',1,(#1150,#1151),.UNSPECIFIED.,.F.,
  .F.,(2,2),(0.,1.),.PIECEWISE_BEZIER_KNOTS.);
#1150 = CARTESIAN_POINT('',(6.28318530718,0.));
#1151 = CARTESIAN_POINT('',(6.28318530718,1.5));
#1152 = ( GEOMETRIC_REPRESENTATION_CONTEXT(2) 
PARAMETRIC_REPRESENTATION_CONTEXT() REPRESENTATION_CONTEXT('2D SPACE',''
  ) );
#1153 = ORIENTED_EDGE('',*,*,#1154,.F.);
#1154 = EDGE_CURVE('',#1063,#1135,#1155,.T.);
#1155 = SURFACE_CURVE('',#1156,(#1160,#1167),.PCURVE_S1.);
#1156 = LINE('',#1157,#1158);
#1157 = CARTESIAN_POINT('',(36.75,-2.25,109.));
#1158 = VECTOR('',#1159,1.);
#1159 = DIRECTION('',(-1.,0.,0.));
#1160 = PCURVE('',#938,#1161);
#1161 = DEFINITIONAL_REPRESENTATION('',(#1162),#1166);
#1162 = LINE('',#1163,#1164);
#1163 = CARTESIAN_POINT('',(0.,0.));
#1164 = VECTOR('',#1165,1.);
#1165 = DIRECTION('',(1.,0.));
#1166 = ( GEOMETRIC_REPRESENTATION_CONTEXT(2) 
PARAMETRIC_REPRESENTATION_CONTEXT() REPRESENTATION_CONTEXT('2D SPACE',''
  ) );
#1167 = PCURVE('',#1081,#1168);
#1168 = DEFINITIONAL_REPRESENTATION('',(#1169),#1173);
#1169 = LINE('',#1170,#1171);
#1170 = CARTESIAN_POINT('',(36.75,-2.25));
#1171 = VECTOR('',#1172,1.);
#1172 = DIRECTION('',(-1.,0.));
#1173 = ( GEOMETRIC_REPRESENTATION_CONTEXT(2) 
PARAMETRIC_REPRESENTATION_CONTEXT() REPRESENTATION_CONTEXT('2D SPACE',''
  ) );
#1174 = ORIENTED_EDGE('',*,*,#1093,.F.);
#1175 = ADVANCED_FACE('',(#1176),#993,.T.);
#1176 = FACE_BOUND('',#1177,.T.);
#1177 = EDGE_LOOP('',(#1178,#1202,#1220,#1221));
#1178 = ORIENTED_EDGE('',*,*,#1179,.F.);
#1179 = EDGE_CURVE('',#1180,#1135,#1182,.T.);
#1180 = VERTEX_POINT('',#1181);
#1181 = CARTESIAN_POINT('',(-36.75,2.25,109.));
#1182 = SURFACE_CURVE('',#1183,(#1188,#1195),.PCURVE_S1.);
#1183 = CIRCLE('',#1184,2.25);
#1184 = AXIS2_PLACEMENT_3D('',#1185,#1186,#1187);
#1185 = CARTESIAN_POINT('',(-36.75,0.,109.));
#1186 = DIRECTION('',(0.,-0.,1.));
#1187 = DIRECTION('',(0.,1.,0.));
#1188 = PCURVE('',#993,#1189);
#1189 = DEFINITIONAL_REPRESENTATION('',(#1190),#1194);
#1190 = LINE('',#1191,#1192);
#1191 = CARTESIAN_POINT('',(3.14159265359,1.5));
#1192 = VECTOR('',#1193,1.);
#1193 = DIRECTION('',(1.,-0.));
#1194 = ( GEOMETRIC_REPRESENTATION_CONTEXT(2) 
PARAMETRIC_REPRESENTATION_CONTEXT() REPRESENTATION_CONTEXT('2D SPACE',''
  ) );
#1195 = PCURVE('',#1081,#1196);
#1196 = DEFINITIONAL_REPRESENTATION('',(#1197),#1201);
#1197 = CIRCLE('',#1198,2.25);
#1198 = AXIS2_PLACEMENT_2D('',#1199,#1200);
#1199 = CARTESIAN_POINT('',(-36.75,-5.790076070423E-16));
#1200 = DIRECTION('',(0.,1.));
#1201 = ( GEOMETRIC_REPRESENTATION_CONTEXT(2) 
PARAMETRIC_REPRESENTATION_CONTEXT() REPRESENTATION_CONTEXT('2D SPACE',''
  ) );
#1202 = ORIENTED_EDGE('',*,*,#1203,.F.);
#1203 = EDGE_CURVE('',#977,#1180,#1204,.T.);
#1204 = SURFACE_CURVE('',#1205,(#1208,#1214),.PCURVE_S1.);
#1205 = B_SPLINE_CURVE_WITH_KNOTS('',1,(#1206,#1207),.UNSPECIFIED.,.F.,
  .F.,(2,2),(0.,1.),.PIECEWISE_BEZIER_KNOTS.);
#1206 = CARTESIAN_POINT('',(-36.75,0.75,107.5));
#1207 = CARTESIAN_POINT('',(-36.75,2.25,109.));
#1208 = PCURVE('',#993,#1209);
#1209 = DEFINITIONAL_REPRESENTATION('',(#1210),#1213);
#1210 = B_SPLINE_CURVE_WITH_KNOTS('',1,(#1211,#1212),.UNSPECIFIED.,.F.,
  .F.,(2,2),(0.,1.),.PIECEWISE_BEZIER_KNOTS.);
#1211 = CARTESIAN_POINT('',(3.14159265359,0.));
#1212 = CARTESIAN_POINT('',(3.14159265359,1.5));
#1213 = ( GEOMETRIC_REPRESENTATION_CONTEXT(2) 
PARAMETRIC_REPRESENTATION_CONTEXT() REPRESENTATION_CONTEXT('2D SPACE',''
  ) );
#1214 = PCURVE('',#1046,#1215);
#1215 = DEFINITIONAL_REPRESENTATION('',(#1216),#1219);
#1216 = B_SPLINE_CURVE_WITH_KNOTS('',1,(#1217,#1218),.UNSPECIFIED.,.F.,
  .F.,(2,2),(0.,1.),.PIECEWISE_BEZIER_KNOTS.);
#1217 = CARTESIAN_POINT('',(0.,-2.12132034356));
#1218 = CARTESIAN_POINT('',(0.,0.));
#1219 = ( GEOMETRIC_REPRESENTATION_CONTEXT(2) 
PARAMETRIC_REPRESENTATION_CONTEXT() REPRESENTATION_CONTEXT('2D SPACE',''
  ) );
#1220 = ORIENTED_EDGE('',*,*,#976,.T.);
#1221 = ORIENTED_EDGE('',*,*,#1134,.T.);
#1222 = ADVANCED_FACE('',(#1223),#1046,.F.);
#1223 = FACE_BOUND('',#1224,.F.);
#1224 = EDGE_LOOP('',(#1225,#1226,#1227,#1248));
#1225 = ORIENTED_EDGE('',*,*,#1032,.T.);
#1226 = ORIENTED_EDGE('',*,*,#1112,.T.);
#1227 = ORIENTED_EDGE('',*,*,#1228,.F.);
#1228 = EDGE_CURVE('',#1180,#1065,#1229,.T.);
#1229 = SURFACE_CURVE('',#1230,(#1234,#1241),.PCURVE_S1.);
#1230 = LINE('',#1231,#1232);
#1231 = CARTESIAN_POINT('',(-36.75,2.25,109.));
#1232 = VECTOR('',#1233,1.);
#1233 = DIRECTION('',(1.,0.,0.));
#1234 = PCURVE('',#1046,#1235);
#1235 = DEFINITIONAL_REPRESENTATION('',(#1236),#1240);
#1236 = LINE('',#1237,#1238);
#1237 = CARTESIAN_POINT('',(0.,0.));
#1238 = VECTOR('',#1239,1.);
#1239 = DIRECTION('',(1.,0.));
#1240 = ( GEOMETRIC_REPRESENTATION_CONTEXT(2) 
PARAMETRIC_REPRESENTATION_CONTEXT() REPRESENTATION_CONTEXT('2D SPACE',''
  ) );
#1241 = PCURVE('',#1081,#1242);
#1242 = DEFINITIONAL_REPRESENTATION('',(#1243),#1247);
#1243 = LINE('',#1244,#1245);
#1244 = CARTESIAN_POINT('',(-36.75,2.25));
#1245 = VECTOR('',#1246,1.);
#1246 = DIRECTION('',(1.,0.));
#1247 = ( GEOMETRIC_REPRESENTATION_CONTEXT(2) 
PARAMETRIC_REPRESENTATION_CONTEXT() REPRESENTATION_CONTEXT('2D SPACE',''
  ) );
#1248 = ORIENTED_EDGE('',*,*,#1203,.F.);
#1249 = ADVANCED_FACE('',(#1250),#1081,.T.);
#1250 = FACE_BOUND('',#1251,.T.);
#1251 = EDGE_LOOP('',(#1252,#1253,#1254,#1255));
#1252 = ORIENTED_EDGE('',*,*,#1228,.F.);
#1253 = ORIENTED_EDGE('',*,*,#1179,.T.);
#1254 = ORIENTED_EDGE('',*,*,#1154,.F.);
#1255 = ORIENTED_EDGE('',*,*,#1062,.T.);
#1256 = ( GEOMETRIC_REPRESENTATION_CONTEXT(3) 
GLOBAL_UNCERTAINTY_ASSIGNED_CONTEXT((#1260)) 
GLOBAL_UNIT_ASSIGNED_CONTEXT((#1257,#1258,#1259)) REPRESENTATION_CONTEXT
('Context #1','3D Context with UNIT and UNCERTAINTY') );
#1257 = ( LENGTH_UNIT() NAMED_UNIT(*) SI_UNIT(.MILLI.,.METRE.) );
#1258 = ( NAMED_UNIT(*) PLANE_ANGLE_UNIT() SI_UNIT($,.RADIAN.) );
#1259 = ( NAMED_UNIT(*) SI_UNIT($,.STERADIAN.) SOLID_ANGLE_UNIT() );
#1260 = UNCERTAINTY_MEASURE_WITH_UNIT(LENGTH_MEASURE(1.E-07),#1257,
  'distance_accuracy_value','confusion accuracy');
#1261 = CONTEXT_DEPENDENT_SHAPE_REPRESENTATION(#1262,#1264);
#1262 = ( REPRESENTATION_RELATIONSHIP('','',#40,#10) 
REPRESENTATION_RELATIONSHIP_WITH_TRANSFORMATION(#1263) 
SHAPE_REPRESENTATION_RELATIONSHIP() );
#1263 = ITEM_DEFINED_TRANSFORMATION('','',#11,#15);
#1264 = PRODUCT_DEFINITION_SHAPE('Placement','Placement of an item',
  #1265);
#1265 = NEXT_ASSEMBLY_USAGE_OCCURRENCE('1','','',#5,#35,$);
#1266 = PRODUCT_RELATED_PRODUCT_CATEGORY('part',$,(#37));
#1267 = SHAPE_DEFINITION_REPRESENTATION(#1268,#1274);
#1268 = PRODUCT_DEFINITION_SHAPE('','',#1269);
#1269 = PRODUCT_DEFINITION('design','',#1270,#1273);
#1270 = PRODUCT_DEFINITION_FORMATION('','',#1271);
#1271 = PRODUCT('Open CASCADE STEP translator 7.9 3.2',
  'Open CASCADE STEP translator 7.9 3.2','',(#1272));
#1272 = PRODUCT_CONTEXT('',#2,'mechanical');
#1273 = PRODUCT_DEFINITION_CONTEXT('part definition',#2,'design');
#1274 = ADVANCED_BREP_SHAPE_REPRESENTATION('',(#11,#1275),#1373);
#1275 = MANIFOLD_SOLID_BREP('',#1276);
#1276 = CLOSED_SHELL('',(#1277,#1365,#1369));
#1277 = ADVANCED_FACE('',(#1278),#1291,.T.);
#1278 = FACE_BOUND('',#1279,.T.);
#1279 = EDGE_LOOP('',(#1280,#1314,#1337,#1364));
#1280 = ORIENTED_EDGE('',*,*,#1281,.T.);
#1281 = EDGE_CURVE('',#1282,#1282,#1284,.T.);
#1282 = VERTEX_POINT('',#1283);
#1283 = CARTESIAN_POINT('',(-39.5,0.,54.5));
#1284 = SURFACE_CURVE('',#1285,(#1290,#1302),.PCURVE_S1.);
#1285 = CIRCLE('',#1286,2.);
#1286 = AXIS2_PLACEMENT_3D('',#1287,#1288,#1289);
#1287 = CARTESIAN_POINT('',(-41.5,0.,54.5));
#1288 = DIRECTION('',(0.,-1.,0.));
#1289 = DIRECTION('',(1.,0.,0.));
#1290 = PCURVE('',#1291,#1296);
#1291 = CYLINDRICAL_SURFACE('',#1292,2.);
#1292 = AXIS2_PLACEMENT_3D('',#1293,#1294,#1295);
#1293 = CARTESIAN_POINT('',(-41.5,0.,54.5));
#1294 = DIRECTION('',(0.,1.,0.));
#1295 = DIRECTION('',(1.,0.,0.));
#1296 = DEFINITIONAL_REPRESENTATION('',(#1297),#1301);
#1297 = LINE('',#1298,#1299);
#1298 = CARTESIAN_POINT('',(6.28318530718,0.));
#1299 = VECTOR('',#1300,1.);
#1300 = DIRECTION('',(-1.,0.));
#1301 = ( GEOMETRIC_REPRESENTATION_CONTEXT(2) 
PARAMETRIC_REPRESENTATION_CONTEXT() REPRESENTATION_CONTEXT('2D SPACE',''
  ) );
#1302 = PCURVE('',#1303,#1308);
#1303 = PLANE('',#1304);
#1304 = AXIS2_PLACEMENT_3D('',#1305,#1306,#1307);
#1305 = CARTESIAN_POINT('',(-41.5,0.,54.5));
#1306 = DIRECTION('',(-0.,-1.,-0.));
#1307 = DIRECTION('',(0.,0.,-1.));
#1308 = DEFINITIONAL_REPRESENTATION('',(#1309),#1313);
#1309 = CIRCLE('',#1310,2.);
#1310 = AXIS2_PLACEMENT_2D('',#1311,#1312);
#1311 = CARTESIAN_POINT('',(0.,0.));
#1312 = DIRECTION('',(0.,1.));
#1313 = ( GEOMETRIC_REPRESENTATION_CONTEXT(2) 
PARAMETRIC_REPRESENTATION_CONTEXT() REPRESENTATION_CONTEXT('2D SPACE',''
  ) );
#1314 = ORIENTED_EDGE('',*,*,#1315,.T.);
#1315 = EDGE_CURVE('',#1282,#1316,#1318,.T.);
#1316 = VERTEX_POINT('',#1317);
#1317 = CARTESIAN_POINT('',(-39.5,-12.,54.5));
#1318 = SEAM_CURVE('',#1319,(#1323,#1330),.PCURVE_S1.);
#1319 = LINE('',#1320,#1321);
#1320 = CARTESIAN_POINT('',(-39.5,0.,54.5));
#1321 = VECTOR('',#1322,1.);
#1322 = DIRECTION('',(0.,-1.,0.));
#1323 = PCURVE('',#1291,#1324);
#1324 = DEFINITIONAL_REPRESENTATION('',(#1325),#1329);
#1325 = LINE('',#1326,#1327);
#1326 = CARTESIAN_POINT('',(-4.138911435803E-13,0.));
#1327 = VECTOR('',#1328,1.);
#1328 = DIRECTION('',(-0.,-1.));
#1329 = ( GEOMETRIC_REPRESENTATION_CONTEXT(2) 
PARAMETRIC_REPRESENTATION_CONTEXT() REPRESENTATION_CONTEXT('2D SPACE',''
  ) );
#1330 = PCURVE('',#1291,#1331);
#1331 = DEFINITIONAL_REPRESENTATION('',(#1332),#1336);
#1332 = LINE('',#1333,#1334);
#1333 = CARTESIAN_POINT('',(6.28318530718,0.));
#1334 = VECTOR('',#1335,1.);
#1335 = DIRECTION('',(-0.,-1.));
#1336 = ( GEOMETRIC_REPRESENTATION_CONTEXT(2) 
PARAMETRIC_REPRESENTATION_CONTEXT() REPRESENTATION_CONTEXT('2D SPACE',''
  ) );
#1337 = ORIENTED_EDGE('',*,*,#1338,.F.);
#1338 = EDGE_CURVE('',#1316,#1316,#1339,.T.);
#1339 = SURFACE_CURVE('',#1340,(#1345,#1352),.PCURVE_S1.);
#1340 = CIRCLE('',#1341,2.);
#1341 = AXIS2_PLACEMENT_3D('',#1342,#1343,#1344);
#1342 = CARTESIAN_POINT('',(-41.5,-12.,54.5));
#1343 = DIRECTION('',(0.,-1.,0.));
#1344 = DIRECTION('',(1.,0.,0.));
#1345 = PCURVE('',#1291,#1346);
#1346 = DEFINITIONAL_REPRESENTATION('',(#1347),#1351);
#1347 = LINE('',#1348,#1349);
#1348 = CARTESIAN_POINT('',(6.28318530718,-12.));
#1349 = VECTOR('',#1350,1.);
#1350 = DIRECTION('',(-1.,0.));
#1351 = ( GEOMETRIC_REPRESENTATION_CONTEXT(2) 
PARAMETRIC_REPRESENTATION_CONTEXT() REPRESENTATION_CONTEXT('2D SPACE',''
  ) );
#1352 = PCURVE('',#1353,#1358);
#1353 = PLANE('',#1354);
#1354 = AXIS2_PLACEMENT_3D('',#1355,#1356,#1357);
#1355 = CARTESIAN_POINT('',(-41.5,-12.,54.5));
#1356 = DIRECTION('',(-0.,-1.,-0.));
#1357 = DIRECTION('',(0.,0.,-1.));
#1358 = DEFINITIONAL_REPRESENTATION('',(#1359),#1363);
#1359 = CIRCLE('',#1360,2.);
#1360 = AXIS2_PLACEMENT_2D('',#1361,#1362);
#1361 = CARTESIAN_POINT('',(0.,0.));
#1362 = DIRECTION('',(0.,1.));
#1363 = ( GEOMETRIC_REPRESENTATION_CONTEXT(2) 
PARAMETRIC_REPRESENTATION_CONTEXT() REPRESENTATION_CONTEXT('2D SPACE',''
  ) );
#1364 = ORIENTED_EDGE('',*,*,#1315,.F.);
#1365 = ADVANCED_FACE('',(#1366),#1303,.F.);
#1366 = FACE_BOUND('',#1367,.F.);
#1367 = EDGE_LOOP('',(#1368));
#1368 = ORIENTED_EDGE('',*,*,#1281,.T.);
#1369 = ADVANCED_FACE('',(#1370),#1353,.T.);
#1370 = FACE_BOUND('',#1371,.T.);
#1371 = EDGE_LOOP('',(#1372));
#1372 = ORIENTED_EDGE('',*,*,#1338,.T.);
#1373 = ( GEOMETRIC_REPRESENTATION_CONTEXT(3) 
GLOBAL_UNCERTAINTY_ASSIGNED_CONTEXT((#1377)) 
GLOBAL_UNIT_ASSIGNED_CONTEXT((#1374,#1375,#1376)) REPRESENTATION_CONTEXT
('Context #1','3D Context with UNIT and UNCERTAINTY') );
#1374 = ( LENGTH_UNIT() NAMED_UNIT(*) SI_UNIT(.MILLI.,.METRE.) );
#1375 = ( NAMED_UNIT(*) PLANE_ANGLE_UNIT() SI_UNIT($,.RADIAN.) );
#1376 = ( NAMED_UNIT(*) SI_UNIT($,.STERADIAN.) SOLID_ANGLE_UNIT() );
#1377 = UNCERTAINTY_MEASURE_WITH_UNIT(LENGTH_MEASURE(1.E-07),#1374,
  'distance_accuracy_value','confusion accuracy');
#1378 = CONTEXT_DEPENDENT_SHAPE_REPRESENTATION(#1379,#1381);
#1379 = ( REPRESENTATION_RELATIONSHIP('','',#1274,#10) 
REPRESENTATION_RELATIONSHIP_WITH_TRANSFORMATION(#1380) 
SHAPE_REPRESENTATION_RELATIONSHIP() );
#1380 = ITEM_DEFINED_TRANSFORMATION('','',#11,#19);
#1381 = PRODUCT_DEFINITION_SHAPE('Placement','Placement of an item',
  #1382);
#1382 = NEXT_ASSEMBLY_USAGE_OCCURRENCE('2','','',#5,#1269,$);
#1383 = PRODUCT_RELATED_PRODUCT_CATEGORY('part',$,(#1271));
#1384 = SHAPE_DEFINITION_REPRESENTATION(#1385,#1391);
#1385 = PRODUCT_DEFINITION_SHAPE('','',#1386);
#1386 = PRODUCT_DEFINITION('design','',#1387,#1390);
#1387 = PRODUCT_DEFINITION_FORMATION('','',#1388);
#1388 = PRODUCT('Open CASCADE STEP translator 7.9 3.3',
  'Open CASCADE STEP translator 7.9 3.3','',(#1389));
#1389 = PRODUCT_CONTEXT('',#2,'mechanical');
#1390 = PRODUCT_DEFINITION_CONTEXT('part definition',#2,'design');
#1391 = ADVANCED_BREP_SHAPE_REPRESENTATION('',(#11,#1392),#1490);
#1392 = MANIFOLD_SOLID_BREP('',#1393);
#1393 = CLOSED_SHELL('',(#1394,#1482,#1486));
#1394 = ADVANCED_FACE('',(#1395),#1408,.T.);
#1395 = FACE_BOUND('',#1396,.T.);
#1396 = EDGE_LOOP('',(#1397,#1431,#1454,#1481));
#1397 = ORIENTED_EDGE('',*,*,#1398,.T.);
#1398 = EDGE_CURVE('',#1399,#1399,#1401,.T.);
#1399 = VERTEX_POINT('',#1400);
#1400 = CARTESIAN_POINT('',(43.5,0.,54.5));
#1401 = SURFACE_CURVE('',#1402,(#1407,#1419),.PCURVE_S1.);
#1402 = CIRCLE('',#1403,2.);
#1403 = AXIS2_PLACEMENT_3D('',#1404,#1405,#1406);
#1404 = CARTESIAN_POINT('',(41.5,0.,54.5));
#1405 = DIRECTION('',(0.,-1.,0.));
#1406 = DIRECTION('',(1.,0.,0.));
#1407 = PCURVE('',#1408,#1413);
#1408 = CYLINDRICAL_SURFACE('',#1409,2.);
#1409 = AXIS2_PLACEMENT_3D('',#1410,#1411,#1412);
#1410 = CARTESIAN_POINT('',(41.5,0.,54.5));
#1411 = DIRECTION('',(0.,1.,0.));
#1412 = DIRECTION('',(1.,0.,0.));
#1413 = DEFINITIONAL_REPRESENTATION('',(#1414),#1418);
#1414 = LINE('',#1415,#1416);
#1415 = CARTESIAN_POINT('',(6.28318530718,0.));
#1416 = VECTOR('',#1417,1.);
#1417 = DIRECTION('',(-1.,0.));
#1418 = ( GEOMETRIC_REPRESENTATION_CONTEXT(2) 
PARAMETRIC_REPRESENTATION_CONTEXT() REPRESENTATION_CONTEXT('2D SPACE',''
  ) );
#1419 = PCURVE('',#1420,#1425);
#1420 = PLANE('',#1421);
#1421 = AXIS2_PLACEMENT_3D('',#1422,#1423,#1424);
#1422 = CARTESIAN_POINT('',(41.5,0.,54.5));
#1423 = DIRECTION('',(-0.,-1.,-0.));
#1424 = DIRECTION('',(0.,0.,-1.));
#1425 = DEFINITIONAL_REPRESENTATION('',(#1426),#1430);
#1426 = CIRCLE('',#1427,2.);
#1427 = AXIS2_PLACEMENT_2D('',#1428,#1429);
#1428 = CARTESIAN_POINT('',(0.,0.));
#1429 = DIRECTION('',(0.,1.));
#1430 = ( GEOMETRIC_REPRESENTATION_CONTEXT(2) 
PARAMETRIC_REPRESENTATION_CONTEXT() REPRESENTATION_CONTEXT('2D SPACE',''
  ) );
#1431 = ORIENTED_EDGE('',*,*,#1432,.T.);
#1432 = EDGE_CURVE('',#1399,#1433,#1435,.T.);
#1433 = VERTEX_POINT('',#1434);
#1434 = CARTESIAN_POINT('',(43.5,-12.,54.5));
#1435 = SEAM_CURVE('',#1436,(#1440,#1447),.PCURVE_S1.);
#1436 = LINE('',#1437,#1438);
#1437 = CARTESIAN_POINT('',(43.5,0.,54.5));
#1438 = VECTOR('',#1439,1.);
#1439 = DIRECTION('',(0.,-1.,0.));
#1440 = PCURVE('',#1408,#1441);
#1441 = DEFINITIONAL_REPRESENTATION('',(#1442),#1446);
#1442 = LINE('',#1443,#1444);
#1443 = CARTESIAN_POINT('',(-4.138911435803E-13,0.));
#1444 = VECTOR('',#1445,1.);
#1445 = DIRECTION('',(-0.,-1.));
#1446 = ( GEOMETRIC_REPRESENTATION_CONTEXT(2) 
PARAMETRIC_REPRESENTATION_CONTEXT() REPRESENTATION_CONTEXT('2D SPACE',''
  ) );
#1447 = PCURVE('',#1408,#1448);
#1448 = DEFINITIONAL_REPRESENTATION('',(#1449),#1453);
#1449 = LINE('',#1450,#1451);
#1450 = CARTESIAN_POINT('',(6.28318530718,0.));
#1451 = VECTOR('',#1452,1.);
#1452 = DIRECTION('',(-0.,-1.));
#1453 = ( GEOMETRIC_REPRESENTATION_CONTEXT(2) 
PARAMETRIC_REPRESENTATION_CONTEXT() REPRESENTATION_CONTEXT('2D SPACE',''
  ) );
#1454 = ORIENTED_EDGE('',*,*,#1455,.F.);
#1455 = EDGE_CURVE('',#1433,#1433,#1456,.T.);
#1456 = SURFACE_CURVE('',#1457,(#1462,#1469),.PCURVE_S1.);
#1457 = CIRCLE('',#1458,2.);
#1458 = AXIS2_PLACEMENT_3D('',#1459,#1460,#1461);
#1459 = CARTESIAN_POINT('',(41.5,-12.,54.5));
#1460 = DIRECTION('',(0.,-1.,0.));
#1461 = DIRECTION('',(1.,0.,0.));
#1462 = PCURVE('',#1408,#1463);
#1463 = DEFINITIONAL_REPRESENTATION('',(#1464),#1468);
#1464 = LINE('',#1465,#1466);
#1465 = CARTESIAN_POINT('',(6.28318530718,-12.));
#1466 = VECTOR('',#1467,1.);
#1467 = DIRECTION('',(-1.,0.));
#1468 = ( GEOMETRIC_REPRESENTATION_CONTEXT(2) 
PARAMETRIC_REPRESENTATION_CONTEXT() REPRESENTATION_CONTEXT('2D SPACE',''
  ) );
#1469 = PCURVE('',#1470,#1475);
#1470 = PLANE('',#1471);
#1471 = AXIS2_PLACEMENT_3D('',#1472,#1473,#1474);
#1472 = CARTESIAN_POINT('',(41.5,-12.,54.5));
#1473 = DIRECTION('',(-0.,-1.,-0.));
#1474 = DIRECTION('',(0.,0.,-1.));
#1475 = DEFINITIONAL_REPRESENTATION('',(#1476),#1480);
#1476 = CIRCLE('',#1477,2.);
#1477 = AXIS2_PLACEMENT_2D('',#1478,#1479);
#1478 = CARTESIAN_POINT('',(0.,0.));
#1479 = DIRECTION('',(0.,1.));
#1480 = ( GEOMETRIC_REPRESENTATION_CONTEXT(2) 
PARAMETRIC_REPRESENTATION_CONTEXT() REPRESENTATION_CONTEXT('2D SPACE',''
  ) );
#1481 = ORIENTED_EDGE('',*,*,#1432,.F.);
#1482 = ADVANCED_FACE('',(#1483),#1420,.F.);
#1483 = FACE_BOUND('',#1484,.F.);
#1484 = EDGE_LOOP('',(#1485));
#1485 = ORIENTED_EDGE('',*,*,#1398,.T.);
#1486 = ADVANCED_FACE('',(#1487),#1470,.T.);
#1487 = FACE_BOUND('',#1488,.T.);
#1488 = EDGE_LOOP('',(#1489));
#1489 = ORIENTED_EDGE('',*,*,#1455,.T.);
#1490 = ( GEOMETRIC_REPRESENTATION_CONTEXT(3) 
GLOBAL_UNCERTAINTY_ASSIGNED_CONTEXT((#1494)) 
GLOBAL_UNIT_ASSIGNED_CONTEXT((#1491,#1492,#1493)) REPRESENTATION_CONTEXT
('Context #1','3D Context with UNIT and UNCERTAINTY') );
#1491 = ( LENGTH_UNIT() NAMED_UNIT(*) SI_UNIT(.MILLI.,.METRE.) );
#1492 = ( NAMED_UNIT(*) PLANE_ANGLE_UNIT() SI_UNIT($,.RADIAN.) );
#1493 = ( NAMED_UNIT(*) SI_UNIT($,.STERADIAN.) SOLID_ANGLE_UNIT() );
#1494 = UNCERTAINTY_MEASURE_WITH_UNIT(LENGTH_MEASURE(1.E-07),#1491,
  'distance_accuracy_value','confusion accuracy');
#1495 = CONTEXT_DEPENDENT_SHAPE_REPRESENTATION(#1496,#1498);
#1496 = ( REPRESENTATION_RELATIONSHIP('','',#1391,#10) 
REPRESENTATION_RELATIONSHIP_WITH_TRANSFORMATION(#1497) 
SHAPE_REPRESENTATION_RELATIONSHIP() );
#1497 = ITEM_DEFINED_TRANSFORMATION('','',#11,#23);
#1498 = PRODUCT_DEFINITION_SHAPE('Placement','Placement of an item',
  #1499);
#1499 = NEXT_ASSEMBLY_USAGE_OCCURRENCE('3','','',#5,#1386,$);
#1500 = PRODUCT_RELATED_PRODUCT_CATEGORY('part',$,(#1388));
ENDSEC;
END-ISO-10303-21;
