ISO-10303-21;
HEADER;
FILE_DESCRIPTION(('Open CASCADE Model'),'2;1');
FILE_NAME('Open CASCADE Shape Model','2026-09-23T18:50:08',('Author'),(
    'Open CASCADE'),'Open CASCADE STEP processor 7.9','Open CASCADE 7.9'
  ,'Unknown');
FILE_SCHEMA(('AUTOMOTIVE_DESIGN { 1 0 10303 214 1 1 1 1 }'));
ENDSEC;
DATA;
#1 = APPLICATION_PROTOCOL_DEFINITION('international standard',
  'automotive_design',2000,#2);
#2 = APPLICATION_CONTEXT(
  'core data for automotive mechanical design processes');
#3 = SHAPE_DEFINITION_REPRESENTATION(#4,#10);
#4 = PRODUCT_DEFINITION_SHAPE('','',#5);
#5 = PRODUCT_DEFINITION('design','',#6,#9);
#6 = PRODUCT_DEFINITION_FORMATION('','',#7);
#7 = PRODUCT('Open CASCADE STEP translator 7.9 2',
  'Open CASCADE STEP translator 7.9 2','',(#8));
#8 = PRODUCT_CONTEXT('',#2,'mechanical');
#9 = PRODUCT_DEFINITION_CONTEXT('part definition',#2,'design');
#10 = ADVANCED_BREP_SHAPE_REPRESENTATION('',(#11,#15),#1589);
#11 = AXIS2_PLACEMENT_3D('',#12,#13,#14);
#12 = CARTESIAN_POINT('',(0.,0.,0.));
#13 = DIRECTION('',(0.,0.,1.));
#14 = DIRECTION('',(1.,0.,-0.));
#15 = MANIFOLD_SOLID_BREP('',#16);
#16 = CLOSED_SHELL('',(#17,#105,#454,#556,#680,#759,#908,#984,#1050,
    #1131,#1186,#1221,#1271,#1411,#1435,#1442,#1467,#1493,#1523,#1548,
    #1575,#1582));
#17 = ADVANCED_FACE('',(#18),#31,.T.);
#18 = FACE_BOUND('',#19,.T.);
#19 = EDGE_LOOP('',(#20,#54,#77,#104));
#20 = ORIENTED_EDGE('',*,*,#21,.F.);
#21 = EDGE_CURVE('',#22,#22,#24,.T.);
#22 = VERTEX_POINT('',#23);
#23 = CARTESIAN_POINT('',(47.,-1.151167991199E-14,69.9));
#24 = SURFACE_CURVE('',#25,(#30,#42),.PCURVE_S1.);
#25 = CIRCLE('',#26,47.);
#26 = AXIS2_PLACEMENT_3D('',#27,#28,#29);
#27 = CARTESIAN_POINT('',(0.,0.,69.9));
#28 = DIRECTION('',(0.,0.,1.));
#29 = DIRECTION('',(1.,0.,-0.));
#30 = PCURVE('',#31,#36);
#31 = CYLINDRICAL_SURFACE('',#32,47.);
#32 = AXIS2_PLACEMENT_3D('',#33,#34,#35);
#33 = CARTESIAN_POINT('',(0.,0.,0.));
#34 = DIRECTION('',(0.,0.,1.));
#35 = DIRECTION('',(1.,0.,-0.));
#36 = DEFINITIONAL_REPRESENTATION('',(#37),#41);
#37 = LINE('',#38,#39);
#38 = CARTESIAN_POINT('',(0.,69.9));
#39 = VECTOR('',#40,1.);
#40 = DIRECTION('',(1.,0.));
#41 = ( GEOMETRIC_REPRESENTATION_CONTEXT(2) 
PARAMETRIC_REPRESENTATION_CONTEXT() REPRESENTATION_CONTEXT('2D SPACE',''
  ) );
#42 = PCURVE('',#43,#48);
#43 = PLANE('',#44);
#44 = AXIS2_PLACEMENT_3D('',#45,#46,#47);
#45 = CARTESIAN_POINT('',(0.,0.,69.9));
#46 = DIRECTION('',(0.,0.,1.));
#47 = DIRECTION('',(1.,0.,-0.));
#48 = DEFINITIONAL_REPRESENTATION('',(#49),#53);
#49 = CIRCLE('',#50,47.);
#50 = AXIS2_PLACEMENT_2D('',#51,#52);
#51 = CARTESIAN_POINT('',(0.,0.));
#52 = DIRECTION('',(1.,0.));
#53 = ( GEOMETRIC_REPRESENTATION_CONTEXT(2) 
PARAMETRIC_REPRESENTATION_CONTEXT() REPRESENTATION_CONTEXT('2D SPACE',''
  ) );
#54 = ORIENTED_EDGE('',*,*,#55,.F.);
#55 = EDGE_CURVE('',#56,#22,#58,.T.);
#56 = VERTEX_POINT('',#57);
#57 = CARTESIAN_POINT('',(47.,-1.151167991199E-14,0.));
#58 = SEAM_CURVE('',#59,(#63,#70),.PCURVE_S1.);
#59 = LINE('',#60,#61);
#60 = CARTESIAN_POINT('',(47.,-1.151167991199E-14,0.));
#61 = VECTOR('',#62,1.);
#62 = DIRECTION('',(0.,0.,1.));
#63 = PCURVE('',#31,#64);
#64 = DEFINITIONAL_REPRESENTATION('',(#65),#69);
#65 = LINE('',#66,#67);
#66 = CARTESIAN_POINT('',(6.28318530718,-0.));
#67 = VECTOR('',#68,1.);
#68 = DIRECTION('',(0.,1.));
#69 = ( GEOMETRIC_REPRESENTATION_CONTEXT(2) 
PARAMETRIC_REPRESENTATION_CONTEXT() REPRESENTATION_CONTEXT('2D SPACE',''
  ) );
#70 = PCURVE('',#31,#71);
#71 = DEFINITIONAL_REPRESENTATION('',(#72),#76);
#72 = LINE('',#73,#74);
#73 = CARTESIAN_POINT('',(0.,-0.));
#74 = VECTOR('',#75,1.);
#75 = DIRECTION('',(0.,1.));
#76 = ( GEOMETRIC_REPRESENTATION_CONTEXT(2) 
PARAMETRIC_REPRESENTATION_CONTEXT() REPRESENTATION_CONTEXT('2D SPACE',''
  ) );
#77 = ORIENTED_EDGE('',*,*,#78,.T.);
#78 = EDGE_CURVE('',#56,#56,#79,.T.);
#79 = SURFACE_CURVE('',#80,(#85,#92),.PCURVE_S1.);
#80 = CIRCLE('',#81,47.);
#81 = AXIS2_PLACEMENT_3D('',#82,#83,#84);
#82 = CARTESIAN_POINT('',(0.,0.,0.));
#83 = DIRECTION('',(0.,0.,1.));
#84 = DIRECTION('',(1.,0.,-0.));
#85 = PCURVE('',#31,#86);
#86 = DEFINITIONAL_REPRESENTATION('',(#87),#91);
#87 = LINE('',#88,#89);
#88 = CARTESIAN_POINT('',(0.,0.));
#89 = VECTOR('',#90,1.);
#90 = DIRECTION('',(1.,0.));
#91 = ( GEOMETRIC_REPRESENTATION_CONTEXT(2) 
PARAMETRIC_REPRESENTATION_CONTEXT() REPRESENTATION_CONTEXT('2D SPACE',''
  ) );
#92 = PCURVE('',#93,#98);
#93 = PLANE('',#94);
#94 = AXIS2_PLACEMENT_3D('',#95,#96,#97);
#95 = CARTESIAN_POINT('',(0.,0.,0.));
#96 = DIRECTION('',(0.,0.,1.));
#97 = DIRECTION('',(1.,0.,-0.));
#98 = DEFINITIONAL_REPRESENTATION('',(#99),#103);
#99 = CIRCLE('',#100,47.);
#100 = AXIS2_PLACEMENT_2D('',#101,#102);
#101 = CARTESIAN_POINT('',(0.,0.));
#102 = DIRECTION('',(1.,0.));
#103 = ( GEOMETRIC_REPRESENTATION_CONTEXT(2) 
PARAMETRIC_REPRESENTATION_CONTEXT() REPRESENTATION_CONTEXT('2D SPACE',''
  ) );
#104 = ORIENTED_EDGE('',*,*,#55,.T.);
#105 = ADVANCED_FACE('',(#106,#109),#93,.F.);
#106 = FACE_BOUND('',#107,.F.);
#107 = EDGE_LOOP('',(#108));
#108 = ORIENTED_EDGE('',*,*,#78,.T.);
#109 = FACE_BOUND('',#110,.F.);
#110 = EDGE_LOOP('',(#111,#193,#238,#283,#363,#411));
#111 = ORIENTED_EDGE('',*,*,#112,.F.);
#112 = EDGE_CURVE('',#113,#115,#117,.T.);
#113 = VERTEX_POINT('',#114);
#114 = CARTESIAN_POINT('',(-37.79213073791,-0.771267974243,0.));
#115 = VERTEX_POINT('',#116);
#116 = CARTESIAN_POINT('',(37.792130737918,-0.771267974243,0.));
#117 = SURFACE_CURVE('',#118,(#124,#133),.PCURVE_S1.);
#118 = ( BOUNDED_CURVE() B_SPLINE_CURVE(2,(#119,#120,#121,#122,#123),
.UNSPECIFIED.,.F.,.F.) B_SPLINE_CURVE_WITH_KNOTS((3,2,3),(3.161997984276
,4.712388980385,6.262779976493),.PIECEWISE_BEZIER_KNOTS.) CURVE() 
GEOMETRIC_REPRESENTATION_ITEM() RATIONAL_B_SPLINE_CURVE((1.,
0.714284227273,1.,0.714284227273,1.)) REPRESENTATION_ITEM('') );
#119 = CARTESIAN_POINT('',(-37.79213073791,-0.771267974243,0.));
#120 = CARTESIAN_POINT('',(-37.03644232922,-37.8,0.));
#121 = CARTESIAN_POINT('',(9.377568544283E-14,-37.8,0.));
#122 = CARTESIAN_POINT('',(37.03644232923,-37.8,0.));
#123 = CARTESIAN_POINT('',(37.792130737918,-0.771267974243,0.));
#124 = PCURVE('',#93,#125);
#125 = DEFINITIONAL_REPRESENTATION('',(#126),#132);
#126 = ( BOUNDED_CURVE() B_SPLINE_CURVE(2,(#127,#128,#129,#130,#131),
.UNSPECIFIED.,.F.,.F.) B_SPLINE_CURVE_WITH_KNOTS((3,2,3),(3.161997984276
,4.712388980385,6.262779976493),.PIECEWISE_BEZIER_KNOTS.) CURVE() 
GEOMETRIC_REPRESENTATION_ITEM() RATIONAL_B_SPLINE_CURVE((1.,
0.714284227273,1.,0.714284227273,1.)) REPRESENTATION_ITEM('') );
#127 = CARTESIAN_POINT('',(-37.79213073791,-0.771267974243));
#128 = CARTESIAN_POINT('',(-37.03644232922,-37.8));
#129 = CARTESIAN_POINT('',(9.377568544283E-14,-37.8));
#130 = CARTESIAN_POINT('',(37.03644232923,-37.8));
#131 = CARTESIAN_POINT('',(37.792130737918,-0.771267974243));
#132 = ( GEOMETRIC_REPRESENTATION_CONTEXT(2) 
PARAMETRIC_REPRESENTATION_CONTEXT() REPRESENTATION_CONTEXT('2D SPACE',''
  ) );
#133 = PCURVE('',#134,#159);
#134 = B_SPLINE_SURFACE_WITH_KNOTS('',11,1,(
    (#135,#136)
    ,(#137,#138)
    ,(#139,#140)
    ,(#141,#142)
    ,(#143,#144)
    ,(#145,#146)
    ,(#147,#148)
    ,(#149,#150)
    ,(#151,#152)
    ,(#153,#154)
    ,(#155,#156)
    ,(#157,#158
    )),.UNSPECIFIED.,.F.,.F.,.F.,(12,12),(2,2),(-73.5,0.),(0.,1.),
  .PIECEWISE_BEZIER_KNOTS.);
#135 = CARTESIAN_POINT('',(-37.79213073791,-0.771267974243,0.));
#136 = CARTESIAN_POINT('',(-36.75,-0.75,85.));
#137 = CARTESIAN_POINT('',(-37.57471857012,-11.42446419602,0.));
#138 = CARTESIAN_POINT('',(-30.06818181818,-0.75,85.));
#139 = CARTESIAN_POINT('',(-34.05398244305,-22.01024492189,0.));
#140 = CARTESIAN_POINT('',(-23.38636363636,-0.75,85.));
#141 = CARTESIAN_POINT('',(-27.25314953237,-31.390518583,0.));
#142 = CARTESIAN_POINT('',(-16.70454545454,-0.75,85.));
#143 = CARTESIAN_POINT('',(-17.63656680973,-38.43615531257,0.));
#144 = CARTESIAN_POINT('',(-10.02272727272,-0.75,85.));
#145 = CARTESIAN_POINT('',(-6.105738169345,-42.22257429826,0.));
#146 = CARTESIAN_POINT('',(-3.340909090909,-0.75,85.));
#147 = CARTESIAN_POINT('',(6.105738169345,-42.22257429824,0.));
#148 = CARTESIAN_POINT('',(3.340909090909,-0.75,85.));
#149 = CARTESIAN_POINT('',(17.636566809734,-38.43615531259,0.));
#150 = CARTESIAN_POINT('',(10.022727272727,-0.75,85.));
#151 = CARTESIAN_POINT('',(27.253149532378,-31.39051858299,0.));
#152 = CARTESIAN_POINT('',(16.704545454545,-0.75,85.));
#153 = CARTESIAN_POINT('',(34.053982443054,-22.01024492189,0.));
#154 = CARTESIAN_POINT('',(23.386363636364,-0.75,85.));
#155 = CARTESIAN_POINT('',(37.574718570127,-11.42446419602,0.));
#156 = CARTESIAN_POINT('',(30.068181818182,-0.75,85.));
#157 = CARTESIAN_POINT('',(37.792130737918,-0.771267974243,0.));
#158 = CARTESIAN_POINT('',(36.75,-0.75,85.));
#159 = DEFINITIONAL_REPRESENTATION('',(#160),#192);
#160 = B_SPLINE_CURVE_WITH_KNOTS('',8,(#161,#162,#163,#164,#165,#166,
    #167,#168,#169,#170,#171,#172,#173,#174,#175,#176,#177,#178,#179,
    #180,#181,#182,#183,#184,#185,#186,#187,#188,#189,#190,#191),
  .UNSPECIFIED.,.F.,.F.,(9,7,8,7,9),(3.161997984276,3.937193482331,
    4.712388980385,5.487584478439,6.262779976493),.UNSPECIFIED.);
#161 = CARTESIAN_POINT('',(-73.5,-8.798355588992E-16));
#162 = CARTESIAN_POINT('',(-71.42635385601,-5.046002610772E-13));
#163 = CARTESIAN_POINT('',(-69.26806897111,3.236170357879E-12));
#164 = CARTESIAN_POINT('',(-67.0311888298,-2.304615762635E-11));
#165 = CARTESIAN_POINT('',(-64.7252221452,7.932901996836E-12));
#166 = CARTESIAN_POINT('',(-62.36356716183,4.079951933392E-11));
#167 = CARTESIAN_POINT('',(-59.96351172449,-3.305419452236E-12));
#168 = CARTESIAN_POINT('',(-57.5442559006,-1.69855514808E-11));
#169 = CARTESIAN_POINT('',(-52.70574409078,-1.868460241383E-11));
#170 = CARTESIAN_POINT('',(-50.28648827772,-3.173978727654E-12));
#171 = CARTESIAN_POINT('',(-47.88643283164,3.849275533671E-11));
#172 = CARTESIAN_POINT('',(-45.52477788133,7.106033769623E-11));
#173 = CARTESIAN_POINT('',(-43.21881117764,1.609753203872E-11));
#174 = CARTESIAN_POINT('',(-40.98193098523,-1.450914404471E-11));
#175 = CARTESIAN_POINT('',(-38.82364614339,-3.26095455247E-11));
#176 = CARTESIAN_POINT('',(-36.75,-3.24733399237E-11));
#177 = CARTESIAN_POINT('',(-34.67635385619,-3.260807114343E-11));
#178 = CARTESIAN_POINT('',(-32.51806901767,-1.450792643281E-11));
#179 = CARTESIAN_POINT('',(-30.28118881001,1.610404600445E-11));
#180 = CARTESIAN_POINT('',(-27.97522212308,7.106295917795E-11));
#181 = CARTESIAN_POINT('',(-25.61356715508,3.850046266221E-11));
#182 = CARTESIAN_POINT('',(-23.21351172548,-3.167213556197E-12));
#183 = CARTESIAN_POINT('',(-20.79425590885,-1.867665773778E-11));
#184 = CARTESIAN_POINT('',(-15.9557440994,-1.697730048863E-11));
#185 = CARTESIAN_POINT('',(-13.53648827709,-3.296073059713E-12));
#186 = CARTESIAN_POINT('',(-11.13643282422,4.080462621733E-11));
#187 = CARTESIAN_POINT('',(-8.774777841696,7.944345793125E-12));
#188 = CARTESIAN_POINT('',(-6.468811165367,-2.304358801111E-11));
#189 = CARTESIAN_POINT('',(-4.231931030808,3.242024975481E-12));
#190 = CARTESIAN_POINT('',(-2.073646143632,-5.023920407828E-13));
#191 = CARTESIAN_POINT('',(2.448242927122E-14,-2.778780540083E-17));
#192 = ( GEOMETRIC_REPRESENTATION_CONTEXT(2) 
PARAMETRIC_REPRESENTATION_CONTEXT() REPRESENTATION_CONTEXT('2D SPACE',''
  ) );
#193 = ORIENTED_EDGE('',*,*,#194,.F.);
#194 = EDGE_CURVE('',#195,#113,#197,.T.);
#195 = VERTEX_POINT('',#196);
#196 = CARTESIAN_POINT('',(-37.79999986313,3.216713912749E-03,0.));
#197 = SURFACE_CURVE('',#198,(#202,#209),.PCURVE_S1.);
#198 = ( BOUNDED_CURVE() B_SPLINE_CURVE(2,(#199,#200,#201),
.UNSPECIFIED.,.F.,.F.) B_SPLINE_CURVE_WITH_KNOTS((3,3),(3.141507555338,
3.161997984276),.PIECEWISE_BEZIER_KNOTS.) CURVE() 
GEOMETRIC_REPRESENTATION_ITEM() RATIONAL_B_SPLINE_CURVE((1.,
0.999947518249,1.)) REPRESENTATION_ITEM('') );
#199 = CARTESIAN_POINT('',(-37.79999986313,3.216713912749E-03,0.));
#200 = CARTESIAN_POINT('',(-37.8000328202,-0.384065942013,0.));
#201 = CARTESIAN_POINT('',(-37.79213073791,-0.771267974243,0.));
#202 = PCURVE('',#93,#203);
#203 = DEFINITIONAL_REPRESENTATION('',(#204),#208);
#204 = ( BOUNDED_CURVE() B_SPLINE_CURVE(2,(#205,#206,#207),
.UNSPECIFIED.,.F.,.F.) B_SPLINE_CURVE_WITH_KNOTS((3,3),(3.141507555338,
3.161997984276),.PIECEWISE_BEZIER_KNOTS.) CURVE() 
GEOMETRIC_REPRESENTATION_ITEM() RATIONAL_B_SPLINE_CURVE((1.,
0.999947518249,1.)) REPRESENTATION_ITEM('') );
#205 = CARTESIAN_POINT('',(-37.79999986313,3.216713912749E-03));
#206 = CARTESIAN_POINT('',(-37.8000328202,-0.384065942013));
#207 = CARTESIAN_POINT('',(-37.79213073791,-0.771267974243));
#208 = ( GEOMETRIC_REPRESENTATION_CONTEXT(2) 
PARAMETRIC_REPRESENTATION_CONTEXT() REPRESENTATION_CONTEXT('2D SPACE',''
  ) );
#209 = PCURVE('',#210,#231);
#210 = B_SPLINE_SURFACE_WITH_KNOTS('',9,1,(
    (#211,#212)
    ,(#213,#214)
    ,(#215,#216)
    ,(#217,#218)
    ,(#219,#220)
    ,(#221,#222)
    ,(#223,#224)
    ,(#225,#226)
    ,(#227,#228)
    ,(#229,#230
    )),.UNSPECIFIED.,.F.,.F.,.F.,(10,10),(2,2),(3.14159265359,
    6.28318530718),(0.,1.),.PIECEWISE_BEZIER_KNOTS.);
#211 = CARTESIAN_POINT('',(-37.79213073791,0.771267974243,0.));
#212 = CARTESIAN_POINT('',(-36.75,0.75,85.));
#213 = CARTESIAN_POINT('',(-37.79562806637,0.599898879786,0.));
#214 = CARTESIAN_POINT('',(-37.01179938779,0.75,85.));
#215 = CARTESIAN_POINT('',(-37.79825118407,0.428511943798,0.));
#216 = CARTESIAN_POINT('',(-37.27360149249,0.647191900061,
    84.999999999999));
#217 = CARTESIAN_POINT('',(-37.79999998699,0.257112263859,0.));
#218 = CARTESIAN_POINT('',(-37.48924283384,0.44157278914,85.000000000003
    ));
#219 = CARTESIAN_POINT('',(-37.80087440579,8.570493754982E-02,0.));
#220 = CARTESIAN_POINT('',(-37.61268047281,0.157317457926,
    84.999999999994));
#221 = CARTESIAN_POINT('',(-37.80087440579,-8.570493754981E-02,0.));
#222 = CARTESIAN_POINT('',(-37.61268047282,-0.157317457926,
    85.000000000006));
#223 = CARTESIAN_POINT('',(-37.79999998699,-0.257112263859,0.));
#224 = CARTESIAN_POINT('',(-37.48924283383,-0.44157278914,
    84.999999999995));
#225 = CARTESIAN_POINT('',(-37.79825118407,-0.428511943798,0.));
#226 = CARTESIAN_POINT('',(-37.2736014925,-0.647191900061,
    85.000000000003));
#227 = CARTESIAN_POINT('',(-37.79562806637,-0.599898879786,0.));
#228 = CARTESIAN_POINT('',(-37.01179938779,-0.75,84.999999999999));
#229 = CARTESIAN_POINT('',(-37.79213073791,-0.771267974243,0.));
#230 = CARTESIAN_POINT('',(-36.75,-0.75,85.));
#231 = DEFINITIONAL_REPRESENTATION('',(#232),#237);
#232 = B_SPLINE_CURVE_WITH_KNOTS('',3,(#233,#234,#235,#236),
  .UNSPECIFIED.,.F.,.F.,(4,4),(3.141507555338,3.161997984276),
  .PIECEWISE_BEZIER_KNOTS.);
#233 = CARTESIAN_POINT('',(4.7058381421,-1.840462924852E-16));
#234 = CARTESIAN_POINT('',(5.231611333441,-2.326579579683E-16));
#235 = CARTESIAN_POINT('',(5.757412117378,-6.863707170787E-16));
#236 = CARTESIAN_POINT('',(6.28318530718,-8.791071091129E-16));
#237 = ( GEOMETRIC_REPRESENTATION_CONTEXT(2) 
PARAMETRIC_REPRESENTATION_CONTEXT() REPRESENTATION_CONTEXT('2D SPACE',''
  ) );
#238 = ORIENTED_EDGE('',*,*,#239,.F.);
#239 = EDGE_CURVE('',#240,#195,#242,.T.);
#240 = VERTEX_POINT('',#241);
#241 = CARTESIAN_POINT('',(-37.79213073791,0.771267974243,0.));
#242 = SURFACE_CURVE('',#243,(#247,#254),.PCURVE_S1.);
#243 = ( BOUNDED_CURVE() B_SPLINE_CURVE(2,(#244,#245,#246),
.UNSPECIFIED.,.F.,.F.) B_SPLINE_CURVE_WITH_KNOTS((3,3),(3.121187322903,
3.141507555338),.PIECEWISE_BEZIER_KNOTS.) CURVE() 
GEOMETRIC_REPRESENTATION_ITEM() RATIONAL_B_SPLINE_CURVE((1.,
0.999948386463,1.)) REPRESENTATION_ITEM('') );
#244 = CARTESIAN_POINT('',(-37.79213073791,0.771267974243,0.));
#245 = CARTESIAN_POINT('',(-37.79996717982,0.387282321067,0.));
#246 = CARTESIAN_POINT('',(-37.79999986313,3.216713912749E-03,0.));
#247 = PCURVE('',#93,#248);
#248 = DEFINITIONAL_REPRESENTATION('',(#249),#253);
#249 = ( BOUNDED_CURVE() B_SPLINE_CURVE(2,(#250,#251,#252),
.UNSPECIFIED.,.F.,.F.) B_SPLINE_CURVE_WITH_KNOTS((3,3),(3.121187322903,
3.141507555338),.PIECEWISE_BEZIER_KNOTS.) CURVE() 
GEOMETRIC_REPRESENTATION_ITEM() RATIONAL_B_SPLINE_CURVE((1.,
0.999948386463,1.)) REPRESENTATION_ITEM('') );
#250 = CARTESIAN_POINT('',(-37.79213073791,0.771267974243));
#251 = CARTESIAN_POINT('',(-37.79996717982,0.387282321067));
#252 = CARTESIAN_POINT('',(-37.79999986313,3.216713912749E-03));
#253 = ( GEOMETRIC_REPRESENTATION_CONTEXT(2) 
PARAMETRIC_REPRESENTATION_CONTEXT() REPRESENTATION_CONTEXT('2D SPACE',''
  ) );
#254 = PCURVE('',#255,#276);
#255 = B_SPLINE_SURFACE_WITH_KNOTS('',9,1,(
    (#256,#257)
    ,(#258,#259)
    ,(#260,#261)
    ,(#262,#263)
    ,(#264,#265)
    ,(#266,#267)
    ,(#268,#269)
    ,(#270,#271)
    ,(#272,#273)
    ,(#274,#275
    )),.UNSPECIFIED.,.F.,.F.,.F.,(10,10),(2,2),(3.14159265359,
    6.28318530718),(0.,1.),.PIECEWISE_BEZIER_KNOTS.);
#256 = CARTESIAN_POINT('',(-37.79213073791,0.771267974243,0.));
#257 = CARTESIAN_POINT('',(-36.75,0.75,85.));
#258 = CARTESIAN_POINT('',(-37.79562806637,0.599898879786,0.));
#259 = CARTESIAN_POINT('',(-37.01179938779,0.75,85.));
#260 = CARTESIAN_POINT('',(-37.79825118407,0.428511943798,0.));
#261 = CARTESIAN_POINT('',(-37.27360149249,0.647191900061,
    84.999999999999));
#262 = CARTESIAN_POINT('',(-37.79999998699,0.257112263859,0.));
#263 = CARTESIAN_POINT('',(-37.48924283384,0.44157278914,85.000000000003
    ));
#264 = CARTESIAN_POINT('',(-37.80087440579,8.570493754982E-02,0.));
#265 = CARTESIAN_POINT('',(-37.61268047281,0.157317457926,
    84.999999999994));
#266 = CARTESIAN_POINT('',(-37.80087440579,-8.570493754981E-02,0.));
#267 = CARTESIAN_POINT('',(-37.61268047282,-0.157317457926,
    85.000000000006));
#268 = CARTESIAN_POINT('',(-37.79999998699,-0.257112263859,0.));
#269 = CARTESIAN_POINT('',(-37.48924283383,-0.44157278914,
    84.999999999995));
#270 = CARTESIAN_POINT('',(-37.79825118407,-0.428511943798,0.));
#271 = CARTESIAN_POINT('',(-37.2736014925,-0.647191900061,
    85.000000000003));
#272 = CARTESIAN_POINT('',(-37.79562806637,-0.599898879786,0.));
#273 = CARTESIAN_POINT('',(-37.01179938779,-0.75,84.999999999999));
#274 = CARTESIAN_POINT('',(-37.79213073791,-0.771267974243,0.));
#275 = CARTESIAN_POINT('',(-36.75,-0.75,85.));
#276 = DEFINITIONAL_REPRESENTATION('',(#277),#282);
#277 = B_SPLINE_CURVE_WITH_KNOTS('',3,(#278,#279,#280,#281),
  .UNSPECIFIED.,.F.,.F.,(4,4),(3.121187322903,3.141507555338),
  .PIECEWISE_BEZIER_KNOTS.);
#278 = CARTESIAN_POINT('',(3.14159265359,-8.788469484973E-16));
#279 = CARTESIAN_POINT('',(3.662998845192,-6.739008611984E-16));
#280 = CARTESIAN_POINT('',(4.184431948985,-2.616236622183E-16));
#281 = CARTESIAN_POINT('',(4.7058381421,-1.840462924852E-16));
#282 = ( GEOMETRIC_REPRESENTATION_CONTEXT(2) 
PARAMETRIC_REPRESENTATION_CONTEXT() REPRESENTATION_CONTEXT('2D SPACE',''
  ) );
#283 = ORIENTED_EDGE('',*,*,#284,.F.);
#284 = EDGE_CURVE('',#285,#240,#287,.T.);
#285 = VERTEX_POINT('',#286);
#286 = CARTESIAN_POINT('',(37.799999863132,3.216713912751E-03,0.));
#287 = SURFACE_CURVE('',#288,(#294,#303),.PCURVE_S1.);
#288 = ( BOUNDED_CURVE() B_SPLINE_CURVE(2,(#289,#290,#291,#292,#293),
.UNSPECIFIED.,.F.,.F.) B_SPLINE_CURVE_WITH_KNOTS((3,2,3),(
    8.509825176279E-05,1.560636210578,3.121187322903),
.PIECEWISE_BEZIER_KNOTS.) CURVE() GEOMETRIC_REPRESENTATION_ITEM() 
RATIONAL_B_SPLINE_CURVE((1.,0.710719718046,1.,0.710719718046,1.)) 
REPRESENTATION_ITEM('') );
#289 = CARTESIAN_POINT('',(37.799999863132,3.216713912751E-03,0.));
#290 = CARTESIAN_POINT('',(37.796815937468,37.417917835407,0.));
#291 = CARTESIAN_POINT('',(0.38404578556,37.79804900831,0.));
#292 = CARTESIAN_POINT('',(-37.02872436634,38.178180181213,0.));
#293 = CARTESIAN_POINT('',(-37.79213073791,0.771267974243,0.));
#294 = PCURVE('',#93,#295);
#295 = DEFINITIONAL_REPRESENTATION('',(#296),#302);
#296 = ( BOUNDED_CURVE() B_SPLINE_CURVE(2,(#297,#298,#299,#300,#301),
.UNSPECIFIED.,.F.,.F.) B_SPLINE_CURVE_WITH_KNOTS((3,2,3),(
    8.509825176279E-05,1.560636210578,3.121187322903),
.PIECEWISE_BEZIER_KNOTS.) CURVE() GEOMETRIC_REPRESENTATION_ITEM() 
RATIONAL_B_SPLINE_CURVE((1.,0.710719718046,1.,0.710719718046,1.)) 
REPRESENTATION_ITEM('') );
#297 = CARTESIAN_POINT('',(37.799999863132,3.216713912751E-03));
#298 = CARTESIAN_POINT('',(37.796815937468,37.417917835407));
#299 = CARTESIAN_POINT('',(0.38404578556,37.79804900831));
#300 = CARTESIAN_POINT('',(-37.02872436634,38.178180181213));
#301 = CARTESIAN_POINT('',(-37.79213073791,0.771267974243));
#302 = ( GEOMETRIC_REPRESENTATION_CONTEXT(2) 
PARAMETRIC_REPRESENTATION_CONTEXT() REPRESENTATION_CONTEXT('2D SPACE',''
  ) );
#303 = PCURVE('',#304,#329);
#304 = B_SPLINE_SURFACE_WITH_KNOTS('',11,1,(
    (#305,#306)
    ,(#307,#308)
    ,(#309,#310)
    ,(#311,#312)
    ,(#313,#314)
    ,(#315,#316)
    ,(#317,#318)
    ,(#319,#320)
    ,(#321,#322)
    ,(#323,#324)
    ,(#325,#326)
    ,(#327,#328
    )),.UNSPECIFIED.,.F.,.F.,.F.,(12,12),(2,2),(-73.5,0.),(0.,1.),
  .PIECEWISE_BEZIER_KNOTS.);
#305 = CARTESIAN_POINT('',(37.8,-7.105427357601E-15,0.));
#306 = CARTESIAN_POINT('',(36.75,0.75,85.));
#307 = CARTESIAN_POINT('',(37.8,10.725534618702,0.));
#308 = CARTESIAN_POINT('',(30.068181818182,0.75,85.));
#309 = CARTESIAN_POINT('',(34.452359659639,21.451068457069,0.));
#310 = CARTESIAN_POINT('',(23.386363636364,0.75,85.));
#311 = CARTESIAN_POINT('',(27.757079789678,31.015652162493,0.));
#312 = CARTESIAN_POINT('',(16.704545454545,0.75,85.));
#313 = CARTESIAN_POINT('',(18.167101192845,38.2582922896,0.));
#314 = CARTESIAN_POINT('',(10.022727272727,0.75,85.));
#315 = CARTESIAN_POINT('',(6.588333853533,42.220109895496,0.));
#316 = CARTESIAN_POINT('',(3.340909090909,0.75,85.));
#317 = CARTESIAN_POINT('',(-5.725506764718,42.345748249928,0.));
#318 = CARTESIAN_POINT('',(-3.340909090909,0.75,85.));
#319 = CARTESIAN_POINT('',(-17.38270020679,38.621007601877,0.));
#320 = CARTESIAN_POINT('',(-10.02272727272,0.75,85.));
#321 = CARTESIAN_POINT('',(-27.11846055823,31.575548363709,0.));
#322 = CARTESIAN_POINT('',(-16.70454545454,0.75,85.));
#323 = CARTESIAN_POINT('',(-34.00750154424,22.149565747081,0.));
#324 = CARTESIAN_POINT('',(-23.38636363636,0.75,85.));
#325 = CARTESIAN_POINT('',(-37.57328784484,11.494569734672,0.));
#326 = CARTESIAN_POINT('',(-30.06818181818,0.75,85.));
#327 = CARTESIAN_POINT('',(-37.79213073791,0.771267974243,0.));
#328 = CARTESIAN_POINT('',(-36.75,0.75,85.));
#329 = DEFINITIONAL_REPRESENTATION('',(#330),#362);
#330 = B_SPLINE_CURVE_WITH_KNOTS('',8,(#331,#332,#333,#334,#335,#336,
    #337,#338,#339,#340,#341,#342,#343,#344,#345,#346,#347,#348,#349,
    #350,#351,#352,#353,#354,#355,#356,#357,#358,#359,#360,#361),
  .UNSPECIFIED.,.F.,.F.,(9,7,8,7,9),(8.509825176279E-05,0.780360654415,
    1.560636210578,2.34091176674,3.121187322903),.UNSPECIFIED.);
#331 = CARTESIAN_POINT('',(-73.49799604417,1.524641813452E-18));
#332 = CARTESIAN_POINT('',(-71.42725223317,-5.318370754911E-13));
#333 = CARTESIAN_POINT('',(-69.27093372109,3.458837290974E-12));
#334 = CARTESIAN_POINT('',(-67.03504897002,-2.354113022462E-11));
#335 = CARTESIAN_POINT('',(-64.72913674032,6.930057345956E-12));
#336 = CARTESIAN_POINT('',(-62.36671409243,4.395501778083E-11));
#337 = CARTESIAN_POINT('',(-59.965304184,-3.480677506874E-12));
#338 = CARTESIAN_POINT('',(-57.54440065624,-1.809459541882E-11));
#339 = CARTESIAN_POINT('',(-52.70259340008,-1.998939833111E-11));
#340 = CARTESIAN_POINT('',(-50.28168988681,-3.426685078971E-12));
#341 = CARTESIAN_POINT('',(-47.88027996523,4.13678990679E-11));
#342 = CARTESIAN_POINT('',(-45.51785733876,7.677932690808E-11));
#343 = CARTESIAN_POINT('',(-43.21194509207,1.725577399088E-11));
#344 = CARTESIAN_POINT('',(-40.97606030281,-1.569348557218E-11));
#345 = CARTESIAN_POINT('',(-38.81974183261,-3.523623730468E-11));
#346 = CARTESIAN_POINT('',(-36.74899802208,-3.509542421076E-11));
#347 = CARTESIAN_POINT('',(-34.67825421181,-3.525168068668E-11));
#348 = CARTESIAN_POINT('',(-32.52193574735,-1.571549200951E-11));
#349 = CARTESIAN_POINT('',(-30.28605094051,1.723748295352E-11));
#350 = CARTESIAN_POINT('',(-27.98013869673,7.695893878606E-11));
#351 = CARTESIAN_POINT('',(-25.617716067,4.17302557154E-11));
#352 = CARTESIAN_POINT('',(-23.21630616189,-3.436258259337E-12));
#353 = CARTESIAN_POINT('',(-20.79540264341,-2.016266662656E-11));
#354 = CARTESIAN_POINT('',(-15.95359538832,-1.828934306675E-11));
#355 = CARTESIAN_POINT('',(-13.53269186186,-3.577782625959E-12));
#356 = CARTESIAN_POINT('',(-11.13128194341,4.439567841877E-11));
#357 = CARTESIAN_POINT('',(-8.768859282136,7.420840177089E-12));
#358 = CARTESIAN_POINT('',(-6.462947067339,-2.41995499286E-11));
#359 = CARTESIAN_POINT('',(-4.227062325503,3.583167903844E-12));
#360 = CARTESIAN_POINT('',(-2.070743810764,-5.472678737763E-13));
#361 = CARTESIAN_POINT('',(6.309743972136E-15,-8.788040701606E-16));
#362 = ( GEOMETRIC_REPRESENTATION_CONTEXT(2) 
PARAMETRIC_REPRESENTATION_CONTEXT() REPRESENTATION_CONTEXT('2D SPACE',''
  ) );
#363 = ORIENTED_EDGE('',*,*,#364,.F.);
#364 = EDGE_CURVE('',#365,#285,#367,.T.);
#365 = VERTEX_POINT('',#366);
#366 = CARTESIAN_POINT('',(37.8,0.,0.));
#367 = SURFACE_CURVE('',#368,(#372,#379),.PCURVE_S1.);
#368 = ( BOUNDED_CURVE() B_SPLINE_CURVE(2,(#369,#370,#371),
.UNSPECIFIED.,.F.,.F.) B_SPLINE_CURVE_WITH_KNOTS((3,3),(0.,
8.509825176279E-05),.PIECEWISE_BEZIER_KNOTS.) CURVE() 
GEOMETRIC_REPRESENTATION_ITEM() RATIONAL_B_SPLINE_CURVE((1.,
0.999999999095,1.)) REPRESENTATION_ITEM('') );
#369 = CARTESIAN_POINT('',(37.8,0.,0.));
#370 = CARTESIAN_POINT('',(37.8,1.608356959287E-03,0.));
#371 = CARTESIAN_POINT('',(37.799999863132,3.216713912751E-03,0.));
#372 = PCURVE('',#93,#373);
#373 = DEFINITIONAL_REPRESENTATION('',(#374),#378);
#374 = ( BOUNDED_CURVE() B_SPLINE_CURVE(2,(#375,#376,#377),
.UNSPECIFIED.,.F.,.F.) B_SPLINE_CURVE_WITH_KNOTS((3,3),(0.,
8.509825176279E-05),.PIECEWISE_BEZIER_KNOTS.) CURVE() 
GEOMETRIC_REPRESENTATION_ITEM() RATIONAL_B_SPLINE_CURVE((1.,
0.999999999095,1.)) REPRESENTATION_ITEM('') );
#375 = CARTESIAN_POINT('',(37.8,0.));
#376 = CARTESIAN_POINT('',(37.8,1.608356959287E-03));
#377 = CARTESIAN_POINT('',(37.799999863132,3.216713912751E-03));
#378 = ( GEOMETRIC_REPRESENTATION_CONTEXT(2) 
PARAMETRIC_REPRESENTATION_CONTEXT() REPRESENTATION_CONTEXT('2D SPACE',''
  ) );
#379 = PCURVE('',#380,#405);
#380 = B_SPLINE_SURFACE_WITH_KNOTS('',11,1,(
    (#381,#382)
    ,(#383,#384)
    ,(#385,#386)
    ,(#387,#388)
    ,(#389,#390)
    ,(#391,#392)
    ,(#393,#394)
    ,(#395,#396)
    ,(#397,#398)
    ,(#399,#400)
    ,(#401,#402)
    ,(#403,#404
    )),.UNSPECIFIED.,.F.,.F.,.F.,(12,12),(2,2),(-73.5,0.),(0.,1.),
  .PIECEWISE_BEZIER_KNOTS.);
#381 = CARTESIAN_POINT('',(37.8,-7.105427357601E-15,0.));
#382 = CARTESIAN_POINT('',(36.75,0.75,85.));
#383 = CARTESIAN_POINT('',(37.8,10.725534618702,0.));
#384 = CARTESIAN_POINT('',(30.068181818182,0.75,85.));
#385 = CARTESIAN_POINT('',(34.452359659639,21.451068457069,0.));
#386 = CARTESIAN_POINT('',(23.386363636364,0.75,85.));
#387 = CARTESIAN_POINT('',(27.757079789678,31.015652162493,0.));
#388 = CARTESIAN_POINT('',(16.704545454545,0.75,85.));
#389 = CARTESIAN_POINT('',(18.167101192845,38.2582922896,0.));
#390 = CARTESIAN_POINT('',(10.022727272727,0.75,85.));
#391 = CARTESIAN_POINT('',(6.588333853533,42.220109895496,0.));
#392 = CARTESIAN_POINT('',(3.340909090909,0.75,85.));
#393 = CARTESIAN_POINT('',(-5.725506764718,42.345748249928,0.));
#394 = CARTESIAN_POINT('',(-3.340909090909,0.75,85.));
#395 = CARTESIAN_POINT('',(-17.38270020679,38.621007601877,0.));
#396 = CARTESIAN_POINT('',(-10.02272727272,0.75,85.));
#397 = CARTESIAN_POINT('',(-27.11846055823,31.575548363709,0.));
#398 = CARTESIAN_POINT('',(-16.70454545454,0.75,85.));
#399 = CARTESIAN_POINT('',(-34.00750154424,22.149565747081,0.));
#400 = CARTESIAN_POINT('',(-23.38636363636,0.75,85.));
#401 = CARTESIAN_POINT('',(-37.57328784484,11.494569734672,0.));
#402 = CARTESIAN_POINT('',(-30.06818181818,0.75,85.));
#403 = CARTESIAN_POINT('',(-37.79213073791,0.771267974243,0.));
#404 = CARTESIAN_POINT('',(-36.75,0.75,85.));
#405 = DEFINITIONAL_REPRESENTATION('',(#406),#410);
#406 = B_SPLINE_CURVE_WITH_KNOTS('',2,(#407,#408,#409),.UNSPECIFIED.,.F.
  ,.F.,(3,3),(0.,8.509825176279E-05),.PIECEWISE_BEZIER_KNOTS.);
#407 = CARTESIAN_POINT('',(-73.5,0.));
#408 = CARTESIAN_POINT('',(-73.49899802208,1.969311496521E-18));
#409 = CARTESIAN_POINT('',(-73.49799604417,1.524641813452E-18));
#410 = ( GEOMETRIC_REPRESENTATION_CONTEXT(2) 
PARAMETRIC_REPRESENTATION_CONTEXT() REPRESENTATION_CONTEXT('2D SPACE',''
  ) );
#411 = ORIENTED_EDGE('',*,*,#412,.F.);
#412 = EDGE_CURVE('',#115,#365,#413,.T.);
#413 = SURFACE_CURVE('',#414,(#418,#425),.PCURVE_S1.);
#414 = ( BOUNDED_CURVE() B_SPLINE_CURVE(2,(#415,#416,#417),
.UNSPECIFIED.,.F.,.F.) B_SPLINE_CURVE_WITH_KNOTS((3,3),(6.262779976493,
6.28318530718),.PIECEWISE_BEZIER_KNOTS.) CURVE() 
GEOMETRIC_REPRESENTATION_ITEM() RATIONAL_B_SPLINE_CURVE((1.,
0.999947953261,1.)) REPRESENTATION_ITEM('') );
#415 = CARTESIAN_POINT('',(37.792130737918,-0.771267974243,0.));
#416 = CARTESIAN_POINT('',(37.8,-0.385674132238,0.));
#417 = CARTESIAN_POINT('',(37.8,-9.258329801554E-15,0.));
#418 = PCURVE('',#93,#419);
#419 = DEFINITIONAL_REPRESENTATION('',(#420),#424);
#420 = ( BOUNDED_CURVE() B_SPLINE_CURVE(2,(#421,#422,#423),
.UNSPECIFIED.,.F.,.F.) B_SPLINE_CURVE_WITH_KNOTS((3,3),(6.262779976493,
6.28318530718),.PIECEWISE_BEZIER_KNOTS.) CURVE() 
GEOMETRIC_REPRESENTATION_ITEM() RATIONAL_B_SPLINE_CURVE((1.,
0.999947953261,1.)) REPRESENTATION_ITEM('') );
#421 = CARTESIAN_POINT('',(37.792130737918,-0.771267974243));
#422 = CARTESIAN_POINT('',(37.8,-0.385674132238));
#423 = CARTESIAN_POINT('',(37.8,-9.258329801554E-15));
#424 = ( GEOMETRIC_REPRESENTATION_CONTEXT(2) 
PARAMETRIC_REPRESENTATION_CONTEXT() REPRESENTATION_CONTEXT('2D SPACE',''
  ) );
#425 = PCURVE('',#426,#447);
#426 = B_SPLINE_SURFACE_WITH_KNOTS('',9,1,(
    (#427,#428)
    ,(#429,#430)
    ,(#431,#432)
    ,(#433,#434)
    ,(#435,#436)
    ,(#437,#438)
    ,(#439,#440)
    ,(#441,#442)
    ,(#443,#444)
    ,(#445,#446
    )),.UNSPECIFIED.,.F.,.F.,.F.,(10,10),(2,2),(3.14159265359,
    6.28318530718),(0.,1.),.PIECEWISE_BEZIER_KNOTS.);
#427 = CARTESIAN_POINT('',(37.792130737918,-0.771267974243,0.));
#428 = CARTESIAN_POINT('',(36.75,-0.75,85.));
#429 = CARTESIAN_POINT('',(37.793879402147,-0.685583427015,0.));
#430 = CARTESIAN_POINT('',(37.011799387799,-0.75,85.));
#431 = CARTESIAN_POINT('',(37.795409506102,-0.599894419434,0.));
#432 = CARTESIAN_POINT('',(37.273601492499,-0.647191900061,
    84.999999999999));
#433 = CARTESIAN_POINT('',(37.796721043281,-0.514201588687,0.));
#434 = CARTESIAN_POINT('',(37.48924283384,-0.44157278914,85.000000000003
    ));
#435 = CARTESIAN_POINT('',(37.797814007183,-0.428505571955,0.));
#436 = CARTESIAN_POINT('',(37.612680472816,-0.157317457926,
    84.999999999994));
#437 = CARTESIAN_POINT('',(37.798688391308,-0.342807006425,0.));
#438 = CARTESIAN_POINT('',(37.612680472822,0.157317457926,
    85.000000000006));
#439 = CARTESIAN_POINT('',(37.799344189153,-0.25710652928,0.));
#440 = CARTESIAN_POINT('',(37.489242833835,0.44157278914,84.999999999995
    ));
#441 = CARTESIAN_POINT('',(37.799781394217,-0.171404777705,0.));
#442 = CARTESIAN_POINT('',(37.2736014925,0.647191900061,85.000000000003)
  );
#443 = CARTESIAN_POINT('',(37.8,-8.570238888347E-02,0.));
#444 = CARTESIAN_POINT('',(37.011799387799,0.75,84.999999999999));
#445 = CARTESIAN_POINT('',(37.8,-9.27036225562E-15,0.));
#446 = CARTESIAN_POINT('',(36.75,0.75,85.));
#447 = DEFINITIONAL_REPRESENTATION('',(#448),#453);
#448 = B_SPLINE_CURVE_WITH_KNOTS('',3,(#449,#450,#451,#452),
  .UNSPECIFIED.,.F.,.F.,(4,4),(6.262779976493,6.28318530718),
  .PIECEWISE_BEZIER_KNOTS.);
#449 = CARTESIAN_POINT('',(3.14159265359,-2.861285185269E-17));
#450 = CARTESIAN_POINT('',(4.188772037258,-7.799162755923E-13));
#451 = CARTESIAN_POINT('',(5.236005923514,-7.977649123097E-13));
#452 = CARTESIAN_POINT('',(6.28318530718,-2.427574763705E-26));
#453 = ( GEOMETRIC_REPRESENTATION_CONTEXT(2) 
PARAMETRIC_REPRESENTATION_CONTEXT() REPRESENTATION_CONTEXT('2D SPACE',''
  ) );
#454 = ADVANCED_FACE('',(#455),#210,.F.);
#455 = FACE_BOUND('',#456,.F.);
#456 = EDGE_LOOP('',(#457,#493,#494,#516));
#457 = ORIENTED_EDGE('',*,*,#458,.F.);
#458 = EDGE_CURVE('',#195,#459,#461,.T.);
#459 = VERTEX_POINT('',#460);
#460 = CARTESIAN_POINT('',(-37.4999931018,3.216713912751E-03,85.));
#461 = SURFACE_CURVE('',#462,(#473,#483),.PCURVE_S1.);
#462 = B_SPLINE_CURVE_WITH_KNOTS('',5,(#463,#464,#465,#466,#467,#468,
    #469,#470,#471,#472),.UNSPECIFIED.,.F.,.F.,(6,4,6),(0.,
    0.842000002342,1.),.UNSPECIFIED.);
#463 = CARTESIAN_POINT('',(-37.79999986313,3.216713912751E-03,0.));
#464 = CARTESIAN_POINT('',(-37.74947719109,3.216713912751E-03,
    14.314000031111));
#465 = CARTESIAN_POINT('',(-37.69895569622,3.216713912751E-03,
    28.628000069012));
#466 = CARTESIAN_POINT('',(-37.64843464493,3.216713912751E-03,
    42.942000109538));
#467 = CARTESIAN_POINT('',(-37.59791394192,3.216713912751E-03,
    57.25600015174));
#468 = CARTESIAN_POINT('',(-37.53791335127,3.216713912751E-03,
    74.256000156118));
#469 = CARTESIAN_POINT('',(-37.52843326553,3.216713912751E-03,
    76.942000117036));
#470 = CARTESIAN_POINT('',(-37.51895318655,3.216713912751E-03,
    79.628000077991));
#471 = CARTESIAN_POINT('',(-37.5094731137,3.216713912751E-03,
    82.31400003898));
#472 = CARTESIAN_POINT('',(-37.4999930465,3.216713912751E-03,85.));
#473 = PCURVE('',#210,#474);
#474 = DEFINITIONAL_REPRESENTATION('',(#475),#482);
#475 = B_SPLINE_CURVE_WITH_KNOTS('',5,(#476,#477,#478,#479,#480,#481),
  .UNSPECIFIED.,.F.,.F.,(6,6),(0.,1.),.PIECEWISE_BEZIER_KNOTS.);
#476 = CARTESIAN_POINT('',(4.7058381421,-1.339801981665E-16));
#477 = CARTESIAN_POINT('',(4.706528908242,0.199999999878));
#478 = CARTESIAN_POINT('',(4.707038825339,0.39999999987));
#479 = CARTESIAN_POINT('',(4.707457175227,0.59999999989));
#480 = CARTESIAN_POINT('',(4.707803704866,0.799999999938));
#481 = CARTESIAN_POINT('',(4.708100015207,1.));
#482 = ( GEOMETRIC_REPRESENTATION_CONTEXT(2) 
PARAMETRIC_REPRESENTATION_CONTEXT() REPRESENTATION_CONTEXT('2D SPACE',''
  ) );
#483 = PCURVE('',#255,#484);
#484 = DEFINITIONAL_REPRESENTATION('',(#485),#492);
#485 = B_SPLINE_CURVE_WITH_KNOTS('',5,(#486,#487,#488,#489,#490,#491),
  .UNSPECIFIED.,.F.,.F.,(6,6),(0.,1.),.PIECEWISE_BEZIER_KNOTS.);
#486 = CARTESIAN_POINT('',(4.7058381421,-1.339801981665E-16));
#487 = CARTESIAN_POINT('',(4.706528908242,0.199999999878));
#488 = CARTESIAN_POINT('',(4.707038825339,0.39999999987));
#489 = CARTESIAN_POINT('',(4.707457175227,0.59999999989));
#490 = CARTESIAN_POINT('',(4.707803704866,0.799999999938));
#491 = CARTESIAN_POINT('',(4.708100015207,1.));
#492 = ( GEOMETRIC_REPRESENTATION_CONTEXT(2) 
PARAMETRIC_REPRESENTATION_CONTEXT() REPRESENTATION_CONTEXT('2D SPACE',''
  ) );
#493 = ORIENTED_EDGE('',*,*,#194,.T.);
#494 = ORIENTED_EDGE('',*,*,#495,.T.);
#495 = EDGE_CURVE('',#113,#496,#498,.T.);
#496 = VERTEX_POINT('',#497);
#497 = CARTESIAN_POINT('',(-36.75,-0.75,85.));
#498 = SURFACE_CURVE('',#499,(#502,#509),.PCURVE_S1.);
#499 = B_SPLINE_CURVE_WITH_KNOTS('',1,(#500,#501),.UNSPECIFIED.,.F.,.F.,
  (2,2),(0.,1.),.PIECEWISE_BEZIER_KNOTS.);
#500 = CARTESIAN_POINT('',(-37.79213073791,-0.771267974243,0.));
#501 = CARTESIAN_POINT('',(-36.75,-0.75,85.));
#502 = PCURVE('',#210,#503);
#503 = DEFINITIONAL_REPRESENTATION('',(#504),#508);
#504 = B_SPLINE_CURVE_WITH_KNOTS('',2,(#505,#506,#507),.UNSPECIFIED.,.F.
  ,.F.,(3,3),(0.,1.),.PIECEWISE_BEZIER_KNOTS.);
#505 = CARTESIAN_POINT('',(6.28318530718,0.));
#506 = CARTESIAN_POINT('',(6.28318530718,0.5));
#507 = CARTESIAN_POINT('',(6.28318530718,1.));
#508 = ( GEOMETRIC_REPRESENTATION_CONTEXT(2) 
PARAMETRIC_REPRESENTATION_CONTEXT() REPRESENTATION_CONTEXT('2D SPACE',''
  ) );
#509 = PCURVE('',#134,#510);
#510 = DEFINITIONAL_REPRESENTATION('',(#511),#515);
#511 = B_SPLINE_CURVE_WITH_KNOTS('',2,(#512,#513,#514),.UNSPECIFIED.,.F.
  ,.F.,(3,3),(0.,1.),.PIECEWISE_BEZIER_KNOTS.);
#512 = CARTESIAN_POINT('',(-73.5,0.));
#513 = CARTESIAN_POINT('',(-73.5,0.5));
#514 = CARTESIAN_POINT('',(-73.5,1.));
#515 = ( GEOMETRIC_REPRESENTATION_CONTEXT(2) 
PARAMETRIC_REPRESENTATION_CONTEXT() REPRESENTATION_CONTEXT('2D SPACE',''
  ) );
#516 = ORIENTED_EDGE('',*,*,#517,.T.);
#517 = EDGE_CURVE('',#496,#459,#518,.T.);
#518 = SURFACE_CURVE('',#519,(#523,#539),.PCURVE_S1.);
#519 = ( BOUNDED_CURVE() B_SPLINE_CURVE(2,(#520,#521,#522),
.UNSPECIFIED.,.F.,.F.) B_SPLINE_CURVE_WITH_KNOTS((3,3),(0.,
1.575085291828),.PIECEWISE_BEZIER_KNOTS.) CURVE() 
GEOMETRIC_REPRESENTATION_ITEM() RATIONAL_B_SPLINE_CURVE((1.,
0.705588778297,1.)) REPRESENTATION_ITEM('') );
#520 = CARTESIAN_POINT('',(-36.75,-0.75,85.));
#521 = CARTESIAN_POINT('',(-37.50322364176,-0.75,85.));
#522 = CARTESIAN_POINT('',(-37.4999931018,3.216713912763E-03,85.));
#523 = PCURVE('',#210,#524);
#524 = DEFINITIONAL_REPRESENTATION('',(#525),#538);
#525 = B_SPLINE_CURVE_WITH_KNOTS('',6,(#526,#527,#528,#529,#530,#531,
    #532,#533,#534,#535,#536,#537),.UNSPECIFIED.,.F.,.F.,(7,5,7),(0.,
    0.787542645914,1.575085291828),.UNSPECIFIED.);
#526 = CARTESIAN_POINT('',(6.28318530718,1.));
#527 = CARTESIAN_POINT('',(6.165081677517,1.));
#528 = CARTESIAN_POINT('',(6.040024452855,0.999999999999));
#529 = CARTESIAN_POINT('',(5.908727386994,1.000000000003));
#530 = CARTESIAN_POINT('',(5.772621479148,0.999999999997));
#531 = CARTESIAN_POINT('',(5.634132871421,0.999999999999));
#532 = CARTESIAN_POINT('',(5.357152407103,1.000000000001));
#533 = CARTESIAN_POINT('',(5.218663822933,1.000000000003));
#534 = CARTESIAN_POINT('',(5.082557790791,1.000000000002));
#535 = CARTESIAN_POINT('',(4.951261311426,1.));
#536 = CARTESIAN_POINT('',(4.826203639819,0.999999999998));
#537 = CARTESIAN_POINT('',(4.708100015524,0.999999999998));
#538 = ( GEOMETRIC_REPRESENTATION_CONTEXT(2) 
PARAMETRIC_REPRESENTATION_CONTEXT() REPRESENTATION_CONTEXT('2D SPACE',''
  ) );
#539 = PCURVE('',#540,#545);
#540 = CYLINDRICAL_SURFACE('',#541,0.75);
#541 = AXIS2_PLACEMENT_3D('',#542,#543,#544);
#542 = CARTESIAN_POINT('',(-36.75,0.,85.));
#543 = DIRECTION('',(0.,0.,-1.));
#544 = DIRECTION('',(0.,-1.,0.));
#545 = DEFINITIONAL_REPRESENTATION('',(#546),#555);
#546 = B_SPLINE_CURVE_WITH_KNOTS('',7,(#547,#548,#549,#550,#551,#552,
    #553,#554),.UNSPECIFIED.,.F.,.F.,(8,8),(0.,1.575085291828),
  .PIECEWISE_BEZIER_KNOTS.);
#547 = CARTESIAN_POINT('',(-1.110223024625E-16,0.));
#548 = CARTESIAN_POINT('',(0.202463294923,0.));
#549 = CARTESIAN_POINT('',(0.424814465948,0.));
#550 = CARTESIAN_POINT('',(0.66361296442,0.));
#551 = CARTESIAN_POINT('',(0.911472327411,0.));
#552 = CARTESIAN_POINT('',(1.150270825876,0.));
#553 = CARTESIAN_POINT('',(1.372621996905,0.));
#554 = CARTESIAN_POINT('',(1.575085291828,0.));
#555 = ( GEOMETRIC_REPRESENTATION_CONTEXT(2) 
PARAMETRIC_REPRESENTATION_CONTEXT() REPRESENTATION_CONTEXT('2D SPACE',''
  ) );
#556 = ADVANCED_FACE('',(#557),#540,.F.);
#557 = FACE_BOUND('',#558,.F.);
#558 = EDGE_LOOP('',(#559,#560,#588,#617,#645));
#559 = ORIENTED_EDGE('',*,*,#517,.F.);
#560 = ORIENTED_EDGE('',*,*,#561,.T.);
#561 = EDGE_CURVE('',#496,#562,#564,.T.);
#562 = VERTEX_POINT('',#563);
#563 = CARTESIAN_POINT('',(-36.75,-0.75,93.5));
#564 = SURFACE_CURVE('',#565,(#569,#576),.PCURVE_S1.);
#565 = LINE('',#566,#567);
#566 = CARTESIAN_POINT('',(-36.75,-0.75,85.));
#567 = VECTOR('',#568,1.);
#568 = DIRECTION('',(0.,0.,1.));
#569 = PCURVE('',#540,#570);
#570 = DEFINITIONAL_REPRESENTATION('',(#571),#575);
#571 = LINE('',#572,#573);
#572 = CARTESIAN_POINT('',(0.,0.));
#573 = VECTOR('',#574,1.);
#574 = DIRECTION('',(0.,-1.));
#575 = ( GEOMETRIC_REPRESENTATION_CONTEXT(2) 
PARAMETRIC_REPRESENTATION_CONTEXT() REPRESENTATION_CONTEXT('2D SPACE',''
  ) );
#576 = PCURVE('',#577,#582);
#577 = PLANE('',#578);
#578 = AXIS2_PLACEMENT_3D('',#579,#580,#581);
#579 = CARTESIAN_POINT('',(36.75,-0.75,85.));
#580 = DIRECTION('',(0.,-1.,0.));
#581 = DIRECTION('',(-1.,0.,0.));
#582 = DEFINITIONAL_REPRESENTATION('',(#583),#587);
#583 = LINE('',#584,#585);
#584 = CARTESIAN_POINT('',(73.5,0.));
#585 = VECTOR('',#586,1.);
#586 = DIRECTION('',(0.,-1.));
#587 = ( GEOMETRIC_REPRESENTATION_CONTEXT(2) 
PARAMETRIC_REPRESENTATION_CONTEXT() REPRESENTATION_CONTEXT('2D SPACE',''
  ) );
#588 = ORIENTED_EDGE('',*,*,#589,.F.);
#589 = EDGE_CURVE('',#590,#562,#592,.T.);
#590 = VERTEX_POINT('',#591);
#591 = CARTESIAN_POINT('',(-36.75,0.75,93.5));
#592 = SURFACE_CURVE('',#593,(#598,#605),.PCURVE_S1.);
#593 = CIRCLE('',#594,0.75);
#594 = AXIS2_PLACEMENT_3D('',#595,#596,#597);
#595 = CARTESIAN_POINT('',(-36.75,0.,93.5));
#596 = DIRECTION('',(0.,-0.,1.));
#597 = DIRECTION('',(0.,1.,0.));
#598 = PCURVE('',#540,#599);
#599 = DEFINITIONAL_REPRESENTATION('',(#600),#604);
#600 = LINE('',#601,#602);
#601 = CARTESIAN_POINT('',(3.14159265359,-8.5));
#602 = VECTOR('',#603,1.);
#603 = DIRECTION('',(-1.,-0.));
#604 = ( GEOMETRIC_REPRESENTATION_CONTEXT(2) 
PARAMETRIC_REPRESENTATION_CONTEXT() REPRESENTATION_CONTEXT('2D SPACE',''
  ) );
#605 = PCURVE('',#606,#611);
#606 = CONICAL_SURFACE('',#607,0.75,0.785398163397);
#607 = AXIS2_PLACEMENT_3D('',#608,#609,#610);
#608 = CARTESIAN_POINT('',(-36.75,0.,93.5));
#609 = DIRECTION('',(0.,0.,1.));
#610 = DIRECTION('',(0.,-1.,0.));
#611 = DEFINITIONAL_REPRESENTATION('',(#612),#616);
#612 = LINE('',#613,#614);
#613 = CARTESIAN_POINT('',(3.14159265359,0.));
#614 = VECTOR('',#615,1.);
#615 = DIRECTION('',(1.,-0.));
#616 = ( GEOMETRIC_REPRESENTATION_CONTEXT(2) 
PARAMETRIC_REPRESENTATION_CONTEXT() REPRESENTATION_CONTEXT('2D SPACE',''
  ) );
#617 = ORIENTED_EDGE('',*,*,#618,.F.);
#618 = EDGE_CURVE('',#619,#590,#621,.T.);
#619 = VERTEX_POINT('',#620);
#620 = CARTESIAN_POINT('',(-36.75,0.75,85.));
#621 = SURFACE_CURVE('',#622,(#626,#633),.PCURVE_S1.);
#622 = LINE('',#623,#624);
#623 = CARTESIAN_POINT('',(-36.75,0.75,85.));
#624 = VECTOR('',#625,1.);
#625 = DIRECTION('',(0.,0.,1.));
#626 = PCURVE('',#540,#627);
#627 = DEFINITIONAL_REPRESENTATION('',(#628),#632);
#628 = LINE('',#629,#630);
#629 = CARTESIAN_POINT('',(3.14159265359,0.));
#630 = VECTOR('',#631,1.);
#631 = DIRECTION('',(0.,-1.));
#632 = ( GEOMETRIC_REPRESENTATION_CONTEXT(2) 
PARAMETRIC_REPRESENTATION_CONTEXT() REPRESENTATION_CONTEXT('2D SPACE',''
  ) );
#633 = PCURVE('',#634,#639);
#634 = PLANE('',#635);
#635 = AXIS2_PLACEMENT_3D('',#636,#637,#638);
#636 = CARTESIAN_POINT('',(-36.75,0.75,85.));
#637 = DIRECTION('',(0.,1.,0.));
#638 = DIRECTION('',(1.,0.,0.));
#639 = DEFINITIONAL_REPRESENTATION('',(#640),#644);
#640 = LINE('',#641,#642);
#641 = CARTESIAN_POINT('',(0.,0.));
#642 = VECTOR('',#643,1.);
#643 = DIRECTION('',(0.,-1.));
#644 = ( GEOMETRIC_REPRESENTATION_CONTEXT(2) 
PARAMETRIC_REPRESENTATION_CONTEXT() REPRESENTATION_CONTEXT('2D SPACE',''
  ) );
#645 = ORIENTED_EDGE('',*,*,#646,.F.);
#646 = EDGE_CURVE('',#459,#619,#647,.T.);
#647 = SURFACE_CURVE('',#648,(#652,#664),.PCURVE_S1.);
#648 = ( BOUNDED_CURVE() B_SPLINE_CURVE(2,(#649,#650,#651),
.UNSPECIFIED.,.F.,.F.) B_SPLINE_CURVE_WITH_KNOTS((3,3),(1.575085291828,
3.14159265359),.PIECEWISE_BEZIER_KNOTS.) CURVE() 
GEOMETRIC_REPRESENTATION_ITEM() RATIONAL_B_SPLINE_CURVE((1.,
0.708621532231,1.)) REPRESENTATION_ITEM('') );
#649 = CARTESIAN_POINT('',(-37.4999931018,3.216713912763E-03,85.));
#650 = CARTESIAN_POINT('',(-37.49679015476,0.75,85.));
#651 = CARTESIAN_POINT('',(-36.75,0.75,85.));
#652 = PCURVE('',#540,#653);
#653 = DEFINITIONAL_REPRESENTATION('',(#654),#663);
#654 = B_SPLINE_CURVE_WITH_KNOTS('',7,(#655,#656,#657,#658,#659,#660,
    #661,#662),.UNSPECIFIED.,.F.,.F.,(8,8),(1.575085291828,3.14159265359
    ),.PIECEWISE_BEZIER_KNOTS.);
#655 = CARTESIAN_POINT('',(1.575085291828,0.));
#656 = CARTESIAN_POINT('',(1.776682085627,0.));
#657 = CARTESIAN_POINT('',(1.997877025574,0.));
#658 = CARTESIAN_POINT('',(2.23523778898,0.));
#659 = CARTESIAN_POINT('',(2.481440156441,0.));
#660 = CARTESIAN_POINT('',(2.71880091984,0.));
#661 = CARTESIAN_POINT('',(2.939995859791,0.));
#662 = CARTESIAN_POINT('',(3.14159265359,0.));
#663 = ( GEOMETRIC_REPRESENTATION_CONTEXT(2) 
PARAMETRIC_REPRESENTATION_CONTEXT() REPRESENTATION_CONTEXT('2D SPACE',''
  ) );
#664 = PCURVE('',#255,#665);
#665 = DEFINITIONAL_REPRESENTATION('',(#666),#679);
#666 = B_SPLINE_CURVE_WITH_KNOTS('',6,(#667,#668,#669,#670,#671,#672,
    #673,#674,#675,#676,#677,#678),.UNSPECIFIED.,.F.,.F.,(7,5,7),(
    1.575085291828,2.358338972709,3.14159265359),.UNSPECIFIED.);
#667 = CARTESIAN_POINT('',(4.708100015524,0.999999999998));
#668 = CARTESIAN_POINT('',(4.590501846689,0.999999999999));
#669 = CARTESIAN_POINT('',(4.466050757886,0.999999999998));
#670 = CARTESIAN_POINT('',(4.335461759334,1.000000000004));
#671 = CARTESIAN_POINT('',(4.200150251814,1.000000000002));
#672 = CARTESIAN_POINT('',(4.062499115048,1.000000000001));
#673 = CARTESIAN_POINT('',(3.787193601006,0.999999999999));
#674 = CARTESIAN_POINT('',(3.649542437542,0.999999999996));
#675 = CARTESIAN_POINT('',(3.514231042938,1.000000000005));
#676 = CARTESIAN_POINT('',(3.383641472951,0.999999999999));
#677 = CARTESIAN_POINT('',(3.259190827715,1.));
#678 = CARTESIAN_POINT('',(3.14159265359,1.));
#679 = ( GEOMETRIC_REPRESENTATION_CONTEXT(2) 
PARAMETRIC_REPRESENTATION_CONTEXT() REPRESENTATION_CONTEXT('2D SPACE',''
  ) );
#680 = ADVANCED_FACE('',(#681),#634,.F.);
#681 = FACE_BOUND('',#682,.F.);
#682 = EDGE_LOOP('',(#683,#704,#705,#733));
#683 = ORIENTED_EDGE('',*,*,#684,.F.);
#684 = EDGE_CURVE('',#619,#685,#687,.T.);
#685 = VERTEX_POINT('',#686);
#686 = CARTESIAN_POINT('',(36.75,0.75,85.));
#687 = SURFACE_CURVE('',#688,(#691,#697),.PCURVE_S1.);
#688 = B_SPLINE_CURVE_WITH_KNOTS('',1,(#689,#690),.UNSPECIFIED.,.F.,.F.,
  (2,2),(0.,73.5),.PIECEWISE_BEZIER_KNOTS.);
#689 = CARTESIAN_POINT('',(-36.75,0.75,85.));
#690 = CARTESIAN_POINT('',(36.75,0.75,85.));
#691 = PCURVE('',#634,#692);
#692 = DEFINITIONAL_REPRESENTATION('',(#693),#696);
#693 = B_SPLINE_CURVE_WITH_KNOTS('',1,(#694,#695),.UNSPECIFIED.,.F.,.F.,
  (2,2),(0.,73.5),.PIECEWISE_BEZIER_KNOTS.);
#694 = CARTESIAN_POINT('',(0.,0.));
#695 = CARTESIAN_POINT('',(73.5,0.));
#696 = ( GEOMETRIC_REPRESENTATION_CONTEXT(2) 
PARAMETRIC_REPRESENTATION_CONTEXT() REPRESENTATION_CONTEXT('2D SPACE',''
  ) );
#697 = PCURVE('',#304,#698);
#698 = DEFINITIONAL_REPRESENTATION('',(#699),#703);
#699 = B_SPLINE_CURVE_WITH_KNOTS('',2,(#700,#701,#702),.UNSPECIFIED.,.F.
  ,.F.,(3,3),(0.,73.5),.PIECEWISE_BEZIER_KNOTS.);
#700 = CARTESIAN_POINT('',(2.84217094304E-14,1.));
#701 = CARTESIAN_POINT('',(-36.74999999999,1.));
#702 = CARTESIAN_POINT('',(-73.5,1.));
#703 = ( GEOMETRIC_REPRESENTATION_CONTEXT(2) 
PARAMETRIC_REPRESENTATION_CONTEXT() REPRESENTATION_CONTEXT('2D SPACE',''
  ) );
#704 = ORIENTED_EDGE('',*,*,#618,.T.);
#705 = ORIENTED_EDGE('',*,*,#706,.T.);
#706 = EDGE_CURVE('',#590,#707,#709,.T.);
#707 = VERTEX_POINT('',#708);
#708 = CARTESIAN_POINT('',(36.75,0.75,93.5));
#709 = SURFACE_CURVE('',#710,(#714,#721),.PCURVE_S1.);
#710 = LINE('',#711,#712);
#711 = CARTESIAN_POINT('',(-36.75,0.75,93.5));
#712 = VECTOR('',#713,1.);
#713 = DIRECTION('',(1.,0.,0.));
#714 = PCURVE('',#634,#715);
#715 = DEFINITIONAL_REPRESENTATION('',(#716),#720);
#716 = LINE('',#717,#718);
#717 = CARTESIAN_POINT('',(0.,-8.5));
#718 = VECTOR('',#719,1.);
#719 = DIRECTION('',(1.,0.));
#720 = ( GEOMETRIC_REPRESENTATION_CONTEXT(2) 
PARAMETRIC_REPRESENTATION_CONTEXT() REPRESENTATION_CONTEXT('2D SPACE',''
  ) );
#721 = PCURVE('',#722,#727);
#722 = PLANE('',#723);
#723 = AXIS2_PLACEMENT_3D('',#724,#725,#726);
#724 = CARTESIAN_POINT('',(-36.75,2.25,95.));
#725 = DIRECTION('',(0.,-0.707106781187,0.707106781187));
#726 = DIRECTION('',(1.,0.,0.));
#727 = DEFINITIONAL_REPRESENTATION('',(#728),#732);
#728 = LINE('',#729,#730);
#729 = CARTESIAN_POINT('',(0.,-2.12132034356));
#730 = VECTOR('',#731,1.);
#731 = DIRECTION('',(1.,0.));
#732 = ( GEOMETRIC_REPRESENTATION_CONTEXT(2) 
PARAMETRIC_REPRESENTATION_CONTEXT() REPRESENTATION_CONTEXT('2D SPACE',''
  ) );
#733 = ORIENTED_EDGE('',*,*,#734,.F.);
#734 = EDGE_CURVE('',#685,#707,#735,.T.);
#735 = SURFACE_CURVE('',#736,(#740,#747),.PCURVE_S1.);
#736 = LINE('',#737,#738);
#737 = CARTESIAN_POINT('',(36.75,0.75,85.));
#738 = VECTOR('',#739,1.);
#739 = DIRECTION('',(0.,0.,1.));
#740 = PCURVE('',#634,#741);
#741 = DEFINITIONAL_REPRESENTATION('',(#742),#746);
#742 = LINE('',#743,#744);
#743 = CARTESIAN_POINT('',(73.5,0.));
#744 = VECTOR('',#745,1.);
#745 = DIRECTION('',(0.,-1.));
#746 = ( GEOMETRIC_REPRESENTATION_CONTEXT(2) 
PARAMETRIC_REPRESENTATION_CONTEXT() REPRESENTATION_CONTEXT('2D SPACE',''
  ) );
#747 = PCURVE('',#748,#753);
#748 = CYLINDRICAL_SURFACE('',#749,0.75);
#749 = AXIS2_PLACEMENT_3D('',#750,#751,#752);
#750 = CARTESIAN_POINT('',(36.75,0.,85.));
#751 = DIRECTION('',(0.,0.,-1.));
#752 = DIRECTION('',(0.,1.,0.));
#753 = DEFINITIONAL_REPRESENTATION('',(#754),#758);
#754 = LINE('',#755,#756);
#755 = CARTESIAN_POINT('',(0.,0.));
#756 = VECTOR('',#757,1.);
#757 = DIRECTION('',(0.,-1.));
#758 = ( GEOMETRIC_REPRESENTATION_CONTEXT(2) 
PARAMETRIC_REPRESENTATION_CONTEXT() REPRESENTATION_CONTEXT('2D SPACE',''
  ) );
#759 = ADVANCED_FACE('',(#760),#748,.F.);
#760 = FACE_BOUND('',#761,.F.);
#761 = EDGE_LOOP('',(#762,#801,#857,#858,#887));
#762 = ORIENTED_EDGE('',*,*,#763,.F.);
#763 = EDGE_CURVE('',#764,#766,#768,.T.);
#764 = VERTEX_POINT('',#765);
#765 = CARTESIAN_POINT('',(37.499993101803,3.216713912751E-03,85.));
#766 = VERTEX_POINT('',#767);
#767 = CARTESIAN_POINT('',(36.75,-0.75,85.));
#768 = SURFACE_CURVE('',#769,(#773,#785),.PCURVE_S1.);
#769 = ( BOUNDED_CURVE() B_SPLINE_CURVE(2,(#770,#771,#772),
.UNSPECIFIED.,.F.,.F.) B_SPLINE_CURVE_WITH_KNOTS((3,3),(1.566507361762,
3.14159265359),.PIECEWISE_BEZIER_KNOTS.) CURVE() 
GEOMETRIC_REPRESENTATION_ITEM() RATIONAL_B_SPLINE_CURVE((1.,
0.705588778297,1.)) REPRESENTATION_ITEM('') );
#770 = CARTESIAN_POINT('',(37.499993101803,3.21671391275E-03,85.));
#771 = CARTESIAN_POINT('',(37.50322364176,-0.75,85.));
#772 = CARTESIAN_POINT('',(36.75,-0.75,85.));
#773 = PCURVE('',#748,#774);
#774 = DEFINITIONAL_REPRESENTATION('',(#775),#784);
#775 = B_SPLINE_CURVE_WITH_KNOTS('',7,(#776,#777,#778,#779,#780,#781,
    #782,#783),.UNSPECIFIED.,.F.,.F.,(8,8),(1.566507361762,3.14159265359
    ),.PIECEWISE_BEZIER_KNOTS.);
#776 = CARTESIAN_POINT('',(1.566507361762,0.));
#777 = CARTESIAN_POINT('',(1.768970656685,0.));
#778 = CARTESIAN_POINT('',(1.99132182771,0.));
#779 = CARTESIAN_POINT('',(2.230120326181,0.));
#780 = CARTESIAN_POINT('',(2.477979689173,0.));
#781 = CARTESIAN_POINT('',(2.716778187638,0.));
#782 = CARTESIAN_POINT('',(2.939129358667,0.));
#783 = CARTESIAN_POINT('',(3.14159265359,0.));
#784 = ( GEOMETRIC_REPRESENTATION_CONTEXT(2) 
PARAMETRIC_REPRESENTATION_CONTEXT() REPRESENTATION_CONTEXT('2D SPACE',''
  ) );
#785 = PCURVE('',#426,#786);
#786 = DEFINITIONAL_REPRESENTATION('',(#787),#800);
#787 = B_SPLINE_CURVE_WITH_KNOTS('',6,(#788,#789,#790,#791,#792,#793,
    #794,#795,#796,#797,#798,#799),.UNSPECIFIED.,.F.,.F.,(7,5,7),(
    1.566507361762,2.354050007676,3.14159265359),.UNSPECIFIED.);
#788 = CARTESIAN_POINT('',(4.716677945247,0.999999999998));
#789 = CARTESIAN_POINT('',(4.598574320954,0.999999999998));
#790 = CARTESIAN_POINT('',(4.473516649343,0.999999999998));
#791 = CARTESIAN_POINT('',(4.342220169982,1.000000000003));
#792 = CARTESIAN_POINT('',(4.206114137832,1.000000000004));
#793 = CARTESIAN_POINT('',(4.067625553665,1.000000000001));
#794 = CARTESIAN_POINT('',(3.790645089343,0.999999999998));
#795 = CARTESIAN_POINT('',(3.652156481633,0.999999999997));
#796 = CARTESIAN_POINT('',(3.516050573751,1.000000000003));
#797 = CARTESIAN_POINT('',(3.384753507927,1.));
#798 = CARTESIAN_POINT('',(3.259696283248,1.));
#799 = CARTESIAN_POINT('',(3.14159265359,1.));
#800 = ( GEOMETRIC_REPRESENTATION_CONTEXT(2) 
PARAMETRIC_REPRESENTATION_CONTEXT() REPRESENTATION_CONTEXT('2D SPACE',''
  ) );
#801 = ORIENTED_EDGE('',*,*,#802,.F.);
#802 = EDGE_CURVE('',#685,#764,#803,.T.);
#803 = SURFACE_CURVE('',#804,(#808,#820),.PCURVE_S1.);
#804 = ( BOUNDED_CURVE() B_SPLINE_CURVE(2,(#805,#806,#807),
.UNSPECIFIED.,.F.,.F.) B_SPLINE_CURVE_WITH_KNOTS((3,3),(0.,
1.566507361762),.PIECEWISE_BEZIER_KNOTS.) CURVE() 
GEOMETRIC_REPRESENTATION_ITEM() RATIONAL_B_SPLINE_CURVE((1.,
0.708621532231,1.)) REPRESENTATION_ITEM('') );
#805 = CARTESIAN_POINT('',(36.75,0.75,85.));
#806 = CARTESIAN_POINT('',(37.496790154762,0.75,85.));
#807 = CARTESIAN_POINT('',(37.499993101803,3.21671391275E-03,85.));
#808 = PCURVE('',#748,#809);
#809 = DEFINITIONAL_REPRESENTATION('',(#810),#819);
#810 = B_SPLINE_CURVE_WITH_KNOTS('',7,(#811,#812,#813,#814,#815,#816,
    #817,#818),.UNSPECIFIED.,.F.,.F.,(8,8),(0.,1.566507361762),
  .PIECEWISE_BEZIER_KNOTS.);
#811 = CARTESIAN_POINT('',(0.,0.));
#812 = CARTESIAN_POINT('',(0.201596793799,0.));
#813 = CARTESIAN_POINT('',(0.422791733746,0.));
#814 = CARTESIAN_POINT('',(0.660152497152,0.));
#815 = CARTESIAN_POINT('',(0.906354864613,0.));
#816 = CARTESIAN_POINT('',(1.143715628012,0.));
#817 = CARTESIAN_POINT('',(1.364910567963,0.));
#818 = CARTESIAN_POINT('',(1.566507361762,0.));
#819 = ( GEOMETRIC_REPRESENTATION_CONTEXT(2) 
PARAMETRIC_REPRESENTATION_CONTEXT() REPRESENTATION_CONTEXT('2D SPACE',''
  ) );
#820 = PCURVE('',#821,#842);
#821 = B_SPLINE_SURFACE_WITH_KNOTS('',9,1,(
    (#822,#823)
    ,(#824,#825)
    ,(#826,#827)
    ,(#828,#829)
    ,(#830,#831)
    ,(#832,#833)
    ,(#834,#835)
    ,(#836,#837)
    ,(#838,#839)
    ,(#840,#841
    )),.UNSPECIFIED.,.F.,.F.,.F.,(10,10),(2,2),(3.14159265359,
    6.28318530718),(0.,1.),.PIECEWISE_BEZIER_KNOTS.);
#822 = CARTESIAN_POINT('',(37.792130737918,-0.771267974243,0.));
#823 = CARTESIAN_POINT('',(36.75,-0.75,85.));
#824 = CARTESIAN_POINT('',(37.793879402147,-0.685583427015,0.));
#825 = CARTESIAN_POINT('',(37.011799387799,-0.75,85.));
#826 = CARTESIAN_POINT('',(37.795409506102,-0.599894419434,0.));
#827 = CARTESIAN_POINT('',(37.273601492499,-0.647191900061,
    84.999999999999));
#828 = CARTESIAN_POINT('',(37.796721043281,-0.514201588687,0.));
#829 = CARTESIAN_POINT('',(37.48924283384,-0.44157278914,85.000000000003
    ));
#830 = CARTESIAN_POINT('',(37.797814007183,-0.428505571955,0.));
#831 = CARTESIAN_POINT('',(37.612680472816,-0.157317457926,
    84.999999999994));
#832 = CARTESIAN_POINT('',(37.798688391308,-0.342807006425,0.));
#833 = CARTESIAN_POINT('',(37.612680472822,0.157317457926,
    85.000000000006));
#834 = CARTESIAN_POINT('',(37.799344189153,-0.25710652928,0.));
#835 = CARTESIAN_POINT('',(37.489242833835,0.44157278914,84.999999999995
    ));
#836 = CARTESIAN_POINT('',(37.799781394217,-0.171404777705,0.));
#837 = CARTESIAN_POINT('',(37.2736014925,0.647191900061,85.000000000003)
  );
#838 = CARTESIAN_POINT('',(37.8,-8.570238888347E-02,0.));
#839 = CARTESIAN_POINT('',(37.011799387799,0.75,84.999999999999));
#840 = CARTESIAN_POINT('',(37.8,-9.27036225562E-15,0.));
#841 = CARTESIAN_POINT('',(36.75,0.75,85.));
#842 = DEFINITIONAL_REPRESENTATION('',(#843),#856);
#843 = B_SPLINE_CURVE_WITH_KNOTS('',6,(#844,#845,#846,#847,#848,#849,
    #850,#851,#852,#853,#854,#855),.UNSPECIFIED.,.F.,.F.,(7,5,7),(0.,
    0.783253680881,1.566507361762),.UNSPECIFIED.);
#844 = CARTESIAN_POINT('',(6.28318530718,1.));
#845 = CARTESIAN_POINT('',(6.16558713306,1.000000000001));
#846 = CARTESIAN_POINT('',(6.041136487829,0.999999999994));
#847 = CARTESIAN_POINT('',(5.910546917848,1.000000000001));
#848 = CARTESIAN_POINT('',(5.775235523224,1.000000000002));
#849 = CARTESIAN_POINT('',(5.637584359771,1.000000000001));
#850 = CARTESIAN_POINT('',(5.362278845728,1.));
#851 = CARTESIAN_POINT('',(5.224627708956,0.999999999998));
#852 = CARTESIAN_POINT('',(5.089316201445,1.000000000003));
#853 = CARTESIAN_POINT('',(4.958727202877,0.999999999999));
#854 = CARTESIAN_POINT('',(4.834276114084,0.999999999999));
#855 = CARTESIAN_POINT('',(4.716677945247,0.999999999998));
#856 = ( GEOMETRIC_REPRESENTATION_CONTEXT(2) 
PARAMETRIC_REPRESENTATION_CONTEXT() REPRESENTATION_CONTEXT('2D SPACE',''
  ) );
#857 = ORIENTED_EDGE('',*,*,#734,.T.);
#858 = ORIENTED_EDGE('',*,*,#859,.F.);
#859 = EDGE_CURVE('',#860,#707,#862,.T.);
#860 = VERTEX_POINT('',#861);
#861 = CARTESIAN_POINT('',(36.75,-0.75,93.5));
#862 = SURFACE_CURVE('',#863,(#868,#875),.PCURVE_S1.);
#863 = CIRCLE('',#864,0.75);
#864 = AXIS2_PLACEMENT_3D('',#865,#866,#867);
#865 = CARTESIAN_POINT('',(36.75,0.,93.5));
#866 = DIRECTION('',(-0.,0.,1.));
#867 = DIRECTION('',(0.,-1.,0.));
#868 = PCURVE('',#748,#869);
#869 = DEFINITIONAL_REPRESENTATION('',(#870),#874);
#870 = LINE('',#871,#872);
#871 = CARTESIAN_POINT('',(3.14159265359,-8.5));
#872 = VECTOR('',#873,1.);
#873 = DIRECTION('',(-1.,-0.));
#874 = ( GEOMETRIC_REPRESENTATION_CONTEXT(2) 
PARAMETRIC_REPRESENTATION_CONTEXT() REPRESENTATION_CONTEXT('2D SPACE',''
  ) );
#875 = PCURVE('',#876,#881);
#876 = CONICAL_SURFACE('',#877,0.75,0.785398163397);
#877 = AXIS2_PLACEMENT_3D('',#878,#879,#880);
#878 = CARTESIAN_POINT('',(36.75,0.,93.5));
#879 = DIRECTION('',(0.,0.,1.));
#880 = DIRECTION('',(0.,1.,0.));
#881 = DEFINITIONAL_REPRESENTATION('',(#882),#886);
#882 = LINE('',#883,#884);
#883 = CARTESIAN_POINT('',(3.14159265359,0.));
#884 = VECTOR('',#885,1.);
#885 = DIRECTION('',(1.,-0.));
#886 = ( GEOMETRIC_REPRESENTATION_CONTEXT(2) 
PARAMETRIC_REPRESENTATION_CONTEXT() REPRESENTATION_CONTEXT('2D SPACE',''
  ) );
#887 = ORIENTED_EDGE('',*,*,#888,.F.);
#888 = EDGE_CURVE('',#766,#860,#889,.T.);
#889 = SURFACE_CURVE('',#890,(#894,#901),.PCURVE_S1.);
#890 = LINE('',#891,#892);
#891 = CARTESIAN_POINT('',(36.75,-0.75,85.));
#892 = VECTOR('',#893,1.);
#893 = DIRECTION('',(0.,0.,1.));
#894 = PCURVE('',#748,#895);
#895 = DEFINITIONAL_REPRESENTATION('',(#896),#900);
#896 = LINE('',#897,#898);
#897 = CARTESIAN_POINT('',(3.14159265359,0.));
#898 = VECTOR('',#899,1.);
#899 = DIRECTION('',(0.,-1.));
#900 = ( GEOMETRIC_REPRESENTATION_CONTEXT(2) 
PARAMETRIC_REPRESENTATION_CONTEXT() REPRESENTATION_CONTEXT('2D SPACE',''
  ) );
#901 = PCURVE('',#577,#902);
#902 = DEFINITIONAL_REPRESENTATION('',(#903),#907);
#903 = LINE('',#904,#905);
#904 = CARTESIAN_POINT('',(0.,-0.));
#905 = VECTOR('',#906,1.);
#906 = DIRECTION('',(0.,-1.));
#907 = ( GEOMETRIC_REPRESENTATION_CONTEXT(2) 
PARAMETRIC_REPRESENTATION_CONTEXT() REPRESENTATION_CONTEXT('2D SPACE',''
  ) );
#908 = ADVANCED_FACE('',(#909),#876,.F.);
#909 = FACE_BOUND('',#910,.F.);
#910 = EDGE_LOOP('',(#911,#942,#965,#966));
#911 = ORIENTED_EDGE('',*,*,#912,.F.);
#912 = EDGE_CURVE('',#913,#915,#917,.T.);
#913 = VERTEX_POINT('',#914);
#914 = CARTESIAN_POINT('',(36.75,-2.25,95.));
#915 = VERTEX_POINT('',#916);
#916 = CARTESIAN_POINT('',(36.75,2.25,95.));
#917 = SURFACE_CURVE('',#918,(#923,#930),.PCURVE_S1.);
#918 = CIRCLE('',#919,2.25);
#919 = AXIS2_PLACEMENT_3D('',#920,#921,#922);
#920 = CARTESIAN_POINT('',(36.75,0.,95.));
#921 = DIRECTION('',(0.,0.,1.));
#922 = DIRECTION('',(0.,-1.,0.));
#923 = PCURVE('',#876,#924);
#924 = DEFINITIONAL_REPRESENTATION('',(#925),#929);
#925 = LINE('',#926,#927);
#926 = CARTESIAN_POINT('',(3.14159265359,1.5));
#927 = VECTOR('',#928,1.);
#928 = DIRECTION('',(1.,-0.));
#929 = ( GEOMETRIC_REPRESENTATION_CONTEXT(2) 
PARAMETRIC_REPRESENTATION_CONTEXT() REPRESENTATION_CONTEXT('2D SPACE',''
  ) );
#930 = PCURVE('',#931,#936);
#931 = PLANE('',#932);
#932 = AXIS2_PLACEMENT_3D('',#933,#934,#935);
#933 = CARTESIAN_POINT('',(0.,0.,95.));
#934 = DIRECTION('',(0.,0.,1.));
#935 = DIRECTION('',(1.,0.,-0.));
#936 = DEFINITIONAL_REPRESENTATION('',(#937),#941);
#937 = CIRCLE('',#938,2.25);
#938 = AXIS2_PLACEMENT_2D('',#939,#940);
#939 = CARTESIAN_POINT('',(36.75,0.));
#940 = DIRECTION('',(0.,-1.));
#941 = ( GEOMETRIC_REPRESENTATION_CONTEXT(2) 
PARAMETRIC_REPRESENTATION_CONTEXT() REPRESENTATION_CONTEXT('2D SPACE',''
  ) );
#942 = ORIENTED_EDGE('',*,*,#943,.F.);
#943 = EDGE_CURVE('',#860,#913,#944,.T.);
#944 = SURFACE_CURVE('',#945,(#948,#954),.PCURVE_S1.);
#945 = B_SPLINE_CURVE_WITH_KNOTS('',1,(#946,#947),.UNSPECIFIED.,.F.,.F.,
  (2,2),(0.,1.),.PIECEWISE_BEZIER_KNOTS.);
#946 = CARTESIAN_POINT('',(36.75,-0.75,93.5));
#947 = CARTESIAN_POINT('',(36.75,-2.25,95.));
#948 = PCURVE('',#876,#949);
#949 = DEFINITIONAL_REPRESENTATION('',(#950),#953);
#950 = B_SPLINE_CURVE_WITH_KNOTS('',1,(#951,#952),.UNSPECIFIED.,.F.,.F.,
  (2,2),(0.,1.),.PIECEWISE_BEZIER_KNOTS.);
#951 = CARTESIAN_POINT('',(3.14159265359,0.));
#952 = CARTESIAN_POINT('',(3.14159265359,1.5));
#953 = ( GEOMETRIC_REPRESENTATION_CONTEXT(2) 
PARAMETRIC_REPRESENTATION_CONTEXT() REPRESENTATION_CONTEXT('2D SPACE',''
  ) );
#954 = PCURVE('',#955,#960);
#955 = PLANE('',#956);
#956 = AXIS2_PLACEMENT_3D('',#957,#958,#959);
#957 = CARTESIAN_POINT('',(36.75,-2.25,95.));
#958 = DIRECTION('',(0.,0.707106781187,0.707106781187));
#959 = DIRECTION('',(-1.,0.,0.));
#960 = DEFINITIONAL_REPRESENTATION('',(#961),#964);
#961 = B_SPLINE_CURVE_WITH_KNOTS('',1,(#962,#963),.UNSPECIFIED.,.F.,.F.,
  (2,2),(0.,1.),.PIECEWISE_BEZIER_KNOTS.);
#962 = CARTESIAN_POINT('',(0.,-2.12132034356));
#963 = CARTESIAN_POINT('',(0.,0.));
#964 = ( GEOMETRIC_REPRESENTATION_CONTEXT(2) 
PARAMETRIC_REPRESENTATION_CONTEXT() REPRESENTATION_CONTEXT('2D SPACE',''
  ) );
#965 = ORIENTED_EDGE('',*,*,#859,.T.);
#966 = ORIENTED_EDGE('',*,*,#967,.T.);
#967 = EDGE_CURVE('',#707,#915,#968,.T.);
#968 = SURFACE_CURVE('',#969,(#972,#978),.PCURVE_S1.);
#969 = B_SPLINE_CURVE_WITH_KNOTS('',1,(#970,#971),.UNSPECIFIED.,.F.,.F.,
  (2,2),(0.,1.),.PIECEWISE_BEZIER_KNOTS.);
#970 = CARTESIAN_POINT('',(36.75,0.75,93.5));
#971 = CARTESIAN_POINT('',(36.75,2.25,95.));
#972 = PCURVE('',#876,#973);
#973 = DEFINITIONAL_REPRESENTATION('',(#974),#977);
#974 = B_SPLINE_CURVE_WITH_KNOTS('',1,(#975,#976),.UNSPECIFIED.,.F.,.F.,
  (2,2),(0.,1.),.PIECEWISE_BEZIER_KNOTS.);
#975 = CARTESIAN_POINT('',(6.28318530718,0.));
#976 = CARTESIAN_POINT('',(6.28318530718,1.5));
#977 = ( GEOMETRIC_REPRESENTATION_CONTEXT(2) 
PARAMETRIC_REPRESENTATION_CONTEXT() REPRESENTATION_CONTEXT('2D SPACE',''
  ) );
#978 = PCURVE('',#722,#979);
#979 = DEFINITIONAL_REPRESENTATION('',(#980),#983);
#980 = B_SPLINE_CURVE_WITH_KNOTS('',1,(#981,#982),.UNSPECIFIED.,.F.,.F.,
  (2,2),(0.,1.),.PIECEWISE_BEZIER_KNOTS.);
#981 = CARTESIAN_POINT('',(73.5,-2.12132034356));
#982 = CARTESIAN_POINT('',(73.5,0.));
#983 = ( GEOMETRIC_REPRESENTATION_CONTEXT(2) 
PARAMETRIC_REPRESENTATION_CONTEXT() REPRESENTATION_CONTEXT('2D SPACE',''
  ) );
#984 = ADVANCED_FACE('',(#985),#955,.T.);
#985 = FACE_BOUND('',#986,.T.);
#986 = EDGE_LOOP('',(#987,#1008,#1028,#1049));
#987 = ORIENTED_EDGE('',*,*,#988,.T.);
#988 = EDGE_CURVE('',#860,#562,#989,.T.);
#989 = SURFACE_CURVE('',#990,(#994,#1001),.PCURVE_S1.);
#990 = LINE('',#991,#992);
#991 = CARTESIAN_POINT('',(36.75,-0.75,93.5));
#992 = VECTOR('',#993,1.);
#993 = DIRECTION('',(-1.,0.,0.));
#994 = PCURVE('',#955,#995);
#995 = DEFINITIONAL_REPRESENTATION('',(#996),#1000);
#996 = LINE('',#997,#998);
#997 = CARTESIAN_POINT('',(0.,-2.12132034356));
#998 = VECTOR('',#999,1.);
#999 = DIRECTION('',(1.,0.));
#1000 = ( GEOMETRIC_REPRESENTATION_CONTEXT(2) 
PARAMETRIC_REPRESENTATION_CONTEXT() REPRESENTATION_CONTEXT('2D SPACE',''
  ) );
#1001 = PCURVE('',#577,#1002);
#1002 = DEFINITIONAL_REPRESENTATION('',(#1003),#1007);
#1003 = LINE('',#1004,#1005);
#1004 = CARTESIAN_POINT('',(0.,-8.5));
#1005 = VECTOR('',#1006,1.);
#1006 = DIRECTION('',(1.,0.));
#1007 = ( GEOMETRIC_REPRESENTATION_CONTEXT(2) 
PARAMETRIC_REPRESENTATION_CONTEXT() REPRESENTATION_CONTEXT('2D SPACE',''
  ) );
#1008 = ORIENTED_EDGE('',*,*,#1009,.T.);
#1009 = EDGE_CURVE('',#562,#1010,#1012,.T.);
#1010 = VERTEX_POINT('',#1011);
#1011 = CARTESIAN_POINT('',(-36.75,-2.25,95.));
#1012 = SURFACE_CURVE('',#1013,(#1016,#1022),.PCURVE_S1.);
#1013 = B_SPLINE_CURVE_WITH_KNOTS('',1,(#1014,#1015),.UNSPECIFIED.,.F.,
  .F.,(2,2),(0.,1.),.PIECEWISE_BEZIER_KNOTS.);
#1014 = CARTESIAN_POINT('',(-36.75,-0.75,93.5));
#1015 = CARTESIAN_POINT('',(-36.75,-2.25,95.));
#1016 = PCURVE('',#955,#1017);
#1017 = DEFINITIONAL_REPRESENTATION('',(#1018),#1021);
#1018 = B_SPLINE_CURVE_WITH_KNOTS('',1,(#1019,#1020),.UNSPECIFIED.,.F.,
  .F.,(2,2),(0.,1.),.PIECEWISE_BEZIER_KNOTS.);
#1019 = CARTESIAN_POINT('',(73.5,-2.12132034356));
#1020 = CARTESIAN_POINT('',(73.5,0.));
#1021 = ( GEOMETRIC_REPRESENTATION_CONTEXT(2) 
PARAMETRIC_REPRESENTATION_CONTEXT() REPRESENTATION_CONTEXT('2D SPACE',''
  ) );
#1022 = PCURVE('',#606,#1023);
#1023 = DEFINITIONAL_REPRESENTATION('',(#1024),#1027);
#1024 = B_SPLINE_CURVE_WITH_KNOTS('',1,(#1025,#1026),.UNSPECIFIED.,.F.,
  .F.,(2,2),(0.,1.),.PIECEWISE_BEZIER_KNOTS.);
#1025 = CARTESIAN_POINT('',(6.28318530718,0.));
#1026 = CARTESIAN_POINT('',(6.28318530718,1.5));
#1027 = ( GEOMETRIC_REPRESENTATION_CONTEXT(2) 
PARAMETRIC_REPRESENTATION_CONTEXT() REPRESENTATION_CONTEXT('2D SPACE',''
  ) );
#1028 = ORIENTED_EDGE('',*,*,#1029,.F.);
#1029 = EDGE_CURVE('',#913,#1010,#1030,.T.);
#1030 = SURFACE_CURVE('',#1031,(#1035,#1042),.PCURVE_S1.);
#1031 = LINE('',#1032,#1033);
#1032 = CARTESIAN_POINT('',(36.75,-2.25,95.));
#1033 = VECTOR('',#1034,1.);
#1034 = DIRECTION('',(-1.,0.,0.));
#1035 = PCURVE('',#955,#1036);
#1036 = DEFINITIONAL_REPRESENTATION('',(#1037),#1041);
#1037 = LINE('',#1038,#1039);
#1038 = CARTESIAN_POINT('',(0.,0.));
#1039 = VECTOR('',#1040,1.);
#1040 = DIRECTION('',(1.,0.));
#1041 = ( GEOMETRIC_REPRESENTATION_CONTEXT(2) 
PARAMETRIC_REPRESENTATION_CONTEXT() REPRESENTATION_CONTEXT('2D SPACE',''
  ) );
#1042 = PCURVE('',#931,#1043);
#1043 = DEFINITIONAL_REPRESENTATION('',(#1044),#1048);
#1044 = LINE('',#1045,#1046);
#1045 = CARTESIAN_POINT('',(36.75,-2.25));
#1046 = VECTOR('',#1047,1.);
#1047 = DIRECTION('',(-1.,0.));
#1048 = ( GEOMETRIC_REPRESENTATION_CONTEXT(2) 
PARAMETRIC_REPRESENTATION_CONTEXT() REPRESENTATION_CONTEXT('2D SPACE',''
  ) );
#1049 = ORIENTED_EDGE('',*,*,#943,.F.);
#1050 = ADVANCED_FACE('',(#1051,#1082),#931,.T.);
#1051 = FACE_BOUND('',#1052,.T.);
#1052 = EDGE_LOOP('',(#1053));
#1053 = ORIENTED_EDGE('',*,*,#1054,.T.);
#1054 = EDGE_CURVE('',#1055,#1055,#1057,.T.);
#1055 = VERTEX_POINT('',#1056);
#1056 = CARTESIAN_POINT('',(39.5,-9.674709713264E-15,95.));
#1057 = SURFACE_CURVE('',#1058,(#1063,#1070),.PCURVE_S1.);
#1058 = CIRCLE('',#1059,39.5);
#1059 = AXIS2_PLACEMENT_3D('',#1060,#1061,#1062);
#1060 = CARTESIAN_POINT('',(0.,0.,95.));
#1061 = DIRECTION('',(0.,0.,1.));
#1062 = DIRECTION('',(1.,0.,-0.));
#1063 = PCURVE('',#931,#1064);
#1064 = DEFINITIONAL_REPRESENTATION('',(#1065),#1069);
#1065 = CIRCLE('',#1066,39.5);
#1066 = AXIS2_PLACEMENT_2D('',#1067,#1068);
#1067 = CARTESIAN_POINT('',(0.,0.));
#1068 = DIRECTION('',(1.,0.));
#1069 = ( GEOMETRIC_REPRESENTATION_CONTEXT(2) 
PARAMETRIC_REPRESENTATION_CONTEXT() REPRESENTATION_CONTEXT('2D SPACE',''
  ) );
#1070 = PCURVE('',#1071,#1076);
#1071 = CYLINDRICAL_SURFACE('',#1072,39.5);
#1072 = AXIS2_PLACEMENT_3D('',#1073,#1074,#1075);
#1073 = CARTESIAN_POINT('',(0.,0.,80.7));
#1074 = DIRECTION('',(0.,0.,1.));
#1075 = DIRECTION('',(1.,0.,-0.));
#1076 = DEFINITIONAL_REPRESENTATION('',(#1077),#1081);
#1077 = LINE('',#1078,#1079);
#1078 = CARTESIAN_POINT('',(0.,14.3));
#1079 = VECTOR('',#1080,1.);
#1080 = DIRECTION('',(1.,0.));
#1081 = ( GEOMETRIC_REPRESENTATION_CONTEXT(2) 
PARAMETRIC_REPRESENTATION_CONTEXT() REPRESENTATION_CONTEXT('2D SPACE',''
  ) );
#1082 = FACE_BOUND('',#1083,.T.);
#1083 = EDGE_LOOP('',(#1084,#1085,#1109,#1130));
#1084 = ORIENTED_EDGE('',*,*,#1029,.T.);
#1085 = ORIENTED_EDGE('',*,*,#1086,.F.);
#1086 = EDGE_CURVE('',#1087,#1010,#1089,.T.);
#1087 = VERTEX_POINT('',#1088);
#1088 = CARTESIAN_POINT('',(-36.75,2.25,95.));
#1089 = SURFACE_CURVE('',#1090,(#1095,#1102),.PCURVE_S1.);
#1090 = CIRCLE('',#1091,2.25);
#1091 = AXIS2_PLACEMENT_3D('',#1092,#1093,#1094);
#1092 = CARTESIAN_POINT('',(-36.75,0.,95.));
#1093 = DIRECTION('',(0.,-0.,1.));
#1094 = DIRECTION('',(0.,1.,0.));
#1095 = PCURVE('',#931,#1096);
#1096 = DEFINITIONAL_REPRESENTATION('',(#1097),#1101);
#1097 = CIRCLE('',#1098,2.25);
#1098 = AXIS2_PLACEMENT_2D('',#1099,#1100);
#1099 = CARTESIAN_POINT('',(-36.75,0.));
#1100 = DIRECTION('',(0.,1.));
#1101 = ( GEOMETRIC_REPRESENTATION_CONTEXT(2) 
PARAMETRIC_REPRESENTATION_CONTEXT() REPRESENTATION_CONTEXT('2D SPACE',''
  ) );
#1102 = PCURVE('',#606,#1103);
#1103 = DEFINITIONAL_REPRESENTATION('',(#1104),#1108);
#1104 = LINE('',#1105,#1106);
#1105 = CARTESIAN_POINT('',(3.14159265359,1.5));
#1106 = VECTOR('',#1107,1.);
#1107 = DIRECTION('',(1.,-0.));
#1108 = ( GEOMETRIC_REPRESENTATION_CONTEXT(2) 
PARAMETRIC_REPRESENTATION_CONTEXT() REPRESENTATION_CONTEXT('2D SPACE',''
  ) );
#1109 = ORIENTED_EDGE('',*,*,#1110,.T.);
#1110 = EDGE_CURVE('',#1087,#915,#1111,.T.);
#1111 = SURFACE_CURVE('',#1112,(#1116,#1123),.PCURVE_S1.);
#1112 = LINE('',#1113,#1114);
#1113 = CARTESIAN_POINT('',(-36.75,2.25,95.));
#1114 = VECTOR('',#1115,1.);
#1115 = DIRECTION('',(1.,0.,0.));
#1116 = PCURVE('',#931,#1117);
#1117 = DEFINITIONAL_REPRESENTATION('',(#1118),#1122);
#1118 = LINE('',#1119,#1120);
#1119 = CARTESIAN_POINT('',(-36.75,2.25));
#1120 = VECTOR('',#1121,1.);
#1121 = DIRECTION('',(1.,0.));
#1122 = ( GEOMETRIC_REPRESENTATION_CONTEXT(2) 
PARAMETRIC_REPRESENTATION_CONTEXT() REPRESENTATION_CONTEXT('2D SPACE',''
  ) );
#1123 = PCURVE('',#722,#1124);
#1124 = DEFINITIONAL_REPRESENTATION('',(#1125),#1129);
#1125 = LINE('',#1126,#1127);
#1126 = CARTESIAN_POINT('',(0.,0.));
#1127 = VECTOR('',#1128,1.);
#1128 = DIRECTION('',(1.,0.));
#1129 = ( GEOMETRIC_REPRESENTATION_CONTEXT(2) 
PARAMETRIC_REPRESENTATION_CONTEXT() REPRESENTATION_CONTEXT('2D SPACE',''
  ) );
#1130 = ORIENTED_EDGE('',*,*,#912,.F.);
#1131 = ADVANCED_FACE('',(#1132),#1071,.T.);
#1132 = FACE_BOUND('',#1133,.T.);
#1133 = EDGE_LOOP('',(#1134,#1135,#1158,#1185));
#1134 = ORIENTED_EDGE('',*,*,#1054,.F.);
#1135 = ORIENTED_EDGE('',*,*,#1136,.F.);
#1136 = EDGE_CURVE('',#1137,#1055,#1139,.T.);
#1137 = VERTEX_POINT('',#1138);
#1138 = CARTESIAN_POINT('',(39.5,-9.674709713264E-15,80.7));
#1139 = SEAM_CURVE('',#1140,(#1144,#1151),.PCURVE_S1.);
#1140 = LINE('',#1141,#1142);
#1141 = CARTESIAN_POINT('',(39.5,-9.674709713264E-15,80.7));
#1142 = VECTOR('',#1143,1.);
#1143 = DIRECTION('',(0.,0.,1.));
#1144 = PCURVE('',#1071,#1145);
#1145 = DEFINITIONAL_REPRESENTATION('',(#1146),#1150);
#1146 = LINE('',#1147,#1148);
#1147 = CARTESIAN_POINT('',(6.28318530718,-0.));
#1148 = VECTOR('',#1149,1.);
#1149 = DIRECTION('',(0.,1.));
#1150 = ( GEOMETRIC_REPRESENTATION_CONTEXT(2) 
PARAMETRIC_REPRESENTATION_CONTEXT() REPRESENTATION_CONTEXT('2D SPACE',''
  ) );
#1151 = PCURVE('',#1071,#1152);
#1152 = DEFINITIONAL_REPRESENTATION('',(#1153),#1157);
#1153 = LINE('',#1154,#1155);
#1154 = CARTESIAN_POINT('',(0.,-0.));
#1155 = VECTOR('',#1156,1.);
#1156 = DIRECTION('',(0.,1.));
#1157 = ( GEOMETRIC_REPRESENTATION_CONTEXT(2) 
PARAMETRIC_REPRESENTATION_CONTEXT() REPRESENTATION_CONTEXT('2D SPACE',''
  ) );
#1158 = ORIENTED_EDGE('',*,*,#1159,.T.);
#1159 = EDGE_CURVE('',#1137,#1137,#1160,.T.);
#1160 = SURFACE_CURVE('',#1161,(#1166,#1173),.PCURVE_S1.);
#1161 = CIRCLE('',#1162,39.5);
#1162 = AXIS2_PLACEMENT_3D('',#1163,#1164,#1165);
#1163 = CARTESIAN_POINT('',(0.,0.,80.7));
#1164 = DIRECTION('',(0.,0.,1.));
#1165 = DIRECTION('',(1.,0.,-0.));
#1166 = PCURVE('',#1071,#1167);
#1167 = DEFINITIONAL_REPRESENTATION('',(#1168),#1172);
#1168 = LINE('',#1169,#1170);
#1169 = CARTESIAN_POINT('',(0.,0.));
#1170 = VECTOR('',#1171,1.);
#1171 = DIRECTION('',(1.,0.));
#1172 = ( GEOMETRIC_REPRESENTATION_CONTEXT(2) 
PARAMETRIC_REPRESENTATION_CONTEXT() REPRESENTATION_CONTEXT('2D SPACE',''
  ) );
#1173 = PCURVE('',#1174,#1179);
#1174 = PLANE('',#1175);
#1175 = AXIS2_PLACEMENT_3D('',#1176,#1177,#1178);
#1176 = CARTESIAN_POINT('',(0.,0.,80.7));
#1177 = DIRECTION('',(0.,0.,1.));
#1178 = DIRECTION('',(1.,0.,-0.));
#1179 = DEFINITIONAL_REPRESENTATION('',(#1180),#1184);
#1180 = CIRCLE('',#1181,39.5);
#1181 = AXIS2_PLACEMENT_2D('',#1182,#1183);
#1182 = CARTESIAN_POINT('',(0.,0.));
#1183 = DIRECTION('',(1.,0.));
#1184 = ( GEOMETRIC_REPRESENTATION_CONTEXT(2) 
PARAMETRIC_REPRESENTATION_CONTEXT() REPRESENTATION_CONTEXT('2D SPACE',''
  ) );
#1185 = ORIENTED_EDGE('',*,*,#1136,.T.);
#1186 = ADVANCED_FACE('',(#1187,#1218),#1174,.T.);
#1187 = FACE_BOUND('',#1188,.T.);
#1188 = EDGE_LOOP('',(#1189));
#1189 = ORIENTED_EDGE('',*,*,#1190,.T.);
#1190 = EDGE_CURVE('',#1191,#1191,#1193,.T.);
#1191 = VERTEX_POINT('',#1192);
#1192 = CARTESIAN_POINT('',(44.5,-1.089935651241E-14,80.7));
#1193 = SURFACE_CURVE('',#1194,(#1199,#1206),.PCURVE_S1.);
#1194 = CIRCLE('',#1195,44.5);
#1195 = AXIS2_PLACEMENT_3D('',#1196,#1197,#1198);
#1196 = CARTESIAN_POINT('',(0.,0.,80.7));
#1197 = DIRECTION('',(0.,0.,1.));
#1198 = DIRECTION('',(1.,0.,-0.));
#1199 = PCURVE('',#1174,#1200);
#1200 = DEFINITIONAL_REPRESENTATION('',(#1201),#1205);
#1201 = CIRCLE('',#1202,44.5);
#1202 = AXIS2_PLACEMENT_2D('',#1203,#1204);
#1203 = CARTESIAN_POINT('',(0.,0.));
#1204 = DIRECTION('',(1.,0.));
#1205 = ( GEOMETRIC_REPRESENTATION_CONTEXT(2) 
PARAMETRIC_REPRESENTATION_CONTEXT() REPRESENTATION_CONTEXT('2D SPACE',''
  ) );
#1206 = PCURVE('',#1207,#1212);
#1207 = CYLINDRICAL_SURFACE('',#1208,44.5);
#1208 = AXIS2_PLACEMENT_3D('',#1209,#1210,#1211);
#1209 = CARTESIAN_POINT('',(0.,0.,69.9));
#1210 = DIRECTION('',(0.,0.,1.));
#1211 = DIRECTION('',(1.,0.,-0.));
#1212 = DEFINITIONAL_REPRESENTATION('',(#1213),#1217);
#1213 = LINE('',#1214,#1215);
#1214 = CARTESIAN_POINT('',(0.,10.8));
#1215 = VECTOR('',#1216,1.);
#1216 = DIRECTION('',(1.,0.));
#1217 = ( GEOMETRIC_REPRESENTATION_CONTEXT(2) 
PARAMETRIC_REPRESENTATION_CONTEXT() REPRESENTATION_CONTEXT('2D SPACE',''
  ) );
#1218 = FACE_BOUND('',#1219,.T.);
#1219 = EDGE_LOOP('',(#1220));
#1220 = ORIENTED_EDGE('',*,*,#1159,.F.);
#1221 = ADVANCED_FACE('',(#1222),#1207,.T.);
#1222 = FACE_BOUND('',#1223,.T.);
#1223 = EDGE_LOOP('',(#1224,#1225,#1248,#1270));
#1224 = ORIENTED_EDGE('',*,*,#1190,.F.);
#1225 = ORIENTED_EDGE('',*,*,#1226,.F.);
#1226 = EDGE_CURVE('',#1227,#1191,#1229,.T.);
#1227 = VERTEX_POINT('',#1228);
#1228 = CARTESIAN_POINT('',(44.5,-1.089935651241E-14,69.9));
#1229 = SEAM_CURVE('',#1230,(#1234,#1241),.PCURVE_S1.);
#1230 = LINE('',#1231,#1232);
#1231 = CARTESIAN_POINT('',(44.5,-1.089935651241E-14,69.9));
#1232 = VECTOR('',#1233,1.);
#1233 = DIRECTION('',(0.,0.,1.));
#1234 = PCURVE('',#1207,#1235);
#1235 = DEFINITIONAL_REPRESENTATION('',(#1236),#1240);
#1236 = LINE('',#1237,#1238);
#1237 = CARTESIAN_POINT('',(6.28318530718,-0.));
#1238 = VECTOR('',#1239,1.);
#1239 = DIRECTION('',(0.,1.));
#1240 = ( GEOMETRIC_REPRESENTATION_CONTEXT(2) 
PARAMETRIC_REPRESENTATION_CONTEXT() REPRESENTATION_CONTEXT('2D SPACE',''
  ) );
#1241 = PCURVE('',#1207,#1242);
#1242 = DEFINITIONAL_REPRESENTATION('',(#1243),#1247);
#1243 = LINE('',#1244,#1245);
#1244 = CARTESIAN_POINT('',(0.,-0.));
#1245 = VECTOR('',#1246,1.);
#1246 = DIRECTION('',(0.,1.));
#1247 = ( GEOMETRIC_REPRESENTATION_CONTEXT(2) 
PARAMETRIC_REPRESENTATION_CONTEXT() REPRESENTATION_CONTEXT('2D SPACE',''
  ) );
#1248 = ORIENTED_EDGE('',*,*,#1249,.T.);
#1249 = EDGE_CURVE('',#1227,#1227,#1250,.T.);
#1250 = SURFACE_CURVE('',#1251,(#1256,#1263),.PCURVE_S1.);
#1251 = CIRCLE('',#1252,44.5);
#1252 = AXIS2_PLACEMENT_3D('',#1253,#1254,#1255);
#1253 = CARTESIAN_POINT('',(0.,0.,69.9));
#1254 = DIRECTION('',(0.,0.,1.));
#1255 = DIRECTION('',(1.,0.,-0.));
#1256 = PCURVE('',#1207,#1257);
#1257 = DEFINITIONAL_REPRESENTATION('',(#1258),#1262);
#1258 = LINE('',#1259,#1260);
#1259 = CARTESIAN_POINT('',(0.,0.));
#1260 = VECTOR('',#1261,1.);
#1261 = DIRECTION('',(1.,0.));
#1262 = ( GEOMETRIC_REPRESENTATION_CONTEXT(2) 
PARAMETRIC_REPRESENTATION_CONTEXT() REPRESENTATION_CONTEXT('2D SPACE',''
  ) );
#1263 = PCURVE('',#43,#1264);
#1264 = DEFINITIONAL_REPRESENTATION('',(#1265),#1269);
#1265 = CIRCLE('',#1266,44.5);
#1266 = AXIS2_PLACEMENT_2D('',#1267,#1268);
#1267 = CARTESIAN_POINT('',(0.,0.));
#1268 = DIRECTION('',(1.,0.));
#1269 = ( GEOMETRIC_REPRESENTATION_CONTEXT(2) 
PARAMETRIC_REPRESENTATION_CONTEXT() REPRESENTATION_CONTEXT('2D SPACE',''
  ) );
#1270 = ORIENTED_EDGE('',*,*,#1226,.T.);
#1271 = ADVANCED_FACE('',(#1272),#821,.F.);
#1272 = FACE_BOUND('',#1273,.F.);
#1273 = EDGE_LOOP('',(#1274,#1390,#1410));
#1274 = ORIENTED_EDGE('',*,*,#1275,.F.);
#1275 = EDGE_CURVE('',#1276,#764,#1278,.T.);
#1276 = VERTEX_POINT('',#1277);
#1277 = CARTESIAN_POINT('',(37.795496600522,3.216713912751E-03,
    0.364560910113));
#1278 = SURFACE_CURVE('',#1279,(#1318,#1354),.PCURVE_S1.);
#1279 = B_SPLINE_CURVE_WITH_KNOTS('',7,(#1280,#1281,#1282,#1283,#1284,
    #1285,#1286,#1287,#1288,#1289,#1290,#1291,#1292,#1293,#1294,#1295,
    #1296,#1297,#1298,#1299,#1300,#1301,#1302,#1303,#1304,#1305,#1306,
    #1307,#1308,#1309,#1310,#1311,#1312,#1313,#1314,#1315,#1316,#1317),
  .UNSPECIFIED.,.F.,.F.,(8,6,6,6,6,6,8),(0.,7.444463539427E-02,
    0.19473740372,0.376729374166,0.55863294258,0.969467266241,1.),
  .UNSPECIFIED.);
#1280 = CARTESIAN_POINT('',(37.795496600522,3.216713912751E-03,
    0.364560910113));
#1281 = CARTESIAN_POINT('',(37.784486232802,3.216713912751E-03,
    1.264333036147));
#1282 = CARTESIAN_POINT('',(37.774078252353,3.216713912751E-03,
    2.164089537408));
#1283 = CARTESIAN_POINT('',(37.764298146723,3.216713912751E-03,
    3.063833305232));
#1284 = CARTESIAN_POINT('',(37.755161014797,3.216713912751E-03,
    3.963568410949));
#1285 = CARTESIAN_POINT('',(37.746666482676,3.216713912751E-03,
    4.863299717131));
#1286 = CARTESIAN_POINT('',(37.738798259306,3.216713912751E-03,
    5.763032375233));
#1287 = CARTESIAN_POINT('',(37.719781082469,3.216713912751E-03,
    8.11663117666));
#1288 = CARTESIAN_POINT('',(37.709595891579,3.216713912751E-03,
    9.570507199922));
#1289 = CARTESIAN_POINT('',(37.700855424893,3.216713912751E-03,
    11.024419010358));
#1290 = CARTESIAN_POINT('',(37.693358080667,3.216713912751E-03,
    12.478382715396));
#1291 = CARTESIAN_POINT('',(37.686875443827,3.216713912751E-03,
    13.932405032171));
#1292 = CARTESIAN_POINT('',(37.68121273103,3.216713912751E-03,
    15.386486304701));
#1293 = CARTESIAN_POINT('',(37.668623150032,3.216713912751E-03,
    19.040597711832));
#1294 = CARTESIAN_POINT('',(37.662538157324,3.216713912751E-03,
    21.240699926083));
#1295 = CARTESIAN_POINT('',(37.657369123469,3.216713912751E-03,
    23.440918497368));
#1296 = CARTESIAN_POINT('',(37.652712013809,3.216713912751E-03,
    25.641232223453));
#1297 = CARTESIAN_POINT('',(37.648340621158,3.216713912751E-03,
    27.841622059641));
#1298 = CARTESIAN_POINT('',(37.64409305003,3.216713912751E-03,
    30.042072217377));
#1299 = CARTESIAN_POINT('',(37.635642364291,3.216713912751E-03,
    34.442000481604));
#1300 = CARTESIAN_POINT('',(37.631438885845,3.216713912751E-03,
    36.641479163326));
#1301 = CARTESIAN_POINT('',(37.627152687144,3.216713912751E-03,
    38.840996528371));
#1302 = CARTESIAN_POINT('',(37.622729867682,3.216713912751E-03,
    41.040544292465));
#1303 = CARTESIAN_POINT('',(37.618140714134,3.216713912751E-03,
    43.240116199868));
#1304 = CARTESIAN_POINT('',(37.613366381798,3.216713912751E-03,
    45.439707906138));
#1305 = CARTESIAN_POINT('',(37.597175883693,3.216713912751E-03,
    52.607195134696));
#1306 = CARTESIAN_POINT('',(37.584961951229,3.216713912751E-03,
    57.575155253043));
#1307 = CARTESIAN_POINT('',(37.571648184461,3.216713912751E-03,
    62.543165883674));
#1308 = CARTESIAN_POINT('',(37.557321346263,3.216713912751E-03,
    67.511208030367));
#1309 = CARTESIAN_POINT('',(37.542039039641,3.216713912751E-03,
    72.479270009581));
#1310 = CARTESIAN_POINT('',(37.525881059143,3.216713912751E-03,
    77.447346686606));
#1311 = CARTESIAN_POINT('',(37.507652169882,3.216713912751E-03,
    82.784661467666));
#1312 = CARTESIAN_POINT('',(37.506386666691,3.216713912751E-03,
    83.153884402118));
#1313 = CARTESIAN_POINT('',(37.505116719802,3.216713912751E-03,
    83.523107400394));
#1314 = CARTESIAN_POINT('',(37.503842356905,3.216713912751E-03,
    83.892330460865));
#1315 = CARTESIAN_POINT('',(37.502563605517,3.216713912751E-03,
    84.261553581959));
#1316 = CARTESIAN_POINT('',(37.501280492988,3.216713912751E-03,
    84.630776762158));
#1317 = CARTESIAN_POINT('',(37.4999930465,3.216713912751E-03,85.));
#1318 = PCURVE('',#821,#1319);
#1319 = DEFINITIONAL_REPRESENTATION('',(#1320),#1353);
#1320 = B_SPLINE_CURVE_WITH_KNOTS('',8,(#1321,#1322,#1323,#1324,#1325,
    #1326,#1327,#1328,#1329,#1330,#1331,#1332,#1333,#1334,#1335,#1336,
    #1337,#1338,#1339,#1340,#1341,#1342,#1343,#1344,#1345,#1346,#1347,
    #1348,#1349,#1350,#1351,#1352),.UNSPECIFIED.,.F.,.F.,(9,7,8,8,9),(0.
    ,0.125,0.34375,0.671875,1.),.UNSPECIFIED.);
#1321 = CARTESIAN_POINT('',(6.28318530718,4.288951883677E-03));
#1322 = CARTESIAN_POINT('',(6.23547182688,1.984138258626E-02));
#1323 = CARTESIAN_POINT('',(6.186090671624,3.539342259493E-02));
#1324 = CARTESIAN_POINT('',(6.135436928038,5.094518148431E-02));
#1325 = CARTESIAN_POINT('',(6.084043318675,6.649679606892E-02));
#1326 = CARTESIAN_POINT('',(6.032542368913,8.204847347715E-02));
#1327 = CARTESIAN_POINT('',(5.981533050268,9.760041048188E-02));
#1328 = CARTESIAN_POINT('',(5.931469490482,0.113152718881));
#1329 = CARTESIAN_POINT('',(5.797324174704,0.155922831661));
#1330 = CARTESIAN_POINT('',(5.715884655277,0.183141563652));
#1331 = CARTESIAN_POINT('',(5.640178448724,0.210362206039));
#1332 = CARTESIAN_POINT('',(5.57075312658,0.237584505128));
#1333 = CARTESIAN_POINT('',(5.507049346343,0.264808258868));
#1334 = CARTESIAN_POINT('',(5.448621997566,0.292033195313));
#1335 = CARTESIAN_POINT('',(5.394867102419,0.319259087609));
#1336 = CARTESIAN_POINT('',(5.345277010512,0.346485750765));
#1337 = CARTESIAN_POINT('',(5.270891422833,0.387325749305));
#1338 = CARTESIAN_POINT('',(5.205873035447,0.428167448083));
#1339 = CARTESIAN_POINT('',(5.148455659713,0.469010336405));
#1340 = CARTESIAN_POINT('',(5.097109074297,0.509853986234));
#1341 = CARTESIAN_POINT('',(5.050814279151,0.550698246632));
#1342 = CARTESIAN_POINT('',(5.008731000635,0.591542922662));
#1343 = CARTESIAN_POINT('',(4.970237520549,0.632387924102));
#1344 = CARTESIAN_POINT('',(4.934827379565,0.673233198416));
#1345 = CARTESIAN_POINT('',(4.899417382997,0.714078472639));
#1346 = CARTESIAN_POINT('',(4.867090819551,0.754924005819));
#1347 = CARTESIAN_POINT('',(4.8373464242,0.795769740991));
#1348 = CARTESIAN_POINT('',(4.809808926151,0.836615611348));
#1349 = CARTESIAN_POINT('',(4.784188021828,0.877461577387));
#1350 = CARTESIAN_POINT('',(4.760249603895,0.918307633904));
#1351 = CARTESIAN_POINT('',(4.737799246333,0.959153786843));
#1352 = CARTESIAN_POINT('',(4.716677945563,1.));
#1353 = ( GEOMETRIC_REPRESENTATION_CONTEXT(2) 
PARAMETRIC_REPRESENTATION_CONTEXT() REPRESENTATION_CONTEXT('2D SPACE',''
  ) );
#1354 = PCURVE('',#426,#1355);
#1355 = DEFINITIONAL_REPRESENTATION('',(#1356),#1389);
#1356 = B_SPLINE_CURVE_WITH_KNOTS('',8,(#1357,#1358,#1359,#1360,#1361,
    #1362,#1363,#1364,#1365,#1366,#1367,#1368,#1369,#1370,#1371,#1372,
    #1373,#1374,#1375,#1376,#1377,#1378,#1379,#1380,#1381,#1382,#1383,
    #1384,#1385,#1386,#1387,#1388),.UNSPECIFIED.,.F.,.F.,(9,7,8,8,9),(0.
    ,0.125,0.34375,0.671875,1.),.UNSPECIFIED.);
#1357 = CARTESIAN_POINT('',(6.28318530718,4.288951883677E-03));
#1358 = CARTESIAN_POINT('',(6.23547182688,1.984138258626E-02));
#1359 = CARTESIAN_POINT('',(6.186090671624,3.539342259493E-02));
#1360 = CARTESIAN_POINT('',(6.135436928038,5.094518148431E-02));
#1361 = CARTESIAN_POINT('',(6.084043318675,6.649679606892E-02));
#1362 = CARTESIAN_POINT('',(6.032542368913,8.204847347715E-02));
#1363 = CARTESIAN_POINT('',(5.981533050268,9.760041048188E-02));
#1364 = CARTESIAN_POINT('',(5.931469490482,0.113152718881));
#1365 = CARTESIAN_POINT('',(5.797324174704,0.155922831661));
#1366 = CARTESIAN_POINT('',(5.715884655277,0.183141563652));
#1367 = CARTESIAN_POINT('',(5.640178448724,0.210362206039));
#1368 = CARTESIAN_POINT('',(5.57075312658,0.237584505128));
#1369 = CARTESIAN_POINT('',(5.507049346343,0.264808258868));
#1370 = CARTESIAN_POINT('',(5.448621997566,0.292033195313));
#1371 = CARTESIAN_POINT('',(5.394867102419,0.319259087609));
#1372 = CARTESIAN_POINT('',(5.345277010512,0.346485750765));
#1373 = CARTESIAN_POINT('',(5.270891422833,0.387325749305));
#1374 = CARTESIAN_POINT('',(5.205873035447,0.428167448083));
#1375 = CARTESIAN_POINT('',(5.148455659713,0.469010336405));
#1376 = CARTESIAN_POINT('',(5.097109074297,0.509853986234));
#1377 = CARTESIAN_POINT('',(5.050814279151,0.550698246632));
#1378 = CARTESIAN_POINT('',(5.008731000635,0.591542922662));
#1379 = CARTESIAN_POINT('',(4.970237520549,0.632387924102));
#1380 = CARTESIAN_POINT('',(4.934827379565,0.673233198416));
#1381 = CARTESIAN_POINT('',(4.899417382997,0.714078472639));
#1382 = CARTESIAN_POINT('',(4.867090819551,0.754924005819));
#1383 = CARTESIAN_POINT('',(4.8373464242,0.795769740991));
#1384 = CARTESIAN_POINT('',(4.809808926151,0.836615611348));
#1385 = CARTESIAN_POINT('',(4.784188021828,0.877461577387));
#1386 = CARTESIAN_POINT('',(4.760249603895,0.918307633904));
#1387 = CARTESIAN_POINT('',(4.737799246333,0.959153786843));
#1388 = CARTESIAN_POINT('',(4.716677945563,1.));
#1389 = ( GEOMETRIC_REPRESENTATION_CONTEXT(2) 
PARAMETRIC_REPRESENTATION_CONTEXT() REPRESENTATION_CONTEXT('2D SPACE',''
  ) );
#1390 = ORIENTED_EDGE('',*,*,#1391,.T.);
#1391 = EDGE_CURVE('',#1276,#685,#1392,.T.);
#1392 = SURFACE_CURVE('',#1393,(#1396,#1403),.PCURVE_S1.);
#1393 = B_SPLINE_CURVE_WITH_KNOTS('',1,(#1394,#1395),.UNSPECIFIED.,.F.,
  .F.,(2,2),(0.,1.),.PIECEWISE_BEZIER_KNOTS.);
#1394 = CARTESIAN_POINT('',(37.8,-7.105427357601E-15,0.));
#1395 = CARTESIAN_POINT('',(36.75,0.75,85.));
#1396 = PCURVE('',#821,#1397);
#1397 = DEFINITIONAL_REPRESENTATION('',(#1398),#1402);
#1398 = B_SPLINE_CURVE_WITH_KNOTS('',2,(#1399,#1400,#1401),
  .UNSPECIFIED.,.F.,.F.,(3,3),(4.288951883677E-03,1.),
  .PIECEWISE_BEZIER_KNOTS.);
#1399 = CARTESIAN_POINT('',(6.28318530718,4.288951883677E-03));
#1400 = CARTESIAN_POINT('',(6.28318530718,0.502144475942));
#1401 = CARTESIAN_POINT('',(6.28318530718,1.));
#1402 = ( GEOMETRIC_REPRESENTATION_CONTEXT(2) 
PARAMETRIC_REPRESENTATION_CONTEXT() REPRESENTATION_CONTEXT('2D SPACE',''
  ) );
#1403 = PCURVE('',#304,#1404);
#1404 = DEFINITIONAL_REPRESENTATION('',(#1405),#1409);
#1405 = B_SPLINE_CURVE_WITH_KNOTS('',2,(#1406,#1407,#1408),
  .UNSPECIFIED.,.F.,.F.,(3,3),(4.288951883677E-03,1.),
  .PIECEWISE_BEZIER_KNOTS.);
#1406 = CARTESIAN_POINT('',(-73.5,4.288951883677E-03));
#1407 = CARTESIAN_POINT('',(-73.5,0.502144475942));
#1408 = CARTESIAN_POINT('',(-73.5,1.));
#1409 = ( GEOMETRIC_REPRESENTATION_CONTEXT(2) 
PARAMETRIC_REPRESENTATION_CONTEXT() REPRESENTATION_CONTEXT('2D SPACE',''
  ) );
#1410 = ORIENTED_EDGE('',*,*,#802,.T.);
#1411 = ADVANCED_FACE('',(#1412),#722,.T.);
#1412 = FACE_BOUND('',#1413,.T.);
#1413 = EDGE_LOOP('',(#1414,#1415,#1416,#1417));
#1414 = ORIENTED_EDGE('',*,*,#706,.T.);
#1415 = ORIENTED_EDGE('',*,*,#967,.T.);
#1416 = ORIENTED_EDGE('',*,*,#1110,.F.);
#1417 = ORIENTED_EDGE('',*,*,#1418,.F.);
#1418 = EDGE_CURVE('',#590,#1087,#1419,.T.);
#1419 = SURFACE_CURVE('',#1420,(#1423,#1429),.PCURVE_S1.);
#1420 = B_SPLINE_CURVE_WITH_KNOTS('',1,(#1421,#1422),.UNSPECIFIED.,.F.,
  .F.,(2,2),(0.,1.),.PIECEWISE_BEZIER_KNOTS.);
#1421 = CARTESIAN_POINT('',(-36.75,0.75,93.5));
#1422 = CARTESIAN_POINT('',(-36.75,2.25,95.));
#1423 = PCURVE('',#722,#1424);
#1424 = DEFINITIONAL_REPRESENTATION('',(#1425),#1428);
#1425 = B_SPLINE_CURVE_WITH_KNOTS('',1,(#1426,#1427),.UNSPECIFIED.,.F.,
  .F.,(2,2),(0.,1.),.PIECEWISE_BEZIER_KNOTS.);
#1426 = CARTESIAN_POINT('',(0.,-2.12132034356));
#1427 = CARTESIAN_POINT('',(0.,0.));
#1428 = ( GEOMETRIC_REPRESENTATION_CONTEXT(2) 
PARAMETRIC_REPRESENTATION_CONTEXT() REPRESENTATION_CONTEXT('2D SPACE',''
  ) );
#1429 = PCURVE('',#606,#1430);
#1430 = DEFINITIONAL_REPRESENTATION('',(#1431),#1434);
#1431 = B_SPLINE_CURVE_WITH_KNOTS('',1,(#1432,#1433),.UNSPECIFIED.,.F.,
  .F.,(2,2),(0.,1.),.PIECEWISE_BEZIER_KNOTS.);
#1432 = CARTESIAN_POINT('',(3.14159265359,0.));
#1433 = CARTESIAN_POINT('',(3.14159265359,1.5));
#1434 = ( GEOMETRIC_REPRESENTATION_CONTEXT(2) 
PARAMETRIC_REPRESENTATION_CONTEXT() REPRESENTATION_CONTEXT('2D SPACE',''
  ) );
#1435 = ADVANCED_FACE('',(#1436),#606,.F.);
#1436 = FACE_BOUND('',#1437,.F.);
#1437 = EDGE_LOOP('',(#1438,#1439,#1440,#1441));
#1438 = ORIENTED_EDGE('',*,*,#1086,.F.);
#1439 = ORIENTED_EDGE('',*,*,#1418,.F.);
#1440 = ORIENTED_EDGE('',*,*,#589,.T.);
#1441 = ORIENTED_EDGE('',*,*,#1009,.T.);
#1442 = ADVANCED_FACE('',(#1443),#577,.F.);
#1443 = FACE_BOUND('',#1444,.F.);
#1444 = EDGE_LOOP('',(#1445,#1464,#1465,#1466));
#1445 = ORIENTED_EDGE('',*,*,#1446,.F.);
#1446 = EDGE_CURVE('',#766,#496,#1447,.T.);
#1447 = SURFACE_CURVE('',#1448,(#1451,#1457),.PCURVE_S1.);
#1448 = B_SPLINE_CURVE_WITH_KNOTS('',1,(#1449,#1450),.UNSPECIFIED.,.F.,
  .F.,(2,2),(0.,73.5),.PIECEWISE_BEZIER_KNOTS.);
#1449 = CARTESIAN_POINT('',(36.75,-0.75,85.));
#1450 = CARTESIAN_POINT('',(-36.75,-0.75,85.));
#1451 = PCURVE('',#577,#1452);
#1452 = DEFINITIONAL_REPRESENTATION('',(#1453),#1456);
#1453 = B_SPLINE_CURVE_WITH_KNOTS('',1,(#1454,#1455),.UNSPECIFIED.,.F.,
  .F.,(2,2),(0.,73.5),.PIECEWISE_BEZIER_KNOTS.);
#1454 = CARTESIAN_POINT('',(0.,0.));
#1455 = CARTESIAN_POINT('',(73.5,0.));
#1456 = ( GEOMETRIC_REPRESENTATION_CONTEXT(2) 
PARAMETRIC_REPRESENTATION_CONTEXT() REPRESENTATION_CONTEXT('2D SPACE',''
  ) );
#1457 = PCURVE('',#134,#1458);
#1458 = DEFINITIONAL_REPRESENTATION('',(#1459),#1463);
#1459 = B_SPLINE_CURVE_WITH_KNOTS('',2,(#1460,#1461,#1462),
  .UNSPECIFIED.,.F.,.F.,(3,3),(0.,73.5),.PIECEWISE_BEZIER_KNOTS.);
#1460 = CARTESIAN_POINT('',(0.,1.));
#1461 = CARTESIAN_POINT('',(-36.75,1.));
#1462 = CARTESIAN_POINT('',(-73.5,1.));
#1463 = ( GEOMETRIC_REPRESENTATION_CONTEXT(2) 
PARAMETRIC_REPRESENTATION_CONTEXT() REPRESENTATION_CONTEXT('2D SPACE',''
  ) );
#1464 = ORIENTED_EDGE('',*,*,#888,.T.);
#1465 = ORIENTED_EDGE('',*,*,#988,.T.);
#1466 = ORIENTED_EDGE('',*,*,#561,.F.);
#1467 = ADVANCED_FACE('',(#1468),#255,.F.);
#1468 = FACE_BOUND('',#1469,.F.);
#1469 = EDGE_LOOP('',(#1470,#1490,#1491,#1492));
#1470 = ORIENTED_EDGE('',*,*,#1471,.F.);
#1471 = EDGE_CURVE('',#240,#619,#1472,.T.);
#1472 = SURFACE_CURVE('',#1473,(#1476,#1483),.PCURVE_S1.);
#1473 = B_SPLINE_CURVE_WITH_KNOTS('',1,(#1474,#1475),.UNSPECIFIED.,.F.,
  .F.,(2,2),(0.,1.),.PIECEWISE_BEZIER_KNOTS.);
#1474 = CARTESIAN_POINT('',(-37.79213073791,0.771267974243,0.));
#1475 = CARTESIAN_POINT('',(-36.75,0.75,85.));
#1476 = PCURVE('',#255,#1477);
#1477 = DEFINITIONAL_REPRESENTATION('',(#1478),#1482);
#1478 = B_SPLINE_CURVE_WITH_KNOTS('',2,(#1479,#1480,#1481),
  .UNSPECIFIED.,.F.,.F.,(3,3),(0.,1.),.PIECEWISE_BEZIER_KNOTS.);
#1479 = CARTESIAN_POINT('',(3.14159265359,0.));
#1480 = CARTESIAN_POINT('',(3.14159265359,0.5));
#1481 = CARTESIAN_POINT('',(3.14159265359,1.));
#1482 = ( GEOMETRIC_REPRESENTATION_CONTEXT(2) 
PARAMETRIC_REPRESENTATION_CONTEXT() REPRESENTATION_CONTEXT('2D SPACE',''
  ) );
#1483 = PCURVE('',#304,#1484);
#1484 = DEFINITIONAL_REPRESENTATION('',(#1485),#1489);
#1485 = B_SPLINE_CURVE_WITH_KNOTS('',2,(#1486,#1487,#1488),
  .UNSPECIFIED.,.F.,.F.,(3,3),(0.,1.),.PIECEWISE_BEZIER_KNOTS.);
#1486 = CARTESIAN_POINT('',(1.069151868323E-14,-1.474243587616E-18));
#1487 = CARTESIAN_POINT('',(2.365901361649E-14,0.5));
#1488 = CARTESIAN_POINT('',(2.84217094304E-14,1.));
#1489 = ( GEOMETRIC_REPRESENTATION_CONTEXT(2) 
PARAMETRIC_REPRESENTATION_CONTEXT() REPRESENTATION_CONTEXT('2D SPACE',''
  ) );
#1490 = ORIENTED_EDGE('',*,*,#239,.T.);
#1491 = ORIENTED_EDGE('',*,*,#458,.T.);
#1492 = ORIENTED_EDGE('',*,*,#646,.T.);
#1493 = ADVANCED_FACE('',(#1494),#304,.F.);
#1494 = FACE_BOUND('',#1495,.F.);
#1495 = EDGE_LOOP('',(#1496,#1519,#1520,#1521,#1522));
#1496 = ORIENTED_EDGE('',*,*,#1497,.F.);
#1497 = EDGE_CURVE('',#285,#1276,#1498,.T.);
#1498 = SURFACE_CURVE('',#1499,(#1505,#1512),.PCURVE_S1.);
#1499 = B_SPLINE_CURVE_WITH_KNOTS('',4,(#1500,#1501,#1502,#1503,#1504),
  .UNSPECIFIED.,.F.,.F.,(5,5),(0.,1.),.PIECEWISE_BEZIER_KNOTS.);
#1500 = CARTESIAN_POINT('',(37.799999863132,3.216713912751E-03,0.));
#1501 = CARTESIAN_POINT('',(37.798871932963,3.216713912751E-03,
    9.114021695722E-02));
#1502 = CARTESIAN_POINT('',(37.797745406425,3.216713912751E-03,
    0.182280440963));
#1503 = CARTESIAN_POINT('',(37.796620292549,3.216713912751E-03,
    0.273420672018));
#1504 = CARTESIAN_POINT('',(37.795496600522,3.216713912751E-03,
    0.364560910113));
#1505 = PCURVE('',#304,#1506);
#1506 = DEFINITIONAL_REPRESENTATION('',(#1507),#1511);
#1507 = B_SPLINE_CURVE_WITH_KNOTS('',2,(#1508,#1509,#1510),
  .UNSPECIFIED.,.F.,.F.,(3,3),(0.,1.),.PIECEWISE_BEZIER_KNOTS.);
#1508 = CARTESIAN_POINT('',(-73.49799604417,-3.875970370677E-17));
#1509 = CARTESIAN_POINT('',(-73.4989937153,2.144475693154E-03));
#1510 = CARTESIAN_POINT('',(-73.5,4.288951883677E-03));
#1511 = ( GEOMETRIC_REPRESENTATION_CONTEXT(2) 
PARAMETRIC_REPRESENTATION_CONTEXT() REPRESENTATION_CONTEXT('2D SPACE',''
  ) );
#1512 = PCURVE('',#380,#1513);
#1513 = DEFINITIONAL_REPRESENTATION('',(#1514),#1518);
#1514 = B_SPLINE_CURVE_WITH_KNOTS('',2,(#1515,#1516,#1517),
  .UNSPECIFIED.,.F.,.F.,(3,3),(0.,1.),.PIECEWISE_BEZIER_KNOTS.);
#1515 = CARTESIAN_POINT('',(-73.49799604417,-3.875970370677E-17));
#1516 = CARTESIAN_POINT('',(-73.4989937153,2.144475693154E-03));
#1517 = CARTESIAN_POINT('',(-73.5,4.288951883677E-03));
#1518 = ( GEOMETRIC_REPRESENTATION_CONTEXT(2) 
PARAMETRIC_REPRESENTATION_CONTEXT() REPRESENTATION_CONTEXT('2D SPACE',''
  ) );
#1519 = ORIENTED_EDGE('',*,*,#284,.T.);
#1520 = ORIENTED_EDGE('',*,*,#1471,.T.);
#1521 = ORIENTED_EDGE('',*,*,#684,.T.);
#1522 = ORIENTED_EDGE('',*,*,#1391,.F.);
#1523 = ADVANCED_FACE('',(#1524),#380,.F.);
#1524 = FACE_BOUND('',#1525,.F.);
#1525 = EDGE_LOOP('',(#1526,#1546,#1547));
#1526 = ORIENTED_EDGE('',*,*,#1527,.F.);
#1527 = EDGE_CURVE('',#365,#1276,#1528,.T.);
#1528 = SURFACE_CURVE('',#1529,(#1532,#1539),.PCURVE_S1.);
#1529 = B_SPLINE_CURVE_WITH_KNOTS('',1,(#1530,#1531),.UNSPECIFIED.,.F.,
  .F.,(2,2),(0.,1.),.PIECEWISE_BEZIER_KNOTS.);
#1530 = CARTESIAN_POINT('',(37.8,-7.105427357601E-15,0.));
#1531 = CARTESIAN_POINT('',(36.75,0.75,85.));
#1532 = PCURVE('',#380,#1533);
#1533 = DEFINITIONAL_REPRESENTATION('',(#1534),#1538);
#1534 = B_SPLINE_CURVE_WITH_KNOTS('',2,(#1535,#1536,#1537),
  .UNSPECIFIED.,.F.,.F.,(3,3),(0.,4.288951883677E-03),
  .PIECEWISE_BEZIER_KNOTS.);
#1535 = CARTESIAN_POINT('',(-73.5,0.));
#1536 = CARTESIAN_POINT('',(-73.5,2.144475941838E-03));
#1537 = CARTESIAN_POINT('',(-73.5,4.288951883677E-03));
#1538 = ( GEOMETRIC_REPRESENTATION_CONTEXT(2) 
PARAMETRIC_REPRESENTATION_CONTEXT() REPRESENTATION_CONTEXT('2D SPACE',''
  ) );
#1539 = PCURVE('',#426,#1540);
#1540 = DEFINITIONAL_REPRESENTATION('',(#1541),#1545);
#1541 = B_SPLINE_CURVE_WITH_KNOTS('',2,(#1542,#1543,#1544),
  .UNSPECIFIED.,.F.,.F.,(3,3),(0.,4.288951883677E-03),
  .PIECEWISE_BEZIER_KNOTS.);
#1542 = CARTESIAN_POINT('',(6.28318530718,0.));
#1543 = CARTESIAN_POINT('',(6.28318530718,2.144475941838E-03));
#1544 = CARTESIAN_POINT('',(6.28318530718,4.288951883677E-03));
#1545 = ( GEOMETRIC_REPRESENTATION_CONTEXT(2) 
PARAMETRIC_REPRESENTATION_CONTEXT() REPRESENTATION_CONTEXT('2D SPACE',''
  ) );
#1546 = ORIENTED_EDGE('',*,*,#364,.T.);
#1547 = ORIENTED_EDGE('',*,*,#1497,.T.);
#1548 = ADVANCED_FACE('',(#1549),#426,.F.);
#1549 = FACE_BOUND('',#1550,.F.);
#1550 = EDGE_LOOP('',(#1551,#1571,#1572,#1573,#1574));
#1551 = ORIENTED_EDGE('',*,*,#1552,.F.);
#1552 = EDGE_CURVE('',#115,#766,#1553,.T.);
#1553 = SURFACE_CURVE('',#1554,(#1557,#1564),.PCURVE_S1.);
#1554 = B_SPLINE_CURVE_WITH_KNOTS('',1,(#1555,#1556),.UNSPECIFIED.,.F.,
  .F.,(2,2),(0.,1.),.PIECEWISE_BEZIER_KNOTS.);
#1555 = CARTESIAN_POINT('',(37.792130737918,-0.771267974243,0.));
#1556 = CARTESIAN_POINT('',(36.75,-0.75,85.));
#1557 = PCURVE('',#426,#1558);
#1558 = DEFINITIONAL_REPRESENTATION('',(#1559),#1563);
#1559 = B_SPLINE_CURVE_WITH_KNOTS('',2,(#1560,#1561,#1562),
  .UNSPECIFIED.,.F.,.F.,(3,3),(0.,1.),.PIECEWISE_BEZIER_KNOTS.);
#1560 = CARTESIAN_POINT('',(3.14159265359,0.));
#1561 = CARTESIAN_POINT('',(3.14159265359,0.5));
#1562 = CARTESIAN_POINT('',(3.14159265359,1.));
#1563 = ( GEOMETRIC_REPRESENTATION_CONTEXT(2) 
PARAMETRIC_REPRESENTATION_CONTEXT() REPRESENTATION_CONTEXT('2D SPACE',''
  ) );
#1564 = PCURVE('',#134,#1565);
#1565 = DEFINITIONAL_REPRESENTATION('',(#1566),#1570);
#1566 = B_SPLINE_CURVE_WITH_KNOTS('',2,(#1567,#1568,#1569),
  .UNSPECIFIED.,.F.,.F.,(3,3),(0.,1.),.PIECEWISE_BEZIER_KNOTS.);
#1567 = CARTESIAN_POINT('',(1.948956498872E-14,6.744905302847E-20));
#1568 = CARTESIAN_POINT('',(7.437126885196E-15,0.5));
#1569 = CARTESIAN_POINT('',(0.,1.));
#1570 = ( GEOMETRIC_REPRESENTATION_CONTEXT(2) 
PARAMETRIC_REPRESENTATION_CONTEXT() REPRESENTATION_CONTEXT('2D SPACE',''
  ) );
#1571 = ORIENTED_EDGE('',*,*,#412,.T.);
#1572 = ORIENTED_EDGE('',*,*,#1527,.T.);
#1573 = ORIENTED_EDGE('',*,*,#1275,.T.);
#1574 = ORIENTED_EDGE('',*,*,#763,.T.);
#1575 = ADVANCED_FACE('',(#1576),#134,.F.);
#1576 = FACE_BOUND('',#1577,.F.);
#1577 = EDGE_LOOP('',(#1578,#1579,#1580,#1581));
#1578 = ORIENTED_EDGE('',*,*,#112,.T.);
#1579 = ORIENTED_EDGE('',*,*,#1552,.T.);
#1580 = ORIENTED_EDGE('',*,*,#1446,.T.);
#1581 = ORIENTED_EDGE('',*,*,#495,.F.);
#1582 = ADVANCED_FACE('',(#1583,#1586),#43,.T.);
#1583 = FACE_BOUND('',#1584,.T.);
#1584 = EDGE_LOOP('',(#1585));
#1585 = ORIENTED_EDGE('',*,*,#21,.T.);
#1586 = FACE_BOUND('',#1587,.T.);
#1587 = EDGE_LOOP('',(#1588));
#1588 = ORIENTED_EDGE('',*,*,#1249,.F.);
#1589 = ( GEOMETRIC_REPRESENTATION_CONTEXT(3) 
GLOBAL_UNCERTAINTY_ASSIGNED_CONTEXT((#1593)) 
GLOBAL_UNIT_ASSIGNED_CONTEXT((#1590,#1591,#1592)) REPRESENTATION_CONTEXT
('Context #1','3D Context with UNIT and UNCERTAINTY') );
#1590 = ( LENGTH_UNIT() NAMED_UNIT(*) SI_UNIT(.MILLI.,.METRE.) );
#1591 = ( NAMED_UNIT(*) PLANE_ANGLE_UNIT() SI_UNIT($,.RADIAN.) );
#1592 = ( NAMED_UNIT(*) SI_UNIT($,.STERADIAN.) SOLID_ANGLE_UNIT() );
#1593 = UNCERTAINTY_MEASURE_WITH_UNIT(LENGTH_MEASURE(5.E-07),#1590,
  'distance_accuracy_value','confusion accuracy');
#1594 = PRODUCT_RELATED_PRODUCT_CATEGORY('part',$,(#7));
ENDSEC;
END-ISO-10303-21;
