ISO-10303-21;
HEADER;
FILE_DESCRIPTION(('Open CASCADE Model'),'2;1');
FILE_NAME('Open CASCADE Shape Model','2026-09-23T18:50:08',('Author'),(
    'Open CASCADE'),'Open CASCADE STEP processor 7.9','Open CASCADE 7.9'
  ,'Unknown');
FILE_SCHEMA(('AUTOMOTIVE_DESIGN { 1 0 10303 214 1 1 1 1 }'));
ENDSEC;
DATA;
#1 = APPLICATION_PROTOCOL_DEFINITION('international standard',
  'automotive_design',2000,#2);
#2 = APPLICATION_CONTEXT(
  'core data for automotive mechanical design processes');
#3 = SHAPE_DEFINITION_REPRESENTATION(#4,#10);
#4 = PRODUCT_DEFINITION_SHAPE('','',#5);
#5 = PRODUCT_DEFINITION('design','',#6,#9);
#6 = PRODUCT_DEFINITION_FORMATION('','',#7);
#7 = PRODUCT('Open CASCADE STEP translator 7.9 3',
  'Open CASCADE STEP translator 7.9 3','',(#8));
#8 = PRODUCT_CONTEXT('',#2,'mechanical');
#9 = PRODUCT_DEFINITION_CONTEXT('part definition',#2,'design');
#10 = ADVANCED_BREP_SHAPE_REPRESENTATION('',(#11,#15),#1325);
#11 = AXIS2_PLACEMENT_3D('',#12,#13,#14);
#12 = CARTESIAN_POINT('',(0.,0.,0.));
#13 = DIRECTION('',(0.,0.,1.));
#14 = DIRECTION('',(1.,0.,-0.));
#15 = MANIFOLD_SOLID_BREP('',#16);
#16 = CLOSED_SHELL('',(#17,#368,#593,#621,#694,#775,#837,#867,#907,#985,
    #1039,#1095,#1127,#1198,#1244,#1291,#1318));
#17 = ADVANCED_FACE('',(#18),#32,.F.);
#18 = FACE_BOUND('',#19,.F.);
#19 = EDGE_LOOP('',(#20,#72,#120,#200,#245,#290));
#20 = ORIENTED_EDGE('',*,*,#21,.T.);
#21 = EDGE_CURVE('',#22,#24,#26,.T.);
#22 = VERTEX_POINT('',#23);
#23 = CARTESIAN_POINT('',(37.792130737918,-0.771267974243,0.));
#24 = VERTEX_POINT('',#25);
#25 = CARTESIAN_POINT('',(37.8,0.,0.));
#26 = SURFACE_CURVE('',#27,(#31,#43),.PCURVE_S1.);
#27 = ( BOUNDED_CURVE() B_SPLINE_CURVE(2,(#28,#29,#30),.UNSPECIFIED.,.F.
,.F.) B_SPLINE_CURVE_WITH_KNOTS((3,3),(6.262779976493,6.28318530718),
.PIECEWISE_BEZIER_KNOTS.) CURVE() GEOMETRIC_REPRESENTATION_ITEM() 
RATIONAL_B_SPLINE_CURVE((1.,0.999947953261,1.)) REPRESENTATION_ITEM('') 
  );
#28 = CARTESIAN_POINT('',(37.792130737918,-0.771267974243,0.));
#29 = CARTESIAN_POINT('',(37.8,-0.385674132238,0.));
#30 = CARTESIAN_POINT('',(37.8,-9.258329801554E-15,0.));
#31 = PCURVE('',#32,#37);
#32 = B_SPLINE_SURFACE_WITH_KNOTS('',1,1,(
    (#33,#34)
    ,(#35,#36
    )),.UNSPECIFIED.,.F.,.F.,.F.,(2,2),(2,2),(-37.8,37.8),(-37.8,37.8),
  .PIECEWISE_BEZIER_KNOTS.);
#33 = CARTESIAN_POINT('',(-37.8,-37.8,0.));
#34 = CARTESIAN_POINT('',(-37.8,37.8,0.));
#35 = CARTESIAN_POINT('',(37.8,-37.8,0.));
#36 = CARTESIAN_POINT('',(37.8,37.8,0.));
#37 = DEFINITIONAL_REPRESENTATION('',(#38),#42);
#38 = ( BOUNDED_CURVE() B_SPLINE_CURVE(2,(#39,#40,#41),.UNSPECIFIED.,.F.
,.F.) B_SPLINE_CURVE_WITH_KNOTS((3,3),(6.262779976493,6.28318530718),
.PIECEWISE_BEZIER_KNOTS.) CURVE() GEOMETRIC_REPRESENTATION_ITEM() 
RATIONAL_B_SPLINE_CURVE((1.,0.999947953261,1.)) REPRESENTATION_ITEM('') 
  );
#39 = CARTESIAN_POINT('',(37.792130737918,-0.771267974243));
#40 = CARTESIAN_POINT('',(37.8,-0.385674132238));
#41 = CARTESIAN_POINT('',(37.8,-9.242195402285E-15));
#42 = ( GEOMETRIC_REPRESENTATION_CONTEXT(2) 
PARAMETRIC_REPRESENTATION_CONTEXT() REPRESENTATION_CONTEXT('2D SPACE',''
  ) );
#43 = PCURVE('',#44,#65);
#44 = B_SPLINE_SURFACE_WITH_KNOTS('',9,1,(
    (#45,#46)
    ,(#47,#48)
    ,(#49,#50)
    ,(#51,#52)
    ,(#53,#54)
    ,(#55,#56)
    ,(#57,#58)
    ,(#59,#60)
    ,(#61,#62)
    ,(#63,#64
    )),.UNSPECIFIED.,.F.,.F.,.F.,(10,10),(2,2),(3.14159265359,
    6.28318530718),(0.,1.),.PIECEWISE_BEZIER_KNOTS.);
#45 = CARTESIAN_POINT('',(37.792130737918,-0.771267974243,0.));
#46 = CARTESIAN_POINT('',(36.75,-0.75,85.));
#47 = CARTESIAN_POINT('',(37.793879402147,-0.685583427015,0.));
#48 = CARTESIAN_POINT('',(37.011799387799,-0.75,85.));
#49 = CARTESIAN_POINT('',(37.795409506102,-0.599894419434,0.));
#50 = CARTESIAN_POINT('',(37.273601492499,-0.647191900061,
    84.999999999999));
#51 = CARTESIAN_POINT('',(37.796721043281,-0.514201588687,0.));
#52 = CARTESIAN_POINT('',(37.48924283384,-0.44157278914,85.000000000003)
  );
#53 = CARTESIAN_POINT('',(37.797814007183,-0.428505571955,0.));
#54 = CARTESIAN_POINT('',(37.612680472816,-0.157317457926,
    84.999999999994));
#55 = CARTESIAN_POINT('',(37.798688391308,-0.342807006425,0.));
#56 = CARTESIAN_POINT('',(37.612680472822,0.157317457926,85.000000000006
    ));
#57 = CARTESIAN_POINT('',(37.799344189153,-0.25710652928,0.));
#58 = CARTESIAN_POINT('',(37.489242833835,0.44157278914,84.999999999995)
  );
#59 = CARTESIAN_POINT('',(37.799781394217,-0.171404777705,0.));
#60 = CARTESIAN_POINT('',(37.2736014925,0.647191900061,85.000000000003)
  );
#61 = CARTESIAN_POINT('',(37.8,-8.570238888347E-02,0.));
#62 = CARTESIAN_POINT('',(37.011799387799,0.75,84.999999999999));
#63 = CARTESIAN_POINT('',(37.8,-9.27036225562E-15,0.));
#64 = CARTESIAN_POINT('',(36.75,0.75,85.));
#65 = DEFINITIONAL_REPRESENTATION('',(#66),#71);
#66 = B_SPLINE_CURVE_WITH_KNOTS('',3,(#67,#68,#69,#70),.UNSPECIFIED.,.F.
  ,.F.,(4,4),(6.262779976493,6.28318530718),.PIECEWISE_BEZIER_KNOTS.);
#67 = CARTESIAN_POINT('',(3.14159265359,-2.861285185269E-17));
#68 = CARTESIAN_POINT('',(4.188772037258,-7.799162755923E-13));
#69 = CARTESIAN_POINT('',(5.236005923514,-7.977649123097E-13));
#70 = CARTESIAN_POINT('',(6.28318530718,-2.427574763705E-26));
#71 = ( GEOMETRIC_REPRESENTATION_CONTEXT(2) 
PARAMETRIC_REPRESENTATION_CONTEXT() REPRESENTATION_CONTEXT('2D SPACE',''
  ) );
#72 = ORIENTED_EDGE('',*,*,#73,.T.);
#73 = EDGE_CURVE('',#24,#74,#76,.T.);
#74 = VERTEX_POINT('',#75);
#75 = CARTESIAN_POINT('',(37.799999863132,3.216713912751E-03,0.));
#76 = SURFACE_CURVE('',#77,(#81,#88),.PCURVE_S1.);
#77 = ( BOUNDED_CURVE() B_SPLINE_CURVE(2,(#78,#79,#80),.UNSPECIFIED.,.F.
,.F.) B_SPLINE_CURVE_WITH_KNOTS((3,3),(0.,8.509825176279E-05),
.PIECEWISE_BEZIER_KNOTS.) CURVE() GEOMETRIC_REPRESENTATION_ITEM() 
RATIONAL_B_SPLINE_CURVE((1.,0.999999999095,1.)) REPRESENTATION_ITEM('') 
  );
#78 = CARTESIAN_POINT('',(37.8,0.,0.));
#79 = CARTESIAN_POINT('',(37.8,1.608356959287E-03,0.));
#80 = CARTESIAN_POINT('',(37.799999863132,3.216713912751E-03,0.));
#81 = PCURVE('',#32,#82);
#82 = DEFINITIONAL_REPRESENTATION('',(#83),#87);
#83 = ( BOUNDED_CURVE() B_SPLINE_CURVE(2,(#84,#85,#86),.UNSPECIFIED.,.F.
,.F.) B_SPLINE_CURVE_WITH_KNOTS((3,3),(0.,8.509825176279E-05),
.PIECEWISE_BEZIER_KNOTS.) CURVE() GEOMETRIC_REPRESENTATION_ITEM() 
RATIONAL_B_SPLINE_CURVE((1.,0.999999999095,1.)) REPRESENTATION_ITEM('') 
  );
#84 = CARTESIAN_POINT('',(37.8,1.61343992693E-17));
#85 = CARTESIAN_POINT('',(37.8,1.608356959287E-03));
#86 = CARTESIAN_POINT('',(37.799999863132,3.216713912751E-03));
#87 = ( GEOMETRIC_REPRESENTATION_CONTEXT(2) 
PARAMETRIC_REPRESENTATION_CONTEXT() REPRESENTATION_CONTEXT('2D SPACE',''
  ) );
#88 = PCURVE('',#89,#114);
#89 = B_SPLINE_SURFACE_WITH_KNOTS('',11,1,(
    (#90,#91)
    ,(#92,#93)
    ,(#94,#95)
    ,(#96,#97)
    ,(#98,#99)
    ,(#100,#101)
    ,(#102,#103)
    ,(#104,#105)
    ,(#106,#107)
    ,(#108,#109)
    ,(#110,#111)
    ,(#112,#113
    )),.UNSPECIFIED.,.F.,.F.,.F.,(12,12),(2,2),(-73.5,0.),(0.,1.),
  .PIECEWISE_BEZIER_KNOTS.);
#90 = CARTESIAN_POINT('',(37.8,-7.105427357601E-15,0.));
#91 = CARTESIAN_POINT('',(36.75,0.75,85.));
#92 = CARTESIAN_POINT('',(37.8,10.725534618702,0.));
#93 = CARTESIAN_POINT('',(30.068181818182,0.75,85.));
#94 = CARTESIAN_POINT('',(34.452359659639,21.451068457069,0.));
#95 = CARTESIAN_POINT('',(23.386363636364,0.75,85.));
#96 = CARTESIAN_POINT('',(27.757079789678,31.015652162493,0.));
#97 = CARTESIAN_POINT('',(16.704545454545,0.75,85.));
#98 = CARTESIAN_POINT('',(18.167101192845,38.2582922896,0.));
#99 = CARTESIAN_POINT('',(10.022727272727,0.75,85.));
#100 = CARTESIAN_POINT('',(6.588333853533,42.220109895496,0.));
#101 = CARTESIAN_POINT('',(3.340909090909,0.75,85.));
#102 = CARTESIAN_POINT('',(-5.725506764718,42.345748249928,0.));
#103 = CARTESIAN_POINT('',(-3.340909090909,0.75,85.));
#104 = CARTESIAN_POINT('',(-17.38270020679,38.621007601877,0.));
#105 = CARTESIAN_POINT('',(-10.02272727272,0.75,85.));
#106 = CARTESIAN_POINT('',(-27.11846055823,31.575548363709,0.));
#107 = CARTESIAN_POINT('',(-16.70454545454,0.75,85.));
#108 = CARTESIAN_POINT('',(-34.00750154424,22.149565747081,0.));
#109 = CARTESIAN_POINT('',(-23.38636363636,0.75,85.));
#110 = CARTESIAN_POINT('',(-37.57328784484,11.494569734672,0.));
#111 = CARTESIAN_POINT('',(-30.06818181818,0.75,85.));
#112 = CARTESIAN_POINT('',(-37.79213073791,0.771267974243,0.));
#113 = CARTESIAN_POINT('',(-36.75,0.75,85.));
#114 = DEFINITIONAL_REPRESENTATION('',(#115),#119);
#115 = B_SPLINE_CURVE_WITH_KNOTS('',2,(#116,#117,#118),.UNSPECIFIED.,.F.
  ,.F.,(3,3),(0.,8.509825176279E-05),.PIECEWISE_BEZIER_KNOTS.);
#116 = CARTESIAN_POINT('',(-73.5,0.));
#117 = CARTESIAN_POINT('',(-73.49899802208,1.969311496521E-18));
#118 = CARTESIAN_POINT('',(-73.49799604417,1.524641813452E-18));
#119 = ( GEOMETRIC_REPRESENTATION_CONTEXT(2) 
PARAMETRIC_REPRESENTATION_CONTEXT() REPRESENTATION_CONTEXT('2D SPACE',''
  ) );
#120 = ORIENTED_EDGE('',*,*,#121,.T.);
#121 = EDGE_CURVE('',#74,#122,#124,.T.);
#122 = VERTEX_POINT('',#123);
#123 = CARTESIAN_POINT('',(-37.79213073791,0.771267974243,0.));
#124 = SURFACE_CURVE('',#125,(#131,#140),.PCURVE_S1.);
#125 = ( BOUNDED_CURVE() B_SPLINE_CURVE(2,(#126,#127,#128,#129,#130),
.UNSPECIFIED.,.F.,.F.) B_SPLINE_CURVE_WITH_KNOTS((3,2,3),(
    8.509825176279E-05,1.560636210578,3.121187322903),
.PIECEWISE_BEZIER_KNOTS.) CURVE() GEOMETRIC_REPRESENTATION_ITEM() 
RATIONAL_B_SPLINE_CURVE((1.,0.710719718046,1.,0.710719718046,1.)) 
REPRESENTATION_ITEM('') );
#126 = CARTESIAN_POINT('',(37.799999863132,3.216713912751E-03,0.));
#127 = CARTESIAN_POINT('',(37.796815937468,37.417917835407,0.));
#128 = CARTESIAN_POINT('',(0.38404578556,37.79804900831,0.));
#129 = CARTESIAN_POINT('',(-37.02872436634,38.178180181213,0.));
#130 = CARTESIAN_POINT('',(-37.79213073791,0.771267974243,0.));
#131 = PCURVE('',#32,#132);
#132 = DEFINITIONAL_REPRESENTATION('',(#133),#139);
#133 = ( BOUNDED_CURVE() B_SPLINE_CURVE(2,(#134,#135,#136,#137,#138),
.UNSPECIFIED.,.F.,.F.) B_SPLINE_CURVE_WITH_KNOTS((3,2,3),(
    8.509825176279E-05,1.560636210578,3.121187322903),
.PIECEWISE_BEZIER_KNOTS.) CURVE() GEOMETRIC_REPRESENTATION_ITEM() 
RATIONAL_B_SPLINE_CURVE((1.,0.710719718046,1.,0.710719718046,1.)) 
REPRESENTATION_ITEM('') );
#134 = CARTESIAN_POINT('',(37.799999863132,3.216713912751E-03));
#135 = CARTESIAN_POINT('',(37.796815937468,37.417917835407));
#136 = CARTESIAN_POINT('',(0.38404578556,37.79804900831));
#137 = CARTESIAN_POINT('',(-37.02872436634,38.178180181213));
#138 = CARTESIAN_POINT('',(-37.79213073791,0.771267974243));
#139 = ( GEOMETRIC_REPRESENTATION_CONTEXT(2) 
PARAMETRIC_REPRESENTATION_CONTEXT() REPRESENTATION_CONTEXT('2D SPACE',''
  ) );
#140 = PCURVE('',#141,#166);
#141 = B_SPLINE_SURFACE_WITH_KNOTS('',11,1,(
    (#142,#143)
    ,(#144,#145)
    ,(#146,#147)
    ,(#148,#149)
    ,(#150,#151)
    ,(#152,#153)
    ,(#154,#155)
    ,(#156,#157)
    ,(#158,#159)
    ,(#160,#161)
    ,(#162,#163)
    ,(#164,#165
    )),.UNSPECIFIED.,.F.,.F.,.F.,(12,12),(2,2),(-73.5,0.),(0.,1.),
  .PIECEWISE_BEZIER_KNOTS.);
#142 = CARTESIAN_POINT('',(37.8,-7.105427357601E-15,0.));
#143 = CARTESIAN_POINT('',(36.75,0.75,85.));
#144 = CARTESIAN_POINT('',(37.8,10.725534618702,0.));
#145 = CARTESIAN_POINT('',(30.068181818182,0.75,85.));
#146 = CARTESIAN_POINT('',(34.452359659639,21.451068457069,0.));
#147 = CARTESIAN_POINT('',(23.386363636364,0.75,85.));
#148 = CARTESIAN_POINT('',(27.757079789678,31.015652162493,0.));
#149 = CARTESIAN_POINT('',(16.704545454545,0.75,85.));
#150 = CARTESIAN_POINT('',(18.167101192845,38.2582922896,0.));
#151 = CARTESIAN_POINT('',(10.022727272727,0.75,85.));
#152 = CARTESIAN_POINT('',(6.588333853533,42.220109895496,0.));
#153 = CARTESIAN_POINT('',(3.340909090909,0.75,85.));
#154 = CARTESIAN_POINT('',(-5.725506764718,42.345748249928,0.));
#155 = CARTESIAN_POINT('',(-3.340909090909,0.75,85.));
#156 = CARTESIAN_POINT('',(-17.38270020679,38.621007601877,0.));
#157 = CARTESIAN_POINT('',(-10.02272727272,0.75,85.));
#158 = CARTESIAN_POINT('',(-27.11846055823,31.575548363709,0.));
#159 = CARTESIAN_POINT('',(-16.70454545454,0.75,85.));
#160 = CARTESIAN_POINT('',(-34.00750154424,22.149565747081,0.));
#161 = CARTESIAN_POINT('',(-23.38636363636,0.75,85.));
#162 = CARTESIAN_POINT('',(-37.57328784484,11.494569734672,0.));
#163 = CARTESIAN_POINT('',(-30.06818181818,0.75,85.));
#164 = CARTESIAN_POINT('',(-37.79213073791,0.771267974243,0.));
#165 = CARTESIAN_POINT('',(-36.75,0.75,85.));
#166 = DEFINITIONAL_REPRESENTATION('',(#167),#199);
#167 = B_SPLINE_CURVE_WITH_KNOTS('',8,(#168,#169,#170,#171,#172,#173,
    #174,#175,#176,#177,#178,#179,#180,#181,#182,#183,#184,#185,#186,
    #187,#188,#189,#190,#191,#192,#193,#194,#195,#196,#197,#198),
  .UNSPECIFIED.,.F.,.F.,(9,7,8,7,9),(8.509825176279E-05,0.780360654415,
    1.560636210578,2.34091176674,3.121187322903),.UNSPECIFIED.);
#168 = CARTESIAN_POINT('',(-73.49799604417,1.524641813452E-18));
#169 = CARTESIAN_POINT('',(-71.42725223317,-5.318370754911E-13));
#170 = CARTESIAN_POINT('',(-69.27093372109,3.458837290974E-12));
#171 = CARTESIAN_POINT('',(-67.03504897002,-2.354113022462E-11));
#172 = CARTESIAN_POINT('',(-64.72913674032,6.930057345956E-12));
#173 = CARTESIAN_POINT('',(-62.36671409243,4.395501778083E-11));
#174 = CARTESIAN_POINT('',(-59.965304184,-3.480677506874E-12));
#175 = CARTESIAN_POINT('',(-57.54440065624,-1.809459541882E-11));
#176 = CARTESIAN_POINT('',(-52.70259340008,-1.998939833111E-11));
#177 = CARTESIAN_POINT('',(-50.28168988681,-3.426685078971E-12));
#178 = CARTESIAN_POINT('',(-47.88027996523,4.13678990679E-11));
#179 = CARTESIAN_POINT('',(-45.51785733876,7.677932690808E-11));
#180 = CARTESIAN_POINT('',(-43.21194509207,1.725577399088E-11));
#181 = CARTESIAN_POINT('',(-40.97606030281,-1.569348557218E-11));
#182 = CARTESIAN_POINT('',(-38.81974183261,-3.523623730468E-11));
#183 = CARTESIAN_POINT('',(-36.74899802208,-3.509542421076E-11));
#184 = CARTESIAN_POINT('',(-34.67825421181,-3.525168068668E-11));
#185 = CARTESIAN_POINT('',(-32.52193574735,-1.571549200951E-11));
#186 = CARTESIAN_POINT('',(-30.28605094051,1.723748295352E-11));
#187 = CARTESIAN_POINT('',(-27.98013869673,7.695893878606E-11));
#188 = CARTESIAN_POINT('',(-25.617716067,4.17302557154E-11));
#189 = CARTESIAN_POINT('',(-23.21630616189,-3.436258259337E-12));
#190 = CARTESIAN_POINT('',(-20.79540264341,-2.016266662656E-11));
#191 = CARTESIAN_POINT('',(-15.95359538832,-1.828934306675E-11));
#192 = CARTESIAN_POINT('',(-13.53269186186,-3.577782625959E-12));
#193 = CARTESIAN_POINT('',(-11.13128194341,4.439567841877E-11));
#194 = CARTESIAN_POINT('',(-8.768859282136,7.420840177089E-12));
#195 = CARTESIAN_POINT('',(-6.462947067339,-2.41995499286E-11));
#196 = CARTESIAN_POINT('',(-4.227062325503,3.583167903844E-12));
#197 = CARTESIAN_POINT('',(-2.070743810764,-5.472678737763E-13));
#198 = CARTESIAN_POINT('',(6.309743972136E-15,-8.788040701606E-16));
#199 = ( GEOMETRIC_REPRESENTATION_CONTEXT(2) 
PARAMETRIC_REPRESENTATION_CONTEXT() REPRESENTATION_CONTEXT('2D SPACE',''
  ) );
#200 = ORIENTED_EDGE('',*,*,#201,.T.);
#201 = EDGE_CURVE('',#122,#202,#204,.T.);
#202 = VERTEX_POINT('',#203);
#203 = CARTESIAN_POINT('',(-37.79999986313,3.216713912749E-03,0.));
#204 = SURFACE_CURVE('',#205,(#209,#216),.PCURVE_S1.);
#205 = ( BOUNDED_CURVE() B_SPLINE_CURVE(2,(#206,#207,#208),
.UNSPECIFIED.,.F.,.F.) B_SPLINE_CURVE_WITH_KNOTS((3,3),(3.121187322903,
3.141507555338),.PIECEWISE_BEZIER_KNOTS.) CURVE() 
GEOMETRIC_REPRESENTATION_ITEM() RATIONAL_B_SPLINE_CURVE((1.,
0.999948386463,1.)) REPRESENTATION_ITEM('') );
#206 = CARTESIAN_POINT('',(-37.79213073791,0.771267974243,0.));
#207 = CARTESIAN_POINT('',(-37.79996717982,0.387282321067,0.));
#208 = CARTESIAN_POINT('',(-37.79999986313,3.216713912749E-03,0.));
#209 = PCURVE('',#32,#210);
#210 = DEFINITIONAL_REPRESENTATION('',(#211),#215);
#211 = ( BOUNDED_CURVE() B_SPLINE_CURVE(2,(#212,#213,#214),
.UNSPECIFIED.,.F.,.F.) B_SPLINE_CURVE_WITH_KNOTS((3,3),(3.121187322903,
3.141507555338),.PIECEWISE_BEZIER_KNOTS.) CURVE() 
GEOMETRIC_REPRESENTATION_ITEM() RATIONAL_B_SPLINE_CURVE((1.,
0.999948386463,1.)) REPRESENTATION_ITEM('') );
#212 = CARTESIAN_POINT('',(-37.79213073791,0.771267974243));
#213 = CARTESIAN_POINT('',(-37.79996717982,0.387282321067));
#214 = CARTESIAN_POINT('',(-37.79999986313,3.216713912749E-03));
#215 = ( GEOMETRIC_REPRESENTATION_CONTEXT(2) 
PARAMETRIC_REPRESENTATION_CONTEXT() REPRESENTATION_CONTEXT('2D SPACE',''
  ) );
#216 = PCURVE('',#217,#238);
#217 = B_SPLINE_SURFACE_WITH_KNOTS('',9,1,(
    (#218,#219)
    ,(#220,#221)
    ,(#222,#223)
    ,(#224,#225)
    ,(#226,#227)
    ,(#228,#229)
    ,(#230,#231)
    ,(#232,#233)
    ,(#234,#235)
    ,(#236,#237
    )),.UNSPECIFIED.,.F.,.F.,.F.,(10,10),(2,2),(3.14159265359,
    6.28318530718),(0.,1.),.PIECEWISE_BEZIER_KNOTS.);
#218 = CARTESIAN_POINT('',(-37.79213073791,0.771267974243,0.));
#219 = CARTESIAN_POINT('',(-36.75,0.75,85.));
#220 = CARTESIAN_POINT('',(-37.79562806637,0.599898879786,0.));
#221 = CARTESIAN_POINT('',(-37.01179938779,0.75,85.));
#222 = CARTESIAN_POINT('',(-37.79825118407,0.428511943798,0.));
#223 = CARTESIAN_POINT('',(-37.27360149249,0.647191900061,
    84.999999999999));
#224 = CARTESIAN_POINT('',(-37.79999998699,0.257112263859,0.));
#225 = CARTESIAN_POINT('',(-37.48924283384,0.44157278914,85.000000000003
    ));
#226 = CARTESIAN_POINT('',(-37.80087440579,8.570493754982E-02,0.));
#227 = CARTESIAN_POINT('',(-37.61268047281,0.157317457926,
    84.999999999994));
#228 = CARTESIAN_POINT('',(-37.80087440579,-8.570493754981E-02,0.));
#229 = CARTESIAN_POINT('',(-37.61268047282,-0.157317457926,
    85.000000000006));
#230 = CARTESIAN_POINT('',(-37.79999998699,-0.257112263859,0.));
#231 = CARTESIAN_POINT('',(-37.48924283383,-0.44157278914,
    84.999999999995));
#232 = CARTESIAN_POINT('',(-37.79825118407,-0.428511943798,0.));
#233 = CARTESIAN_POINT('',(-37.2736014925,-0.647191900061,
    85.000000000003));
#234 = CARTESIAN_POINT('',(-37.79562806637,-0.599898879786,0.));
#235 = CARTESIAN_POINT('',(-37.01179938779,-0.75,84.999999999999));
#236 = CARTESIAN_POINT('',(-37.79213073791,-0.771267974243,0.));
#237 = CARTESIAN_POINT('',(-36.75,-0.75,85.));
#238 = DEFINITIONAL_REPRESENTATION('',(#239),#244);
#239 = B_SPLINE_CURVE_WITH_KNOTS('',3,(#240,#241,#242,#243),
  .UNSPECIFIED.,.F.,.F.,(4,4),(3.121187322903,3.141507555338),
  .PIECEWISE_BEZIER_KNOTS.);
#240 = CARTESIAN_POINT('',(3.14159265359,-8.788469484973E-16));
#241 = CARTESIAN_POINT('',(3.662998845192,-6.739008611984E-16));
#242 = CARTESIAN_POINT('',(4.184431948985,-2.616236622183E-16));
#243 = CARTESIAN_POINT('',(4.7058381421,-1.840462924852E-16));
#244 = ( GEOMETRIC_REPRESENTATION_CONTEXT(2) 
PARAMETRIC_REPRESENTATION_CONTEXT() REPRESENTATION_CONTEXT('2D SPACE',''
  ) );
#245 = ORIENTED_EDGE('',*,*,#246,.T.);
#246 = EDGE_CURVE('',#202,#247,#249,.T.);
#247 = VERTEX_POINT('',#248);
#248 = CARTESIAN_POINT('',(-37.79213073791,-0.771267974243,0.));
#249 = SURFACE_CURVE('',#250,(#254,#261),.PCURVE_S1.);
#250 = ( BOUNDED_CURVE() B_SPLINE_CURVE(2,(#251,#252,#253),
.UNSPECIFIED.,.F.,.F.) B_SPLINE_CURVE_WITH_KNOTS((3,3),(3.141507555338,
3.161997984276),.PIECEWISE_BEZIER_KNOTS.) CURVE() 
GEOMETRIC_REPRESENTATION_ITEM() RATIONAL_B_SPLINE_CURVE((1.,
0.999947518249,1.)) REPRESENTATION_ITEM('') );
#251 = CARTESIAN_POINT('',(-37.79999986313,3.216713912749E-03,0.));
#252 = CARTESIAN_POINT('',(-37.8000328202,-0.384065942013,0.));
#253 = CARTESIAN_POINT('',(-37.79213073791,-0.771267974243,0.));
#254 = PCURVE('',#32,#255);
#255 = DEFINITIONAL_REPRESENTATION('',(#256),#260);
#256 = ( BOUNDED_CURVE() B_SPLINE_CURVE(2,(#257,#258,#259),
.UNSPECIFIED.,.F.,.F.) B_SPLINE_CURVE_WITH_KNOTS((3,3),(3.141507555338,
3.161997984276),.PIECEWISE_BEZIER_KNOTS.) CURVE() 
GEOMETRIC_REPRESENTATION_ITEM() RATIONAL_B_SPLINE_CURVE((1.,
0.999947518249,1.)) REPRESENTATION_ITEM('') );
#257 = CARTESIAN_POINT('',(-37.79999986313,3.216713912749E-03));
#258 = CARTESIAN_POINT('',(-37.8000328202,-0.384065942013));
#259 = CARTESIAN_POINT('',(-37.79213073791,-0.771267974243));
#260 = ( GEOMETRIC_REPRESENTATION_CONTEXT(2) 
PARAMETRIC_REPRESENTATION_CONTEXT() REPRESENTATION_CONTEXT('2D SPACE',''
  ) );
#261 = PCURVE('',#262,#283);
#262 = B_SPLINE_SURFACE_WITH_KNOTS('',9,1,(
    (#263,#264)
    ,(#265,#266)
    ,(#267,#268)
    ,(#269,#270)
    ,(#271,#272)
    ,(#273,#274)
    ,(#275,#276)
    ,(#277,#278)
    ,(#279,#280)
    ,(#281,#282
    )),.UNSPECIFIED.,.F.,.F.,.F.,(10,10),(2,2),(3.14159265359,
    6.28318530718),(0.,1.),.PIECEWISE_BEZIER_KNOTS.);
#263 = CARTESIAN_POINT('',(-37.79213073791,0.771267974243,0.));
#264 = CARTESIAN_POINT('',(-36.75,0.75,85.));
#265 = CARTESIAN_POINT('',(-37.79562806637,0.599898879786,0.));
#266 = CARTESIAN_POINT('',(-37.01179938779,0.75,85.));
#267 = CARTESIAN_POINT('',(-37.79825118407,0.428511943798,0.));
#268 = CARTESIAN_POINT('',(-37.27360149249,0.647191900061,
    84.999999999999));
#269 = CARTESIAN_POINT('',(-37.79999998699,0.257112263859,0.));
#270 = CARTESIAN_POINT('',(-37.48924283384,0.44157278914,85.000000000003
    ));
#271 = CARTESIAN_POINT('',(-37.80087440579,8.570493754982E-02,0.));
#272 = CARTESIAN_POINT('',(-37.61268047281,0.157317457926,
    84.999999999994));
#273 = CARTESIAN_POINT('',(-37.80087440579,-8.570493754981E-02,0.));
#274 = CARTESIAN_POINT('',(-37.61268047282,-0.157317457926,
    85.000000000006));
#275 = CARTESIAN_POINT('',(-37.79999998699,-0.257112263859,0.));
#276 = CARTESIAN_POINT('',(-37.48924283383,-0.44157278914,
    84.999999999995));
#277 = CARTESIAN_POINT('',(-37.79825118407,-0.428511943798,0.));
#278 = CARTESIAN_POINT('',(-37.2736014925,-0.647191900061,
    85.000000000003));
#279 = CARTESIAN_POINT('',(-37.79562806637,-0.599898879786,0.));
#280 = CARTESIAN_POINT('',(-37.01179938779,-0.75,84.999999999999));
#281 = CARTESIAN_POINT('',(-37.79213073791,-0.771267974243,0.));
#282 = CARTESIAN_POINT('',(-36.75,-0.75,85.));
#283 = DEFINITIONAL_REPRESENTATION('',(#284),#289);
#284 = B_SPLINE_CURVE_WITH_KNOTS('',3,(#285,#286,#287,#288),
  .UNSPECIFIED.,.F.,.F.,(4,4),(3.141507555338,3.161997984276),
  .PIECEWISE_BEZIER_KNOTS.);
#285 = CARTESIAN_POINT('',(4.7058381421,-1.840462924852E-16));
#286 = CARTESIAN_POINT('',(5.231611333441,-2.326579579683E-16));
#287 = CARTESIAN_POINT('',(5.757412117378,-6.863707170787E-16));
#288 = CARTESIAN_POINT('',(6.28318530718,-8.791071091129E-16));
#289 = ( GEOMETRIC_REPRESENTATION_CONTEXT(2) 
PARAMETRIC_REPRESENTATION_CONTEXT() REPRESENTATION_CONTEXT('2D SPACE',''
  ) );
#290 = ORIENTED_EDGE('',*,*,#291,.T.);
#291 = EDGE_CURVE('',#247,#22,#292,.T.);
#292 = SURFACE_CURVE('',#293,(#299,#308),.PCURVE_S1.);
#293 = ( BOUNDED_CURVE() B_SPLINE_CURVE(2,(#294,#295,#296,#297,#298),
.UNSPECIFIED.,.F.,.F.) B_SPLINE_CURVE_WITH_KNOTS((3,2,3),(3.161997984276
,4.712388980385,6.262779976493),.PIECEWISE_BEZIER_KNOTS.) CURVE() 
GEOMETRIC_REPRESENTATION_ITEM() RATIONAL_B_SPLINE_CURVE((1.,
0.714284227273,1.,0.714284227273,1.)) REPRESENTATION_ITEM('') );
#294 = CARTESIAN_POINT('',(-37.79213073791,-0.771267974243,0.));
#295 = CARTESIAN_POINT('',(-37.03644232922,-37.8,0.));
#296 = CARTESIAN_POINT('',(9.377568544283E-14,-37.8,0.));
#297 = CARTESIAN_POINT('',(37.03644232923,-37.8,0.));
#298 = CARTESIAN_POINT('',(37.792130737918,-0.771267974243,0.));
#299 = PCURVE('',#32,#300);
#300 = DEFINITIONAL_REPRESENTATION('',(#301),#307);
#301 = ( BOUNDED_CURVE() B_SPLINE_CURVE(2,(#302,#303,#304,#305,#306),
.UNSPECIFIED.,.F.,.F.) B_SPLINE_CURVE_WITH_KNOTS((3,2,3),(3.161997984276
,4.712388980385,6.262779976493),.PIECEWISE_BEZIER_KNOTS.) CURVE() 
GEOMETRIC_REPRESENTATION_ITEM() RATIONAL_B_SPLINE_CURVE((1.,
0.714284227273,1.,0.714284227273,1.)) REPRESENTATION_ITEM('') );
#302 = CARTESIAN_POINT('',(-37.79213073791,-0.771267974243));
#303 = CARTESIAN_POINT('',(-37.03644232922,-37.8));
#304 = CARTESIAN_POINT('',(9.565775358224E-14,-37.8));
#305 = CARTESIAN_POINT('',(37.03644232923,-37.8));
#306 = CARTESIAN_POINT('',(37.792130737918,-0.771267974243));
#307 = ( GEOMETRIC_REPRESENTATION_CONTEXT(2) 
PARAMETRIC_REPRESENTATION_CONTEXT() REPRESENTATION_CONTEXT('2D SPACE',''
  ) );
#308 = PCURVE('',#309,#334);
#309 = B_SPLINE_SURFACE_WITH_KNOTS('',11,1,(
    (#310,#311)
    ,(#312,#313)
    ,(#314,#315)
    ,(#316,#317)
    ,(#318,#319)
    ,(#320,#321)
    ,(#322,#323)
    ,(#324,#325)
    ,(#326,#327)
    ,(#328,#329)
    ,(#330,#331)
    ,(#332,#333
    )),.UNSPECIFIED.,.F.,.F.,.F.,(12,12),(2,2),(-73.5,0.),(0.,1.),
  .PIECEWISE_BEZIER_KNOTS.);
#310 = CARTESIAN_POINT('',(-37.79213073791,-0.771267974243,0.));
#311 = CARTESIAN_POINT('',(-36.75,-0.75,85.));
#312 = CARTESIAN_POINT('',(-37.57471857012,-11.42446419602,0.));
#313 = CARTESIAN_POINT('',(-30.06818181818,-0.75,85.));
#314 = CARTESIAN_POINT('',(-34.05398244305,-22.01024492189,0.));
#315 = CARTESIAN_POINT('',(-23.38636363636,-0.75,85.));
#316 = CARTESIAN_POINT('',(-27.25314953237,-31.390518583,0.));
#317 = CARTESIAN_POINT('',(-16.70454545454,-0.75,85.));
#318 = CARTESIAN_POINT('',(-17.63656680973,-38.43615531257,0.));
#319 = CARTESIAN_POINT('',(-10.02272727272,-0.75,85.));
#320 = CARTESIAN_POINT('',(-6.105738169345,-42.22257429826,0.));
#321 = CARTESIAN_POINT('',(-3.340909090909,-0.75,85.));
#322 = CARTESIAN_POINT('',(6.105738169345,-42.22257429824,0.));
#323 = CARTESIAN_POINT('',(3.340909090909,-0.75,85.));
#324 = CARTESIAN_POINT('',(17.636566809734,-38.43615531259,0.));
#325 = CARTESIAN_POINT('',(10.022727272727,-0.75,85.));
#326 = CARTESIAN_POINT('',(27.253149532378,-31.39051858299,0.));
#327 = CARTESIAN_POINT('',(16.704545454545,-0.75,85.));
#328 = CARTESIAN_POINT('',(34.053982443054,-22.01024492189,0.));
#329 = CARTESIAN_POINT('',(23.386363636364,-0.75,85.));
#330 = CARTESIAN_POINT('',(37.574718570127,-11.42446419602,0.));
#331 = CARTESIAN_POINT('',(30.068181818182,-0.75,85.));
#332 = CARTESIAN_POINT('',(37.792130737918,-0.771267974243,0.));
#333 = CARTESIAN_POINT('',(36.75,-0.75,85.));
#334 = DEFINITIONAL_REPRESENTATION('',(#335),#367);
#335 = B_SPLINE_CURVE_WITH_KNOTS('',8,(#336,#337,#338,#339,#340,#341,
    #342,#343,#344,#345,#346,#347,#348,#349,#350,#351,#352,#353,#354,
    #355,#356,#357,#358,#359,#360,#361,#362,#363,#364,#365,#366),
  .UNSPECIFIED.,.F.,.F.,(9,7,8,7,9),(3.161997984276,3.937193482331,
    4.712388980385,5.487584478439,6.262779976493),.UNSPECIFIED.);
#336 = CARTESIAN_POINT('',(-73.5,-8.798355588992E-16));
#337 = CARTESIAN_POINT('',(-71.42635385601,-5.046002610772E-13));
#338 = CARTESIAN_POINT('',(-69.26806897111,3.236170357879E-12));
#339 = CARTESIAN_POINT('',(-67.0311888298,-2.304615762635E-11));
#340 = CARTESIAN_POINT('',(-64.7252221452,7.932901996836E-12));
#341 = CARTESIAN_POINT('',(-62.36356716183,4.079951933392E-11));
#342 = CARTESIAN_POINT('',(-59.96351172449,-3.305419452236E-12));
#343 = CARTESIAN_POINT('',(-57.5442559006,-1.69855514808E-11));
#344 = CARTESIAN_POINT('',(-52.70574409078,-1.868460241383E-11));
#345 = CARTESIAN_POINT('',(-50.28648827772,-3.173978727654E-12));
#346 = CARTESIAN_POINT('',(-47.88643283164,3.849275533671E-11));
#347 = CARTESIAN_POINT('',(-45.52477788133,7.106033769623E-11));
#348 = CARTESIAN_POINT('',(-43.21881117764,1.609753203872E-11));
#349 = CARTESIAN_POINT('',(-40.98193098523,-1.450914404471E-11));
#350 = CARTESIAN_POINT('',(-38.82364614339,-3.26095455247E-11));
#351 = CARTESIAN_POINT('',(-36.75,-3.24733399237E-11));
#352 = CARTESIAN_POINT('',(-34.67635385619,-3.260807114343E-11));
#353 = CARTESIAN_POINT('',(-32.51806901767,-1.450792643281E-11));
#354 = CARTESIAN_POINT('',(-30.28118881001,1.610404600445E-11));
#355 = CARTESIAN_POINT('',(-27.97522212308,7.106295917795E-11));
#356 = CARTESIAN_POINT('',(-25.61356715508,3.850046266221E-11));
#357 = CARTESIAN_POINT('',(-23.21351172548,-3.167213556197E-12));
#358 = CARTESIAN_POINT('',(-20.79425590885,-1.867665773778E-11));
#359 = CARTESIAN_POINT('',(-15.9557440994,-1.697730048863E-11));
#360 = CARTESIAN_POINT('',(-13.53648827709,-3.296073059713E-12));
#361 = CARTESIAN_POINT('',(-11.13643282422,4.080462621733E-11));
#362 = CARTESIAN_POINT('',(-8.774777841696,7.944345793125E-12));
#363 = CARTESIAN_POINT('',(-6.468811165367,-2.304358801111E-11));
#364 = CARTESIAN_POINT('',(-4.231931030808,3.242024975481E-12));
#365 = CARTESIAN_POINT('',(-2.073646143632,-5.023920407828E-13));
#366 = CARTESIAN_POINT('',(2.448242927122E-14,-2.778780540083E-17));
#367 = ( GEOMETRIC_REPRESENTATION_CONTEXT(2) 
PARAMETRIC_REPRESENTATION_CONTEXT() REPRESENTATION_CONTEXT('2D SPACE',''
  ) );
#368 = ADVANCED_FACE('',(#369),#44,.T.);
#369 = FACE_BOUND('',#370,.T.);
#370 = EDGE_LOOP('',(#371,#393,#394,#416,#553));
#371 = ORIENTED_EDGE('',*,*,#372,.F.);
#372 = EDGE_CURVE('',#22,#373,#375,.T.);
#373 = VERTEX_POINT('',#374);
#374 = CARTESIAN_POINT('',(36.75,-0.75,85.));
#375 = SURFACE_CURVE('',#376,(#379,#386),.PCURVE_S1.);
#376 = B_SPLINE_CURVE_WITH_KNOTS('',1,(#377,#378),.UNSPECIFIED.,.F.,.F.,
  (2,2),(0.,1.),.PIECEWISE_BEZIER_KNOTS.);
#377 = CARTESIAN_POINT('',(37.792130737918,-0.771267974243,0.));
#378 = CARTESIAN_POINT('',(36.75,-0.75,85.));
#379 = PCURVE('',#44,#380);
#380 = DEFINITIONAL_REPRESENTATION('',(#381),#385);
#381 = B_SPLINE_CURVE_WITH_KNOTS('',2,(#382,#383,#384),.UNSPECIFIED.,.F.
  ,.F.,(3,3),(0.,1.),.PIECEWISE_BEZIER_KNOTS.);
#382 = CARTESIAN_POINT('',(3.14159265359,0.));
#383 = CARTESIAN_POINT('',(3.14159265359,0.5));
#384 = CARTESIAN_POINT('',(3.14159265359,1.));
#385 = ( GEOMETRIC_REPRESENTATION_CONTEXT(2) 
PARAMETRIC_REPRESENTATION_CONTEXT() REPRESENTATION_CONTEXT('2D SPACE',''
  ) );
#386 = PCURVE('',#309,#387);
#387 = DEFINITIONAL_REPRESENTATION('',(#388),#392);
#388 = B_SPLINE_CURVE_WITH_KNOTS('',2,(#389,#390,#391),.UNSPECIFIED.,.F.
  ,.F.,(3,3),(0.,1.),.PIECEWISE_BEZIER_KNOTS.);
#389 = CARTESIAN_POINT('',(1.948956498872E-14,6.744905302847E-20));
#390 = CARTESIAN_POINT('',(7.437126885196E-15,0.5));
#391 = CARTESIAN_POINT('',(0.,1.));
#392 = ( GEOMETRIC_REPRESENTATION_CONTEXT(2) 
PARAMETRIC_REPRESENTATION_CONTEXT() REPRESENTATION_CONTEXT('2D SPACE',''
  ) );
#393 = ORIENTED_EDGE('',*,*,#21,.T.);
#394 = ORIENTED_EDGE('',*,*,#395,.T.);
#395 = EDGE_CURVE('',#24,#396,#398,.T.);
#396 = VERTEX_POINT('',#397);
#397 = CARTESIAN_POINT('',(37.795496600522,3.216713912751E-03,
    0.364560910113));
#398 = SURFACE_CURVE('',#399,(#402,#409),.PCURVE_S1.);
#399 = B_SPLINE_CURVE_WITH_KNOTS('',1,(#400,#401),.UNSPECIFIED.,.F.,.F.,
  (2,2),(0.,1.),.PIECEWISE_BEZIER_KNOTS.);
#400 = CARTESIAN_POINT('',(37.8,-7.105427357601E-15,0.));
#401 = CARTESIAN_POINT('',(36.75,0.75,85.));
#402 = PCURVE('',#44,#403);
#403 = DEFINITIONAL_REPRESENTATION('',(#404),#408);
#404 = B_SPLINE_CURVE_WITH_KNOTS('',2,(#405,#406,#407),.UNSPECIFIED.,.F.
  ,.F.,(3,3),(0.,4.288951883677E-03),.PIECEWISE_BEZIER_KNOTS.);
#405 = CARTESIAN_POINT('',(6.28318530718,0.));
#406 = CARTESIAN_POINT('',(6.28318530718,2.144475941838E-03));
#407 = CARTESIAN_POINT('',(6.28318530718,4.288951883677E-03));
#408 = ( GEOMETRIC_REPRESENTATION_CONTEXT(2) 
PARAMETRIC_REPRESENTATION_CONTEXT() REPRESENTATION_CONTEXT('2D SPACE',''
  ) );
#409 = PCURVE('',#89,#410);
#410 = DEFINITIONAL_REPRESENTATION('',(#411),#415);
#411 = B_SPLINE_CURVE_WITH_KNOTS('',2,(#412,#413,#414),.UNSPECIFIED.,.F.
  ,.F.,(3,3),(0.,4.288951883677E-03),.PIECEWISE_BEZIER_KNOTS.);
#412 = CARTESIAN_POINT('',(-73.5,0.));
#413 = CARTESIAN_POINT('',(-73.5,2.144475941838E-03));
#414 = CARTESIAN_POINT('',(-73.5,4.288951883677E-03));
#415 = ( GEOMETRIC_REPRESENTATION_CONTEXT(2) 
PARAMETRIC_REPRESENTATION_CONTEXT() REPRESENTATION_CONTEXT('2D SPACE',''
  ) );
#416 = ORIENTED_EDGE('',*,*,#417,.T.);
#417 = EDGE_CURVE('',#396,#418,#420,.T.);
#418 = VERTEX_POINT('',#419);
#419 = CARTESIAN_POINT('',(37.499993101803,3.216713912751E-03,85.));
#420 = SURFACE_CURVE('',#421,(#460,#496),.PCURVE_S1.);
#421 = B_SPLINE_CURVE_WITH_KNOTS('',7,(#422,#423,#424,#425,#426,#427,
    #428,#429,#430,#431,#432,#433,#434,#435,#436,#437,#438,#439,#440,
    #441,#442,#443,#444,#445,#446,#447,#448,#449,#450,#451,#452,#453,
    #454,#455,#456,#457,#458,#459),.UNSPECIFIED.,.F.,.F.,(8,6,6,6,6,6,8)
  ,(0.,7.444463539427E-02,0.19473740372,0.376729374166,0.55863294258,
    0.969467266241,1.),.UNSPECIFIED.);
#422 = CARTESIAN_POINT('',(37.795496600522,3.216713912751E-03,
    0.364560910113));
#423 = CARTESIAN_POINT('',(37.784486232802,3.216713912751E-03,
    1.264333036147));
#424 = CARTESIAN_POINT('',(37.774078252353,3.216713912751E-03,
    2.164089537408));
#425 = CARTESIAN_POINT('',(37.764298146723,3.216713912751E-03,
    3.063833305232));
#426 = CARTESIAN_POINT('',(37.755161014797,3.216713912751E-03,
    3.963568410949));
#427 = CARTESIAN_POINT('',(37.746666482676,3.216713912751E-03,
    4.863299717131));
#428 = CARTESIAN_POINT('',(37.738798259306,3.216713912751E-03,
    5.763032375233));
#429 = CARTESIAN_POINT('',(37.719781082469,3.216713912751E-03,
    8.11663117666));
#430 = CARTESIAN_POINT('',(37.709595891579,3.216713912751E-03,
    9.570507199922));
#431 = CARTESIAN_POINT('',(37.700855424893,3.216713912751E-03,
    11.024419010358));
#432 = CARTESIAN_POINT('',(37.693358080667,3.216713912751E-03,
    12.478382715396));
#433 = CARTESIAN_POINT('',(37.686875443827,3.216713912751E-03,
    13.932405032171));
#434 = CARTESIAN_POINT('',(37.68121273103,3.216713912751E-03,
    15.386486304701));
#435 = CARTESIAN_POINT('',(37.668623150032,3.216713912751E-03,
    19.040597711832));
#436 = CARTESIAN_POINT('',(37.662538157324,3.216713912751E-03,
    21.240699926083));
#437 = CARTESIAN_POINT('',(37.657369123469,3.216713912751E-03,
    23.440918497368));
#438 = CARTESIAN_POINT('',(37.652712013809,3.216713912751E-03,
    25.641232223453));
#439 = CARTESIAN_POINT('',(37.648340621158,3.216713912751E-03,
    27.841622059641));
#440 = CARTESIAN_POINT('',(37.64409305003,3.216713912751E-03,
    30.042072217377));
#441 = CARTESIAN_POINT('',(37.635642364291,3.216713912751E-03,
    34.442000481604));
#442 = CARTESIAN_POINT('',(37.631438885845,3.216713912751E-03,
    36.641479163326));
#443 = CARTESIAN_POINT('',(37.627152687144,3.216713912751E-03,
    38.840996528371));
#444 = CARTESIAN_POINT('',(37.622729867682,3.216713912751E-03,
    41.040544292465));
#445 = CARTESIAN_POINT('',(37.618140714134,3.216713912751E-03,
    43.240116199868));
#446 = CARTESIAN_POINT('',(37.613366381798,3.216713912751E-03,
    45.439707906138));
#447 = CARTESIAN_POINT('',(37.597175883693,3.216713912751E-03,
    52.607195134696));
#448 = CARTESIAN_POINT('',(37.584961951229,3.216713912751E-03,
    57.575155253043));
#449 = CARTESIAN_POINT('',(37.571648184461,3.216713912751E-03,
    62.543165883674));
#450 = CARTESIAN_POINT('',(37.557321346263,3.216713912751E-03,
    67.511208030367));
#451 = CARTESIAN_POINT('',(37.542039039641,3.216713912751E-03,
    72.479270009581));
#452 = CARTESIAN_POINT('',(37.525881059143,3.216713912751E-03,
    77.447346686606));
#453 = CARTESIAN_POINT('',(37.507652169882,3.216713912751E-03,
    82.784661467666));
#454 = CARTESIAN_POINT('',(37.506386666691,3.216713912751E-03,
    83.153884402118));
#455 = CARTESIAN_POINT('',(37.505116719802,3.216713912751E-03,
    83.523107400394));
#456 = CARTESIAN_POINT('',(37.503842356905,3.216713912751E-03,
    83.892330460865));
#457 = CARTESIAN_POINT('',(37.502563605517,3.216713912751E-03,
    84.261553581959));
#458 = CARTESIAN_POINT('',(37.501280492988,3.216713912751E-03,
    84.630776762158));
#459 = CARTESIAN_POINT('',(37.4999930465,3.216713912751E-03,85.));
#460 = PCURVE('',#44,#461);
#461 = DEFINITIONAL_REPRESENTATION('',(#462),#495);
#462 = B_SPLINE_CURVE_WITH_KNOTS('',8,(#463,#464,#465,#466,#467,#468,
    #469,#470,#471,#472,#473,#474,#475,#476,#477,#478,#479,#480,#481,
    #482,#483,#484,#485,#486,#487,#488,#489,#490,#491,#492,#493,#494),
  .UNSPECIFIED.,.F.,.F.,(9,7,8,8,9),(0.,0.125,0.34375,0.671875,1.),
  .UNSPECIFIED.);
#463 = CARTESIAN_POINT('',(6.28318530718,4.288951883677E-03));
#464 = CARTESIAN_POINT('',(6.23547182688,1.984138258626E-02));
#465 = CARTESIAN_POINT('',(6.186090671624,3.539342259493E-02));
#466 = CARTESIAN_POINT('',(6.135436928038,5.094518148431E-02));
#467 = CARTESIAN_POINT('',(6.084043318675,6.649679606892E-02));
#468 = CARTESIAN_POINT('',(6.032542368913,8.204847347715E-02));
#469 = CARTESIAN_POINT('',(5.981533050268,9.760041048188E-02));
#470 = CARTESIAN_POINT('',(5.931469490482,0.113152718881));
#471 = CARTESIAN_POINT('',(5.797324174704,0.155922831661));
#472 = CARTESIAN_POINT('',(5.715884655277,0.183141563652));
#473 = CARTESIAN_POINT('',(5.640178448724,0.210362206039));
#474 = CARTESIAN_POINT('',(5.57075312658,0.237584505128));
#475 = CARTESIAN_POINT('',(5.507049346343,0.264808258868));
#476 = CARTESIAN_POINT('',(5.448621997566,0.292033195313));
#477 = CARTESIAN_POINT('',(5.394867102419,0.319259087609));
#478 = CARTESIAN_POINT('',(5.345277010512,0.346485750765));
#479 = CARTESIAN_POINT('',(5.270891422833,0.387325749305));
#480 = CARTESIAN_POINT('',(5.205873035447,0.428167448083));
#481 = CARTESIAN_POINT('',(5.148455659713,0.469010336405));
#482 = CARTESIAN_POINT('',(5.097109074297,0.509853986234));
#483 = CARTESIAN_POINT('',(5.050814279151,0.550698246632));
#484 = CARTESIAN_POINT('',(5.008731000635,0.591542922662));
#485 = CARTESIAN_POINT('',(4.970237520549,0.632387924102));
#486 = CARTESIAN_POINT('',(4.934827379565,0.673233198416));
#487 = CARTESIAN_POINT('',(4.899417382997,0.714078472639));
#488 = CARTESIAN_POINT('',(4.867090819551,0.754924005819));
#489 = CARTESIAN_POINT('',(4.8373464242,0.795769740991));
#490 = CARTESIAN_POINT('',(4.809808926151,0.836615611348));
#491 = CARTESIAN_POINT('',(4.784188021828,0.877461577387));
#492 = CARTESIAN_POINT('',(4.760249603895,0.918307633904));
#493 = CARTESIAN_POINT('',(4.737799246333,0.959153786843));
#494 = CARTESIAN_POINT('',(4.716677945563,1.));
#495 = ( GEOMETRIC_REPRESENTATION_CONTEXT(2) 
PARAMETRIC_REPRESENTATION_CONTEXT() REPRESENTATION_CONTEXT('2D SPACE',''
  ) );
#496 = PCURVE('',#497,#518);
#497 = B_SPLINE_SURFACE_WITH_KNOTS('',9,1,(
    (#498,#499)
    ,(#500,#501)
    ,(#502,#503)
    ,(#504,#505)
    ,(#506,#507)
    ,(#508,#509)
    ,(#510,#511)
    ,(#512,#513)
    ,(#514,#515)
    ,(#516,#517
    )),.UNSPECIFIED.,.F.,.F.,.F.,(10,10),(2,2),(3.14159265359,
    6.28318530718),(0.,1.),.PIECEWISE_BEZIER_KNOTS.);
#498 = CARTESIAN_POINT('',(37.792130737918,-0.771267974243,0.));
#499 = CARTESIAN_POINT('',(36.75,-0.75,85.));
#500 = CARTESIAN_POINT('',(37.793879402147,-0.685583427015,0.));
#501 = CARTESIAN_POINT('',(37.011799387799,-0.75,85.));
#502 = CARTESIAN_POINT('',(37.795409506102,-0.599894419434,0.));
#503 = CARTESIAN_POINT('',(37.273601492499,-0.647191900061,
    84.999999999999));
#504 = CARTESIAN_POINT('',(37.796721043281,-0.514201588687,0.));
#505 = CARTESIAN_POINT('',(37.48924283384,-0.44157278914,85.000000000003
    ));
#506 = CARTESIAN_POINT('',(37.797814007183,-0.428505571955,0.));
#507 = CARTESIAN_POINT('',(37.612680472816,-0.157317457926,
    84.999999999994));
#508 = CARTESIAN_POINT('',(37.798688391308,-0.342807006425,0.));
#509 = CARTESIAN_POINT('',(37.612680472822,0.157317457926,
    85.000000000006));
#510 = CARTESIAN_POINT('',(37.799344189153,-0.25710652928,0.));
#511 = CARTESIAN_POINT('',(37.489242833835,0.44157278914,84.999999999995
    ));
#512 = CARTESIAN_POINT('',(37.799781394217,-0.171404777705,0.));
#513 = CARTESIAN_POINT('',(37.2736014925,0.647191900061,85.000000000003)
  );
#514 = CARTESIAN_POINT('',(37.8,-8.570238888347E-02,0.));
#515 = CARTESIAN_POINT('',(37.011799387799,0.75,84.999999999999));
#516 = CARTESIAN_POINT('',(37.8,-9.27036225562E-15,0.));
#517 = CARTESIAN_POINT('',(36.75,0.75,85.));
#518 = DEFINITIONAL_REPRESENTATION('',(#519),#552);
#519 = B_SPLINE_CURVE_WITH_KNOTS('',8,(#520,#521,#522,#523,#524,#525,
    #526,#527,#528,#529,#530,#531,#532,#533,#534,#535,#536,#537,#538,
    #539,#540,#541,#542,#543,#544,#545,#546,#547,#548,#549,#550,#551),
  .UNSPECIFIED.,.F.,.F.,(9,7,8,8,9),(0.,0.125,0.34375,0.671875,1.),
  .UNSPECIFIED.);
#520 = CARTESIAN_POINT('',(6.28318530718,4.288951883677E-03));
#521 = CARTESIAN_POINT('',(6.23547182688,1.984138258626E-02));
#522 = CARTESIAN_POINT('',(6.186090671624,3.539342259493E-02));
#523 = CARTESIAN_POINT('',(6.135436928038,5.094518148431E-02));
#524 = CARTESIAN_POINT('',(6.084043318675,6.649679606892E-02));
#525 = CARTESIAN_POINT('',(6.032542368913,8.204847347715E-02));
#526 = CARTESIAN_POINT('',(5.981533050268,9.760041048188E-02));
#527 = CARTESIAN_POINT('',(5.931469490482,0.113152718881));
#528 = CARTESIAN_POINT('',(5.797324174704,0.155922831661));
#529 = CARTESIAN_POINT('',(5.715884655277,0.183141563652));
#530 = CARTESIAN_POINT('',(5.640178448724,0.210362206039));
#531 = CARTESIAN_POINT('',(5.57075312658,0.237584505128));
#532 = CARTESIAN_POINT('',(5.507049346343,0.264808258868));
#533 = CARTESIAN_POINT('',(5.448621997566,0.292033195313));
#534 = CARTESIAN_POINT('',(5.394867102419,0.319259087609));
#535 = CARTESIAN_POINT('',(5.345277010512,0.346485750765));
#536 = CARTESIAN_POINT('',(5.270891422833,0.387325749305));
#537 = CARTESIAN_POINT('',(5.205873035447,0.428167448083));
#538 = CARTESIAN_POINT('',(5.148455659713,0.469010336405));
#539 = CARTESIAN_POINT('',(5.097109074297,0.509853986234));
#540 = CARTESIAN_POINT('',(5.050814279151,0.550698246632));
#541 = CARTESIAN_POINT('',(5.008731000635,0.591542922662));
#542 = CARTESIAN_POINT('',(4.970237520549,0.632387924102));
#543 = CARTESIAN_POINT('',(4.934827379565,0.673233198416));
#544 = CARTESIAN_POINT('',(4.899417382997,0.714078472639));
#545 = CARTESIAN_POINT('',(4.867090819551,0.754924005819));
#546 = CARTESIAN_POINT('',(4.8373464242,0.795769740991));
#547 = CARTESIAN_POINT('',(4.809808926151,0.836615611348));
#548 = CARTESIAN_POINT('',(4.784188021828,0.877461577387));
#549 = CARTESIAN_POINT('',(4.760249603895,0.918307633904));
#550 = CARTESIAN_POINT('',(4.737799246333,0.959153786843));
#551 = CARTESIAN_POINT('',(4.716677945563,1.));
#552 = ( GEOMETRIC_REPRESENTATION_CONTEXT(2) 
PARAMETRIC_REPRESENTATION_CONTEXT() REPRESENTATION_CONTEXT('2D SPACE',''
  ) );
#553 = ORIENTED_EDGE('',*,*,#554,.T.);
#554 = EDGE_CURVE('',#418,#373,#555,.T.);
#555 = SURFACE_CURVE('',#556,(#560,#576),.PCURVE_S1.);
#556 = ( BOUNDED_CURVE() B_SPLINE_CURVE(2,(#557,#558,#559),
.UNSPECIFIED.,.F.,.F.) B_SPLINE_CURVE_WITH_KNOTS((3,3),(1.566507361762,
3.14159265359),.PIECEWISE_BEZIER_KNOTS.) CURVE() 
GEOMETRIC_REPRESENTATION_ITEM() RATIONAL_B_SPLINE_CURVE((1.,
0.705588778297,1.)) REPRESENTATION_ITEM('') );
#557 = CARTESIAN_POINT('',(37.499993101803,3.21671391275E-03,85.));
#558 = CARTESIAN_POINT('',(37.50322364176,-0.75,85.));
#559 = CARTESIAN_POINT('',(36.75,-0.75,85.));
#560 = PCURVE('',#44,#561);
#561 = DEFINITIONAL_REPRESENTATION('',(#562),#575);
#562 = B_SPLINE_CURVE_WITH_KNOTS('',6,(#563,#564,#565,#566,#567,#568,
    #569,#570,#571,#572,#573,#574),.UNSPECIFIED.,.F.,.F.,(7,5,7),(
    1.566507361762,2.354050007676,3.14159265359),.UNSPECIFIED.);
#563 = CARTESIAN_POINT('',(4.716677945247,0.999999999998));
#564 = CARTESIAN_POINT('',(4.598574320954,0.999999999998));
#565 = CARTESIAN_POINT('',(4.473516649343,0.999999999998));
#566 = CARTESIAN_POINT('',(4.342220169982,1.000000000003));
#567 = CARTESIAN_POINT('',(4.206114137832,1.000000000004));
#568 = CARTESIAN_POINT('',(4.067625553665,1.000000000001));
#569 = CARTESIAN_POINT('',(3.790645089343,0.999999999998));
#570 = CARTESIAN_POINT('',(3.652156481633,0.999999999997));
#571 = CARTESIAN_POINT('',(3.516050573751,1.000000000003));
#572 = CARTESIAN_POINT('',(3.384753507927,1.));
#573 = CARTESIAN_POINT('',(3.259696283248,1.));
#574 = CARTESIAN_POINT('',(3.14159265359,1.));
#575 = ( GEOMETRIC_REPRESENTATION_CONTEXT(2) 
PARAMETRIC_REPRESENTATION_CONTEXT() REPRESENTATION_CONTEXT('2D SPACE',''
  ) );
#576 = PCURVE('',#577,#582);
#577 = CYLINDRICAL_SURFACE('',#578,0.75);
#578 = AXIS2_PLACEMENT_3D('',#579,#580,#581);
#579 = CARTESIAN_POINT('',(36.75,0.,85.));
#580 = DIRECTION('',(0.,0.,-1.));
#581 = DIRECTION('',(0.,1.,0.));
#582 = DEFINITIONAL_REPRESENTATION('',(#583),#592);
#583 = B_SPLINE_CURVE_WITH_KNOTS('',7,(#584,#585,#586,#587,#588,#589,
    #590,#591),.UNSPECIFIED.,.F.,.F.,(8,8),(1.566507361762,3.14159265359
    ),.PIECEWISE_BEZIER_KNOTS.);
#584 = CARTESIAN_POINT('',(1.566507361762,0.));
#585 = CARTESIAN_POINT('',(1.768970656685,0.));
#586 = CARTESIAN_POINT('',(1.99132182771,0.));
#587 = CARTESIAN_POINT('',(2.230120326181,0.));
#588 = CARTESIAN_POINT('',(2.477979689173,0.));
#589 = CARTESIAN_POINT('',(2.716778187638,0.));
#590 = CARTESIAN_POINT('',(2.939129358667,0.));
#591 = CARTESIAN_POINT('',(3.14159265359,0.));
#592 = ( GEOMETRIC_REPRESENTATION_CONTEXT(2) 
PARAMETRIC_REPRESENTATION_CONTEXT() REPRESENTATION_CONTEXT('2D SPACE',''
  ) );
#593 = ADVANCED_FACE('',(#594),#89,.T.);
#594 = FACE_BOUND('',#595,.T.);
#595 = EDGE_LOOP('',(#596,#597,#598));
#596 = ORIENTED_EDGE('',*,*,#395,.F.);
#597 = ORIENTED_EDGE('',*,*,#73,.T.);
#598 = ORIENTED_EDGE('',*,*,#599,.T.);
#599 = EDGE_CURVE('',#74,#396,#600,.T.);
#600 = SURFACE_CURVE('',#601,(#607,#614),.PCURVE_S1.);
#601 = B_SPLINE_CURVE_WITH_KNOTS('',4,(#602,#603,#604,#605,#606),
  .UNSPECIFIED.,.F.,.F.,(5,5),(0.,1.),.PIECEWISE_BEZIER_KNOTS.);
#602 = CARTESIAN_POINT('',(37.799999863132,3.216713912751E-03,0.));
#603 = CARTESIAN_POINT('',(37.798871932963,3.216713912751E-03,
    9.114021695722E-02));
#604 = CARTESIAN_POINT('',(37.797745406425,3.216713912751E-03,
    0.182280440963));
#605 = CARTESIAN_POINT('',(37.796620292549,3.216713912751E-03,
    0.273420672018));
#606 = CARTESIAN_POINT('',(37.795496600522,3.216713912751E-03,
    0.364560910113));
#607 = PCURVE('',#89,#608);
#608 = DEFINITIONAL_REPRESENTATION('',(#609),#613);
#609 = B_SPLINE_CURVE_WITH_KNOTS('',2,(#610,#611,#612),.UNSPECIFIED.,.F.
  ,.F.,(3,3),(0.,1.),.PIECEWISE_BEZIER_KNOTS.);
#610 = CARTESIAN_POINT('',(-73.49799604417,-3.875970370677E-17));
#611 = CARTESIAN_POINT('',(-73.4989937153,2.144475693154E-03));
#612 = CARTESIAN_POINT('',(-73.5,4.288951883677E-03));
#613 = ( GEOMETRIC_REPRESENTATION_CONTEXT(2) 
PARAMETRIC_REPRESENTATION_CONTEXT() REPRESENTATION_CONTEXT('2D SPACE',''
  ) );
#614 = PCURVE('',#141,#615);
#615 = DEFINITIONAL_REPRESENTATION('',(#616),#620);
#616 = B_SPLINE_CURVE_WITH_KNOTS('',2,(#617,#618,#619),.UNSPECIFIED.,.F.
  ,.F.,(3,3),(0.,1.),.PIECEWISE_BEZIER_KNOTS.);
#617 = CARTESIAN_POINT('',(-73.49799604417,-3.875970370677E-17));
#618 = CARTESIAN_POINT('',(-73.4989937153,2.144475693154E-03));
#619 = CARTESIAN_POINT('',(-73.5,4.288951883677E-03));
#620 = ( GEOMETRIC_REPRESENTATION_CONTEXT(2) 
PARAMETRIC_REPRESENTATION_CONTEXT() REPRESENTATION_CONTEXT('2D SPACE',''
  ) );
#621 = ADVANCED_FACE('',(#622),#141,.T.);
#622 = FACE_BOUND('',#623,.T.);
#623 = EDGE_LOOP('',(#624,#625,#626,#648,#674));
#624 = ORIENTED_EDGE('',*,*,#599,.F.);
#625 = ORIENTED_EDGE('',*,*,#121,.T.);
#626 = ORIENTED_EDGE('',*,*,#627,.T.);
#627 = EDGE_CURVE('',#122,#628,#630,.T.);
#628 = VERTEX_POINT('',#629);
#629 = CARTESIAN_POINT('',(-36.75,0.75,85.));
#630 = SURFACE_CURVE('',#631,(#634,#641),.PCURVE_S1.);
#631 = B_SPLINE_CURVE_WITH_KNOTS('',1,(#632,#633),.UNSPECIFIED.,.F.,.F.,
  (2,2),(0.,1.),.PIECEWISE_BEZIER_KNOTS.);
#632 = CARTESIAN_POINT('',(-37.79213073791,0.771267974243,0.));
#633 = CARTESIAN_POINT('',(-36.75,0.75,85.));
#634 = PCURVE('',#141,#635);
#635 = DEFINITIONAL_REPRESENTATION('',(#636),#640);
#636 = B_SPLINE_CURVE_WITH_KNOTS('',2,(#637,#638,#639),.UNSPECIFIED.,.F.
  ,.F.,(3,3),(0.,1.),.PIECEWISE_BEZIER_KNOTS.);
#637 = CARTESIAN_POINT('',(1.069151868323E-14,-1.474243587616E-18));
#638 = CARTESIAN_POINT('',(2.365901361649E-14,0.5));
#639 = CARTESIAN_POINT('',(2.84217094304E-14,1.));
#640 = ( GEOMETRIC_REPRESENTATION_CONTEXT(2) 
PARAMETRIC_REPRESENTATION_CONTEXT() REPRESENTATION_CONTEXT('2D SPACE',''
  ) );
#641 = PCURVE('',#217,#642);
#642 = DEFINITIONAL_REPRESENTATION('',(#643),#647);
#643 = B_SPLINE_CURVE_WITH_KNOTS('',2,(#644,#645,#646),.UNSPECIFIED.,.F.
  ,.F.,(3,3),(0.,1.),.PIECEWISE_BEZIER_KNOTS.);
#644 = CARTESIAN_POINT('',(3.14159265359,0.));
#645 = CARTESIAN_POINT('',(3.14159265359,0.5));
#646 = CARTESIAN_POINT('',(3.14159265359,1.));
#647 = ( GEOMETRIC_REPRESENTATION_CONTEXT(2) 
PARAMETRIC_REPRESENTATION_CONTEXT() REPRESENTATION_CONTEXT('2D SPACE',''
  ) );
#648 = ORIENTED_EDGE('',*,*,#649,.T.);
#649 = EDGE_CURVE('',#628,#650,#652,.T.);
#650 = VERTEX_POINT('',#651);
#651 = CARTESIAN_POINT('',(36.75,0.75,85.));
#652 = SURFACE_CURVE('',#653,(#656,#663),.PCURVE_S1.);
#653 = B_SPLINE_CURVE_WITH_KNOTS('',1,(#654,#655),.UNSPECIFIED.,.F.,.F.,
  (2,2),(0.,73.5),.PIECEWISE_BEZIER_KNOTS.);
#654 = CARTESIAN_POINT('',(-36.75,0.75,85.));
#655 = CARTESIAN_POINT('',(36.75,0.75,85.));
#656 = PCURVE('',#141,#657);
#657 = DEFINITIONAL_REPRESENTATION('',(#658),#662);
#658 = B_SPLINE_CURVE_WITH_KNOTS('',2,(#659,#660,#661),.UNSPECIFIED.,.F.
  ,.F.,(3,3),(0.,73.5),.PIECEWISE_BEZIER_KNOTS.);
#659 = CARTESIAN_POINT('',(2.84217094304E-14,1.));
#660 = CARTESIAN_POINT('',(-36.74999999999,1.));
#661 = CARTESIAN_POINT('',(-73.5,1.));
#662 = ( GEOMETRIC_REPRESENTATION_CONTEXT(2) 
PARAMETRIC_REPRESENTATION_CONTEXT() REPRESENTATION_CONTEXT('2D SPACE',''
  ) );
#663 = PCURVE('',#664,#669);
#664 = PLANE('',#665);
#665 = AXIS2_PLACEMENT_3D('',#666,#667,#668);
#666 = CARTESIAN_POINT('',(-36.75,0.75,85.));
#667 = DIRECTION('',(0.,1.,0.));
#668 = DIRECTION('',(1.,0.,0.));
#669 = DEFINITIONAL_REPRESENTATION('',(#670),#673);
#670 = B_SPLINE_CURVE_WITH_KNOTS('',1,(#671,#672),.UNSPECIFIED.,.F.,.F.,
  (2,2),(0.,73.5),.PIECEWISE_BEZIER_KNOTS.);
#671 = CARTESIAN_POINT('',(0.,0.));
#672 = CARTESIAN_POINT('',(73.5,0.));
#673 = ( GEOMETRIC_REPRESENTATION_CONTEXT(2) 
PARAMETRIC_REPRESENTATION_CONTEXT() REPRESENTATION_CONTEXT('2D SPACE',''
  ) );
#674 = ORIENTED_EDGE('',*,*,#675,.F.);
#675 = EDGE_CURVE('',#396,#650,#676,.T.);
#676 = SURFACE_CURVE('',#677,(#680,#687),.PCURVE_S1.);
#677 = B_SPLINE_CURVE_WITH_KNOTS('',1,(#678,#679),.UNSPECIFIED.,.F.,.F.,
  (2,2),(0.,1.),.PIECEWISE_BEZIER_KNOTS.);
#678 = CARTESIAN_POINT('',(37.8,-7.105427357601E-15,0.));
#679 = CARTESIAN_POINT('',(36.75,0.75,85.));
#680 = PCURVE('',#141,#681);
#681 = DEFINITIONAL_REPRESENTATION('',(#682),#686);
#682 = B_SPLINE_CURVE_WITH_KNOTS('',2,(#683,#684,#685),.UNSPECIFIED.,.F.
  ,.F.,(3,3),(4.288951883677E-03,1.),.PIECEWISE_BEZIER_KNOTS.);
#683 = CARTESIAN_POINT('',(-73.5,4.288951883677E-03));
#684 = CARTESIAN_POINT('',(-73.5,0.502144475942));
#685 = CARTESIAN_POINT('',(-73.5,1.));
#686 = ( GEOMETRIC_REPRESENTATION_CONTEXT(2) 
PARAMETRIC_REPRESENTATION_CONTEXT() REPRESENTATION_CONTEXT('2D SPACE',''
  ) );
#687 = PCURVE('',#497,#688);
#688 = DEFINITIONAL_REPRESENTATION('',(#689),#693);
#689 = B_SPLINE_CURVE_WITH_KNOTS('',2,(#690,#691,#692),.UNSPECIFIED.,.F.
  ,.F.,(3,3),(4.288951883677E-03,1.),.PIECEWISE_BEZIER_KNOTS.);
#690 = CARTESIAN_POINT('',(6.28318530718,4.288951883677E-03));
#691 = CARTESIAN_POINT('',(6.28318530718,0.502144475942));
#692 = CARTESIAN_POINT('',(6.28318530718,1.));
#693 = ( GEOMETRIC_REPRESENTATION_CONTEXT(2) 
PARAMETRIC_REPRESENTATION_CONTEXT() REPRESENTATION_CONTEXT('2D SPACE',''
  ) );
#694 = ADVANCED_FACE('',(#695),#217,.T.);
#695 = FACE_BOUND('',#696,.T.);
#696 = EDGE_LOOP('',(#697,#698,#699,#735));
#697 = ORIENTED_EDGE('',*,*,#627,.F.);
#698 = ORIENTED_EDGE('',*,*,#201,.T.);
#699 = ORIENTED_EDGE('',*,*,#700,.T.);
#700 = EDGE_CURVE('',#202,#701,#703,.T.);
#701 = VERTEX_POINT('',#702);
#702 = CARTESIAN_POINT('',(-37.4999931018,3.216713912751E-03,85.));
#703 = SURFACE_CURVE('',#704,(#715,#725),.PCURVE_S1.);
#704 = B_SPLINE_CURVE_WITH_KNOTS('',5,(#705,#706,#707,#708,#709,#710,
    #711,#712,#713,#714),.UNSPECIFIED.,.F.,.F.,(6,4,6),(0.,
    0.842000002342,1.),.UNSPECIFIED.);
#705 = CARTESIAN_POINT('',(-37.79999986313,3.216713912751E-03,0.));
#706 = CARTESIAN_POINT('',(-37.74947719109,3.216713912751E-03,
    14.314000031111));
#707 = CARTESIAN_POINT('',(-37.69895569622,3.216713912751E-03,
    28.628000069012));
#708 = CARTESIAN_POINT('',(-37.64843464493,3.216713912751E-03,
    42.942000109538));
#709 = CARTESIAN_POINT('',(-37.59791394192,3.216713912751E-03,
    57.25600015174));
#710 = CARTESIAN_POINT('',(-37.53791335127,3.216713912751E-03,
    74.256000156118));
#711 = CARTESIAN_POINT('',(-37.52843326553,3.216713912751E-03,
    76.942000117036));
#712 = CARTESIAN_POINT('',(-37.51895318655,3.216713912751E-03,
    79.628000077991));
#713 = CARTESIAN_POINT('',(-37.5094731137,3.216713912751E-03,
    82.31400003898));
#714 = CARTESIAN_POINT('',(-37.4999930465,3.216713912751E-03,85.));
#715 = PCURVE('',#217,#716);
#716 = DEFINITIONAL_REPRESENTATION('',(#717),#724);
#717 = B_SPLINE_CURVE_WITH_KNOTS('',5,(#718,#719,#720,#721,#722,#723),
  .UNSPECIFIED.,.F.,.F.,(6,6),(0.,1.),.PIECEWISE_BEZIER_KNOTS.);
#718 = CARTESIAN_POINT('',(4.7058381421,-1.339801981665E-16));
#719 = CARTESIAN_POINT('',(4.706528908242,0.199999999878));
#720 = CARTESIAN_POINT('',(4.707038825339,0.39999999987));
#721 = CARTESIAN_POINT('',(4.707457175227,0.59999999989));
#722 = CARTESIAN_POINT('',(4.707803704866,0.799999999938));
#723 = CARTESIAN_POINT('',(4.708100015207,1.));
#724 = ( GEOMETRIC_REPRESENTATION_CONTEXT(2) 
PARAMETRIC_REPRESENTATION_CONTEXT() REPRESENTATION_CONTEXT('2D SPACE',''
  ) );
#725 = PCURVE('',#262,#726);
#726 = DEFINITIONAL_REPRESENTATION('',(#727),#734);
#727 = B_SPLINE_CURVE_WITH_KNOTS('',5,(#728,#729,#730,#731,#732,#733),
  .UNSPECIFIED.,.F.,.F.,(6,6),(0.,1.),.PIECEWISE_BEZIER_KNOTS.);
#728 = CARTESIAN_POINT('',(4.7058381421,-1.339801981665E-16));
#729 = CARTESIAN_POINT('',(4.706528908242,0.199999999878));
#730 = CARTESIAN_POINT('',(4.707038825339,0.39999999987));
#731 = CARTESIAN_POINT('',(4.707457175227,0.59999999989));
#732 = CARTESIAN_POINT('',(4.707803704866,0.799999999938));
#733 = CARTESIAN_POINT('',(4.708100015207,1.));
#734 = ( GEOMETRIC_REPRESENTATION_CONTEXT(2) 
PARAMETRIC_REPRESENTATION_CONTEXT() REPRESENTATION_CONTEXT('2D SPACE',''
  ) );
#735 = ORIENTED_EDGE('',*,*,#736,.T.);
#736 = EDGE_CURVE('',#701,#628,#737,.T.);
#737 = SURFACE_CURVE('',#738,(#742,#758),.PCURVE_S1.);
#738 = ( BOUNDED_CURVE() B_SPLINE_CURVE(2,(#739,#740,#741),
.UNSPECIFIED.,.F.,.F.) B_SPLINE_CURVE_WITH_KNOTS((3,3),(1.575085291828,
3.14159265359),.PIECEWISE_BEZIER_KNOTS.) CURVE() 
GEOMETRIC_REPRESENTATION_ITEM() RATIONAL_B_SPLINE_CURVE((1.,
0.708621532231,1.)) REPRESENTATION_ITEM('') );
#739 = CARTESIAN_POINT('',(-37.4999931018,3.216713912763E-03,85.));
#740 = CARTESIAN_POINT('',(-37.49679015476,0.75,85.));
#741 = CARTESIAN_POINT('',(-36.75,0.75,85.));
#742 = PCURVE('',#217,#743);
#743 = DEFINITIONAL_REPRESENTATION('',(#744),#757);
#744 = B_SPLINE_CURVE_WITH_KNOTS('',6,(#745,#746,#747,#748,#749,#750,
    #751,#752,#753,#754,#755,#756),.UNSPECIFIED.,.F.,.F.,(7,5,7),(
    1.575085291828,2.358338972709,3.14159265359),.UNSPECIFIED.);
#745 = CARTESIAN_POINT('',(4.708100015524,0.999999999998));
#746 = CARTESIAN_POINT('',(4.590501846689,0.999999999999));
#747 = CARTESIAN_POINT('',(4.466050757886,0.999999999998));
#748 = CARTESIAN_POINT('',(4.335461759334,1.000000000004));
#749 = CARTESIAN_POINT('',(4.200150251814,1.000000000002));
#750 = CARTESIAN_POINT('',(4.062499115048,1.000000000001));
#751 = CARTESIAN_POINT('',(3.787193601006,0.999999999999));
#752 = CARTESIAN_POINT('',(3.649542437542,0.999999999996));
#753 = CARTESIAN_POINT('',(3.514231042938,1.000000000005));
#754 = CARTESIAN_POINT('',(3.383641472951,0.999999999999));
#755 = CARTESIAN_POINT('',(3.259190827715,1.));
#756 = CARTESIAN_POINT('',(3.14159265359,1.));
#757 = ( GEOMETRIC_REPRESENTATION_CONTEXT(2) 
PARAMETRIC_REPRESENTATION_CONTEXT() REPRESENTATION_CONTEXT('2D SPACE',''
  ) );
#758 = PCURVE('',#759,#764);
#759 = CYLINDRICAL_SURFACE('',#760,0.75);
#760 = AXIS2_PLACEMENT_3D('',#761,#762,#763);
#761 = CARTESIAN_POINT('',(-36.75,0.,85.));
#762 = DIRECTION('',(0.,0.,-1.));
#763 = DIRECTION('',(0.,-1.,0.));
#764 = DEFINITIONAL_REPRESENTATION('',(#765),#774);
#765 = B_SPLINE_CURVE_WITH_KNOTS('',7,(#766,#767,#768,#769,#770,#771,
    #772,#773),.UNSPECIFIED.,.F.,.F.,(8,8),(1.575085291828,3.14159265359
    ),.PIECEWISE_BEZIER_KNOTS.);
#766 = CARTESIAN_POINT('',(1.575085291828,0.));
#767 = CARTESIAN_POINT('',(1.776682085627,0.));
#768 = CARTESIAN_POINT('',(1.997877025574,0.));
#769 = CARTESIAN_POINT('',(2.23523778898,0.));
#770 = CARTESIAN_POINT('',(2.481440156441,0.));
#771 = CARTESIAN_POINT('',(2.71880091984,0.));
#772 = CARTESIAN_POINT('',(2.939995859791,0.));
#773 = CARTESIAN_POINT('',(3.14159265359,0.));
#774 = ( GEOMETRIC_REPRESENTATION_CONTEXT(2) 
PARAMETRIC_REPRESENTATION_CONTEXT() REPRESENTATION_CONTEXT('2D SPACE',''
  ) );
#775 = ADVANCED_FACE('',(#776),#262,.T.);
#776 = FACE_BOUND('',#777,.T.);
#777 = EDGE_LOOP('',(#778,#779,#780,#802));
#778 = ORIENTED_EDGE('',*,*,#700,.F.);
#779 = ORIENTED_EDGE('',*,*,#246,.T.);
#780 = ORIENTED_EDGE('',*,*,#781,.T.);
#781 = EDGE_CURVE('',#247,#782,#784,.T.);
#782 = VERTEX_POINT('',#783);
#783 = CARTESIAN_POINT('',(-36.75,-0.75,85.));
#784 = SURFACE_CURVE('',#785,(#788,#795),.PCURVE_S1.);
#785 = B_SPLINE_CURVE_WITH_KNOTS('',1,(#786,#787),.UNSPECIFIED.,.F.,.F.,
  (2,2),(0.,1.),.PIECEWISE_BEZIER_KNOTS.);
#786 = CARTESIAN_POINT('',(-37.79213073791,-0.771267974243,0.));
#787 = CARTESIAN_POINT('',(-36.75,-0.75,85.));
#788 = PCURVE('',#262,#789);
#789 = DEFINITIONAL_REPRESENTATION('',(#790),#794);
#790 = B_SPLINE_CURVE_WITH_KNOTS('',2,(#791,#792,#793),.UNSPECIFIED.,.F.
  ,.F.,(3,3),(0.,1.),.PIECEWISE_BEZIER_KNOTS.);
#791 = CARTESIAN_POINT('',(6.28318530718,0.));
#792 = CARTESIAN_POINT('',(6.28318530718,0.5));
#793 = CARTESIAN_POINT('',(6.28318530718,1.));
#794 = ( GEOMETRIC_REPRESENTATION_CONTEXT(2) 
PARAMETRIC_REPRESENTATION_CONTEXT() REPRESENTATION_CONTEXT('2D SPACE',''
  ) );
#795 = PCURVE('',#309,#796);
#796 = DEFINITIONAL_REPRESENTATION('',(#797),#801);
#797 = B_SPLINE_CURVE_WITH_KNOTS('',2,(#798,#799,#800),.UNSPECIFIED.,.F.
  ,.F.,(3,3),(0.,1.),.PIECEWISE_BEZIER_KNOTS.);
#798 = CARTESIAN_POINT('',(-73.5,0.));
#799 = CARTESIAN_POINT('',(-73.5,0.5));
#800 = CARTESIAN_POINT('',(-73.5,1.));
#801 = ( GEOMETRIC_REPRESENTATION_CONTEXT(2) 
PARAMETRIC_REPRESENTATION_CONTEXT() REPRESENTATION_CONTEXT('2D SPACE',''
  ) );
#802 = ORIENTED_EDGE('',*,*,#803,.T.);
#803 = EDGE_CURVE('',#782,#701,#804,.T.);
#804 = SURFACE_CURVE('',#805,(#809,#825),.PCURVE_S1.);
#805 = ( BOUNDED_CURVE() B_SPLINE_CURVE(2,(#806,#807,#808),
.UNSPECIFIED.,.F.,.F.) B_SPLINE_CURVE_WITH_KNOTS((3,3),(0.,
1.575085291828),.PIECEWISE_BEZIER_KNOTS.) CURVE() 
GEOMETRIC_REPRESENTATION_ITEM() RATIONAL_B_SPLINE_CURVE((1.,
0.705588778297,1.)) REPRESENTATION_ITEM('') );
#806 = CARTESIAN_POINT('',(-36.75,-0.75,85.));
#807 = CARTESIAN_POINT('',(-37.50322364176,-0.75,85.));
#808 = CARTESIAN_POINT('',(-37.4999931018,3.216713912763E-03,85.));
#809 = PCURVE('',#262,#810);
#810 = DEFINITIONAL_REPRESENTATION('',(#811),#824);
#811 = B_SPLINE_CURVE_WITH_KNOTS('',6,(#812,#813,#814,#815,#816,#817,
    #818,#819,#820,#821,#822,#823),.UNSPECIFIED.,.F.,.F.,(7,5,7),(0.,
    0.787542645914,1.575085291828),.UNSPECIFIED.);
#812 = CARTESIAN_POINT('',(6.28318530718,1.));
#813 = CARTESIAN_POINT('',(6.165081677517,1.));
#814 = CARTESIAN_POINT('',(6.040024452855,0.999999999999));
#815 = CARTESIAN_POINT('',(5.908727386994,1.000000000003));
#816 = CARTESIAN_POINT('',(5.772621479148,0.999999999997));
#817 = CARTESIAN_POINT('',(5.634132871421,0.999999999999));
#818 = CARTESIAN_POINT('',(5.357152407103,1.000000000001));
#819 = CARTESIAN_POINT('',(5.218663822933,1.000000000003));
#820 = CARTESIAN_POINT('',(5.082557790791,1.000000000002));
#821 = CARTESIAN_POINT('',(4.951261311426,1.));
#822 = CARTESIAN_POINT('',(4.826203639819,0.999999999998));
#823 = CARTESIAN_POINT('',(4.708100015524,0.999999999998));
#824 = ( GEOMETRIC_REPRESENTATION_CONTEXT(2) 
PARAMETRIC_REPRESENTATION_CONTEXT() REPRESENTATION_CONTEXT('2D SPACE',''
  ) );
#825 = PCURVE('',#759,#826);
#826 = DEFINITIONAL_REPRESENTATION('',(#827),#836);
#827 = B_SPLINE_CURVE_WITH_KNOTS('',7,(#828,#829,#830,#831,#832,#833,
    #834,#835),.UNSPECIFIED.,.F.,.F.,(8,8),(0.,1.575085291828),
  .PIECEWISE_BEZIER_KNOTS.);
#828 = CARTESIAN_POINT('',(-1.110223024625E-16,0.));
#829 = CARTESIAN_POINT('',(0.202463294923,0.));
#830 = CARTESIAN_POINT('',(0.424814465948,0.));
#831 = CARTESIAN_POINT('',(0.66361296442,0.));
#832 = CARTESIAN_POINT('',(0.911472327411,0.));
#833 = CARTESIAN_POINT('',(1.150270825876,0.));
#834 = CARTESIAN_POINT('',(1.372621996905,0.));
#835 = CARTESIAN_POINT('',(1.575085291828,0.));
#836 = ( GEOMETRIC_REPRESENTATION_CONTEXT(2) 
PARAMETRIC_REPRESENTATION_CONTEXT() REPRESENTATION_CONTEXT('2D SPACE',''
  ) );
#837 = ADVANCED_FACE('',(#838),#309,.T.);
#838 = FACE_BOUND('',#839,.T.);
#839 = EDGE_LOOP('',(#840,#841,#842,#866));
#840 = ORIENTED_EDGE('',*,*,#291,.T.);
#841 = ORIENTED_EDGE('',*,*,#372,.T.);
#842 = ORIENTED_EDGE('',*,*,#843,.T.);
#843 = EDGE_CURVE('',#373,#782,#844,.T.);
#844 = SURFACE_CURVE('',#845,(#848,#855),.PCURVE_S1.);
#845 = B_SPLINE_CURVE_WITH_KNOTS('',1,(#846,#847),.UNSPECIFIED.,.F.,.F.,
  (2,2),(0.,73.5),.PIECEWISE_BEZIER_KNOTS.);
#846 = CARTESIAN_POINT('',(36.75,-0.75,85.));
#847 = CARTESIAN_POINT('',(-36.75,-0.75,85.));
#848 = PCURVE('',#309,#849);
#849 = DEFINITIONAL_REPRESENTATION('',(#850),#854);
#850 = B_SPLINE_CURVE_WITH_KNOTS('',2,(#851,#852,#853),.UNSPECIFIED.,.F.
  ,.F.,(3,3),(0.,73.5),.PIECEWISE_BEZIER_KNOTS.);
#851 = CARTESIAN_POINT('',(0.,1.));
#852 = CARTESIAN_POINT('',(-36.75,1.));
#853 = CARTESIAN_POINT('',(-73.5,1.));
#854 = ( GEOMETRIC_REPRESENTATION_CONTEXT(2) 
PARAMETRIC_REPRESENTATION_CONTEXT() REPRESENTATION_CONTEXT('2D SPACE',''
  ) );
#855 = PCURVE('',#856,#861);
#856 = PLANE('',#857);
#857 = AXIS2_PLACEMENT_3D('',#858,#859,#860);
#858 = CARTESIAN_POINT('',(36.75,-0.75,85.));
#859 = DIRECTION('',(0.,-1.,0.));
#860 = DIRECTION('',(-1.,0.,0.));
#861 = DEFINITIONAL_REPRESENTATION('',(#862),#865);
#862 = B_SPLINE_CURVE_WITH_KNOTS('',1,(#863,#864),.UNSPECIFIED.,.F.,.F.,
  (2,2),(0.,73.5),.PIECEWISE_BEZIER_KNOTS.);
#863 = CARTESIAN_POINT('',(0.,0.));
#864 = CARTESIAN_POINT('',(73.5,0.));
#865 = ( GEOMETRIC_REPRESENTATION_CONTEXT(2) 
PARAMETRIC_REPRESENTATION_CONTEXT() REPRESENTATION_CONTEXT('2D SPACE',''
  ) );
#866 = ORIENTED_EDGE('',*,*,#781,.F.);
#867 = ADVANCED_FACE('',(#868),#497,.T.);
#868 = FACE_BOUND('',#869,.T.);
#869 = EDGE_LOOP('',(#870,#871,#872));
#870 = ORIENTED_EDGE('',*,*,#417,.F.);
#871 = ORIENTED_EDGE('',*,*,#675,.T.);
#872 = ORIENTED_EDGE('',*,*,#873,.T.);
#873 = EDGE_CURVE('',#650,#418,#874,.T.);
#874 = SURFACE_CURVE('',#875,(#879,#895),.PCURVE_S1.);
#875 = ( BOUNDED_CURVE() B_SPLINE_CURVE(2,(#876,#877,#878),
.UNSPECIFIED.,.F.,.F.) B_SPLINE_CURVE_WITH_KNOTS((3,3),(0.,
1.566507361762),.PIECEWISE_BEZIER_KNOTS.) CURVE() 
GEOMETRIC_REPRESENTATION_ITEM() RATIONAL_B_SPLINE_CURVE((1.,
0.708621532231,1.)) REPRESENTATION_ITEM('') );
#876 = CARTESIAN_POINT('',(36.75,0.75,85.));
#877 = CARTESIAN_POINT('',(37.496790154762,0.75,85.));
#878 = CARTESIAN_POINT('',(37.499993101803,3.21671391275E-03,85.));
#879 = PCURVE('',#497,#880);
#880 = DEFINITIONAL_REPRESENTATION('',(#881),#894);
#881 = B_SPLINE_CURVE_WITH_KNOTS('',6,(#882,#883,#884,#885,#886,#887,
    #888,#889,#890,#891,#892,#893),.UNSPECIFIED.,.F.,.F.,(7,5,7),(0.,
    0.783253680881,1.566507361762),.UNSPECIFIED.);
#882 = CARTESIAN_POINT('',(6.28318530718,1.));
#883 = CARTESIAN_POINT('',(6.16558713306,1.000000000001));
#884 = CARTESIAN_POINT('',(6.041136487829,0.999999999994));
#885 = CARTESIAN_POINT('',(5.910546917848,1.000000000001));
#886 = CARTESIAN_POINT('',(5.775235523224,1.000000000002));
#887 = CARTESIAN_POINT('',(5.637584359771,1.000000000001));
#888 = CARTESIAN_POINT('',(5.362278845728,1.));
#889 = CARTESIAN_POINT('',(5.224627708956,0.999999999998));
#890 = CARTESIAN_POINT('',(5.089316201445,1.000000000003));
#891 = CARTESIAN_POINT('',(4.958727202877,0.999999999999));
#892 = CARTESIAN_POINT('',(4.834276114084,0.999999999999));
#893 = CARTESIAN_POINT('',(4.716677945247,0.999999999998));
#894 = ( GEOMETRIC_REPRESENTATION_CONTEXT(2) 
PARAMETRIC_REPRESENTATION_CONTEXT() REPRESENTATION_CONTEXT('2D SPACE',''
  ) );
#895 = PCURVE('',#577,#896);
#896 = DEFINITIONAL_REPRESENTATION('',(#897),#906);
#897 = B_SPLINE_CURVE_WITH_KNOTS('',7,(#898,#899,#900,#901,#902,#903,
    #904,#905),.UNSPECIFIED.,.F.,.F.,(8,8),(0.,1.566507361762),
  .PIECEWISE_BEZIER_KNOTS.);
#898 = CARTESIAN_POINT('',(0.,0.));
#899 = CARTESIAN_POINT('',(0.201596793799,0.));
#900 = CARTESIAN_POINT('',(0.422791733746,0.));
#901 = CARTESIAN_POINT('',(0.660152497152,0.));
#902 = CARTESIAN_POINT('',(0.906354864613,0.));
#903 = CARTESIAN_POINT('',(1.143715628012,0.));
#904 = CARTESIAN_POINT('',(1.364910567963,0.));
#905 = CARTESIAN_POINT('',(1.566507361762,0.));
#906 = ( GEOMETRIC_REPRESENTATION_CONTEXT(2) 
PARAMETRIC_REPRESENTATION_CONTEXT() REPRESENTATION_CONTEXT('2D SPACE',''
  ) );
#907 = ADVANCED_FACE('',(#908),#577,.T.);
#908 = FACE_BOUND('',#909,.T.);
#909 = EDGE_LOOP('',(#910,#911,#912,#935,#964));
#910 = ORIENTED_EDGE('',*,*,#554,.F.);
#911 = ORIENTED_EDGE('',*,*,#873,.F.);
#912 = ORIENTED_EDGE('',*,*,#913,.T.);
#913 = EDGE_CURVE('',#650,#914,#916,.T.);
#914 = VERTEX_POINT('',#915);
#915 = CARTESIAN_POINT('',(36.75,0.75,93.5));
#916 = SURFACE_CURVE('',#917,(#921,#928),.PCURVE_S1.);
#917 = LINE('',#918,#919);
#918 = CARTESIAN_POINT('',(36.75,0.75,85.));
#919 = VECTOR('',#920,1.);
#920 = DIRECTION('',(0.,0.,1.));
#921 = PCURVE('',#577,#922);
#922 = DEFINITIONAL_REPRESENTATION('',(#923),#927);
#923 = LINE('',#924,#925);
#924 = CARTESIAN_POINT('',(0.,0.));
#925 = VECTOR('',#926,1.);
#926 = DIRECTION('',(0.,-1.));
#927 = ( GEOMETRIC_REPRESENTATION_CONTEXT(2) 
PARAMETRIC_REPRESENTATION_CONTEXT() REPRESENTATION_CONTEXT('2D SPACE',''
  ) );
#928 = PCURVE('',#664,#929);
#929 = DEFINITIONAL_REPRESENTATION('',(#930),#934);
#930 = LINE('',#931,#932);
#931 = CARTESIAN_POINT('',(73.5,0.));
#932 = VECTOR('',#933,1.);
#933 = DIRECTION('',(0.,-1.));
#934 = ( GEOMETRIC_REPRESENTATION_CONTEXT(2) 
PARAMETRIC_REPRESENTATION_CONTEXT() REPRESENTATION_CONTEXT('2D SPACE',''
  ) );
#935 = ORIENTED_EDGE('',*,*,#936,.F.);
#936 = EDGE_CURVE('',#937,#914,#939,.T.);
#937 = VERTEX_POINT('',#938);
#938 = CARTESIAN_POINT('',(36.75,-0.75,93.5));
#939 = SURFACE_CURVE('',#940,(#945,#952),.PCURVE_S1.);
#940 = CIRCLE('',#941,0.75);
#941 = AXIS2_PLACEMENT_3D('',#942,#943,#944);
#942 = CARTESIAN_POINT('',(36.75,0.,93.5));
#943 = DIRECTION('',(-0.,0.,1.));
#944 = DIRECTION('',(0.,-1.,0.));
#945 = PCURVE('',#577,#946);
#946 = DEFINITIONAL_REPRESENTATION('',(#947),#951);
#947 = LINE('',#948,#949);
#948 = CARTESIAN_POINT('',(3.14159265359,-8.5));
#949 = VECTOR('',#950,1.);
#950 = DIRECTION('',(-1.,-0.));
#951 = ( GEOMETRIC_REPRESENTATION_CONTEXT(2) 
PARAMETRIC_REPRESENTATION_CONTEXT() REPRESENTATION_CONTEXT('2D SPACE',''
  ) );
#952 = PCURVE('',#953,#958);
#953 = CONICAL_SURFACE('',#954,0.75,0.785398163397);
#954 = AXIS2_PLACEMENT_3D('',#955,#956,#957);
#955 = CARTESIAN_POINT('',(36.75,0.,93.5));
#956 = DIRECTION('',(0.,0.,1.));
#957 = DIRECTION('',(0.,1.,0.));
#958 = DEFINITIONAL_REPRESENTATION('',(#959),#963);
#959 = LINE('',#960,#961);
#960 = CARTESIAN_POINT('',(3.14159265359,0.));
#961 = VECTOR('',#962,1.);
#962 = DIRECTION('',(1.,-0.));
#963 = ( GEOMETRIC_REPRESENTATION_CONTEXT(2) 
PARAMETRIC_REPRESENTATION_CONTEXT() REPRESENTATION_CONTEXT('2D SPACE',''
  ) );
#964 = ORIENTED_EDGE('',*,*,#965,.F.);
#965 = EDGE_CURVE('',#373,#937,#966,.T.);
#966 = SURFACE_CURVE('',#967,(#971,#978),.PCURVE_S1.);
#967 = LINE('',#968,#969);
#968 = CARTESIAN_POINT('',(36.75,-0.75,85.));
#969 = VECTOR('',#970,1.);
#970 = DIRECTION('',(0.,0.,1.));
#971 = PCURVE('',#577,#972);
#972 = DEFINITIONAL_REPRESENTATION('',(#973),#977);
#973 = LINE('',#974,#975);
#974 = CARTESIAN_POINT('',(3.14159265359,0.));
#975 = VECTOR('',#976,1.);
#976 = DIRECTION('',(0.,-1.));
#977 = ( GEOMETRIC_REPRESENTATION_CONTEXT(2) 
PARAMETRIC_REPRESENTATION_CONTEXT() REPRESENTATION_CONTEXT('2D SPACE',''
  ) );
#978 = PCURVE('',#856,#979);
#979 = DEFINITIONAL_REPRESENTATION('',(#980),#984);
#980 = LINE('',#981,#982);
#981 = CARTESIAN_POINT('',(0.,-0.));
#982 = VECTOR('',#983,1.);
#983 = DIRECTION('',(0.,-1.));
#984 = ( GEOMETRIC_REPRESENTATION_CONTEXT(2) 
PARAMETRIC_REPRESENTATION_CONTEXT() REPRESENTATION_CONTEXT('2D SPACE',''
  ) );
#985 = ADVANCED_FACE('',(#986),#664,.T.);
#986 = FACE_BOUND('',#987,.T.);
#987 = EDGE_LOOP('',(#988,#989,#1012,#1038));
#988 = ORIENTED_EDGE('',*,*,#649,.F.);
#989 = ORIENTED_EDGE('',*,*,#990,.T.);
#990 = EDGE_CURVE('',#628,#991,#993,.T.);
#991 = VERTEX_POINT('',#992);
#992 = CARTESIAN_POINT('',(-36.75,0.75,93.5));
#993 = SURFACE_CURVE('',#994,(#998,#1005),.PCURVE_S1.);
#994 = LINE('',#995,#996);
#995 = CARTESIAN_POINT('',(-36.75,0.75,85.));
#996 = VECTOR('',#997,1.);
#997 = DIRECTION('',(0.,0.,1.));
#998 = PCURVE('',#664,#999);
#999 = DEFINITIONAL_REPRESENTATION('',(#1000),#1004);
#1000 = LINE('',#1001,#1002);
#1001 = CARTESIAN_POINT('',(0.,0.));
#1002 = VECTOR('',#1003,1.);
#1003 = DIRECTION('',(0.,-1.));
#1004 = ( GEOMETRIC_REPRESENTATION_CONTEXT(2) 
PARAMETRIC_REPRESENTATION_CONTEXT() REPRESENTATION_CONTEXT('2D SPACE',''
  ) );
#1005 = PCURVE('',#759,#1006);
#1006 = DEFINITIONAL_REPRESENTATION('',(#1007),#1011);
#1007 = LINE('',#1008,#1009);
#1008 = CARTESIAN_POINT('',(3.14159265359,0.));
#1009 = VECTOR('',#1010,1.);
#1010 = DIRECTION('',(0.,-1.));
#1011 = ( GEOMETRIC_REPRESENTATION_CONTEXT(2) 
PARAMETRIC_REPRESENTATION_CONTEXT() REPRESENTATION_CONTEXT('2D SPACE',''
  ) );
#1012 = ORIENTED_EDGE('',*,*,#1013,.T.);
#1013 = EDGE_CURVE('',#991,#914,#1014,.T.);
#1014 = SURFACE_CURVE('',#1015,(#1019,#1026),.PCURVE_S1.);
#1015 = LINE('',#1016,#1017);
#1016 = CARTESIAN_POINT('',(-36.75,0.75,93.5));
#1017 = VECTOR('',#1018,1.);
#1018 = DIRECTION('',(1.,0.,0.));
#1019 = PCURVE('',#664,#1020);
#1020 = DEFINITIONAL_REPRESENTATION('',(#1021),#1025);
#1021 = LINE('',#1022,#1023);
#1022 = CARTESIAN_POINT('',(0.,-8.5));
#1023 = VECTOR('',#1024,1.);
#1024 = DIRECTION('',(1.,0.));
#1025 = ( GEOMETRIC_REPRESENTATION_CONTEXT(2) 
PARAMETRIC_REPRESENTATION_CONTEXT() REPRESENTATION_CONTEXT('2D SPACE',''
  ) );
#1026 = PCURVE('',#1027,#1032);
#1027 = PLANE('',#1028);
#1028 = AXIS2_PLACEMENT_3D('',#1029,#1030,#1031);
#1029 = CARTESIAN_POINT('',(-36.75,2.25,95.));
#1030 = DIRECTION('',(0.,-0.707106781187,0.707106781187));
#1031 = DIRECTION('',(1.,0.,0.));
#1032 = DEFINITIONAL_REPRESENTATION('',(#1033),#1037);
#1033 = LINE('',#1034,#1035);
#1034 = CARTESIAN_POINT('',(0.,-2.12132034356));
#1035 = VECTOR('',#1036,1.);
#1036 = DIRECTION('',(1.,0.));
#1037 = ( GEOMETRIC_REPRESENTATION_CONTEXT(2) 
PARAMETRIC_REPRESENTATION_CONTEXT() REPRESENTATION_CONTEXT('2D SPACE',''
  ) );
#1038 = ORIENTED_EDGE('',*,*,#913,.F.);
#1039 = ADVANCED_FACE('',(#1040),#759,.T.);
#1040 = FACE_BOUND('',#1041,.T.);
#1041 = EDGE_LOOP('',(#1042,#1043,#1066,#1093,#1094));
#1042 = ORIENTED_EDGE('',*,*,#803,.F.);
#1043 = ORIENTED_EDGE('',*,*,#1044,.T.);
#1044 = EDGE_CURVE('',#782,#1045,#1047,.T.);
#1045 = VERTEX_POINT('',#1046);
#1046 = CARTESIAN_POINT('',(-36.75,-0.75,93.5));
#1047 = SURFACE_CURVE('',#1048,(#1052,#1059),.PCURVE_S1.);
#1048 = LINE('',#1049,#1050);
#1049 = CARTESIAN_POINT('',(-36.75,-0.75,85.));
#1050 = VECTOR('',#1051,1.);
#1051 = DIRECTION('',(0.,0.,1.));
#1052 = PCURVE('',#759,#1053);
#1053 = DEFINITIONAL_REPRESENTATION('',(#1054),#1058);
#1054 = LINE('',#1055,#1056);
#1055 = CARTESIAN_POINT('',(0.,0.));
#1056 = VECTOR('',#1057,1.);
#1057 = DIRECTION('',(0.,-1.));
#1058 = ( GEOMETRIC_REPRESENTATION_CONTEXT(2) 
PARAMETRIC_REPRESENTATION_CONTEXT() REPRESENTATION_CONTEXT('2D SPACE',''
  ) );
#1059 = PCURVE('',#856,#1060);
#1060 = DEFINITIONAL_REPRESENTATION('',(#1061),#1065);
#1061 = LINE('',#1062,#1063);
#1062 = CARTESIAN_POINT('',(73.5,0.));
#1063 = VECTOR('',#1064,1.);
#1064 = DIRECTION('',(0.,-1.));
#1065 = ( GEOMETRIC_REPRESENTATION_CONTEXT(2) 
PARAMETRIC_REPRESENTATION_CONTEXT() REPRESENTATION_CONTEXT('2D SPACE',''
  ) );
#1066 = ORIENTED_EDGE('',*,*,#1067,.F.);
#1067 = EDGE_CURVE('',#991,#1045,#1068,.T.);
#1068 = SURFACE_CURVE('',#1069,(#1074,#1081),.PCURVE_S1.);
#1069 = CIRCLE('',#1070,0.75);
#1070 = AXIS2_PLACEMENT_3D('',#1071,#1072,#1073);
#1071 = CARTESIAN_POINT('',(-36.75,0.,93.5));
#1072 = DIRECTION('',(0.,-0.,1.));
#1073 = DIRECTION('',(0.,1.,0.));
#1074 = PCURVE('',#759,#1075);
#1075 = DEFINITIONAL_REPRESENTATION('',(#1076),#1080);
#1076 = LINE('',#1077,#1078);
#1077 = CARTESIAN_POINT('',(3.14159265359,-8.5));
#1078 = VECTOR('',#1079,1.);
#1079 = DIRECTION('',(-1.,-0.));
#1080 = ( GEOMETRIC_REPRESENTATION_CONTEXT(2) 
PARAMETRIC_REPRESENTATION_CONTEXT() REPRESENTATION_CONTEXT('2D SPACE',''
  ) );
#1081 = PCURVE('',#1082,#1087);
#1082 = CONICAL_SURFACE('',#1083,0.75,0.785398163397);
#1083 = AXIS2_PLACEMENT_3D('',#1084,#1085,#1086);
#1084 = CARTESIAN_POINT('',(-36.75,0.,93.5));
#1085 = DIRECTION('',(0.,0.,1.));
#1086 = DIRECTION('',(0.,-1.,0.));
#1087 = DEFINITIONAL_REPRESENTATION('',(#1088),#1092);
#1088 = LINE('',#1089,#1090);
#1089 = CARTESIAN_POINT('',(3.14159265359,0.));
#1090 = VECTOR('',#1091,1.);
#1091 = DIRECTION('',(1.,-0.));
#1092 = ( GEOMETRIC_REPRESENTATION_CONTEXT(2) 
PARAMETRIC_REPRESENTATION_CONTEXT() REPRESENTATION_CONTEXT('2D SPACE',''
  ) );
#1093 = ORIENTED_EDGE('',*,*,#990,.F.);
#1094 = ORIENTED_EDGE('',*,*,#736,.F.);
#1095 = ADVANCED_FACE('',(#1096),#856,.T.);
#1096 = FACE_BOUND('',#1097,.T.);
#1097 = EDGE_LOOP('',(#1098,#1099,#1100,#1126));
#1098 = ORIENTED_EDGE('',*,*,#843,.F.);
#1099 = ORIENTED_EDGE('',*,*,#965,.T.);
#1100 = ORIENTED_EDGE('',*,*,#1101,.T.);
#1101 = EDGE_CURVE('',#937,#1045,#1102,.T.);
#1102 = SURFACE_CURVE('',#1103,(#1107,#1114),.PCURVE_S1.);
#1103 = LINE('',#1104,#1105);
#1104 = CARTESIAN_POINT('',(36.75,-0.75,93.5));
#1105 = VECTOR('',#1106,1.);
#1106 = DIRECTION('',(-1.,0.,0.));
#1107 = PCURVE('',#856,#1108);
#1108 = DEFINITIONAL_REPRESENTATION('',(#1109),#1113);
#1109 = LINE('',#1110,#1111);
#1110 = CARTESIAN_POINT('',(0.,-8.5));
#1111 = VECTOR('',#1112,1.);
#1112 = DIRECTION('',(1.,0.));
#1113 = ( GEOMETRIC_REPRESENTATION_CONTEXT(2) 
PARAMETRIC_REPRESENTATION_CONTEXT() REPRESENTATION_CONTEXT('2D SPACE',''
  ) );
#1114 = PCURVE('',#1115,#1120);
#1115 = PLANE('',#1116);
#1116 = AXIS2_PLACEMENT_3D('',#1117,#1118,#1119);
#1117 = CARTESIAN_POINT('',(36.75,-2.25,95.));
#1118 = DIRECTION('',(0.,0.707106781187,0.707106781187));
#1119 = DIRECTION('',(-1.,0.,0.));
#1120 = DEFINITIONAL_REPRESENTATION('',(#1121),#1125);
#1121 = LINE('',#1122,#1123);
#1122 = CARTESIAN_POINT('',(0.,-2.12132034356));
#1123 = VECTOR('',#1124,1.);
#1124 = DIRECTION('',(1.,0.));
#1125 = ( GEOMETRIC_REPRESENTATION_CONTEXT(2) 
PARAMETRIC_REPRESENTATION_CONTEXT() REPRESENTATION_CONTEXT('2D SPACE',''
  ) );
#1126 = ORIENTED_EDGE('',*,*,#1044,.F.);
#1127 = ADVANCED_FACE('',(#1128),#953,.T.);
#1128 = FACE_BOUND('',#1129,.T.);
#1129 = EDGE_LOOP('',(#1130,#1161,#1179,#1180));
#1130 = ORIENTED_EDGE('',*,*,#1131,.F.);
#1131 = EDGE_CURVE('',#1132,#1134,#1136,.T.);
#1132 = VERTEX_POINT('',#1133);
#1133 = CARTESIAN_POINT('',(36.75,-2.25,95.));
#1134 = VERTEX_POINT('',#1135);
#1135 = CARTESIAN_POINT('',(36.75,2.25,95.));
#1136 = SURFACE_CURVE('',#1137,(#1142,#1149),.PCURVE_S1.);
#1137 = CIRCLE('',#1138,2.25);
#1138 = AXIS2_PLACEMENT_3D('',#1139,#1140,#1141);
#1139 = CARTESIAN_POINT('',(36.75,0.,95.));
#1140 = DIRECTION('',(-0.,0.,1.));
#1141 = DIRECTION('',(0.,-1.,0.));
#1142 = PCURVE('',#953,#1143);
#1143 = DEFINITIONAL_REPRESENTATION('',(#1144),#1148);
#1144 = LINE('',#1145,#1146);
#1145 = CARTESIAN_POINT('',(3.14159265359,1.5));
#1146 = VECTOR('',#1147,1.);
#1147 = DIRECTION('',(1.,-0.));
#1148 = ( GEOMETRIC_REPRESENTATION_CONTEXT(2) 
PARAMETRIC_REPRESENTATION_CONTEXT() REPRESENTATION_CONTEXT('2D SPACE',''
  ) );
#1149 = PCURVE('',#1150,#1155);
#1150 = PLANE('',#1151);
#1151 = AXIS2_PLACEMENT_3D('',#1152,#1153,#1154);
#1152 = CARTESIAN_POINT('',(-4.403329231825E-15,5.790076070423E-16,95.)
  );
#1153 = DIRECTION('',(0.,0.,1.));
#1154 = DIRECTION('',(1.,0.,0.));
#1155 = DEFINITIONAL_REPRESENTATION('',(#1156),#1160);
#1156 = CIRCLE('',#1157,2.25);
#1157 = AXIS2_PLACEMENT_2D('',#1158,#1159);
#1158 = CARTESIAN_POINT('',(36.75,-5.790076070423E-16));
#1159 = DIRECTION('',(0.,-1.));
#1160 = ( GEOMETRIC_REPRESENTATION_CONTEXT(2) 
PARAMETRIC_REPRESENTATION_CONTEXT() REPRESENTATION_CONTEXT('2D SPACE',''
  ) );
#1161 = ORIENTED_EDGE('',*,*,#1162,.F.);
#1162 = EDGE_CURVE('',#937,#1132,#1163,.T.);
#1163 = SURFACE_CURVE('',#1164,(#1167,#1173),.PCURVE_S1.);
#1164 = B_SPLINE_CURVE_WITH_KNOTS('',1,(#1165,#1166),.UNSPECIFIED.,.F.,
  .F.,(2,2),(0.,1.),.PIECEWISE_BEZIER_KNOTS.);
#1165 = CARTESIAN_POINT('',(36.75,-0.75,93.5));
#1166 = CARTESIAN_POINT('',(36.75,-2.25,95.));
#1167 = PCURVE('',#953,#1168);
#1168 = DEFINITIONAL_REPRESENTATION('',(#1169),#1172);
#1169 = B_SPLINE_CURVE_WITH_KNOTS('',1,(#1170,#1171),.UNSPECIFIED.,.F.,
  .F.,(2,2),(0.,1.),.PIECEWISE_BEZIER_KNOTS.);
#1170 = CARTESIAN_POINT('',(3.14159265359,0.));
#1171 = CARTESIAN_POINT('',(3.14159265359,1.5));
#1172 = ( GEOMETRIC_REPRESENTATION_CONTEXT(2) 
PARAMETRIC_REPRESENTATION_CONTEXT() REPRESENTATION_CONTEXT('2D SPACE',''
  ) );
#1173 = PCURVE('',#1115,#1174);
#1174 = DEFINITIONAL_REPRESENTATION('',(#1175),#1178);
#1175 = B_SPLINE_CURVE_WITH_KNOTS('',1,(#1176,#1177),.UNSPECIFIED.,.F.,
  .F.,(2,2),(0.,1.),.PIECEWISE_BEZIER_KNOTS.);
#1176 = CARTESIAN_POINT('',(0.,-2.12132034356));
#1177 = CARTESIAN_POINT('',(0.,0.));
#1178 = ( GEOMETRIC_REPRESENTATION_CONTEXT(2) 
PARAMETRIC_REPRESENTATION_CONTEXT() REPRESENTATION_CONTEXT('2D SPACE',''
  ) );
#1179 = ORIENTED_EDGE('',*,*,#936,.T.);
#1180 = ORIENTED_EDGE('',*,*,#1181,.T.);
#1181 = EDGE_CURVE('',#914,#1134,#1182,.T.);
#1182 = SURFACE_CURVE('',#1183,(#1186,#1192),.PCURVE_S1.);
#1183 = B_SPLINE_CURVE_WITH_KNOTS('',1,(#1184,#1185),.UNSPECIFIED.,.F.,
  .F.,(2,2),(0.,1.),.PIECEWISE_BEZIER_KNOTS.);
#1184 = CARTESIAN_POINT('',(36.75,0.75,93.5));
#1185 = CARTESIAN_POINT('',(36.75,2.25,95.));
#1186 = PCURVE('',#953,#1187);
#1187 = DEFINITIONAL_REPRESENTATION('',(#1188),#1191);
#1188 = B_SPLINE_CURVE_WITH_KNOTS('',1,(#1189,#1190),.UNSPECIFIED.,.F.,
  .F.,(2,2),(0.,1.),.PIECEWISE_BEZIER_KNOTS.);
#1189 = CARTESIAN_POINT('',(6.28318530718,0.));
#1190 = CARTESIAN_POINT('',(6.28318530718,1.5));
#1191 = ( GEOMETRIC_REPRESENTATION_CONTEXT(2) 
PARAMETRIC_REPRESENTATION_CONTEXT() REPRESENTATION_CONTEXT('2D SPACE',''
  ) );
#1192 = PCURVE('',#1027,#1193);
#1193 = DEFINITIONAL_REPRESENTATION('',(#1194),#1197);
#1194 = B_SPLINE_CURVE_WITH_KNOTS('',1,(#1195,#1196),.UNSPECIFIED.,.F.,
  .F.,(2,2),(0.,1.),.PIECEWISE_BEZIER_KNOTS.);
#1195 = CARTESIAN_POINT('',(73.5,-2.12132034356));
#1196 = CARTESIAN_POINT('',(73.5,0.));
#1197 = ( GEOMETRIC_REPRESENTATION_CONTEXT(2) 
PARAMETRIC_REPRESENTATION_CONTEXT() REPRESENTATION_CONTEXT('2D SPACE',''
  ) );
#1198 = ADVANCED_FACE('',(#1199),#1027,.F.);
#1199 = FACE_BOUND('',#1200,.F.);
#1200 = EDGE_LOOP('',(#1201,#1202,#1203,#1226));
#1201 = ORIENTED_EDGE('',*,*,#1013,.T.);
#1202 = ORIENTED_EDGE('',*,*,#1181,.T.);
#1203 = ORIENTED_EDGE('',*,*,#1204,.F.);
#1204 = EDGE_CURVE('',#1205,#1134,#1207,.T.);
#1205 = VERTEX_POINT('',#1206);
#1206 = CARTESIAN_POINT('',(-36.75,2.25,95.));
#1207 = SURFACE_CURVE('',#1208,(#1212,#1219),.PCURVE_S1.);
#1208 = LINE('',#1209,#1210);
#1209 = CARTESIAN_POINT('',(-36.75,2.25,95.));
#1210 = VECTOR('',#1211,1.);
#1211 = DIRECTION('',(1.,0.,0.));
#1212 = PCURVE('',#1027,#1213);
#1213 = DEFINITIONAL_REPRESENTATION('',(#1214),#1218);
#1214 = LINE('',#1215,#1216);
#1215 = CARTESIAN_POINT('',(0.,0.));
#1216 = VECTOR('',#1217,1.);
#1217 = DIRECTION('',(1.,0.));
#1218 = ( GEOMETRIC_REPRESENTATION_CONTEXT(2) 
PARAMETRIC_REPRESENTATION_CONTEXT() REPRESENTATION_CONTEXT('2D SPACE',''
  ) );
#1219 = PCURVE('',#1150,#1220);
#1220 = DEFINITIONAL_REPRESENTATION('',(#1221),#1225);
#1221 = LINE('',#1222,#1223);
#1222 = CARTESIAN_POINT('',(-36.75,2.25));
#1223 = VECTOR('',#1224,1.);
#1224 = DIRECTION('',(1.,0.));
#1225 = ( GEOMETRIC_REPRESENTATION_CONTEXT(2) 
PARAMETRIC_REPRESENTATION_CONTEXT() REPRESENTATION_CONTEXT('2D SPACE',''
  ) );
#1226 = ORIENTED_EDGE('',*,*,#1227,.F.);
#1227 = EDGE_CURVE('',#991,#1205,#1228,.T.);
#1228 = SURFACE_CURVE('',#1229,(#1232,#1238),.PCURVE_S1.);
#1229 = B_SPLINE_CURVE_WITH_KNOTS('',1,(#1230,#1231),.UNSPECIFIED.,.F.,
  .F.,(2,2),(0.,1.),.PIECEWISE_BEZIER_KNOTS.);
#1230 = CARTESIAN_POINT('',(-36.75,0.75,93.5));
#1231 = CARTESIAN_POINT('',(-36.75,2.25,95.));
#1232 = PCURVE('',#1027,#1233);
#1233 = DEFINITIONAL_REPRESENTATION('',(#1234),#1237);
#1234 = B_SPLINE_CURVE_WITH_KNOTS('',1,(#1235,#1236),.UNSPECIFIED.,.F.,
  .F.,(2,2),(0.,1.),.PIECEWISE_BEZIER_KNOTS.);
#1235 = CARTESIAN_POINT('',(0.,-2.12132034356));
#1236 = CARTESIAN_POINT('',(0.,0.));
#1237 = ( GEOMETRIC_REPRESENTATION_CONTEXT(2) 
PARAMETRIC_REPRESENTATION_CONTEXT() REPRESENTATION_CONTEXT('2D SPACE',''
  ) );
#1238 = PCURVE('',#1082,#1239);
#1239 = DEFINITIONAL_REPRESENTATION('',(#1240),#1243);
#1240 = B_SPLINE_CURVE_WITH_KNOTS('',1,(#1241,#1242),.UNSPECIFIED.,.F.,
  .F.,(2,2),(0.,1.),.PIECEWISE_BEZIER_KNOTS.);
#1241 = CARTESIAN_POINT('',(3.14159265359,0.));
#1242 = CARTESIAN_POINT('',(3.14159265359,1.5));
#1243 = ( GEOMETRIC_REPRESENTATION_CONTEXT(2) 
PARAMETRIC_REPRESENTATION_CONTEXT() REPRESENTATION_CONTEXT('2D SPACE',''
  ) );
#1244 = ADVANCED_FACE('',(#1245),#1082,.T.);
#1245 = FACE_BOUND('',#1246,.T.);
#1246 = EDGE_LOOP('',(#1247,#1271,#1272,#1273));
#1247 = ORIENTED_EDGE('',*,*,#1248,.F.);
#1248 = EDGE_CURVE('',#1205,#1249,#1251,.T.);
#1249 = VERTEX_POINT('',#1250);
#1250 = CARTESIAN_POINT('',(-36.75,-2.25,95.));
#1251 = SURFACE_CURVE('',#1252,(#1257,#1264),.PCURVE_S1.);
#1252 = CIRCLE('',#1253,2.25);
#1253 = AXIS2_PLACEMENT_3D('',#1254,#1255,#1256);
#1254 = CARTESIAN_POINT('',(-36.75,0.,95.));
#1255 = DIRECTION('',(0.,-0.,1.));
#1256 = DIRECTION('',(0.,1.,0.));
#1257 = PCURVE('',#1082,#1258);
#1258 = DEFINITIONAL_REPRESENTATION('',(#1259),#1263);
#1259 = LINE('',#1260,#1261);
#1260 = CARTESIAN_POINT('',(3.14159265359,1.5));
#1261 = VECTOR('',#1262,1.);
#1262 = DIRECTION('',(1.,-0.));
#1263 = ( GEOMETRIC_REPRESENTATION_CONTEXT(2) 
PARAMETRIC_REPRESENTATION_CONTEXT() REPRESENTATION_CONTEXT('2D SPACE',''
  ) );
#1264 = PCURVE('',#1150,#1265);
#1265 = DEFINITIONAL_REPRESENTATION('',(#1266),#1270);
#1266 = CIRCLE('',#1267,2.25);
#1267 = AXIS2_PLACEMENT_2D('',#1268,#1269);
#1268 = CARTESIAN_POINT('',(-36.75,-5.790076070423E-16));
#1269 = DIRECTION('',(0.,1.));
#1270 = ( GEOMETRIC_REPRESENTATION_CONTEXT(2) 
PARAMETRIC_REPRESENTATION_CONTEXT() REPRESENTATION_CONTEXT('2D SPACE',''
  ) );
#1271 = ORIENTED_EDGE('',*,*,#1227,.F.);
#1272 = ORIENTED_EDGE('',*,*,#1067,.T.);
#1273 = ORIENTED_EDGE('',*,*,#1274,.T.);
#1274 = EDGE_CURVE('',#1045,#1249,#1275,.T.);
#1275 = SURFACE_CURVE('',#1276,(#1279,#1285),.PCURVE_S1.);
#1276 = B_SPLINE_CURVE_WITH_KNOTS('',1,(#1277,#1278),.UNSPECIFIED.,.F.,
  .F.,(2,2),(0.,1.),.PIECEWISE_BEZIER_KNOTS.);
#1277 = CARTESIAN_POINT('',(-36.75,-0.75,93.5));
#1278 = CARTESIAN_POINT('',(-36.75,-2.25,95.));
#1279 = PCURVE('',#1082,#1280);
#1280 = DEFINITIONAL_REPRESENTATION('',(#1281),#1284);
#1281 = B_SPLINE_CURVE_WITH_KNOTS('',1,(#1282,#1283),.UNSPECIFIED.,.F.,
  .F.,(2,2),(0.,1.),.PIECEWISE_BEZIER_KNOTS.);
#1282 = CARTESIAN_POINT('',(6.28318530718,0.));
#1283 = CARTESIAN_POINT('',(6.28318530718,1.5));
#1284 = ( GEOMETRIC_REPRESENTATION_CONTEXT(2) 
PARAMETRIC_REPRESENTATION_CONTEXT() REPRESENTATION_CONTEXT('2D SPACE',''
  ) );
#1285 = PCURVE('',#1115,#1286);
#1286 = DEFINITIONAL_REPRESENTATION('',(#1287),#1290);
#1287 = B_SPLINE_CURVE_WITH_KNOTS('',1,(#1288,#1289),.UNSPECIFIED.,.F.,
  .F.,(2,2),(0.,1.),.PIECEWISE_BEZIER_KNOTS.);
#1288 = CARTESIAN_POINT('',(73.5,-2.12132034356));
#1289 = CARTESIAN_POINT('',(73.5,0.));
#1290 = ( GEOMETRIC_REPRESENTATION_CONTEXT(2) 
PARAMETRIC_REPRESENTATION_CONTEXT() REPRESENTATION_CONTEXT('2D SPACE',''
  ) );
#1291 = ADVANCED_FACE('',(#1292),#1115,.F.);
#1292 = FACE_BOUND('',#1293,.F.);
#1293 = EDGE_LOOP('',(#1294,#1295,#1296,#1317));
#1294 = ORIENTED_EDGE('',*,*,#1101,.T.);
#1295 = ORIENTED_EDGE('',*,*,#1274,.T.);
#1296 = ORIENTED_EDGE('',*,*,#1297,.F.);
#1297 = EDGE_CURVE('',#1132,#1249,#1298,.T.);
#1298 = SURFACE_CURVE('',#1299,(#1303,#1310),.PCURVE_S1.);
#1299 = LINE('',#1300,#1301);
#1300 = CARTESIAN_POINT('',(36.75,-2.25,95.));
#1301 = VECTOR('',#1302,1.);
#1302 = DIRECTION('',(-1.,0.,0.));
#1303 = PCURVE('',#1115,#1304);
#1304 = DEFINITIONAL_REPRESENTATION('',(#1305),#1309);
#1305 = LINE('',#1306,#1307);
#1306 = CARTESIAN_POINT('',(0.,0.));
#1307 = VECTOR('',#1308,1.);
#1308 = DIRECTION('',(1.,0.));
#1309 = ( GEOMETRIC_REPRESENTATION_CONTEXT(2) 
PARAMETRIC_REPRESENTATION_CONTEXT() REPRESENTATION_CONTEXT('2D SPACE',''
  ) );
#1310 = PCURVE('',#1150,#1311);
#1311 = DEFINITIONAL_REPRESENTATION('',(#1312),#1316);
#1312 = LINE('',#1313,#1314);
#1313 = CARTESIAN_POINT('',(36.75,-2.25));
#1314 = VECTOR('',#1315,1.);
#1315 = DIRECTION('',(-1.,0.));
#1316 = ( GEOMETRIC_REPRESENTATION_CONTEXT(2) 
PARAMETRIC_REPRESENTATION_CONTEXT() REPRESENTATION_CONTEXT('2D SPACE',''
  ) );
#1317 = ORIENTED_EDGE('',*,*,#1162,.F.);
#1318 = ADVANCED_FACE('',(#1319),#1150,.T.);
#1319 = FACE_BOUND('',#1320,.T.);
#1320 = EDGE_LOOP('',(#1321,#1322,#1323,#1324));
#1321 = ORIENTED_EDGE('',*,*,#1204,.F.);
#1322 = ORIENTED_EDGE('',*,*,#1248,.T.);
#1323 = ORIENTED_EDGE('',*,*,#1297,.F.);
#1324 = ORIENTED_EDGE('',*,*,#1131,.T.);
#1325 = ( GEOMETRIC_REPRESENTATION_CONTEXT(3) 
GLOBAL_UNCERTAINTY_ASSIGNED_CONTEXT((#1329)) 
GLOBAL_UNIT_ASSIGNED_CONTEXT((#1326,#1327,#1328)) REPRESENTATION_CONTEXT
('Context #1','3D Context with UNIT and UNCERTAINTY') );
#1326 = ( LENGTH_UNIT() NAMED_UNIT(*) SI_UNIT(.MILLI.,.METRE.) );
#1327 = ( NAMED_UNIT(*) PLANE_ANGLE_UNIT() SI_UNIT($,.RADIAN.) );
#1328 = ( NAMED_UNIT(*) SI_UNIT($,.STERADIAN.) SOLID_ANGLE_UNIT() );
#1329 = UNCERTAINTY_MEASURE_WITH_UNIT(LENGTH_MEASURE(5.E-07),#1326,
  'distance_accuracy_value','confusion accuracy');
#1330 = PRODUCT_RELATED_PRODUCT_CATEGORY('part',$,(#7));
ENDSEC;
END-ISO-10303-21;
