  0
SECTION
  2
HEADER
  9
$ACADVER
  1
AC1024
  9
$ACADMAINTVER
 70
6
  9
$DWGCODEPAGE
  3
ANSI_1252
  9
$LASTSAVEDBY
  1
ezdxf
  9
$INSBASE
 10
0.0
 20
0.0
 30
0.0
  9
$EXTMIN
 10
1e+20
 20
1e+20
 30
1e+20
  9
$EXTMAX
 10
-1e+20
 20
-1e+20
 30
-1e+20
  9
$LIMMIN
 10
0.0
 20
0.0
  9
$LIMMAX
 10
420.0
 20
297.0
  9
$ORTHOMODE
 70
0
  9
$REGENMODE
 70
1
  9
$FILLMODE
 70
1
  9
$QTEXTMODE
 70
0
  9
$MIRRTEXT
 70
1
  9
$LTSCALE
 40
1.0
  9
$ATTMODE
 70
1
  9
$TEXTSIZE
 40
2.5
  9
$TRACEWID
 40
1.0
  9
$TEXTSTYLE
  7
OpenSans
  9
$CLAYER
  8
0
  9
$CELTYPE
  6
ByLayer
  9
$CECOLOR
 62
256
  9
$CELTSCALE
 40
1.0
  9
$DISPSILH
 70
0
  9
$DIMSCALE
 40
1.0
  9
$DIMASZ
 40
0.175
  9
$DIMEXO
 40
0.125
  9
$DIMDLI
 40
3.75
  9
$DIMRND
 40
0.0
  9
$DIMDLE
 40
0.0
  9
$DIMEXE
 40
0.375
  9
$DIMTP
 40
0.0
  9
$DIMTM
 40
0.0
  9
$DIMTXT
 40
0.25
  9
$DIMCEN
 40
2.5
  9
$DIMTSZ
 40
0.0
  9
$DIMTOL
 70
0
  9
$DIMLIM
 70
0
  9
$DIMTIH
 70
0
  9
$DIMTOH
 70
0
  9
$DIMSE1
 70
0
  9
$DIMSE2
 70
0
  9
$DIMTAD
 70
1
  9
$DIMZIN
 70
12
  9
$DIMBLK
  1
ARCHTICK
  9
$DIMASO
 70
1
  9
$DIMSHO
 70
1
  9
$DIMPOST
  1

  9
$DIMAPOST
  1

  9
$DIMALT
 70
0
  9
$DIMALTD
 70
3
  9
$DIMALTF
 40
0.03937007874
  9
$DIMLFAC
 40
100.0
  9
$DIMTOFL
 70
1
  9
$DIMTVP
 40
0.0
  9
$DIMTIX
 70
0
  9
$DIMSOXD
 70
0
  9
$DIMSAH
 70
0
  9
$DIMBLK1
  1

  9
$DIMBLK2
  1

  9
$DIMSTYLE
  2
EZDXF
  9
$DIMCLRD
 70
0
  9
$DIMCLRE
 70
0
  9
$DIMCLRT
 70
0
  9
$DIMTFAC
 40
0.5
  9
$DIMGAP
 40
0.1
  9
$DIMJUST
 70
0
  9
$DIMSD1
 70
0
  9
$DIMSD2
 70
0
  9
$DIMTOLJ
 70
0
  9
$DIMTZIN
 70
8
  9
$DIMALTZ
 70
0
  9
$DIMALTTZ
 70
0
  9
$DIMUPT
 70
1
  9
$DIMDEC
 70
2
  9
$DIMTDEC
 70
2
  9
$DIMALTU
 70
2
  9
$DIMALTTD
 70
3
  9
$DIMTXSTY
  7
OpenSansCondensed-Light
  9
$DIMAUNIT
 70
0
  9
$DIMADEC
 70
2
  9
$DIMALTRND
 40
0.0
  9
$DIMAZIN
 70
3
  9
$DIMDSEP
 70
46
  9
$DIMATFIT
 70
3
  9
$DIMFRAC
 70
0
  9
$DIMLDRBLK
  1

  9
$DIMLUNIT
 70
2
  9
$DIMLWD
 70
-2
  9
$DIMLWE
 70
-2
  9
$DIMTMOVE
 70
2
  9
$DIMFXL
 40
1.0
  9
$DIMFXLON
 70
0
  9
$DIMJOGANG
 40
0.785398163397
  9
$DIMTFILL
 70
0
  9
$DIMTFILLCLR
 70
0
  9
$DIMARCSYM
 70
0
  9
$DIMLTYPE
  6

  9
$DIMLTEX1
  6

  9
$DIMLTEX2
  6

  9
$DIMTXTDIRECTION
 70
0
  9
$LUNITS
 70
2
  9
$LUPREC
 70
4
  9
$SKETCHINC
 40
1.0
  9
$FILLETRAD
 40
10.0
  9
$AUNITS
 70
0
  9
$AUPREC
 70
2
  9
$MENU
  1
.
  9
$ELEVATION
 40
0.0
  9
$PELEVATION
 40
0.0
  9
$THICKNESS
 40
0.0
  9
$LIMCHECK
 70
0
  9
$CHAMFERA
 40
0.0
  9
$CHAMFERB
 40
0.0
  9
$CHAMFERC
 40
0.0
  9
$CHAMFERD
 40
0.0
  9
$SKPOLY
 70
0
  9
$TDCREATE
 40
2461308.725601852
  9
$TDUCREATE
 40
2458532.153996898
  9
$TDUPDATE
 40
2461308.725601852
  9
$TDUUPDATE
 40
2458532.1544311
  9
$TDINDWG
 40
0.0
  9
$TDUSRTIMER
 40
0.0
  9
$USRTIMER
 70
1
  9
$ANGBASE
 50
0.0
  9
$ANGDIR
 70
0
  9
$PDMODE
 70
0
  9
$PDSIZE
 40
0.0
  9
$PLINEWID
 40
0.0
  9
$SPLFRAME
 70
0
  9
$SPLINETYPE
 70
6
  9
$SPLINESEGS
 70
8
  9
$HANDSEED
  5
13B
  9
$SURFTAB1
 70
6
  9
$SURFTAB2
 70
6
  9
$SURFTYPE
 70
6
  9
$SURFU
 70
6
  9
$SURFV
 70
6
  9
$UCSBASE
  2

  9
$UCSNAME
  2

  9
$UCSORG
 10
0.0
 20
0.0
 30
0.0
  9
$UCSXDIR
 10
1.0
 20
0.0
 30
0.0
  9
$UCSYDIR
 10
0.0
 20
1.0
 30
0.0
  9
$UCSORTHOREF
  2

  9
$UCSORTHOVIEW
 70
0
  9
$UCSORGTOP
 10
0.0
 20
0.0
 30
0.0
  9
$UCSORGBOTTOM
 10
0.0
 20
0.0
 30
0.0
  9
$UCSORGLEFT
 10
0.0
 20
0.0
 30
0.0
  9
$UCSORGRIGHT
 10
0.0
 20
0.0
 30
0.0
  9
$UCSORGFRONT
 10
0.0
 20
0.0
 30
0.0
  9
$UCSORGBACK
 10
0.0
 20
0.0
 30
0.0
  9
$PUCSBASE
  2

  9
$PUCSNAME
  2

  9
$PUCSORG
 10
0.0
 20
0.0
 30
0.0
  9
$PUCSXDIR
 10
1.0
 20
0.0
 30
0.0
  9
$PUCSYDIR
 10
0.0
 20
1.0
 30
0.0
  9
$PUCSORTHOREF
  2

  9
$PUCSORTHOVIEW
 70
0
  9
$PUCSORGTOP
 10
0.0
 20
0.0
 30
0.0
  9
$PUCSORGBOTTOM
 10
0.0
 20
0.0
 30
0.0
  9
$PUCSORGLEFT
 10
0.0
 20
0.0
 30
0.0
  9
$PUCSORGRIGHT
 10
0.0
 20
0.0
 30
0.0
  9
$PUCSORGFRONT
 10
0.0
 20
0.0
 30
0.0
  9
$PUCSORGBACK
 10
0.0
 20
0.0
 30
0.0
  9
$USERI1
 70
0
  9
$USERI2
 70
0
  9
$USERI3
 70
0
  9
$USERI4
 70
0
  9
$USERI5
 70
0
  9
$USERR1
 40
0.0
  9
$USERR2
 40
0.0
  9
$USERR3
 40
0.0
  9
$USERR4
 40
0.0
  9
$USERR5
 40
0.0
  9
$WORLDVIEW
 70
1
  9
$SHADEDGE
 70
3
  9
$SHADEDIF
 70
70
  9
$TILEMODE
 70
1
  9
$MAXACTVP
 70
64
  9
$PINSBASE
 10
0.0
 20
0.0
 30
0.0
  9
$PLIMCHECK
 70
0
  9
$PEXTMIN
 10
1e+20
 20
1e+20
 30
1e+20
  9
$PEXTMAX
 10
-1e+20
 20
-1e+20
 30
-1e+20
  9
$PLIMMIN
 10
0.0
 20
0.0
  9
$PLIMMAX
 10
420.0
 20
297.0
  9
$UNITMODE
 70
0
  9
$VISRETAIN
 70
1
  9
$PLINEGEN
 70
0
  9
$PSLTSCALE
 70
1
  9
$TREEDEPTH
 70
3020
  9
$CMLSTYLE
  2
Standard
  9
$CMLJUST
 70
0
  9
$CMLSCALE
 40
20.0
  9
$PROXYGRAPHICS
 70
1
  9
$MEASUREMENT
 70
1
  9
$CELWEIGHT
370
-1
  9
$ENDCAPS
280
0
  9
$JOINSTYLE
280
0
  9
$LWDISPLAY
290
0
  9
$INSUNITS
 70
4
  9
$HYPERLINKBASE
  1

  9
$STYLESHEET
  1

  9
$XEDIT
290
1
  9
$CEPSNTYPE
380
0
  9
$PSTYLEMODE
290
1
  9
$FINGERPRINTGUID
  2
{1F98BEB2-7741-4953-B5A4-8EC2E8702BF2}
  9
$VERSIONGUID
  2
{6D602804-430B-4562-BBF0-140D1F0E2BF2}
  9
$EXTNAMES
290
1
  9
$PSVPSCALE
 40
0.0
  9
$OLESTARTUP
290
0
  9
$SORTENTS
280
127
  9
$INDEXCTL
280
0
  9
$HIDETEXT
280
1
  9
$XCLIPFRAME
280
1
  9
$HALOGAP
280
0
  9
$OBSCOLOR
 70
257
  9
$OBSLTYPE
280
0
  9
$INTERSECTIONDISPLAY
280
0
  9
$INTERSECTIONCOLOR
 70
257
  9
$DIMASSOC
280
2
  9
$PROJECTNAME
  1

  9
$CAMERADISPLAY
290
0
  9
$LENSLENGTH
 40
50.0
  9
$CAMERAHEIGHT
 40
0.0
  9
$STEPSPERSEC
 40
24.0
  9
$STEPSIZE
 40
100.0
  9
$3DDWFPREC
 40
2.0
  9
$PSOLWIDTH
 40
0.005
  9
$PSOLHEIGHT
 40
0.08
  9
$LOFTANG1
 40
1.570796326795
  9
$LOFTANG2
 40
1.570796326795
  9
$LOFTMAG1
 40
0.0
  9
$LOFTMAG2
 40
0.0
  9
$LOFTPARAM
 70
7
  9
$LOFTNORMALS
280
1
  9
$LATITUDE
 40
37.795
  9
$LONGITUDE
 40
-122.394
  9
$NORTHDIRECTION
 40
0.0
  9
$TIMEZONE
 70
-8000
  9
$LIGHTGLYPHDISPLAY
280
1
  9
$TILEMODELIGHTSYNCH
280
1
  9
$CMATERIAL
347
20
  9
$SOLIDHIST
280
0
  9
$SHOWHIST
280
1
  9
$DWFFRAME
280
2
  9
$DGNFRAME
280
2
  9
$REALWORLDSCALE
290
1
  9
$INTERFERECOLOR
 62
256
  9
$CSHADOW
280
0
  9
$SHADOWPLANELOCATION
 40
0.0
  0
ENDSEC
  0
SECTION
  2
CLASSES
  0
CLASS
  1
ACDBDICTIONARYWDFLT
  2
AcDbDictionaryWithDefault
  3
ObjectDBX Classes
 90
0
 91
0
280
0
281
0
  0
CLASS
  1
SUN
  2
AcDbSun
  3
SCENEOE
 90
1153
 91
0
280
0
281
0
  0
CLASS
  1
VISUALSTYLE
  2
AcDbVisualStyle
  3
ObjectDBX Classes
 90
4095
 91
0
280
0
281
0
  0
CLASS
  1
MATERIAL
  2
AcDbMaterial
  3
ObjectDBX Classes
 90
1153
 91
0
280
0
281
0
  0
CLASS
  1
SCALE
  2
AcDbScale
  3
ObjectDBX Classes
 90
1153
 91
0
280
0
281
0
  0
CLASS
  1
TABLESTYLE
  2
AcDbTableStyle
  3
ObjectDBX Classes
 90
4095
 91
0
280
0
281
0
  0
CLASS
  1
MLEADERSTYLE
  2
AcDbMLeaderStyle
  3
ACDB_MLEADERSTYLE_CLASS
 90
4095
 91
0
280
0
281
0
  0
CLASS
  1
DICTIONARYVAR
  2
AcDbDictionaryVar
  3
ObjectDBX Classes
 90
0
 91
0
280
0
281
0
  0
CLASS
  1
CELLSTYLEMAP
  2
AcDbCellStyleMap
  3
ObjectDBX Classes
 90
1152
 91
0
280
0
281
0
  0
CLASS
  1
MENTALRAYRENDERSETTINGS
  2
AcDbMentalRayRenderSettings
  3
SCENEOE
 90
1024
 91
0
280
0
281
0
  0
CLASS
  1
ACDBDETAILVIEWSTYLE
  2
AcDbDetailViewStyle
  3
ObjectDBX Classes
 90
1025
 91
0
280
0
281
0
  0
CLASS
  1
ACDBSECTIONVIEWSTYLE
  2
AcDbSectionViewStyle
  3
ObjectDBX Classes
 90
1025
 91
0
280
0
281
0
  0
CLASS
  1
RASTERVARIABLES
  2
AcDbRasterVariables
  3
ISM
 90
0
 91
0
280
0
281
0
  0
CLASS
  1
LAYOUT
  2
AcDbLayout
  3
ObjectDBX Classes
 90
0
 91
0
280
0
281
0
  0
CLASS
  1
ACDBPLACEHOLDER
  2
AcDbPlaceHolder
  3
ObjectDBX Classes
 90
0
 91
0
280
0
281
0
  0
ENDSEC
  0
SECTION
  2
TABLES
  0
TABLE
  2
VPORT
  5
8
330
0
100
AcDbSymbolTable
 70
1
  0
VPORT
  5
23
330
8
100
AcDbSymbolTableRecord
100
AcDbViewportTableRecord
  2
*Active
 70
0
 10
0.0
 20
0.0
 11
1.0
 21
1.0
 12
0.0
 22
0.0
 13
0.0
 23
0.0
 14
0.5
 24
0.5
 15
0.5
 25
0.5
 16
0.0
 26
0.0
 36
1.0
 17
0.0
 27
0.0
 37
0.0
 40
1000.0
 41
1.34
 42
50.0
 43
0.0
 44
0.0
 50
0.0
 51
0.0
 71
0
 72
1000
 73
1
 74
3
 75
0
 76
0
 77
0
 78
0
281
0
 65
0
146
0.0
  0
ENDTAB
  0
TABLE
  2
LTYPE
  5
2
330
0
100
AcDbSymbolTable
 70
21
  0
LTYPE
  5
24
330
2
100
AcDbSymbolTableRecord
100
AcDbLinetypeTableRecord
  2
ByBlock
 70
0
  3

 72
65
 73
0
 40
0.0
  0
LTYPE
  5
25
330
2
100
AcDbSymbolTableRecord
100
AcDbLinetypeTableRecord
  2
ByLayer
 70
0
  3

 72
65
 73
0
 40
0.0
  0
LTYPE
  5
26
330
2
100
AcDbSymbolTableRecord
100
AcDbLinetypeTableRecord
  2
Continuous
 70
0
  3

 72
65
 73
0
 40
0.0
  0
LTYPE
  5
2F
330
2
100
AcDbSymbolTableRecord
100
AcDbLinetypeTableRecord
  2
CENTER
 70
0
  3
Center ____ _ ____ _ ____ _ ____ _ ____ _ ____
 72
65
 73
4
 40
5.08
 49
3.175
 74
0
 49
-0.635
 74
0
 49
0.635
 74
0
 49
-0.635
 74
0
  0
LTYPE
  5
30
330
2
100
AcDbSymbolTableRecord
100
AcDbLinetypeTableRecord
  2
CENTERX2
 70
0
  3
Center (2x) ________  __  ________  __  ________
 72
65
 73
4
 40
8.89
 49
6.35
 74
0
 49
-0.635
 74
0
 49
1.27
 74
0
 49
-0.635
 74
0
  0
LTYPE
  5
31
330
2
100
AcDbSymbolTableRecord
100
AcDbLinetypeTableRecord
  2
CENTER2
 70
0
  3
Center (.5x) ____ _ ____ _ ____ _ ____ _ ____
 72
65
 73
4
 40
2.54
 49
1.587
 74
0
 49
-0.318
 74
0
 49
0.318
 74
0
 49
-0.318
 74
0
  0
LTYPE
  5
32
330
2
100
AcDbSymbolTableRecord
100
AcDbLinetypeTableRecord
  2
DASHED
 70
0
  3
Dashed __ __ __ __ __ __ __ __ __ __ __ __ __ _
 72
65
 73
2
 40
1.524
 49
1.27
 74
0
 49
-0.254
 74
0
  0
LTYPE
  5
33
330
2
100
AcDbSymbolTableRecord
100
AcDbLinetypeTableRecord
  2
DASHEDX2
 70
0
  3
Dashed (2x) ____  ____  ____  ____  ____  ____
 72
65
 73
2
 40
3.048
 49
2.54
 74
0
 49
-0.508
 74
0
  0
LTYPE
  5
34
330
2
100
AcDbSymbolTableRecord
100
AcDbLinetypeTableRecord
  2
DASHED2
 70
0
  3
Dashed (.5x) _ _ _ _ _ _ _ _ _ _ _ _ _ _
 72
65
 73
2
 40
0.762
 49
0.635
 74
0
 49
-0.127
 74
0
  0
LTYPE
  5
35
330
2
100
AcDbSymbolTableRecord
100
AcDbLinetypeTableRecord
  2
PHANTOM
 70
0
  3
Phantom ______  __  __  ______  __  __  ______
 72
65
 73
6
 40
6.35
 49
3.175
 74
0
 49
-0.635
 74
0
 49
0.635
 74
0
 49
-0.635
 74
0
 49
0.635
 74
0
 49
-0.635
 74
0
  0
LTYPE
  5
36
330
2
100
AcDbSymbolTableRecord
100
AcDbLinetypeTableRecord
  2
PHANTOMX2
 70
0
  3
Phantom (2x)____________    ____    ____    ____________
 72
65
 73
6
 40
10.795
 49
6.35
 74
0
 49
-0.635
 74
0
 49
1.27
 74
0
 49
-0.635
 74
0
 49
1.27
 74
0
 49
-0.635
 74
0
  0
LTYPE
  5
37
330
2
100
AcDbSymbolTableRecord
100
AcDbLinetypeTableRecord
  2
PHANTOM2
 70
0
  3
Phantom (.5x) ___ _ _ ___ _ _ ___ _ _ ___ _ _ ___
 72
65
 73
6
 40
3.175
 49
1.587
 74
0
 49
-0.318
 74
0
 49
0.318
 74
0
 49
-0.318
 74
0
 49
0.318
 74
0
 49
-0.318
 74
0
  0
LTYPE
  5
38
330
2
100
AcDbSymbolTableRecord
100
AcDbLinetypeTableRecord
  2
DASHDOT
 70
0
  3
Dash dot __ . __ . __ . __ . __ . __ . __ . __
 72
65
 73
4
 40
3.556
 49
2.54
 74
0
 49
-0.508
 74
0
 49
0.0
 74
0
 49
-0.508
 74
0
  0
LTYPE
  5
39
330
2
100
AcDbSymbolTableRecord
100
AcDbLinetypeTableRecord
  2
DASHDOTX2
 70
0
  3
Dash dot (2x) ____  .  ____  .  ____  .  ____
 72
65
 73
4
 40
6.096
 49
5.08
 74
0
 49
-0.508
 74
0
 49
0.0
 74
0
 49
-0.508
 74
0
  0
LTYPE
  5
3A
330
2
100
AcDbSymbolTableRecord
100
AcDbLinetypeTableRecord
  2
DASHDOT2
 70
0
  3
Dash dot (.5x) _ . _ . _ . _ . _ . _ . _ . _
 72
65
 73
4
 40
1.778
 49
1.27
 74
0
 49
-0.254
 74
0
 49
0.0
 74
0
 49
-0.254
 74
0
  0
LTYPE
  5
3B
330
2
100
AcDbSymbolTableRecord
100
AcDbLinetypeTableRecord
  2
DOT
 70
0
  3
Dot .  .  .  .  .  .  .  .  .  .  .  .  .  .  .  .
 72
65
 73
2
 40
0.508
 49
0.0
 74
0
 49
-0.508
 74
0
  0
LTYPE
  5
3C
330
2
100
AcDbSymbolTableRecord
100
AcDbLinetypeTableRecord
  2
DOTX2
 70
0
  3
Dot (2x) .    .    .    .    .    .    .    . 
 72
65
 73
2
 40
1.016
 49
0.0
 74
0
 49
-1.016
 74
0
  0
LTYPE
  5
3D
330
2
100
AcDbSymbolTableRecord
100
AcDbLinetypeTableRecord
  2
DOT2
 70
0
  3
Dot (.5) . . . . . . . . . . . . . . . . . . . 
 72
65
 73
2
 40
0.254
 49
0.0
 74
0
 49
-0.254
 74
0
  0
LTYPE
  5
3E
330
2
100
AcDbSymbolTableRecord
100
AcDbLinetypeTableRecord
  2
DIVIDE
 70
0
  3
Divide __ . . __ . . __ . . __ . . __ . . __
 72
65
 73
6
 40
4.064
 49
2.54
 74
0
 49
-0.508
 74
0
 49
0.0
 74
0
 49
-0.508
 74
0
 49
0.0
 74
0
 49
-0.508
 74
0
  0
LTYPE
  5
3F
330
2
100
AcDbSymbolTableRecord
100
AcDbLinetypeTableRecord
  2
DIVIDEX2
 70
0
  3
Divide (2x) ____  . .  ____  . .  ____  . .  ____
 72
65
 73
6
 40
6.604
 49
5.08
 74
0
 49
-0.508
 74
0
 49
0.0
 74
0
 49
-0.508
 74
0
 49
0.0
 74
0
 49
-0.508
 74
0
  0
LTYPE
  5
40
330
2
100
AcDbSymbolTableRecord
100
AcDbLinetypeTableRecord
  2
DIVIDE2
 70
0
  3
Divide(.5x) _ . _ . _ . _ . _ . _ . _ . _
 72
65
 73
6
 40
2.032
 49
1.27
 74
0
 49
-0.254
 74
0
 49
0.0
 74
0
 49
-0.254
 74
0
 49
0.0
 74
0
 49
-0.254
 74
0
  0
ENDTAB
  0
TABLE
  2
LAYER
  5
1
330
0
100
AcDbSymbolTable
 70
9
  0
LAYER
  5
27
330
1
100
AcDbSymbolTableRecord
100
AcDbLayerTableRecord
  2
0
 70
0
 62
7
  6
Continuous
370
-3
390
13
347
21
  0
LAYER
  5
28
330
1
100
AcDbSymbolTableRecord
100
AcDbLayerTableRecord
  2
Defpoints
 70
0
 62
7
  6
Continuous
290
0
370
-3
390
13
347
21
  0
LAYER
  5
8A
330
1
100
AcDbSymbolTableRecord
100
AcDbLayerTableRecord
  2
PERFIL
 70
0
 62
7
  6
Continuous
370
50
390
13
347
21
  0
LAYER
  5
8B
330
1
100
AcDbSymbolTableRecord
100
AcDbLayerTableRecord
  2
CANAL
 70
0
 62
1
  6
Continuous
370
35
390
13
347
21
  0
LAYER
  5
8C
330
1
100
AcDbSymbolTableRecord
100
AcDbLayerTableRecord
  2
EIXO
 70
0
 62
8
  6
CENTER2
370
13
390
13
347
21
  0
LAYER
  5
8D
330
1
100
AcDbSymbolTableRecord
100
AcDbLayerTableRecord
  2
COTAS
 70
0
 62
5
  6
Continuous
370
18
390
13
347
21
  0
LAYER
  5
8E
330
1
100
AcDbSymbolTableRecord
100
AcDbLayerTableRecord
  2
MATERIAL
 70
0
 62
1
  6
Continuous
370
70
390
13
347
21
  0
LAYER
  5
8F
330
1
100
AcDbSymbolTableRecord
100
AcDbLayerTableRecord
  2
NOTAS
 70
0
 62
7
  6
Continuous
370
15
390
13
347
21
  0
LAYER
  5
90
330
1
100
AcDbSymbolTableRecord
100
AcDbLayerTableRecord
  2
CARIMBO
 70
0
 62
7
  6
Continuous
370
25
390
13
347
21
  0
ENDTAB
  0
TABLE
  2
STYLE
  5
5
330
0
100
AcDbSymbolTable
 70
26
  0
STYLE
  5
29
330
5
100
AcDbSymbolTableRecord
100
AcDbTextStyleTableRecord
  2
Standard
 70
0
 40
0.0
 41
1.0
 50
0.0
 71
0
 42
2.5
  3
txt
  4

  0
STYLE
  5
41
330
5
100
AcDbSymbolTableRecord
100
AcDbTextStyleTableRecord
  2
OpenSans-Light
 70
0
 40
0.0
 41
1.0
 50
0.0
 71
0
 42
2.5
  3
OpenSans-Light.ttf
  4

  0
STYLE
  5
42
330
5
100
AcDbSymbolTableRecord
100
AcDbTextStyleTableRecord
  2
OpenSans-Light-Italic
 70
0
 40
0.0
 41
1.0
 50
0.0
 71
0
 42
2.5
  3
OpenSans-LightItalic.ttf
  4

  0
STYLE
  5
43
330
5
100
AcDbSymbolTableRecord
100
AcDbTextStyleTableRecord
  2
OpenSans
 70
0
 40
0.0
 41
1.0
 50
0.0
 71
0
 42
2.5
  3
OpenSans-Regular.ttf
  4

  0
STYLE
  5
44
330
5
100
AcDbSymbolTableRecord
100
AcDbTextStyleTableRecord
  2
OpenSans-Italic
 70
0
 40
0.0
 41
1.0
 50
0.0
 71
0
 42
2.5
  3
OpenSans-Italic.ttf
  4

  0
STYLE
  5
45
330
5
100
AcDbSymbolTableRecord
100
AcDbTextStyleTableRecord
  2
OpenSans-SemiBold
 70
0
 40
0.0
 41
1.0
 50
0.0
 71
0
 42
2.5
  3
OpenSans-SemiBold.ttf
  4

  0
STYLE
  5
46
330
5
100
AcDbSymbolTableRecord
100
AcDbTextStyleTableRecord
  2
OpenSans-SemiBoldItalic
 70
0
 40
0.0
 41
1.0
 50
0.0
 71
0
 42
2.5
  3
OpenSans-SemiBoldItalic.ttf
  4

  0
STYLE
  5
47
330
5
100
AcDbSymbolTableRecord
100
AcDbTextStyleTableRecord
  2
OpenSans-Bold
 70
0
 40
0.0
 41
1.0
 50
0.0
 71
0
 42
2.5
  3
OpenSans-Bold.ttf
  4

  0
STYLE
  5
48
330
5
100
AcDbSymbolTableRecord
100
AcDbTextStyleTableRecord
  2
OpenSans-BoldItalic
 70
0
 40
0.0
 41
1.0
 50
0.0
 71
0
 42
2.5
  3
OpenSans-BoldItalic.ttf
  4

  0
STYLE
  5
49
330
5
100
AcDbSymbolTableRecord
100
AcDbTextStyleTableRecord
  2
OpenSans-ExtraBold
 70
0
 40
0.0
 41
1.0
 50
0.0
 71
0
 42
2.5
  3
OpenSans-ExtraBold.ttf
  4

  0
STYLE
  5
4A
330
5
100
AcDbSymbolTableRecord
100
AcDbTextStyleTableRecord
  2
OpenSans-ExtraBoldItalic
 70
0
 40
0.0
 41
1.0
 50
0.0
 71
0
 42
2.5
  3
OpenSans-ExtraBoldItalic.ttf
  4

  0
STYLE
  5
4B
330
5
100
AcDbSymbolTableRecord
100
AcDbTextStyleTableRecord
  2
OpenSansCondensed-Bold
 70
0
 40
0.0
 41
1.0
 50
0.0
 71
0
 42
2.5
  3
OpenSansCondensed-Bold.ttf
  4

  0
STYLE
  5
4C
330
5
100
AcDbSymbolTableRecord
100
AcDbTextStyleTableRecord
  2
OpenSansCondensed-Light
 70
0
 40
0.0
 41
1.0
 50
0.0
 71
0
 42
2.5
  3
OpenSansCondensed-Light.ttf
  4

  0
STYLE
  5
4D
330
5
100
AcDbSymbolTableRecord
100
AcDbTextStyleTableRecord
  2
OpenSansCondensed-Italic
 70
0
 40
0.0
 41
1.0
 50
0.0
 71
0
 42
2.5
  3
OpenSansCondensed-LightItalic.ttf
  4

  0
STYLE
  5
4E
330
5
100
AcDbSymbolTableRecord
100
AcDbTextStyleTableRecord
  2
LiberationSans
 70
0
 40
0.0
 41
1.0
 50
0.0
 71
0
 42
2.5
  3
LiberationSans-Regular.ttf
  4

  0
STYLE
  5
4F
330
5
100
AcDbSymbolTableRecord
100
AcDbTextStyleTableRecord
  2
LiberationSans-Bold
 70
0
 40
0.0
 41
1.0
 50
0.0
 71
0
 42
2.5
  3
LiberationSans-Bold.ttf
  4

  0
STYLE
  5
50
330
5
100
AcDbSymbolTableRecord
100
AcDbTextStyleTableRecord
  2
LiberationSans-BoldItalic
 70
0
 40
0.0
 41
1.0
 50
0.0
 71
0
 42
2.5
  3
LiberationSans-BoldItalic.ttf
  4

  0
STYLE
  5
51
330
5
100
AcDbSymbolTableRecord
100
AcDbTextStyleTableRecord
  2
LiberationSans-Italic
 70
0
 40
0.0
 41
1.0
 50
0.0
 71
0
 42
2.5
  3
LiberationSans-Italic.ttf
  4

  0
STYLE
  5
52
330
5
100
AcDbSymbolTableRecord
100
AcDbTextStyleTableRecord
  2
LiberationSerif
 70
0
 40
0.0
 41
1.0
 50
0.0
 71
0
 42
2.5
  3
LiberationSerif-Regular.ttf
  4

  0
STYLE
  5
53
330
5
100
AcDbSymbolTableRecord
100
AcDbTextStyleTableRecord
  2
LiberationSerif-Bold
 70
0
 40
0.0
 41
1.0
 50
0.0
 71
0
 42
2.5
  3
LiberationSerif-Bold.ttf
  4

  0
STYLE
  5
54
330
5
100
AcDbSymbolTableRecord
100
AcDbTextStyleTableRecord
  2
LiberationSerif-BoldItalic
 70
0
 40
0.0
 41
1.0
 50
0.0
 71
0
 42
2.5
  3
LiberationSerif-BoldItalic.ttf
  4

  0
STYLE
  5
55
330
5
100
AcDbSymbolTableRecord
100
AcDbTextStyleTableRecord
  2
LiberationSerif-Italic
 70
0
 40
0.0
 41
1.0
 50
0.0
 71
0
 42
2.5
  3
LiberationSerif-Italic.ttf
  4

  0
STYLE
  5
56
330
5
100
AcDbSymbolTableRecord
100
AcDbTextStyleTableRecord
  2
LiberationMono
 70
0
 40
0.0
 41
1.0
 50
0.0
 71
0
 42
2.5
  3
LiberationMono-Regular.ttf
  4

  0
STYLE
  5
57
330
5
100
AcDbSymbolTableRecord
100
AcDbTextStyleTableRecord
  2
LiberationMono-Bold
 70
0
 40
0.0
 41
1.0
 50
0.0
 71
0
 42
2.5
  3
LiberationMono-Bold.ttf
  4

  0
STYLE
  5
58
330
5
100
AcDbSymbolTableRecord
100
AcDbTextStyleTableRecord
  2
LiberationMono-BoldItalic
 70
0
 40
0.0
 41
1.0
 50
0.0
 71
0
 42
2.5
  3
LiberationMono-BoldItalic.ttf
  4

  0
STYLE
  5
59
330
5
100
AcDbSymbolTableRecord
100
AcDbTextStyleTableRecord
  2
LiberationMono-Italic
 70
0
 40
0.0
 41
1.0
 50
0.0
 71
0
 42
2.5
  3
LiberationMono-Italic.ttf
  4

  0
ENDTAB
  0
TABLE
  2
VIEW
  5
7
330
0
100
AcDbSymbolTable
 70
0
  0
ENDTAB
  0
TABLE
  2
UCS
  5
6
330
0
100
AcDbSymbolTable
 70
0
  0
ENDTAB
  0
TABLE
  2
APPID
  5
3
330
0
100
AcDbSymbolTable
 70
3
  0
APPID
  5
2A
330
3
100
AcDbSymbolTableRecord
100
AcDbRegAppTableRecord
  2
ACAD
 70
0
  0
APPID
  5
138
330
3
100
AcDbSymbolTableRecord
100
AcDbRegAppTableRecord
  2
HATCHBACKGROUNDCOLOR
 70
0
  0
APPID
  5
139
330
3
100
AcDbSymbolTableRecord
100
AcDbRegAppTableRecord
  2
EZDXF
 70
0
  0
ENDTAB
  0
TABLE
  2
DIMSTYLE
  5
4
330
0
100
AcDbSymbolTable
 70
13
100
AcDbDimStyleTable
  0
DIMSTYLE
105
2B
330
4
100
AcDbSymbolTableRecord
100
AcDbDimStyleTableRecord
  2
Standard
 70
0
 40
1.0
 41
2.5
 42
0.625
 43
3.75
 44
1.25
 45
0.0
 46
0.0
 47
0.0
 48
0.0
 49
2.5
140
2.5
141
2.5
142
0.0
143
0.03937007874
144
1.0
145
0.0
146
1.0
147
0.625
148
0.0
 69
0
 70
0
 71
0
 72
0
 73
0
 74
0
 75
0
 76
0
 77
1
 78
8
 79
3
170
0
171
3
172
1
173
0
174
0
175
0
176
0
177
0
178
0
179
2
271
2
272
2
273
2
274
3
275
0
276
0
277
2
278
44
279
0
280
0
281
0
282
0
283
0
284
8
285
0
286
0
288
0
289
3
290
0
371
-2
372
-2
  0
DIMSTYLE
105
73
330
4
100
AcDbSymbolTableRecord
100
AcDbDimStyleTableRecord
  2
EZDXF
 70
0
 40
1.0
 41
0.175
 42
0.125
 43
3.75
 44
0.375
 45
0.0
 46
0.0
 47
0.0
 48
0.0
 49
2.5
140
0.25
141
2.5
142
0.0
143
0.03937007874
144
100.0
145
0.0
146
0.5
147
0.1
148
0.0
 69
0
 70
0
 71
0
 72
0
 73
0
 74
0
 75
0
 76
0
 77
1
 78
12
 79
3
170
0
171
3
172
1
173
0
174
0
175
0
176
0
177
0
178
0
179
2
271
2
272
2
273
2
274
3
275
0
276
0
277
2
278
46
279
2
280
0
281
0
282
0
283
0
284
8
285
0
286
0
288
1
289
3
290
0
340
4C
342
74
371
-2
372
-2
  0
DIMSTYLE
105
7C
330
4
100
AcDbSymbolTableRecord
100
AcDbDimStyleTableRecord
  2
EZ_M_100_H25_CM
 70
0
 40
1.0
 41
0.25
 42
0.125
 43
3.75
 44
0.375
 45
0.0
 46
0.0
 47
0.0
 48
0.0
 49
2.5
140
0.25
141
2.5
142
0.125
143
0.03937007874
144
100.0
145
0.0
146
0.5
147
0.1
148
0.0
 69
0
 70
0
 71
0
 72
0
 73
0
 74
0
 75
0
 76
0
 77
1
 78
12
 79
3
170
0
171
3
172
1
173
0
174
0
175
0
176
0
177
0
178
0
179
2
271
2
272
2
273
2
274
3
275
0
276
0
277
2
278
46
279
2
280
0
281
0
282
0
283
0
284
8
285
0
286
0
288
1
289
3
290
0
340
4C
371
-2
372
-2
  0
DIMSTYLE
105
7D
330
4
100
AcDbSymbolTableRecord
100
AcDbDimStyleTableRecord
  2
EZ_M_50_H25_CM
 70
0
 40
1.0
 41
0.125
 42
0.0625
 43
3.75
 44
0.1875
 45
0.0
 46
0.0
 47
0.0
 48
0.0
 49
2.5
140
0.125
141
2.5
142
0.0625
143
0.03937007874
144
100.0
145
0.0
146
0.5
147
0.05
148
0.0
 69
0
 70
0
 71
0
 72
0
 73
0
 74
0
 75
0
 76
0
 77
1
 78
12
 79
3
170
0
171
3
172
1
173
0
174
0
175
0
176
0
177
0
178
0
179
2
271
2
272
2
273
2
274
3
275
0
276
0
277
2
278
46
279
2
280
0
281
0
282
0
283
0
284
8
285
0
286
0
288
1
289
3
290
0
340
4C
371
-2
372
-2
  0
DIMSTYLE
105
7E
330
4
100
AcDbSymbolTableRecord
100
AcDbDimStyleTableRecord
  2
EZ_M_25_H25_CM
 70
0
 40
1.0
 41
0.0625
 42
0.03125
 43
3.75
 44
0.09375
 45
0.0
 46
0.0
 47
0.0
 48
0.0
 49
2.5
140
0.0625
141
2.5
142
0.03125
143
0.03937007874
144
100.0
145
0.0
146
0.5
147
0.025
148
0.0
 69
0
 70
0
 71
0
 72
0
 73
0
 74
0
 75
0
 76
0
 77
1
 78
12
 79
3
170
0
171
3
172
1
173
0
174
0
175
0
176
0
177
0
178
0
179
2
271
2
272
2
273
2
274
3
275
0
276
0
277
2
278
46
279
2
280
0
281
0
282
0
283
0
284
8
285
0
286
0
288
1
289
3
290
0
340
4C
371
-2
372
-2
  0
DIMSTYLE
105
7F
330
4
100
AcDbSymbolTableRecord
100
AcDbDimStyleTableRecord
  2
EZ_M_20_H25_CM
 70
0
 40
1.0
 41
0.05
 42
0.025
 43
3.75
 44
0.07500000000000001
 45
0.0
 46
0.0
 47
0.0
 48
0.0
 49
2.5
140
0.05
141
2.5
142
0.025
143
0.03937007874
144
100.0
145
0.0
146
0.5
147
0.020000000000000004
148
0.0
 69
0
 70
0
 71
0
 72
0
 73
0
 74
0
 75
0
 76
0
 77
1
 78
12
 79
3
170
0
171
3
172
1
173
0
174
0
175
0
176
0
177
0
178
0
179
2
271
2
272
2
273
2
274
3
275
0
276
0
277
2
278
46
279
2
280
0
281
0
282
0
283
0
284
8
285
0
286
0
288
1
289
3
290
0
340
4C
371
-2
372
-2
  0
DIMSTYLE
105
80
330
4
100
AcDbSymbolTableRecord
100
AcDbDimStyleTableRecord
  2
EZ_M_10_H25_CM
 70
0
 40
1.0
 41
0.025
 42
0.0125
 43
3.75
 44
0.037500000000000006
 45
0.0
 46
0.0
 47
0.0
 48
0.0
 49
2.5
140
0.025
141
2.5
142
0.0125
143
0.03937007874
144
100.0
145
0.0
146
0.5
147
0.010000000000000002
148
0.0
 69
0
 70
0
 71
0
 72
0
 73
0
 74
0
 75
0
 76
0
 77
1
 78
12
 79
3
170
0
171
3
172
1
173
0
174
0
175
0
176
0
177
0
178
0
179
2
271
2
272
2
273
2
274
3
275
0
276
0
277
2
278
46
279
2
280
0
281
0
282
0
283
0
284
8
285
0
286
0
288
1
289
3
290
0
340
4C
371
-2
372
-2
  0
DIMSTYLE
105
81
330
4
100
AcDbSymbolTableRecord
100
AcDbDimStyleTableRecord
  2
EZ_M_5_H25_CM
 70
0
 40
1.0
 41
0.0125
 42
0.00625
 43
3.75
 44
0.018750000000000003
 45
0.0
 46
0.0
 47
0.0
 48
0.0
 49
2.5
140
0.0125
141
2.5
142
0.00625
143
0.03937007874
144
100.0
145
0.0
146
0.5
147
0.005000000000000001
148
0.0
 69
0
 70
0
 71
0
 72
0
 73
0
 74
0
 75
0
 76
0
 77
1
 78
12
 79
3
170
0
171
3
172
1
173
0
174
0
175
0
176
0
177
0
178
0
179
2
271
2
272
2
273
2
274
3
275
0
276
0
277
2
278
46
279
2
280
0
281
0
282
0
283
0
284
8
285
0
286
0
288
1
289
3
290
0
340
4C
371
-2
372
-2
  0
DIMSTYLE
105
82
330
4
100
AcDbSymbolTableRecord
100
AcDbDimStyleTableRecord
  2
EZ_M_1_H25_CM
 70
0
 40
1.0
 41
0.0025
 42
0.00125
 43
3.75
 44
0.00375
 45
0.0
 46
0.0
 47
0.0
 48
0.0
 49
2.5
140
0.0025
141
2.5
142
0.00125
143
0.03937007874
144
100.0
145
0.0
146
0.5
147
0.001
148
0.0
 69
0
 70
0
 71
0
 72
0
 73
0
 74
0
 75
0
 76
0
 77
1
 78
12
 79
3
170
0
171
3
172
1
173
0
174
0
175
0
176
0
177
0
178
0
179
2
271
2
272
2
273
2
274
3
275
0
276
0
277
2
278
46
279
2
280
0
281
0
282
0
283
0
284
8
285
0
286
0
288
1
289
3
290
0
340
4C
371
-2
372
-2
  0
DIMSTYLE
105
83
330
4
100
AcDbSymbolTableRecord
100
AcDbDimStyleTableRecord
  2
EZ_RADIUS
 70
0
 40
1.0
 41
0.25
 42
0.125
 43
3.75
 44
0.375
 45
0.0
 46
0.0
 47
0.0
 48
0.0
 49
2.5
140
0.25
141
0.0
142
0.0
143
0.03937007874
144
100.0
145
0.0
146
0.5
147
0.1
148
0.0
 69
0
 70
0
 71
0
 72
0
 73
0
 74
0
 75
0
 76
0
 77
1
 78
12
 79
3
170
0
171
3
172
0
173
0
174
0
175
0
176
0
177
0
178
0
179
2
271
2
272
2
273
2
274
3
275
0
276
0
277
2
278
46
279
1
280
0
281
0
282
0
283
0
284
8
285
0
286
0
288
1
289
3
290
0
340
4C
342
84
371
-2
372
-2
  0
DIMSTYLE
105
88
330
4
100
AcDbSymbolTableRecord
100
AcDbDimStyleTableRecord
  2
EZ_RADIUS_INSIDE
 70
0
 40
1.0
 41
0.25
 42
0.125
 43
3.75
 44
0.375
 45
0.0
 46
0.0
 47
0.0
 48
0.0
 49
2.5
140
0.25
141
0.0
142
0.0
143
0.03937007874
144
100.0
145
0.0
146
0.5
147
0.1
148
0.0
 69
0
 70
0
 71
0
 72
0
 73
0
 74
0
 75
0
 76
0
 77
0
 78
12
 79
3
170
0
171
3
172
0
173
0
174
1
175
0
176
0
177
0
178
0
179
2
271
2
272
2
273
2
274
3
275
0
276
0
277
2
278
46
279
0
280
0
281
0
282
0
283
0
284
8
285
0
286
0
288
1
289
0
290
0
340
4C
342
84
371
-2
372
-2
  0
DIMSTYLE
105
89
330
4
100
AcDbSymbolTableRecord
100
AcDbDimStyleTableRecord
  2
EZ_CURVED
 70
0
 40
1.0
 41
0.25
 42
0.125
 43
3.75
 44
0.375
 45
0.0
 46
0.0
 47
0.0
 48
0.0
 49
2.5
140
0.25
141
2.5
142
0.0
143
0.03937007874
144
100.0
145
0.0
146
0.5
147
0.1
148
0.0
 69
0
 70
0
 71
0
 72
0
 73
0
 74
0
 75
0
 76
0
 77
1
 78
12
 79
2
 90
2
170
0
171
3
172
1
173
0
174
0
175
0
176
0
177
0
178
0
179
2
271
2
272
2
273
2
274
3
275
0
276
0
277
2
278
46
279
2
280
0
281
0
282
0
283
0
284
8
285
0
286
0
288
1
289
3
290
0
340
4C
371
-2
372
-2
  0
DIMSTYLE
105
91
330
4
100
AcDbSymbolTableRecord
100
AcDbDimStyleTableRecord
  2
COTAS
 70
0
 40
1.0
 41
2.5
 42
0.9
 43
5.0
 44
1.5
 45
0.0
 46
0.0
 47
0.0
 48
0.0
 49
2.5
140
3.5
141
2.5
142
0.0
143
0.03937007874
144
1.0
145
0.0
146
1.0
147
0.9
148
0.0
 69
0
 70
0
 71
0
 72
0
 73
0
 74
0
 75
0
 76
0
 77
1
 78
8
 79
2
170
0
171
3
172
1
173
0
174
0
175
0
176
5
177
5
178
5
179
2
271
2
272
2
273
2
274
3
275
0
276
0
277
2
278
44
279
0
280
0
281
0
282
0
283
0
284
8
285
0
286
0
288
0
289
3
290
0
371
-2
372
-2
  0
ENDTAB
  0
TABLE
  2
BLOCK_RECORD
  5
9
330
0
100
AcDbSymbolTable
 70
13
  0
BLOCK_RECORD
  5
17
330
9
100
AcDbSymbolTableRecord
100
AcDbBlockTableRecord
  2
*Model_Space
340
1A
 70
0
280
1
281
0
  0
BLOCK_RECORD
  5
1B
330
9
100
AcDbSymbolTableRecord
100
AcDbBlockTableRecord
  2
*Paper_Space
340
1E
 70
0
280
1
281
0
  0
BLOCK_RECORD
  5
74
330
9
100
AcDbSymbolTableRecord
100
AcDbBlockTableRecord
  2
_ARCHTICK
340
0
 70
0
280
1
281
0
  0
BLOCK_RECORD
  5
78
330
9
100
AcDbSymbolTableRecord
100
AcDbBlockTableRecord
  2
_CLOSEDFILLED
340
0
 70
0
280
1
281
0
  0
BLOCK_RECORD
  5
84
330
9
100
AcDbSymbolTableRecord
100
AcDbBlockTableRecord
  2
_CLOSEDBLANK
340
0
 70
0
280
1
281
0
  0
BLOCK_RECORD
  5
96
330
9
100
AcDbSymbolTableRecord
100
AcDbBlockTableRecord
  2
*D1
340
0
 70
0
280
1
281
0
  0
BLOCK_RECORD
  5
A5
330
9
100
AcDbSymbolTableRecord
100
AcDbBlockTableRecord
  2
*D2
340
0
 70
0
280
1
281
0
  0
BLOCK_RECORD
  5
B4
330
9
100
AcDbSymbolTableRecord
100
AcDbBlockTableRecord
  2
*D3
340
0
 70
0
280
1
281
0
  0
BLOCK_RECORD
  5
C3
330
9
100
AcDbSymbolTableRecord
100
AcDbBlockTableRecord
  2
*D4
340
0
 70
0
280
1
281
0
  0
BLOCK_RECORD
  5
D2
330
9
100
AcDbSymbolTableRecord
100
AcDbBlockTableRecord
  2
*D5
340
0
 70
0
280
1
281
0
  0
BLOCK_RECORD
  5
E1
330
9
100
AcDbSymbolTableRecord
100
AcDbBlockTableRecord
  2
*D6
340
0
 70
0
280
1
281
0
  0
BLOCK_RECORD
  5
F7
330
9
100
AcDbSymbolTableRecord
100
AcDbBlockTableRecord
  2
*D7
340
0
 70
0
280
1
281
0
  0
BLOCK_RECORD
  5
108
330
9
100
AcDbSymbolTableRecord
100
AcDbBlockTableRecord
  2
*D8
340
0
 70
0
280
1
281
0
  0
ENDTAB
  0
ENDSEC
  0
SECTION
  2
BLOCKS
  0
BLOCK
  5
18
330
17
100
AcDbEntity
  8
0
100
AcDbBlockBegin
  2
*Model_Space
 70
0
 10
0.0
 20
0.0
 30
0.0
  3
*Model_Space
  1

  0
ENDBLK
  5
19
330
17
100
AcDbEntity
  8
0
100
AcDbBlockEnd
  0
BLOCK
  5
1C
330
1B
100
AcDbEntity
  8
0
100
AcDbBlockBegin
  2
*Paper_Space
 70
0
 10
0.0
 20
0.0
 30
0.0
  3
*Paper_Space
  1

  0
ENDBLK
  5
1D
330
1B
100
AcDbEntity
  8
0
100
AcDbBlockEnd
  0
BLOCK
  5
75
330
74
100
AcDbEntity
  8
0
100
AcDbBlockBegin
  2
_ARCHTICK
 70
0
 10
0.0
 20
0.0
 30
0.0
  3
_ARCHTICK
  1

  0
LWPOLYLINE
  5
77
330
74
100
AcDbEntity
  8
0
  6
BYBLOCK
 62
0
100
AcDbPolyline
 90
2
 70
0
 43
0.15
 10
-0.5
 20
-0.5
 10
0.5
 20
0.5
  0
ENDBLK
  5
76
330
74
100
AcDbEntity
  8
0
100
AcDbBlockEnd
  0
BLOCK
  5
79
330
78
100
AcDbEntity
  8
0
100
AcDbBlockBegin
  2
_CLOSEDFILLED
 70
0
 10
0.0
 20
0.0
 30
0.0
  3
_CLOSEDFILLED
  1

  0
SOLID
  5
7B
330
78
100
AcDbEntity
  8
0
  6
BYBLOCK
 62
0
100
AcDbTrace
 10
-1.0
 20
0.16439898372402537
 30
0.0
 11
0.0
 21
0.0
 31
0.0
 12
-1.0
 22
-0.16439898372402537
 32
0.0
 13
-1.0
 23
-0.16439898372402537
 33
0.0
  0
ENDBLK
  5
7A
330
78
100
AcDbEntity
  8
0
100
AcDbBlockEnd
  0
BLOCK
  5
85
330
84
100
AcDbEntity
  8
0
100
AcDbBlockBegin
  2
_CLOSEDBLANK
 70
0
 10
0.0
 20
0.0
 30
0.0
  3
_CLOSEDBLANK
  1

  0
LWPOLYLINE
  5
87
330
84
100
AcDbEntity
  8
0
  6
BYBLOCK
 62
0
100
AcDbPolyline
 90
3
 70
1
 10
-1.0
 20
0.16439898372402537
 10
0.0
 20
0.0
 10
-1.0
 20
-0.16439898372402537
  0
ENDBLK
  5
86
330
84
100
AcDbEntity
  8
0
100
AcDbBlockEnd
  0
BLOCK
  5
97
330
96
100
AcDbEntity
  8
0
100
AcDbBlockBegin
  2
*D1
 70
1
 10
0.0
 20
0.0
 30
0.0
  3
*D1
  1

  0
LINE
  5
99
330
96
100
AcDbEntity
  8
0
 62
5
100
AcDbLine
 10
59.1
 20
121.0
 30
0.0
 11
30.5
 21
121.0
 31
0.0
  0
LINE
  5
9A
330
96
100
AcDbEntity
  8
0
 62
5
100
AcDbLine
 10
59.1
 20
215.0
 30
0.0
 11
30.5
 21
215.0
 31
0.0
  0
INSERT
  5
9B
330
96
100
AcDbEntity
  8
COTAS
 62
5
100
AcDbBlockReference
  2
_CLOSEDFILLED
 10
32.0
 20
121.0
 30
0.0
 41
2.5
 42
2.5
 50
270.0
  0
INSERT
  5
9D
330
96
100
AcDbEntity
  8
COTAS
 62
5
100
AcDbBlockReference
  2
_CLOSEDFILLED
 10
32.0
 20
215.0
 30
0.0
 41
2.5
 42
2.5
 50
90.0
  0
LINE
  5
9F
330
96
100
AcDbEntity
  8
0
 62
5
100
AcDbLine
 10
32.0
 20
123.5
 30
0.0
 11
32.0
 21
212.5
 31
0.0
  0
MTEXT
  5
A0
330
96
100
AcDbEntity
  8
COTAS
 62
5
100
AcDbMText
 10
29.35
 20
168.0
 30
0.0
 40
3.5
 71
5
  1
Ø94,00 ±0,5
  7
OpenSansCondensed-Light
 50
90.0
  0
POINT
  5
A1
330
96
100
AcDbEntity
  8
Defpoints
100
AcDbPoint
 10
32.0
 20
121.0
 30
0.0
  0
POINT
  5
A2
330
96
100
AcDbEntity
  8
Defpoints
100
AcDbPoint
 10
60.0
 20
121.0
 30
0.0
  0
POINT
  5
A3
330
96
100
AcDbEntity
  8
Defpoints
100
AcDbPoint
 10
60.0
 20
215.0
 30
0.0
  0
ENDBLK
  5
98
330
96
100
AcDbEntity
  8
0
100
AcDbBlockEnd
  0
BLOCK
  5
A6
330
A5
100
AcDbEntity
  8
0
100
AcDbBlockBegin
  2
*D2
 70
1
 10
0.0
 20
0.0
 30
0.0
  3
*D2
  1

  0
LINE
  5
A8
330
A5
100
AcDbEntity
  8
0
 62
5
100
AcDbLine
 10
59.1
 20
130.2
 30
0.0
 11
45.5
 21
130.2
 31
0.0
  0
LINE
  5
A9
330
A5
100
AcDbEntity
  8
0
 62
5
100
AcDbLine
 10
59.1
 20
205.8
 30
0.0
 11
45.5
 21
205.8
 31
0.0
  0
INSERT
  5
AA
330
A5
100
AcDbEntity
  8
COTAS
 62
5
100
AcDbBlockReference
  2
_CLOSEDFILLED
 10
47.0
 20
130.2
 30
0.0
 41
2.5
 42
2.5
 50
270.0
  0
INSERT
  5
AC
330
A5
100
AcDbEntity
  8
COTAS
 62
5
100
AcDbBlockReference
  2
_CLOSEDFILLED
 10
47.0
 20
205.8
 30
0.0
 41
2.5
 42
2.5
 50
90.0
  0
LINE
  5
AE
330
A5
100
AcDbEntity
  8
0
 62
5
100
AcDbLine
 10
47.0
 20
132.7
 30
0.0
 11
47.0
 21
203.3
 31
0.0
  0
MTEXT
  5
AF
330
A5
100
AcDbEntity
  8
COTAS
 62
5
100
AcDbMText
 10
44.35
 20
168.0
 30
0.0
 40
3.5
 71
5
  1
Ø75,60 +0,05/-0,00
  7
OpenSansCondensed-Light
 50
90.0
  0
POINT
  5
B0
330
A5
100
AcDbEntity
  8
Defpoints
100
AcDbPoint
 10
47.0
 20
130.2
 30
0.0
  0
POINT
  5
B1
330
A5
100
AcDbEntity
  8
Defpoints
100
AcDbPoint
 10
60.0
 20
130.2
 30
0.0
  0
POINT
  5
B2
330
A5
100
AcDbEntity
  8
Defpoints
100
AcDbPoint
 10
60.0
 20
205.8
 30
0.0
  0
ENDBLK
  5
A7
330
A5
100
AcDbEntity
  8
0
100
AcDbBlockEnd
  0
BLOCK
  5
B5
330
B4
100
AcDbEntity
  8
0
100
AcDbBlockBegin
  2
*D3
 70
1
 10
0.0
 20
0.0
 30
0.0
  3
*D3
  1

  0
LINE
  5
B7
330
B4
100
AcDbEntity
  8
0
 62
5
100
AcDbLine
 10
155.9
 20
128.5
 30
0.0
 11
169.5
 21
128.5
 31
0.0
  0
LINE
  5
B8
330
B4
100
AcDbEntity
  8
0
 62
5
100
AcDbLine
 10
155.9
 20
207.5
 30
0.0
 11
169.5
 21
207.5
 31
0.0
  0
INSERT
  5
B9
330
B4
100
AcDbEntity
  8
COTAS
 62
5
100
AcDbBlockReference
  2
_CLOSEDFILLED
 10
168.0
 20
128.5
 30
0.0
 41
2.5
 42
2.5
 50
270.0
  0
INSERT
  5
BB
330
B4
100
AcDbEntity
  8
COTAS
 62
5
100
AcDbBlockReference
  2
_CLOSEDFILLED
 10
168.0
 20
207.5
 30
0.0
 41
2.5
 42
2.5
 50
90.0
  0
LINE
  5
BD
330
B4
100
AcDbEntity
  8
0
 62
5
100
AcDbLine
 10
168.0
 20
131.0
 30
0.0
 11
168.0
 21
205.0
 31
0.0
  0
MTEXT
  5
BE
330
B4
100
AcDbEntity
  8
COTAS
 62
5
100
AcDbMText
 10
165.35
 20
168.0
 30
0.0
 40
3.5
 71
5
  1
Ø79,00 ±0,5
  7
OpenSansCondensed-Light
 50
90.0
  0
POINT
  5
BF
330
B4
100
AcDbEntity
  8
Defpoints
100
AcDbPoint
 10
168.0
 20
128.5
 30
0.0
  0
POINT
  5
C0
330
B4
100
AcDbEntity
  8
Defpoints
100
AcDbPoint
 10
155.0
 20
128.5
 30
0.0
  0
POINT
  5
C1
330
B4
100
AcDbEntity
  8
Defpoints
100
AcDbPoint
 10
155.0
 20
207.5
 30
0.0
  0
ENDBLK
  5
B6
330
B4
100
AcDbEntity
  8
0
100
AcDbBlockEnd
  0
BLOCK
  5
C4
330
C3
100
AcDbEntity
  8
0
100
AcDbBlockBegin
  2
*D4
 70
1
 10
0.0
 20
0.0
 30
0.0
  3
*D4
  1

  0
LINE
  5
C6
330
C3
100
AcDbEntity
  8
0
 62
5
100
AcDbLine
 10
130.8
 20
123.5
 30
0.0
 11
183.5
 21
123.5
 31
0.0
  0
LINE
  5
C7
330
C3
100
AcDbEntity
  8
0
 62
5
100
AcDbLine
 10
130.8
 20
212.5
 30
0.0
 11
183.5
 21
212.5
 31
0.0
  0
INSERT
  5
C8
330
C3
100
AcDbEntity
  8
COTAS
 62
5
100
AcDbBlockReference
  2
_CLOSEDFILLED
 10
182.0
 20
123.5
 30
0.0
 41
2.5
 42
2.5
 50
270.0
  0
INSERT
  5
CA
330
C3
100
AcDbEntity
  8
COTAS
 62
5
100
AcDbBlockReference
  2
_CLOSEDFILLED
 10
182.0
 20
212.5
 30
0.0
 41
2.5
 42
2.5
 50
90.0
  0
LINE
  5
CC
330
C3
100
AcDbEntity
  8
0
 62
5
100
AcDbLine
 10
182.0
 20
126.0
 30
0.0
 11
182.0
 21
210.0
 31
0.0
  0
MTEXT
  5
CD
330
C3
100
AcDbEntity
  8
COTAS
 62
5
100
AcDbMText
 10
179.35
 20
168.0
 30
0.0
 40
3.5
 71
5
  1
Ø89,00 ±0,5
  7
OpenSansCondensed-Light
 50
90.0
  0
POINT
  5
CE
330
C3
100
AcDbEntity
  8
Defpoints
100
AcDbPoint
 10
182.0
 20
123.5
 30
0.0
  0
POINT
  5
CF
330
C3
100
AcDbEntity
  8
Defpoints
100
AcDbPoint
 10
129.9
 20
123.5
 30
0.0
  0
POINT
  5
D0
330
C3
100
AcDbEntity
  8
Defpoints
100
AcDbPoint
 10
129.9
 20
212.5
 30
0.0
  0
ENDBLK
  5
C5
330
C3
100
AcDbEntity
  8
0
100
AcDbBlockEnd
  0
BLOCK
  5
D3
330
D2
100
AcDbEntity
  8
0
100
AcDbBlockBegin
  2
*D5
 70
1
 10
0.0
 20
0.0
 30
0.0
  3
*D5
  1

  0
LINE
  5
D5
330
D2
100
AcDbEntity
  8
0
 62
5
100
AcDbLine
 10
60.0
 20
120.1
 30
0.0
 11
60.0
 21
107.5
 31
0.0
  0
LINE
  5
D6
330
D2
100
AcDbEntity
  8
0
 62
5
100
AcDbLine
 10
155.0
 20
120.1
 30
0.0
 11
155.0
 21
107.5
 31
0.0
  0
INSERT
  5
D7
330
D2
100
AcDbEntity
  8
COTAS
 62
5
100
AcDbBlockReference
  2
_CLOSEDFILLED
 10
60.0
 20
109.0
 30
0.0
 41
2.5
 42
2.5
 50
180.0
  0
INSERT
  5
D9
330
D2
100
AcDbEntity
  8
COTAS
 62
5
100
AcDbBlockReference
  2
_CLOSEDFILLED
 10
155.0
 20
109.0
 30
0.0
 41
2.5
 42
2.5
  0
LINE
  5
DB
330
D2
100
AcDbEntity
  8
0
 62
5
100
AcDbLine
 10
62.5
 20
109.0
 30
0.0
 11
152.5
 21
109.0
 31
0.0
  0
MTEXT
  5
DC
330
D2
100
AcDbEntity
  8
COTAS
 62
5
100
AcDbMText
 10
107.5
 20
111.65
 30
0.0
 40
3.5
 71
5
  1
comprimento 95,00 ±0,5
  7
OpenSansCondensed-Light
  0
POINT
  5
DD
330
D2
100
AcDbEntity
  8
Defpoints
100
AcDbPoint
 10
60.0
 20
109.0
 30
0.0
  0
POINT
  5
DE
330
D2
100
AcDbEntity
  8
Defpoints
100
AcDbPoint
 10
60.0
 20
121.0
 30
0.0
  0
POINT
  5
DF
330
D2
100
AcDbEntity
  8
Defpoints
100
AcDbPoint
 10
155.0
 20
121.0
 30
0.0
  0
ENDBLK
  5
D4
330
D2
100
AcDbEntity
  8
0
100
AcDbBlockEnd
  0
BLOCK
  5
E2
330
E1
100
AcDbEntity
  8
0
100
AcDbBlockBegin
  2
*D6
 70
1
 10
0.0
 20
0.0
 30
0.0
  3
*D6
  1

  0
LINE
  5
E4
330
E1
100
AcDbEntity
  8
0
 62
5
100
AcDbLine
 10
145.0
 20
213.4
 30
0.0
 11
145.0
 21
220.0
 31
0.0
  0
LINE
  5
E5
330
E1
100
AcDbEntity
  8
0
 62
5
100
AcDbLine
 10
153.5
 20
213.4
 30
0.0
 11
153.5
 21
220.0
 31
0.0
  0
INSERT
  5
E6
330
E1
100
AcDbEntity
  8
COTAS
 62
5
100
AcDbBlockReference
  2
_CLOSEDFILLED
 10
145.0
 20
218.5
 30
0.0
 41
2.5
 42
2.5
 50
180.0
  0
INSERT
  5
E8
330
E1
100
AcDbEntity
  8
COTAS
 62
5
100
AcDbBlockReference
  2
_CLOSEDFILLED
 10
153.5
 20
218.5
 30
0.0
 41
2.5
 42
2.5
  0
LINE
  5
EA
330
E1
100
AcDbEntity
  8
0
 62
5
100
AcDbLine
 10
147.5
 20
218.5
 30
0.0
 11
151.0
 21
218.5
 31
0.0
  0
MTEXT
  5
EB
330
E1
100
AcDbEntity
  8
COTAS
 62
5
100
AcDbMText
 10
149.25
 20
222.65
 30
0.0
 40
3.5
 71
5
  1
land 8,50 ±0,05
  7
OpenSansCondensed-Light
  0
POINT
  5
EC
330
E1
100
AcDbEntity
  8
Defpoints
100
AcDbPoint
 10
145.0
 20
218.5
 30
0.0
  0
POINT
  5
ED
330
E1
100
AcDbEntity
  8
Defpoints
100
AcDbPoint
 10
145.0
 20
212.5
 30
0.0
  0
POINT
  5
EE
330
E1
100
AcDbEntity
  8
Defpoints
100
AcDbPoint
 10
153.5
 20
212.5
 30
0.0
  0
ENDBLK
  5
E3
330
E1
100
AcDbEntity
  8
0
100
AcDbBlockEnd
  0
BLOCK
  5
F8
330
F7
100
AcDbEntity
  8
0
100
AcDbBlockBegin
  2
*D7
 70
1
 10
0.0
 20
0.0
 30
0.0
  3
*D7
  1

  0
LINE
  5
FA
330
F7
100
AcDbEntity
  8
0
 62
1
100
AcDbLine
 10
292.9
 20
167.25
 30
0.0
 11
358.0
 21
167.25
 31
0.0
  0
LINE
  5
FB
330
F7
100
AcDbEntity
  8
0
 62
1
100
AcDbLine
 10
292.9
 20
168.75
 30
0.0
 11
358.0
 21
168.75
 31
0.0
  0
INSERT
  5
FC
330
F7
100
AcDbEntity
  8
COTAS
 62
1
100
AcDbBlockReference
  2
_CLOSEDFILLED
 10
356.5
 20
167.25
 30
0.0
 41
3.0
 42
3.0
 50
90.0
  0
INSERT
  5
FE
330
F7
100
AcDbEntity
  8
COTAS
 62
1
100
AcDbBlockReference
  2
_CLOSEDFILLED
 10
356.5
 20
168.75
 30
0.0
 41
3.0
 42
3.0
 50
270.0
  0
LINE
  5
100
330
F7
100
AcDbEntity
  8
0
 62
1
100
AcDbLine
 10
356.5
 20
164.25
 30
0.0
 11
356.5
 21
161.25
 31
0.0
  0
LINE
  5
101
330
F7
100
AcDbEntity
  8
0
 62
1
100
AcDbLine
 10
356.5
 20
171.75
 30
0.0
 11
356.5
 21
174.75
 31
0.0
  0
LINE
  5
102
330
F7
100
AcDbEntity
  8
0
 62
1
100
AcDbLine
 10
356.5
 20
167.25
 30
0.0
 11
356.5
 21
168.75
 31
0.0
  0
MTEXT
  5
103
330
F7
100
AcDbEntity
  8
COTAS
 62
1
100
AcDbMText
 10
351.35
 20
168.0
 30
0.0
 40
5.5
 71
5
  1
ABERTURA 1,500 +0,010/-0,000
  7
OpenSansCondensed-Light
 50
90.0
  0
POINT
  5
104
330
F7
100
AcDbEntity
  8
Defpoints
100
AcDbPoint
 10
356.5
 20
167.25
 30
0.0
  0
POINT
  5
105
330
F7
100
AcDbEntity
  8
Defpoints
100
AcDbPoint
 10
292.0
 20
167.25
 30
0.0
  0
POINT
  5
106
330
F7
100
AcDbEntity
  8
Defpoints
100
AcDbPoint
 10
292.0
 20
168.75
 30
0.0
  0
ENDBLK
  5
F9
330
F7
100
AcDbEntity
  8
0
100
AcDbBlockEnd
  0
BLOCK
  5
109
330
108
100
AcDbEntity
  8
0
100
AcDbBlockBegin
  2
*D8
 70
1
 10
0.0
 20
0.0
 30
0.0
  3
*D8
  1

  0
LINE
  5
10B
330
108
100
AcDbEntity
  8
0
 62
5
100
AcDbLine
 10
254.5
 20
167.1
 30
0.0
 11
254.5
 21
116.0
 31
0.0
  0
LINE
  5
10C
330
108
100
AcDbEntity
  8
0
 62
5
100
AcDbLine
 10
329.5
 20
167.1
 30
0.0
 11
329.5
 21
116.0
 31
0.0
  0
INSERT
  5
10D
330
108
100
AcDbEntity
  8
COTAS
 62
5
100
AcDbBlockReference
  2
_CLOSEDFILLED
 10
254.5
 20
117.5
 30
0.0
 41
2.5
 42
2.5
 50
180.0
  0
INSERT
  5
10F
330
108
100
AcDbEntity
  8
COTAS
 62
5
100
AcDbBlockReference
  2
_CLOSEDFILLED
 10
329.5
 20
117.5
 30
0.0
 41
2.5
 42
2.5
  0
LINE
  5
111
330
108
100
AcDbEntity
  8
0
 62
5
100
AcDbLine
 10
257.0
 20
117.5
 30
0.0
 11
327.0
 21
117.5
 31
0.0
  0
MTEXT
  5
112
330
108
100
AcDbEntity
  8
COTAS
 62
5
100
AcDbMText
 10
292.0
 20
120.15
 30
0.0
 40
3.5
 71
5
  1
largura 75,00 ±0,05
  7
OpenSansCondensed-Light
  0
POINT
  5
113
330
108
100
AcDbEntity
  8
Defpoints
100
AcDbPoint
 10
254.5
 20
117.5
 30
0.0
  0
POINT
  5
114
330
108
100
AcDbEntity
  8
Defpoints
100
AcDbPoint
 10
254.5
 20
168.0
 30
0.0
  0
POINT
  5
115
330
108
100
AcDbEntity
  8
Defpoints
100
AcDbPoint
 10
329.5
 20
168.0
 30
0.0
  0
ENDBLK
  5
10A
330
108
100
AcDbEntity
  8
0
100
AcDbBlockEnd
  0
ENDSEC
  0
SECTION
  2
ENTITIES
  0
LWPOLYLINE
  5
92
330
17
100
AcDbEntity
  8
PERFIL
100
AcDbPolyline
 90
12
 70
1
 10
60.0
 20
121.0
 10
129.9
 20
121.0
 10
129.9
 20
123.5
 10
140.7
 20
123.5
 10
140.7
 20
128.5
 10
155.0
 20
128.5
 10
155.0
 20
207.5
 10
140.7
 20
207.5
 10
140.7
 20
212.5
 10
129.9
 20
212.5
 10
129.9
 20
215.0
 10
60.0
 20
215.0
  0
LWPOLYLINE
  5
93
330
17
100
AcDbEntity
  8
CANAL
100
AcDbPolyline
 90
8
 70
1
 10
60.0
 20
130.2
 10
145.0
 20
167.25
 10
153.5
 20
167.25
 10
155.0
 20
165.75
 10
155.0
 20
170.25
 10
153.5
 20
168.75
 10
145.0
 20
168.75
 10
60.0
 20
205.8
  0
LINE
  5
94
330
17
100
AcDbEntity
  8
EIXO
100
AcDbLine
 10
46.0
 20
168.0
 30
0.0
 11
169.0
 21
168.0
 31
0.0
  0
DIMENSION
  5
95
330
17
100
AcDbEntity
  8
COTAS
100
AcDbDimension
280
0
  2
*D1
  3
COTAS
 10
32.0
 20
121.0
 30
0.0
 11
29.35
 21
168.0
 31
0.0
 70
32
 71
5
  1
Ø94,00 ±0,5
100
AcDbAlignedDimension
 13
60.0
 23
121.0
 33
0.0
 14
60.0
 24
215.0
 34
0.0
 50
90.0
100
AcDbRotatedDimension
  0
DIMENSION
  5
A4
330
17
100
AcDbEntity
  8
COTAS
100
AcDbDimension
280
0
  2
*D2
  3
COTAS
 10
47.0
 20
130.2
 30
0.0
 11
44.35
 21
168.0
 31
0.0
 70
32
 71
5
  1
Ø75,60 +0,05/-0,00
100
AcDbAlignedDimension
 13
60.0
 23
130.2
 33
0.0
 14
60.0
 24
205.8
 34
0.0
 50
90.0
100
AcDbRotatedDimension
  0
DIMENSION
  5
B3
330
17
100
AcDbEntity
  8
COTAS
100
AcDbDimension
280
0
  2
*D3
  3
COTAS
 10
168.0
 20
128.5
 30
0.0
 11
165.35
 21
168.0
 31
0.0
 70
32
 71
5
  1
Ø79,00 ±0,5
100
AcDbAlignedDimension
 13
155.0
 23
128.5
 33
0.0
 14
155.0
 24
207.5
 34
0.0
 50
90.0
100
AcDbRotatedDimension
  0
DIMENSION
  5
C2
330
17
100
AcDbEntity
  8
COTAS
100
AcDbDimension
280
0
  2
*D4
  3
COTAS
 10
182.0
 20
123.5
 30
0.0
 11
179.35
 21
168.0
 31
0.0
 70
32
 71
5
  1
Ø89,00 ±0,5
100
AcDbAlignedDimension
 13
129.9
 23
123.5
 33
0.0
 14
129.9
 24
212.5
 34
0.0
 50
90.0
100
AcDbRotatedDimension
  0
DIMENSION
  5
D1
330
17
100
AcDbEntity
  8
COTAS
100
AcDbDimension
280
0
  2
*D5
  3
COTAS
 10
60.0
 20
109.0
 30
0.0
 11
107.5
 21
111.65
 31
0.0
 70
32
 71
5
  1
comprimento 95,00 ±0,5
100
AcDbAlignedDimension
 13
60.0
 23
121.0
 33
0.0
 14
155.0
 24
121.0
 34
0.0
 50
0.0
100
AcDbRotatedDimension
  0
DIMENSION
  5
E0
330
17
100
AcDbEntity
  8
COTAS
100
AcDbDimension
280
0
  2
*D6
  3
COTAS
 10
145.0
 20
218.5
 30
0.0
 11
149.25
 21
222.65
 31
0.0
 70
32
 71
5
  1
land 8,50 ±0,05
100
AcDbAlignedDimension
 13
145.0
 23
212.5
 33
0.0
 14
153.5
 24
212.5
 34
0.0
 50
0.0
100
AcDbRotatedDimension
  0
TEXT
  5
EF
330
17
100
AcDbEntity
  8
NOTAS
100
AcDbText
 10
34.0
 20
239.0
 30
0.0
 40
3.2
  1
SEÇÃO SIMÉTRICA NO PLANO DA ABERTURA - só nesta vista o funil aparece
 11
34.0
 21
239.0
 31
0.0
100
AcDbText
 73
1
  0
MTEXT
  5
F0
330
17
100
AcDbEntity
  8
NOTAS
100
AcDbMText
 10
34.0
 20
236.0
 30
0.0
 40
2.8
 41
168.0
 71
1
  1
Ø75,60 na entrada fecha em funil até a fenda 75,00 × 1,500 - perfil BSpline medido no STEP
  0
CIRCLE
  5
F1
330
17
100
AcDbEntity
  8
PERFIL
100
AcDbCircle
 10
292.0
 20
168.0
 30
0.0
 40
39.5
  0
LWPOLYLINE
  5
F2
330
17
100
AcDbEntity
  8
PERFIL
100
AcDbPolyline
 90
4
 70
1
 10
253.0
 20
166.875
 10
331.0
 20
166.875
 10
331.0
 20
169.125
 10
253.0
 20
169.125
  0
LWPOLYLINE
  5
F3
330
17
100
AcDbEntity
  8
CANAL
100
AcDbPolyline
 90
4
 70
1
 10
254.5
 20
167.25
 10
329.5
 20
167.25
 10
329.5
 20
168.75
 10
254.5
 20
168.75
  0
LINE
  5
F4
330
17
100
AcDbEntity
  8
EIXO
100
AcDbLine
 10
245.5
 20
168.0
 30
0.0
 11
338.5
 21
168.0
 31
0.0
  0
LINE
  5
F5
330
17
100
AcDbEntity
  8
EIXO
100
AcDbLine
 10
292.0
 20
121.5
 30
0.0
 11
292.0
 21
214.5
 31
0.0
  0
DIMENSION
  5
F6
330
17
100
AcDbEntity
  8
COTAS
100
AcDbDimension
280
0
  2
*D7
  3
COTAS
 10
356.5
 20
167.25
 30
0.0
 11
351.35
 21
168.0
 31
0.0
 70
32
 71
5
  1
ABERTURA 1,500 +0,010/-0,000
100
AcDbAlignedDimension
 13
292.0
 23
167.25
 33
0.0
 14
292.0
 24
168.75
 34
0.0
 50
90.0
100
AcDbRotatedDimension
1001
ACAD
1000
DSTYLE
1002
{
1070
140
1040
5.5
1070
41
1040
3.0
1070
178
1070
1
1070
176
1070
1
1070
177
1070
1
1070
43
1040
8.0
1002
}
  0
DIMENSION
  5
107
330
17
100
AcDbEntity
  8
COTAS
100
AcDbDimension
280
0
  2
*D8
  3
COTAS
 10
254.5
 20
117.5
 30
0.0
 11
292.0
 21
120.15
 31
0.0
 70
32
 71
5
  1
largura 75,00 ±0,05
100
AcDbAlignedDimension
 13
254.5
 23
168.0
 33
0.0
 14
329.5
 24
168.0
 34
0.0
 50
0.0
100
AcDbRotatedDimension
  0
TEXT
  5
116
330
17
100
AcDbEntity
  8
NOTAS
100
AcDbText
 10
210.5
 20
231.5
 30
0.0
 40
3.2
  1
FACE DE SAÍDA (x = 95,00), olhando ao longo do eixo
 11
210.5
 21
231.5
 31
0.0
100
AcDbText
 73
1
  0
MTEXT
  5
117
330
17
100
AcDbEntity
  8
NOTAS
100
AcDbMText
 10
210.5
 20
228.5
 30
0.0
 40
2.8
 41
132.0
 71
1
  1
boca do chanfro 78,00 × 4,50 (chanfro 1,50 × 45°) · fenda 75,00 × 1,500 com R 0,75 vivo nas duas pontas
  0
TEXT
  5
118
330
17
100
AcDbEntity
  8
MATERIAL
100
AcDbText
 10
14.0
 20
271.0
 30
0.0
 40
8.0
  1
MATERIAL DA PEÇA: AÇO 1045
 11
14.0
 21
271.0
 31
0.0
100
AcDbText
 73
1
  0
LWPOLYLINE
  5
119
330
17
100
AcDbEntity
  8
MATERIAL
 62
1
100
AcDbPolyline
 90
2
 70
0
 43
0.9
 10
12.0
 20
268.0
 10
408.0
 20
268.0
  0
MTEXT
  5
11A
330
17
100
AcDbEntity
  8
MATERIAL
100
AcDbMText
 10
14.0
 20
265.0
 30
0.0
 40
3.0
 41
390.0
 71
1
  3
Norma: SAE J404 / EN 10083-2: aço 1045, barra forjada, fibra no eixo, condição de entrega normalizada (<= 220 HB)\PDureza e tratamento: corpo revenido 30-36 HRC; arestas do land 55-60 HRC em camada de 0,6-1,0 mm por indução (ou nitretação a plasma 52
  3
0 °C, 8-18 µm, se a fábrica preferir tratar a fenda inteira) - escolha da fábrica, declarada no relatório\PNÃO PODE MUDAR: sem PVD, sem DLC - nenhuma outra camada sem ordem assinada; aço trocado só com desenho novo assinado por nós + certificado EN 1
  1
0204 3.1 do lote.
  0
TEXT
  5
11B
330
17
100
AcDbEntity
  8
NOTAS
 62
1
100
AcDbText
 10
22.0
 20
106.0
 30
0.0
 40
3.6
  1
NOTAS
 11
22.0
 21
106.0
 31
0.0
100
AcDbText
 73
1
  0
MTEXT
  5
11C
330
17
100
AcDbEntity
  8
NOTAS
100
AcDbMText
 10
22.0
 20
97.0
 30
0.0
 40
2.8
 41
178.0
 71
1
  1
1  A fenda é aberta a fio EDM pelo Ø75,60, de um lado só, DEPOIS do tratamento térmico do corpo. Não tem linha de partição, flange, furo de fixação, rosca nem pino: a peça é 1 sólido e o aperto é pelo collete EX-031 e pelo degrau do furo do cabeçote.
  0
MTEXT
  5
11D
330
17
100
AcDbEntity
  8
NOTAS
100
AcDbMText
 10
22.0
 20
82.0
 30
0.0
 40
2.8
 41
178.0
 71
1
  3
2  Medir a abertura da fenda ANTES e DEPOIS do tratamento e gravar os dois números: 8 a 18 µm por face comem 0,016 a 0,036 mm da tolerância de 0,010; se fechar abaixo de 1,500 mm, passar o fio de novo. Remover camada REC >= 0,02 mm; canal e land com 
  1
Ra <= 0,4 µm, polido no sentido da extrusão; rebarba <= 0,1 × 45°.
  0
MTEXT
  5
11E
330
17
100
AcDbEntity
  8
NOTAS
100
AcDbMText
 10
22.0
 20
62.800000000000004
 30
0.0
 40
2.8
 41
178.0
 71
1
  3
3  Comprimento com a face de saída ralada no fim, faceada ao nariz do EX-031 (protrusão medida na montagem: 0,00 mm). Coaxialidade dos 3 estágios Ø0,02 em A; face de saída com planeza 0,01 e perpendicularidade 0,01 em A; não alargar a boca de entrada
  1
 Ø75,60.
  0
MTEXT
  5
11F
330
17
100
AcDbEntity
  8
NOTAS
100
AcDbMText
 10
22.0
 20
47.800000000000004
 30
0.0
 40
2.8
 41
178.0
 71
1
  3
4  Entregar 1 peça com certificado EN 10204 3.1 do lote (composição, granulometria, inclusões, ensaio mecânico), relatório de dureza e relatório dimensional de todas as cotas desta folha. Marcação a laser na face traseira: JONATHA v27.0 · EX-031 · 10
  1
45 · rev. 30 · lote · nº série.
  0
LWPOLYLINE
  5
120
330
17
100
AcDbEntity
  8
CARIMBO
100
AcDbPolyline
 90
4
 70
1
 10
204.0
 20
22.0
 10
408.0
 20
22.0
 10
408.0
 20
110.0
 10
204.0
 20
110.0
  0
LINE
  5
121
330
17
100
AcDbEntity
  8
CARIMBO
100
AcDbLine
 10
204.0
 20
30.0
 30
0.0
 11
408.0
 21
30.0
 31
0.0
  0
LINE
  5
122
330
17
100
AcDbEntity
  8
CARIMBO
100
AcDbLine
 10
204.0
 20
42.0
 30
0.0
 11
408.0
 21
42.0
 31
0.0
  0
LINE
  5
123
330
17
100
AcDbEntity
  8
CARIMBO
100
AcDbLine
 10
204.0
 20
63.0
 30
0.0
 11
408.0
 21
63.0
 31
0.0
  0
LINE
  5
124
330
17
100
AcDbEntity
  8
CARIMBO
100
AcDbLine
 10
204.0
 20
78.0
 30
0.0
 11
408.0
 21
78.0
 31
0.0
  0
LINE
  5
125
330
17
100
AcDbEntity
  8
CARIMBO
100
AcDbLine
 10
204.0
 20
96.0
 30
0.0
 11
408.0
 21
96.0
 31
0.0
  0
LINE
  5
126
330
17
100
AcDbEntity
  8
CARIMBO
100
AcDbLine
 10
204.0
 20
96.0
 30
0.0
 11
408.0
 21
96.0
 31
0.0
  0
LINE
  5
127
330
17
100
AcDbEntity
  8
CARIMBO
100
AcDbLine
 10
254.0
 20
96.0
 30
0.0
 11
254.0
 21
22.0
 31
0.0
  0
TEXT
  5
128
330
17
100
AcDbEntity
  8
CARIMBO
100
AcDbText
 10
207.0
 20
105.0
 30
0.0
 40
4.2
  1
MATRIZ DE EXTRUSÃO · JONATHA v27.0
 11
207.0
 21
105.0
 31
0.0
100
AcDbText
 73
1
  0
TEXT
  5
129
330
17
100
AcDbEntity
  8
CARIMBO
100
AcDbText
 10
207.0
 20
99.5
 30
0.0
 40
2.6
  1
peça única · 1 peça · escala 1:1 · mm · A3 · rev. 30 de 2026-09-22
 11
207.0
 21
99.5
 31
0.0
100
AcDbText
 73
1
  0
TEXT
  5
12A
330
17
100
AcDbEntity
  8
CARIMBO
 62
8
100
AcDbText
 10
207.0
 20
91.0
 30
0.0
 40
2.6
  1
MATERIAL
 11
207.0
 21
91.0
 31
0.0
100
AcDbText
 73
1
  0
TEXT
  5
12B
330
17
100
AcDbEntity
  8
CARIMBO
 62
8
100
AcDbText
 10
207.0
 20
73.0
 30
0.0
 40
2.6
  1
COTA CRÍTICA
 11
207.0
 21
73.0
 31
0.0
100
AcDbText
 73
1
  0
TEXT
  5
12C
330
17
100
AcDbEntity
  8
CARIMBO
 62
8
100
AcDbText
 10
207.0
 20
58.0
 30
0.0
 40
2.6
  1
TRATAMENTO
 11
207.0
 21
58.0
 31
0.0
100
AcDbText
 73
1
  0
TEXT
  5
12D
330
17
100
AcDbEntity
  8
CARIMBO
 62
8
100
AcDbText
 10
207.0
 20
37.0
 30
0.0
 40
2.6
  1
COTAS
 11
207.0
 21
37.0
 31
0.0
100
AcDbText
 73
1
  0
TEXT
  5
12E
330
17
100
AcDbEntity
  8
CARIMBO
 62
8
100
AcDbText
 10
207.0
 20
25.0
 30
0.0
 40
2.6
  1
SIGILO
 11
207.0
 21
25.0
 31
0.0
100
AcDbText
 73
1
  0
TEXT
  5
12F
330
17
100
AcDbEntity
  8
CARIMBO
 62
1
100
AcDbText
 10
255.0
 20
86.5
 30
0.0
 40
6.0
  1
AÇO 1045
 11
255.0
 21
86.5
 31
0.0
100
AcDbText
 73
1
  0
MTEXT
  5
130
330
17
100
AcDbEntity
  8
CARIMBO
100
AcDbMText
 10
255.0
 20
84.0
 30
0.0
 40
2.6
 41
150.0
 71
1
  1
SAE J404 / EN 10083-2 · entrega <= 220 HB · corpo revenido 30-36 HRC
  0
MTEXT
  5
131
330
17
100
AcDbEntity
  8
CARIMBO
 62
1
100
AcDbMText
 10
255.0
 20
76.5
 30
0.0
 40
3.0
 41
150.0
 71
1
  1
abertura 1,500 +0,010/-0,000 mm · largura 75,00 ±0,05 mm · chanfro 1,50 × 45°
  0
MTEXT
  5
132
330
17
100
AcDbEntity
  8
CARIMBO
100
AcDbMText
 10
255.0
 20
61.5
 30
0.0
 40
2.6
 41
150.0
 71
1
  1
corpo revenido 30-36 HRC; arestas do land 55-60 HRC em camada de 0,6-1,0 mm por indução (ou nitretação a plasma 520 °C, 8-18 µm, se a fábrica preferir tratar a fenda inteira) - escolha da fábrica, declarada no relatório
  0
MTEXT
  5
133
330
17
100
AcDbEntity
  8
CARIMBO
100
AcDbMText
 10
255.0
 20
40.5
 30
0.0
 40
2.5
 41
150.0
 71
1
  1
as 8 cotas desta folha são medição no STEP\P08_Pacote_Usinagem_v30/3D/MATRIZ_V30_PECA_UNICA.step
  0
MTEXT
  5
134
330
17
100
AcDbEntity
  8
CARIMBO
100
AcDbMText
 10
255.0
 20
29.0
 30
0.0
 40
2.5
 41
150.0
 71
1
  1
NDA antes de circular esta folha fora da fábrica
  0
TEXT
  5
135
330
17
100
AcDbEntity
  8
NOTAS
100
AcDbText
 10
14.0
 20
5.5
 30
0.0
 40
2.5
  1
procedência: aço carbono SAE 1045 (EN C45E) - decisão do dono em 2026-09-22, substitui o 1.2344 da proposta · cotas com vírgula decimal (padrão BR)
 11
14.0
 21
5.5
 31
0.0
100
AcDbText
 73
1
  0
TEXT
  5
136
330
17
100
AcDbEntity
  8
NOTAS
100
AcDbText
 10
14.0
 20
2.0
 30
0.0
 40
2.5
  1
se o desenho e o STEP discordarem, vale o STEP · o símbolo Ø só aparece se a fonte do texto tiver Latin-1 (troque para Arial)
 11
14.0
 21
2.0
 31
0.0
100
AcDbText
 73
1
  0
LWPOLYLINE
  5
137
330
17
100
AcDbEntity
  8
CARIMBO
100
AcDbPolyline
 90
4
 70
1
 10
10.0
 20
10.0
 10
410.0
 20
10.0
 10
410.0
 20
287.0
 10
10.0
 20
287.0
  0
ENDSEC
  0
SECTION
  2
OBJECTS
  0
DICTIONARY
  5
A
330
0
100
AcDbDictionary
281
1
  3
ACAD_COLOR
350
B
  3
ACAD_GROUP
350
C
  3
ACAD_LAYOUT
350
D
  3
ACAD_MATERIAL
350
E
  3
ACAD_MLEADERSTYLE
350
F
  3
ACAD_MLINESTYLE
350
10
  3
ACAD_PLOTSETTINGS
350
11
  3
ACAD_PLOTSTYLENAME
350
12
  3
ACAD_SCALELIST
350
14
  3
ACAD_TABLESTYLE
350
15
  3
ACAD_VISUALSTYLE
350
16
  3
EZDXF_META
350
2D
  0
DICTIONARY
  5
B
330
A
100
AcDbDictionary
281
1
  0
DICTIONARY
  5
C
330
A
100
AcDbDictionary
281
1
  0
DICTIONARY
  5
D
330
A
100
AcDbDictionary
281
1
  3
Model
350
1A
  3
Layout1
350
1E
  0
DICTIONARY
  5
E
330
A
100
AcDbDictionary
281
1
  3
ByBlock
350
1F
  3
ByLayer
350
20
  3
Global
350
21
  0
DICTIONARY
  5
F
330
A
100
AcDbDictionary
281
1
  3
Standard
350
2C
  0
DICTIONARY
  5
10
330
A
100
AcDbDictionary
281
1
  3
Standard
350
22
  0
DICTIONARY
  5
11
330
A
100
AcDbDictionary
281
1
  0
ACDBDICTIONARYWDFLT
  5
12
330
A
100
AcDbDictionary
281
1
  3
Normal
350
13
100
AcDbDictionaryWithDefault
340
13
  0
ACDBPLACEHOLDER
  5
13
330
12
  0
DICTIONARY
  5
14
330
A
100
AcDbDictionary
281
1
  0
DICTIONARY
  5
15
330
A
100
AcDbDictionary
281
1
  0
DICTIONARY
  5
16
330
A
100
AcDbDictionary
281
1
  3
2dWireframe
350
5A
  3
Basic
350
5B
  3
Brighten
350
5C
  3
ColorChange
350
5D
  3
Conceptual
350
5E
  3
Dim
350
5F
  3
EdgeColorOff
350
60
  3
Facepattern
350
61
  3
Flat
350
62
  3
FlatWithEdges
350
63
  3
Gouraud
350
64
  3
GouraudWithEdges
350
65
  3
Hidden
350
66
  3
JitterOff
350
67
  3
Linepattern
350
68
  3
Modeling
350
69
  3
OverhangOff
350
6A
  3
Realistic
350
6B
  3
Shaded
350
6C
  3
Shaded with edges
350
6D
  3
Shades of Gray
350
6E
  3
Sketchy
350
6F
  3
Thicken
350
70
  3
Wireframe
350
71
  3
X-Ray
350
72
  0
LAYOUT
  5
1A
330
D
100
AcDbPlotSettings
  1

  4
A3
  6

 40
7.5
 41
20.0
 42
7.5
 43
20.0
 44
420.0
 45
297.0
 46
0.0
 47
0.0
 48
0.0
 49
0.0
140
0.0
141
0.0
142
1.0
143
1.0
 70
1024
 72
1
 73
0
 74
5
  7

 75
16
 76
0
 77
2
 78
300
147
1.0
148
0.0
149
0.0
100
AcDbLayout
  1
Model
 70
1
 71
0
 10
0.0
 20
0.0
 11
420.0
 21
297.0
 12
0.0
 22
0.0
 32
0.0
 14
1e+20
 24
1e+20
 34
1e+20
 15
-1e+20
 25
-1e+20
 35
-1e+20
146
0.0
 13
0.0
 23
0.0
 33
0.0
 16
1.0
 26
0.0
 36
0.0
 17
0.0
 27
1.0
 37
0.0
 76
1
330
17
  0
LAYOUT
  5
1E
330
D
100
AcDbPlotSettings
  1

  4
A3
  6

 40
7.5
 41
20.0
 42
7.5
 43
20.0
 44
420.0
 45
297.0
 46
0.0
 47
0.0
 48
0.0
 49
0.0
140
0.0
141
0.0
142
1.0
143
1.0
 70
0
 72
1
 73
0
 74
5
  7

 75
16
 76
0
 77
2
 78
300
147
1.0
148
0.0
149
0.0
100
AcDbLayout
  1
Layout1
 70
1
 71
1
 10
0.0
 20
0.0
 11
420.0
 21
297.0
 12
0.0
 22
0.0
 32
0.0
 14
1e+20
 24
1e+20
 34
1e+20
 15
-1e+20
 25
-1e+20
 35
-1e+20
146
0.0
 13
0.0
 23
0.0
 33
0.0
 16
1.0
 26
0.0
 36
0.0
 17
0.0
 27
1.0
 37
0.0
 76
1
330
1B
  0
MATERIAL
  5
1F
102
{ACAD_REACTORS
330
E
102
}
330
E
100
AcDbMaterial
  1
ByBlock
  2

 70
0
 40
1.0
 71
1
 41
1.0
 91
-1023410177
 42
1.0
 72
1
  3

 73
1
 74
1
 75
1
 44
0.5
 73
0
 45
1.0
 46
1.0
 77
1
  4

 78
1
 79
1
170
1
 48
1.0
171
1
  6

172
1
173
1
174
1
140
1.0
141
1.0
175
1
  7

176
1
177
1
178
1
143
1.0
179
1
  8

270
1
271
1
272
1
145
1.0
146
1.0
273
1
  9

274
1
275
1
276
1
 42
1.0
 72
1
  3

 73
1
 74
1
 75
1
 94
63
  0
MATERIAL
  5
20
102
{ACAD_REACTORS
330
E
102
}
330
E
100
AcDbMaterial
  1
ByLayer
  2

 70
0
 40
1.0
 71
1
 41
1.0
 91
-1023410177
 42
1.0
 72
1
  3

 73
1
 74
1
 75
1
 44
0.5
 73
0
 45
1.0
 46
1.0
 77
1
  4

 78
1
 79
1
170
1
 48
1.0
171
1
  6

172
1
173
1
174
1
140
1.0
141
1.0
175
1
  7

176
1
177
1
178
1
143
1.0
179
1
  8

270
1
271
1
272
1
145
1.0
146
1.0
273
1
  9

274
1
275
1
276
1
 42
1.0
 72
1
  3

 73
1
 74
1
 75
1
 94
63
  0
MATERIAL
  5
21
102
{ACAD_REACTORS
330
E
102
}
330
E
100
AcDbMaterial
  1
Global
  2

 70
0
 40
1.0
 71
1
 41
1.0
 91
-1023410177
 42
1.0
 72
1
  3

 73
1
 74
1
 75
1
 44
0.5
 73
0
 45
1.0
 46
1.0
 77
1
  4

 78
1
 79
1
170
1
 48
1.0
171
1
  6

172
1
173
1
174
1
140
1.0
141
1.0
175
1
  7

176
1
177
1
178
1
143
1.0
179
1
  8

270
1
271
1
272
1
145
1.0
146
1.0
273
1
  9

274
1
275
1
276
1
 42
1.0
 72
1
  3

 73
1
 74
1
 75
1
 94
63
  0
MLINESTYLE
  5
22
102
{ACAD_REACTORS
330
10
102
}
330
10
100
AcDbMlineStyle
  2
Standard
 70
0
  3

 62
256
 51
90.0
 52
90.0
 71
2
 49
0.5
 62
256
  6
BYLAYER
 49
-0.5
 62
256
  6
BYLAYER
  0
MLEADERSTYLE
  5
2C
102
{ACAD_REACTORS
330
F
102
}
330
F
100
AcDbMLeaderStyle
179
2
170
2
171
1
172
0
 90
2
 40
0.0
 41
0.0
173
1
 91
-1056964608
 92
-2
290
1
 42
2.0
291
1
 43
8.0
  3
Standard
 44
4.0
300

342
29
174
1
175
1
176
0
178
1
 93
-1056964608
 45
4.0
292
0
297
0
 46
4.0
 94
-1056964608
 47
1.0
 49
1.0
140
1.0
294
1
141
0.0
177
0
142
1.0
295
0
296
0
143
3.75
271
0
272
9
273
9
  0
DICTIONARY
  5
2D
330
A
100
AcDbDictionary
280
1
281
1
  3
CREATED_BY_EZDXF
350
2E
  3
WRITTEN_BY_EZDXF
350
13A
  0
DICTIONARYVAR
  5
2E
330
2D
100
DictionaryVariables
280
0
  1
1.4.4 @ 2026-09-24T17:24:52.363192+00:00
  0
VISUALSTYLE
  5
5A
102
{ACAD_REACTORS
330
16
102
}
330
16
100
AcDbVisualStyle
  2
2dWireframe
 70
4
 90
0
 40
0.6
 62
7
290
0
291
0
  0
VISUALSTYLE
  5
5B
102
{ACAD_REACTORS
330
16
102
}
330
16
100
AcDbVisualStyle
  2
Basic
 70
7
 90
1
 40
0.6
 62
7
290
0
291
1
  0
VISUALSTYLE
  5
5C
102
{ACAD_REACTORS
330
16
102
}
330
16
100
AcDbVisualStyle
  2
Brighten
 70
12
 90
2
 40
0.6
 62
7
290
0
291
1
  0
VISUALSTYLE
  5
5D
102
{ACAD_REACTORS
330
16
102
}
330
16
100
AcDbVisualStyle
  2
ColorChange
 70
16
 90
2
 40
0.6
 62
8
290
0
291
1
  0
VISUALSTYLE
  5
5E
102
{ACAD_REACTORS
330
16
102
}
330
16
100
AcDbVisualStyle
  2
Conceptual
 70
9
 90
3
 40
0.6
 62
7
290
0
291
0
  0
VISUALSTYLE
  5
5F
102
{ACAD_REACTORS
330
16
102
}
330
16
100
AcDbVisualStyle
  2
Dim
 70
11
 90
2
 40
0.6
 62
7
290
0
291
1
  0
VISUALSTYLE
  5
60
102
{ACAD_REACTORS
330
16
102
}
330
16
100
AcDbVisualStyle
  2
EdgeColorOff
 70
22
 90
2
 40
0.6
 62
7
290
0
291
1
  0
VISUALSTYLE
  5
61
102
{ACAD_REACTORS
330
16
102
}
330
16
100
AcDbVisualStyle
  2
Facepattern
 70
15
 90
2
 40
0.6
 62
7
290
0
291
1
  0
VISUALSTYLE
  5
62
102
{ACAD_REACTORS
330
16
102
}
330
16
100
AcDbVisualStyle
  2
Flat
 70
0
 90
2
 40
0.6
 62
7
290
0
291
1
  0
VISUALSTYLE
  5
63
102
{ACAD_REACTORS
330
16
102
}
330
16
100
AcDbVisualStyle
  2
FlatWithEdges
 70
1
 90
2
 40
0.6
 62
7
290
0
291
1
  0
VISUALSTYLE
  5
64
102
{ACAD_REACTORS
330
16
102
}
330
16
100
AcDbVisualStyle
  2
Gouraud
 70
2
 90
2
 40
0.6
 62
7
290
0
291
1
  0
VISUALSTYLE
  5
65
102
{ACAD_REACTORS
330
16
102
}
330
16
100
AcDbVisualStyle
  2
GouraudWithEdges
 70
3
 90
2
 40
0.6
 62
7
290
0
291
1
  0
VISUALSTYLE
  5
66
102
{ACAD_REACTORS
330
16
102
}
330
16
100
AcDbVisualStyle
  2
Hidden
 70
6
 90
1
 40
0.6
 62
7
290
0
291
0
  0
VISUALSTYLE
  5
67
102
{ACAD_REACTORS
330
16
102
}
330
16
100
AcDbVisualStyle
  2
JitterOff
 70
20
 90
2
 40
0.6
 62
7
290
0
291
1
  0
VISUALSTYLE
  5
68
102
{ACAD_REACTORS
330
16
102
}
330
16
100
AcDbVisualStyle
  2
Linepattern
 70
14
 90
2
 40
0.6
 62
7
290
0
291
1
  0
VISUALSTYLE
  5
69
102
{ACAD_REACTORS
330
16
102
}
330
16
100
AcDbVisualStyle
  2
Modeling
 70
10
 90
2
 40
0.6
 62
7
290
0
291
0
  0
VISUALSTYLE
  5
6A
102
{ACAD_REACTORS
330
16
102
}
330
16
100
AcDbVisualStyle
  2
OverhangOff
 70
21
 90
2
 40
0.6
 62
7
290
0
291
1
  0
VISUALSTYLE
  5
6B
102
{ACAD_REACTORS
330
16
102
}
330
16
100
AcDbVisualStyle
  2
Realistic
 70
8
 90
2
 40
0.6
 62
7
290
0
291
0
  0
VISUALSTYLE
  5
6C
102
{ACAD_REACTORS
330
16
102
}
330
16
100
AcDbVisualStyle
  2
Shaded
 70
27
 90
2
 40
0.6
 62
7
290
0
291
0
  0
VISUALSTYLE
  5
6D
102
{ACAD_REACTORS
330
16
102
}
330
16
100
AcDbVisualStyle
  2
Shaded with edges
 70
26
 90
2
 40
0.6
 62
7
290
0
291
0
  0
VISUALSTYLE
  5
6E
102
{ACAD_REACTORS
330
16
102
}
330
16
100
AcDbVisualStyle
  2
Shades of Gray
 70
23
 90
2
 40
0.6
 62
7
290
0
291
0
  0
VISUALSTYLE
  5
6F
102
{ACAD_REACTORS
330
16
102
}
330
16
100
AcDbVisualStyle
  2
Sketchy
 70
24
 90
1
 40
0.6
 62
7
290
0
291
0
  0
VISUALSTYLE
  5
70
102
{ACAD_REACTORS
330
16
102
}
330
16
100
AcDbVisualStyle
  2
Thicken
 70
13
 90
2
 40
0.6
 62
7
290
0
291
1
  0
VISUALSTYLE
  5
71
102
{ACAD_REACTORS
330
16
102
}
330
16
100
AcDbVisualStyle
  2
Wireframe
 70
5
 90
0
 40
0.6
 62
7
290
0
291
0
  0
VISUALSTYLE
  5
72
102
{ACAD_REACTORS
330
16
102
}
330
16
100
AcDbVisualStyle
  2
X-Ray
 70
25
 90
2
 40
0.5
 62
7
290
0
291
0
  0
DICTIONARYVAR
  5
13A
330
2D
100
DictionaryVariables
280
0
  1
1.4.4 @ 2026-09-24T17:24:52.374659+00:00
  0
ENDSEC
  0
EOF
