ISO-10303-21;
HEADER;
FILE_DESCRIPTION(('Open CASCADE Model'),'2;1');
FILE_NAME('Open CASCADE Shape Model','2026-09-11T16:14:23',('Author'),(
    'Open CASCADE'),'Open CASCADE STEP processor 7.9','Open CASCADE 7.9'
  ,'Unknown');
FILE_SCHEMA(('AUTOMOTIVE_DESIGN { 1 0 10303 214 1 1 1 1 }'));
ENDSEC;
DATA;
#1 = APPLICATION_PROTOCOL_DEFINITION('international standard',
  'automotive_design',2000,#2);
#2 = APPLICATION_CONTEXT(
  'core data for automotive mechanical design processes');
#3 = SHAPE_DEFINITION_REPRESENTATION(#4,#10);
#4 = PRODUCT_DEFINITION_SHAPE('','',#5);
#5 = PRODUCT_DEFINITION('design','',#6,#9);
#6 = PRODUCT_DEFINITION_FORMATION('','',#7);
#7 = PRODUCT('Open CASCADE STEP translator 7.9 1',
  'Open CASCADE STEP translator 7.9 1','',(#8));
#8 = PRODUCT_CONTEXT('',#2,'mechanical');
#9 = PRODUCT_DEFINITION_CONTEXT('part definition',#2,'design');
#10 = ADVANCED_BREP_SHAPE_REPRESENTATION('',(#11,#15),#1684);
#11 = AXIS2_PLACEMENT_3D('',#12,#13,#14);
#12 = CARTESIAN_POINT('',(0.,0.,0.));
#13 = DIRECTION('',(0.,0.,1.));
#14 = DIRECTION('',(1.,0.,-0.));
#15 = BREP_WITH_VOIDS('',#16,(#1488,#1586));
#16 = CLOSED_SHELL('',(#17,#141,#373,#614,#668,#980,#1005,#1054,#1107,
    #1134,#1162,#1190,#1218,#1306,#1353,#1380,#1430,#1454,#1481));
#17 = ADVANCED_FACE('',(#18),#32,.T.);
#18 = FACE_BOUND('',#19,.T.);
#19 = EDGE_LOOP('',(#20,#54,#87,#114));
#20 = ORIENTED_EDGE('',*,*,#21,.F.);
#21 = EDGE_CURVE('',#22,#24,#26,.T.);
#22 = VERTEX_POINT('',#23);
#23 = CARTESIAN_POINT('',(46.499999888739,3.216713912751E-03,69.9));
#24 = VERTEX_POINT('',#25);
#25 = CARTESIAN_POINT('',(46.499999888739,3.216713912751E-03,0.));
#26 = SURFACE_CURVE('',#27,(#31,#42),.PCURVE_S1.);
#27 = LINE('',#28,#29);
#28 = CARTESIAN_POINT('',(46.499999888739,3.216713912751E-03,0.));
#29 = VECTOR('',#30,1.);
#30 = DIRECTION('',(-0.,-0.,-1.));
#31 = PCURVE('',#32,#37);
#32 = CYLINDRICAL_SURFACE('',#33,46.5);
#33 = AXIS2_PLACEMENT_3D('',#34,#35,#36);
#34 = CARTESIAN_POINT('',(0.,0.,0.));
#35 = DIRECTION('',(-0.,-0.,-1.));
#36 = DIRECTION('',(1.,0.,0.));
#37 = DEFINITIONAL_REPRESENTATION('',(#38),#41);
#38 = B_SPLINE_CURVE_WITH_KNOTS('',1,(#39,#40),.UNSPECIFIED.,.F.,.F.,(2,
    2),(-69.9,-0.),.PIECEWISE_BEZIER_KNOTS.);
#39 = CARTESIAN_POINT('',(-6.917664341355E-05,-69.9));
#40 = CARTESIAN_POINT('',(-6.917664341355E-05,0.));
#41 = ( GEOMETRIC_REPRESENTATION_CONTEXT(2) 
PARAMETRIC_REPRESENTATION_CONTEXT() REPRESENTATION_CONTEXT('2D SPACE',''
  ) );
#42 = PCURVE('',#43,#48);
#43 = PLANE('',#44);
#44 = AXIS2_PLACEMENT_3D('',#45,#46,#47);
#45 = CARTESIAN_POINT('',(1.724152738263E-02,3.216713912751E-03,
    59.554144798701));
#46 = DIRECTION('',(-0.,-1.,-0.));
#47 = DIRECTION('',(0.,0.,-1.));
#48 = DEFINITIONAL_REPRESENTATION('',(#49),#53);
#49 = LINE('',#50,#51);
#50 = CARTESIAN_POINT('',(59.554144798701,46.482758361356));
#51 = VECTOR('',#52,1.);
#52 = DIRECTION('',(1.,0.));
#53 = ( GEOMETRIC_REPRESENTATION_CONTEXT(2) 
PARAMETRIC_REPRESENTATION_CONTEXT() REPRESENTATION_CONTEXT('2D SPACE',''
  ) );
#54 = ORIENTED_EDGE('',*,*,#55,.T.);
#55 = EDGE_CURVE('',#22,#56,#58,.T.);
#56 = VERTEX_POINT('',#57);
#57 = CARTESIAN_POINT('',(-46.49999988873,3.216713912742E-03,69.9));
#58 = SURFACE_CURVE('',#59,(#64,#71),.PCURVE_S1.);
#59 = CIRCLE('',#60,46.5);
#60 = AXIS2_PLACEMENT_3D('',#61,#62,#63);
#61 = CARTESIAN_POINT('',(0.,0.,69.9));
#62 = DIRECTION('',(0.,0.,-1.));
#63 = DIRECTION('',(0.999999997607,6.917664328498E-05,0.));
#64 = PCURVE('',#32,#65);
#65 = DEFINITIONAL_REPRESENTATION('',(#66),#70);
#66 = LINE('',#67,#68);
#67 = CARTESIAN_POINT('',(-6.917664341355E-05,-69.9));
#68 = VECTOR('',#69,1.);
#69 = DIRECTION('',(1.,-0.));
#70 = ( GEOMETRIC_REPRESENTATION_CONTEXT(2) 
PARAMETRIC_REPRESENTATION_CONTEXT() REPRESENTATION_CONTEXT('2D SPACE',''
  ) );
#71 = PCURVE('',#72,#77);
#72 = PLANE('',#73);
#73 = AXIS2_PLACEMENT_3D('',#74,#75,#76);
#74 = CARTESIAN_POINT('',(-1.882068139409E-15,-1.61343992693E-17,69.9));
#75 = DIRECTION('',(0.,0.,1.));
#76 = DIRECTION('',(1.,0.,0.));
#77 = DEFINITIONAL_REPRESENTATION('',(#78),#86);
#78 = ( BOUNDED_CURVE() B_SPLINE_CURVE(2,(#79,#80,#81,#82,#83,#84,#85),
.UNSPECIFIED.,.T.,.F.) B_SPLINE_CURVE_WITH_KNOTS((1,2,2,2,2,1),(
    -2.094395102393,0.,2.094395102393,4.188790204786,6.28318530718,
8.377580409573),.UNSPECIFIED.) CURVE() GEOMETRIC_REPRESENTATION_ITEM() 
RATIONAL_B_SPLINE_CURVE((1.,0.5,1.,0.5,1.,0.5,1.)) REPRESENTATION_ITEM(
  '') );
#79 = CARTESIAN_POINT('',(46.499999888739,3.216713912752E-03));
#80 = CARTESIAN_POINT('',(46.50557140067,-80.53714564533));
#81 = CARTESIAN_POINT('',(-23.2472141884,-40.27178953657));
#82 = CARTESIAN_POINT('',(-92.99999977747,-6.433427825515E-03));
#83 = CARTESIAN_POINT('',(-23.25278570033,40.268572822665));
#84 = CARTESIAN_POINT('',(46.494428376809,80.543579073156));
#85 = CARTESIAN_POINT('',(46.499999888739,3.216713912752E-03));
#86 = ( GEOMETRIC_REPRESENTATION_CONTEXT(2) 
PARAMETRIC_REPRESENTATION_CONTEXT() REPRESENTATION_CONTEXT('2D SPACE',''
  ) );
#87 = ORIENTED_EDGE('',*,*,#88,.T.);
#88 = EDGE_CURVE('',#56,#89,#91,.T.);
#89 = VERTEX_POINT('',#90);
#90 = CARTESIAN_POINT('',(-46.49999988873,3.216713912742E-03,0.));
#91 = SURFACE_CURVE('',#92,(#96,#102),.PCURVE_S1.);
#92 = LINE('',#93,#94);
#93 = CARTESIAN_POINT('',(-46.49999988873,3.216713912751E-03,0.));
#94 = VECTOR('',#95,1.);
#95 = DIRECTION('',(-0.,-0.,-1.));
#96 = PCURVE('',#32,#97);
#97 = DEFINITIONAL_REPRESENTATION('',(#98),#101);
#98 = B_SPLINE_CURVE_WITH_KNOTS('',1,(#99,#100),.UNSPECIFIED.,.F.,.F.,(2
    ,2),(-69.9,0.),.PIECEWISE_BEZIER_KNOTS.);
#99 = CARTESIAN_POINT('',(3.141661830234,-69.9));
#100 = CARTESIAN_POINT('',(3.141661830234,0.));
#101 = ( GEOMETRIC_REPRESENTATION_CONTEXT(2) 
PARAMETRIC_REPRESENTATION_CONTEXT() REPRESENTATION_CONTEXT('2D SPACE',''
  ) );
#102 = PCURVE('',#103,#108);
#103 = PLANE('',#104);
#104 = AXIS2_PLACEMENT_3D('',#105,#106,#107);
#105 = CARTESIAN_POINT('',(1.724152738263E-02,3.216713912751E-03,
    59.554144798701));
#106 = DIRECTION('',(-0.,-1.,-0.));
#107 = DIRECTION('',(0.,0.,-1.));
#108 = DEFINITIONAL_REPRESENTATION('',(#109),#113);
#109 = LINE('',#110,#111);
#110 = CARTESIAN_POINT('',(59.554144798701,-46.51724141611));
#111 = VECTOR('',#112,1.);
#112 = DIRECTION('',(1.,0.));
#113 = ( GEOMETRIC_REPRESENTATION_CONTEXT(2) 
PARAMETRIC_REPRESENTATION_CONTEXT() REPRESENTATION_CONTEXT('2D SPACE',''
  ) );
#114 = ORIENTED_EDGE('',*,*,#115,.T.);
#115 = EDGE_CURVE('',#89,#24,#116,.T.);
#116 = SURFACE_CURVE('',#117,(#122,#129),.PCURVE_S1.);
#117 = CIRCLE('',#118,46.5);
#118 = AXIS2_PLACEMENT_3D('',#119,#120,#121);
#119 = CARTESIAN_POINT('',(0.,0.,0.));
#120 = DIRECTION('',(0.,0.,1.));
#121 = DIRECTION('',(-0.999999997607,6.91766432848E-05,0.));
#122 = PCURVE('',#32,#123);
#123 = DEFINITIONAL_REPRESENTATION('',(#124),#128);
#124 = LINE('',#125,#126);
#125 = CARTESIAN_POINT('',(3.141661830234,0.));
#126 = VECTOR('',#127,1.);
#127 = DIRECTION('',(-1.,0.));
#128 = ( GEOMETRIC_REPRESENTATION_CONTEXT(2) 
PARAMETRIC_REPRESENTATION_CONTEXT() REPRESENTATION_CONTEXT('2D SPACE',''
  ) );
#129 = PCURVE('',#130,#135);
#130 = PLANE('',#131);
#131 = AXIS2_PLACEMENT_3D('',#132,#133,#134);
#132 = CARTESIAN_POINT('',(-1.882068139409E-15,-1.61343992693E-17,0.));
#133 = DIRECTION('',(0.,0.,1.));
#134 = DIRECTION('',(1.,0.,0.));
#135 = DEFINITIONAL_REPRESENTATION('',(#136),#140);
#136 = CIRCLE('',#137,46.5);
#137 = AXIS2_PLACEMENT_2D('',#138,#139);
#138 = CARTESIAN_POINT('',(1.882068139409E-15,1.61343992693E-17));
#139 = DIRECTION('',(-0.999999997607,6.91766432848E-05));
#140 = ( GEOMETRIC_REPRESENTATION_CONTEXT(2) 
PARAMETRIC_REPRESENTATION_CONTEXT() REPRESENTATION_CONTEXT('2D SPACE',''
  ) );
#141 = ADVANCED_FACE('',(#142),#130,.F.);
#142 = FACE_BOUND('',#143,.F.);
#143 = EDGE_LOOP('',(#144,#145,#168,#216,#260,#308,#352));
#144 = ORIENTED_EDGE('',*,*,#115,.T.);
#145 = ORIENTED_EDGE('',*,*,#146,.F.);
#146 = EDGE_CURVE('',#147,#24,#149,.T.);
#147 = VERTEX_POINT('',#148);
#148 = CARTESIAN_POINT('',(37.799999863132,3.216713912751E-03,0.));
#149 = SURFACE_CURVE('',#150,(#154,#161),.PCURVE_S1.);
#150 = LINE('',#151,#152);
#151 = CARTESIAN_POINT('',(8.620763691316E-03,3.216713912751E-03,0.));
#152 = VECTOR('',#153,1.);
#153 = DIRECTION('',(1.,0.,0.));
#154 = PCURVE('',#130,#155);
#155 = DEFINITIONAL_REPRESENTATION('',(#156),#160);
#156 = LINE('',#157,#158);
#157 = CARTESIAN_POINT('',(8.620763691318E-03,3.216713912751E-03));
#158 = VECTOR('',#159,1.);
#159 = DIRECTION('',(1.,0.));
#160 = ( GEOMETRIC_REPRESENTATION_CONTEXT(2) 
PARAMETRIC_REPRESENTATION_CONTEXT() REPRESENTATION_CONTEXT('2D SPACE',''
  ) );
#161 = PCURVE('',#43,#162);
#162 = DEFINITIONAL_REPRESENTATION('',(#163),#167);
#163 = LINE('',#164,#165);
#164 = CARTESIAN_POINT('',(59.554144798701,-8.620763691314E-03));
#165 = VECTOR('',#166,1.);
#166 = DIRECTION('',(0.,1.));
#167 = ( GEOMETRIC_REPRESENTATION_CONTEXT(2) 
PARAMETRIC_REPRESENTATION_CONTEXT() REPRESENTATION_CONTEXT('2D SPACE',''
  ) );
#168 = ORIENTED_EDGE('',*,*,#169,.F.);
#169 = EDGE_CURVE('',#170,#147,#172,.T.);
#170 = VERTEX_POINT('',#171);
#171 = CARTESIAN_POINT('',(37.8,0.,0.));
#172 = SURFACE_CURVE('',#173,(#178,#185),.PCURVE_S1.);
#173 = CIRCLE('',#174,37.8);
#174 = AXIS2_PLACEMENT_3D('',#175,#176,#177);
#175 = CARTESIAN_POINT('',(0.,0.,0.));
#176 = DIRECTION('',(0.,0.,1.));
#177 = DIRECTION('',(1.,0.,0.));
#178 = PCURVE('',#130,#179);
#179 = DEFINITIONAL_REPRESENTATION('',(#180),#184);
#180 = CIRCLE('',#181,37.8);
#181 = AXIS2_PLACEMENT_2D('',#182,#183);
#182 = CARTESIAN_POINT('',(1.882068139409E-15,1.61343992693E-17));
#183 = DIRECTION('',(1.,0.));
#184 = ( GEOMETRIC_REPRESENTATION_CONTEXT(2) 
PARAMETRIC_REPRESENTATION_CONTEXT() REPRESENTATION_CONTEXT('2D SPACE',''
  ) );
#185 = PCURVE('',#186,#211);
#186 = B_SPLINE_SURFACE_WITH_KNOTS('',11,1,(
    (#187,#188)
    ,(#189,#190)
    ,(#191,#192)
    ,(#193,#194)
    ,(#195,#196)
    ,(#197,#198)
    ,(#199,#200)
    ,(#201,#202)
    ,(#203,#204)
    ,(#205,#206)
    ,(#207,#208)
    ,(#209,#210
    )),.UNSPECIFIED.,.F.,.F.,.F.,(12,12),(2,2),(-73.5,0.),(0.,1.),
  .PIECEWISE_BEZIER_KNOTS.);
#187 = CARTESIAN_POINT('',(37.8,-7.105427357601E-15,0.));
#188 = CARTESIAN_POINT('',(36.75,0.75,99.));
#189 = CARTESIAN_POINT('',(37.8,10.725534618702,0.));
#190 = CARTESIAN_POINT('',(30.068181818182,0.75,99.));
#191 = CARTESIAN_POINT('',(34.452359659639,21.451068457069,0.));
#192 = CARTESIAN_POINT('',(23.386363636364,0.75,99.));
#193 = CARTESIAN_POINT('',(27.757079789678,31.015652162493,0.));
#194 = CARTESIAN_POINT('',(16.704545454545,0.75,99.));
#195 = CARTESIAN_POINT('',(18.167101192845,38.2582922896,0.));
#196 = CARTESIAN_POINT('',(10.022727272727,0.75,99.));
#197 = CARTESIAN_POINT('',(6.588333853533,42.220109895496,0.));
#198 = CARTESIAN_POINT('',(3.340909090909,0.75,99.));
#199 = CARTESIAN_POINT('',(-5.725506764718,42.345748249928,0.));
#200 = CARTESIAN_POINT('',(-3.340909090909,0.75,99.));
#201 = CARTESIAN_POINT('',(-17.38270020679,38.621007601877,0.));
#202 = CARTESIAN_POINT('',(-10.02272727272,0.75,99.));
#203 = CARTESIAN_POINT('',(-27.11846055823,31.575548363709,0.));
#204 = CARTESIAN_POINT('',(-16.70454545454,0.75,99.));
#205 = CARTESIAN_POINT('',(-34.00750154424,22.149565747081,0.));
#206 = CARTESIAN_POINT('',(-23.38636363636,0.75,99.));
#207 = CARTESIAN_POINT('',(-37.57328784484,11.494569734672,0.));
#208 = CARTESIAN_POINT('',(-30.06818181818,0.75,99.));
#209 = CARTESIAN_POINT('',(-37.79213073791,0.771267974243,0.));
#210 = CARTESIAN_POINT('',(-36.75,0.75,99.));
#211 = DEFINITIONAL_REPRESENTATION('',(#212),#215);
#212 = B_SPLINE_CURVE_WITH_KNOTS('',1,(#213,#214),.UNSPECIFIED.,.F.,.F.,
  (2,2),(0.,3.121187322903),.PIECEWISE_BEZIER_KNOTS.);
#213 = CARTESIAN_POINT('',(-73.5,0.));
#214 = CARTESIAN_POINT('',(0.,0.));
#215 = ( GEOMETRIC_REPRESENTATION_CONTEXT(2) 
PARAMETRIC_REPRESENTATION_CONTEXT() REPRESENTATION_CONTEXT('2D SPACE',''
  ) );
#216 = ORIENTED_EDGE('',*,*,#217,.F.);
#217 = EDGE_CURVE('',#218,#170,#220,.T.);
#218 = VERTEX_POINT('',#219);
#219 = CARTESIAN_POINT('',(37.792130737918,-0.771267974243,0.));
#220 = SURFACE_CURVE('',#221,(#226,#233),.PCURVE_S1.);
#221 = CIRCLE('',#222,37.8);
#222 = AXIS2_PLACEMENT_3D('',#223,#224,#225);
#223 = CARTESIAN_POINT('',(0.,0.,0.));
#224 = DIRECTION('',(0.,0.,1.));
#225 = DIRECTION('',(1.,0.,0.));
#226 = PCURVE('',#130,#227);
#227 = DEFINITIONAL_REPRESENTATION('',(#228),#232);
#228 = CIRCLE('',#229,37.8);
#229 = AXIS2_PLACEMENT_2D('',#230,#231);
#230 = CARTESIAN_POINT('',(1.882068139409E-15,1.61343992693E-17));
#231 = DIRECTION('',(1.,0.));
#232 = ( GEOMETRIC_REPRESENTATION_CONTEXT(2) 
PARAMETRIC_REPRESENTATION_CONTEXT() REPRESENTATION_CONTEXT('2D SPACE',''
  ) );
#233 = PCURVE('',#234,#255);
#234 = B_SPLINE_SURFACE_WITH_KNOTS('',9,1,(
    (#235,#236)
    ,(#237,#238)
    ,(#239,#240)
    ,(#241,#242)
    ,(#243,#244)
    ,(#245,#246)
    ,(#247,#248)
    ,(#249,#250)
    ,(#251,#252)
    ,(#253,#254
    )),.UNSPECIFIED.,.F.,.F.,.F.,(10,10),(2,2),(3.14159265359,
    6.28318530718),(0.,1.),.PIECEWISE_BEZIER_KNOTS.);
#235 = CARTESIAN_POINT('',(37.792130737918,-0.771267974243,0.));
#236 = CARTESIAN_POINT('',(36.75,-0.75,99.));
#237 = CARTESIAN_POINT('',(37.793879402147,-0.685583427015,0.));
#238 = CARTESIAN_POINT('',(37.011799387799,-0.75,99.));
#239 = CARTESIAN_POINT('',(37.795409506102,-0.599894419434,0.));
#240 = CARTESIAN_POINT('',(37.273601492499,-0.647191900061,
    98.999999999999));
#241 = CARTESIAN_POINT('',(37.796721043281,-0.514201588687,0.));
#242 = CARTESIAN_POINT('',(37.48924283384,-0.44157278914,99.000000000004
    ));
#243 = CARTESIAN_POINT('',(37.797814007183,-0.428505571955,0.));
#244 = CARTESIAN_POINT('',(37.612680472816,-0.157317457926,
    98.999999999993));
#245 = CARTESIAN_POINT('',(37.798688391308,-0.342807006425,0.));
#246 = CARTESIAN_POINT('',(37.612680472822,0.157317457926,
    99.000000000007));
#247 = CARTESIAN_POINT('',(37.799344189153,-0.25710652928,0.));
#248 = CARTESIAN_POINT('',(37.489242833835,0.44157278914,98.999999999994
    ));
#249 = CARTESIAN_POINT('',(37.799781394217,-0.171404777705,0.));
#250 = CARTESIAN_POINT('',(37.2736014925,0.647191900061,99.000000000003)
  );
#251 = CARTESIAN_POINT('',(37.8,-8.570238888347E-02,0.));
#252 = CARTESIAN_POINT('',(37.011799387799,0.75,98.999999999999));
#253 = CARTESIAN_POINT('',(37.8,-9.27036225562E-15,0.));
#254 = CARTESIAN_POINT('',(36.75,0.75,99.));
#255 = DEFINITIONAL_REPRESENTATION('',(#256),#259);
#256 = B_SPLINE_CURVE_WITH_KNOTS('',1,(#257,#258),.UNSPECIFIED.,.F.,.F.,
  (2,2),(6.262779976493,6.28318530718),.PIECEWISE_BEZIER_KNOTS.);
#257 = CARTESIAN_POINT('',(3.14159265359,0.));
#258 = CARTESIAN_POINT('',(6.28318530718,0.));
#259 = ( GEOMETRIC_REPRESENTATION_CONTEXT(2) 
PARAMETRIC_REPRESENTATION_CONTEXT() REPRESENTATION_CONTEXT('2D SPACE',''
  ) );
#260 = ORIENTED_EDGE('',*,*,#261,.F.);
#261 = EDGE_CURVE('',#262,#218,#264,.T.);
#262 = VERTEX_POINT('',#263);
#263 = CARTESIAN_POINT('',(-37.79213073791,-0.771267974243,0.));
#264 = SURFACE_CURVE('',#265,(#270,#277),.PCURVE_S1.);
#265 = CIRCLE('',#266,37.8);
#266 = AXIS2_PLACEMENT_3D('',#267,#268,#269);
#267 = CARTESIAN_POINT('',(0.,0.,0.));
#268 = DIRECTION('',(0.,0.,1.));
#269 = DIRECTION('',(1.,0.,0.));
#270 = PCURVE('',#130,#271);
#271 = DEFINITIONAL_REPRESENTATION('',(#272),#276);
#272 = CIRCLE('',#273,37.8);
#273 = AXIS2_PLACEMENT_2D('',#274,#275);
#274 = CARTESIAN_POINT('',(1.882068139409E-15,1.61343992693E-17));
#275 = DIRECTION('',(1.,0.));
#276 = ( GEOMETRIC_REPRESENTATION_CONTEXT(2) 
PARAMETRIC_REPRESENTATION_CONTEXT() REPRESENTATION_CONTEXT('2D SPACE',''
  ) );
#277 = PCURVE('',#278,#303);
#278 = B_SPLINE_SURFACE_WITH_KNOTS('',11,1,(
    (#279,#280)
    ,(#281,#282)
    ,(#283,#284)
    ,(#285,#286)
    ,(#287,#288)
    ,(#289,#290)
    ,(#291,#292)
    ,(#293,#294)
    ,(#295,#296)
    ,(#297,#298)
    ,(#299,#300)
    ,(#301,#302
    )),.UNSPECIFIED.,.F.,.F.,.F.,(12,12),(2,2),(-73.5,0.),(0.,1.),
  .PIECEWISE_BEZIER_KNOTS.);
#279 = CARTESIAN_POINT('',(-37.79213073791,-0.771267974243,0.));
#280 = CARTESIAN_POINT('',(-36.75,-0.75,99.));
#281 = CARTESIAN_POINT('',(-37.57471857012,-11.42446419602,0.));
#282 = CARTESIAN_POINT('',(-30.06818181818,-0.75,99.));
#283 = CARTESIAN_POINT('',(-34.05398244305,-22.01024492189,0.));
#284 = CARTESIAN_POINT('',(-23.38636363636,-0.75,99.));
#285 = CARTESIAN_POINT('',(-27.25314953237,-31.390518583,0.));
#286 = CARTESIAN_POINT('',(-16.70454545454,-0.75,99.));
#287 = CARTESIAN_POINT('',(-17.63656680973,-38.43615531257,0.));
#288 = CARTESIAN_POINT('',(-10.02272727272,-0.75,99.));
#289 = CARTESIAN_POINT('',(-6.105738169345,-42.22257429826,0.));
#290 = CARTESIAN_POINT('',(-3.340909090909,-0.75,99.));
#291 = CARTESIAN_POINT('',(6.105738169345,-42.22257429824,0.));
#292 = CARTESIAN_POINT('',(3.340909090909,-0.75,99.));
#293 = CARTESIAN_POINT('',(17.636566809734,-38.43615531259,0.));
#294 = CARTESIAN_POINT('',(10.022727272727,-0.75,99.));
#295 = CARTESIAN_POINT('',(27.253149532378,-31.39051858299,0.));
#296 = CARTESIAN_POINT('',(16.704545454545,-0.75,99.));
#297 = CARTESIAN_POINT('',(34.053982443054,-22.01024492189,0.));
#298 = CARTESIAN_POINT('',(23.386363636364,-0.75,99.));
#299 = CARTESIAN_POINT('',(37.574718570127,-11.42446419602,0.));
#300 = CARTESIAN_POINT('',(30.068181818182,-0.75,99.));
#301 = CARTESIAN_POINT('',(37.792130737918,-0.771267974243,0.));
#302 = CARTESIAN_POINT('',(36.75,-0.75,99.));
#303 = DEFINITIONAL_REPRESENTATION('',(#304),#307);
#304 = B_SPLINE_CURVE_WITH_KNOTS('',1,(#305,#306),.UNSPECIFIED.,.F.,.F.,
  (2,2),(3.161997984276,6.262779976493),.PIECEWISE_BEZIER_KNOTS.);
#305 = CARTESIAN_POINT('',(-73.5,0.));
#306 = CARTESIAN_POINT('',(0.,0.));
#307 = ( GEOMETRIC_REPRESENTATION_CONTEXT(2) 
PARAMETRIC_REPRESENTATION_CONTEXT() REPRESENTATION_CONTEXT('2D SPACE',''
  ) );
#308 = ORIENTED_EDGE('',*,*,#309,.F.);
#309 = EDGE_CURVE('',#310,#262,#312,.T.);
#310 = VERTEX_POINT('',#311);
#311 = CARTESIAN_POINT('',(-37.79999986313,3.216713912749E-03,0.));
#312 = SURFACE_CURVE('',#313,(#318,#325),.PCURVE_S1.);
#313 = CIRCLE('',#314,37.8);
#314 = AXIS2_PLACEMENT_3D('',#315,#316,#317);
#315 = CARTESIAN_POINT('',(0.,0.,0.));
#316 = DIRECTION('',(0.,0.,1.));
#317 = DIRECTION('',(1.,0.,0.));
#318 = PCURVE('',#130,#319);
#319 = DEFINITIONAL_REPRESENTATION('',(#320),#324);
#320 = CIRCLE('',#321,37.8);
#321 = AXIS2_PLACEMENT_2D('',#322,#323);
#322 = CARTESIAN_POINT('',(1.882068139409E-15,1.61343992693E-17));
#323 = DIRECTION('',(1.,0.));
#324 = ( GEOMETRIC_REPRESENTATION_CONTEXT(2) 
PARAMETRIC_REPRESENTATION_CONTEXT() REPRESENTATION_CONTEXT('2D SPACE',''
  ) );
#325 = PCURVE('',#326,#347);
#326 = B_SPLINE_SURFACE_WITH_KNOTS('',9,1,(
    (#327,#328)
    ,(#329,#330)
    ,(#331,#332)
    ,(#333,#334)
    ,(#335,#336)
    ,(#337,#338)
    ,(#339,#340)
    ,(#341,#342)
    ,(#343,#344)
    ,(#345,#346
    )),.UNSPECIFIED.,.F.,.F.,.F.,(10,10),(2,2),(3.14159265359,
    6.28318530718),(0.,1.),.PIECEWISE_BEZIER_KNOTS.);
#327 = CARTESIAN_POINT('',(-37.79213073791,0.771267974243,0.));
#328 = CARTESIAN_POINT('',(-36.75,0.75,99.));
#329 = CARTESIAN_POINT('',(-37.79562806637,0.599898879786,0.));
#330 = CARTESIAN_POINT('',(-37.01179938779,0.75,99.));
#331 = CARTESIAN_POINT('',(-37.79825118407,0.428511943798,0.));
#332 = CARTESIAN_POINT('',(-37.27360149249,0.647191900061,
    98.999999999999));
#333 = CARTESIAN_POINT('',(-37.79999998699,0.257112263859,0.));
#334 = CARTESIAN_POINT('',(-37.48924283384,0.44157278914,99.000000000004
    ));
#335 = CARTESIAN_POINT('',(-37.80087440579,8.570493754982E-02,0.));
#336 = CARTESIAN_POINT('',(-37.61268047281,0.157317457926,
    98.999999999993));
#337 = CARTESIAN_POINT('',(-37.80087440579,-8.570493754981E-02,0.));
#338 = CARTESIAN_POINT('',(-37.61268047282,-0.157317457926,
    99.000000000007));
#339 = CARTESIAN_POINT('',(-37.79999998699,-0.257112263859,0.));
#340 = CARTESIAN_POINT('',(-37.48924283383,-0.44157278914,
    98.999999999994));
#341 = CARTESIAN_POINT('',(-37.79825118407,-0.428511943798,0.));
#342 = CARTESIAN_POINT('',(-37.2736014925,-0.647191900061,
    99.000000000003));
#343 = CARTESIAN_POINT('',(-37.79562806637,-0.599898879786,0.));
#344 = CARTESIAN_POINT('',(-37.01179938779,-0.75,98.999999999999));
#345 = CARTESIAN_POINT('',(-37.79213073791,-0.771267974243,0.));
#346 = CARTESIAN_POINT('',(-36.75,-0.75,99.));
#347 = DEFINITIONAL_REPRESENTATION('',(#348),#351);
#348 = B_SPLINE_CURVE_WITH_KNOTS('',1,(#349,#350),.UNSPECIFIED.,.F.,.F.,
  (2,2),(3.121187322903,3.161997984276),.PIECEWISE_BEZIER_KNOTS.);
#349 = CARTESIAN_POINT('',(3.14159265359,0.));
#350 = CARTESIAN_POINT('',(6.28318530718,0.));
#351 = ( GEOMETRIC_REPRESENTATION_CONTEXT(2) 
PARAMETRIC_REPRESENTATION_CONTEXT() REPRESENTATION_CONTEXT('2D SPACE',''
  ) );
#352 = ORIENTED_EDGE('',*,*,#353,.F.);
#353 = EDGE_CURVE('',#89,#310,#354,.T.);
#354 = SURFACE_CURVE('',#355,(#359,#366),.PCURVE_S1.);
#355 = LINE('',#356,#357);
#356 = CARTESIAN_POINT('',(8.620763691316E-03,3.216713912751E-03,0.));
#357 = VECTOR('',#358,1.);
#358 = DIRECTION('',(1.,0.,0.));
#359 = PCURVE('',#130,#360);
#360 = DEFINITIONAL_REPRESENTATION('',(#361),#365);
#361 = LINE('',#362,#363);
#362 = CARTESIAN_POINT('',(8.620763691318E-03,3.216713912751E-03));
#363 = VECTOR('',#364,1.);
#364 = DIRECTION('',(1.,0.));
#365 = ( GEOMETRIC_REPRESENTATION_CONTEXT(2) 
PARAMETRIC_REPRESENTATION_CONTEXT() REPRESENTATION_CONTEXT('2D SPACE',''
  ) );
#366 = PCURVE('',#103,#367);
#367 = DEFINITIONAL_REPRESENTATION('',(#368),#372);
#368 = LINE('',#369,#370);
#369 = CARTESIAN_POINT('',(59.554144798701,-8.620763691314E-03));
#370 = VECTOR('',#371,1.);
#371 = DIRECTION('',(0.,1.));
#372 = ( GEOMETRIC_REPRESENTATION_CONTEXT(2) 
PARAMETRIC_REPRESENTATION_CONTEXT() REPRESENTATION_CONTEXT('2D SPACE',''
  ) );
#373 = ADVANCED_FACE('',(#374),#103,.F.);
#374 = FACE_BOUND('',#375,.F.);
#375 = EDGE_LOOP('',(#376,#399,#400,#401,#445,#472,#506,#534,#561,#589)
  );
#376 = ORIENTED_EDGE('',*,*,#377,.F.);
#377 = EDGE_CURVE('',#56,#378,#380,.T.);
#378 = VERTEX_POINT('',#379);
#379 = CARTESIAN_POINT('',(-44.74999988438,3.216713912759E-03,69.9));
#380 = SURFACE_CURVE('',#381,(#385,#392),.PCURVE_S1.);
#381 = LINE('',#382,#383);
#382 = CARTESIAN_POINT('',(8.620763691316E-03,3.216713912751E-03,69.9));
#383 = VECTOR('',#384,1.);
#384 = DIRECTION('',(1.,0.,0.));
#385 = PCURVE('',#103,#386);
#386 = DEFINITIONAL_REPRESENTATION('',(#387),#391);
#387 = LINE('',#388,#389);
#388 = CARTESIAN_POINT('',(-10.34585520129,-8.620763691314E-03));
#389 = VECTOR('',#390,1.);
#390 = DIRECTION('',(0.,1.));
#391 = ( GEOMETRIC_REPRESENTATION_CONTEXT(2) 
PARAMETRIC_REPRESENTATION_CONTEXT() REPRESENTATION_CONTEXT('2D SPACE',''
  ) );
#392 = PCURVE('',#72,#393);
#393 = DEFINITIONAL_REPRESENTATION('',(#394),#398);
#394 = LINE('',#395,#396);
#395 = CARTESIAN_POINT('',(8.620763691318E-03,3.216713912751E-03));
#396 = VECTOR('',#397,1.);
#397 = DIRECTION('',(1.,0.));
#398 = ( GEOMETRIC_REPRESENTATION_CONTEXT(2) 
PARAMETRIC_REPRESENTATION_CONTEXT() REPRESENTATION_CONTEXT('2D SPACE',''
  ) );
#399 = ORIENTED_EDGE('',*,*,#88,.T.);
#400 = ORIENTED_EDGE('',*,*,#353,.T.);
#401 = ORIENTED_EDGE('',*,*,#402,.T.);
#402 = EDGE_CURVE('',#310,#403,#405,.T.);
#403 = VERTEX_POINT('',#404);
#404 = CARTESIAN_POINT('',(-37.4999931018,3.216713912751E-03,99.));
#405 = SURFACE_CURVE('',#406,(#417,#431),.PCURVE_S1.);
#406 = B_SPLINE_CURVE_WITH_KNOTS('',5,(#407,#408,#409,#410,#411,#412,
    #413,#414,#415,#416),.UNSPECIFIED.,.F.,.F.,(6,4,6),(0.,
    0.842000002342,1.),.UNSPECIFIED.);
#407 = CARTESIAN_POINT('',(-37.79999986313,3.216713912751E-03,0.));
#408 = CARTESIAN_POINT('',(-37.74947719109,3.216713912751E-03,
    16.671600036235));
#409 = CARTESIAN_POINT('',(-37.69895569622,3.216713912751E-03,
    33.343200080379));
#410 = CARTESIAN_POINT('',(-37.64843464493,3.216713912751E-03,
    50.014800127579));
#411 = CARTESIAN_POINT('',(-37.59791394192,3.216713912751E-03,
    66.686400176733));
#412 = CARTESIAN_POINT('',(-37.53791335127,3.216713912751E-03,
    86.486400181832));
#413 = CARTESIAN_POINT('',(-37.52843326553,3.216713912751E-03,
    89.614800136313));
#414 = CARTESIAN_POINT('',(-37.51895318655,3.216713912751E-03,
    92.743200090837));
#415 = CARTESIAN_POINT('',(-37.5094731137,3.216713912751E-03,
    95.8716000454));
#416 = CARTESIAN_POINT('',(-37.4999930465,3.216713912751E-03,99.));
#417 = PCURVE('',#103,#418);
#418 = DEFINITIONAL_REPRESENTATION('',(#419),#430);
#419 = B_SPLINE_CURVE_WITH_KNOTS('',5,(#420,#421,#422,#423,#424,#425,
    #426,#427,#428,#429),.UNSPECIFIED.,.F.,.F.,(6,4,6),(0.,
    0.842000002342,1.),.UNSPECIFIED.);
#420 = CARTESIAN_POINT('',(59.554144798701,-37.81724139051));
#421 = CARTESIAN_POINT('',(42.882544762466,-37.76671871847));
#422 = CARTESIAN_POINT('',(26.210944718322,-37.7161972236));
#423 = CARTESIAN_POINT('',(9.539344671122,-37.66567617231));
#424 = CARTESIAN_POINT('',(-7.132255378032,-37.6151554693));
#425 = CARTESIAN_POINT('',(-26.93225538313,-37.55515487865));
#426 = CARTESIAN_POINT('',(-30.06065533761,-37.54567479291));
#427 = CARTESIAN_POINT('',(-33.18905529213,-37.53619471393));
#428 = CARTESIAN_POINT('',(-36.31745524669,-37.52671464108));
#429 = CARTESIAN_POINT('',(-39.44585520129,-37.51723457388));
#430 = ( GEOMETRIC_REPRESENTATION_CONTEXT(2) 
PARAMETRIC_REPRESENTATION_CONTEXT() REPRESENTATION_CONTEXT('2D SPACE',''
  ) );
#431 = PCURVE('',#326,#432);
#432 = DEFINITIONAL_REPRESENTATION('',(#433),#444);
#433 = B_SPLINE_CURVE_WITH_KNOTS('',5,(#434,#435,#436,#437,#438,#439,
    #440,#441,#442,#443),.UNSPECIFIED.,.F.,.F.,(6,4,6),(0.,
    0.842000002342,1.),.UNSPECIFIED.);
#434 = CARTESIAN_POINT('',(4.7058381421,0.));
#435 = CARTESIAN_POINT('',(4.706419909718,0.168400000366));
#436 = CARTESIAN_POINT('',(4.706872857408,0.336800000812));
#437 = CARTESIAN_POINT('',(4.707251924966,0.505200001289));
#438 = CARTESIAN_POINT('',(4.707573537111,0.673600001785));
#439 = CARTESIAN_POINT('',(4.707904884159,0.873600001837));
#440 = CARTESIAN_POINT('',(4.707955726691,0.905200001377));
#441 = CARTESIAN_POINT('',(4.708005145563,0.936800000918));
#442 = CARTESIAN_POINT('',(4.708053218681,0.968400000459));
#443 = CARTESIAN_POINT('',(4.708100015207,1.));
#444 = ( GEOMETRIC_REPRESENTATION_CONTEXT(2) 
PARAMETRIC_REPRESENTATION_CONTEXT() REPRESENTATION_CONTEXT('2D SPACE',''
  ) );
#445 = ORIENTED_EDGE('',*,*,#446,.F.);
#446 = EDGE_CURVE('',#447,#403,#449,.T.);
#447 = VERTEX_POINT('',#448);
#448 = CARTESIAN_POINT('',(-37.4999931018,3.216713912751E-03,107.5));
#449 = SURFACE_CURVE('',#450,(#454,#461),.PCURVE_S1.);
#450 = LINE('',#451,#452);
#451 = CARTESIAN_POINT('',(-37.4999931018,3.216713912751E-03,99.));
#452 = VECTOR('',#453,1.);
#453 = DIRECTION('',(0.,0.,-1.));
#454 = PCURVE('',#103,#455);
#455 = DEFINITIONAL_REPRESENTATION('',(#456),#460);
#456 = LINE('',#457,#458);
#457 = CARTESIAN_POINT('',(-39.44585520129,-37.51723462918));
#458 = VECTOR('',#459,1.);
#459 = DIRECTION('',(1.,0.));
#460 = ( GEOMETRIC_REPRESENTATION_CONTEXT(2) 
PARAMETRIC_REPRESENTATION_CONTEXT() REPRESENTATION_CONTEXT('2D SPACE',''
  ) );
#461 = PCURVE('',#462,#467);
#462 = CYLINDRICAL_SURFACE('',#463,0.75);
#463 = AXIS2_PLACEMENT_3D('',#464,#465,#466);
#464 = CARTESIAN_POINT('',(-36.75,0.,99.));
#465 = DIRECTION('',(0.,0.,-1.));
#466 = DIRECTION('',(0.,-1.,0.));
#467 = DEFINITIONAL_REPRESENTATION('',(#468),#471);
#468 = B_SPLINE_CURVE_WITH_KNOTS('',1,(#469,#470),.UNSPECIFIED.,.F.,.F.,
  (2,2),(-8.5000006,6.000000070117E-07),.PIECEWISE_BEZIER_KNOTS.);
#469 = CARTESIAN_POINT('',(1.575085291828,-8.5000006));
#470 = CARTESIAN_POINT('',(1.575085291828,6.000000070117E-07));
#471 = ( GEOMETRIC_REPRESENTATION_CONTEXT(2) 
PARAMETRIC_REPRESENTATION_CONTEXT() REPRESENTATION_CONTEXT('2D SPACE',''
  ) );
#472 = ORIENTED_EDGE('',*,*,#473,.T.);
#473 = EDGE_CURVE('',#447,#474,#476,.T.);
#474 = VERTEX_POINT('',#475);
#475 = CARTESIAN_POINT('',(-38.99999770061,3.216713912751E-03,109.));
#476 = SURFACE_CURVE('',#477,(#482,#489),.PCURVE_S1.);
#477 = HYPERBOLA('',#478,3.216713912751E-03,3.216713912751E-03);
#478 = AXIS2_PLACEMENT_3D('',#479,#480,#481);
#479 = CARTESIAN_POINT('',(-36.75,3.216713912751E-03,106.75));
#480 = DIRECTION('',(0.,-1.,0.));
#481 = DIRECTION('',(0.,0.,1.));
#482 = PCURVE('',#103,#483);
#483 = DEFINITIONAL_REPRESENTATION('',(#484),#488);
#484 = HYPERBOLA('',#485,3.216713912751E-03,3.216713912751E-03);
#485 = AXIS2_PLACEMENT_2D('',#486,#487);
#486 = CARTESIAN_POINT('',(-47.19585520129,-36.76724152738));
#487 = DIRECTION('',(-1.,0.));
#488 = ( GEOMETRIC_REPRESENTATION_CONTEXT(2) 
PARAMETRIC_REPRESENTATION_CONTEXT() REPRESENTATION_CONTEXT('2D SPACE',''
  ) );
#489 = PCURVE('',#490,#495);
#490 = CONICAL_SURFACE('',#491,0.75,0.785398163397);
#491 = AXIS2_PLACEMENT_3D('',#492,#493,#494);
#492 = CARTESIAN_POINT('',(-36.75,0.,107.5));
#493 = DIRECTION('',(0.,0.,1.));
#494 = DIRECTION('',(0.,-1.,0.));
#495 = DEFINITIONAL_REPRESENTATION('',(#496),#505);
#496 = B_SPLINE_CURVE_WITH_KNOTS('',7,(#497,#498,#499,#500,#501,#502,
    #503,#504),.UNSPECIFIED.,.F.,.F.,(8,8),(6.144855473805,
    7.243471850306),.PIECEWISE_BEZIER_KNOTS.);
#497 = CARTESIAN_POINT('',(4.708100015352,5.551115123126E-16));
#498 = CARTESIAN_POINT('',(4.708773145749,0.117707814843));
#499 = CARTESIAN_POINT('',(4.709323025475,0.256968348904));
#500 = CARTESIAN_POINT('',(4.709776733143,0.422518028688));
#501 = CARTESIAN_POINT('',(4.710153918941,0.620390015033));
#502 = CARTESIAN_POINT('',(4.710469491903,0.858405688081));
#503 = CARTESIAN_POINT('',(4.710734952471,1.146873668431));
#504 = CARTESIAN_POINT('',(4.71095932927,1.5));
#505 = ( GEOMETRIC_REPRESENTATION_CONTEXT(2) 
PARAMETRIC_REPRESENTATION_CONTEXT() REPRESENTATION_CONTEXT('2D SPACE',''
  ) );
#506 = ORIENTED_EDGE('',*,*,#507,.F.);
#507 = EDGE_CURVE('',#508,#474,#510,.T.);
#508 = VERTEX_POINT('',#509);
#509 = CARTESIAN_POINT('',(-39.74999986984,3.216713912752E-03,109.));
#510 = SURFACE_CURVE('',#511,(#515,#522),.PCURVE_S1.);
#511 = LINE('',#512,#513);
#512 = CARTESIAN_POINT('',(8.620763691314E-03,3.216713912751E-03,109.));
#513 = VECTOR('',#514,1.);
#514 = DIRECTION('',(1.,0.,0.));
#515 = PCURVE('',#103,#516);
#516 = DEFINITIONAL_REPRESENTATION('',(#517),#521);
#517 = LINE('',#518,#519);
#518 = CARTESIAN_POINT('',(-49.44585520129,-8.620763691316E-03));
#519 = VECTOR('',#520,1.);
#520 = DIRECTION('',(0.,1.));
#521 = ( GEOMETRIC_REPRESENTATION_CONTEXT(2) 
PARAMETRIC_REPRESENTATION_CONTEXT() REPRESENTATION_CONTEXT('2D SPACE',''
  ) );
#522 = PCURVE('',#523,#528);
#523 = PLANE('',#524);
#524 = AXIS2_PLACEMENT_3D('',#525,#526,#527);
#525 = CARTESIAN_POINT('',(-4.403329231825E-15,5.790076070423E-16,109.)
  );
#526 = DIRECTION('',(0.,0.,1.));
#527 = DIRECTION('',(1.,0.,0.));
#528 = DEFINITIONAL_REPRESENTATION('',(#529),#533);
#529 = LINE('',#530,#531);
#530 = CARTESIAN_POINT('',(8.620763691318E-03,3.21671391275E-03));
#531 = VECTOR('',#532,1.);
#532 = DIRECTION('',(1.,0.));
#533 = ( GEOMETRIC_REPRESENTATION_CONTEXT(2) 
PARAMETRIC_REPRESENTATION_CONTEXT() REPRESENTATION_CONTEXT('2D SPACE',''
  ) );
#534 = ORIENTED_EDGE('',*,*,#535,.T.);
#535 = EDGE_CURVE('',#508,#536,#538,.T.);
#536 = VERTEX_POINT('',#537);
#537 = CARTESIAN_POINT('',(-39.74999986984,3.216713912752E-03,80.7));
#538 = SURFACE_CURVE('',#539,(#543,#550),.PCURVE_S1.);
#539 = LINE('',#540,#541);
#540 = CARTESIAN_POINT('',(-39.74999986984,3.216713912751E-03,80.7));
#541 = VECTOR('',#542,1.);
#542 = DIRECTION('',(-0.,-0.,-1.));
#543 = PCURVE('',#103,#544);
#544 = DEFINITIONAL_REPRESENTATION('',(#545),#549);
#545 = LINE('',#546,#547);
#546 = CARTESIAN_POINT('',(-21.14585520129,-39.76724139722));
#547 = VECTOR('',#548,1.);
#548 = DIRECTION('',(1.,0.));
#549 = ( GEOMETRIC_REPRESENTATION_CONTEXT(2) 
PARAMETRIC_REPRESENTATION_CONTEXT() REPRESENTATION_CONTEXT('2D SPACE',''
  ) );
#550 = PCURVE('',#551,#556);
#551 = CYLINDRICAL_SURFACE('',#552,39.75);
#552 = AXIS2_PLACEMENT_3D('',#553,#554,#555);
#553 = CARTESIAN_POINT('',(0.,0.,80.7));
#554 = DIRECTION('',(-0.,-0.,-1.));
#555 = DIRECTION('',(1.,0.,0.));
#556 = DEFINITIONAL_REPRESENTATION('',(#557),#560);
#557 = B_SPLINE_CURVE_WITH_KNOTS('',1,(#558,#559),.UNSPECIFIED.,.F.,.F.,
  (2,2),(-28.3,0.),.PIECEWISE_BEZIER_KNOTS.);
#558 = CARTESIAN_POINT('',(3.141673577211,-28.3));
#559 = CARTESIAN_POINT('',(3.141673577211,0.));
#560 = ( GEOMETRIC_REPRESENTATION_CONTEXT(2) 
PARAMETRIC_REPRESENTATION_CONTEXT() REPRESENTATION_CONTEXT('2D SPACE',''
  ) );
#561 = ORIENTED_EDGE('',*,*,#562,.F.);
#562 = EDGE_CURVE('',#563,#536,#565,.T.);
#563 = VERTEX_POINT('',#564);
#564 = CARTESIAN_POINT('',(-44.74999988438,3.216713912759E-03,80.7));
#565 = SURFACE_CURVE('',#566,(#570,#577),.PCURVE_S1.);
#566 = LINE('',#567,#568);
#567 = CARTESIAN_POINT('',(8.620763691315E-03,3.216713912751E-03,80.7));
#568 = VECTOR('',#569,1.);
#569 = DIRECTION('',(1.,0.,0.));
#570 = PCURVE('',#103,#571);
#571 = DEFINITIONAL_REPRESENTATION('',(#572),#576);
#572 = LINE('',#573,#574);
#573 = CARTESIAN_POINT('',(-21.14585520129,-8.620763691315E-03));
#574 = VECTOR('',#575,1.);
#575 = DIRECTION('',(0.,1.));
#576 = ( GEOMETRIC_REPRESENTATION_CONTEXT(2) 
PARAMETRIC_REPRESENTATION_CONTEXT() REPRESENTATION_CONTEXT('2D SPACE',''
  ) );
#577 = PCURVE('',#578,#583);
#578 = PLANE('',#579);
#579 = AXIS2_PLACEMENT_3D('',#580,#581,#582);
#580 = CARTESIAN_POINT('',(-2.933502854163E-15,4.040240899597E-15,80.7)
  );
#581 = DIRECTION('',(0.,0.,1.));
#582 = DIRECTION('',(1.,0.,0.));
#583 = DEFINITIONAL_REPRESENTATION('',(#584),#588);
#584 = LINE('',#585,#586);
#585 = CARTESIAN_POINT('',(8.620763691318E-03,3.216713912747E-03));
#586 = VECTOR('',#587,1.);
#587 = DIRECTION('',(1.,0.));
#588 = ( GEOMETRIC_REPRESENTATION_CONTEXT(2) 
PARAMETRIC_REPRESENTATION_CONTEXT() REPRESENTATION_CONTEXT('2D SPACE',''
  ) );
#589 = ORIENTED_EDGE('',*,*,#590,.T.);
#590 = EDGE_CURVE('',#563,#378,#591,.T.);
#591 = SURFACE_CURVE('',#592,(#596,#603),.PCURVE_S1.);
#592 = LINE('',#593,#594);
#593 = CARTESIAN_POINT('',(-44.74999988438,3.216713912751E-03,69.9));
#594 = VECTOR('',#595,1.);
#595 = DIRECTION('',(-0.,-0.,-1.));
#596 = PCURVE('',#103,#597);
#597 = DEFINITIONAL_REPRESENTATION('',(#598),#602);
#598 = LINE('',#599,#600);
#599 = CARTESIAN_POINT('',(-10.34585520129,-44.76724141176));
#600 = VECTOR('',#601,1.);
#601 = DIRECTION('',(1.,0.));
#602 = ( GEOMETRIC_REPRESENTATION_CONTEXT(2) 
PARAMETRIC_REPRESENTATION_CONTEXT() REPRESENTATION_CONTEXT('2D SPACE',''
  ) );
#603 = PCURVE('',#604,#609);
#604 = CYLINDRICAL_SURFACE('',#605,44.75);
#605 = AXIS2_PLACEMENT_3D('',#606,#607,#608);
#606 = CARTESIAN_POINT('',(0.,0.,69.9));
#607 = DIRECTION('',(-0.,-0.,-1.));
#608 = DIRECTION('',(1.,0.,0.));
#609 = DEFINITIONAL_REPRESENTATION('',(#610),#613);
#610 = B_SPLINE_CURVE_WITH_KNOTS('',1,(#611,#612),.UNSPECIFIED.,.F.,.F.,
  (2,2),(-10.8,-0.),.PIECEWISE_BEZIER_KNOTS.);
#611 = CARTESIAN_POINT('',(3.141664535465,-10.8));
#612 = CARTESIAN_POINT('',(3.141664535465,0.));
#613 = ( GEOMETRIC_REPRESENTATION_CONTEXT(2) 
PARAMETRIC_REPRESENTATION_CONTEXT() REPRESENTATION_CONTEXT('2D SPACE',''
  ) );
#614 = ADVANCED_FACE('',(#615),#72,.T.);
#615 = FACE_BOUND('',#616,.T.);
#616 = EDGE_LOOP('',(#617,#618,#619,#642));
#617 = ORIENTED_EDGE('',*,*,#377,.F.);
#618 = ORIENTED_EDGE('',*,*,#55,.F.);
#619 = ORIENTED_EDGE('',*,*,#620,.F.);
#620 = EDGE_CURVE('',#621,#22,#623,.T.);
#621 = VERTEX_POINT('',#622);
#622 = CARTESIAN_POINT('',(44.749999884388,3.216713912751E-03,69.9));
#623 = SURFACE_CURVE('',#624,(#628,#635),.PCURVE_S1.);
#624 = LINE('',#625,#626);
#625 = CARTESIAN_POINT('',(8.620763691316E-03,3.216713912751E-03,69.9));
#626 = VECTOR('',#627,1.);
#627 = DIRECTION('',(1.,0.,0.));
#628 = PCURVE('',#72,#629);
#629 = DEFINITIONAL_REPRESENTATION('',(#630),#634);
#630 = LINE('',#631,#632);
#631 = CARTESIAN_POINT('',(8.620763691318E-03,3.216713912751E-03));
#632 = VECTOR('',#633,1.);
#633 = DIRECTION('',(1.,0.));
#634 = ( GEOMETRIC_REPRESENTATION_CONTEXT(2) 
PARAMETRIC_REPRESENTATION_CONTEXT() REPRESENTATION_CONTEXT('2D SPACE',''
  ) );
#635 = PCURVE('',#43,#636);
#636 = DEFINITIONAL_REPRESENTATION('',(#637),#641);
#637 = LINE('',#638,#639);
#638 = CARTESIAN_POINT('',(-10.34585520129,-8.620763691314E-03));
#639 = VECTOR('',#640,1.);
#640 = DIRECTION('',(0.,1.));
#641 = ( GEOMETRIC_REPRESENTATION_CONTEXT(2) 
PARAMETRIC_REPRESENTATION_CONTEXT() REPRESENTATION_CONTEXT('2D SPACE',''
  ) );
#642 = ORIENTED_EDGE('',*,*,#643,.T.);
#643 = EDGE_CURVE('',#621,#378,#644,.T.);
#644 = SURFACE_CURVE('',#645,(#650,#661),.PCURVE_S1.);
#645 = CIRCLE('',#646,44.75);
#646 = AXIS2_PLACEMENT_3D('',#647,#648,#649);
#647 = CARTESIAN_POINT('',(0.,0.,69.9));
#648 = DIRECTION('',(0.,0.,-1.));
#649 = DIRECTION('',(0.999999997416,7.188187514531E-05,0.));
#650 = PCURVE('',#72,#651);
#651 = DEFINITIONAL_REPRESENTATION('',(#652),#660);
#652 = ( BOUNDED_CURVE() B_SPLINE_CURVE(2,(#653,#654,#655,#656,#657,#658
,#659),.UNSPECIFIED.,.T.,.F.) B_SPLINE_CURVE_WITH_KNOTS((1,2,2,2,2,1),(
    -2.094395102393,0.,2.094395102393,4.188790204786,6.28318530718,
8.377580409573),.UNSPECIFIED.) CURVE() GEOMETRIC_REPRESENTATION_ITEM() 
RATIONAL_B_SPLINE_CURVE((1.,0.5,1.,0.5,1.,0.5,1.)) REPRESENTATION_ITEM(
  '') );
#653 = CARTESIAN_POINT('',(44.749999884388,3.216713912752E-03));
#654 = CARTESIAN_POINT('',(44.755571396319,-77.50605672454));
#655 = CARTESIAN_POINT('',(-22.37221418622,-38.75624507618));
#656 = CARTESIAN_POINT('',(-89.49999976877,-6.433427825516E-03));
#657 = CARTESIAN_POINT('',(-22.37778569815,38.753028362275));
#658 = CARTESIAN_POINT('',(44.744428372458,77.512490152375));
#659 = CARTESIAN_POINT('',(44.749999884388,3.216713912752E-03));
#660 = ( GEOMETRIC_REPRESENTATION_CONTEXT(2) 
PARAMETRIC_REPRESENTATION_CONTEXT() REPRESENTATION_CONTEXT('2D SPACE',''
  ) );
#661 = PCURVE('',#604,#662);
#662 = DEFINITIONAL_REPRESENTATION('',(#663),#667);
#663 = LINE('',#664,#665);
#664 = CARTESIAN_POINT('',(-7.188187541374E-05,0.));
#665 = VECTOR('',#666,1.);
#666 = DIRECTION('',(1.,-0.));
#667 = ( GEOMETRIC_REPRESENTATION_CONTEXT(2) 
PARAMETRIC_REPRESENTATION_CONTEXT() REPRESENTATION_CONTEXT('2D SPACE',''
  ) );
#668 = ADVANCED_FACE('',(#669),#43,.F.);
#669 = FACE_BOUND('',#670,.F.);
#670 = EDGE_LOOP('',(#671,#672,#673,#695,#718,#740,#763,#797,#824,#952,
    #979));
#671 = ORIENTED_EDGE('',*,*,#21,.F.);
#672 = ORIENTED_EDGE('',*,*,#620,.F.);
#673 = ORIENTED_EDGE('',*,*,#674,.F.);
#674 = EDGE_CURVE('',#675,#621,#677,.T.);
#675 = VERTEX_POINT('',#676);
#676 = CARTESIAN_POINT('',(44.749999884388,3.216713912751E-03,80.7));
#677 = SURFACE_CURVE('',#678,(#682,#689),.PCURVE_S1.);
#678 = LINE('',#679,#680);
#679 = CARTESIAN_POINT('',(44.749999884388,3.216713912751E-03,69.9));
#680 = VECTOR('',#681,1.);
#681 = DIRECTION('',(-0.,-0.,-1.));
#682 = PCURVE('',#43,#683);
#683 = DEFINITIONAL_REPRESENTATION('',(#684),#688);
#684 = LINE('',#685,#686);
#685 = CARTESIAN_POINT('',(-10.34585520129,44.732758357005));
#686 = VECTOR('',#687,1.);
#687 = DIRECTION('',(1.,0.));
#688 = ( GEOMETRIC_REPRESENTATION_CONTEXT(2) 
PARAMETRIC_REPRESENTATION_CONTEXT() REPRESENTATION_CONTEXT('2D SPACE',''
  ) );
#689 = PCURVE('',#604,#690);
#690 = DEFINITIONAL_REPRESENTATION('',(#691),#694);
#691 = B_SPLINE_CURVE_WITH_KNOTS('',1,(#692,#693),.UNSPECIFIED.,.F.,.F.,
  (2,2),(-10.8,-0.),.PIECEWISE_BEZIER_KNOTS.);
#692 = CARTESIAN_POINT('',(-7.188187541374E-05,-10.8));
#693 = CARTESIAN_POINT('',(-7.188187541374E-05,0.));
#694 = ( GEOMETRIC_REPRESENTATION_CONTEXT(2) 
PARAMETRIC_REPRESENTATION_CONTEXT() REPRESENTATION_CONTEXT('2D SPACE',''
  ) );
#695 = ORIENTED_EDGE('',*,*,#696,.F.);
#696 = EDGE_CURVE('',#697,#675,#699,.T.);
#697 = VERTEX_POINT('',#698);
#698 = CARTESIAN_POINT('',(39.749999869846,3.216713912751E-03,80.7));
#699 = SURFACE_CURVE('',#700,(#704,#711),.PCURVE_S1.);
#700 = LINE('',#701,#702);
#701 = CARTESIAN_POINT('',(8.620763691315E-03,3.216713912751E-03,80.7));
#702 = VECTOR('',#703,1.);
#703 = DIRECTION('',(1.,0.,0.));
#704 = PCURVE('',#43,#705);
#705 = DEFINITIONAL_REPRESENTATION('',(#706),#710);
#706 = LINE('',#707,#708);
#707 = CARTESIAN_POINT('',(-21.14585520129,-8.620763691315E-03));
#708 = VECTOR('',#709,1.);
#709 = DIRECTION('',(0.,1.));
#710 = ( GEOMETRIC_REPRESENTATION_CONTEXT(2) 
PARAMETRIC_REPRESENTATION_CONTEXT() REPRESENTATION_CONTEXT('2D SPACE',''
  ) );
#711 = PCURVE('',#578,#712);
#712 = DEFINITIONAL_REPRESENTATION('',(#713),#717);
#713 = LINE('',#714,#715);
#714 = CARTESIAN_POINT('',(8.620763691318E-03,3.216713912747E-03));
#715 = VECTOR('',#716,1.);
#716 = DIRECTION('',(1.,0.));
#717 = ( GEOMETRIC_REPRESENTATION_CONTEXT(2) 
PARAMETRIC_REPRESENTATION_CONTEXT() REPRESENTATION_CONTEXT('2D SPACE',''
  ) );
#718 = ORIENTED_EDGE('',*,*,#719,.F.);
#719 = EDGE_CURVE('',#720,#697,#722,.T.);
#720 = VERTEX_POINT('',#721);
#721 = CARTESIAN_POINT('',(39.749999869846,3.216713912751E-03,109.));
#722 = SURFACE_CURVE('',#723,(#727,#734),.PCURVE_S1.);
#723 = LINE('',#724,#725);
#724 = CARTESIAN_POINT('',(39.749999869846,3.216713912751E-03,80.7));
#725 = VECTOR('',#726,1.);
#726 = DIRECTION('',(-0.,-0.,-1.));
#727 = PCURVE('',#43,#728);
#728 = DEFINITIONAL_REPRESENTATION('',(#729),#733);
#729 = LINE('',#730,#731);
#730 = CARTESIAN_POINT('',(-21.14585520129,39.732758342463));
#731 = VECTOR('',#732,1.);
#732 = DIRECTION('',(1.,0.));
#733 = ( GEOMETRIC_REPRESENTATION_CONTEXT(2) 
PARAMETRIC_REPRESENTATION_CONTEXT() REPRESENTATION_CONTEXT('2D SPACE',''
  ) );
#734 = PCURVE('',#551,#735);
#735 = DEFINITIONAL_REPRESENTATION('',(#736),#739);
#736 = B_SPLINE_CURVE_WITH_KNOTS('',1,(#737,#738),.UNSPECIFIED.,.F.,.F.,
  (2,2),(-28.3,-0.),.PIECEWISE_BEZIER_KNOTS.);
#737 = CARTESIAN_POINT('',(-8.092362041356E-05,-28.3));
#738 = CARTESIAN_POINT('',(-8.092362041356E-05,0.));
#739 = ( GEOMETRIC_REPRESENTATION_CONTEXT(2) 
PARAMETRIC_REPRESENTATION_CONTEXT() REPRESENTATION_CONTEXT('2D SPACE',''
  ) );
#740 = ORIENTED_EDGE('',*,*,#741,.F.);
#741 = EDGE_CURVE('',#742,#720,#744,.T.);
#742 = VERTEX_POINT('',#743);
#743 = CARTESIAN_POINT('',(38.99999770061,3.216713912751E-03,109.));
#744 = SURFACE_CURVE('',#745,(#749,#756),.PCURVE_S1.);
#745 = LINE('',#746,#747);
#746 = CARTESIAN_POINT('',(8.620763691314E-03,3.216713912751E-03,109.));
#747 = VECTOR('',#748,1.);
#748 = DIRECTION('',(1.,0.,0.));
#749 = PCURVE('',#43,#750);
#750 = DEFINITIONAL_REPRESENTATION('',(#751),#755);
#751 = LINE('',#752,#753);
#752 = CARTESIAN_POINT('',(-49.44585520129,-8.620763691316E-03));
#753 = VECTOR('',#754,1.);
#754 = DIRECTION('',(0.,1.));
#755 = ( GEOMETRIC_REPRESENTATION_CONTEXT(2) 
PARAMETRIC_REPRESENTATION_CONTEXT() REPRESENTATION_CONTEXT('2D SPACE',''
  ) );
#756 = PCURVE('',#523,#757);
#757 = DEFINITIONAL_REPRESENTATION('',(#758),#762);
#758 = LINE('',#759,#760);
#759 = CARTESIAN_POINT('',(8.620763691318E-03,3.21671391275E-03));
#760 = VECTOR('',#761,1.);
#761 = DIRECTION('',(1.,0.));
#762 = ( GEOMETRIC_REPRESENTATION_CONTEXT(2) 
PARAMETRIC_REPRESENTATION_CONTEXT() REPRESENTATION_CONTEXT('2D SPACE',''
  ) );
#763 = ORIENTED_EDGE('',*,*,#764,.T.);
#764 = EDGE_CURVE('',#742,#765,#767,.T.);
#765 = VERTEX_POINT('',#766);
#766 = CARTESIAN_POINT('',(37.499993101803,3.216713912751E-03,107.5));
#767 = SURFACE_CURVE('',#768,(#773,#780),.PCURVE_S1.);
#768 = HYPERBOLA('',#769,3.216713912751E-03,3.216713912751E-03);
#769 = AXIS2_PLACEMENT_3D('',#770,#771,#772);
#770 = CARTESIAN_POINT('',(36.75,3.216713912751E-03,106.75));
#771 = DIRECTION('',(0.,-1.,0.));
#772 = DIRECTION('',(0.,0.,1.));
#773 = PCURVE('',#43,#774);
#774 = DEFINITIONAL_REPRESENTATION('',(#775),#779);
#775 = HYPERBOLA('',#776,3.216713912751E-03,3.216713912751E-03);
#776 = AXIS2_PLACEMENT_2D('',#777,#778);
#777 = CARTESIAN_POINT('',(-47.19585520129,36.732758472617));
#778 = DIRECTION('',(-1.,0.));
#779 = ( GEOMETRIC_REPRESENTATION_CONTEXT(2) 
PARAMETRIC_REPRESENTATION_CONTEXT() REPRESENTATION_CONTEXT('2D SPACE',''
  ) );
#780 = PCURVE('',#781,#786);
#781 = CONICAL_SURFACE('',#782,0.75,0.785398163397);
#782 = AXIS2_PLACEMENT_3D('',#783,#784,#785);
#783 = CARTESIAN_POINT('',(36.75,0.,107.5));
#784 = DIRECTION('',(0.,0.,1.));
#785 = DIRECTION('',(0.,1.,0.));
#786 = DEFINITIONAL_REPRESENTATION('',(#787),#796);
#787 = B_SPLINE_CURVE_WITH_KNOTS('',7,(#788,#789,#790,#791,#792,#793,
    #794,#795),.UNSPECIFIED.,.F.,.F.,(8,8),(-7.243471850306,
    -6.144855473805),.PIECEWISE_BEZIER_KNOTS.);
#788 = CARTESIAN_POINT('',(4.7138186315,1.5));
#789 = CARTESIAN_POINT('',(4.714043008299,1.146873668431));
#790 = CARTESIAN_POINT('',(4.714308468868,0.858405688081));
#791 = CARTESIAN_POINT('',(4.714624041828,0.620390015032));
#792 = CARTESIAN_POINT('',(4.715001227628,0.422518028688));
#793 = CARTESIAN_POINT('',(4.715454935295,0.256968348904));
#794 = CARTESIAN_POINT('',(4.716004815021,0.117707814843));
#795 = CARTESIAN_POINT('',(4.716677945418,5.551115123126E-16));
#796 = ( GEOMETRIC_REPRESENTATION_CONTEXT(2) 
PARAMETRIC_REPRESENTATION_CONTEXT() REPRESENTATION_CONTEXT('2D SPACE',''
  ) );
#797 = ORIENTED_EDGE('',*,*,#798,.T.);
#798 = EDGE_CURVE('',#765,#799,#801,.T.);
#799 = VERTEX_POINT('',#800);
#800 = CARTESIAN_POINT('',(37.499993101803,3.216713912751E-03,99.));
#801 = SURFACE_CURVE('',#802,(#806,#813),.PCURVE_S1.);
#802 = LINE('',#803,#804);
#803 = CARTESIAN_POINT('',(37.499993101803,3.216713912751E-03,99.));
#804 = VECTOR('',#805,1.);
#805 = DIRECTION('',(0.,0.,-1.));
#806 = PCURVE('',#43,#807);
#807 = DEFINITIONAL_REPRESENTATION('',(#808),#812);
#808 = LINE('',#809,#810);
#809 = CARTESIAN_POINT('',(-39.44585520129,37.48275157442));
#810 = VECTOR('',#811,1.);
#811 = DIRECTION('',(1.,0.));
#812 = ( GEOMETRIC_REPRESENTATION_CONTEXT(2) 
PARAMETRIC_REPRESENTATION_CONTEXT() REPRESENTATION_CONTEXT('2D SPACE',''
  ) );
#813 = PCURVE('',#814,#819);
#814 = CYLINDRICAL_SURFACE('',#815,0.75);
#815 = AXIS2_PLACEMENT_3D('',#816,#817,#818);
#816 = CARTESIAN_POINT('',(36.75,0.,99.));
#817 = DIRECTION('',(0.,0.,-1.));
#818 = DIRECTION('',(0.,1.,0.));
#819 = DEFINITIONAL_REPRESENTATION('',(#820),#823);
#820 = B_SPLINE_CURVE_WITH_KNOTS('',1,(#821,#822),.UNSPECIFIED.,.F.,.F.,
  (2,2),(-8.5000006,6.000000070117E-07),.PIECEWISE_BEZIER_KNOTS.);
#821 = CARTESIAN_POINT('',(1.566507361762,-8.5000006));
#822 = CARTESIAN_POINT('',(1.566507361762,6.000000070117E-07));
#823 = ( GEOMETRIC_REPRESENTATION_CONTEXT(2) 
PARAMETRIC_REPRESENTATION_CONTEXT() REPRESENTATION_CONTEXT('2D SPACE',''
  ) );
#824 = ORIENTED_EDGE('',*,*,#825,.F.);
#825 = EDGE_CURVE('',#826,#799,#828,.T.);
#826 = VERTEX_POINT('',#827);
#827 = CARTESIAN_POINT('',(37.795496600522,3.216713912751E-03,
    0.424606236484));
#828 = SURFACE_CURVE('',#829,(#868,#910),.PCURVE_S1.);
#829 = B_SPLINE_CURVE_WITH_KNOTS('',7,(#830,#831,#832,#833,#834,#835,
    #836,#837,#838,#839,#840,#841,#842,#843,#844,#845,#846,#847,#848,
    #849,#850,#851,#852,#853,#854,#855,#856,#857,#858,#859,#860,#861,
    #862,#863,#864,#865,#866,#867),.UNSPECIFIED.,.F.,.F.,(8,6,6,6,6,6,8)
  ,(0.,7.444463539427E-02,0.19473740372,0.376729374166,0.55863294258,
    0.969467266241,1.),.UNSPECIFIED.);
#830 = CARTESIAN_POINT('',(37.795496600522,3.216713912751E-03,
    0.424606236484));
#831 = CARTESIAN_POINT('',(37.784486232802,3.216713912751E-03,
    1.472576124453));
#832 = CARTESIAN_POINT('',(37.774078252353,3.216713912751E-03,
    2.520527814157));
#833 = CARTESIAN_POINT('',(37.764298146723,3.216713912751E-03,
    3.568464673152));
#834 = CARTESIAN_POINT('',(37.755161014797,3.216713912751E-03,
    4.616391443341));
#835 = CARTESIAN_POINT('',(37.746666482676,3.216713912751E-03,
    5.664313788188));
#836 = CARTESIAN_POINT('',(37.738798259306,3.216713912751E-03,
    6.712237707624));
#837 = CARTESIAN_POINT('',(37.719781082469,3.216713912751E-03,
    9.453488076345));
#838 = CARTESIAN_POINT('',(37.709595891579,3.216713912751E-03,
    11.14682603285));
#839 = CARTESIAN_POINT('',(37.700855424893,3.216713912751E-03,
    12.840205670887));
#840 = CARTESIAN_POINT('',(37.693358080667,3.216713912751E-03,
    14.533645750873));
#841 = CARTESIAN_POINT('',(37.686875443827,3.216713912751E-03,
    16.227154096293));
#842 = CARTESIAN_POINT('',(37.68121273103,3.216713912751E-03,
    17.920731107828));
#843 = CARTESIAN_POINT('',(37.668623150032,3.216713912751E-03,
    22.176696158487));
#844 = CARTESIAN_POINT('',(37.662538157324,3.216713912751E-03,
    24.739168149203));
#845 = CARTESIAN_POINT('',(37.657369123469,3.216713912751E-03,
    27.30177566164));
#846 = CARTESIAN_POINT('',(37.652712013809,3.216713912751E-03,
    29.864494001434));
#847 = CARTESIAN_POINT('',(37.648340621158,3.216713912751E-03,
    32.427300987111));
#848 = CARTESIAN_POINT('',(37.64409305003,3.216713912751E-03,
    34.990178229651));
#849 = CARTESIAN_POINT('',(37.635642364291,3.216713912751E-03,
    40.114800560927));
#850 = CARTESIAN_POINT('',(37.631438885845,3.216713912751E-03,
    42.676546319639));
#851 = CARTESIAN_POINT('',(37.627152687144,3.216713912751E-03,
    45.238337133044));
#852 = CARTESIAN_POINT('',(37.622729867682,3.216713912751E-03,
    47.8001633524));
#853 = CARTESIAN_POINT('',(37.618140714134,3.216713912751E-03,
    50.362017691611));
#854 = CARTESIAN_POINT('',(37.613366381798,3.216713912751E-03,
    52.923895090678));
#855 = CARTESIAN_POINT('',(37.597175883693,3.216713912751E-03,
    61.271909627469));
#856 = CARTESIAN_POINT('',(37.584961951229,3.216713912751E-03,
    67.058122000603));
#857 = CARTESIAN_POINT('',(37.571648184461,3.216713912751E-03,
    72.844393205691));
#858 = CARTESIAN_POINT('',(37.557321346263,3.216713912751E-03,
    78.630701117722));
#859 = CARTESIAN_POINT('',(37.542039039641,3.216713912751E-03,
    84.417032128806));
#860 = CARTESIAN_POINT('',(37.525881059143,3.216713912751E-03,
    90.203380258518));
#861 = CARTESIAN_POINT('',(37.507652169882,3.216713912751E-03,
    96.419782179988));
#862 = CARTESIAN_POINT('',(37.506386666691,3.216713912751E-03,
    96.849818303643));
#863 = CARTESIAN_POINT('',(37.505116719802,3.216713912751E-03,
    97.279854501635));
#864 = CARTESIAN_POINT('',(37.503842356905,3.216713912751E-03,
    97.709890772066));
#865 = CARTESIAN_POINT('',(37.502563605517,3.216713912751E-03,
    98.139927113105));
#866 = CARTESIAN_POINT('',(37.501280492988,3.216713912751E-03,
    98.569963522984));
#867 = CARTESIAN_POINT('',(37.4999930465,3.216713912751E-03,99.));
#868 = PCURVE('',#43,#869);
#869 = DEFINITIONAL_REPRESENTATION('',(#870),#909);
#870 = B_SPLINE_CURVE_WITH_KNOTS('',7,(#871,#872,#873,#874,#875,#876,
    #877,#878,#879,#880,#881,#882,#883,#884,#885,#886,#887,#888,#889,
    #890,#891,#892,#893,#894,#895,#896,#897,#898,#899,#900,#901,#902,
    #903,#904,#905,#906,#907,#908),.UNSPECIFIED.,.F.,.F.,(8,6,6,6,6,6,8)
  ,(0.,7.444463539427E-02,0.19473740372,0.376729374166,0.55863294258,
    0.969467266241,1.),.UNSPECIFIED.);
#871 = CARTESIAN_POINT('',(59.129538562217,37.778255073139));
#872 = CARTESIAN_POINT('',(58.081568674248,37.767244705419));
#873 = CARTESIAN_POINT('',(57.033616984544,37.75683672497));
#874 = CARTESIAN_POINT('',(55.985680125549,37.74705661934));
#875 = CARTESIAN_POINT('',(54.93775335536,37.737919487414));
#876 = CARTESIAN_POINT('',(53.889831010513,37.729424955293));
#877 = CARTESIAN_POINT('',(52.841907091077,37.721556731923));
#878 = CARTESIAN_POINT('',(50.100656722356,37.702539555086));
#879 = CARTESIAN_POINT('',(48.407318765851,37.692354364196));
#880 = CARTESIAN_POINT('',(46.713939127814,37.68361389751));
#881 = CARTESIAN_POINT('',(45.020499047828,37.676116553284));
#882 = CARTESIAN_POINT('',(43.326990702408,37.669633916444));
#883 = CARTESIAN_POINT('',(41.633413690873,37.663971203647));
#884 = CARTESIAN_POINT('',(37.377448640214,37.651381622649));
#885 = CARTESIAN_POINT('',(34.814976649498,37.645296629941));
#886 = CARTESIAN_POINT('',(32.252369137061,37.640127596086));
#887 = CARTESIAN_POINT('',(29.689650797267,37.635470486426));
#888 = CARTESIAN_POINT('',(27.12684381159,37.631099093775));
#889 = CARTESIAN_POINT('',(24.56396656905,37.626851522647));
#890 = CARTESIAN_POINT('',(19.439344237774,37.618400836908));
#891 = CARTESIAN_POINT('',(16.877598479062,37.614197358462));
#892 = CARTESIAN_POINT('',(14.315807665657,37.609911159761));
#893 = CARTESIAN_POINT('',(11.753981446301,37.605488340299));
#894 = CARTESIAN_POINT('',(9.19212710709,37.600899186751));
#895 = CARTESIAN_POINT('',(6.630249708023,37.596124854415));
#896 = CARTESIAN_POINT('',(-1.717764828768,37.57993435631));
#897 = CARTESIAN_POINT('',(-7.503977201902,37.567720423846));
#898 = CARTESIAN_POINT('',(-13.29024840699,37.554406657078));
#899 = CARTESIAN_POINT('',(-19.07655631902,37.54007981888));
#900 = CARTESIAN_POINT('',(-24.8628873301,37.524797512258));
#901 = CARTESIAN_POINT('',(-30.64923545981,37.50863953176));
#902 = CARTESIAN_POINT('',(-36.86563738128,37.490410642499));
#903 = CARTESIAN_POINT('',(-37.29567350494,37.489145139308));
#904 = CARTESIAN_POINT('',(-37.72570970293,37.487875192419));
#905 = CARTESIAN_POINT('',(-38.15574597336,37.486600829522));
#906 = CARTESIAN_POINT('',(-38.5857823144,37.485322078134));
#907 = CARTESIAN_POINT('',(-39.01581872428,37.484038965605));
#908 = CARTESIAN_POINT('',(-39.44585520129,37.482751519117));
#909 = ( GEOMETRIC_REPRESENTATION_CONTEXT(2) 
PARAMETRIC_REPRESENTATION_CONTEXT() REPRESENTATION_CONTEXT('2D SPACE',''
  ) );
#910 = PCURVE('',#234,#911);
#911 = DEFINITIONAL_REPRESENTATION('',(#912),#951);
#912 = B_SPLINE_CURVE_WITH_KNOTS('',7,(#913,#914,#915,#916,#917,#918,
    #919,#920,#921,#922,#923,#924,#925,#926,#927,#928,#929,#930,#931,
    #932,#933,#934,#935,#936,#937,#938,#939,#940,#941,#942,#943,#944,
    #945,#946,#947,#948,#949,#950),.UNSPECIFIED.,.F.,.F.,(8,6,6,6,6,6,8)
  ,(0.,7.444463539427E-02,0.19473740372,0.376729374166,0.55863294258,
    0.969467266241,1.),.UNSPECIFIED.);
#913 = CARTESIAN_POINT('',(6.28318530718,4.28895188368E-03));
#914 = CARTESIAN_POINT('',(6.250709797006,1.487450630761E-02));
#915 = CARTESIAN_POINT('',(6.21744557306,2.545987691068E-02));
#916 = CARTESIAN_POINT('',(6.183525931298,3.604509770861E-02));
#917 = CARTESIAN_POINT('',(6.149120208428,4.66302165994E-02));
#918 = CARTESIAN_POINT('',(6.114421607825,5.721529078978E-02));
#919 = CARTESIAN_POINT('',(6.079629603808,6.780038088509E-02));
#920 = CARTESIAN_POINT('',(5.98885194505,9.548977854894E-02));
#921 = CARTESIAN_POINT('',(5.933010724573,0.112594202352));
#922 = CARTESIAN_POINT('',(5.878175818595,0.129699047181));
#923 = CARTESIAN_POINT('',(5.825030734921,0.146804502534));
#924 = CARTESIAN_POINT('',(5.77395167175,0.163910647437));
#925 = CARTESIAN_POINT('',(5.725114306725,0.181017485938));
#926 = CARTESIAN_POINT('',(5.608146931779,0.224007031904));
#927 = CARTESIAN_POINT('',(5.542969015149,0.249890587366));
#928 = CARTESIAN_POINT('',(5.483204952483,0.275775511734));
#929 = CARTESIAN_POINT('',(5.428342744793,0.30166155557));
#930 = CARTESIAN_POINT('',(5.37784971102,0.327548494819));
#931 = CARTESIAN_POINT('',(5.331222311046,0.353436143734));
#932 = CARTESIAN_POINT('',(5.244832386812,0.405200005666));
#933 = CARTESIAN_POINT('',(5.205066841876,0.431076225451));
#934 = CARTESIAN_POINT('',(5.168275287732,0.456952900334));
#935 = CARTESIAN_POINT('',(5.134077994546,0.482829932853));
#936 = CARTESIAN_POINT('',(5.102161212276,0.50870724941));
#937 = CARTESIAN_POINT('',(5.072268105382,0.534584798896));
#938 = CARTESIAN_POINT('',(4.980741720974,0.618908178055));
#939 = CARTESIAN_POINT('',(4.926511109839,0.677354767683));
#940 = CARTESIAN_POINT('',(4.878980141188,0.735801951573));
#941 = CARTESIAN_POINT('',(4.836719326568,0.794249506239));
#942 = CARTESIAN_POINT('',(4.798713229686,0.85269729423));
#943 = CARTESIAN_POINT('',(4.764235289529,0.911145255137));
#944 = CARTESIAN_POINT('',(4.730389192199,0.973937193737));
#945 = CARTESIAN_POINT('',(4.728064221807,0.978280992966));
#946 = CARTESIAN_POINT('',(4.725755447295,0.982624792946));
#947 = CARTESIAN_POINT('',(4.723462646713,0.986968593657));
#948 = CARTESIAN_POINT('',(4.721185603214,0.991312395082));
#949 = CARTESIAN_POINT('',(4.718924105047,0.995656197202));
#950 = CARTESIAN_POINT('',(4.716677945562,1.));
#951 = ( GEOMETRIC_REPRESENTATION_CONTEXT(2) 
PARAMETRIC_REPRESENTATION_CONTEXT() REPRESENTATION_CONTEXT('2D SPACE',''
  ) );
#952 = ORIENTED_EDGE('',*,*,#953,.F.);
#953 = EDGE_CURVE('',#147,#826,#954,.T.);
#954 = SURFACE_CURVE('',#955,(#961,#970),.PCURVE_S1.);
#955 = B_SPLINE_CURVE_WITH_KNOTS('',4,(#956,#957,#958,#959,#960),
  .UNSPECIFIED.,.F.,.F.,(5,5),(0.,1.),.PIECEWISE_BEZIER_KNOTS.);
#956 = CARTESIAN_POINT('',(37.799999863132,3.216713912751E-03,0.));
#957 = CARTESIAN_POINT('',(37.798871932963,3.216713912751E-03,
    0.106151546809));
#958 = CARTESIAN_POINT('',(37.797745406425,3.216713912751E-03,
    0.212303101828));
#959 = CARTESIAN_POINT('',(37.796620292549,3.216713912751E-03,
    0.318454665056));
#960 = CARTESIAN_POINT('',(37.795496600522,3.216713912751E-03,
    0.424606236484));
#961 = PCURVE('',#43,#962);
#962 = DEFINITIONAL_REPRESENTATION('',(#963),#969);
#963 = B_SPLINE_CURVE_WITH_KNOTS('',4,(#964,#965,#966,#967,#968),
  .UNSPECIFIED.,.F.,.F.,(5,5),(0.,1.),.PIECEWISE_BEZIER_KNOTS.);
#964 = CARTESIAN_POINT('',(59.554144798701,37.782758335749));
#965 = CARTESIAN_POINT('',(59.447993251892,37.78163040558));
#966 = CARTESIAN_POINT('',(59.341841696873,37.780503879042));
#967 = CARTESIAN_POINT('',(59.235690133645,37.779378765166));
#968 = CARTESIAN_POINT('',(59.129538562217,37.778255073139));
#969 = ( GEOMETRIC_REPRESENTATION_CONTEXT(2) 
PARAMETRIC_REPRESENTATION_CONTEXT() REPRESENTATION_CONTEXT('2D SPACE',''
  ) );
#970 = PCURVE('',#186,#971);
#971 = DEFINITIONAL_REPRESENTATION('',(#972),#978);
#972 = B_SPLINE_CURVE_WITH_KNOTS('',4,(#973,#974,#975,#976,#977),
  .UNSPECIFIED.,.F.,.F.,(5,5),(0.,1.),.PIECEWISE_BEZIER_KNOTS.);
#973 = CARTESIAN_POINT('',(-73.49799604417,0.));
#974 = CARTESIAN_POINT('',(-73.49849488436,1.072237846559E-03));
#975 = CARTESIAN_POINT('',(-73.49899515091,2.144475776043E-03));
#976 = CARTESIAN_POINT('',(-73.49949685301,3.216713788446E-03));
#977 = CARTESIAN_POINT('',(-73.5,4.288951883677E-03));
#978 = ( GEOMETRIC_REPRESENTATION_CONTEXT(2) 
PARAMETRIC_REPRESENTATION_CONTEXT() REPRESENTATION_CONTEXT('2D SPACE',''
  ) );
#979 = ORIENTED_EDGE('',*,*,#146,.T.);
#980 = ADVANCED_FACE('',(#981),#186,.F.);
#981 = FACE_BOUND('',#982,.F.);
#982 = EDGE_LOOP('',(#983,#1003,#1004));
#983 = ORIENTED_EDGE('',*,*,#984,.F.);
#984 = EDGE_CURVE('',#170,#826,#985,.T.);
#985 = SURFACE_CURVE('',#986,(#989,#996),.PCURVE_S1.);
#986 = B_SPLINE_CURVE_WITH_KNOTS('',1,(#987,#988),.UNSPECIFIED.,.F.,.F.,
  (2,2),(0.,1.),.PIECEWISE_BEZIER_KNOTS.);
#987 = CARTESIAN_POINT('',(37.8,-7.105427357601E-15,0.));
#988 = CARTESIAN_POINT('',(36.75,0.75,99.));
#989 = PCURVE('',#186,#990);
#990 = DEFINITIONAL_REPRESENTATION('',(#991),#995);
#991 = LINE('',#992,#993);
#992 = CARTESIAN_POINT('',(-73.5,0.));
#993 = VECTOR('',#994,1.);
#994 = DIRECTION('',(0.,1.));
#995 = ( GEOMETRIC_REPRESENTATION_CONTEXT(2) 
PARAMETRIC_REPRESENTATION_CONTEXT() REPRESENTATION_CONTEXT('2D SPACE',''
  ) );
#996 = PCURVE('',#234,#997);
#997 = DEFINITIONAL_REPRESENTATION('',(#998),#1002);
#998 = LINE('',#999,#1000);
#999 = CARTESIAN_POINT('',(6.28318530718,0.));
#1000 = VECTOR('',#1001,1.);
#1001 = DIRECTION('',(0.,1.));
#1002 = ( GEOMETRIC_REPRESENTATION_CONTEXT(2) 
PARAMETRIC_REPRESENTATION_CONTEXT() REPRESENTATION_CONTEXT('2D SPACE',''
  ) );
#1003 = ORIENTED_EDGE('',*,*,#169,.T.);
#1004 = ORIENTED_EDGE('',*,*,#953,.T.);
#1005 = ADVANCED_FACE('',(#1006),#234,.F.);
#1006 = FACE_BOUND('',#1007,.F.);
#1007 = EDGE_LOOP('',(#1008,#1030,#1031,#1032,#1033));
#1008 = ORIENTED_EDGE('',*,*,#1009,.F.);
#1009 = EDGE_CURVE('',#218,#1010,#1012,.T.);
#1010 = VERTEX_POINT('',#1011);
#1011 = CARTESIAN_POINT('',(36.75,-0.75,99.));
#1012 = SURFACE_CURVE('',#1013,(#1016,#1023),.PCURVE_S1.);
#1013 = B_SPLINE_CURVE_WITH_KNOTS('',1,(#1014,#1015),.UNSPECIFIED.,.F.,
  .F.,(2,2),(0.,1.),.PIECEWISE_BEZIER_KNOTS.);
#1014 = CARTESIAN_POINT('',(37.792130737918,-0.771267974243,0.));
#1015 = CARTESIAN_POINT('',(36.75,-0.75,99.));
#1016 = PCURVE('',#234,#1017);
#1017 = DEFINITIONAL_REPRESENTATION('',(#1018),#1022);
#1018 = LINE('',#1019,#1020);
#1019 = CARTESIAN_POINT('',(3.14159265359,0.));
#1020 = VECTOR('',#1021,1.);
#1021 = DIRECTION('',(0.,1.));
#1022 = ( GEOMETRIC_REPRESENTATION_CONTEXT(2) 
PARAMETRIC_REPRESENTATION_CONTEXT() REPRESENTATION_CONTEXT('2D SPACE',''
  ) );
#1023 = PCURVE('',#278,#1024);
#1024 = DEFINITIONAL_REPRESENTATION('',(#1025),#1029);
#1025 = LINE('',#1026,#1027);
#1026 = CARTESIAN_POINT('',(0.,0.));
#1027 = VECTOR('',#1028,1.);
#1028 = DIRECTION('',(0.,1.));
#1029 = ( GEOMETRIC_REPRESENTATION_CONTEXT(2) 
PARAMETRIC_REPRESENTATION_CONTEXT() REPRESENTATION_CONTEXT('2D SPACE',''
  ) );
#1030 = ORIENTED_EDGE('',*,*,#217,.T.);
#1031 = ORIENTED_EDGE('',*,*,#984,.T.);
#1032 = ORIENTED_EDGE('',*,*,#825,.T.);
#1033 = ORIENTED_EDGE('',*,*,#1034,.T.);
#1034 = EDGE_CURVE('',#799,#1010,#1035,.T.);
#1035 = SURFACE_CURVE('',#1036,(#1041,#1048),.PCURVE_S1.);
#1036 = CIRCLE('',#1037,0.75);
#1037 = AXIS2_PLACEMENT_3D('',#1038,#1039,#1040);
#1038 = CARTESIAN_POINT('',(36.75,0.,99.));
#1039 = DIRECTION('',(0.,0.,-1.));
#1040 = DIRECTION('',(0.,1.,0.));
#1041 = PCURVE('',#234,#1042);
#1042 = DEFINITIONAL_REPRESENTATION('',(#1043),#1047);
#1043 = LINE('',#1044,#1045);
#1044 = CARTESIAN_POINT('',(6.28318530718,1.));
#1045 = VECTOR('',#1046,1.);
#1046 = DIRECTION('',(-1.,0.));
#1047 = ( GEOMETRIC_REPRESENTATION_CONTEXT(2) 
PARAMETRIC_REPRESENTATION_CONTEXT() REPRESENTATION_CONTEXT('2D SPACE',''
  ) );
#1048 = PCURVE('',#814,#1049);
#1049 = DEFINITIONAL_REPRESENTATION('',(#1050),#1053);
#1050 = B_SPLINE_CURVE_WITH_KNOTS('',1,(#1051,#1052),.UNSPECIFIED.,.F.,
  .F.,(2,2),(0.,3.14159265359),.PIECEWISE_BEZIER_KNOTS.);
#1051 = CARTESIAN_POINT('',(0.,0.));
#1052 = CARTESIAN_POINT('',(3.14159265359,0.));
#1053 = ( GEOMETRIC_REPRESENTATION_CONTEXT(2) 
PARAMETRIC_REPRESENTATION_CONTEXT() REPRESENTATION_CONTEXT('2D SPACE',''
  ) );
#1054 = ADVANCED_FACE('',(#1055),#278,.F.);
#1055 = FACE_BOUND('',#1056,.F.);
#1056 = EDGE_LOOP('',(#1057,#1058,#1059,#1087));
#1057 = ORIENTED_EDGE('',*,*,#261,.T.);
#1058 = ORIENTED_EDGE('',*,*,#1009,.T.);
#1059 = ORIENTED_EDGE('',*,*,#1060,.T.);
#1060 = EDGE_CURVE('',#1010,#1061,#1063,.T.);
#1061 = VERTEX_POINT('',#1062);
#1062 = CARTESIAN_POINT('',(-36.75,-0.75,99.));
#1063 = SURFACE_CURVE('',#1064,(#1068,#1075),.PCURVE_S1.);
#1064 = LINE('',#1065,#1066);
#1065 = CARTESIAN_POINT('',(36.75,-0.75,99.));
#1066 = VECTOR('',#1067,1.);
#1067 = DIRECTION('',(-1.,0.,0.));
#1068 = PCURVE('',#278,#1069);
#1069 = DEFINITIONAL_REPRESENTATION('',(#1070),#1074);
#1070 = LINE('',#1071,#1072);
#1071 = CARTESIAN_POINT('',(0.,1.));
#1072 = VECTOR('',#1073,1.);
#1073 = DIRECTION('',(-1.,0.));
#1074 = ( GEOMETRIC_REPRESENTATION_CONTEXT(2) 
PARAMETRIC_REPRESENTATION_CONTEXT() REPRESENTATION_CONTEXT('2D SPACE',''
  ) );
#1075 = PCURVE('',#1076,#1081);
#1076 = PLANE('',#1077);
#1077 = AXIS2_PLACEMENT_3D('',#1078,#1079,#1080);
#1078 = CARTESIAN_POINT('',(36.75,-0.75,99.));
#1079 = DIRECTION('',(0.,-1.,0.));
#1080 = DIRECTION('',(-1.,0.,0.));
#1081 = DEFINITIONAL_REPRESENTATION('',(#1082),#1086);
#1082 = LINE('',#1083,#1084);
#1083 = CARTESIAN_POINT('',(0.,-0.));
#1084 = VECTOR('',#1085,1.);
#1085 = DIRECTION('',(1.,0.));
#1086 = ( GEOMETRIC_REPRESENTATION_CONTEXT(2) 
PARAMETRIC_REPRESENTATION_CONTEXT() REPRESENTATION_CONTEXT('2D SPACE',''
  ) );
#1087 = ORIENTED_EDGE('',*,*,#1088,.F.);
#1088 = EDGE_CURVE('',#262,#1061,#1089,.T.);
#1089 = SURFACE_CURVE('',#1090,(#1093,#1100),.PCURVE_S1.);
#1090 = B_SPLINE_CURVE_WITH_KNOTS('',1,(#1091,#1092),.UNSPECIFIED.,.F.,
  .F.,(2,2),(0.,1.),.PIECEWISE_BEZIER_KNOTS.);
#1091 = CARTESIAN_POINT('',(-37.79213073791,-0.771267974243,0.));
#1092 = CARTESIAN_POINT('',(-36.75,-0.75,99.));
#1093 = PCURVE('',#278,#1094);
#1094 = DEFINITIONAL_REPRESENTATION('',(#1095),#1099);
#1095 = LINE('',#1096,#1097);
#1096 = CARTESIAN_POINT('',(-73.5,0.));
#1097 = VECTOR('',#1098,1.);
#1098 = DIRECTION('',(0.,1.));
#1099 = ( GEOMETRIC_REPRESENTATION_CONTEXT(2) 
PARAMETRIC_REPRESENTATION_CONTEXT() REPRESENTATION_CONTEXT('2D SPACE',''
  ) );
#1100 = PCURVE('',#326,#1101);
#1101 = DEFINITIONAL_REPRESENTATION('',(#1102),#1106);
#1102 = LINE('',#1103,#1104);
#1103 = CARTESIAN_POINT('',(6.28318530718,0.));
#1104 = VECTOR('',#1105,1.);
#1105 = DIRECTION('',(0.,1.));
#1106 = ( GEOMETRIC_REPRESENTATION_CONTEXT(2) 
PARAMETRIC_REPRESENTATION_CONTEXT() REPRESENTATION_CONTEXT('2D SPACE',''
  ) );
#1107 = ADVANCED_FACE('',(#1108),#326,.F.);
#1108 = FACE_BOUND('',#1109,.F.);
#1109 = EDGE_LOOP('',(#1110,#1111,#1112,#1113));
#1110 = ORIENTED_EDGE('',*,*,#402,.F.);
#1111 = ORIENTED_EDGE('',*,*,#309,.T.);
#1112 = ORIENTED_EDGE('',*,*,#1088,.T.);
#1113 = ORIENTED_EDGE('',*,*,#1114,.T.);
#1114 = EDGE_CURVE('',#1061,#403,#1115,.T.);
#1115 = SURFACE_CURVE('',#1116,(#1121,#1128),.PCURVE_S1.);
#1116 = CIRCLE('',#1117,0.75);
#1117 = AXIS2_PLACEMENT_3D('',#1118,#1119,#1120);
#1118 = CARTESIAN_POINT('',(-36.75,0.,99.));
#1119 = DIRECTION('',(-0.,-0.,-1.));
#1120 = DIRECTION('',(0.,-1.,0.));
#1121 = PCURVE('',#326,#1122);
#1122 = DEFINITIONAL_REPRESENTATION('',(#1123),#1127);
#1123 = LINE('',#1124,#1125);
#1124 = CARTESIAN_POINT('',(6.28318530718,1.));
#1125 = VECTOR('',#1126,1.);
#1126 = DIRECTION('',(-1.,0.));
#1127 = ( GEOMETRIC_REPRESENTATION_CONTEXT(2) 
PARAMETRIC_REPRESENTATION_CONTEXT() REPRESENTATION_CONTEXT('2D SPACE',''
  ) );
#1128 = PCURVE('',#462,#1129);
#1129 = DEFINITIONAL_REPRESENTATION('',(#1130),#1133);
#1130 = B_SPLINE_CURVE_WITH_KNOTS('',1,(#1131,#1132),.UNSPECIFIED.,.F.,
  .F.,(2,2),(0.,3.14159265359),.PIECEWISE_BEZIER_KNOTS.);
#1131 = CARTESIAN_POINT('',(0.,0.));
#1132 = CARTESIAN_POINT('',(3.14159265359,0.));
#1133 = ( GEOMETRIC_REPRESENTATION_CONTEXT(2) 
PARAMETRIC_REPRESENTATION_CONTEXT() REPRESENTATION_CONTEXT('2D SPACE',''
  ) );
#1134 = ADVANCED_FACE('',(#1135),#604,.T.);
#1135 = FACE_BOUND('',#1136,.T.);
#1136 = EDGE_LOOP('',(#1137,#1138,#1160,#1161));
#1137 = ORIENTED_EDGE('',*,*,#674,.F.);
#1138 = ORIENTED_EDGE('',*,*,#1139,.F.);
#1139 = EDGE_CURVE('',#563,#675,#1140,.T.);
#1140 = SURFACE_CURVE('',#1141,(#1146,#1153),.PCURVE_S1.);
#1141 = CIRCLE('',#1142,44.75);
#1142 = AXIS2_PLACEMENT_3D('',#1143,#1144,#1145);
#1143 = CARTESIAN_POINT('',(0.,0.,80.7));
#1144 = DIRECTION('',(0.,0.,1.));
#1145 = DIRECTION('',(-0.999999997416,7.18818751455E-05,0.));
#1146 = PCURVE('',#604,#1147);
#1147 = DEFINITIONAL_REPRESENTATION('',(#1148),#1152);
#1148 = LINE('',#1149,#1150);
#1149 = CARTESIAN_POINT('',(3.141664535465,-10.8));
#1150 = VECTOR('',#1151,1.);
#1151 = DIRECTION('',(-1.,0.));
#1152 = ( GEOMETRIC_REPRESENTATION_CONTEXT(2) 
PARAMETRIC_REPRESENTATION_CONTEXT() REPRESENTATION_CONTEXT('2D SPACE',''
  ) );
#1153 = PCURVE('',#578,#1154);
#1154 = DEFINITIONAL_REPRESENTATION('',(#1155),#1159);
#1155 = CIRCLE('',#1156,44.75);
#1156 = AXIS2_PLACEMENT_2D('',#1157,#1158);
#1157 = CARTESIAN_POINT('',(2.933502854163E-15,-4.040240899597E-15));
#1158 = DIRECTION('',(-0.999999997416,7.18818751455E-05));
#1159 = ( GEOMETRIC_REPRESENTATION_CONTEXT(2) 
PARAMETRIC_REPRESENTATION_CONTEXT() REPRESENTATION_CONTEXT('2D SPACE',''
  ) );
#1160 = ORIENTED_EDGE('',*,*,#590,.T.);
#1161 = ORIENTED_EDGE('',*,*,#643,.F.);
#1162 = ADVANCED_FACE('',(#1163),#578,.T.);
#1163 = FACE_BOUND('',#1164,.T.);
#1164 = EDGE_LOOP('',(#1165,#1166,#1167,#1189));
#1165 = ORIENTED_EDGE('',*,*,#1139,.T.);
#1166 = ORIENTED_EDGE('',*,*,#696,.F.);
#1167 = ORIENTED_EDGE('',*,*,#1168,.F.);
#1168 = EDGE_CURVE('',#536,#697,#1169,.T.);
#1169 = SURFACE_CURVE('',#1170,(#1175,#1182),.PCURVE_S1.);
#1170 = CIRCLE('',#1171,39.75);
#1171 = AXIS2_PLACEMENT_3D('',#1172,#1173,#1174);
#1172 = CARTESIAN_POINT('',(0.,0.,80.7));
#1173 = DIRECTION('',(0.,0.,1.));
#1174 = DIRECTION('',(-0.999999996726,8.092362044657E-05,0.));
#1175 = PCURVE('',#578,#1176);
#1176 = DEFINITIONAL_REPRESENTATION('',(#1177),#1181);
#1177 = CIRCLE('',#1178,39.75);
#1178 = AXIS2_PLACEMENT_2D('',#1179,#1180);
#1179 = CARTESIAN_POINT('',(2.933502854163E-15,-4.040240899597E-15));
#1180 = DIRECTION('',(-0.999999996726,8.092362044657E-05));
#1181 = ( GEOMETRIC_REPRESENTATION_CONTEXT(2) 
PARAMETRIC_REPRESENTATION_CONTEXT() REPRESENTATION_CONTEXT('2D SPACE',''
  ) );
#1182 = PCURVE('',#551,#1183);
#1183 = DEFINITIONAL_REPRESENTATION('',(#1184),#1188);
#1184 = LINE('',#1185,#1186);
#1185 = CARTESIAN_POINT('',(3.141673577211,0.));
#1186 = VECTOR('',#1187,1.);
#1187 = DIRECTION('',(-1.,0.));
#1188 = ( GEOMETRIC_REPRESENTATION_CONTEXT(2) 
PARAMETRIC_REPRESENTATION_CONTEXT() REPRESENTATION_CONTEXT('2D SPACE',''
  ) );
#1189 = ORIENTED_EDGE('',*,*,#562,.F.);
#1190 = ADVANCED_FACE('',(#1191),#551,.T.);
#1191 = FACE_BOUND('',#1192,.T.);
#1192 = EDGE_LOOP('',(#1193,#1194,#1216,#1217));
#1193 = ORIENTED_EDGE('',*,*,#719,.F.);
#1194 = ORIENTED_EDGE('',*,*,#1195,.F.);
#1195 = EDGE_CURVE('',#508,#720,#1196,.T.);
#1196 = SURFACE_CURVE('',#1197,(#1202,#1209),.PCURVE_S1.);
#1197 = CIRCLE('',#1198,39.75);
#1198 = AXIS2_PLACEMENT_3D('',#1199,#1200,#1201);
#1199 = CARTESIAN_POINT('',(0.,0.,109.));
#1200 = DIRECTION('',(0.,0.,1.));
#1201 = DIRECTION('',(-0.999999996726,8.092362044657E-05,0.));
#1202 = PCURVE('',#551,#1203);
#1203 = DEFINITIONAL_REPRESENTATION('',(#1204),#1208);
#1204 = LINE('',#1205,#1206);
#1205 = CARTESIAN_POINT('',(3.141673577211,-28.3));
#1206 = VECTOR('',#1207,1.);
#1207 = DIRECTION('',(-1.,0.));
#1208 = ( GEOMETRIC_REPRESENTATION_CONTEXT(2) 
PARAMETRIC_REPRESENTATION_CONTEXT() REPRESENTATION_CONTEXT('2D SPACE',''
  ) );
#1209 = PCURVE('',#523,#1210);
#1210 = DEFINITIONAL_REPRESENTATION('',(#1211),#1215);
#1211 = CIRCLE('',#1212,39.75);
#1212 = AXIS2_PLACEMENT_2D('',#1213,#1214);
#1213 = CARTESIAN_POINT('',(4.403329231825E-15,-5.790076070423E-16));
#1214 = DIRECTION('',(-0.999999996726,8.092362044657E-05));
#1215 = ( GEOMETRIC_REPRESENTATION_CONTEXT(2) 
PARAMETRIC_REPRESENTATION_CONTEXT() REPRESENTATION_CONTEXT('2D SPACE',''
  ) );
#1216 = ORIENTED_EDGE('',*,*,#535,.T.);
#1217 = ORIENTED_EDGE('',*,*,#1168,.T.);
#1218 = ADVANCED_FACE('',(#1219),#523,.T.);
#1219 = FACE_BOUND('',#1220,.T.);
#1220 = EDGE_LOOP('',(#1221,#1222,#1223,#1251,#1279,#1305));
#1221 = ORIENTED_EDGE('',*,*,#1195,.T.);
#1222 = ORIENTED_EDGE('',*,*,#741,.F.);
#1223 = ORIENTED_EDGE('',*,*,#1224,.T.);
#1224 = EDGE_CURVE('',#742,#1225,#1227,.T.);
#1225 = VERTEX_POINT('',#1226);
#1226 = CARTESIAN_POINT('',(36.75,-2.25,109.));
#1227 = SURFACE_CURVE('',#1228,(#1233,#1244),.PCURVE_S1.);
#1228 = CIRCLE('',#1229,2.25);
#1229 = AXIS2_PLACEMENT_3D('',#1230,#1231,#1232);
#1230 = CARTESIAN_POINT('',(36.75,0.,109.));
#1231 = DIRECTION('',(0.,0.,-1.));
#1232 = DIRECTION('',(0.,1.,0.));
#1233 = PCURVE('',#523,#1234);
#1234 = DEFINITIONAL_REPRESENTATION('',(#1235),#1243);
#1235 = ( BOUNDED_CURVE() B_SPLINE_CURVE(2,(#1236,#1237,#1238,#1239,
#1240,#1241,#1242),.UNSPECIFIED.,.T.,.F.) B_SPLINE_CURVE_WITH_KNOTS((1,2
    ,2,2,2,1),(-2.094395102393,0.,2.094395102393,4.188790204786,
6.28318530718,8.377580409573),.UNSPECIFIED.) CURVE() 
GEOMETRIC_REPRESENTATION_ITEM() RATIONAL_B_SPLINE_CURVE((1.,0.5,1.,0.5,
1.,0.5,1.)) REPRESENTATION_ITEM('') );
#1236 = CARTESIAN_POINT('',(36.75,2.25));
#1237 = CARTESIAN_POINT('',(40.64711431703,2.25));
#1238 = CARTESIAN_POINT('',(38.698557158515,-1.125));
#1239 = CARTESIAN_POINT('',(36.75,-4.5));
#1240 = CARTESIAN_POINT('',(34.801442841485,-1.125));
#1241 = CARTESIAN_POINT('',(32.85288568297,2.25));
#1242 = CARTESIAN_POINT('',(36.75,2.25));
#1243 = ( GEOMETRIC_REPRESENTATION_CONTEXT(2) 
PARAMETRIC_REPRESENTATION_CONTEXT() REPRESENTATION_CONTEXT('2D SPACE',''
  ) );
#1244 = PCURVE('',#781,#1245);
#1245 = DEFINITIONAL_REPRESENTATION('',(#1246),#1250);
#1246 = LINE('',#1247,#1248);
#1247 = CARTESIAN_POINT('',(6.28318530718,1.5));
#1248 = VECTOR('',#1249,1.);
#1249 = DIRECTION('',(-1.,0.));
#1250 = ( GEOMETRIC_REPRESENTATION_CONTEXT(2) 
PARAMETRIC_REPRESENTATION_CONTEXT() REPRESENTATION_CONTEXT('2D SPACE',''
  ) );
#1251 = ORIENTED_EDGE('',*,*,#1252,.T.);
#1252 = EDGE_CURVE('',#1225,#1253,#1255,.T.);
#1253 = VERTEX_POINT('',#1254);
#1254 = CARTESIAN_POINT('',(-36.75,-2.25,109.));
#1255 = SURFACE_CURVE('',#1256,(#1260,#1267),.PCURVE_S1.);
#1256 = LINE('',#1257,#1258);
#1257 = CARTESIAN_POINT('',(36.75,-2.25,109.));
#1258 = VECTOR('',#1259,1.);
#1259 = DIRECTION('',(-1.,0.,0.));
#1260 = PCURVE('',#523,#1261);
#1261 = DEFINITIONAL_REPRESENTATION('',(#1262),#1266);
#1262 = LINE('',#1263,#1264);
#1263 = CARTESIAN_POINT('',(36.75,-2.25));
#1264 = VECTOR('',#1265,1.);
#1265 = DIRECTION('',(-1.,0.));
#1266 = ( GEOMETRIC_REPRESENTATION_CONTEXT(2) 
PARAMETRIC_REPRESENTATION_CONTEXT() REPRESENTATION_CONTEXT('2D SPACE',''
  ) );
#1267 = PCURVE('',#1268,#1273);
#1268 = PLANE('',#1269);
#1269 = AXIS2_PLACEMENT_3D('',#1270,#1271,#1272);
#1270 = CARTESIAN_POINT('',(36.75,-2.25,109.));
#1271 = DIRECTION('',(0.,0.707106781187,0.707106781187));
#1272 = DIRECTION('',(-1.,0.,0.));
#1273 = DEFINITIONAL_REPRESENTATION('',(#1274),#1278);
#1274 = LINE('',#1275,#1276);
#1275 = CARTESIAN_POINT('',(0.,0.));
#1276 = VECTOR('',#1277,1.);
#1277 = DIRECTION('',(1.,0.));
#1278 = ( GEOMETRIC_REPRESENTATION_CONTEXT(2) 
PARAMETRIC_REPRESENTATION_CONTEXT() REPRESENTATION_CONTEXT('2D SPACE',''
  ) );
#1279 = ORIENTED_EDGE('',*,*,#1280,.T.);
#1280 = EDGE_CURVE('',#1253,#474,#1281,.T.);
#1281 = SURFACE_CURVE('',#1282,(#1287,#1298),.PCURVE_S1.);
#1282 = CIRCLE('',#1283,2.25);
#1283 = AXIS2_PLACEMENT_3D('',#1284,#1285,#1286);
#1284 = CARTESIAN_POINT('',(-36.75,0.,109.));
#1285 = DIRECTION('',(-0.,-0.,-1.));
#1286 = DIRECTION('',(0.,-1.,0.));
#1287 = PCURVE('',#523,#1288);
#1288 = DEFINITIONAL_REPRESENTATION('',(#1289),#1297);
#1289 = ( BOUNDED_CURVE() B_SPLINE_CURVE(2,(#1290,#1291,#1292,#1293,
#1294,#1295,#1296),.UNSPECIFIED.,.T.,.F.) B_SPLINE_CURVE_WITH_KNOTS((1,2
    ,2,2,2,1),(-2.094395102393,0.,2.094395102393,4.188790204786,
6.28318530718,8.377580409573),.UNSPECIFIED.) CURVE() 
GEOMETRIC_REPRESENTATION_ITEM() RATIONAL_B_SPLINE_CURVE((1.,0.5,1.,0.5,
1.,0.5,1.)) REPRESENTATION_ITEM('') );
#1290 = CARTESIAN_POINT('',(-36.75,-2.25));
#1291 = CARTESIAN_POINT('',(-40.64711431703,-2.25));
#1292 = CARTESIAN_POINT('',(-38.69855715851,1.125));
#1293 = CARTESIAN_POINT('',(-36.75,4.5));
#1294 = CARTESIAN_POINT('',(-34.80144284148,1.125));
#1295 = CARTESIAN_POINT('',(-32.85288568297,-2.25));
#1296 = CARTESIAN_POINT('',(-36.75,-2.25));
#1297 = ( GEOMETRIC_REPRESENTATION_CONTEXT(2) 
PARAMETRIC_REPRESENTATION_CONTEXT() REPRESENTATION_CONTEXT('2D SPACE',''
  ) );
#1298 = PCURVE('',#490,#1299);
#1299 = DEFINITIONAL_REPRESENTATION('',(#1300),#1304);
#1300 = LINE('',#1301,#1302);
#1301 = CARTESIAN_POINT('',(6.28318530718,1.5));
#1302 = VECTOR('',#1303,1.);
#1303 = DIRECTION('',(-1.,0.));
#1304 = ( GEOMETRIC_REPRESENTATION_CONTEXT(2) 
PARAMETRIC_REPRESENTATION_CONTEXT() REPRESENTATION_CONTEXT('2D SPACE',''
  ) );
#1305 = ORIENTED_EDGE('',*,*,#507,.F.);
#1306 = ADVANCED_FACE('',(#1307),#490,.F.);
#1307 = FACE_BOUND('',#1308,.F.);
#1308 = EDGE_LOOP('',(#1309,#1310,#1311,#1335));
#1309 = ORIENTED_EDGE('',*,*,#1280,.T.);
#1310 = ORIENTED_EDGE('',*,*,#473,.F.);
#1311 = ORIENTED_EDGE('',*,*,#1312,.F.);
#1312 = EDGE_CURVE('',#1313,#447,#1315,.T.);
#1313 = VERTEX_POINT('',#1314);
#1314 = CARTESIAN_POINT('',(-36.75,-0.75,107.5));
#1315 = SURFACE_CURVE('',#1316,(#1321,#1328),.PCURVE_S1.);
#1316 = CIRCLE('',#1317,0.75);
#1317 = AXIS2_PLACEMENT_3D('',#1318,#1319,#1320);
#1318 = CARTESIAN_POINT('',(-36.75,0.,107.5));
#1319 = DIRECTION('',(-0.,-0.,-1.));
#1320 = DIRECTION('',(0.,-1.,0.));
#1321 = PCURVE('',#490,#1322);
#1322 = DEFINITIONAL_REPRESENTATION('',(#1323),#1327);
#1323 = LINE('',#1324,#1325);
#1324 = CARTESIAN_POINT('',(6.28318530718,0.));
#1325 = VECTOR('',#1326,1.);
#1326 = DIRECTION('',(-1.,0.));
#1327 = ( GEOMETRIC_REPRESENTATION_CONTEXT(2) 
PARAMETRIC_REPRESENTATION_CONTEXT() REPRESENTATION_CONTEXT('2D SPACE',''
  ) );
#1328 = PCURVE('',#462,#1329);
#1329 = DEFINITIONAL_REPRESENTATION('',(#1330),#1334);
#1330 = LINE('',#1331,#1332);
#1331 = CARTESIAN_POINT('',(0.,-8.5));
#1332 = VECTOR('',#1333,1.);
#1333 = DIRECTION('',(1.,0.));
#1334 = ( GEOMETRIC_REPRESENTATION_CONTEXT(2) 
PARAMETRIC_REPRESENTATION_CONTEXT() REPRESENTATION_CONTEXT('2D SPACE',''
  ) );
#1335 = ORIENTED_EDGE('',*,*,#1336,.T.);
#1336 = EDGE_CURVE('',#1313,#1253,#1337,.T.);
#1337 = SURFACE_CURVE('',#1338,(#1341,#1347),.PCURVE_S1.);
#1338 = B_SPLINE_CURVE_WITH_KNOTS('',1,(#1339,#1340),.UNSPECIFIED.,.F.,
  .F.,(2,2),(0.,1.),.PIECEWISE_BEZIER_KNOTS.);
#1339 = CARTESIAN_POINT('',(-36.75,-0.75,107.5));
#1340 = CARTESIAN_POINT('',(-36.75,-2.25,109.));
#1341 = PCURVE('',#490,#1342);
#1342 = DEFINITIONAL_REPRESENTATION('',(#1343),#1346);
#1343 = B_SPLINE_CURVE_WITH_KNOTS('',1,(#1344,#1345),.UNSPECIFIED.,.F.,
  .F.,(2,2),(0.,1.),.PIECEWISE_BEZIER_KNOTS.);
#1344 = CARTESIAN_POINT('',(6.28318530718,0.));
#1345 = CARTESIAN_POINT('',(6.28318530718,1.5));
#1346 = ( GEOMETRIC_REPRESENTATION_CONTEXT(2) 
PARAMETRIC_REPRESENTATION_CONTEXT() REPRESENTATION_CONTEXT('2D SPACE',''
  ) );
#1347 = PCURVE('',#1268,#1348);
#1348 = DEFINITIONAL_REPRESENTATION('',(#1349),#1352);
#1349 = B_SPLINE_CURVE_WITH_KNOTS('',1,(#1350,#1351),.UNSPECIFIED.,.F.,
  .F.,(2,2),(0.,1.),.PIECEWISE_BEZIER_KNOTS.);
#1350 = CARTESIAN_POINT('',(73.5,-2.12132034356));
#1351 = CARTESIAN_POINT('',(73.5,0.));
#1352 = ( GEOMETRIC_REPRESENTATION_CONTEXT(2) 
PARAMETRIC_REPRESENTATION_CONTEXT() REPRESENTATION_CONTEXT('2D SPACE',''
  ) );
#1353 = ADVANCED_FACE('',(#1354),#462,.F.);
#1354 = FACE_BOUND('',#1355,.F.);
#1355 = EDGE_LOOP('',(#1356,#1357,#1378,#1379));
#1356 = ORIENTED_EDGE('',*,*,#1114,.F.);
#1357 = ORIENTED_EDGE('',*,*,#1358,.T.);
#1358 = EDGE_CURVE('',#1061,#1313,#1359,.T.);
#1359 = SURFACE_CURVE('',#1360,(#1364,#1371),.PCURVE_S1.);
#1360 = LINE('',#1361,#1362);
#1361 = CARTESIAN_POINT('',(-36.75,-0.75,99.));
#1362 = VECTOR('',#1363,1.);
#1363 = DIRECTION('',(0.,0.,1.));
#1364 = PCURVE('',#462,#1365);
#1365 = DEFINITIONAL_REPRESENTATION('',(#1366),#1370);
#1366 = LINE('',#1367,#1368);
#1367 = CARTESIAN_POINT('',(0.,0.));
#1368 = VECTOR('',#1369,1.);
#1369 = DIRECTION('',(0.,-1.));
#1370 = ( GEOMETRIC_REPRESENTATION_CONTEXT(2) 
PARAMETRIC_REPRESENTATION_CONTEXT() REPRESENTATION_CONTEXT('2D SPACE',''
  ) );
#1371 = PCURVE('',#1076,#1372);
#1372 = DEFINITIONAL_REPRESENTATION('',(#1373),#1377);
#1373 = LINE('',#1374,#1375);
#1374 = CARTESIAN_POINT('',(73.5,0.));
#1375 = VECTOR('',#1376,1.);
#1376 = DIRECTION('',(0.,-1.));
#1377 = ( GEOMETRIC_REPRESENTATION_CONTEXT(2) 
PARAMETRIC_REPRESENTATION_CONTEXT() REPRESENTATION_CONTEXT('2D SPACE',''
  ) );
#1378 = ORIENTED_EDGE('',*,*,#1312,.T.);
#1379 = ORIENTED_EDGE('',*,*,#446,.T.);
#1380 = ADVANCED_FACE('',(#1381),#814,.F.);
#1381 = FACE_BOUND('',#1382,.F.);
#1382 = EDGE_LOOP('',(#1383,#1384,#1385,#1409));
#1383 = ORIENTED_EDGE('',*,*,#1034,.F.);
#1384 = ORIENTED_EDGE('',*,*,#798,.F.);
#1385 = ORIENTED_EDGE('',*,*,#1386,.T.);
#1386 = EDGE_CURVE('',#765,#1387,#1389,.T.);
#1387 = VERTEX_POINT('',#1388);
#1388 = CARTESIAN_POINT('',(36.75,-0.75,107.5));
#1389 = SURFACE_CURVE('',#1390,(#1395,#1402),.PCURVE_S1.);
#1390 = CIRCLE('',#1391,0.75);
#1391 = AXIS2_PLACEMENT_3D('',#1392,#1393,#1394);
#1392 = CARTESIAN_POINT('',(36.75,0.,107.5));
#1393 = DIRECTION('',(0.,0.,-1.));
#1394 = DIRECTION('',(0.,1.,0.));
#1395 = PCURVE('',#814,#1396);
#1396 = DEFINITIONAL_REPRESENTATION('',(#1397),#1401);
#1397 = LINE('',#1398,#1399);
#1398 = CARTESIAN_POINT('',(0.,-8.5));
#1399 = VECTOR('',#1400,1.);
#1400 = DIRECTION('',(1.,0.));
#1401 = ( GEOMETRIC_REPRESENTATION_CONTEXT(2) 
PARAMETRIC_REPRESENTATION_CONTEXT() REPRESENTATION_CONTEXT('2D SPACE',''
  ) );
#1402 = PCURVE('',#781,#1403);
#1403 = DEFINITIONAL_REPRESENTATION('',(#1404),#1408);
#1404 = LINE('',#1405,#1406);
#1405 = CARTESIAN_POINT('',(6.28318530718,0.));
#1406 = VECTOR('',#1407,1.);
#1407 = DIRECTION('',(-1.,0.));
#1408 = ( GEOMETRIC_REPRESENTATION_CONTEXT(2) 
PARAMETRIC_REPRESENTATION_CONTEXT() REPRESENTATION_CONTEXT('2D SPACE',''
  ) );
#1409 = ORIENTED_EDGE('',*,*,#1410,.F.);
#1410 = EDGE_CURVE('',#1010,#1387,#1411,.T.);
#1411 = SURFACE_CURVE('',#1412,(#1416,#1423),.PCURVE_S1.);
#1412 = LINE('',#1413,#1414);
#1413 = CARTESIAN_POINT('',(36.75,-0.75,99.));
#1414 = VECTOR('',#1415,1.);
#1415 = DIRECTION('',(0.,0.,1.));
#1416 = PCURVE('',#814,#1417);
#1417 = DEFINITIONAL_REPRESENTATION('',(#1418),#1422);
#1418 = LINE('',#1419,#1420);
#1419 = CARTESIAN_POINT('',(3.14159265359,0.));
#1420 = VECTOR('',#1421,1.);
#1421 = DIRECTION('',(0.,-1.));
#1422 = ( GEOMETRIC_REPRESENTATION_CONTEXT(2) 
PARAMETRIC_REPRESENTATION_CONTEXT() REPRESENTATION_CONTEXT('2D SPACE',''
  ) );
#1423 = PCURVE('',#1076,#1424);
#1424 = DEFINITIONAL_REPRESENTATION('',(#1425),#1429);
#1425 = LINE('',#1426,#1427);
#1426 = CARTESIAN_POINT('',(0.,-0.));
#1427 = VECTOR('',#1428,1.);
#1428 = DIRECTION('',(0.,-1.));
#1429 = ( GEOMETRIC_REPRESENTATION_CONTEXT(2) 
PARAMETRIC_REPRESENTATION_CONTEXT() REPRESENTATION_CONTEXT('2D SPACE',''
  ) );
#1430 = ADVANCED_FACE('',(#1431),#781,.F.);
#1431 = FACE_BOUND('',#1432,.F.);
#1432 = EDGE_LOOP('',(#1433,#1434,#1452,#1453));
#1433 = ORIENTED_EDGE('',*,*,#1224,.T.);
#1434 = ORIENTED_EDGE('',*,*,#1435,.F.);
#1435 = EDGE_CURVE('',#1387,#1225,#1436,.T.);
#1436 = SURFACE_CURVE('',#1437,(#1440,#1446),.PCURVE_S1.);
#1437 = B_SPLINE_CURVE_WITH_KNOTS('',1,(#1438,#1439),.UNSPECIFIED.,.F.,
  .F.,(2,2),(0.,1.),.PIECEWISE_BEZIER_KNOTS.);
#1438 = CARTESIAN_POINT('',(36.75,-0.75,107.5));
#1439 = CARTESIAN_POINT('',(36.75,-2.25,109.));
#1440 = PCURVE('',#781,#1441);
#1441 = DEFINITIONAL_REPRESENTATION('',(#1442),#1445);
#1442 = B_SPLINE_CURVE_WITH_KNOTS('',1,(#1443,#1444),.UNSPECIFIED.,.F.,
  .F.,(2,2),(0.,1.),.PIECEWISE_BEZIER_KNOTS.);
#1443 = CARTESIAN_POINT('',(3.14159265359,0.));
#1444 = CARTESIAN_POINT('',(3.14159265359,1.5));
#1445 = ( GEOMETRIC_REPRESENTATION_CONTEXT(2) 
PARAMETRIC_REPRESENTATION_CONTEXT() REPRESENTATION_CONTEXT('2D SPACE',''
  ) );
#1446 = PCURVE('',#1268,#1447);
#1447 = DEFINITIONAL_REPRESENTATION('',(#1448),#1451);
#1448 = B_SPLINE_CURVE_WITH_KNOTS('',1,(#1449,#1450),.UNSPECIFIED.,.F.,
  .F.,(2,2),(0.,1.),.PIECEWISE_BEZIER_KNOTS.);
#1449 = CARTESIAN_POINT('',(0.,-2.12132034356));
#1450 = CARTESIAN_POINT('',(0.,0.));
#1451 = ( GEOMETRIC_REPRESENTATION_CONTEXT(2) 
PARAMETRIC_REPRESENTATION_CONTEXT() REPRESENTATION_CONTEXT('2D SPACE',''
  ) );
#1452 = ORIENTED_EDGE('',*,*,#1386,.F.);
#1453 = ORIENTED_EDGE('',*,*,#764,.F.);
#1454 = ADVANCED_FACE('',(#1455),#1076,.F.);
#1455 = FACE_BOUND('',#1456,.F.);
#1456 = EDGE_LOOP('',(#1457,#1458,#1459,#1480));
#1457 = ORIENTED_EDGE('',*,*,#1060,.F.);
#1458 = ORIENTED_EDGE('',*,*,#1410,.T.);
#1459 = ORIENTED_EDGE('',*,*,#1460,.T.);
#1460 = EDGE_CURVE('',#1387,#1313,#1461,.T.);
#1461 = SURFACE_CURVE('',#1462,(#1466,#1473),.PCURVE_S1.);
#1462 = LINE('',#1463,#1464);
#1463 = CARTESIAN_POINT('',(36.75,-0.75,107.5));
#1464 = VECTOR('',#1465,1.);
#1465 = DIRECTION('',(-1.,0.,0.));
#1466 = PCURVE('',#1076,#1467);
#1467 = DEFINITIONAL_REPRESENTATION('',(#1468),#1472);
#1468 = LINE('',#1469,#1470);
#1469 = CARTESIAN_POINT('',(0.,-8.5));
#1470 = VECTOR('',#1471,1.);
#1471 = DIRECTION('',(1.,0.));
#1472 = ( GEOMETRIC_REPRESENTATION_CONTEXT(2) 
PARAMETRIC_REPRESENTATION_CONTEXT() REPRESENTATION_CONTEXT('2D SPACE',''
  ) );
#1473 = PCURVE('',#1268,#1474);
#1474 = DEFINITIONAL_REPRESENTATION('',(#1475),#1479);
#1475 = LINE('',#1476,#1477);
#1476 = CARTESIAN_POINT('',(0.,-2.12132034356));
#1477 = VECTOR('',#1478,1.);
#1478 = DIRECTION('',(1.,0.));
#1479 = ( GEOMETRIC_REPRESENTATION_CONTEXT(2) 
PARAMETRIC_REPRESENTATION_CONTEXT() REPRESENTATION_CONTEXT('2D SPACE',''
  ) );
#1480 = ORIENTED_EDGE('',*,*,#1358,.F.);
#1481 = ADVANCED_FACE('',(#1482),#1268,.T.);
#1482 = FACE_BOUND('',#1483,.T.);
#1483 = EDGE_LOOP('',(#1484,#1485,#1486,#1487));
#1484 = ORIENTED_EDGE('',*,*,#1460,.T.);
#1485 = ORIENTED_EDGE('',*,*,#1336,.T.);
#1486 = ORIENTED_EDGE('',*,*,#1252,.F.);
#1487 = ORIENTED_EDGE('',*,*,#1435,.F.);
#1488 = ORIENTED_CLOSED_SHELL('',*,#1489,.F.);
#1489 = CLOSED_SHELL('',(#1490,#1578,#1582));
#1490 = ADVANCED_FACE('',(#1491),#1504,.T.);
#1491 = FACE_BOUND('',#1492,.T.);
#1492 = EDGE_LOOP('',(#1493,#1527,#1550,#1577));
#1493 = ORIENTED_EDGE('',*,*,#1494,.T.);
#1494 = EDGE_CURVE('',#1495,#1495,#1497,.T.);
#1495 = VERTEX_POINT('',#1496);
#1496 = CARTESIAN_POINT('',(-39.5,0.,54.5));
#1497 = SURFACE_CURVE('',#1498,(#1503,#1515),.PCURVE_S1.);
#1498 = CIRCLE('',#1499,2.);
#1499 = AXIS2_PLACEMENT_3D('',#1500,#1501,#1502);
#1500 = CARTESIAN_POINT('',(-41.5,0.,54.5));
#1501 = DIRECTION('',(0.,-1.,0.));
#1502 = DIRECTION('',(1.,0.,0.));
#1503 = PCURVE('',#1504,#1509);
#1504 = CYLINDRICAL_SURFACE('',#1505,2.);
#1505 = AXIS2_PLACEMENT_3D('',#1506,#1507,#1508);
#1506 = CARTESIAN_POINT('',(-41.5,0.,54.5));
#1507 = DIRECTION('',(0.,1.,0.));
#1508 = DIRECTION('',(1.,0.,0.));
#1509 = DEFINITIONAL_REPRESENTATION('',(#1510),#1514);
#1510 = LINE('',#1511,#1512);
#1511 = CARTESIAN_POINT('',(6.28318530718,0.));
#1512 = VECTOR('',#1513,1.);
#1513 = DIRECTION('',(-1.,0.));
#1514 = ( GEOMETRIC_REPRESENTATION_CONTEXT(2) 
PARAMETRIC_REPRESENTATION_CONTEXT() REPRESENTATION_CONTEXT('2D SPACE',''
  ) );
#1515 = PCURVE('',#1516,#1521);
#1516 = PLANE('',#1517);
#1517 = AXIS2_PLACEMENT_3D('',#1518,#1519,#1520);
#1518 = CARTESIAN_POINT('',(-41.5,0.,54.5));
#1519 = DIRECTION('',(-0.,-1.,-0.));
#1520 = DIRECTION('',(0.,0.,-1.));
#1521 = DEFINITIONAL_REPRESENTATION('',(#1522),#1526);
#1522 = CIRCLE('',#1523,2.);
#1523 = AXIS2_PLACEMENT_2D('',#1524,#1525);
#1524 = CARTESIAN_POINT('',(0.,0.));
#1525 = DIRECTION('',(0.,1.));
#1526 = ( GEOMETRIC_REPRESENTATION_CONTEXT(2) 
PARAMETRIC_REPRESENTATION_CONTEXT() REPRESENTATION_CONTEXT('2D SPACE',''
  ) );
#1527 = ORIENTED_EDGE('',*,*,#1528,.T.);
#1528 = EDGE_CURVE('',#1495,#1529,#1531,.T.);
#1529 = VERTEX_POINT('',#1530);
#1530 = CARTESIAN_POINT('',(-39.5,-12.,54.5));
#1531 = SEAM_CURVE('',#1532,(#1536,#1543),.PCURVE_S1.);
#1532 = LINE('',#1533,#1534);
#1533 = CARTESIAN_POINT('',(-39.5,0.,54.5));
#1534 = VECTOR('',#1535,1.);
#1535 = DIRECTION('',(0.,-1.,0.));
#1536 = PCURVE('',#1504,#1537);
#1537 = DEFINITIONAL_REPRESENTATION('',(#1538),#1542);
#1538 = LINE('',#1539,#1540);
#1539 = CARTESIAN_POINT('',(-4.138911435803E-13,0.));
#1540 = VECTOR('',#1541,1.);
#1541 = DIRECTION('',(-0.,-1.));
#1542 = ( GEOMETRIC_REPRESENTATION_CONTEXT(2) 
PARAMETRIC_REPRESENTATION_CONTEXT() REPRESENTATION_CONTEXT('2D SPACE',''
  ) );
#1543 = PCURVE('',#1504,#1544);
#1544 = DEFINITIONAL_REPRESENTATION('',(#1545),#1549);
#1545 = LINE('',#1546,#1547);
#1546 = CARTESIAN_POINT('',(6.28318530718,0.));
#1547 = VECTOR('',#1548,1.);
#1548 = DIRECTION('',(-0.,-1.));
#1549 = ( GEOMETRIC_REPRESENTATION_CONTEXT(2) 
PARAMETRIC_REPRESENTATION_CONTEXT() REPRESENTATION_CONTEXT('2D SPACE',''
  ) );
#1550 = ORIENTED_EDGE('',*,*,#1551,.F.);
#1551 = EDGE_CURVE('',#1529,#1529,#1552,.T.);
#1552 = SURFACE_CURVE('',#1553,(#1558,#1565),.PCURVE_S1.);
#1553 = CIRCLE('',#1554,2.);
#1554 = AXIS2_PLACEMENT_3D('',#1555,#1556,#1557);
#1555 = CARTESIAN_POINT('',(-41.5,-12.,54.5));
#1556 = DIRECTION('',(0.,-1.,0.));
#1557 = DIRECTION('',(1.,0.,0.));
#1558 = PCURVE('',#1504,#1559);
#1559 = DEFINITIONAL_REPRESENTATION('',(#1560),#1564);
#1560 = LINE('',#1561,#1562);
#1561 = CARTESIAN_POINT('',(6.28318530718,-12.));
#1562 = VECTOR('',#1563,1.);
#1563 = DIRECTION('',(-1.,0.));
#1564 = ( GEOMETRIC_REPRESENTATION_CONTEXT(2) 
PARAMETRIC_REPRESENTATION_CONTEXT() REPRESENTATION_CONTEXT('2D SPACE',''
  ) );
#1565 = PCURVE('',#1566,#1571);
#1566 = PLANE('',#1567);
#1567 = AXIS2_PLACEMENT_3D('',#1568,#1569,#1570);
#1568 = CARTESIAN_POINT('',(-41.5,-12.,54.5));
#1569 = DIRECTION('',(-0.,-1.,-0.));
#1570 = DIRECTION('',(0.,0.,-1.));
#1571 = DEFINITIONAL_REPRESENTATION('',(#1572),#1576);
#1572 = CIRCLE('',#1573,2.);
#1573 = AXIS2_PLACEMENT_2D('',#1574,#1575);
#1574 = CARTESIAN_POINT('',(0.,0.));
#1575 = DIRECTION('',(0.,1.));
#1576 = ( GEOMETRIC_REPRESENTATION_CONTEXT(2) 
PARAMETRIC_REPRESENTATION_CONTEXT() REPRESENTATION_CONTEXT('2D SPACE',''
  ) );
#1577 = ORIENTED_EDGE('',*,*,#1528,.F.);
#1578 = ADVANCED_FACE('',(#1579),#1516,.F.);
#1579 = FACE_BOUND('',#1580,.F.);
#1580 = EDGE_LOOP('',(#1581));
#1581 = ORIENTED_EDGE('',*,*,#1494,.T.);
#1582 = ADVANCED_FACE('',(#1583),#1566,.T.);
#1583 = FACE_BOUND('',#1584,.T.);
#1584 = EDGE_LOOP('',(#1585));
#1585 = ORIENTED_EDGE('',*,*,#1551,.T.);
#1586 = ORIENTED_CLOSED_SHELL('',*,#1587,.F.);
#1587 = CLOSED_SHELL('',(#1588,#1676,#1680));
#1588 = ADVANCED_FACE('',(#1589),#1602,.T.);
#1589 = FACE_BOUND('',#1590,.T.);
#1590 = EDGE_LOOP('',(#1591,#1625,#1648,#1675));
#1591 = ORIENTED_EDGE('',*,*,#1592,.T.);
#1592 = EDGE_CURVE('',#1593,#1593,#1595,.T.);
#1593 = VERTEX_POINT('',#1594);
#1594 = CARTESIAN_POINT('',(43.5,0.,54.5));
#1595 = SURFACE_CURVE('',#1596,(#1601,#1613),.PCURVE_S1.);
#1596 = CIRCLE('',#1597,2.);
#1597 = AXIS2_PLACEMENT_3D('',#1598,#1599,#1600);
#1598 = CARTESIAN_POINT('',(41.5,0.,54.5));
#1599 = DIRECTION('',(0.,-1.,0.));
#1600 = DIRECTION('',(1.,0.,0.));
#1601 = PCURVE('',#1602,#1607);
#1602 = CYLINDRICAL_SURFACE('',#1603,2.);
#1603 = AXIS2_PLACEMENT_3D('',#1604,#1605,#1606);
#1604 = CARTESIAN_POINT('',(41.5,0.,54.5));
#1605 = DIRECTION('',(0.,1.,0.));
#1606 = DIRECTION('',(1.,0.,0.));
#1607 = DEFINITIONAL_REPRESENTATION('',(#1608),#1612);
#1608 = LINE('',#1609,#1610);
#1609 = CARTESIAN_POINT('',(6.28318530718,0.));
#1610 = VECTOR('',#1611,1.);
#1611 = DIRECTION('',(-1.,0.));
#1612 = ( GEOMETRIC_REPRESENTATION_CONTEXT(2) 
PARAMETRIC_REPRESENTATION_CONTEXT() REPRESENTATION_CONTEXT('2D SPACE',''
  ) );
#1613 = PCURVE('',#1614,#1619);
#1614 = PLANE('',#1615);
#1615 = AXIS2_PLACEMENT_3D('',#1616,#1617,#1618);
#1616 = CARTESIAN_POINT('',(41.5,0.,54.5));
#1617 = DIRECTION('',(-0.,-1.,-0.));
#1618 = DIRECTION('',(0.,0.,-1.));
#1619 = DEFINITIONAL_REPRESENTATION('',(#1620),#1624);
#1620 = CIRCLE('',#1621,2.);
#1621 = AXIS2_PLACEMENT_2D('',#1622,#1623);
#1622 = CARTESIAN_POINT('',(0.,0.));
#1623 = DIRECTION('',(0.,1.));
#1624 = ( GEOMETRIC_REPRESENTATION_CONTEXT(2) 
PARAMETRIC_REPRESENTATION_CONTEXT() REPRESENTATION_CONTEXT('2D SPACE',''
  ) );
#1625 = ORIENTED_EDGE('',*,*,#1626,.T.);
#1626 = EDGE_CURVE('',#1593,#1627,#1629,.T.);
#1627 = VERTEX_POINT('',#1628);
#1628 = CARTESIAN_POINT('',(43.5,-12.,54.5));
#1629 = SEAM_CURVE('',#1630,(#1634,#1641),.PCURVE_S1.);
#1630 = LINE('',#1631,#1632);
#1631 = CARTESIAN_POINT('',(43.5,0.,54.5));
#1632 = VECTOR('',#1633,1.);
#1633 = DIRECTION('',(0.,-1.,0.));
#1634 = PCURVE('',#1602,#1635);
#1635 = DEFINITIONAL_REPRESENTATION('',(#1636),#1640);
#1636 = LINE('',#1637,#1638);
#1637 = CARTESIAN_POINT('',(-4.138911435803E-13,0.));
#1638 = VECTOR('',#1639,1.);
#1639 = DIRECTION('',(-0.,-1.));
#1640 = ( GEOMETRIC_REPRESENTATION_CONTEXT(2) 
PARAMETRIC_REPRESENTATION_CONTEXT() REPRESENTATION_CONTEXT('2D SPACE',''
  ) );
#1641 = PCURVE('',#1602,#1642);
#1642 = DEFINITIONAL_REPRESENTATION('',(#1643),#1647);
#1643 = LINE('',#1644,#1645);
#1644 = CARTESIAN_POINT('',(6.28318530718,0.));
#1645 = VECTOR('',#1646,1.);
#1646 = DIRECTION('',(-0.,-1.));
#1647 = ( GEOMETRIC_REPRESENTATION_CONTEXT(2) 
PARAMETRIC_REPRESENTATION_CONTEXT() REPRESENTATION_CONTEXT('2D SPACE',''
  ) );
#1648 = ORIENTED_EDGE('',*,*,#1649,.F.);
#1649 = EDGE_CURVE('',#1627,#1627,#1650,.T.);
#1650 = SURFACE_CURVE('',#1651,(#1656,#1663),.PCURVE_S1.);
#1651 = CIRCLE('',#1652,2.);
#1652 = AXIS2_PLACEMENT_3D('',#1653,#1654,#1655);
#1653 = CARTESIAN_POINT('',(41.5,-12.,54.5));
#1654 = DIRECTION('',(0.,-1.,0.));
#1655 = DIRECTION('',(1.,0.,0.));
#1656 = PCURVE('',#1602,#1657);
#1657 = DEFINITIONAL_REPRESENTATION('',(#1658),#1662);
#1658 = LINE('',#1659,#1660);
#1659 = CARTESIAN_POINT('',(6.28318530718,-12.));
#1660 = VECTOR('',#1661,1.);
#1661 = DIRECTION('',(-1.,0.));
#1662 = ( GEOMETRIC_REPRESENTATION_CONTEXT(2) 
PARAMETRIC_REPRESENTATION_CONTEXT() REPRESENTATION_CONTEXT('2D SPACE',''
  ) );
#1663 = PCURVE('',#1664,#1669);
#1664 = PLANE('',#1665);
#1665 = AXIS2_PLACEMENT_3D('',#1666,#1667,#1668);
#1666 = CARTESIAN_POINT('',(41.5,-12.,54.5));
#1667 = DIRECTION('',(-0.,-1.,-0.));
#1668 = DIRECTION('',(0.,0.,-1.));
#1669 = DEFINITIONAL_REPRESENTATION('',(#1670),#1674);
#1670 = CIRCLE('',#1671,2.);
#1671 = AXIS2_PLACEMENT_2D('',#1672,#1673);
#1672 = CARTESIAN_POINT('',(0.,0.));
#1673 = DIRECTION('',(0.,1.));
#1674 = ( GEOMETRIC_REPRESENTATION_CONTEXT(2) 
PARAMETRIC_REPRESENTATION_CONTEXT() REPRESENTATION_CONTEXT('2D SPACE',''
  ) );
#1675 = ORIENTED_EDGE('',*,*,#1626,.F.);
#1676 = ADVANCED_FACE('',(#1677),#1614,.F.);
#1677 = FACE_BOUND('',#1678,.F.);
#1678 = EDGE_LOOP('',(#1679));
#1679 = ORIENTED_EDGE('',*,*,#1592,.T.);
#1680 = ADVANCED_FACE('',(#1681),#1664,.T.);
#1681 = FACE_BOUND('',#1682,.T.);
#1682 = EDGE_LOOP('',(#1683));
#1683 = ORIENTED_EDGE('',*,*,#1649,.T.);
#1684 = ( GEOMETRIC_REPRESENTATION_CONTEXT(3) 
GLOBAL_UNCERTAINTY_ASSIGNED_CONTEXT((#1688)) 
GLOBAL_UNIT_ASSIGNED_CONTEXT((#1685,#1686,#1687)) REPRESENTATION_CONTEXT
('Context #1','3D Context with UNIT and UNCERTAINTY') );
#1685 = ( LENGTH_UNIT() NAMED_UNIT(*) SI_UNIT(.MILLI.,.METRE.) );
#1686 = ( NAMED_UNIT(*) PLANE_ANGLE_UNIT() SI_UNIT($,.RADIAN.) );
#1687 = ( NAMED_UNIT(*) SI_UNIT($,.STERADIAN.) SOLID_ANGLE_UNIT() );
#1688 = UNCERTAINTY_MEASURE_WITH_UNIT(LENGTH_MEASURE(1.E-07),#1685,
  'distance_accuracy_value','confusion accuracy');
#1689 = PRODUCT_RELATED_PRODUCT_CATEGORY('part',$,(#7));
ENDSEC;
END-ISO-10303-21;
