ISO-10303-21;
HEADER;
FILE_DESCRIPTION(('Open CASCADE Model'),'2;1');
FILE_NAME('Open CASCADE Shape Model','2026-09-23T18:50:06',('Author'),(
    'Open CASCADE'),'Open CASCADE STEP processor 7.9','Open CASCADE 7.9'
  ,'Unknown');
FILE_SCHEMA(('AUTOMOTIVE_DESIGN { 1 0 10303 214 1 1 1 1 }'));
ENDSEC;
DATA;
#1 = APPLICATION_PROTOCOL_DEFINITION('international standard',
  'automotive_design',2000,#2);
#2 = APPLICATION_CONTEXT(
  'core data for automotive mechanical design processes');
#3 = SHAPE_DEFINITION_REPRESENTATION(#4,#10);
#4 = PRODUCT_DEFINITION_SHAPE('','',#5);
#5 = PRODUCT_DEFINITION('design','',#6,#9);
#6 = PRODUCT_DEFINITION_FORMATION('','',#7);
#7 = PRODUCT('Open CASCADE STEP translator 7.9 1',
  'Open CASCADE STEP translator 7.9 1','',(#8));
#8 = PRODUCT_CONTEXT('',#2,'mechanical');
#9 = PRODUCT_DEFINITION_CONTEXT('part definition',#2,'design');
#10 = ADVANCED_BREP_SHAPE_REPRESENTATION('',(#11,#15),#1494);
#11 = AXIS2_PLACEMENT_3D('',#12,#13,#14);
#12 = CARTESIAN_POINT('',(0.,0.,0.));
#13 = DIRECTION('',(0.,0.,1.));
#14 = DIRECTION('',(1.,0.,-0.));
#15 = MANIFOLD_SOLID_BREP('',#16);
#16 = CLOSED_SHELL('',(#17,#105,#387,#483,#593,#674,#795,#871,#937,#1018
    ,#1073,#1108,#1158,#1310,#1334,#1341,#1368,#1394,#1428,#1453,#1480,
    #1487));
#17 = ADVANCED_FACE('',(#18),#31,.T.);
#18 = FACE_BOUND('',#19,.T.);
#19 = EDGE_LOOP('',(#20,#54,#77,#104));
#20 = ORIENTED_EDGE('',*,*,#21,.F.);
#21 = EDGE_CURVE('',#22,#22,#24,.T.);
#22 = VERTEX_POINT('',#23);
#23 = CARTESIAN_POINT('',(47.,-1.151167991199E-14,69.9));
#24 = SURFACE_CURVE('',#25,(#30,#42),.PCURVE_S1.);
#25 = CIRCLE('',#26,47.);
#26 = AXIS2_PLACEMENT_3D('',#27,#28,#29);
#27 = CARTESIAN_POINT('',(0.,0.,69.9));
#28 = DIRECTION('',(0.,0.,1.));
#29 = DIRECTION('',(1.,0.,-0.));
#30 = PCURVE('',#31,#36);
#31 = CYLINDRICAL_SURFACE('',#32,47.);
#32 = AXIS2_PLACEMENT_3D('',#33,#34,#35);
#33 = CARTESIAN_POINT('',(0.,0.,0.));
#34 = DIRECTION('',(0.,0.,1.));
#35 = DIRECTION('',(1.,0.,-0.));
#36 = DEFINITIONAL_REPRESENTATION('',(#37),#41);
#37 = LINE('',#38,#39);
#38 = CARTESIAN_POINT('',(0.,69.9));
#39 = VECTOR('',#40,1.);
#40 = DIRECTION('',(1.,0.));
#41 = ( GEOMETRIC_REPRESENTATION_CONTEXT(2) 
PARAMETRIC_REPRESENTATION_CONTEXT() REPRESENTATION_CONTEXT('2D SPACE',''
  ) );
#42 = PCURVE('',#43,#48);
#43 = PLANE('',#44);
#44 = AXIS2_PLACEMENT_3D('',#45,#46,#47);
#45 = CARTESIAN_POINT('',(0.,0.,69.9));
#46 = DIRECTION('',(0.,0.,1.));
#47 = DIRECTION('',(1.,0.,-0.));
#48 = DEFINITIONAL_REPRESENTATION('',(#49),#53);
#49 = CIRCLE('',#50,47.);
#50 = AXIS2_PLACEMENT_2D('',#51,#52);
#51 = CARTESIAN_POINT('',(0.,0.));
#52 = DIRECTION('',(1.,0.));
#53 = ( GEOMETRIC_REPRESENTATION_CONTEXT(2) 
PARAMETRIC_REPRESENTATION_CONTEXT() REPRESENTATION_CONTEXT('2D SPACE',''
  ) );
#54 = ORIENTED_EDGE('',*,*,#55,.F.);
#55 = EDGE_CURVE('',#56,#22,#58,.T.);
#56 = VERTEX_POINT('',#57);
#57 = CARTESIAN_POINT('',(47.,-1.151167991199E-14,0.));
#58 = SEAM_CURVE('',#59,(#63,#70),.PCURVE_S1.);
#59 = LINE('',#60,#61);
#60 = CARTESIAN_POINT('',(47.,-1.151167991199E-14,0.));
#61 = VECTOR('',#62,1.);
#62 = DIRECTION('',(0.,0.,1.));
#63 = PCURVE('',#31,#64);
#64 = DEFINITIONAL_REPRESENTATION('',(#65),#69);
#65 = LINE('',#66,#67);
#66 = CARTESIAN_POINT('',(6.28318530718,-0.));
#67 = VECTOR('',#68,1.);
#68 = DIRECTION('',(0.,1.));
#69 = ( GEOMETRIC_REPRESENTATION_CONTEXT(2) 
PARAMETRIC_REPRESENTATION_CONTEXT() REPRESENTATION_CONTEXT('2D SPACE',''
  ) );
#70 = PCURVE('',#31,#71);
#71 = DEFINITIONAL_REPRESENTATION('',(#72),#76);
#72 = LINE('',#73,#74);
#73 = CARTESIAN_POINT('',(0.,-0.));
#74 = VECTOR('',#75,1.);
#75 = DIRECTION('',(0.,1.));
#76 = ( GEOMETRIC_REPRESENTATION_CONTEXT(2) 
PARAMETRIC_REPRESENTATION_CONTEXT() REPRESENTATION_CONTEXT('2D SPACE',''
  ) );
#77 = ORIENTED_EDGE('',*,*,#78,.T.);
#78 = EDGE_CURVE('',#56,#56,#79,.T.);
#79 = SURFACE_CURVE('',#80,(#85,#92),.PCURVE_S1.);
#80 = CIRCLE('',#81,47.);
#81 = AXIS2_PLACEMENT_3D('',#82,#83,#84);
#82 = CARTESIAN_POINT('',(0.,0.,0.));
#83 = DIRECTION('',(0.,0.,1.));
#84 = DIRECTION('',(1.,0.,-0.));
#85 = PCURVE('',#31,#86);
#86 = DEFINITIONAL_REPRESENTATION('',(#87),#91);
#87 = LINE('',#88,#89);
#88 = CARTESIAN_POINT('',(0.,0.));
#89 = VECTOR('',#90,1.);
#90 = DIRECTION('',(1.,0.));
#91 = ( GEOMETRIC_REPRESENTATION_CONTEXT(2) 
PARAMETRIC_REPRESENTATION_CONTEXT() REPRESENTATION_CONTEXT('2D SPACE',''
  ) );
#92 = PCURVE('',#93,#98);
#93 = PLANE('',#94);
#94 = AXIS2_PLACEMENT_3D('',#95,#96,#97);
#95 = CARTESIAN_POINT('',(0.,0.,0.));
#96 = DIRECTION('',(0.,0.,1.));
#97 = DIRECTION('',(1.,0.,-0.));
#98 = DEFINITIONAL_REPRESENTATION('',(#99),#103);
#99 = CIRCLE('',#100,47.);
#100 = AXIS2_PLACEMENT_2D('',#101,#102);
#101 = CARTESIAN_POINT('',(0.,0.));
#102 = DIRECTION('',(1.,0.));
#103 = ( GEOMETRIC_REPRESENTATION_CONTEXT(2) 
PARAMETRIC_REPRESENTATION_CONTEXT() REPRESENTATION_CONTEXT('2D SPACE',''
  ) );
#104 = ORIENTED_EDGE('',*,*,#55,.T.);
#105 = ADVANCED_FACE('',(#106,#109),#93,.F.);
#106 = FACE_BOUND('',#107,.F.);
#107 = EDGE_LOOP('',(#108));
#108 = ORIENTED_EDGE('',*,*,#78,.T.);
#109 = FACE_BOUND('',#110,.F.);
#110 = EDGE_LOOP('',(#111,#161,#205,#249,#297,#345));
#111 = ORIENTED_EDGE('',*,*,#112,.F.);
#112 = EDGE_CURVE('',#113,#115,#117,.T.);
#113 = VERTEX_POINT('',#114);
#114 = CARTESIAN_POINT('',(-37.79213073791,-0.771267974243,0.));
#115 = VERTEX_POINT('',#116);
#116 = CARTESIAN_POINT('',(37.792130737918,-0.771267974243,0.));
#117 = SURFACE_CURVE('',#118,(#123,#130),.PCURVE_S1.);
#118 = CIRCLE('',#119,37.8);
#119 = AXIS2_PLACEMENT_3D('',#120,#121,#122);
#120 = CARTESIAN_POINT('',(0.,0.,0.));
#121 = DIRECTION('',(0.,0.,1.));
#122 = DIRECTION('',(1.,0.,0.));
#123 = PCURVE('',#93,#124);
#124 = DEFINITIONAL_REPRESENTATION('',(#125),#129);
#125 = CIRCLE('',#126,37.8);
#126 = AXIS2_PLACEMENT_2D('',#127,#128);
#127 = CARTESIAN_POINT('',(0.,0.));
#128 = DIRECTION('',(1.,0.));
#129 = ( GEOMETRIC_REPRESENTATION_CONTEXT(2) 
PARAMETRIC_REPRESENTATION_CONTEXT() REPRESENTATION_CONTEXT('2D SPACE',''
  ) );
#130 = PCURVE('',#131,#156);
#131 = B_SPLINE_SURFACE_WITH_KNOTS('',11,1,(
    (#132,#133)
    ,(#134,#135)
    ,(#136,#137)
    ,(#138,#139)
    ,(#140,#141)
    ,(#142,#143)
    ,(#144,#145)
    ,(#146,#147)
    ,(#148,#149)
    ,(#150,#151)
    ,(#152,#153)
    ,(#154,#155
    )),.UNSPECIFIED.,.F.,.F.,.F.,(12,12),(2,2),(-73.5,0.),(0.,1.),
  .PIECEWISE_BEZIER_KNOTS.);
#132 = CARTESIAN_POINT('',(-37.79213073791,-0.771267974243,0.));
#133 = CARTESIAN_POINT('',(-36.75,-0.75,99.));
#134 = CARTESIAN_POINT('',(-37.57471857012,-11.42446419602,0.));
#135 = CARTESIAN_POINT('',(-30.06818181818,-0.75,99.));
#136 = CARTESIAN_POINT('',(-34.05398244305,-22.01024492189,0.));
#137 = CARTESIAN_POINT('',(-23.38636363636,-0.75,99.));
#138 = CARTESIAN_POINT('',(-27.25314953237,-31.390518583,0.));
#139 = CARTESIAN_POINT('',(-16.70454545454,-0.75,99.));
#140 = CARTESIAN_POINT('',(-17.63656680973,-38.43615531257,0.));
#141 = CARTESIAN_POINT('',(-10.02272727272,-0.75,99.));
#142 = CARTESIAN_POINT('',(-6.105738169345,-42.22257429826,0.));
#143 = CARTESIAN_POINT('',(-3.340909090909,-0.75,99.));
#144 = CARTESIAN_POINT('',(6.105738169345,-42.22257429824,0.));
#145 = CARTESIAN_POINT('',(3.340909090909,-0.75,99.));
#146 = CARTESIAN_POINT('',(17.636566809734,-38.43615531259,0.));
#147 = CARTESIAN_POINT('',(10.022727272727,-0.75,99.));
#148 = CARTESIAN_POINT('',(27.253149532378,-31.39051858299,0.));
#149 = CARTESIAN_POINT('',(16.704545454545,-0.75,99.));
#150 = CARTESIAN_POINT('',(34.053982443054,-22.01024492189,0.));
#151 = CARTESIAN_POINT('',(23.386363636364,-0.75,99.));
#152 = CARTESIAN_POINT('',(37.574718570127,-11.42446419602,0.));
#153 = CARTESIAN_POINT('',(30.068181818182,-0.75,99.));
#154 = CARTESIAN_POINT('',(37.792130737918,-0.771267974243,0.));
#155 = CARTESIAN_POINT('',(36.75,-0.75,99.));
#156 = DEFINITIONAL_REPRESENTATION('',(#157),#160);
#157 = B_SPLINE_CURVE_WITH_KNOTS('',1,(#158,#159),.UNSPECIFIED.,.F.,.F.,
  (2,2),(3.161997984276,6.262779976493),.PIECEWISE_BEZIER_KNOTS.);
#158 = CARTESIAN_POINT('',(-73.5,0.));
#159 = CARTESIAN_POINT('',(0.,0.));
#160 = ( GEOMETRIC_REPRESENTATION_CONTEXT(2) 
PARAMETRIC_REPRESENTATION_CONTEXT() REPRESENTATION_CONTEXT('2D SPACE',''
  ) );
#161 = ORIENTED_EDGE('',*,*,#162,.F.);
#162 = EDGE_CURVE('',#163,#113,#165,.T.);
#163 = VERTEX_POINT('',#164);
#164 = CARTESIAN_POINT('',(-37.79999986313,3.216713912749E-03,0.));
#165 = SURFACE_CURVE('',#166,(#171,#178),.PCURVE_S1.);
#166 = CIRCLE('',#167,37.8);
#167 = AXIS2_PLACEMENT_3D('',#168,#169,#170);
#168 = CARTESIAN_POINT('',(0.,0.,0.));
#169 = DIRECTION('',(0.,0.,1.));
#170 = DIRECTION('',(1.,0.,0.));
#171 = PCURVE('',#93,#172);
#172 = DEFINITIONAL_REPRESENTATION('',(#173),#177);
#173 = CIRCLE('',#174,37.8);
#174 = AXIS2_PLACEMENT_2D('',#175,#176);
#175 = CARTESIAN_POINT('',(0.,0.));
#176 = DIRECTION('',(1.,0.));
#177 = ( GEOMETRIC_REPRESENTATION_CONTEXT(2) 
PARAMETRIC_REPRESENTATION_CONTEXT() REPRESENTATION_CONTEXT('2D SPACE',''
  ) );
#178 = PCURVE('',#179,#200);
#179 = B_SPLINE_SURFACE_WITH_KNOTS('',9,1,(
    (#180,#181)
    ,(#182,#183)
    ,(#184,#185)
    ,(#186,#187)
    ,(#188,#189)
    ,(#190,#191)
    ,(#192,#193)
    ,(#194,#195)
    ,(#196,#197)
    ,(#198,#199
    )),.UNSPECIFIED.,.F.,.F.,.F.,(10,10),(2,2),(3.14159265359,
    6.28318530718),(0.,1.),.PIECEWISE_BEZIER_KNOTS.);
#180 = CARTESIAN_POINT('',(-37.79213073791,0.771267974243,0.));
#181 = CARTESIAN_POINT('',(-36.75,0.75,99.));
#182 = CARTESIAN_POINT('',(-37.79562806637,0.599898879786,0.));
#183 = CARTESIAN_POINT('',(-37.01179938779,0.75,99.));
#184 = CARTESIAN_POINT('',(-37.79825118407,0.428511943798,0.));
#185 = CARTESIAN_POINT('',(-37.27360149249,0.647191900061,
    98.999999999999));
#186 = CARTESIAN_POINT('',(-37.79999998699,0.257112263859,0.));
#187 = CARTESIAN_POINT('',(-37.48924283384,0.44157278914,99.000000000004
    ));
#188 = CARTESIAN_POINT('',(-37.80087440579,8.570493754982E-02,0.));
#189 = CARTESIAN_POINT('',(-37.61268047281,0.157317457926,
    98.999999999993));
#190 = CARTESIAN_POINT('',(-37.80087440579,-8.570493754981E-02,0.));
#191 = CARTESIAN_POINT('',(-37.61268047282,-0.157317457926,
    99.000000000007));
#192 = CARTESIAN_POINT('',(-37.79999998699,-0.257112263859,0.));
#193 = CARTESIAN_POINT('',(-37.48924283383,-0.44157278914,
    98.999999999994));
#194 = CARTESIAN_POINT('',(-37.79825118407,-0.428511943798,0.));
#195 = CARTESIAN_POINT('',(-37.2736014925,-0.647191900061,
    99.000000000003));
#196 = CARTESIAN_POINT('',(-37.79562806637,-0.599898879786,0.));
#197 = CARTESIAN_POINT('',(-37.01179938779,-0.75,98.999999999999));
#198 = CARTESIAN_POINT('',(-37.79213073791,-0.771267974243,0.));
#199 = CARTESIAN_POINT('',(-36.75,-0.75,99.));
#200 = DEFINITIONAL_REPRESENTATION('',(#201),#204);
#201 = B_SPLINE_CURVE_WITH_KNOTS('',1,(#202,#203),.UNSPECIFIED.,.F.,.F.,
  (2,2),(3.121187322903,3.161997984276),.PIECEWISE_BEZIER_KNOTS.);
#202 = CARTESIAN_POINT('',(3.14159265359,0.));
#203 = CARTESIAN_POINT('',(6.28318530718,0.));
#204 = ( GEOMETRIC_REPRESENTATION_CONTEXT(2) 
PARAMETRIC_REPRESENTATION_CONTEXT() REPRESENTATION_CONTEXT('2D SPACE',''
  ) );
#205 = ORIENTED_EDGE('',*,*,#206,.F.);
#206 = EDGE_CURVE('',#207,#163,#209,.T.);
#207 = VERTEX_POINT('',#208);
#208 = CARTESIAN_POINT('',(-37.79213073791,0.771267974243,0.));
#209 = SURFACE_CURVE('',#210,(#215,#222),.PCURVE_S1.);
#210 = CIRCLE('',#211,37.8);
#211 = AXIS2_PLACEMENT_3D('',#212,#213,#214);
#212 = CARTESIAN_POINT('',(0.,0.,0.));
#213 = DIRECTION('',(0.,0.,1.));
#214 = DIRECTION('',(1.,0.,0.));
#215 = PCURVE('',#93,#216);
#216 = DEFINITIONAL_REPRESENTATION('',(#217),#221);
#217 = CIRCLE('',#218,37.8);
#218 = AXIS2_PLACEMENT_2D('',#219,#220);
#219 = CARTESIAN_POINT('',(0.,0.));
#220 = DIRECTION('',(1.,0.));
#221 = ( GEOMETRIC_REPRESENTATION_CONTEXT(2) 
PARAMETRIC_REPRESENTATION_CONTEXT() REPRESENTATION_CONTEXT('2D SPACE',''
  ) );
#222 = PCURVE('',#223,#244);
#223 = B_SPLINE_SURFACE_WITH_KNOTS('',9,1,(
    (#224,#225)
    ,(#226,#227)
    ,(#228,#229)
    ,(#230,#231)
    ,(#232,#233)
    ,(#234,#235)
    ,(#236,#237)
    ,(#238,#239)
    ,(#240,#241)
    ,(#242,#243
    )),.UNSPECIFIED.,.F.,.F.,.F.,(10,10),(2,2),(3.14159265359,
    6.28318530718),(0.,1.),.PIECEWISE_BEZIER_KNOTS.);
#224 = CARTESIAN_POINT('',(-37.79213073791,0.771267974243,0.));
#225 = CARTESIAN_POINT('',(-36.75,0.75,99.));
#226 = CARTESIAN_POINT('',(-37.79562806637,0.599898879786,0.));
#227 = CARTESIAN_POINT('',(-37.01179938779,0.75,99.));
#228 = CARTESIAN_POINT('',(-37.79825118407,0.428511943798,0.));
#229 = CARTESIAN_POINT('',(-37.27360149249,0.647191900061,
    98.999999999999));
#230 = CARTESIAN_POINT('',(-37.79999998699,0.257112263859,0.));
#231 = CARTESIAN_POINT('',(-37.48924283384,0.44157278914,99.000000000004
    ));
#232 = CARTESIAN_POINT('',(-37.80087440579,8.570493754982E-02,0.));
#233 = CARTESIAN_POINT('',(-37.61268047281,0.157317457926,
    98.999999999993));
#234 = CARTESIAN_POINT('',(-37.80087440579,-8.570493754981E-02,0.));
#235 = CARTESIAN_POINT('',(-37.61268047282,-0.157317457926,
    99.000000000007));
#236 = CARTESIAN_POINT('',(-37.79999998699,-0.257112263859,0.));
#237 = CARTESIAN_POINT('',(-37.48924283383,-0.44157278914,
    98.999999999994));
#238 = CARTESIAN_POINT('',(-37.79825118407,-0.428511943798,0.));
#239 = CARTESIAN_POINT('',(-37.2736014925,-0.647191900061,
    99.000000000003));
#240 = CARTESIAN_POINT('',(-37.79562806637,-0.599898879786,0.));
#241 = CARTESIAN_POINT('',(-37.01179938779,-0.75,98.999999999999));
#242 = CARTESIAN_POINT('',(-37.79213073791,-0.771267974243,0.));
#243 = CARTESIAN_POINT('',(-36.75,-0.75,99.));
#244 = DEFINITIONAL_REPRESENTATION('',(#245),#248);
#245 = B_SPLINE_CURVE_WITH_KNOTS('',1,(#246,#247),.UNSPECIFIED.,.F.,.F.,
  (2,2),(3.121187322903,3.161997984276),.PIECEWISE_BEZIER_KNOTS.);
#246 = CARTESIAN_POINT('',(3.14159265359,0.));
#247 = CARTESIAN_POINT('',(6.28318530718,0.));
#248 = ( GEOMETRIC_REPRESENTATION_CONTEXT(2) 
PARAMETRIC_REPRESENTATION_CONTEXT() REPRESENTATION_CONTEXT('2D SPACE',''
  ) );
#249 = ORIENTED_EDGE('',*,*,#250,.F.);
#250 = EDGE_CURVE('',#251,#207,#253,.T.);
#251 = VERTEX_POINT('',#252);
#252 = CARTESIAN_POINT('',(37.799999863132,3.216713912751E-03,0.));
#253 = SURFACE_CURVE('',#254,(#259,#266),.PCURVE_S1.);
#254 = CIRCLE('',#255,37.8);
#255 = AXIS2_PLACEMENT_3D('',#256,#257,#258);
#256 = CARTESIAN_POINT('',(0.,0.,0.));
#257 = DIRECTION('',(0.,0.,1.));
#258 = DIRECTION('',(1.,0.,0.));
#259 = PCURVE('',#93,#260);
#260 = DEFINITIONAL_REPRESENTATION('',(#261),#265);
#261 = CIRCLE('',#262,37.8);
#262 = AXIS2_PLACEMENT_2D('',#263,#264);
#263 = CARTESIAN_POINT('',(0.,0.));
#264 = DIRECTION('',(1.,0.));
#265 = ( GEOMETRIC_REPRESENTATION_CONTEXT(2) 
PARAMETRIC_REPRESENTATION_CONTEXT() REPRESENTATION_CONTEXT('2D SPACE',''
  ) );
#266 = PCURVE('',#267,#292);
#267 = B_SPLINE_SURFACE_WITH_KNOTS('',11,1,(
    (#268,#269)
    ,(#270,#271)
    ,(#272,#273)
    ,(#274,#275)
    ,(#276,#277)
    ,(#278,#279)
    ,(#280,#281)
    ,(#282,#283)
    ,(#284,#285)
    ,(#286,#287)
    ,(#288,#289)
    ,(#290,#291
    )),.UNSPECIFIED.,.F.,.F.,.F.,(12,12),(2,2),(-73.5,0.),(0.,1.),
  .PIECEWISE_BEZIER_KNOTS.);
#268 = CARTESIAN_POINT('',(37.8,-7.105427357601E-15,0.));
#269 = CARTESIAN_POINT('',(36.75,0.75,99.));
#270 = CARTESIAN_POINT('',(37.8,10.725534618702,0.));
#271 = CARTESIAN_POINT('',(30.068181818182,0.75,99.));
#272 = CARTESIAN_POINT('',(34.452359659639,21.451068457069,0.));
#273 = CARTESIAN_POINT('',(23.386363636364,0.75,99.));
#274 = CARTESIAN_POINT('',(27.757079789678,31.015652162493,0.));
#275 = CARTESIAN_POINT('',(16.704545454545,0.75,99.));
#276 = CARTESIAN_POINT('',(18.167101192845,38.2582922896,0.));
#277 = CARTESIAN_POINT('',(10.022727272727,0.75,99.));
#278 = CARTESIAN_POINT('',(6.588333853533,42.220109895496,0.));
#279 = CARTESIAN_POINT('',(3.340909090909,0.75,99.));
#280 = CARTESIAN_POINT('',(-5.725506764718,42.345748249928,0.));
#281 = CARTESIAN_POINT('',(-3.340909090909,0.75,99.));
#282 = CARTESIAN_POINT('',(-17.38270020679,38.621007601877,0.));
#283 = CARTESIAN_POINT('',(-10.02272727272,0.75,99.));
#284 = CARTESIAN_POINT('',(-27.11846055823,31.575548363709,0.));
#285 = CARTESIAN_POINT('',(-16.70454545454,0.75,99.));
#286 = CARTESIAN_POINT('',(-34.00750154424,22.149565747081,0.));
#287 = CARTESIAN_POINT('',(-23.38636363636,0.75,99.));
#288 = CARTESIAN_POINT('',(-37.57328784484,11.494569734672,0.));
#289 = CARTESIAN_POINT('',(-30.06818181818,0.75,99.));
#290 = CARTESIAN_POINT('',(-37.79213073791,0.771267974243,0.));
#291 = CARTESIAN_POINT('',(-36.75,0.75,99.));
#292 = DEFINITIONAL_REPRESENTATION('',(#293),#296);
#293 = B_SPLINE_CURVE_WITH_KNOTS('',1,(#294,#295),.UNSPECIFIED.,.F.,.F.,
  (2,2),(0.,3.121187322903),.PIECEWISE_BEZIER_KNOTS.);
#294 = CARTESIAN_POINT('',(-73.5,0.));
#295 = CARTESIAN_POINT('',(0.,0.));
#296 = ( GEOMETRIC_REPRESENTATION_CONTEXT(2) 
PARAMETRIC_REPRESENTATION_CONTEXT() REPRESENTATION_CONTEXT('2D SPACE',''
  ) );
#297 = ORIENTED_EDGE('',*,*,#298,.F.);
#298 = EDGE_CURVE('',#299,#251,#301,.T.);
#299 = VERTEX_POINT('',#300);
#300 = CARTESIAN_POINT('',(37.8,0.,0.));
#301 = SURFACE_CURVE('',#302,(#307,#314),.PCURVE_S1.);
#302 = CIRCLE('',#303,37.8);
#303 = AXIS2_PLACEMENT_3D('',#304,#305,#306);
#304 = CARTESIAN_POINT('',(0.,0.,0.));
#305 = DIRECTION('',(0.,0.,1.));
#306 = DIRECTION('',(1.,0.,0.));
#307 = PCURVE('',#93,#308);
#308 = DEFINITIONAL_REPRESENTATION('',(#309),#313);
#309 = CIRCLE('',#310,37.8);
#310 = AXIS2_PLACEMENT_2D('',#311,#312);
#311 = CARTESIAN_POINT('',(0.,0.));
#312 = DIRECTION('',(1.,0.));
#313 = ( GEOMETRIC_REPRESENTATION_CONTEXT(2) 
PARAMETRIC_REPRESENTATION_CONTEXT() REPRESENTATION_CONTEXT('2D SPACE',''
  ) );
#314 = PCURVE('',#315,#340);
#315 = B_SPLINE_SURFACE_WITH_KNOTS('',11,1,(
    (#316,#317)
    ,(#318,#319)
    ,(#320,#321)
    ,(#322,#323)
    ,(#324,#325)
    ,(#326,#327)
    ,(#328,#329)
    ,(#330,#331)
    ,(#332,#333)
    ,(#334,#335)
    ,(#336,#337)
    ,(#338,#339
    )),.UNSPECIFIED.,.F.,.F.,.F.,(12,12),(2,2),(-73.5,0.),(0.,1.),
  .PIECEWISE_BEZIER_KNOTS.);
#316 = CARTESIAN_POINT('',(37.8,-7.105427357601E-15,0.));
#317 = CARTESIAN_POINT('',(36.75,0.75,99.));
#318 = CARTESIAN_POINT('',(37.8,10.725534618702,0.));
#319 = CARTESIAN_POINT('',(30.068181818182,0.75,99.));
#320 = CARTESIAN_POINT('',(34.452359659639,21.451068457069,0.));
#321 = CARTESIAN_POINT('',(23.386363636364,0.75,99.));
#322 = CARTESIAN_POINT('',(27.757079789678,31.015652162493,0.));
#323 = CARTESIAN_POINT('',(16.704545454545,0.75,99.));
#324 = CARTESIAN_POINT('',(18.167101192845,38.2582922896,0.));
#325 = CARTESIAN_POINT('',(10.022727272727,0.75,99.));
#326 = CARTESIAN_POINT('',(6.588333853533,42.220109895496,0.));
#327 = CARTESIAN_POINT('',(3.340909090909,0.75,99.));
#328 = CARTESIAN_POINT('',(-5.725506764718,42.345748249928,0.));
#329 = CARTESIAN_POINT('',(-3.340909090909,0.75,99.));
#330 = CARTESIAN_POINT('',(-17.38270020679,38.621007601877,0.));
#331 = CARTESIAN_POINT('',(-10.02272727272,0.75,99.));
#332 = CARTESIAN_POINT('',(-27.11846055823,31.575548363709,0.));
#333 = CARTESIAN_POINT('',(-16.70454545454,0.75,99.));
#334 = CARTESIAN_POINT('',(-34.00750154424,22.149565747081,0.));
#335 = CARTESIAN_POINT('',(-23.38636363636,0.75,99.));
#336 = CARTESIAN_POINT('',(-37.57328784484,11.494569734672,0.));
#337 = CARTESIAN_POINT('',(-30.06818181818,0.75,99.));
#338 = CARTESIAN_POINT('',(-37.79213073791,0.771267974243,0.));
#339 = CARTESIAN_POINT('',(-36.75,0.75,99.));
#340 = DEFINITIONAL_REPRESENTATION('',(#341),#344);
#341 = B_SPLINE_CURVE_WITH_KNOTS('',1,(#342,#343),.UNSPECIFIED.,.F.,.F.,
  (2,2),(0.,3.121187322903),.PIECEWISE_BEZIER_KNOTS.);
#342 = CARTESIAN_POINT('',(-73.5,0.));
#343 = CARTESIAN_POINT('',(0.,0.));
#344 = ( GEOMETRIC_REPRESENTATION_CONTEXT(2) 
PARAMETRIC_REPRESENTATION_CONTEXT() REPRESENTATION_CONTEXT('2D SPACE',''
  ) );
#345 = ORIENTED_EDGE('',*,*,#346,.F.);
#346 = EDGE_CURVE('',#115,#299,#347,.T.);
#347 = SURFACE_CURVE('',#348,(#353,#360),.PCURVE_S1.);
#348 = CIRCLE('',#349,37.8);
#349 = AXIS2_PLACEMENT_3D('',#350,#351,#352);
#350 = CARTESIAN_POINT('',(0.,0.,0.));
#351 = DIRECTION('',(0.,0.,1.));
#352 = DIRECTION('',(1.,0.,0.));
#353 = PCURVE('',#93,#354);
#354 = DEFINITIONAL_REPRESENTATION('',(#355),#359);
#355 = CIRCLE('',#356,37.8);
#356 = AXIS2_PLACEMENT_2D('',#357,#358);
#357 = CARTESIAN_POINT('',(0.,0.));
#358 = DIRECTION('',(1.,0.));
#359 = ( GEOMETRIC_REPRESENTATION_CONTEXT(2) 
PARAMETRIC_REPRESENTATION_CONTEXT() REPRESENTATION_CONTEXT('2D SPACE',''
  ) );
#360 = PCURVE('',#361,#382);
#361 = B_SPLINE_SURFACE_WITH_KNOTS('',9,1,(
    (#362,#363)
    ,(#364,#365)
    ,(#366,#367)
    ,(#368,#369)
    ,(#370,#371)
    ,(#372,#373)
    ,(#374,#375)
    ,(#376,#377)
    ,(#378,#379)
    ,(#380,#381
    )),.UNSPECIFIED.,.F.,.F.,.F.,(10,10),(2,2),(3.14159265359,
    6.28318530718),(0.,1.),.PIECEWISE_BEZIER_KNOTS.);
#362 = CARTESIAN_POINT('',(37.792130737918,-0.771267974243,0.));
#363 = CARTESIAN_POINT('',(36.75,-0.75,99.));
#364 = CARTESIAN_POINT('',(37.793879402147,-0.685583427015,0.));
#365 = CARTESIAN_POINT('',(37.011799387799,-0.75,99.));
#366 = CARTESIAN_POINT('',(37.795409506102,-0.599894419434,0.));
#367 = CARTESIAN_POINT('',(37.273601492499,-0.647191900061,
    98.999999999999));
#368 = CARTESIAN_POINT('',(37.796721043281,-0.514201588687,0.));
#369 = CARTESIAN_POINT('',(37.48924283384,-0.44157278914,99.000000000004
    ));
#370 = CARTESIAN_POINT('',(37.797814007183,-0.428505571955,0.));
#371 = CARTESIAN_POINT('',(37.612680472816,-0.157317457926,
    98.999999999993));
#372 = CARTESIAN_POINT('',(37.798688391308,-0.342807006425,0.));
#373 = CARTESIAN_POINT('',(37.612680472822,0.157317457926,
    99.000000000007));
#374 = CARTESIAN_POINT('',(37.799344189153,-0.25710652928,0.));
#375 = CARTESIAN_POINT('',(37.489242833835,0.44157278914,98.999999999994
    ));
#376 = CARTESIAN_POINT('',(37.799781394217,-0.171404777705,0.));
#377 = CARTESIAN_POINT('',(37.2736014925,0.647191900061,99.000000000003)
  );
#378 = CARTESIAN_POINT('',(37.8,-8.570238888347E-02,0.));
#379 = CARTESIAN_POINT('',(37.011799387799,0.75,98.999999999999));
#380 = CARTESIAN_POINT('',(37.8,-9.27036225562E-15,0.));
#381 = CARTESIAN_POINT('',(36.75,0.75,99.));
#382 = DEFINITIONAL_REPRESENTATION('',(#383),#386);
#383 = B_SPLINE_CURVE_WITH_KNOTS('',1,(#384,#385),.UNSPECIFIED.,.F.,.F.,
  (2,2),(6.262779976493,6.28318530718),.PIECEWISE_BEZIER_KNOTS.);
#384 = CARTESIAN_POINT('',(3.14159265359,0.));
#385 = CARTESIAN_POINT('',(6.28318530718,0.));
#386 = ( GEOMETRIC_REPRESENTATION_CONTEXT(2) 
PARAMETRIC_REPRESENTATION_CONTEXT() REPRESENTATION_CONTEXT('2D SPACE',''
  ) );
#387 = ADVANCED_FACE('',(#388),#179,.F.);
#388 = FACE_BOUND('',#389,.F.);
#389 = EDGE_LOOP('',(#390,#434,#435,#457));
#390 = ORIENTED_EDGE('',*,*,#391,.F.);
#391 = EDGE_CURVE('',#163,#392,#394,.T.);
#392 = VERTEX_POINT('',#393);
#393 = CARTESIAN_POINT('',(-37.4999931018,3.216713912751E-03,99.));
#394 = SURFACE_CURVE('',#395,(#406,#420),.PCURVE_S1.);
#395 = B_SPLINE_CURVE_WITH_KNOTS('',5,(#396,#397,#398,#399,#400,#401,
    #402,#403,#404,#405),.UNSPECIFIED.,.F.,.F.,(6,4,6),(0.,
    0.842000002342,1.),.UNSPECIFIED.);
#396 = CARTESIAN_POINT('',(-37.79999986313,3.216713912751E-03,0.));
#397 = CARTESIAN_POINT('',(-37.74947719109,3.216713912751E-03,
    16.671600036235));
#398 = CARTESIAN_POINT('',(-37.69895569622,3.216713912751E-03,
    33.343200080379));
#399 = CARTESIAN_POINT('',(-37.64843464493,3.216713912751E-03,
    50.014800127579));
#400 = CARTESIAN_POINT('',(-37.59791394192,3.216713912751E-03,
    66.686400176733));
#401 = CARTESIAN_POINT('',(-37.53791335127,3.216713912751E-03,
    86.486400181832));
#402 = CARTESIAN_POINT('',(-37.52843326553,3.216713912751E-03,
    89.614800136313));
#403 = CARTESIAN_POINT('',(-37.51895318655,3.216713912751E-03,
    92.743200090837));
#404 = CARTESIAN_POINT('',(-37.5094731137,3.216713912751E-03,
    95.8716000454));
#405 = CARTESIAN_POINT('',(-37.4999930465,3.216713912751E-03,99.));
#406 = PCURVE('',#179,#407);
#407 = DEFINITIONAL_REPRESENTATION('',(#408),#419);
#408 = B_SPLINE_CURVE_WITH_KNOTS('',5,(#409,#410,#411,#412,#413,#414,
    #415,#416,#417,#418),.UNSPECIFIED.,.F.,.F.,(6,4,6),(0.,
    0.842000002342,1.),.UNSPECIFIED.);
#409 = CARTESIAN_POINT('',(4.7058381421,0.));
#410 = CARTESIAN_POINT('',(4.706419909718,0.168400000366));
#411 = CARTESIAN_POINT('',(4.706872857408,0.336800000812));
#412 = CARTESIAN_POINT('',(4.707251924966,0.505200001289));
#413 = CARTESIAN_POINT('',(4.707573537111,0.673600001785));
#414 = CARTESIAN_POINT('',(4.707904884159,0.873600001837));
#415 = CARTESIAN_POINT('',(4.707955726691,0.905200001377));
#416 = CARTESIAN_POINT('',(4.708005145563,0.936800000918));
#417 = CARTESIAN_POINT('',(4.708053218681,0.968400000459));
#418 = CARTESIAN_POINT('',(4.708100015207,1.));
#419 = ( GEOMETRIC_REPRESENTATION_CONTEXT(2) 
PARAMETRIC_REPRESENTATION_CONTEXT() REPRESENTATION_CONTEXT('2D SPACE',''
  ) );
#420 = PCURVE('',#223,#421);
#421 = DEFINITIONAL_REPRESENTATION('',(#422),#433);
#422 = B_SPLINE_CURVE_WITH_KNOTS('',5,(#423,#424,#425,#426,#427,#428,
    #429,#430,#431,#432),.UNSPECIFIED.,.F.,.F.,(6,4,6),(0.,
    0.842000002342,1.),.UNSPECIFIED.);
#423 = CARTESIAN_POINT('',(4.7058381421,0.));
#424 = CARTESIAN_POINT('',(4.706419909718,0.168400000366));
#425 = CARTESIAN_POINT('',(4.706872857408,0.336800000812));
#426 = CARTESIAN_POINT('',(4.707251924966,0.505200001289));
#427 = CARTESIAN_POINT('',(4.707573537111,0.673600001785));
#428 = CARTESIAN_POINT('',(4.707904884159,0.873600001837));
#429 = CARTESIAN_POINT('',(4.707955726691,0.905200001377));
#430 = CARTESIAN_POINT('',(4.708005145563,0.936800000918));
#431 = CARTESIAN_POINT('',(4.708053218681,0.968400000459));
#432 = CARTESIAN_POINT('',(4.708100015207,1.));
#433 = ( GEOMETRIC_REPRESENTATION_CONTEXT(2) 
PARAMETRIC_REPRESENTATION_CONTEXT() REPRESENTATION_CONTEXT('2D SPACE',''
  ) );
#434 = ORIENTED_EDGE('',*,*,#162,.T.);
#435 = ORIENTED_EDGE('',*,*,#436,.T.);
#436 = EDGE_CURVE('',#113,#437,#439,.T.);
#437 = VERTEX_POINT('',#438);
#438 = CARTESIAN_POINT('',(-36.75,-0.75,99.));
#439 = SURFACE_CURVE('',#440,(#443,#450),.PCURVE_S1.);
#440 = B_SPLINE_CURVE_WITH_KNOTS('',1,(#441,#442),.UNSPECIFIED.,.F.,.F.,
  (2,2),(0.,1.),.PIECEWISE_BEZIER_KNOTS.);
#441 = CARTESIAN_POINT('',(-37.79213073791,-0.771267974243,0.));
#442 = CARTESIAN_POINT('',(-36.75,-0.75,99.));
#443 = PCURVE('',#179,#444);
#444 = DEFINITIONAL_REPRESENTATION('',(#445),#449);
#445 = LINE('',#446,#447);
#446 = CARTESIAN_POINT('',(6.28318530718,0.));
#447 = VECTOR('',#448,1.);
#448 = DIRECTION('',(0.,1.));
#449 = ( GEOMETRIC_REPRESENTATION_CONTEXT(2) 
PARAMETRIC_REPRESENTATION_CONTEXT() REPRESENTATION_CONTEXT('2D SPACE',''
  ) );
#450 = PCURVE('',#131,#451);
#451 = DEFINITIONAL_REPRESENTATION('',(#452),#456);
#452 = LINE('',#453,#454);
#453 = CARTESIAN_POINT('',(-73.5,0.));
#454 = VECTOR('',#455,1.);
#455 = DIRECTION('',(0.,1.));
#456 = ( GEOMETRIC_REPRESENTATION_CONTEXT(2) 
PARAMETRIC_REPRESENTATION_CONTEXT() REPRESENTATION_CONTEXT('2D SPACE',''
  ) );
#457 = ORIENTED_EDGE('',*,*,#458,.T.);
#458 = EDGE_CURVE('',#437,#392,#459,.T.);
#459 = SURFACE_CURVE('',#460,(#465,#472),.PCURVE_S1.);
#460 = CIRCLE('',#461,0.75);
#461 = AXIS2_PLACEMENT_3D('',#462,#463,#464);
#462 = CARTESIAN_POINT('',(-36.75,0.,99.));
#463 = DIRECTION('',(-0.,-0.,-1.));
#464 = DIRECTION('',(0.,-1.,0.));
#465 = PCURVE('',#179,#466);
#466 = DEFINITIONAL_REPRESENTATION('',(#467),#471);
#467 = LINE('',#468,#469);
#468 = CARTESIAN_POINT('',(6.28318530718,1.));
#469 = VECTOR('',#470,1.);
#470 = DIRECTION('',(-1.,0.));
#471 = ( GEOMETRIC_REPRESENTATION_CONTEXT(2) 
PARAMETRIC_REPRESENTATION_CONTEXT() REPRESENTATION_CONTEXT('2D SPACE',''
  ) );
#472 = PCURVE('',#473,#478);
#473 = CYLINDRICAL_SURFACE('',#474,0.75);
#474 = AXIS2_PLACEMENT_3D('',#475,#476,#477);
#475 = CARTESIAN_POINT('',(-36.75,0.,99.));
#476 = DIRECTION('',(0.,0.,-1.));
#477 = DIRECTION('',(0.,-1.,0.));
#478 = DEFINITIONAL_REPRESENTATION('',(#479),#482);
#479 = B_SPLINE_CURVE_WITH_KNOTS('',1,(#480,#481),.UNSPECIFIED.,.F.,.F.,
  (2,2),(0.,3.14159265359),.PIECEWISE_BEZIER_KNOTS.);
#480 = CARTESIAN_POINT('',(0.,0.));
#481 = CARTESIAN_POINT('',(3.14159265359,0.));
#482 = ( GEOMETRIC_REPRESENTATION_CONTEXT(2) 
PARAMETRIC_REPRESENTATION_CONTEXT() REPRESENTATION_CONTEXT('2D SPACE',''
  ) );
#483 = ADVANCED_FACE('',(#484),#473,.F.);
#484 = FACE_BOUND('',#485,.F.);
#485 = EDGE_LOOP('',(#486,#487,#515,#544,#572));
#486 = ORIENTED_EDGE('',*,*,#458,.F.);
#487 = ORIENTED_EDGE('',*,*,#488,.T.);
#488 = EDGE_CURVE('',#437,#489,#491,.T.);
#489 = VERTEX_POINT('',#490);
#490 = CARTESIAN_POINT('',(-36.75,-0.75,107.5));
#491 = SURFACE_CURVE('',#492,(#496,#503),.PCURVE_S1.);
#492 = LINE('',#493,#494);
#493 = CARTESIAN_POINT('',(-36.75,-0.75,99.));
#494 = VECTOR('',#495,1.);
#495 = DIRECTION('',(0.,0.,1.));
#496 = PCURVE('',#473,#497);
#497 = DEFINITIONAL_REPRESENTATION('',(#498),#502);
#498 = LINE('',#499,#500);
#499 = CARTESIAN_POINT('',(0.,0.));
#500 = VECTOR('',#501,1.);
#501 = DIRECTION('',(0.,-1.));
#502 = ( GEOMETRIC_REPRESENTATION_CONTEXT(2) 
PARAMETRIC_REPRESENTATION_CONTEXT() REPRESENTATION_CONTEXT('2D SPACE',''
  ) );
#503 = PCURVE('',#504,#509);
#504 = PLANE('',#505);
#505 = AXIS2_PLACEMENT_3D('',#506,#507,#508);
#506 = CARTESIAN_POINT('',(36.75,-0.75,99.));
#507 = DIRECTION('',(0.,-1.,0.));
#508 = DIRECTION('',(-1.,0.,0.));
#509 = DEFINITIONAL_REPRESENTATION('',(#510),#514);
#510 = LINE('',#511,#512);
#511 = CARTESIAN_POINT('',(73.5,0.));
#512 = VECTOR('',#513,1.);
#513 = DIRECTION('',(0.,-1.));
#514 = ( GEOMETRIC_REPRESENTATION_CONTEXT(2) 
PARAMETRIC_REPRESENTATION_CONTEXT() REPRESENTATION_CONTEXT('2D SPACE',''
  ) );
#515 = ORIENTED_EDGE('',*,*,#516,.F.);
#516 = EDGE_CURVE('',#517,#489,#519,.T.);
#517 = VERTEX_POINT('',#518);
#518 = CARTESIAN_POINT('',(-36.75,0.75,107.5));
#519 = SURFACE_CURVE('',#520,(#525,#532),.PCURVE_S1.);
#520 = CIRCLE('',#521,0.75);
#521 = AXIS2_PLACEMENT_3D('',#522,#523,#524);
#522 = CARTESIAN_POINT('',(-36.75,0.,107.5));
#523 = DIRECTION('',(0.,-0.,1.));
#524 = DIRECTION('',(0.,1.,0.));
#525 = PCURVE('',#473,#526);
#526 = DEFINITIONAL_REPRESENTATION('',(#527),#531);
#527 = LINE('',#528,#529);
#528 = CARTESIAN_POINT('',(3.14159265359,-8.5));
#529 = VECTOR('',#530,1.);
#530 = DIRECTION('',(-1.,-0.));
#531 = ( GEOMETRIC_REPRESENTATION_CONTEXT(2) 
PARAMETRIC_REPRESENTATION_CONTEXT() REPRESENTATION_CONTEXT('2D SPACE',''
  ) );
#532 = PCURVE('',#533,#538);
#533 = CONICAL_SURFACE('',#534,0.75,0.785398163397);
#534 = AXIS2_PLACEMENT_3D('',#535,#536,#537);
#535 = CARTESIAN_POINT('',(-36.75,0.,107.5));
#536 = DIRECTION('',(0.,0.,1.));
#537 = DIRECTION('',(0.,-1.,0.));
#538 = DEFINITIONAL_REPRESENTATION('',(#539),#543);
#539 = LINE('',#540,#541);
#540 = CARTESIAN_POINT('',(3.14159265359,0.));
#541 = VECTOR('',#542,1.);
#542 = DIRECTION('',(1.,-0.));
#543 = ( GEOMETRIC_REPRESENTATION_CONTEXT(2) 
PARAMETRIC_REPRESENTATION_CONTEXT() REPRESENTATION_CONTEXT('2D SPACE',''
  ) );
#544 = ORIENTED_EDGE('',*,*,#545,.F.);
#545 = EDGE_CURVE('',#546,#517,#548,.T.);
#546 = VERTEX_POINT('',#547);
#547 = CARTESIAN_POINT('',(-36.75,0.75,99.));
#548 = SURFACE_CURVE('',#549,(#553,#560),.PCURVE_S1.);
#549 = LINE('',#550,#551);
#550 = CARTESIAN_POINT('',(-36.75,0.75,99.));
#551 = VECTOR('',#552,1.);
#552 = DIRECTION('',(0.,0.,1.));
#553 = PCURVE('',#473,#554);
#554 = DEFINITIONAL_REPRESENTATION('',(#555),#559);
#555 = LINE('',#556,#557);
#556 = CARTESIAN_POINT('',(3.14159265359,0.));
#557 = VECTOR('',#558,1.);
#558 = DIRECTION('',(0.,-1.));
#559 = ( GEOMETRIC_REPRESENTATION_CONTEXT(2) 
PARAMETRIC_REPRESENTATION_CONTEXT() REPRESENTATION_CONTEXT('2D SPACE',''
  ) );
#560 = PCURVE('',#561,#566);
#561 = PLANE('',#562);
#562 = AXIS2_PLACEMENT_3D('',#563,#564,#565);
#563 = CARTESIAN_POINT('',(-36.75,0.75,99.));
#564 = DIRECTION('',(0.,1.,0.));
#565 = DIRECTION('',(1.,0.,0.));
#566 = DEFINITIONAL_REPRESENTATION('',(#567),#571);
#567 = LINE('',#568,#569);
#568 = CARTESIAN_POINT('',(0.,0.));
#569 = VECTOR('',#570,1.);
#570 = DIRECTION('',(0.,-1.));
#571 = ( GEOMETRIC_REPRESENTATION_CONTEXT(2) 
PARAMETRIC_REPRESENTATION_CONTEXT() REPRESENTATION_CONTEXT('2D SPACE',''
  ) );
#572 = ORIENTED_EDGE('',*,*,#573,.F.);
#573 = EDGE_CURVE('',#392,#546,#574,.T.);
#574 = SURFACE_CURVE('',#575,(#580,#586),.PCURVE_S1.);
#575 = CIRCLE('',#576,0.75);
#576 = AXIS2_PLACEMENT_3D('',#577,#578,#579);
#577 = CARTESIAN_POINT('',(-36.75,0.,99.));
#578 = DIRECTION('',(-0.,-0.,-1.));
#579 = DIRECTION('',(0.,-1.,0.));
#580 = PCURVE('',#473,#581);
#581 = DEFINITIONAL_REPRESENTATION('',(#582),#585);
#582 = B_SPLINE_CURVE_WITH_KNOTS('',1,(#583,#584),.UNSPECIFIED.,.F.,.F.,
  (2,2),(0.,3.14159265359),.PIECEWISE_BEZIER_KNOTS.);
#583 = CARTESIAN_POINT('',(0.,0.));
#584 = CARTESIAN_POINT('',(3.14159265359,0.));
#585 = ( GEOMETRIC_REPRESENTATION_CONTEXT(2) 
PARAMETRIC_REPRESENTATION_CONTEXT() REPRESENTATION_CONTEXT('2D SPACE',''
  ) );
#586 = PCURVE('',#223,#587);
#587 = DEFINITIONAL_REPRESENTATION('',(#588),#592);
#588 = LINE('',#589,#590);
#589 = CARTESIAN_POINT('',(6.28318530718,1.));
#590 = VECTOR('',#591,1.);
#591 = DIRECTION('',(-1.,0.));
#592 = ( GEOMETRIC_REPRESENTATION_CONTEXT(2) 
PARAMETRIC_REPRESENTATION_CONTEXT() REPRESENTATION_CONTEXT('2D SPACE',''
  ) );
#593 = ADVANCED_FACE('',(#594),#561,.F.);
#594 = FACE_BOUND('',#595,.F.);
#595 = EDGE_LOOP('',(#596,#619,#620,#648));
#596 = ORIENTED_EDGE('',*,*,#597,.F.);
#597 = EDGE_CURVE('',#546,#598,#600,.T.);
#598 = VERTEX_POINT('',#599);
#599 = CARTESIAN_POINT('',(36.75,0.75,99.));
#600 = SURFACE_CURVE('',#601,(#605,#612),.PCURVE_S1.);
#601 = LINE('',#602,#603);
#602 = CARTESIAN_POINT('',(-36.75,0.75,99.));
#603 = VECTOR('',#604,1.);
#604 = DIRECTION('',(1.,0.,0.));
#605 = PCURVE('',#561,#606);
#606 = DEFINITIONAL_REPRESENTATION('',(#607),#611);
#607 = LINE('',#608,#609);
#608 = CARTESIAN_POINT('',(0.,0.));
#609 = VECTOR('',#610,1.);
#610 = DIRECTION('',(1.,0.));
#611 = ( GEOMETRIC_REPRESENTATION_CONTEXT(2) 
PARAMETRIC_REPRESENTATION_CONTEXT() REPRESENTATION_CONTEXT('2D SPACE',''
  ) );
#612 = PCURVE('',#267,#613);
#613 = DEFINITIONAL_REPRESENTATION('',(#614),#618);
#614 = LINE('',#615,#616);
#615 = CARTESIAN_POINT('',(0.,1.));
#616 = VECTOR('',#617,1.);
#617 = DIRECTION('',(-1.,0.));
#618 = ( GEOMETRIC_REPRESENTATION_CONTEXT(2) 
PARAMETRIC_REPRESENTATION_CONTEXT() REPRESENTATION_CONTEXT('2D SPACE',''
  ) );
#619 = ORIENTED_EDGE('',*,*,#545,.T.);
#620 = ORIENTED_EDGE('',*,*,#621,.T.);
#621 = EDGE_CURVE('',#517,#622,#624,.T.);
#622 = VERTEX_POINT('',#623);
#623 = CARTESIAN_POINT('',(36.75,0.75,107.5));
#624 = SURFACE_CURVE('',#625,(#629,#636),.PCURVE_S1.);
#625 = LINE('',#626,#627);
#626 = CARTESIAN_POINT('',(-36.75,0.75,107.5));
#627 = VECTOR('',#628,1.);
#628 = DIRECTION('',(1.,0.,0.));
#629 = PCURVE('',#561,#630);
#630 = DEFINITIONAL_REPRESENTATION('',(#631),#635);
#631 = LINE('',#632,#633);
#632 = CARTESIAN_POINT('',(0.,-8.5));
#633 = VECTOR('',#634,1.);
#634 = DIRECTION('',(1.,0.));
#635 = ( GEOMETRIC_REPRESENTATION_CONTEXT(2) 
PARAMETRIC_REPRESENTATION_CONTEXT() REPRESENTATION_CONTEXT('2D SPACE',''
  ) );
#636 = PCURVE('',#637,#642);
#637 = PLANE('',#638);
#638 = AXIS2_PLACEMENT_3D('',#639,#640,#641);
#639 = CARTESIAN_POINT('',(-36.75,2.25,109.));
#640 = DIRECTION('',(0.,-0.707106781187,0.707106781187));
#641 = DIRECTION('',(1.,0.,0.));
#642 = DEFINITIONAL_REPRESENTATION('',(#643),#647);
#643 = LINE('',#644,#645);
#644 = CARTESIAN_POINT('',(0.,-2.12132034356));
#645 = VECTOR('',#646,1.);
#646 = DIRECTION('',(1.,0.));
#647 = ( GEOMETRIC_REPRESENTATION_CONTEXT(2) 
PARAMETRIC_REPRESENTATION_CONTEXT() REPRESENTATION_CONTEXT('2D SPACE',''
  ) );
#648 = ORIENTED_EDGE('',*,*,#649,.F.);
#649 = EDGE_CURVE('',#598,#622,#650,.T.);
#650 = SURFACE_CURVE('',#651,(#655,#662),.PCURVE_S1.);
#651 = LINE('',#652,#653);
#652 = CARTESIAN_POINT('',(36.75,0.75,99.));
#653 = VECTOR('',#654,1.);
#654 = DIRECTION('',(0.,0.,1.));
#655 = PCURVE('',#561,#656);
#656 = DEFINITIONAL_REPRESENTATION('',(#657),#661);
#657 = LINE('',#658,#659);
#658 = CARTESIAN_POINT('',(73.5,0.));
#659 = VECTOR('',#660,1.);
#660 = DIRECTION('',(0.,-1.));
#661 = ( GEOMETRIC_REPRESENTATION_CONTEXT(2) 
PARAMETRIC_REPRESENTATION_CONTEXT() REPRESENTATION_CONTEXT('2D SPACE',''
  ) );
#662 = PCURVE('',#663,#668);
#663 = CYLINDRICAL_SURFACE('',#664,0.75);
#664 = AXIS2_PLACEMENT_3D('',#665,#666,#667);
#665 = CARTESIAN_POINT('',(36.75,0.,99.));
#666 = DIRECTION('',(0.,0.,-1.));
#667 = DIRECTION('',(0.,1.,0.));
#668 = DEFINITIONAL_REPRESENTATION('',(#669),#673);
#669 = LINE('',#670,#671);
#670 = CARTESIAN_POINT('',(0.,0.));
#671 = VECTOR('',#672,1.);
#672 = DIRECTION('',(0.,-1.));
#673 = ( GEOMETRIC_REPRESENTATION_CONTEXT(2) 
PARAMETRIC_REPRESENTATION_CONTEXT() REPRESENTATION_CONTEXT('2D SPACE',''
  ) );
#674 = ADVANCED_FACE('',(#675),#663,.F.);
#675 = FACE_BOUND('',#676,.F.);
#676 = EDGE_LOOP('',(#677,#702,#744,#745,#774));
#677 = ORIENTED_EDGE('',*,*,#678,.F.);
#678 = EDGE_CURVE('',#679,#681,#683,.T.);
#679 = VERTEX_POINT('',#680);
#680 = CARTESIAN_POINT('',(37.499993101803,3.216713912751E-03,99.));
#681 = VERTEX_POINT('',#682);
#682 = CARTESIAN_POINT('',(36.75,-0.75,99.));
#683 = SURFACE_CURVE('',#684,(#689,#695),.PCURVE_S1.);
#684 = CIRCLE('',#685,0.75);
#685 = AXIS2_PLACEMENT_3D('',#686,#687,#688);
#686 = CARTESIAN_POINT('',(36.75,0.,99.));
#687 = DIRECTION('',(0.,0.,-1.));
#688 = DIRECTION('',(0.,1.,0.));
#689 = PCURVE('',#663,#690);
#690 = DEFINITIONAL_REPRESENTATION('',(#691),#694);
#691 = B_SPLINE_CURVE_WITH_KNOTS('',1,(#692,#693),.UNSPECIFIED.,.F.,.F.,
  (2,2),(0.,3.14159265359),.PIECEWISE_BEZIER_KNOTS.);
#692 = CARTESIAN_POINT('',(0.,0.));
#693 = CARTESIAN_POINT('',(3.14159265359,0.));
#694 = ( GEOMETRIC_REPRESENTATION_CONTEXT(2) 
PARAMETRIC_REPRESENTATION_CONTEXT() REPRESENTATION_CONTEXT('2D SPACE',''
  ) );
#695 = PCURVE('',#361,#696);
#696 = DEFINITIONAL_REPRESENTATION('',(#697),#701);
#697 = LINE('',#698,#699);
#698 = CARTESIAN_POINT('',(6.28318530718,1.));
#699 = VECTOR('',#700,1.);
#700 = DIRECTION('',(-1.,0.));
#701 = ( GEOMETRIC_REPRESENTATION_CONTEXT(2) 
PARAMETRIC_REPRESENTATION_CONTEXT() REPRESENTATION_CONTEXT('2D SPACE',''
  ) );
#702 = ORIENTED_EDGE('',*,*,#703,.F.);
#703 = EDGE_CURVE('',#598,#679,#704,.T.);
#704 = SURFACE_CURVE('',#705,(#710,#716),.PCURVE_S1.);
#705 = CIRCLE('',#706,0.75);
#706 = AXIS2_PLACEMENT_3D('',#707,#708,#709);
#707 = CARTESIAN_POINT('',(36.75,0.,99.));
#708 = DIRECTION('',(0.,0.,-1.));
#709 = DIRECTION('',(0.,1.,0.));
#710 = PCURVE('',#663,#711);
#711 = DEFINITIONAL_REPRESENTATION('',(#712),#715);
#712 = B_SPLINE_CURVE_WITH_KNOTS('',1,(#713,#714),.UNSPECIFIED.,.F.,.F.,
  (2,2),(0.,3.14159265359),.PIECEWISE_BEZIER_KNOTS.);
#713 = CARTESIAN_POINT('',(0.,0.));
#714 = CARTESIAN_POINT('',(3.14159265359,0.));
#715 = ( GEOMETRIC_REPRESENTATION_CONTEXT(2) 
PARAMETRIC_REPRESENTATION_CONTEXT() REPRESENTATION_CONTEXT('2D SPACE',''
  ) );
#716 = PCURVE('',#717,#738);
#717 = B_SPLINE_SURFACE_WITH_KNOTS('',9,1,(
    (#718,#719)
    ,(#720,#721)
    ,(#722,#723)
    ,(#724,#725)
    ,(#726,#727)
    ,(#728,#729)
    ,(#730,#731)
    ,(#732,#733)
    ,(#734,#735)
    ,(#736,#737
    )),.UNSPECIFIED.,.F.,.F.,.F.,(10,10),(2,2),(3.14159265359,
    6.28318530718),(0.,1.),.PIECEWISE_BEZIER_KNOTS.);
#718 = CARTESIAN_POINT('',(37.792130737918,-0.771267974243,0.));
#719 = CARTESIAN_POINT('',(36.75,-0.75,99.));
#720 = CARTESIAN_POINT('',(37.793879402147,-0.685583427015,0.));
#721 = CARTESIAN_POINT('',(37.011799387799,-0.75,99.));
#722 = CARTESIAN_POINT('',(37.795409506102,-0.599894419434,0.));
#723 = CARTESIAN_POINT('',(37.273601492499,-0.647191900061,
    98.999999999999));
#724 = CARTESIAN_POINT('',(37.796721043281,-0.514201588687,0.));
#725 = CARTESIAN_POINT('',(37.48924283384,-0.44157278914,99.000000000004
    ));
#726 = CARTESIAN_POINT('',(37.797814007183,-0.428505571955,0.));
#727 = CARTESIAN_POINT('',(37.612680472816,-0.157317457926,
    98.999999999993));
#728 = CARTESIAN_POINT('',(37.798688391308,-0.342807006425,0.));
#729 = CARTESIAN_POINT('',(37.612680472822,0.157317457926,
    99.000000000007));
#730 = CARTESIAN_POINT('',(37.799344189153,-0.25710652928,0.));
#731 = CARTESIAN_POINT('',(37.489242833835,0.44157278914,98.999999999994
    ));
#732 = CARTESIAN_POINT('',(37.799781394217,-0.171404777705,0.));
#733 = CARTESIAN_POINT('',(37.2736014925,0.647191900061,99.000000000003)
  );
#734 = CARTESIAN_POINT('',(37.8,-8.570238888347E-02,0.));
#735 = CARTESIAN_POINT('',(37.011799387799,0.75,98.999999999999));
#736 = CARTESIAN_POINT('',(37.8,-9.27036225562E-15,0.));
#737 = CARTESIAN_POINT('',(36.75,0.75,99.));
#738 = DEFINITIONAL_REPRESENTATION('',(#739),#743);
#739 = LINE('',#740,#741);
#740 = CARTESIAN_POINT('',(6.28318530718,1.));
#741 = VECTOR('',#742,1.);
#742 = DIRECTION('',(-1.,0.));
#743 = ( GEOMETRIC_REPRESENTATION_CONTEXT(2) 
PARAMETRIC_REPRESENTATION_CONTEXT() REPRESENTATION_CONTEXT('2D SPACE',''
  ) );
#744 = ORIENTED_EDGE('',*,*,#649,.T.);
#745 = ORIENTED_EDGE('',*,*,#746,.F.);
#746 = EDGE_CURVE('',#747,#622,#749,.T.);
#747 = VERTEX_POINT('',#748);
#748 = CARTESIAN_POINT('',(36.75,-0.75,107.5));
#749 = SURFACE_CURVE('',#750,(#755,#762),.PCURVE_S1.);
#750 = CIRCLE('',#751,0.75);
#751 = AXIS2_PLACEMENT_3D('',#752,#753,#754);
#752 = CARTESIAN_POINT('',(36.75,0.,107.5));
#753 = DIRECTION('',(-0.,0.,1.));
#754 = DIRECTION('',(0.,-1.,0.));
#755 = PCURVE('',#663,#756);
#756 = DEFINITIONAL_REPRESENTATION('',(#757),#761);
#757 = LINE('',#758,#759);
#758 = CARTESIAN_POINT('',(3.14159265359,-8.5));
#759 = VECTOR('',#760,1.);
#760 = DIRECTION('',(-1.,-0.));
#761 = ( GEOMETRIC_REPRESENTATION_CONTEXT(2) 
PARAMETRIC_REPRESENTATION_CONTEXT() REPRESENTATION_CONTEXT('2D SPACE',''
  ) );
#762 = PCURVE('',#763,#768);
#763 = CONICAL_SURFACE('',#764,0.75,0.785398163397);
#764 = AXIS2_PLACEMENT_3D('',#765,#766,#767);
#765 = CARTESIAN_POINT('',(36.75,0.,107.5));
#766 = DIRECTION('',(0.,0.,1.));
#767 = DIRECTION('',(0.,1.,0.));
#768 = DEFINITIONAL_REPRESENTATION('',(#769),#773);
#769 = LINE('',#770,#771);
#770 = CARTESIAN_POINT('',(3.14159265359,0.));
#771 = VECTOR('',#772,1.);
#772 = DIRECTION('',(1.,-0.));
#773 = ( GEOMETRIC_REPRESENTATION_CONTEXT(2) 
PARAMETRIC_REPRESENTATION_CONTEXT() REPRESENTATION_CONTEXT('2D SPACE',''
  ) );
#774 = ORIENTED_EDGE('',*,*,#775,.F.);
#775 = EDGE_CURVE('',#681,#747,#776,.T.);
#776 = SURFACE_CURVE('',#777,(#781,#788),.PCURVE_S1.);
#777 = LINE('',#778,#779);
#778 = CARTESIAN_POINT('',(36.75,-0.75,99.));
#779 = VECTOR('',#780,1.);
#780 = DIRECTION('',(0.,0.,1.));
#781 = PCURVE('',#663,#782);
#782 = DEFINITIONAL_REPRESENTATION('',(#783),#787);
#783 = LINE('',#784,#785);
#784 = CARTESIAN_POINT('',(3.14159265359,0.));
#785 = VECTOR('',#786,1.);
#786 = DIRECTION('',(0.,-1.));
#787 = ( GEOMETRIC_REPRESENTATION_CONTEXT(2) 
PARAMETRIC_REPRESENTATION_CONTEXT() REPRESENTATION_CONTEXT('2D SPACE',''
  ) );
#788 = PCURVE('',#504,#789);
#789 = DEFINITIONAL_REPRESENTATION('',(#790),#794);
#790 = LINE('',#791,#792);
#791 = CARTESIAN_POINT('',(0.,-0.));
#792 = VECTOR('',#793,1.);
#793 = DIRECTION('',(0.,-1.));
#794 = ( GEOMETRIC_REPRESENTATION_CONTEXT(2) 
PARAMETRIC_REPRESENTATION_CONTEXT() REPRESENTATION_CONTEXT('2D SPACE',''
  ) );
#795 = ADVANCED_FACE('',(#796),#763,.F.);
#796 = FACE_BOUND('',#797,.F.);
#797 = EDGE_LOOP('',(#798,#829,#852,#853));
#798 = ORIENTED_EDGE('',*,*,#799,.F.);
#799 = EDGE_CURVE('',#800,#802,#804,.T.);
#800 = VERTEX_POINT('',#801);
#801 = CARTESIAN_POINT('',(36.75,-2.25,109.));
#802 = VERTEX_POINT('',#803);
#803 = CARTESIAN_POINT('',(36.75,2.25,109.));
#804 = SURFACE_CURVE('',#805,(#810,#817),.PCURVE_S1.);
#805 = CIRCLE('',#806,2.25);
#806 = AXIS2_PLACEMENT_3D('',#807,#808,#809);
#807 = CARTESIAN_POINT('',(36.75,0.,109.));
#808 = DIRECTION('',(0.,0.,1.));
#809 = DIRECTION('',(0.,-1.,0.));
#810 = PCURVE('',#763,#811);
#811 = DEFINITIONAL_REPRESENTATION('',(#812),#816);
#812 = LINE('',#813,#814);
#813 = CARTESIAN_POINT('',(3.14159265359,1.5));
#814 = VECTOR('',#815,1.);
#815 = DIRECTION('',(1.,-0.));
#816 = ( GEOMETRIC_REPRESENTATION_CONTEXT(2) 
PARAMETRIC_REPRESENTATION_CONTEXT() REPRESENTATION_CONTEXT('2D SPACE',''
  ) );
#817 = PCURVE('',#818,#823);
#818 = PLANE('',#819);
#819 = AXIS2_PLACEMENT_3D('',#820,#821,#822);
#820 = CARTESIAN_POINT('',(0.,0.,109.));
#821 = DIRECTION('',(0.,0.,1.));
#822 = DIRECTION('',(1.,0.,-0.));
#823 = DEFINITIONAL_REPRESENTATION('',(#824),#828);
#824 = CIRCLE('',#825,2.25);
#825 = AXIS2_PLACEMENT_2D('',#826,#827);
#826 = CARTESIAN_POINT('',(36.75,0.));
#827 = DIRECTION('',(0.,-1.));
#828 = ( GEOMETRIC_REPRESENTATION_CONTEXT(2) 
PARAMETRIC_REPRESENTATION_CONTEXT() REPRESENTATION_CONTEXT('2D SPACE',''
  ) );
#829 = ORIENTED_EDGE('',*,*,#830,.F.);
#830 = EDGE_CURVE('',#747,#800,#831,.T.);
#831 = SURFACE_CURVE('',#832,(#835,#841),.PCURVE_S1.);
#832 = B_SPLINE_CURVE_WITH_KNOTS('',1,(#833,#834),.UNSPECIFIED.,.F.,.F.,
  (2,2),(0.,1.),.PIECEWISE_BEZIER_KNOTS.);
#833 = CARTESIAN_POINT('',(36.75,-0.75,107.5));
#834 = CARTESIAN_POINT('',(36.75,-2.25,109.));
#835 = PCURVE('',#763,#836);
#836 = DEFINITIONAL_REPRESENTATION('',(#837),#840);
#837 = B_SPLINE_CURVE_WITH_KNOTS('',1,(#838,#839),.UNSPECIFIED.,.F.,.F.,
  (2,2),(0.,1.),.PIECEWISE_BEZIER_KNOTS.);
#838 = CARTESIAN_POINT('',(3.14159265359,0.));
#839 = CARTESIAN_POINT('',(3.14159265359,1.5));
#840 = ( GEOMETRIC_REPRESENTATION_CONTEXT(2) 
PARAMETRIC_REPRESENTATION_CONTEXT() REPRESENTATION_CONTEXT('2D SPACE',''
  ) );
#841 = PCURVE('',#842,#847);
#842 = PLANE('',#843);
#843 = AXIS2_PLACEMENT_3D('',#844,#845,#846);
#844 = CARTESIAN_POINT('',(36.75,-2.25,109.));
#845 = DIRECTION('',(0.,0.707106781187,0.707106781187));
#846 = DIRECTION('',(-1.,0.,0.));
#847 = DEFINITIONAL_REPRESENTATION('',(#848),#851);
#848 = B_SPLINE_CURVE_WITH_KNOTS('',1,(#849,#850),.UNSPECIFIED.,.F.,.F.,
  (2,2),(0.,1.),.PIECEWISE_BEZIER_KNOTS.);
#849 = CARTESIAN_POINT('',(0.,-2.12132034356));
#850 = CARTESIAN_POINT('',(0.,0.));
#851 = ( GEOMETRIC_REPRESENTATION_CONTEXT(2) 
PARAMETRIC_REPRESENTATION_CONTEXT() REPRESENTATION_CONTEXT('2D SPACE',''
  ) );
#852 = ORIENTED_EDGE('',*,*,#746,.T.);
#853 = ORIENTED_EDGE('',*,*,#854,.T.);
#854 = EDGE_CURVE('',#622,#802,#855,.T.);
#855 = SURFACE_CURVE('',#856,(#859,#865),.PCURVE_S1.);
#856 = B_SPLINE_CURVE_WITH_KNOTS('',1,(#857,#858),.UNSPECIFIED.,.F.,.F.,
  (2,2),(0.,1.),.PIECEWISE_BEZIER_KNOTS.);
#857 = CARTESIAN_POINT('',(36.75,0.75,107.5));
#858 = CARTESIAN_POINT('',(36.75,2.25,109.));
#859 = PCURVE('',#763,#860);
#860 = DEFINITIONAL_REPRESENTATION('',(#861),#864);
#861 = B_SPLINE_CURVE_WITH_KNOTS('',1,(#862,#863),.UNSPECIFIED.,.F.,.F.,
  (2,2),(0.,1.),.PIECEWISE_BEZIER_KNOTS.);
#862 = CARTESIAN_POINT('',(6.28318530718,0.));
#863 = CARTESIAN_POINT('',(6.28318530718,1.5));
#864 = ( GEOMETRIC_REPRESENTATION_CONTEXT(2) 
PARAMETRIC_REPRESENTATION_CONTEXT() REPRESENTATION_CONTEXT('2D SPACE',''
  ) );
#865 = PCURVE('',#637,#866);
#866 = DEFINITIONAL_REPRESENTATION('',(#867),#870);
#867 = B_SPLINE_CURVE_WITH_KNOTS('',1,(#868,#869),.UNSPECIFIED.,.F.,.F.,
  (2,2),(0.,1.),.PIECEWISE_BEZIER_KNOTS.);
#868 = CARTESIAN_POINT('',(73.5,-2.12132034356));
#869 = CARTESIAN_POINT('',(73.5,0.));
#870 = ( GEOMETRIC_REPRESENTATION_CONTEXT(2) 
PARAMETRIC_REPRESENTATION_CONTEXT() REPRESENTATION_CONTEXT('2D SPACE',''
  ) );
#871 = ADVANCED_FACE('',(#872),#842,.T.);
#872 = FACE_BOUND('',#873,.T.);
#873 = EDGE_LOOP('',(#874,#895,#915,#936));
#874 = ORIENTED_EDGE('',*,*,#875,.T.);
#875 = EDGE_CURVE('',#747,#489,#876,.T.);
#876 = SURFACE_CURVE('',#877,(#881,#888),.PCURVE_S1.);
#877 = LINE('',#878,#879);
#878 = CARTESIAN_POINT('',(36.75,-0.75,107.5));
#879 = VECTOR('',#880,1.);
#880 = DIRECTION('',(-1.,0.,0.));
#881 = PCURVE('',#842,#882);
#882 = DEFINITIONAL_REPRESENTATION('',(#883),#887);
#883 = LINE('',#884,#885);
#884 = CARTESIAN_POINT('',(0.,-2.12132034356));
#885 = VECTOR('',#886,1.);
#886 = DIRECTION('',(1.,0.));
#887 = ( GEOMETRIC_REPRESENTATION_CONTEXT(2) 
PARAMETRIC_REPRESENTATION_CONTEXT() REPRESENTATION_CONTEXT('2D SPACE',''
  ) );
#888 = PCURVE('',#504,#889);
#889 = DEFINITIONAL_REPRESENTATION('',(#890),#894);
#890 = LINE('',#891,#892);
#891 = CARTESIAN_POINT('',(0.,-8.5));
#892 = VECTOR('',#893,1.);
#893 = DIRECTION('',(1.,0.));
#894 = ( GEOMETRIC_REPRESENTATION_CONTEXT(2) 
PARAMETRIC_REPRESENTATION_CONTEXT() REPRESENTATION_CONTEXT('2D SPACE',''
  ) );
#895 = ORIENTED_EDGE('',*,*,#896,.T.);
#896 = EDGE_CURVE('',#489,#897,#899,.T.);
#897 = VERTEX_POINT('',#898);
#898 = CARTESIAN_POINT('',(-36.75,-2.25,109.));
#899 = SURFACE_CURVE('',#900,(#903,#909),.PCURVE_S1.);
#900 = B_SPLINE_CURVE_WITH_KNOTS('',1,(#901,#902),.UNSPECIFIED.,.F.,.F.,
  (2,2),(0.,1.),.PIECEWISE_BEZIER_KNOTS.);
#901 = CARTESIAN_POINT('',(-36.75,-0.75,107.5));
#902 = CARTESIAN_POINT('',(-36.75,-2.25,109.));
#903 = PCURVE('',#842,#904);
#904 = DEFINITIONAL_REPRESENTATION('',(#905),#908);
#905 = B_SPLINE_CURVE_WITH_KNOTS('',1,(#906,#907),.UNSPECIFIED.,.F.,.F.,
  (2,2),(0.,1.),.PIECEWISE_BEZIER_KNOTS.);
#906 = CARTESIAN_POINT('',(73.5,-2.12132034356));
#907 = CARTESIAN_POINT('',(73.5,0.));
#908 = ( GEOMETRIC_REPRESENTATION_CONTEXT(2) 
PARAMETRIC_REPRESENTATION_CONTEXT() REPRESENTATION_CONTEXT('2D SPACE',''
  ) );
#909 = PCURVE('',#533,#910);
#910 = DEFINITIONAL_REPRESENTATION('',(#911),#914);
#911 = B_SPLINE_CURVE_WITH_KNOTS('',1,(#912,#913),.UNSPECIFIED.,.F.,.F.,
  (2,2),(0.,1.),.PIECEWISE_BEZIER_KNOTS.);
#912 = CARTESIAN_POINT('',(6.28318530718,0.));
#913 = CARTESIAN_POINT('',(6.28318530718,1.5));
#914 = ( GEOMETRIC_REPRESENTATION_CONTEXT(2) 
PARAMETRIC_REPRESENTATION_CONTEXT() REPRESENTATION_CONTEXT('2D SPACE',''
  ) );
#915 = ORIENTED_EDGE('',*,*,#916,.F.);
#916 = EDGE_CURVE('',#800,#897,#917,.T.);
#917 = SURFACE_CURVE('',#918,(#922,#929),.PCURVE_S1.);
#918 = LINE('',#919,#920);
#919 = CARTESIAN_POINT('',(36.75,-2.25,109.));
#920 = VECTOR('',#921,1.);
#921 = DIRECTION('',(-1.,0.,0.));
#922 = PCURVE('',#842,#923);
#923 = DEFINITIONAL_REPRESENTATION('',(#924),#928);
#924 = LINE('',#925,#926);
#925 = CARTESIAN_POINT('',(0.,0.));
#926 = VECTOR('',#927,1.);
#927 = DIRECTION('',(1.,0.));
#928 = ( GEOMETRIC_REPRESENTATION_CONTEXT(2) 
PARAMETRIC_REPRESENTATION_CONTEXT() REPRESENTATION_CONTEXT('2D SPACE',''
  ) );
#929 = PCURVE('',#818,#930);
#930 = DEFINITIONAL_REPRESENTATION('',(#931),#935);
#931 = LINE('',#932,#933);
#932 = CARTESIAN_POINT('',(36.75,-2.25));
#933 = VECTOR('',#934,1.);
#934 = DIRECTION('',(-1.,0.));
#935 = ( GEOMETRIC_REPRESENTATION_CONTEXT(2) 
PARAMETRIC_REPRESENTATION_CONTEXT() REPRESENTATION_CONTEXT('2D SPACE',''
  ) );
#936 = ORIENTED_EDGE('',*,*,#830,.F.);
#937 = ADVANCED_FACE('',(#938,#969),#818,.T.);
#938 = FACE_BOUND('',#939,.T.);
#939 = EDGE_LOOP('',(#940));
#940 = ORIENTED_EDGE('',*,*,#941,.T.);
#941 = EDGE_CURVE('',#942,#942,#944,.T.);
#942 = VERTEX_POINT('',#943);
#943 = CARTESIAN_POINT('',(39.5,-9.674709713264E-15,109.));
#944 = SURFACE_CURVE('',#945,(#950,#957),.PCURVE_S1.);
#945 = CIRCLE('',#946,39.5);
#946 = AXIS2_PLACEMENT_3D('',#947,#948,#949);
#947 = CARTESIAN_POINT('',(0.,0.,109.));
#948 = DIRECTION('',(0.,0.,1.));
#949 = DIRECTION('',(1.,0.,-0.));
#950 = PCURVE('',#818,#951);
#951 = DEFINITIONAL_REPRESENTATION('',(#952),#956);
#952 = CIRCLE('',#953,39.5);
#953 = AXIS2_PLACEMENT_2D('',#954,#955);
#954 = CARTESIAN_POINT('',(0.,0.));
#955 = DIRECTION('',(1.,0.));
#956 = ( GEOMETRIC_REPRESENTATION_CONTEXT(2) 
PARAMETRIC_REPRESENTATION_CONTEXT() REPRESENTATION_CONTEXT('2D SPACE',''
  ) );
#957 = PCURVE('',#958,#963);
#958 = CYLINDRICAL_SURFACE('',#959,39.5);
#959 = AXIS2_PLACEMENT_3D('',#960,#961,#962);
#960 = CARTESIAN_POINT('',(0.,0.,80.7));
#961 = DIRECTION('',(0.,0.,1.));
#962 = DIRECTION('',(1.,0.,-0.));
#963 = DEFINITIONAL_REPRESENTATION('',(#964),#968);
#964 = LINE('',#965,#966);
#965 = CARTESIAN_POINT('',(0.,28.3));
#966 = VECTOR('',#967,1.);
#967 = DIRECTION('',(1.,0.));
#968 = ( GEOMETRIC_REPRESENTATION_CONTEXT(2) 
PARAMETRIC_REPRESENTATION_CONTEXT() REPRESENTATION_CONTEXT('2D SPACE',''
  ) );
#969 = FACE_BOUND('',#970,.T.);
#970 = EDGE_LOOP('',(#971,#972,#996,#1017));
#971 = ORIENTED_EDGE('',*,*,#916,.T.);
#972 = ORIENTED_EDGE('',*,*,#973,.F.);
#973 = EDGE_CURVE('',#974,#897,#976,.T.);
#974 = VERTEX_POINT('',#975);
#975 = CARTESIAN_POINT('',(-36.75,2.25,109.));
#976 = SURFACE_CURVE('',#977,(#982,#989),.PCURVE_S1.);
#977 = CIRCLE('',#978,2.25);
#978 = AXIS2_PLACEMENT_3D('',#979,#980,#981);
#979 = CARTESIAN_POINT('',(-36.75,0.,109.));
#980 = DIRECTION('',(0.,-0.,1.));
#981 = DIRECTION('',(0.,1.,0.));
#982 = PCURVE('',#818,#983);
#983 = DEFINITIONAL_REPRESENTATION('',(#984),#988);
#984 = CIRCLE('',#985,2.25);
#985 = AXIS2_PLACEMENT_2D('',#986,#987);
#986 = CARTESIAN_POINT('',(-36.75,0.));
#987 = DIRECTION('',(0.,1.));
#988 = ( GEOMETRIC_REPRESENTATION_CONTEXT(2) 
PARAMETRIC_REPRESENTATION_CONTEXT() REPRESENTATION_CONTEXT('2D SPACE',''
  ) );
#989 = PCURVE('',#533,#990);
#990 = DEFINITIONAL_REPRESENTATION('',(#991),#995);
#991 = LINE('',#992,#993);
#992 = CARTESIAN_POINT('',(3.14159265359,1.5));
#993 = VECTOR('',#994,1.);
#994 = DIRECTION('',(1.,-0.));
#995 = ( GEOMETRIC_REPRESENTATION_CONTEXT(2) 
PARAMETRIC_REPRESENTATION_CONTEXT() REPRESENTATION_CONTEXT('2D SPACE',''
  ) );
#996 = ORIENTED_EDGE('',*,*,#997,.T.);
#997 = EDGE_CURVE('',#974,#802,#998,.T.);
#998 = SURFACE_CURVE('',#999,(#1003,#1010),.PCURVE_S1.);
#999 = LINE('',#1000,#1001);
#1000 = CARTESIAN_POINT('',(-36.75,2.25,109.));
#1001 = VECTOR('',#1002,1.);
#1002 = DIRECTION('',(1.,0.,0.));
#1003 = PCURVE('',#818,#1004);
#1004 = DEFINITIONAL_REPRESENTATION('',(#1005),#1009);
#1005 = LINE('',#1006,#1007);
#1006 = CARTESIAN_POINT('',(-36.75,2.25));
#1007 = VECTOR('',#1008,1.);
#1008 = DIRECTION('',(1.,0.));
#1009 = ( GEOMETRIC_REPRESENTATION_CONTEXT(2) 
PARAMETRIC_REPRESENTATION_CONTEXT() REPRESENTATION_CONTEXT('2D SPACE',''
  ) );
#1010 = PCURVE('',#637,#1011);
#1011 = DEFINITIONAL_REPRESENTATION('',(#1012),#1016);
#1012 = LINE('',#1013,#1014);
#1013 = CARTESIAN_POINT('',(0.,0.));
#1014 = VECTOR('',#1015,1.);
#1015 = DIRECTION('',(1.,0.));
#1016 = ( GEOMETRIC_REPRESENTATION_CONTEXT(2) 
PARAMETRIC_REPRESENTATION_CONTEXT() REPRESENTATION_CONTEXT('2D SPACE',''
  ) );
#1017 = ORIENTED_EDGE('',*,*,#799,.F.);
#1018 = ADVANCED_FACE('',(#1019),#958,.T.);
#1019 = FACE_BOUND('',#1020,.T.);
#1020 = EDGE_LOOP('',(#1021,#1022,#1045,#1072));
#1021 = ORIENTED_EDGE('',*,*,#941,.F.);
#1022 = ORIENTED_EDGE('',*,*,#1023,.F.);
#1023 = EDGE_CURVE('',#1024,#942,#1026,.T.);
#1024 = VERTEX_POINT('',#1025);
#1025 = CARTESIAN_POINT('',(39.5,-9.674709713264E-15,80.7));
#1026 = SEAM_CURVE('',#1027,(#1031,#1038),.PCURVE_S1.);
#1027 = LINE('',#1028,#1029);
#1028 = CARTESIAN_POINT('',(39.5,-9.674709713264E-15,80.7));
#1029 = VECTOR('',#1030,1.);
#1030 = DIRECTION('',(0.,0.,1.));
#1031 = PCURVE('',#958,#1032);
#1032 = DEFINITIONAL_REPRESENTATION('',(#1033),#1037);
#1033 = LINE('',#1034,#1035);
#1034 = CARTESIAN_POINT('',(6.28318530718,-0.));
#1035 = VECTOR('',#1036,1.);
#1036 = DIRECTION('',(0.,1.));
#1037 = ( GEOMETRIC_REPRESENTATION_CONTEXT(2) 
PARAMETRIC_REPRESENTATION_CONTEXT() REPRESENTATION_CONTEXT('2D SPACE',''
  ) );
#1038 = PCURVE('',#958,#1039);
#1039 = DEFINITIONAL_REPRESENTATION('',(#1040),#1044);
#1040 = LINE('',#1041,#1042);
#1041 = CARTESIAN_POINT('',(0.,-0.));
#1042 = VECTOR('',#1043,1.);
#1043 = DIRECTION('',(0.,1.));
#1044 = ( GEOMETRIC_REPRESENTATION_CONTEXT(2) 
PARAMETRIC_REPRESENTATION_CONTEXT() REPRESENTATION_CONTEXT('2D SPACE',''
  ) );
#1045 = ORIENTED_EDGE('',*,*,#1046,.T.);
#1046 = EDGE_CURVE('',#1024,#1024,#1047,.T.);
#1047 = SURFACE_CURVE('',#1048,(#1053,#1060),.PCURVE_S1.);
#1048 = CIRCLE('',#1049,39.5);
#1049 = AXIS2_PLACEMENT_3D('',#1050,#1051,#1052);
#1050 = CARTESIAN_POINT('',(0.,0.,80.7));
#1051 = DIRECTION('',(0.,0.,1.));
#1052 = DIRECTION('',(1.,0.,-0.));
#1053 = PCURVE('',#958,#1054);
#1054 = DEFINITIONAL_REPRESENTATION('',(#1055),#1059);
#1055 = LINE('',#1056,#1057);
#1056 = CARTESIAN_POINT('',(0.,0.));
#1057 = VECTOR('',#1058,1.);
#1058 = DIRECTION('',(1.,0.));
#1059 = ( GEOMETRIC_REPRESENTATION_CONTEXT(2) 
PARAMETRIC_REPRESENTATION_CONTEXT() REPRESENTATION_CONTEXT('2D SPACE',''
  ) );
#1060 = PCURVE('',#1061,#1066);
#1061 = PLANE('',#1062);
#1062 = AXIS2_PLACEMENT_3D('',#1063,#1064,#1065);
#1063 = CARTESIAN_POINT('',(0.,0.,80.7));
#1064 = DIRECTION('',(0.,0.,1.));
#1065 = DIRECTION('',(1.,0.,-0.));
#1066 = DEFINITIONAL_REPRESENTATION('',(#1067),#1071);
#1067 = CIRCLE('',#1068,39.5);
#1068 = AXIS2_PLACEMENT_2D('',#1069,#1070);
#1069 = CARTESIAN_POINT('',(0.,0.));
#1070 = DIRECTION('',(1.,0.));
#1071 = ( GEOMETRIC_REPRESENTATION_CONTEXT(2) 
PARAMETRIC_REPRESENTATION_CONTEXT() REPRESENTATION_CONTEXT('2D SPACE',''
  ) );
#1072 = ORIENTED_EDGE('',*,*,#1023,.T.);
#1073 = ADVANCED_FACE('',(#1074,#1105),#1061,.T.);
#1074 = FACE_BOUND('',#1075,.T.);
#1075 = EDGE_LOOP('',(#1076));
#1076 = ORIENTED_EDGE('',*,*,#1077,.T.);
#1077 = EDGE_CURVE('',#1078,#1078,#1080,.T.);
#1078 = VERTEX_POINT('',#1079);
#1079 = CARTESIAN_POINT('',(44.5,-1.089935651241E-14,80.7));
#1080 = SURFACE_CURVE('',#1081,(#1086,#1093),.PCURVE_S1.);
#1081 = CIRCLE('',#1082,44.5);
#1082 = AXIS2_PLACEMENT_3D('',#1083,#1084,#1085);
#1083 = CARTESIAN_POINT('',(0.,0.,80.7));
#1084 = DIRECTION('',(0.,0.,1.));
#1085 = DIRECTION('',(1.,0.,-0.));
#1086 = PCURVE('',#1061,#1087);
#1087 = DEFINITIONAL_REPRESENTATION('',(#1088),#1092);
#1088 = CIRCLE('',#1089,44.5);
#1089 = AXIS2_PLACEMENT_2D('',#1090,#1091);
#1090 = CARTESIAN_POINT('',(0.,0.));
#1091 = DIRECTION('',(1.,0.));
#1092 = ( GEOMETRIC_REPRESENTATION_CONTEXT(2) 
PARAMETRIC_REPRESENTATION_CONTEXT() REPRESENTATION_CONTEXT('2D SPACE',''
  ) );
#1093 = PCURVE('',#1094,#1099);
#1094 = CYLINDRICAL_SURFACE('',#1095,44.5);
#1095 = AXIS2_PLACEMENT_3D('',#1096,#1097,#1098);
#1096 = CARTESIAN_POINT('',(0.,0.,69.9));
#1097 = DIRECTION('',(0.,0.,1.));
#1098 = DIRECTION('',(1.,0.,-0.));
#1099 = DEFINITIONAL_REPRESENTATION('',(#1100),#1104);
#1100 = LINE('',#1101,#1102);
#1101 = CARTESIAN_POINT('',(0.,10.8));
#1102 = VECTOR('',#1103,1.);
#1103 = DIRECTION('',(1.,0.));
#1104 = ( GEOMETRIC_REPRESENTATION_CONTEXT(2) 
PARAMETRIC_REPRESENTATION_CONTEXT() REPRESENTATION_CONTEXT('2D SPACE',''
  ) );
#1105 = FACE_BOUND('',#1106,.T.);
#1106 = EDGE_LOOP('',(#1107));
#1107 = ORIENTED_EDGE('',*,*,#1046,.F.);
#1108 = ADVANCED_FACE('',(#1109),#1094,.T.);
#1109 = FACE_BOUND('',#1110,.T.);
#1110 = EDGE_LOOP('',(#1111,#1112,#1135,#1157));
#1111 = ORIENTED_EDGE('',*,*,#1077,.F.);
#1112 = ORIENTED_EDGE('',*,*,#1113,.F.);
#1113 = EDGE_CURVE('',#1114,#1078,#1116,.T.);
#1114 = VERTEX_POINT('',#1115);
#1115 = CARTESIAN_POINT('',(44.5,-1.089935651241E-14,69.9));
#1116 = SEAM_CURVE('',#1117,(#1121,#1128),.PCURVE_S1.);
#1117 = LINE('',#1118,#1119);
#1118 = CARTESIAN_POINT('',(44.5,-1.089935651241E-14,69.9));
#1119 = VECTOR('',#1120,1.);
#1120 = DIRECTION('',(0.,0.,1.));
#1121 = PCURVE('',#1094,#1122);
#1122 = DEFINITIONAL_REPRESENTATION('',(#1123),#1127);
#1123 = LINE('',#1124,#1125);
#1124 = CARTESIAN_POINT('',(6.28318530718,-0.));
#1125 = VECTOR('',#1126,1.);
#1126 = DIRECTION('',(0.,1.));
#1127 = ( GEOMETRIC_REPRESENTATION_CONTEXT(2) 
PARAMETRIC_REPRESENTATION_CONTEXT() REPRESENTATION_CONTEXT('2D SPACE',''
  ) );
#1128 = PCURVE('',#1094,#1129);
#1129 = DEFINITIONAL_REPRESENTATION('',(#1130),#1134);
#1130 = LINE('',#1131,#1132);
#1131 = CARTESIAN_POINT('',(0.,-0.));
#1132 = VECTOR('',#1133,1.);
#1133 = DIRECTION('',(0.,1.));
#1134 = ( GEOMETRIC_REPRESENTATION_CONTEXT(2) 
PARAMETRIC_REPRESENTATION_CONTEXT() REPRESENTATION_CONTEXT('2D SPACE',''
  ) );
#1135 = ORIENTED_EDGE('',*,*,#1136,.T.);
#1136 = EDGE_CURVE('',#1114,#1114,#1137,.T.);
#1137 = SURFACE_CURVE('',#1138,(#1143,#1150),.PCURVE_S1.);
#1138 = CIRCLE('',#1139,44.5);
#1139 = AXIS2_PLACEMENT_3D('',#1140,#1141,#1142);
#1140 = CARTESIAN_POINT('',(0.,0.,69.9));
#1141 = DIRECTION('',(0.,0.,1.));
#1142 = DIRECTION('',(1.,0.,-0.));
#1143 = PCURVE('',#1094,#1144);
#1144 = DEFINITIONAL_REPRESENTATION('',(#1145),#1149);
#1145 = LINE('',#1146,#1147);
#1146 = CARTESIAN_POINT('',(0.,0.));
#1147 = VECTOR('',#1148,1.);
#1148 = DIRECTION('',(1.,0.));
#1149 = ( GEOMETRIC_REPRESENTATION_CONTEXT(2) 
PARAMETRIC_REPRESENTATION_CONTEXT() REPRESENTATION_CONTEXT('2D SPACE',''
  ) );
#1150 = PCURVE('',#43,#1151);
#1151 = DEFINITIONAL_REPRESENTATION('',(#1152),#1156);
#1152 = CIRCLE('',#1153,44.5);
#1153 = AXIS2_PLACEMENT_2D('',#1154,#1155);
#1154 = CARTESIAN_POINT('',(0.,0.));
#1155 = DIRECTION('',(1.,0.));
#1156 = ( GEOMETRIC_REPRESENTATION_CONTEXT(2) 
PARAMETRIC_REPRESENTATION_CONTEXT() REPRESENTATION_CONTEXT('2D SPACE',''
  ) );
#1157 = ORIENTED_EDGE('',*,*,#1113,.T.);
#1158 = ADVANCED_FACE('',(#1159),#717,.F.);
#1159 = FACE_BOUND('',#1160,.F.);
#1160 = EDGE_LOOP('',(#1161,#1289,#1309));
#1161 = ORIENTED_EDGE('',*,*,#1162,.F.);
#1162 = EDGE_CURVE('',#1163,#679,#1165,.T.);
#1163 = VERTEX_POINT('',#1164);
#1164 = CARTESIAN_POINT('',(37.795496600522,3.216713912751E-03,
    0.424606236484));
#1165 = SURFACE_CURVE('',#1166,(#1205,#1247),.PCURVE_S1.);
#1166 = B_SPLINE_CURVE_WITH_KNOTS('',7,(#1167,#1168,#1169,#1170,#1171,
    #1172,#1173,#1174,#1175,#1176,#1177,#1178,#1179,#1180,#1181,#1182,
    #1183,#1184,#1185,#1186,#1187,#1188,#1189,#1190,#1191,#1192,#1193,
    #1194,#1195,#1196,#1197,#1198,#1199,#1200,#1201,#1202,#1203,#1204),
  .UNSPECIFIED.,.F.,.F.,(8,6,6,6,6,6,8),(0.,7.444463539427E-02,
    0.19473740372,0.376729374166,0.55863294258,0.969467266241,1.),
  .UNSPECIFIED.);
#1167 = CARTESIAN_POINT('',(37.795496600522,3.216713912751E-03,
    0.424606236484));
#1168 = CARTESIAN_POINT('',(37.784486232802,3.216713912751E-03,
    1.472576124453));
#1169 = CARTESIAN_POINT('',(37.774078252353,3.216713912751E-03,
    2.520527814157));
#1170 = CARTESIAN_POINT('',(37.764298146723,3.216713912751E-03,
    3.568464673152));
#1171 = CARTESIAN_POINT('',(37.755161014797,3.216713912751E-03,
    4.616391443341));
#1172 = CARTESIAN_POINT('',(37.746666482676,3.216713912751E-03,
    5.664313788188));
#1173 = CARTESIAN_POINT('',(37.738798259306,3.216713912751E-03,
    6.712237707624));
#1174 = CARTESIAN_POINT('',(37.719781082469,3.216713912751E-03,
    9.453488076345));
#1175 = CARTESIAN_POINT('',(37.709595891579,3.216713912751E-03,
    11.14682603285));
#1176 = CARTESIAN_POINT('',(37.700855424893,3.216713912751E-03,
    12.840205670887));
#1177 = CARTESIAN_POINT('',(37.693358080667,3.216713912751E-03,
    14.533645750873));
#1178 = CARTESIAN_POINT('',(37.686875443827,3.216713912751E-03,
    16.227154096293));
#1179 = CARTESIAN_POINT('',(37.68121273103,3.216713912751E-03,
    17.920731107828));
#1180 = CARTESIAN_POINT('',(37.668623150032,3.216713912751E-03,
    22.176696158487));
#1181 = CARTESIAN_POINT('',(37.662538157324,3.216713912751E-03,
    24.739168149203));
#1182 = CARTESIAN_POINT('',(37.657369123469,3.216713912751E-03,
    27.30177566164));
#1183 = CARTESIAN_POINT('',(37.652712013809,3.216713912751E-03,
    29.864494001434));
#1184 = CARTESIAN_POINT('',(37.648340621158,3.216713912751E-03,
    32.427300987111));
#1185 = CARTESIAN_POINT('',(37.64409305003,3.216713912751E-03,
    34.990178229651));
#1186 = CARTESIAN_POINT('',(37.635642364291,3.216713912751E-03,
    40.114800560927));
#1187 = CARTESIAN_POINT('',(37.631438885845,3.216713912751E-03,
    42.676546319639));
#1188 = CARTESIAN_POINT('',(37.627152687144,3.216713912751E-03,
    45.238337133044));
#1189 = CARTESIAN_POINT('',(37.622729867682,3.216713912751E-03,
    47.8001633524));
#1190 = CARTESIAN_POINT('',(37.618140714134,3.216713912751E-03,
    50.362017691611));
#1191 = CARTESIAN_POINT('',(37.613366381798,3.216713912751E-03,
    52.923895090678));
#1192 = CARTESIAN_POINT('',(37.597175883693,3.216713912751E-03,
    61.271909627469));
#1193 = CARTESIAN_POINT('',(37.584961951229,3.216713912751E-03,
    67.058122000603));
#1194 = CARTESIAN_POINT('',(37.571648184461,3.216713912751E-03,
    72.844393205691));
#1195 = CARTESIAN_POINT('',(37.557321346263,3.216713912751E-03,
    78.630701117722));
#1196 = CARTESIAN_POINT('',(37.542039039641,3.216713912751E-03,
    84.417032128806));
#1197 = CARTESIAN_POINT('',(37.525881059143,3.216713912751E-03,
    90.203380258518));
#1198 = CARTESIAN_POINT('',(37.507652169882,3.216713912751E-03,
    96.419782179988));
#1199 = CARTESIAN_POINT('',(37.506386666691,3.216713912751E-03,
    96.849818303643));
#1200 = CARTESIAN_POINT('',(37.505116719802,3.216713912751E-03,
    97.279854501635));
#1201 = CARTESIAN_POINT('',(37.503842356905,3.216713912751E-03,
    97.709890772066));
#1202 = CARTESIAN_POINT('',(37.502563605517,3.216713912751E-03,
    98.139927113105));
#1203 = CARTESIAN_POINT('',(37.501280492988,3.216713912751E-03,
    98.569963522984));
#1204 = CARTESIAN_POINT('',(37.4999930465,3.216713912751E-03,99.));
#1205 = PCURVE('',#717,#1206);
#1206 = DEFINITIONAL_REPRESENTATION('',(#1207),#1246);
#1207 = B_SPLINE_CURVE_WITH_KNOTS('',7,(#1208,#1209,#1210,#1211,#1212,
    #1213,#1214,#1215,#1216,#1217,#1218,#1219,#1220,#1221,#1222,#1223,
    #1224,#1225,#1226,#1227,#1228,#1229,#1230,#1231,#1232,#1233,#1234,
    #1235,#1236,#1237,#1238,#1239,#1240,#1241,#1242,#1243,#1244,#1245),
  .UNSPECIFIED.,.F.,.F.,(8,6,6,6,6,6,8),(0.,7.444463539427E-02,
    0.19473740372,0.376729374166,0.55863294258,0.969467266241,1.),
  .UNSPECIFIED.);
#1208 = CARTESIAN_POINT('',(6.28318530718,4.28895188368E-03));
#1209 = CARTESIAN_POINT('',(6.250709797006,1.487450630761E-02));
#1210 = CARTESIAN_POINT('',(6.21744557306,2.545987691068E-02));
#1211 = CARTESIAN_POINT('',(6.183525931298,3.604509770861E-02));
#1212 = CARTESIAN_POINT('',(6.149120208428,4.66302165994E-02));
#1213 = CARTESIAN_POINT('',(6.114421607825,5.721529078978E-02));
#1214 = CARTESIAN_POINT('',(6.079629603808,6.780038088509E-02));
#1215 = CARTESIAN_POINT('',(5.98885194505,9.548977854894E-02));
#1216 = CARTESIAN_POINT('',(5.933010724573,0.112594202352));
#1217 = CARTESIAN_POINT('',(5.878175818595,0.129699047181));
#1218 = CARTESIAN_POINT('',(5.825030734921,0.146804502534));
#1219 = CARTESIAN_POINT('',(5.77395167175,0.163910647437));
#1220 = CARTESIAN_POINT('',(5.725114306725,0.181017485938));
#1221 = CARTESIAN_POINT('',(5.608146931779,0.224007031904));
#1222 = CARTESIAN_POINT('',(5.542969015149,0.249890587366));
#1223 = CARTESIAN_POINT('',(5.483204952483,0.275775511734));
#1224 = CARTESIAN_POINT('',(5.428342744793,0.30166155557));
#1225 = CARTESIAN_POINT('',(5.37784971102,0.327548494819));
#1226 = CARTESIAN_POINT('',(5.331222311046,0.353436143734));
#1227 = CARTESIAN_POINT('',(5.244832386812,0.405200005666));
#1228 = CARTESIAN_POINT('',(5.205066841876,0.431076225451));
#1229 = CARTESIAN_POINT('',(5.168275287732,0.456952900334));
#1230 = CARTESIAN_POINT('',(5.134077994546,0.482829932853));
#1231 = CARTESIAN_POINT('',(5.102161212276,0.50870724941));
#1232 = CARTESIAN_POINT('',(5.072268105382,0.534584798896));
#1233 = CARTESIAN_POINT('',(4.980741720974,0.618908178055));
#1234 = CARTESIAN_POINT('',(4.926511109839,0.677354767683));
#1235 = CARTESIAN_POINT('',(4.878980141188,0.735801951573));
#1236 = CARTESIAN_POINT('',(4.836719326568,0.794249506239));
#1237 = CARTESIAN_POINT('',(4.798713229686,0.85269729423));
#1238 = CARTESIAN_POINT('',(4.764235289529,0.911145255137));
#1239 = CARTESIAN_POINT('',(4.730389192199,0.973937193737));
#1240 = CARTESIAN_POINT('',(4.728064221807,0.978280992966));
#1241 = CARTESIAN_POINT('',(4.725755447295,0.982624792946));
#1242 = CARTESIAN_POINT('',(4.723462646713,0.986968593657));
#1243 = CARTESIAN_POINT('',(4.721185603214,0.991312395082));
#1244 = CARTESIAN_POINT('',(4.718924105047,0.995656197202));
#1245 = CARTESIAN_POINT('',(4.716677945562,1.));
#1246 = ( GEOMETRIC_REPRESENTATION_CONTEXT(2) 
PARAMETRIC_REPRESENTATION_CONTEXT() REPRESENTATION_CONTEXT('2D SPACE',''
  ) );
#1247 = PCURVE('',#361,#1248);
#1248 = DEFINITIONAL_REPRESENTATION('',(#1249),#1288);
#1249 = B_SPLINE_CURVE_WITH_KNOTS('',7,(#1250,#1251,#1252,#1253,#1254,
    #1255,#1256,#1257,#1258,#1259,#1260,#1261,#1262,#1263,#1264,#1265,
    #1266,#1267,#1268,#1269,#1270,#1271,#1272,#1273,#1274,#1275,#1276,
    #1277,#1278,#1279,#1280,#1281,#1282,#1283,#1284,#1285,#1286,#1287),
  .UNSPECIFIED.,.F.,.F.,(8,6,6,6,6,6,8),(0.,7.444463539427E-02,
    0.19473740372,0.376729374166,0.55863294258,0.969467266241,1.),
  .UNSPECIFIED.);
#1250 = CARTESIAN_POINT('',(6.28318530718,4.28895188368E-03));
#1251 = CARTESIAN_POINT('',(6.250709797006,1.487450630761E-02));
#1252 = CARTESIAN_POINT('',(6.21744557306,2.545987691068E-02));
#1253 = CARTESIAN_POINT('',(6.183525931298,3.604509770861E-02));
#1254 = CARTESIAN_POINT('',(6.149120208428,4.66302165994E-02));
#1255 = CARTESIAN_POINT('',(6.114421607825,5.721529078978E-02));
#1256 = CARTESIAN_POINT('',(6.079629603808,6.780038088509E-02));
#1257 = CARTESIAN_POINT('',(5.98885194505,9.548977854894E-02));
#1258 = CARTESIAN_POINT('',(5.933010724573,0.112594202352));
#1259 = CARTESIAN_POINT('',(5.878175818595,0.129699047181));
#1260 = CARTESIAN_POINT('',(5.825030734921,0.146804502534));
#1261 = CARTESIAN_POINT('',(5.77395167175,0.163910647437));
#1262 = CARTESIAN_POINT('',(5.725114306725,0.181017485938));
#1263 = CARTESIAN_POINT('',(5.608146931779,0.224007031904));
#1264 = CARTESIAN_POINT('',(5.542969015149,0.249890587366));
#1265 = CARTESIAN_POINT('',(5.483204952483,0.275775511734));
#1266 = CARTESIAN_POINT('',(5.428342744793,0.30166155557));
#1267 = CARTESIAN_POINT('',(5.37784971102,0.327548494819));
#1268 = CARTESIAN_POINT('',(5.331222311046,0.353436143734));
#1269 = CARTESIAN_POINT('',(5.244832386812,0.405200005666));
#1270 = CARTESIAN_POINT('',(5.205066841876,0.431076225451));
#1271 = CARTESIAN_POINT('',(5.168275287732,0.456952900334));
#1272 = CARTESIAN_POINT('',(5.134077994546,0.482829932853));
#1273 = CARTESIAN_POINT('',(5.102161212276,0.50870724941));
#1274 = CARTESIAN_POINT('',(5.072268105382,0.534584798896));
#1275 = CARTESIAN_POINT('',(4.980741720974,0.618908178055));
#1276 = CARTESIAN_POINT('',(4.926511109839,0.677354767683));
#1277 = CARTESIAN_POINT('',(4.878980141188,0.735801951573));
#1278 = CARTESIAN_POINT('',(4.836719326568,0.794249506239));
#1279 = CARTESIAN_POINT('',(4.798713229686,0.85269729423));
#1280 = CARTESIAN_POINT('',(4.764235289529,0.911145255137));
#1281 = CARTESIAN_POINT('',(4.730389192199,0.973937193737));
#1282 = CARTESIAN_POINT('',(4.728064221807,0.978280992966));
#1283 = CARTESIAN_POINT('',(4.725755447295,0.982624792946));
#1284 = CARTESIAN_POINT('',(4.723462646713,0.986968593657));
#1285 = CARTESIAN_POINT('',(4.721185603214,0.991312395082));
#1286 = CARTESIAN_POINT('',(4.718924105047,0.995656197202));
#1287 = CARTESIAN_POINT('',(4.716677945562,1.));
#1288 = ( GEOMETRIC_REPRESENTATION_CONTEXT(2) 
PARAMETRIC_REPRESENTATION_CONTEXT() REPRESENTATION_CONTEXT('2D SPACE',''
  ) );
#1289 = ORIENTED_EDGE('',*,*,#1290,.T.);
#1290 = EDGE_CURVE('',#1163,#598,#1291,.T.);
#1291 = SURFACE_CURVE('',#1292,(#1295,#1302),.PCURVE_S1.);
#1292 = B_SPLINE_CURVE_WITH_KNOTS('',1,(#1293,#1294),.UNSPECIFIED.,.F.,
  .F.,(2,2),(0.,1.),.PIECEWISE_BEZIER_KNOTS.);
#1293 = CARTESIAN_POINT('',(37.8,-7.105427357601E-15,0.));
#1294 = CARTESIAN_POINT('',(36.75,0.75,99.));
#1295 = PCURVE('',#717,#1296);
#1296 = DEFINITIONAL_REPRESENTATION('',(#1297),#1301);
#1297 = LINE('',#1298,#1299);
#1298 = CARTESIAN_POINT('',(6.28318530718,0.));
#1299 = VECTOR('',#1300,1.);
#1300 = DIRECTION('',(0.,1.));
#1301 = ( GEOMETRIC_REPRESENTATION_CONTEXT(2) 
PARAMETRIC_REPRESENTATION_CONTEXT() REPRESENTATION_CONTEXT('2D SPACE',''
  ) );
#1302 = PCURVE('',#267,#1303);
#1303 = DEFINITIONAL_REPRESENTATION('',(#1304),#1308);
#1304 = LINE('',#1305,#1306);
#1305 = CARTESIAN_POINT('',(-73.5,0.));
#1306 = VECTOR('',#1307,1.);
#1307 = DIRECTION('',(0.,1.));
#1308 = ( GEOMETRIC_REPRESENTATION_CONTEXT(2) 
PARAMETRIC_REPRESENTATION_CONTEXT() REPRESENTATION_CONTEXT('2D SPACE',''
  ) );
#1309 = ORIENTED_EDGE('',*,*,#703,.T.);
#1310 = ADVANCED_FACE('',(#1311),#637,.T.);
#1311 = FACE_BOUND('',#1312,.T.);
#1312 = EDGE_LOOP('',(#1313,#1314,#1315,#1316));
#1313 = ORIENTED_EDGE('',*,*,#621,.T.);
#1314 = ORIENTED_EDGE('',*,*,#854,.T.);
#1315 = ORIENTED_EDGE('',*,*,#997,.F.);
#1316 = ORIENTED_EDGE('',*,*,#1317,.F.);
#1317 = EDGE_CURVE('',#517,#974,#1318,.T.);
#1318 = SURFACE_CURVE('',#1319,(#1322,#1328),.PCURVE_S1.);
#1319 = B_SPLINE_CURVE_WITH_KNOTS('',1,(#1320,#1321),.UNSPECIFIED.,.F.,
  .F.,(2,2),(0.,1.),.PIECEWISE_BEZIER_KNOTS.);
#1320 = CARTESIAN_POINT('',(-36.75,0.75,107.5));
#1321 = CARTESIAN_POINT('',(-36.75,2.25,109.));
#1322 = PCURVE('',#637,#1323);
#1323 = DEFINITIONAL_REPRESENTATION('',(#1324),#1327);
#1324 = B_SPLINE_CURVE_WITH_KNOTS('',1,(#1325,#1326),.UNSPECIFIED.,.F.,
  .F.,(2,2),(0.,1.),.PIECEWISE_BEZIER_KNOTS.);
#1325 = CARTESIAN_POINT('',(0.,-2.12132034356));
#1326 = CARTESIAN_POINT('',(0.,0.));
#1327 = ( GEOMETRIC_REPRESENTATION_CONTEXT(2) 
PARAMETRIC_REPRESENTATION_CONTEXT() REPRESENTATION_CONTEXT('2D SPACE',''
  ) );
#1328 = PCURVE('',#533,#1329);
#1329 = DEFINITIONAL_REPRESENTATION('',(#1330),#1333);
#1330 = B_SPLINE_CURVE_WITH_KNOTS('',1,(#1331,#1332),.UNSPECIFIED.,.F.,
  .F.,(2,2),(0.,1.),.PIECEWISE_BEZIER_KNOTS.);
#1331 = CARTESIAN_POINT('',(3.14159265359,0.));
#1332 = CARTESIAN_POINT('',(3.14159265359,1.5));
#1333 = ( GEOMETRIC_REPRESENTATION_CONTEXT(2) 
PARAMETRIC_REPRESENTATION_CONTEXT() REPRESENTATION_CONTEXT('2D SPACE',''
  ) );
#1334 = ADVANCED_FACE('',(#1335),#533,.F.);
#1335 = FACE_BOUND('',#1336,.F.);
#1336 = EDGE_LOOP('',(#1337,#1338,#1339,#1340));
#1337 = ORIENTED_EDGE('',*,*,#973,.F.);
#1338 = ORIENTED_EDGE('',*,*,#1317,.F.);
#1339 = ORIENTED_EDGE('',*,*,#516,.T.);
#1340 = ORIENTED_EDGE('',*,*,#896,.T.);
#1341 = ADVANCED_FACE('',(#1342),#504,.F.);
#1342 = FACE_BOUND('',#1343,.F.);
#1343 = EDGE_LOOP('',(#1344,#1365,#1366,#1367));
#1344 = ORIENTED_EDGE('',*,*,#1345,.F.);
#1345 = EDGE_CURVE('',#681,#437,#1346,.T.);
#1346 = SURFACE_CURVE('',#1347,(#1351,#1358),.PCURVE_S1.);
#1347 = LINE('',#1348,#1349);
#1348 = CARTESIAN_POINT('',(36.75,-0.75,99.));
#1349 = VECTOR('',#1350,1.);
#1350 = DIRECTION('',(-1.,0.,0.));
#1351 = PCURVE('',#504,#1352);
#1352 = DEFINITIONAL_REPRESENTATION('',(#1353),#1357);
#1353 = LINE('',#1354,#1355);
#1354 = CARTESIAN_POINT('',(0.,-0.));
#1355 = VECTOR('',#1356,1.);
#1356 = DIRECTION('',(1.,0.));
#1357 = ( GEOMETRIC_REPRESENTATION_CONTEXT(2) 
PARAMETRIC_REPRESENTATION_CONTEXT() REPRESENTATION_CONTEXT('2D SPACE',''
  ) );
#1358 = PCURVE('',#131,#1359);
#1359 = DEFINITIONAL_REPRESENTATION('',(#1360),#1364);
#1360 = LINE('',#1361,#1362);
#1361 = CARTESIAN_POINT('',(0.,1.));
#1362 = VECTOR('',#1363,1.);
#1363 = DIRECTION('',(-1.,0.));
#1364 = ( GEOMETRIC_REPRESENTATION_CONTEXT(2) 
PARAMETRIC_REPRESENTATION_CONTEXT() REPRESENTATION_CONTEXT('2D SPACE',''
  ) );
#1365 = ORIENTED_EDGE('',*,*,#775,.T.);
#1366 = ORIENTED_EDGE('',*,*,#875,.T.);
#1367 = ORIENTED_EDGE('',*,*,#488,.F.);
#1368 = ADVANCED_FACE('',(#1369),#223,.F.);
#1369 = FACE_BOUND('',#1370,.F.);
#1370 = EDGE_LOOP('',(#1371,#1391,#1392,#1393));
#1371 = ORIENTED_EDGE('',*,*,#1372,.F.);
#1372 = EDGE_CURVE('',#207,#546,#1373,.T.);
#1373 = SURFACE_CURVE('',#1374,(#1377,#1384),.PCURVE_S1.);
#1374 = B_SPLINE_CURVE_WITH_KNOTS('',1,(#1375,#1376),.UNSPECIFIED.,.F.,
  .F.,(2,2),(0.,1.),.PIECEWISE_BEZIER_KNOTS.);
#1375 = CARTESIAN_POINT('',(-37.79213073791,0.771267974243,0.));
#1376 = CARTESIAN_POINT('',(-36.75,0.75,99.));
#1377 = PCURVE('',#223,#1378);
#1378 = DEFINITIONAL_REPRESENTATION('',(#1379),#1383);
#1379 = LINE('',#1380,#1381);
#1380 = CARTESIAN_POINT('',(3.14159265359,0.));
#1381 = VECTOR('',#1382,1.);
#1382 = DIRECTION('',(0.,1.));
#1383 = ( GEOMETRIC_REPRESENTATION_CONTEXT(2) 
PARAMETRIC_REPRESENTATION_CONTEXT() REPRESENTATION_CONTEXT('2D SPACE',''
  ) );
#1384 = PCURVE('',#267,#1385);
#1385 = DEFINITIONAL_REPRESENTATION('',(#1386),#1390);
#1386 = LINE('',#1387,#1388);
#1387 = CARTESIAN_POINT('',(0.,0.));
#1388 = VECTOR('',#1389,1.);
#1389 = DIRECTION('',(0.,1.));
#1390 = ( GEOMETRIC_REPRESENTATION_CONTEXT(2) 
PARAMETRIC_REPRESENTATION_CONTEXT() REPRESENTATION_CONTEXT('2D SPACE',''
  ) );
#1391 = ORIENTED_EDGE('',*,*,#206,.T.);
#1392 = ORIENTED_EDGE('',*,*,#391,.T.);
#1393 = ORIENTED_EDGE('',*,*,#573,.T.);
#1394 = ADVANCED_FACE('',(#1395),#267,.F.);
#1395 = FACE_BOUND('',#1396,.F.);
#1396 = EDGE_LOOP('',(#1397,#1424,#1425,#1426,#1427));
#1397 = ORIENTED_EDGE('',*,*,#1398,.F.);
#1398 = EDGE_CURVE('',#251,#1163,#1399,.T.);
#1399 = SURFACE_CURVE('',#1400,(#1406,#1415),.PCURVE_S1.);
#1400 = B_SPLINE_CURVE_WITH_KNOTS('',4,(#1401,#1402,#1403,#1404,#1405),
  .UNSPECIFIED.,.F.,.F.,(5,5),(0.,1.),.PIECEWISE_BEZIER_KNOTS.);
#1401 = CARTESIAN_POINT('',(37.799999863132,3.216713912751E-03,0.));
#1402 = CARTESIAN_POINT('',(37.798871932963,3.216713912751E-03,
    0.106151546809));
#1403 = CARTESIAN_POINT('',(37.797745406425,3.216713912751E-03,
    0.212303101828));
#1404 = CARTESIAN_POINT('',(37.796620292549,3.216713912751E-03,
    0.318454665056));
#1405 = CARTESIAN_POINT('',(37.795496600522,3.216713912751E-03,
    0.424606236484));
#1406 = PCURVE('',#267,#1407);
#1407 = DEFINITIONAL_REPRESENTATION('',(#1408),#1414);
#1408 = B_SPLINE_CURVE_WITH_KNOTS('',4,(#1409,#1410,#1411,#1412,#1413),
  .UNSPECIFIED.,.F.,.F.,(5,5),(0.,1.),.PIECEWISE_BEZIER_KNOTS.);
#1409 = CARTESIAN_POINT('',(-73.49799604417,0.));
#1410 = CARTESIAN_POINT('',(-73.49849488436,1.072237846559E-03));
#1411 = CARTESIAN_POINT('',(-73.49899515091,2.144475776043E-03));
#1412 = CARTESIAN_POINT('',(-73.49949685301,3.216713788446E-03));
#1413 = CARTESIAN_POINT('',(-73.5,4.288951883677E-03));
#1414 = ( GEOMETRIC_REPRESENTATION_CONTEXT(2) 
PARAMETRIC_REPRESENTATION_CONTEXT() REPRESENTATION_CONTEXT('2D SPACE',''
  ) );
#1415 = PCURVE('',#315,#1416);
#1416 = DEFINITIONAL_REPRESENTATION('',(#1417),#1423);
#1417 = B_SPLINE_CURVE_WITH_KNOTS('',4,(#1418,#1419,#1420,#1421,#1422),
  .UNSPECIFIED.,.F.,.F.,(5,5),(0.,1.),.PIECEWISE_BEZIER_KNOTS.);
#1418 = CARTESIAN_POINT('',(-73.49799604417,0.));
#1419 = CARTESIAN_POINT('',(-73.49849488436,1.072237846559E-03));
#1420 = CARTESIAN_POINT('',(-73.49899515091,2.144475776043E-03));
#1421 = CARTESIAN_POINT('',(-73.49949685301,3.216713788446E-03));
#1422 = CARTESIAN_POINT('',(-73.5,4.288951883677E-03));
#1423 = ( GEOMETRIC_REPRESENTATION_CONTEXT(2) 
PARAMETRIC_REPRESENTATION_CONTEXT() REPRESENTATION_CONTEXT('2D SPACE',''
  ) );
#1424 = ORIENTED_EDGE('',*,*,#250,.T.);
#1425 = ORIENTED_EDGE('',*,*,#1372,.T.);
#1426 = ORIENTED_EDGE('',*,*,#597,.T.);
#1427 = ORIENTED_EDGE('',*,*,#1290,.F.);
#1428 = ADVANCED_FACE('',(#1429),#315,.F.);
#1429 = FACE_BOUND('',#1430,.F.);
#1430 = EDGE_LOOP('',(#1431,#1451,#1452));
#1431 = ORIENTED_EDGE('',*,*,#1432,.F.);
#1432 = EDGE_CURVE('',#299,#1163,#1433,.T.);
#1433 = SURFACE_CURVE('',#1434,(#1437,#1444),.PCURVE_S1.);
#1434 = B_SPLINE_CURVE_WITH_KNOTS('',1,(#1435,#1436),.UNSPECIFIED.,.F.,
  .F.,(2,2),(0.,1.),.PIECEWISE_BEZIER_KNOTS.);
#1435 = CARTESIAN_POINT('',(37.8,-7.105427357601E-15,0.));
#1436 = CARTESIAN_POINT('',(36.75,0.75,99.));
#1437 = PCURVE('',#315,#1438);
#1438 = DEFINITIONAL_REPRESENTATION('',(#1439),#1443);
#1439 = LINE('',#1440,#1441);
#1440 = CARTESIAN_POINT('',(-73.5,0.));
#1441 = VECTOR('',#1442,1.);
#1442 = DIRECTION('',(0.,1.));
#1443 = ( GEOMETRIC_REPRESENTATION_CONTEXT(2) 
PARAMETRIC_REPRESENTATION_CONTEXT() REPRESENTATION_CONTEXT('2D SPACE',''
  ) );
#1444 = PCURVE('',#361,#1445);
#1445 = DEFINITIONAL_REPRESENTATION('',(#1446),#1450);
#1446 = LINE('',#1447,#1448);
#1447 = CARTESIAN_POINT('',(6.28318530718,0.));
#1448 = VECTOR('',#1449,1.);
#1449 = DIRECTION('',(0.,1.));
#1450 = ( GEOMETRIC_REPRESENTATION_CONTEXT(2) 
PARAMETRIC_REPRESENTATION_CONTEXT() REPRESENTATION_CONTEXT('2D SPACE',''
  ) );
#1451 = ORIENTED_EDGE('',*,*,#298,.T.);
#1452 = ORIENTED_EDGE('',*,*,#1398,.T.);
#1453 = ADVANCED_FACE('',(#1454),#361,.F.);
#1454 = FACE_BOUND('',#1455,.F.);
#1455 = EDGE_LOOP('',(#1456,#1476,#1477,#1478,#1479));
#1456 = ORIENTED_EDGE('',*,*,#1457,.F.);
#1457 = EDGE_CURVE('',#115,#681,#1458,.T.);
#1458 = SURFACE_CURVE('',#1459,(#1462,#1469),.PCURVE_S1.);
#1459 = B_SPLINE_CURVE_WITH_KNOTS('',1,(#1460,#1461),.UNSPECIFIED.,.F.,
  .F.,(2,2),(0.,1.),.PIECEWISE_BEZIER_KNOTS.);
#1460 = CARTESIAN_POINT('',(37.792130737918,-0.771267974243,0.));
#1461 = CARTESIAN_POINT('',(36.75,-0.75,99.));
#1462 = PCURVE('',#361,#1463);
#1463 = DEFINITIONAL_REPRESENTATION('',(#1464),#1468);
#1464 = LINE('',#1465,#1466);
#1465 = CARTESIAN_POINT('',(3.14159265359,0.));
#1466 = VECTOR('',#1467,1.);
#1467 = DIRECTION('',(0.,1.));
#1468 = ( GEOMETRIC_REPRESENTATION_CONTEXT(2) 
PARAMETRIC_REPRESENTATION_CONTEXT() REPRESENTATION_CONTEXT('2D SPACE',''
  ) );
#1469 = PCURVE('',#131,#1470);
#1470 = DEFINITIONAL_REPRESENTATION('',(#1471),#1475);
#1471 = LINE('',#1472,#1473);
#1472 = CARTESIAN_POINT('',(0.,0.));
#1473 = VECTOR('',#1474,1.);
#1474 = DIRECTION('',(0.,1.));
#1475 = ( GEOMETRIC_REPRESENTATION_CONTEXT(2) 
PARAMETRIC_REPRESENTATION_CONTEXT() REPRESENTATION_CONTEXT('2D SPACE',''
  ) );
#1476 = ORIENTED_EDGE('',*,*,#346,.T.);
#1477 = ORIENTED_EDGE('',*,*,#1432,.T.);
#1478 = ORIENTED_EDGE('',*,*,#1162,.T.);
#1479 = ORIENTED_EDGE('',*,*,#678,.T.);
#1480 = ADVANCED_FACE('',(#1481),#131,.F.);
#1481 = FACE_BOUND('',#1482,.F.);
#1482 = EDGE_LOOP('',(#1483,#1484,#1485,#1486));
#1483 = ORIENTED_EDGE('',*,*,#112,.T.);
#1484 = ORIENTED_EDGE('',*,*,#1457,.T.);
#1485 = ORIENTED_EDGE('',*,*,#1345,.T.);
#1486 = ORIENTED_EDGE('',*,*,#436,.F.);
#1487 = ADVANCED_FACE('',(#1488,#1491),#43,.T.);
#1488 = FACE_BOUND('',#1489,.T.);
#1489 = EDGE_LOOP('',(#1490));
#1490 = ORIENTED_EDGE('',*,*,#21,.T.);
#1491 = FACE_BOUND('',#1492,.T.);
#1492 = EDGE_LOOP('',(#1493));
#1493 = ORIENTED_EDGE('',*,*,#1136,.F.);
#1494 = ( GEOMETRIC_REPRESENTATION_CONTEXT(3) 
GLOBAL_UNCERTAINTY_ASSIGNED_CONTEXT((#1498)) 
GLOBAL_UNIT_ASSIGNED_CONTEXT((#1495,#1496,#1497)) REPRESENTATION_CONTEXT
('Context #1','3D Context with UNIT and UNCERTAINTY') );
#1495 = ( LENGTH_UNIT() NAMED_UNIT(*) SI_UNIT(.MILLI.,.METRE.) );
#1496 = ( NAMED_UNIT(*) PLANE_ANGLE_UNIT() SI_UNIT($,.RADIAN.) );
#1497 = ( NAMED_UNIT(*) SI_UNIT($,.STERADIAN.) SOLID_ANGLE_UNIT() );
#1498 = UNCERTAINTY_MEASURE_WITH_UNIT(LENGTH_MEASURE(1.E-07),#1495,
  'distance_accuracy_value','confusion accuracy');
#1499 = PRODUCT_RELATED_PRODUCT_CATEGORY('part',$,(#7));
ENDSEC;
END-ISO-10303-21;
