ISO-10303-21;
HEADER;
FILE_DESCRIPTION(('Open CASCADE Model'),'2;1');
FILE_NAME('Open CASCADE Shape Model','2026-09-13T04:16:25',('Author'),(
    'Open CASCADE'),'Open CASCADE STEP processor 7.9','Open CASCADE 7.9'
  ,'Unknown');
FILE_SCHEMA(('AUTOMOTIVE_DESIGN { 1 0 10303 214 1 1 1 1 }'));
ENDSEC;
DATA;
#1 = APPLICATION_PROTOCOL_DEFINITION('international standard',
  'automotive_design',2000,#2);
#2 = APPLICATION_CONTEXT(
  'core data for automotive mechanical design processes');
#3 = SHAPE_DEFINITION_REPRESENTATION(#4,#10);
#4 = PRODUCT_DEFINITION_SHAPE('','',#5);
#5 = PRODUCT_DEFINITION('design','',#6,#9);
#6 = PRODUCT_DEFINITION_FORMATION('','',#7);
#7 = PRODUCT('Open CASCADE STEP translator 7.9 5',
  'Open CASCADE STEP translator 7.9 5','',(#8));
#8 = PRODUCT_CONTEXT('',#2,'mechanical');
#9 = PRODUCT_DEFINITION_CONTEXT('part definition',#2,'design');
#10 = SHAPE_REPRESENTATION('',(#11,#15,#19),#23);
#11 = AXIS2_PLACEMENT_3D('',#12,#13,#14);
#12 = CARTESIAN_POINT('',(0.,0.,0.));
#13 = DIRECTION('',(0.,0.,1.));
#14 = DIRECTION('',(1.,0.,-0.));
#15 = AXIS2_PLACEMENT_3D('',#16,#17,#18);
#16 = CARTESIAN_POINT('',(0.,0.,0.));
#17 = DIRECTION('',(0.,0.,1.));
#18 = DIRECTION('',(1.,0.,-0.));
#19 = AXIS2_PLACEMENT_3D('',#20,#21,#22);
#20 = CARTESIAN_POINT('',(0.,0.,0.));
#21 = DIRECTION('',(0.,0.,1.));
#22 = DIRECTION('',(1.,0.,-0.));
#23 = ( GEOMETRIC_REPRESENTATION_CONTEXT(3) 
GLOBAL_UNCERTAINTY_ASSIGNED_CONTEXT((#27)) GLOBAL_UNIT_ASSIGNED_CONTEXT(
(#24,#25,#26)) REPRESENTATION_CONTEXT('Context #1',
  '3D Context with UNIT and UNCERTAINTY') );
#24 = ( LENGTH_UNIT() NAMED_UNIT(*) SI_UNIT(.MILLI.,.METRE.) );
#25 = ( NAMED_UNIT(*) PLANE_ANGLE_UNIT() SI_UNIT($,.RADIAN.) );
#26 = ( NAMED_UNIT(*) SI_UNIT($,.STERADIAN.) SOLID_ANGLE_UNIT() );
#27 = UNCERTAINTY_MEASURE_WITH_UNIT(LENGTH_MEASURE(1.E-07),#24,
  'distance_accuracy_value','confusion accuracy');
#28 = PRODUCT_RELATED_PRODUCT_CATEGORY('part',$,(#7));
#29 = SHAPE_DEFINITION_REPRESENTATION(#30,#36);
#30 = PRODUCT_DEFINITION_SHAPE('','',#31);
#31 = PRODUCT_DEFINITION('design','',#32,#35);
#32 = PRODUCT_DEFINITION_FORMATION('','',#33);
#33 = PRODUCT('Open CASCADE STEP translator 7.9 5.1',
  'Open CASCADE STEP translator 7.9 5.1','',(#34));
#34 = PRODUCT_CONTEXT('',#2,'mechanical');
#35 = PRODUCT_DEFINITION_CONTEXT('part definition',#2,'design');
#36 = ADVANCED_BREP_SHAPE_REPRESENTATION('',(#11,#37),#544);
#37 = MANIFOLD_SOLID_BREP('',#38);
#38 = CLOSED_SHELL('',(#39,#107,#162,#217,#272,#307,#342,#397,#452,#487,
    #517));
#39 = ADVANCED_FACE('',(#40,#76),#53,.F.);
#40 = FACE_BOUND('',#41,.F.);
#41 = EDGE_LOOP('',(#42));
#42 = ORIENTED_EDGE('',*,*,#43,.T.);
#43 = EDGE_CURVE('',#44,#44,#46,.T.);
#44 = VERTEX_POINT('',#45);
#45 = CARTESIAN_POINT('',(65.,-1.592040838892E-14,3.));
#46 = SURFACE_CURVE('',#47,(#52,#64),.PCURVE_S1.);
#47 = CIRCLE('',#48,65.);
#48 = AXIS2_PLACEMENT_3D('',#49,#50,#51);
#49 = CARTESIAN_POINT('',(0.,0.,3.));
#50 = DIRECTION('',(0.,0.,1.));
#51 = DIRECTION('',(1.,0.,-0.));
#52 = PCURVE('',#53,#58);
#53 = PLANE('',#54);
#54 = AXIS2_PLACEMENT_3D('',#55,#56,#57);
#55 = CARTESIAN_POINT('',(0.,0.,3.));
#56 = DIRECTION('',(0.,0.,1.));
#57 = DIRECTION('',(1.,0.,-0.));
#58 = DEFINITIONAL_REPRESENTATION('',(#59),#63);
#59 = CIRCLE('',#60,65.);
#60 = AXIS2_PLACEMENT_2D('',#61,#62);
#61 = CARTESIAN_POINT('',(0.,0.));
#62 = DIRECTION('',(1.,0.));
#63 = ( GEOMETRIC_REPRESENTATION_CONTEXT(2) 
PARAMETRIC_REPRESENTATION_CONTEXT() REPRESENTATION_CONTEXT('2D SPACE',''
  ) );
#64 = PCURVE('',#65,#70);
#65 = CYLINDRICAL_SURFACE('',#66,65.);
#66 = AXIS2_PLACEMENT_3D('',#67,#68,#69);
#67 = CARTESIAN_POINT('',(0.,0.,-1.));
#68 = DIRECTION('',(0.,0.,1.));
#69 = DIRECTION('',(1.,0.,-0.));
#70 = DEFINITIONAL_REPRESENTATION('',(#71),#75);
#71 = LINE('',#72,#73);
#72 = CARTESIAN_POINT('',(0.,4.));
#73 = VECTOR('',#74,1.);
#74 = DIRECTION('',(1.,0.));
#75 = ( GEOMETRIC_REPRESENTATION_CONTEXT(2) 
PARAMETRIC_REPRESENTATION_CONTEXT() REPRESENTATION_CONTEXT('2D SPACE',''
  ) );
#76 = FACE_BOUND('',#77,.F.);
#77 = EDGE_LOOP('',(#78));
#78 = ORIENTED_EDGE('',*,*,#79,.F.);
#79 = EDGE_CURVE('',#80,#80,#82,.T.);
#80 = VERTEX_POINT('',#81);
#81 = CARTESIAN_POINT('',(52.5,-1.285879139105E-14,3.));
#82 = SURFACE_CURVE('',#83,(#88,#95),.PCURVE_S1.);
#83 = CIRCLE('',#84,52.5);
#84 = AXIS2_PLACEMENT_3D('',#85,#86,#87);
#85 = CARTESIAN_POINT('',(0.,0.,3.));
#86 = DIRECTION('',(0.,0.,1.));
#87 = DIRECTION('',(1.,0.,-0.));
#88 = PCURVE('',#53,#89);
#89 = DEFINITIONAL_REPRESENTATION('',(#90),#94);
#90 = CIRCLE('',#91,52.5);
#91 = AXIS2_PLACEMENT_2D('',#92,#93);
#92 = CARTESIAN_POINT('',(0.,0.));
#93 = DIRECTION('',(1.,0.));
#94 = ( GEOMETRIC_REPRESENTATION_CONTEXT(2) 
PARAMETRIC_REPRESENTATION_CONTEXT() REPRESENTATION_CONTEXT('2D SPACE',''
  ) );
#95 = PCURVE('',#96,#101);
#96 = CYLINDRICAL_SURFACE('',#97,52.5);
#97 = AXIS2_PLACEMENT_3D('',#98,#99,#100);
#98 = CARTESIAN_POINT('',(0.,0.,0.));
#99 = DIRECTION('',(0.,0.,1.));
#100 = DIRECTION('',(1.,0.,-0.));
#101 = DEFINITIONAL_REPRESENTATION('',(#102),#106);
#102 = LINE('',#103,#104);
#103 = CARTESIAN_POINT('',(0.,3.));
#104 = VECTOR('',#105,1.);
#105 = DIRECTION('',(1.,0.));
#106 = ( GEOMETRIC_REPRESENTATION_CONTEXT(2) 
PARAMETRIC_REPRESENTATION_CONTEXT() REPRESENTATION_CONTEXT('2D SPACE',''
  ) );
#107 = ADVANCED_FACE('',(#108),#65,.T.);
#108 = FACE_BOUND('',#109,.T.);
#109 = EDGE_LOOP('',(#110,#139,#160,#161));
#110 = ORIENTED_EDGE('',*,*,#111,.F.);
#111 = EDGE_CURVE('',#112,#112,#114,.T.);
#112 = VERTEX_POINT('',#113);
#113 = CARTESIAN_POINT('',(65.,-1.592040838892E-14,53.));
#114 = SURFACE_CURVE('',#115,(#120,#127),.PCURVE_S1.);
#115 = CIRCLE('',#116,65.);
#116 = AXIS2_PLACEMENT_3D('',#117,#118,#119);
#117 = CARTESIAN_POINT('',(0.,0.,53.));
#118 = DIRECTION('',(0.,0.,1.));
#119 = DIRECTION('',(1.,0.,-0.));
#120 = PCURVE('',#65,#121);
#121 = DEFINITIONAL_REPRESENTATION('',(#122),#126);
#122 = LINE('',#123,#124);
#123 = CARTESIAN_POINT('',(0.,54.));
#124 = VECTOR('',#125,1.);
#125 = DIRECTION('',(1.,0.));
#126 = ( GEOMETRIC_REPRESENTATION_CONTEXT(2) 
PARAMETRIC_REPRESENTATION_CONTEXT() REPRESENTATION_CONTEXT('2D SPACE',''
  ) );
#127 = PCURVE('',#128,#133);
#128 = CYLINDRICAL_SURFACE('',#129,65.);
#129 = AXIS2_PLACEMENT_3D('',#130,#131,#132);
#130 = CARTESIAN_POINT('',(0.,0.,53.));
#131 = DIRECTION('',(0.,0.,1.));
#132 = DIRECTION('',(1.,0.,-0.));
#133 = DEFINITIONAL_REPRESENTATION('',(#134),#138);
#134 = LINE('',#135,#136);
#135 = CARTESIAN_POINT('',(0.,0.));
#136 = VECTOR('',#137,1.);
#137 = DIRECTION('',(1.,0.));
#138 = ( GEOMETRIC_REPRESENTATION_CONTEXT(2) 
PARAMETRIC_REPRESENTATION_CONTEXT() REPRESENTATION_CONTEXT('2D SPACE',''
  ) );
#139 = ORIENTED_EDGE('',*,*,#140,.F.);
#140 = EDGE_CURVE('',#44,#112,#141,.T.);
#141 = SEAM_CURVE('',#142,(#146,#153),.PCURVE_S1.);
#142 = LINE('',#143,#144);
#143 = CARTESIAN_POINT('',(65.,-1.592040838892E-14,-1.));
#144 = VECTOR('',#145,1.);
#145 = DIRECTION('',(0.,0.,1.));
#146 = PCURVE('',#65,#147);
#147 = DEFINITIONAL_REPRESENTATION('',(#148),#152);
#148 = LINE('',#149,#150);
#149 = CARTESIAN_POINT('',(0.,-0.));
#150 = VECTOR('',#151,1.);
#151 = DIRECTION('',(0.,1.));
#152 = ( GEOMETRIC_REPRESENTATION_CONTEXT(2) 
PARAMETRIC_REPRESENTATION_CONTEXT() REPRESENTATION_CONTEXT('2D SPACE',''
  ) );
#153 = PCURVE('',#65,#154);
#154 = DEFINITIONAL_REPRESENTATION('',(#155),#159);
#155 = LINE('',#156,#157);
#156 = CARTESIAN_POINT('',(6.28318530718,-0.));
#157 = VECTOR('',#158,1.);
#158 = DIRECTION('',(0.,1.));
#159 = ( GEOMETRIC_REPRESENTATION_CONTEXT(2) 
PARAMETRIC_REPRESENTATION_CONTEXT() REPRESENTATION_CONTEXT('2D SPACE',''
  ) );
#160 = ORIENTED_EDGE('',*,*,#43,.T.);
#161 = ORIENTED_EDGE('',*,*,#140,.T.);
#162 = ADVANCED_FACE('',(#163),#96,.T.);
#163 = FACE_BOUND('',#164,.T.);
#164 = EDGE_LOOP('',(#165,#166,#189,#216));
#165 = ORIENTED_EDGE('',*,*,#79,.F.);
#166 = ORIENTED_EDGE('',*,*,#167,.F.);
#167 = EDGE_CURVE('',#168,#80,#170,.T.);
#168 = VERTEX_POINT('',#169);
#169 = CARTESIAN_POINT('',(52.5,-1.285879139105E-14,0.));
#170 = SEAM_CURVE('',#171,(#175,#182),.PCURVE_S1.);
#171 = LINE('',#172,#173);
#172 = CARTESIAN_POINT('',(52.5,-1.285879139105E-14,0.));
#173 = VECTOR('',#174,1.);
#174 = DIRECTION('',(0.,0.,1.));
#175 = PCURVE('',#96,#176);
#176 = DEFINITIONAL_REPRESENTATION('',(#177),#181);
#177 = LINE('',#178,#179);
#178 = CARTESIAN_POINT('',(0.,-0.));
#179 = VECTOR('',#180,1.);
#180 = DIRECTION('',(0.,1.));
#181 = ( GEOMETRIC_REPRESENTATION_CONTEXT(2) 
PARAMETRIC_REPRESENTATION_CONTEXT() REPRESENTATION_CONTEXT('2D SPACE',''
  ) );
#182 = PCURVE('',#96,#183);
#183 = DEFINITIONAL_REPRESENTATION('',(#184),#188);
#184 = LINE('',#185,#186);
#185 = CARTESIAN_POINT('',(6.28318530718,-0.));
#186 = VECTOR('',#187,1.);
#187 = DIRECTION('',(0.,1.));
#188 = ( GEOMETRIC_REPRESENTATION_CONTEXT(2) 
PARAMETRIC_REPRESENTATION_CONTEXT() REPRESENTATION_CONTEXT('2D SPACE',''
  ) );
#189 = ORIENTED_EDGE('',*,*,#190,.T.);
#190 = EDGE_CURVE('',#168,#168,#191,.T.);
#191 = SURFACE_CURVE('',#192,(#197,#204),.PCURVE_S1.);
#192 = CIRCLE('',#193,52.5);
#193 = AXIS2_PLACEMENT_3D('',#194,#195,#196);
#194 = CARTESIAN_POINT('',(0.,0.,0.));
#195 = DIRECTION('',(0.,0.,1.));
#196 = DIRECTION('',(1.,0.,-0.));
#197 = PCURVE('',#96,#198);
#198 = DEFINITIONAL_REPRESENTATION('',(#199),#203);
#199 = LINE('',#200,#201);
#200 = CARTESIAN_POINT('',(0.,0.));
#201 = VECTOR('',#202,1.);
#202 = DIRECTION('',(1.,0.));
#203 = ( GEOMETRIC_REPRESENTATION_CONTEXT(2) 
PARAMETRIC_REPRESENTATION_CONTEXT() REPRESENTATION_CONTEXT('2D SPACE',''
  ) );
#204 = PCURVE('',#205,#210);
#205 = PLANE('',#206);
#206 = AXIS2_PLACEMENT_3D('',#207,#208,#209);
#207 = CARTESIAN_POINT('',(0.,0.,0.));
#208 = DIRECTION('',(0.,0.,1.));
#209 = DIRECTION('',(1.,0.,-0.));
#210 = DEFINITIONAL_REPRESENTATION('',(#211),#215);
#211 = CIRCLE('',#212,52.5);
#212 = AXIS2_PLACEMENT_2D('',#213,#214);
#213 = CARTESIAN_POINT('',(0.,0.));
#214 = DIRECTION('',(1.,0.));
#215 = ( GEOMETRIC_REPRESENTATION_CONTEXT(2) 
PARAMETRIC_REPRESENTATION_CONTEXT() REPRESENTATION_CONTEXT('2D SPACE',''
  ) );
#216 = ORIENTED_EDGE('',*,*,#167,.T.);
#217 = ADVANCED_FACE('',(#218),#128,.T.);
#218 = FACE_BOUND('',#219,.T.);
#219 = EDGE_LOOP('',(#220,#249,#270,#271));
#220 = ORIENTED_EDGE('',*,*,#221,.F.);
#221 = EDGE_CURVE('',#222,#222,#224,.T.);
#222 = VERTEX_POINT('',#223);
#223 = CARTESIAN_POINT('',(65.,-1.592040838892E-14,95.));
#224 = SURFACE_CURVE('',#225,(#230,#237),.PCURVE_S1.);
#225 = CIRCLE('',#226,65.);
#226 = AXIS2_PLACEMENT_3D('',#227,#228,#229);
#227 = CARTESIAN_POINT('',(0.,0.,95.));
#228 = DIRECTION('',(0.,0.,1.));
#229 = DIRECTION('',(1.,0.,-0.));
#230 = PCURVE('',#128,#231);
#231 = DEFINITIONAL_REPRESENTATION('',(#232),#236);
#232 = LINE('',#233,#234);
#233 = CARTESIAN_POINT('',(0.,42.));
#234 = VECTOR('',#235,1.);
#235 = DIRECTION('',(1.,0.));
#236 = ( GEOMETRIC_REPRESENTATION_CONTEXT(2) 
PARAMETRIC_REPRESENTATION_CONTEXT() REPRESENTATION_CONTEXT('2D SPACE',''
  ) );
#237 = PCURVE('',#238,#243);
#238 = PLANE('',#239);
#239 = AXIS2_PLACEMENT_3D('',#240,#241,#242);
#240 = CARTESIAN_POINT('',(0.,0.,95.));
#241 = DIRECTION('',(0.,0.,1.));
#242 = DIRECTION('',(1.,0.,-0.));
#243 = DEFINITIONAL_REPRESENTATION('',(#244),#248);
#244 = CIRCLE('',#245,65.);
#245 = AXIS2_PLACEMENT_2D('',#246,#247);
#246 = CARTESIAN_POINT('',(0.,0.));
#247 = DIRECTION('',(1.,0.));
#248 = ( GEOMETRIC_REPRESENTATION_CONTEXT(2) 
PARAMETRIC_REPRESENTATION_CONTEXT() REPRESENTATION_CONTEXT('2D SPACE',''
  ) );
#249 = ORIENTED_EDGE('',*,*,#250,.F.);
#250 = EDGE_CURVE('',#112,#222,#251,.T.);
#251 = SEAM_CURVE('',#252,(#256,#263),.PCURVE_S1.);
#252 = LINE('',#253,#254);
#253 = CARTESIAN_POINT('',(65.,-1.592040838892E-14,53.));
#254 = VECTOR('',#255,1.);
#255 = DIRECTION('',(0.,0.,1.));
#256 = PCURVE('',#128,#257);
#257 = DEFINITIONAL_REPRESENTATION('',(#258),#262);
#258 = LINE('',#259,#260);
#259 = CARTESIAN_POINT('',(0.,-0.));
#260 = VECTOR('',#261,1.);
#261 = DIRECTION('',(0.,1.));
#262 = ( GEOMETRIC_REPRESENTATION_CONTEXT(2) 
PARAMETRIC_REPRESENTATION_CONTEXT() REPRESENTATION_CONTEXT('2D SPACE',''
  ) );
#263 = PCURVE('',#128,#264);
#264 = DEFINITIONAL_REPRESENTATION('',(#265),#269);
#265 = LINE('',#266,#267);
#266 = CARTESIAN_POINT('',(6.28318530718,-0.));
#267 = VECTOR('',#268,1.);
#268 = DIRECTION('',(0.,1.));
#269 = ( GEOMETRIC_REPRESENTATION_CONTEXT(2) 
PARAMETRIC_REPRESENTATION_CONTEXT() REPRESENTATION_CONTEXT('2D SPACE',''
  ) );
#270 = ORIENTED_EDGE('',*,*,#111,.T.);
#271 = ORIENTED_EDGE('',*,*,#250,.T.);
#272 = ADVANCED_FACE('',(#273,#276),#205,.F.);
#273 = FACE_BOUND('',#274,.F.);
#274 = EDGE_LOOP('',(#275));
#275 = ORIENTED_EDGE('',*,*,#190,.T.);
#276 = FACE_BOUND('',#277,.F.);
#277 = EDGE_LOOP('',(#278));
#278 = ORIENTED_EDGE('',*,*,#279,.F.);
#279 = EDGE_CURVE('',#280,#280,#282,.T.);
#280 = VERTEX_POINT('',#281);
#281 = CARTESIAN_POINT('',(47.5,-1.16341445919E-14,0.));
#282 = SURFACE_CURVE('',#283,(#288,#295),.PCURVE_S1.);
#283 = CIRCLE('',#284,47.5);
#284 = AXIS2_PLACEMENT_3D('',#285,#286,#287);
#285 = CARTESIAN_POINT('',(0.,0.,0.));
#286 = DIRECTION('',(0.,0.,1.));
#287 = DIRECTION('',(1.,0.,-0.));
#288 = PCURVE('',#205,#289);
#289 = DEFINITIONAL_REPRESENTATION('',(#290),#294);
#290 = CIRCLE('',#291,47.5);
#291 = AXIS2_PLACEMENT_2D('',#292,#293);
#292 = CARTESIAN_POINT('',(0.,0.));
#293 = DIRECTION('',(1.,0.));
#294 = ( GEOMETRIC_REPRESENTATION_CONTEXT(2) 
PARAMETRIC_REPRESENTATION_CONTEXT() REPRESENTATION_CONTEXT('2D SPACE',''
  ) );
#295 = PCURVE('',#296,#301);
#296 = CYLINDRICAL_SURFACE('',#297,47.5);
#297 = AXIS2_PLACEMENT_3D('',#298,#299,#300);
#298 = CARTESIAN_POINT('',(0.,0.,-1.));
#299 = DIRECTION('',(0.,0.,1.));
#300 = DIRECTION('',(1.,0.,-0.));
#301 = DEFINITIONAL_REPRESENTATION('',(#302),#306);
#302 = LINE('',#303,#304);
#303 = CARTESIAN_POINT('',(0.,1.));
#304 = VECTOR('',#305,1.);
#305 = DIRECTION('',(1.,0.));
#306 = ( GEOMETRIC_REPRESENTATION_CONTEXT(2) 
PARAMETRIC_REPRESENTATION_CONTEXT() REPRESENTATION_CONTEXT('2D SPACE',''
  ) );
#307 = ADVANCED_FACE('',(#308,#311),#238,.T.);
#308 = FACE_BOUND('',#309,.T.);
#309 = EDGE_LOOP('',(#310));
#310 = ORIENTED_EDGE('',*,*,#221,.T.);
#311 = FACE_BOUND('',#312,.T.);
#312 = EDGE_LOOP('',(#313));
#313 = ORIENTED_EDGE('',*,*,#314,.F.);
#314 = EDGE_CURVE('',#315,#315,#317,.T.);
#315 = VERTEX_POINT('',#316);
#316 = CARTESIAN_POINT('',(40.,-9.797174393179E-15,95.));
#317 = SURFACE_CURVE('',#318,(#323,#330),.PCURVE_S1.);
#318 = CIRCLE('',#319,40.);
#319 = AXIS2_PLACEMENT_3D('',#320,#321,#322);
#320 = CARTESIAN_POINT('',(0.,0.,95.));
#321 = DIRECTION('',(0.,0.,1.));
#322 = DIRECTION('',(1.,0.,-0.));
#323 = PCURVE('',#238,#324);
#324 = DEFINITIONAL_REPRESENTATION('',(#325),#329);
#325 = CIRCLE('',#326,40.);
#326 = AXIS2_PLACEMENT_2D('',#327,#328);
#327 = CARTESIAN_POINT('',(0.,0.));
#328 = DIRECTION('',(1.,0.));
#329 = ( GEOMETRIC_REPRESENTATION_CONTEXT(2) 
PARAMETRIC_REPRESENTATION_CONTEXT() REPRESENTATION_CONTEXT('2D SPACE',''
  ) );
#330 = PCURVE('',#331,#336);
#331 = CYLINDRICAL_SURFACE('',#332,40.);
#332 = AXIS2_PLACEMENT_3D('',#333,#334,#335);
#333 = CARTESIAN_POINT('',(0.,0.,81.));
#334 = DIRECTION('',(0.,0.,1.));
#335 = DIRECTION('',(1.,0.,-0.));
#336 = DEFINITIONAL_REPRESENTATION('',(#337),#341);
#337 = LINE('',#338,#339);
#338 = CARTESIAN_POINT('',(0.,14.));
#339 = VECTOR('',#340,1.);
#340 = DIRECTION('',(1.,0.));
#341 = ( GEOMETRIC_REPRESENTATION_CONTEXT(2) 
PARAMETRIC_REPRESENTATION_CONTEXT() REPRESENTATION_CONTEXT('2D SPACE',''
  ) );
#342 = ADVANCED_FACE('',(#343),#296,.F.);
#343 = FACE_BOUND('',#344,.F.);
#344 = EDGE_LOOP('',(#345,#368,#395,#396));
#345 = ORIENTED_EDGE('',*,*,#346,.T.);
#346 = EDGE_CURVE('',#280,#347,#349,.T.);
#347 = VERTEX_POINT('',#348);
#348 = CARTESIAN_POINT('',(47.5,-1.16341445919E-14,70.));
#349 = SEAM_CURVE('',#350,(#354,#361),.PCURVE_S1.);
#350 = LINE('',#351,#352);
#351 = CARTESIAN_POINT('',(47.5,-1.16341445919E-14,-1.));
#352 = VECTOR('',#353,1.);
#353 = DIRECTION('',(0.,0.,1.));
#354 = PCURVE('',#296,#355);
#355 = DEFINITIONAL_REPRESENTATION('',(#356),#360);
#356 = LINE('',#357,#358);
#357 = CARTESIAN_POINT('',(6.28318530718,0.));
#358 = VECTOR('',#359,1.);
#359 = DIRECTION('',(0.,1.));
#360 = ( GEOMETRIC_REPRESENTATION_CONTEXT(2) 
PARAMETRIC_REPRESENTATION_CONTEXT() REPRESENTATION_CONTEXT('2D SPACE',''
  ) );
#361 = PCURVE('',#296,#362);
#362 = DEFINITIONAL_REPRESENTATION('',(#363),#367);
#363 = LINE('',#364,#365);
#364 = CARTESIAN_POINT('',(4.138911435803E-13,0.));
#365 = VECTOR('',#366,1.);
#366 = DIRECTION('',(0.,1.));
#367 = ( GEOMETRIC_REPRESENTATION_CONTEXT(2) 
PARAMETRIC_REPRESENTATION_CONTEXT() REPRESENTATION_CONTEXT('2D SPACE',''
  ) );
#368 = ORIENTED_EDGE('',*,*,#369,.F.);
#369 = EDGE_CURVE('',#347,#347,#370,.T.);
#370 = SURFACE_CURVE('',#371,(#376,#383),.PCURVE_S1.);
#371 = CIRCLE('',#372,47.5);
#372 = AXIS2_PLACEMENT_3D('',#373,#374,#375);
#373 = CARTESIAN_POINT('',(0.,0.,70.));
#374 = DIRECTION('',(0.,0.,1.));
#375 = DIRECTION('',(1.,0.,-0.));
#376 = PCURVE('',#296,#377);
#377 = DEFINITIONAL_REPRESENTATION('',(#378),#382);
#378 = LINE('',#379,#380);
#379 = CARTESIAN_POINT('',(0.,71.));
#380 = VECTOR('',#381,1.);
#381 = DIRECTION('',(1.,0.));
#382 = ( GEOMETRIC_REPRESENTATION_CONTEXT(2) 
PARAMETRIC_REPRESENTATION_CONTEXT() REPRESENTATION_CONTEXT('2D SPACE',''
  ) );
#383 = PCURVE('',#384,#389);
#384 = PLANE('',#385);
#385 = AXIS2_PLACEMENT_3D('',#386,#387,#388);
#386 = CARTESIAN_POINT('',(0.,0.,70.));
#387 = DIRECTION('',(0.,0.,1.));
#388 = DIRECTION('',(1.,0.,-0.));
#389 = DEFINITIONAL_REPRESENTATION('',(#390),#394);
#390 = CIRCLE('',#391,47.5);
#391 = AXIS2_PLACEMENT_2D('',#392,#393);
#392 = CARTESIAN_POINT('',(0.,0.));
#393 = DIRECTION('',(1.,0.));
#394 = ( GEOMETRIC_REPRESENTATION_CONTEXT(2) 
PARAMETRIC_REPRESENTATION_CONTEXT() REPRESENTATION_CONTEXT('2D SPACE',''
  ) );
#395 = ORIENTED_EDGE('',*,*,#346,.F.);
#396 = ORIENTED_EDGE('',*,*,#279,.T.);
#397 = ADVANCED_FACE('',(#398),#331,.F.);
#398 = FACE_BOUND('',#399,.F.);
#399 = EDGE_LOOP('',(#400,#401,#424,#451));
#400 = ORIENTED_EDGE('',*,*,#314,.F.);
#401 = ORIENTED_EDGE('',*,*,#402,.F.);
#402 = EDGE_CURVE('',#403,#315,#405,.T.);
#403 = VERTEX_POINT('',#404);
#404 = CARTESIAN_POINT('',(40.,-9.797174393179E-15,81.));
#405 = SEAM_CURVE('',#406,(#410,#417),.PCURVE_S1.);
#406 = LINE('',#407,#408);
#407 = CARTESIAN_POINT('',(40.,-9.797174393179E-15,81.));
#408 = VECTOR('',#409,1.);
#409 = DIRECTION('',(0.,0.,1.));
#410 = PCURVE('',#331,#411);
#411 = DEFINITIONAL_REPRESENTATION('',(#412),#416);
#412 = LINE('',#413,#414);
#413 = CARTESIAN_POINT('',(0.,-0.));
#414 = VECTOR('',#415,1.);
#415 = DIRECTION('',(0.,1.));
#416 = ( GEOMETRIC_REPRESENTATION_CONTEXT(2) 
PARAMETRIC_REPRESENTATION_CONTEXT() REPRESENTATION_CONTEXT('2D SPACE',''
  ) );
#417 = PCURVE('',#331,#418);
#418 = DEFINITIONAL_REPRESENTATION('',(#419),#423);
#419 = LINE('',#420,#421);
#420 = CARTESIAN_POINT('',(6.28318530718,-0.));
#421 = VECTOR('',#422,1.);
#422 = DIRECTION('',(0.,1.));
#423 = ( GEOMETRIC_REPRESENTATION_CONTEXT(2) 
PARAMETRIC_REPRESENTATION_CONTEXT() REPRESENTATION_CONTEXT('2D SPACE',''
  ) );
#424 = ORIENTED_EDGE('',*,*,#425,.T.);
#425 = EDGE_CURVE('',#403,#403,#426,.T.);
#426 = SURFACE_CURVE('',#427,(#432,#439),.PCURVE_S1.);
#427 = CIRCLE('',#428,40.);
#428 = AXIS2_PLACEMENT_3D('',#429,#430,#431);
#429 = CARTESIAN_POINT('',(0.,0.,81.));
#430 = DIRECTION('',(0.,0.,1.));
#431 = DIRECTION('',(1.,0.,-0.));
#432 = PCURVE('',#331,#433);
#433 = DEFINITIONAL_REPRESENTATION('',(#434),#438);
#434 = LINE('',#435,#436);
#435 = CARTESIAN_POINT('',(0.,0.));
#436 = VECTOR('',#437,1.);
#437 = DIRECTION('',(1.,0.));
#438 = ( GEOMETRIC_REPRESENTATION_CONTEXT(2) 
PARAMETRIC_REPRESENTATION_CONTEXT() REPRESENTATION_CONTEXT('2D SPACE',''
  ) );
#439 = PCURVE('',#440,#445);
#440 = PLANE('',#441);
#441 = AXIS2_PLACEMENT_3D('',#442,#443,#444);
#442 = CARTESIAN_POINT('',(0.,0.,81.));
#443 = DIRECTION('',(0.,0.,1.));
#444 = DIRECTION('',(1.,0.,-0.));
#445 = DEFINITIONAL_REPRESENTATION('',(#446),#450);
#446 = CIRCLE('',#447,40.);
#447 = AXIS2_PLACEMENT_2D('',#448,#449);
#448 = CARTESIAN_POINT('',(0.,0.));
#449 = DIRECTION('',(1.,0.));
#450 = ( GEOMETRIC_REPRESENTATION_CONTEXT(2) 
PARAMETRIC_REPRESENTATION_CONTEXT() REPRESENTATION_CONTEXT('2D SPACE',''
  ) );
#451 = ORIENTED_EDGE('',*,*,#402,.T.);
#452 = ADVANCED_FACE('',(#453,#456),#384,.F.);
#453 = FACE_BOUND('',#454,.F.);
#454 = EDGE_LOOP('',(#455));
#455 = ORIENTED_EDGE('',*,*,#369,.T.);
#456 = FACE_BOUND('',#457,.F.);
#457 = EDGE_LOOP('',(#458));
#458 = ORIENTED_EDGE('',*,*,#459,.F.);
#459 = EDGE_CURVE('',#460,#460,#462,.T.);
#460 = VERTEX_POINT('',#461);
#461 = CARTESIAN_POINT('',(45.,-1.102182119233E-14,70.));
#462 = SURFACE_CURVE('',#463,(#468,#475),.PCURVE_S1.);
#463 = CIRCLE('',#464,45.);
#464 = AXIS2_PLACEMENT_3D('',#465,#466,#467);
#465 = CARTESIAN_POINT('',(0.,0.,70.));
#466 = DIRECTION('',(0.,0.,1.));
#467 = DIRECTION('',(1.,0.,-0.));
#468 = PCURVE('',#384,#469);
#469 = DEFINITIONAL_REPRESENTATION('',(#470),#474);
#470 = CIRCLE('',#471,45.);
#471 = AXIS2_PLACEMENT_2D('',#472,#473);
#472 = CARTESIAN_POINT('',(0.,0.));
#473 = DIRECTION('',(1.,0.));
#474 = ( GEOMETRIC_REPRESENTATION_CONTEXT(2) 
PARAMETRIC_REPRESENTATION_CONTEXT() REPRESENTATION_CONTEXT('2D SPACE',''
  ) );
#475 = PCURVE('',#476,#481);
#476 = CYLINDRICAL_SURFACE('',#477,45.);
#477 = AXIS2_PLACEMENT_3D('',#478,#479,#480);
#478 = CARTESIAN_POINT('',(0.,0.,70.));
#479 = DIRECTION('',(0.,0.,1.));
#480 = DIRECTION('',(1.,0.,-0.));
#481 = DEFINITIONAL_REPRESENTATION('',(#482),#486);
#482 = LINE('',#483,#484);
#483 = CARTESIAN_POINT('',(0.,0.));
#484 = VECTOR('',#485,1.);
#485 = DIRECTION('',(1.,0.));
#486 = ( GEOMETRIC_REPRESENTATION_CONTEXT(2) 
PARAMETRIC_REPRESENTATION_CONTEXT() REPRESENTATION_CONTEXT('2D SPACE',''
  ) );
#487 = ADVANCED_FACE('',(#488,#514),#440,.F.);
#488 = FACE_BOUND('',#489,.F.);
#489 = EDGE_LOOP('',(#490));
#490 = ORIENTED_EDGE('',*,*,#491,.T.);
#491 = EDGE_CURVE('',#492,#492,#494,.T.);
#492 = VERTEX_POINT('',#493);
#493 = CARTESIAN_POINT('',(45.,-1.102182119233E-14,81.));
#494 = SURFACE_CURVE('',#495,(#500,#507),.PCURVE_S1.);
#495 = CIRCLE('',#496,45.);
#496 = AXIS2_PLACEMENT_3D('',#497,#498,#499);
#497 = CARTESIAN_POINT('',(0.,0.,81.));
#498 = DIRECTION('',(0.,0.,1.));
#499 = DIRECTION('',(1.,0.,-0.));
#500 = PCURVE('',#440,#501);
#501 = DEFINITIONAL_REPRESENTATION('',(#502),#506);
#502 = CIRCLE('',#503,45.);
#503 = AXIS2_PLACEMENT_2D('',#504,#505);
#504 = CARTESIAN_POINT('',(0.,0.));
#505 = DIRECTION('',(1.,0.));
#506 = ( GEOMETRIC_REPRESENTATION_CONTEXT(2) 
PARAMETRIC_REPRESENTATION_CONTEXT() REPRESENTATION_CONTEXT('2D SPACE',''
  ) );
#507 = PCURVE('',#476,#508);
#508 = DEFINITIONAL_REPRESENTATION('',(#509),#513);
#509 = LINE('',#510,#511);
#510 = CARTESIAN_POINT('',(0.,11.));
#511 = VECTOR('',#512,1.);
#512 = DIRECTION('',(1.,0.));
#513 = ( GEOMETRIC_REPRESENTATION_CONTEXT(2) 
PARAMETRIC_REPRESENTATION_CONTEXT() REPRESENTATION_CONTEXT('2D SPACE',''
  ) );
#514 = FACE_BOUND('',#515,.F.);
#515 = EDGE_LOOP('',(#516));
#516 = ORIENTED_EDGE('',*,*,#425,.F.);
#517 = ADVANCED_FACE('',(#518),#476,.F.);
#518 = FACE_BOUND('',#519,.F.);
#519 = EDGE_LOOP('',(#520,#521,#542,#543));
#520 = ORIENTED_EDGE('',*,*,#491,.F.);
#521 = ORIENTED_EDGE('',*,*,#522,.F.);
#522 = EDGE_CURVE('',#460,#492,#523,.T.);
#523 = SEAM_CURVE('',#524,(#528,#535),.PCURVE_S1.);
#524 = LINE('',#525,#526);
#525 = CARTESIAN_POINT('',(45.,-1.102182119233E-14,70.));
#526 = VECTOR('',#527,1.);
#527 = DIRECTION('',(0.,0.,1.));
#528 = PCURVE('',#476,#529);
#529 = DEFINITIONAL_REPRESENTATION('',(#530),#534);
#530 = LINE('',#531,#532);
#531 = CARTESIAN_POINT('',(0.,-0.));
#532 = VECTOR('',#533,1.);
#533 = DIRECTION('',(0.,1.));
#534 = ( GEOMETRIC_REPRESENTATION_CONTEXT(2) 
PARAMETRIC_REPRESENTATION_CONTEXT() REPRESENTATION_CONTEXT('2D SPACE',''
  ) );
#535 = PCURVE('',#476,#536);
#536 = DEFINITIONAL_REPRESENTATION('',(#537),#541);
#537 = LINE('',#538,#539);
#538 = CARTESIAN_POINT('',(6.28318530718,-0.));
#539 = VECTOR('',#540,1.);
#540 = DIRECTION('',(0.,1.));
#541 = ( GEOMETRIC_REPRESENTATION_CONTEXT(2) 
PARAMETRIC_REPRESENTATION_CONTEXT() REPRESENTATION_CONTEXT('2D SPACE',''
  ) );
#542 = ORIENTED_EDGE('',*,*,#459,.T.);
#543 = ORIENTED_EDGE('',*,*,#522,.T.);
#544 = ( GEOMETRIC_REPRESENTATION_CONTEXT(3) 
GLOBAL_UNCERTAINTY_ASSIGNED_CONTEXT((#548)) GLOBAL_UNIT_ASSIGNED_CONTEXT
((#545,#546,#547)) REPRESENTATION_CONTEXT('Context #1',
  '3D Context with UNIT and UNCERTAINTY') );
#545 = ( LENGTH_UNIT() NAMED_UNIT(*) SI_UNIT(.MILLI.,.METRE.) );
#546 = ( NAMED_UNIT(*) PLANE_ANGLE_UNIT() SI_UNIT($,.RADIAN.) );
#547 = ( NAMED_UNIT(*) SI_UNIT($,.STERADIAN.) SOLID_ANGLE_UNIT() );
#548 = UNCERTAINTY_MEASURE_WITH_UNIT(LENGTH_MEASURE(1.E-07),#545,
  'distance_accuracy_value','confusion accuracy');
#549 = CONTEXT_DEPENDENT_SHAPE_REPRESENTATION(#550,#552);
#550 = ( REPRESENTATION_RELATIONSHIP('','',#36,#10) 
REPRESENTATION_RELATIONSHIP_WITH_TRANSFORMATION(#551) 
SHAPE_REPRESENTATION_RELATIONSHIP() );
#551 = ITEM_DEFINED_TRANSFORMATION('','',#11,#15);
#552 = PRODUCT_DEFINITION_SHAPE('Placement','Placement of an item',#553
  );
#553 = NEXT_ASSEMBLY_USAGE_OCCURRENCE('1','','',#5,#31,$);
#554 = PRODUCT_RELATED_PRODUCT_CATEGORY('part',$,(#33));
#555 = SHAPE_DEFINITION_REPRESENTATION(#556,#562);
#556 = PRODUCT_DEFINITION_SHAPE('','',#557);
#557 = PRODUCT_DEFINITION('design','',#558,#561);
#558 = PRODUCT_DEFINITION_FORMATION('','',#559);
#559 = PRODUCT('Open CASCADE STEP translator 7.9 5.2',
  'Open CASCADE STEP translator 7.9 5.2','',(#560));
#560 = PRODUCT_CONTEXT('',#2,'mechanical');
#561 = PRODUCT_DEFINITION_CONTEXT('part definition',#2,'design');
#562 = ADVANCED_BREP_SHAPE_REPRESENTATION('',(#11,#563),#1727);
#563 = BREP_WITH_VOIDS('',#564,(#1531,#1629));
#564 = CLOSED_SHELL('',(#565,#653,#688,#723,#1169,#1224,#1306,#1355,
    #1409,#1436,#1471,#1504));
#565 = ADVANCED_FACE('',(#566),#579,.T.);
#566 = FACE_BOUND('',#567,.T.);
#567 = EDGE_LOOP('',(#568,#602,#625,#652));
#568 = ORIENTED_EDGE('',*,*,#569,.T.);
#569 = EDGE_CURVE('',#570,#570,#572,.T.);
#570 = VERTEX_POINT('',#571);
#571 = CARTESIAN_POINT('',(46.5,0.,0.));
#572 = SURFACE_CURVE('',#573,(#578,#590),.PCURVE_S1.);
#573 = CIRCLE('',#574,46.5);
#574 = AXIS2_PLACEMENT_3D('',#575,#576,#577);
#575 = CARTESIAN_POINT('',(0.,0.,0.));
#576 = DIRECTION('',(0.,0.,1.));
#577 = DIRECTION('',(1.,0.,-0.));
#578 = PCURVE('',#579,#584);
#579 = CYLINDRICAL_SURFACE('',#580,46.5);
#580 = AXIS2_PLACEMENT_3D('',#581,#582,#583);
#581 = CARTESIAN_POINT('',(0.,0.,0.));
#582 = DIRECTION('',(-0.,-0.,-1.));
#583 = DIRECTION('',(1.,0.,0.));
#584 = DEFINITIONAL_REPRESENTATION('',(#585),#589);
#585 = LINE('',#586,#587);
#586 = CARTESIAN_POINT('',(6.28318530718,0.));
#587 = VECTOR('',#588,1.);
#588 = DIRECTION('',(-1.,0.));
#589 = ( GEOMETRIC_REPRESENTATION_CONTEXT(2) 
PARAMETRIC_REPRESENTATION_CONTEXT() REPRESENTATION_CONTEXT('2D SPACE',''
  ) );
#590 = PCURVE('',#591,#596);
#591 = PLANE('',#592);
#592 = AXIS2_PLACEMENT_3D('',#593,#594,#595);
#593 = CARTESIAN_POINT('',(-1.882068139409E-15,-1.61343992693E-17,0.));
#594 = DIRECTION('',(0.,0.,1.));
#595 = DIRECTION('',(1.,0.,-0.));
#596 = DEFINITIONAL_REPRESENTATION('',(#597),#601);
#597 = CIRCLE('',#598,46.5);
#598 = AXIS2_PLACEMENT_2D('',#599,#600);
#599 = CARTESIAN_POINT('',(1.882068139409E-15,1.61343992693E-17));
#600 = DIRECTION('',(1.,0.));
#601 = ( GEOMETRIC_REPRESENTATION_CONTEXT(2) 
PARAMETRIC_REPRESENTATION_CONTEXT() REPRESENTATION_CONTEXT('2D SPACE',''
  ) );
#602 = ORIENTED_EDGE('',*,*,#603,.T.);
#603 = EDGE_CURVE('',#570,#604,#606,.T.);
#604 = VERTEX_POINT('',#605);
#605 = CARTESIAN_POINT('',(46.5,0.,69.9));
#606 = SEAM_CURVE('',#607,(#611,#618),.PCURVE_S1.);
#607 = LINE('',#608,#609);
#608 = CARTESIAN_POINT('',(46.5,0.,0.));
#609 = VECTOR('',#610,1.);
#610 = DIRECTION('',(0.,0.,1.));
#611 = PCURVE('',#579,#612);
#612 = DEFINITIONAL_REPRESENTATION('',(#613),#617);
#613 = LINE('',#614,#615);
#614 = CARTESIAN_POINT('',(-4.138911435803E-13,0.));
#615 = VECTOR('',#616,1.);
#616 = DIRECTION('',(-0.,-1.));
#617 = ( GEOMETRIC_REPRESENTATION_CONTEXT(2) 
PARAMETRIC_REPRESENTATION_CONTEXT() REPRESENTATION_CONTEXT('2D SPACE',''
  ) );
#618 = PCURVE('',#579,#619);
#619 = DEFINITIONAL_REPRESENTATION('',(#620),#624);
#620 = LINE('',#621,#622);
#621 = CARTESIAN_POINT('',(6.28318530718,0.));
#622 = VECTOR('',#623,1.);
#623 = DIRECTION('',(-0.,-1.));
#624 = ( GEOMETRIC_REPRESENTATION_CONTEXT(2) 
PARAMETRIC_REPRESENTATION_CONTEXT() REPRESENTATION_CONTEXT('2D SPACE',''
  ) );
#625 = ORIENTED_EDGE('',*,*,#626,.F.);
#626 = EDGE_CURVE('',#604,#604,#627,.T.);
#627 = SURFACE_CURVE('',#628,(#633,#640),.PCURVE_S1.);
#628 = CIRCLE('',#629,46.5);
#629 = AXIS2_PLACEMENT_3D('',#630,#631,#632);
#630 = CARTESIAN_POINT('',(0.,0.,69.9));
#631 = DIRECTION('',(0.,0.,1.));
#632 = DIRECTION('',(1.,0.,-0.));
#633 = PCURVE('',#579,#634);
#634 = DEFINITIONAL_REPRESENTATION('',(#635),#639);
#635 = LINE('',#636,#637);
#636 = CARTESIAN_POINT('',(6.28318530718,-69.9));
#637 = VECTOR('',#638,1.);
#638 = DIRECTION('',(-1.,0.));
#639 = ( GEOMETRIC_REPRESENTATION_CONTEXT(2) 
PARAMETRIC_REPRESENTATION_CONTEXT() REPRESENTATION_CONTEXT('2D SPACE',''
  ) );
#640 = PCURVE('',#641,#646);
#641 = PLANE('',#642);
#642 = AXIS2_PLACEMENT_3D('',#643,#644,#645);
#643 = CARTESIAN_POINT('',(-1.882068139409E-15,-1.61343992693E-17,69.9)
  );
#644 = DIRECTION('',(0.,0.,1.));
#645 = DIRECTION('',(1.,0.,-0.));
#646 = DEFINITIONAL_REPRESENTATION('',(#647),#651);
#647 = CIRCLE('',#648,46.5);
#648 = AXIS2_PLACEMENT_2D('',#649,#650);
#649 = CARTESIAN_POINT('',(1.882068139409E-15,1.61343992693E-17));
#650 = DIRECTION('',(1.,0.));
#651 = ( GEOMETRIC_REPRESENTATION_CONTEXT(2) 
PARAMETRIC_REPRESENTATION_CONTEXT() REPRESENTATION_CONTEXT('2D SPACE',''
  ) );
#652 = ORIENTED_EDGE('',*,*,#603,.F.);
#653 = ADVANCED_FACE('',(#654,#657),#591,.F.);
#654 = FACE_BOUND('',#655,.F.);
#655 = EDGE_LOOP('',(#656));
#656 = ORIENTED_EDGE('',*,*,#569,.T.);
#657 = FACE_BOUND('',#658,.F.);
#658 = EDGE_LOOP('',(#659));
#659 = ORIENTED_EDGE('',*,*,#660,.F.);
#660 = EDGE_CURVE('',#661,#661,#663,.T.);
#661 = VERTEX_POINT('',#662);
#662 = CARTESIAN_POINT('',(37.8,0.,0.));
#663 = SURFACE_CURVE('',#664,(#669,#676),.PCURVE_S1.);
#664 = CIRCLE('',#665,37.8);
#665 = AXIS2_PLACEMENT_3D('',#666,#667,#668);
#666 = CARTESIAN_POINT('',(0.,0.,0.));
#667 = DIRECTION('',(0.,0.,1.));
#668 = DIRECTION('',(1.,0.,-0.));
#669 = PCURVE('',#591,#670);
#670 = DEFINITIONAL_REPRESENTATION('',(#671),#675);
#671 = CIRCLE('',#672,37.8);
#672 = AXIS2_PLACEMENT_2D('',#673,#674);
#673 = CARTESIAN_POINT('',(1.882068139409E-15,1.61343992693E-17));
#674 = DIRECTION('',(1.,0.));
#675 = ( GEOMETRIC_REPRESENTATION_CONTEXT(2) 
PARAMETRIC_REPRESENTATION_CONTEXT() REPRESENTATION_CONTEXT('2D SPACE',''
  ) );
#676 = PCURVE('',#677,#682);
#677 = CONICAL_SURFACE('',#678,37.8,1.055647906843);
#678 = AXIS2_PLACEMENT_3D('',#679,#680,#681);
#679 = CARTESIAN_POINT('',(0.,0.,0.));
#680 = DIRECTION('',(-0.,-0.,-1.));
#681 = DIRECTION('',(1.,0.,-0.));
#682 = DEFINITIONAL_REPRESENTATION('',(#683),#687);
#683 = LINE('',#684,#685);
#684 = CARTESIAN_POINT('',(6.28318530718,0.));
#685 = VECTOR('',#686,1.);
#686 = DIRECTION('',(-1.,0.));
#687 = ( GEOMETRIC_REPRESENTATION_CONTEXT(2) 
PARAMETRIC_REPRESENTATION_CONTEXT() REPRESENTATION_CONTEXT('2D SPACE',''
  ) );
#688 = ADVANCED_FACE('',(#689,#692),#641,.T.);
#689 = FACE_BOUND('',#690,.T.);
#690 = EDGE_LOOP('',(#691));
#691 = ORIENTED_EDGE('',*,*,#626,.T.);
#692 = FACE_BOUND('',#693,.T.);
#693 = EDGE_LOOP('',(#694));
#694 = ORIENTED_EDGE('',*,*,#695,.F.);
#695 = EDGE_CURVE('',#696,#696,#698,.T.);
#696 = VERTEX_POINT('',#697);
#697 = CARTESIAN_POINT('',(44.75,0.,69.9));
#698 = SURFACE_CURVE('',#699,(#704,#711),.PCURVE_S1.);
#699 = CIRCLE('',#700,44.75);
#700 = AXIS2_PLACEMENT_3D('',#701,#702,#703);
#701 = CARTESIAN_POINT('',(0.,0.,69.9));
#702 = DIRECTION('',(0.,0.,1.));
#703 = DIRECTION('',(1.,0.,-0.));
#704 = PCURVE('',#641,#705);
#705 = DEFINITIONAL_REPRESENTATION('',(#706),#710);
#706 = CIRCLE('',#707,44.75);
#707 = AXIS2_PLACEMENT_2D('',#708,#709);
#708 = CARTESIAN_POINT('',(1.882068139409E-15,1.61343992693E-17));
#709 = DIRECTION('',(1.,0.));
#710 = ( GEOMETRIC_REPRESENTATION_CONTEXT(2) 
PARAMETRIC_REPRESENTATION_CONTEXT() REPRESENTATION_CONTEXT('2D SPACE',''
  ) );
#711 = PCURVE('',#712,#717);
#712 = CYLINDRICAL_SURFACE('',#713,44.75);
#713 = AXIS2_PLACEMENT_3D('',#714,#715,#716);
#714 = CARTESIAN_POINT('',(0.,0.,69.9));
#715 = DIRECTION('',(-0.,-0.,-1.));
#716 = DIRECTION('',(1.,0.,0.));
#717 = DEFINITIONAL_REPRESENTATION('',(#718),#722);
#718 = LINE('',#719,#720);
#719 = CARTESIAN_POINT('',(6.28318530718,0.));
#720 = VECTOR('',#721,1.);
#721 = DIRECTION('',(-1.,0.));
#722 = ( GEOMETRIC_REPRESENTATION_CONTEXT(2) 
PARAMETRIC_REPRESENTATION_CONTEXT() REPRESENTATION_CONTEXT('2D SPACE',''
  ) );
#723 = ADVANCED_FACE('',(#724),#677,.F.);
#724 = FACE_BOUND('',#725,.F.);
#725 = EDGE_LOOP('',(#726,#749,#750,#751,#818,#909,#1018,#1109));
#726 = ORIENTED_EDGE('',*,*,#727,.F.);
#727 = EDGE_CURVE('',#661,#728,#730,.T.);
#728 = VERTEX_POINT('',#729);
#729 = CARTESIAN_POINT('',(37.5,0.,0.169841269841));
#730 = SEAM_CURVE('',#731,(#735,#742),.PCURVE_S1.);
#731 = LINE('',#732,#733);
#732 = CARTESIAN_POINT('',(37.8,0.,0.));
#733 = VECTOR('',#734,1.);
#734 = DIRECTION('',(-0.870219610714,0.,0.492664012415));
#735 = PCURVE('',#677,#736);
#736 = DEFINITIONAL_REPRESENTATION('',(#737),#741);
#737 = LINE('',#738,#739);
#738 = CARTESIAN_POINT('',(6.28318530718,0.));
#739 = VECTOR('',#740,1.);
#740 = DIRECTION('',(-0.,-1.));
#741 = ( GEOMETRIC_REPRESENTATION_CONTEXT(2) 
PARAMETRIC_REPRESENTATION_CONTEXT() REPRESENTATION_CONTEXT('2D SPACE',''
  ) );
#742 = PCURVE('',#677,#743);
#743 = DEFINITIONAL_REPRESENTATION('',(#744),#748);
#744 = LINE('',#745,#746);
#745 = CARTESIAN_POINT('',(-4.138911435803E-13,0.));
#746 = VECTOR('',#747,1.);
#747 = DIRECTION('',(-0.,-1.));
#748 = ( GEOMETRIC_REPRESENTATION_CONTEXT(2) 
PARAMETRIC_REPRESENTATION_CONTEXT() REPRESENTATION_CONTEXT('2D SPACE',''
  ) );
#749 = ORIENTED_EDGE('',*,*,#660,.T.);
#750 = ORIENTED_EDGE('',*,*,#727,.T.);
#751 = ORIENTED_EDGE('',*,*,#752,.T.);
#752 = EDGE_CURVE('',#728,#753,#755,.T.);
#753 = VERTEX_POINT('',#754);
#754 = CARTESIAN_POINT('',(36.75,-0.75,0.590112210029));
#755 = SURFACE_CURVE('',#756,(#773,#793),.PCURVE_S1.);
#756 = B_SPLINE_CURVE_WITH_KNOTS('',8,(#757,#758,#759,#760,#761,#762,
    #763,#764,#765,#766,#767,#768,#769,#770,#771,#772),.UNSPECIFIED.,.F.
  ,.F.,(9,7,9),(0.,0.363278324605,1.),.UNSPECIFIED.);
#757 = CARTESIAN_POINT('',(37.5,0.,0.169841269841));
#758 = CARTESIAN_POINT('',(37.5,-6.193974728916E-02,0.169841269841));
#759 = CARTESIAN_POINT('',(37.494153860894,-0.123897574485,
    0.173084799636));
#760 = CARTESIAN_POINT('',(37.482455570439,-0.184674175029,
    0.179575162474));
#761 = CARTESIAN_POINT('',(37.465277997556,-0.243289947852,
    0.189108349707));
#762 = CARTESIAN_POINT('',(37.443190243259,-0.299010757603,
    0.201374039775));
#763 = CARTESIAN_POINT('',(37.416843055582,-0.351330621857,0.21601745269
    ));
#764 = CARTESIAN_POINT('',(37.386896849763,-0.399934165792,0.23267764199
    ));
#765 = CARTESIAN_POINT('',(37.296250167577,-0.523056069984,0.28316280138
    ));
#766 = CARTESIAN_POINT('',(37.229417009095,-0.589476104407,
    0.320440989818));
#767 = CARTESIAN_POINT('',(37.156137009089,-0.644003486788,
    0.361396763871));
#768 = CARTESIAN_POINT('',(37.078429203258,-0.686895936748,
    0.404929618941));
#769 = CARTESIAN_POINT('',(36.997918678844,-0.718586811378,
    0.450146975956));
#770 = CARTESIAN_POINT('',(36.915814075272,-0.739507993105,
    0.496379322341));
#771 = CARTESIAN_POINT('',(36.832978190429,-0.75,0.543144919016));
#772 = CARTESIAN_POINT('',(36.75,-0.75,0.590112210029));
#773 = PCURVE('',#677,#774);
#774 = DEFINITIONAL_REPRESENTATION('',(#775),#792);
#775 = B_SPLINE_CURVE_WITH_KNOTS('',8,(#776,#777,#778,#779,#780,#781,
    #782,#783,#784,#785,#786,#787,#788,#789,#790,#791),.UNSPECIFIED.,.F.
  ,.F.,(9,7,9),(0.,0.363278324605,1.),.UNSPECIFIED.);
#776 = CARTESIAN_POINT('',(-4.138911435803E-13,-0.169841269841));
#777 = CARTESIAN_POINT('',(1.651726594586E-03,-0.169841269841));
#778 = CARTESIAN_POINT('',(3.303935496586E-03,-0.173084799636));
#779 = CARTESIAN_POINT('',(4.925660251586E-03,-0.179575162474));
#780 = CARTESIAN_POINT('',(6.491800890586E-03,-0.189108349707));
#781 = CARTESIAN_POINT('',(7.983496397586E-03,-0.201374039775));
#782 = CARTESIAN_POINT('',(9.387594525586E-03,-0.21601745269));
#783 = CARTESIAN_POINT('',(1.069571966959E-02,-0.23267764199));
#784 = CARTESIAN_POINT('',(1.402022240359E-02,-0.28316280138));
#785 = CARTESIAN_POINT('',(1.582674529159E-02,-0.320440989818));
#786 = CARTESIAN_POINT('',(1.732452685959E-02,-0.36139676387));
#787 = CARTESIAN_POINT('',(1.851822990559E-02,-0.404929618942));
#788 = CARTESIAN_POINT('',(1.941657261859E-02,-0.450146975956));
#789 = CARTESIAN_POINT('',(2.002814811959E-02,-0.496379322341));
#790 = CARTESIAN_POINT('',(2.035927007559E-02,-0.543144919016));
#791 = CARTESIAN_POINT('',(2.040533068659E-02,-0.590112210029));
#792 = ( GEOMETRIC_REPRESENTATION_CONTEXT(2) 
PARAMETRIC_REPRESENTATION_CONTEXT() REPRESENTATION_CONTEXT('2D SPACE',''
  ) );
#793 = PCURVE('',#794,#799);
#794 = CYLINDRICAL_SURFACE('',#795,0.75);
#795 = AXIS2_PLACEMENT_3D('',#796,#797,#798);
#796 = CARTESIAN_POINT('',(36.75,0.,0.));
#797 = DIRECTION('',(0.,0.,-1.));
#798 = DIRECTION('',(0.,1.,0.));
#799 = DEFINITIONAL_REPRESENTATION('',(#800),#817);
#800 = B_SPLINE_CURVE_WITH_KNOTS('',8,(#801,#802,#803,#804,#805,#806,
    #807,#808,#809,#810,#811,#812,#813,#814,#815,#816),.UNSPECIFIED.,.F.
  ,.F.,(9,7,9),(0.,0.363278324605,1.),.UNSPECIFIED.);
#801 = CARTESIAN_POINT('',(1.570796326795,-0.169841269841));
#802 = CARTESIAN_POINT('',(1.653382656514,-0.169841269841));
#803 = CARTESIAN_POINT('',(1.735992920462,-0.173084799635));
#804 = CARTESIAN_POINT('',(1.817887442533,-0.179575162474));
#805 = CARTESIAN_POINT('',(1.898617608981,-0.189108349707));
#806 = CARTESIAN_POINT('',(1.977891152533,-0.201374039775));
#807 = CARTESIAN_POINT('',(2.055513900031,-0.21601745269));
#808 = CARTESIAN_POINT('',(2.131373371259,-0.23267764199));
#809 = CARTESIAN_POINT('',(2.335228763505,-0.28316280138));
#810 = CARTESIAN_POINT('',(2.459377965207,-0.320440989818));
#811 = CARTESIAN_POINT('',(2.579182733486,-0.361396763871));
#812 = CARTESIAN_POINT('',(2.6954553848,-0.404929618941));
#813 = CARTESIAN_POINT('',(2.808973344276,-0.450146975956));
#814 = CARTESIAN_POINT('',(2.92050668111,-0.496379322341));
#815 = CARTESIAN_POINT('',(3.030955066352,-0.543144919016));
#816 = CARTESIAN_POINT('',(3.14159265359,-0.590112210029));
#817 = ( GEOMETRIC_REPRESENTATION_CONTEXT(2) 
PARAMETRIC_REPRESENTATION_CONTEXT() REPRESENTATION_CONTEXT('2D SPACE',''
  ) );
#818 = ORIENTED_EDGE('',*,*,#819,.F.);
#819 = EDGE_CURVE('',#820,#753,#822,.T.);
#820 = VERTEX_POINT('',#821);
#821 = CARTESIAN_POINT('',(-36.75,-0.75,0.590112210029));
#822 = SURFACE_CURVE('',#823,(#828,#897),.PCURVE_S1.);
#823 = HYPERBOLA('',#824,0.424603174603,0.75);
#824 = AXIS2_PLACEMENT_3D('',#825,#826,#827);
#825 = CARTESIAN_POINT('',(0.,-0.75,21.4));
#826 = DIRECTION('',(0.,-1.,0.));
#827 = DIRECTION('',(-0.,-0.,-1.));
#828 = PCURVE('',#677,#829);
#829 = DEFINITIONAL_REPRESENTATION('',(#830),#896);
#830 = B_SPLINE_CURVE_WITH_KNOTS('',8,(#831,#832,#833,#834,#835,#836,
    #837,#838,#839,#840,#841,#842,#843,#844,#845,#846,#847,#848,#849,
    #850,#851,#852,#853,#854,#855,#856,#857,#858,#859,#860,#861,#862,
    #863,#864,#865,#866,#867,#868,#869,#870,#871,#872,#873,#874,#875,
    #876,#877,#878,#879,#880,#881,#882,#883,#884,#885,#886,#887,#888,
    #889,#890,#891,#892,#893,#894,#895),.UNSPECIFIED.,.F.,.F.,(9,7,7,7,7
    ,7,7,7,7,9),(-4.613039922107,-3.459779941581,-2.45067745862,
    -1.567712786029,-0.795118697512,-0.119098870059,0.472418478962,
    1.507573839748,3.060306880928,4.613039922107),.UNSPECIFIED.);
#831 = CARTESIAN_POINT('',(3.12175008168,-7.817175169021E-15));
#832 = CARTESIAN_POINT('',(3.118889813871,-3.084363148738));
#833 = CARTESIAN_POINT('',(3.115558405765,-5.660473067664));
#834 = CARTESIAN_POINT('',(3.111665351765,-7.826001428352));
#835 = CARTESIAN_POINT('',(3.107099314144,-9.656089668735));
#836 = CARTESIAN_POINT('',(3.101722124873,-11.2098337937));
#837 = CARTESIAN_POINT('',(3.095360597726,-12.53431111965));
#838 = CARTESIAN_POINT('',(3.087794712375,-13.6674396978));
#839 = CARTESIAN_POINT('',(3.070817116985,-15.49102328654));
#840 = CARTESIAN_POINT('',(3.061754338832,-16.21910752542));
#841 = CARTESIAN_POINT('',(3.051361173275,-16.84490201541));
#842 = CARTESIAN_POINT('',(3.03940903309,-17.38486974606));
#843 = CARTESIAN_POINT('',(3.02562311247,-17.85234441644));
#844 = CARTESIAN_POINT('',(3.009669805989,-18.25824474134));
#845 = CARTESIAN_POINT('',(2.991142427227,-18.61157216287));
#846 = CARTESIAN_POINT('',(2.950652856106,-19.18950024628));
#847 = CARTESIAN_POINT('',(2.929409473119,-19.42467093691));
#848 = CARTESIAN_POINT('',(2.905487963452,-19.63031873739));
#849 = CARTESIAN_POINT('',(2.878506978701,-19.81055299656));
#850 = CARTESIAN_POINT('',(2.84803115372,-19.96877989663));
#851 = CARTESIAN_POINT('',(2.813563194195,-20.10784165939));
#852 = CARTESIAN_POINT('',(2.774552355856,-20.2301175367));
#853 = CARTESIAN_POINT('',(2.691843702752,-20.43165247929));
#854 = CARTESIAN_POINT('',(2.649341129552,-20.51437813945));
#855 = CARTESIAN_POINT('',(2.602560860215,-20.58711611784));
#856 = CARTESIAN_POINT('',(2.551125766598,-20.65097833917));
#857 = CARTESIAN_POINT('',(2.494680369884,-20.70689029871));
#858 = CARTESIAN_POINT('',(2.432943596133,-20.7556209662));
#859 = CARTESIAN_POINT('',(2.365788004299,-20.79780464994));
#860 = CARTESIAN_POINT('',(2.229958283841,-20.86558622058));
#861 = CARTESIAN_POINT('',(2.162522134913,-20.89259826746));
#862 = CARTESIAN_POINT('',(2.091127444551,-20.91533510035));
#863 = CARTESIAN_POINT('',(2.015999357522,-20.93407061353));
#864 = CARTESIAN_POINT('',(1.937565380646,-20.94901605786));
#865 = CARTESIAN_POINT('',(1.856467860439,-20.96032540629));
#866 = CARTESIAN_POINT('',(1.773521316517,-20.96809848409));
#867 = CARTESIAN_POINT('',(1.616196280696,-20.9761298206));
#868 = CARTESIAN_POINT('',(1.542043190902,-20.97720598207));
#869 = CARTESIAN_POINT('',(1.46774637358,-20.97564157589));
#870 = CARTESIAN_POINT('',(1.393948935235,-20.97143665755));
#871 = CARTESIAN_POINT('',(1.321275826365,-20.96456067351));
#872 = CARTESIAN_POINT('',(1.25028233201,-20.95495210474));
#873 = CARTESIAN_POINT('',(1.181421303167,-20.94251719028));
#874 = CARTESIAN_POINT('',(0.998842824313,-20.90019617707));
#875 = CARTESIAN_POINT('',(0.890218994728,-20.86421632461));
#876 = CARTESIAN_POINT('',(0.790973227482,-20.81850107471));
#877 = CARTESIAN_POINT('',(0.701886666022,-20.76204010645));
#878 = CARTESIAN_POINT('',(0.622612105657,-20.69346319678));
#879 = CARTESIAN_POINT('',(0.552440676656,-20.61097421218));
#880 = CARTESIAN_POINT('',(0.490488366956,-20.51225077907));
#881 = CARTESIAN_POINT('',(0.35391592099,-20.21733182132));
#882 = CARTESIAN_POINT('',(0.288450005288,-19.99708099239));
#883 = CARTESIAN_POINT('',(0.236431872708,-19.72337396933));
#884 = CARTESIAN_POINT('',(0.19475378011,-19.38256886632));
#885 = CARTESIAN_POINT('',(0.161199234731,-18.95633565258));
#886 = CARTESIAN_POINT('',(0.133998418028,-18.41967861636));
#887 = CARTESIAN_POINT('',(0.111833594262,-17.73794551958));
#888 = CARTESIAN_POINT('',(7.552250618959E-02,-15.98362398434));
#889 = CARTESIAN_POINT('',(6.137655642159E-02,-14.91103486875));
#890 = CARTESIAN_POINT('',(5.021616290759E-02,-13.59266952721));
#891 = CARTESIAN_POINT('',(4.132301101259E-02,-11.96244874885));
#892 = CARTESIAN_POINT('',(3.417875145059E-02,-9.932594912761));
#893 = CARTESIAN_POINT('',(2.839867791059E-02,-7.384148313979));
#894 = CARTESIAN_POINT('',(2.369359631859E-02,-4.15274322608));
#895 = CARTESIAN_POINT('',(1.984257191059E-02,-4.770894536145E-15));
#896 = ( GEOMETRIC_REPRESENTATION_CONTEXT(2) 
PARAMETRIC_REPRESENTATION_CONTEXT() REPRESENTATION_CONTEXT('2D SPACE',''
  ) );
#897 = PCURVE('',#898,#903);
#898 = PLANE('',#899);
#899 = AXIS2_PLACEMENT_3D('',#900,#901,#902);
#900 = CARTESIAN_POINT('',(36.75,-0.75,0.));
#901 = DIRECTION('',(0.,-1.,0.));
#902 = DIRECTION('',(-1.,0.,0.));
#903 = DEFINITIONAL_REPRESENTATION('',(#904),#908);
#904 = HYPERBOLA('',#905,0.424603174603,0.75);
#905 = AXIS2_PLACEMENT_2D('',#906,#907);
#906 = CARTESIAN_POINT('',(36.75,-21.4));
#907 = DIRECTION('',(0.,1.));
#908 = ( GEOMETRIC_REPRESENTATION_CONTEXT(2) 
PARAMETRIC_REPRESENTATION_CONTEXT() REPRESENTATION_CONTEXT('2D SPACE',''
  ) );
#909 = ORIENTED_EDGE('',*,*,#910,.T.);
#910 = EDGE_CURVE('',#820,#911,#913,.T.);
#911 = VERTEX_POINT('',#912);
#912 = CARTESIAN_POINT('',(-36.75,0.75,0.590112210029));
#913 = SURFACE_CURVE('',#914,(#945,#979),.PCURVE_S1.);
#914 = B_SPLINE_CURVE_WITH_KNOTS('',8,(#915,#916,#917,#918,#919,#920,
    #921,#922,#923,#924,#925,#926,#927,#928,#929,#930,#931,#932,#933,
    #934,#935,#936,#937,#938,#939,#940,#941,#942,#943,#944),
  .UNSPECIFIED.,.F.,.F.,(9,7,7,7,9),(0.,0.31786964747,0.499560045775,
    0.682119034809,1.),.UNSPECIFIED.);
#915 = CARTESIAN_POINT('',(-36.75,-0.75,0.590112210029));
#916 = CARTESIAN_POINT('',(-36.83285227553,-0.75,0.543216189325));
#917 = CARTESIAN_POINT('',(-36.91556246569,-0.739539815272,
    0.496521370926));
#918 = CARTESIAN_POINT('',(-36.99754423475,-0.718682053815,
    0.450357823749));
#919 = CARTESIAN_POINT('',(-37.07793897105,-0.687088587885,
    0.405204953082));
#920 = CARTESIAN_POINT('',(-37.15554482115,-0.644329809582,
    0.361728518961));
#921 = CARTESIAN_POINT('',(-37.22874638783,-0.589974601405,
    0.320815798758));
#922 = CARTESIAN_POINT('',(-37.2955370817,-0.523764343002,0.283560549165
    ));
#923 = CARTESIAN_POINT('',(-37.38626021927,-0.400945174337,
    0.233031873285));
#924 = CARTESIAN_POINT('',(-37.41627880364,-0.352396950726,
    0.216331137848));
#925 = CARTESIAN_POINT('',(-37.44270639473,-0.300126764733,
    0.201642820162));
#926 = CARTESIAN_POINT('',(-37.46488278933,-0.244446833823,
    0.189327754395));
#927 = CARTESIAN_POINT('',(-37.48215591724,-0.185860158582,
    0.179741448311));
#928 = CARTESIAN_POINT('',(-37.49395415387,-0.125098579347,
    0.173195600317));
#929 = CARTESIAN_POINT('',(-37.4999012555,-6.314034160526E-02,
    0.169896054752));
#930 = CARTESIAN_POINT('',(-37.50009734289,6.10684968806E-02,
    0.169787262562));
#931 = CARTESIAN_POINT('',(-37.49429032725,0.123355417038,0.173009086501
    ));
#932 = CARTESIAN_POINT('',(-37.4825677055,0.184458163415,0.17951291474)
  );
#933 = CARTESIAN_POINT('',(-37.4653067328,0.243380555691,0.189092330891)
  );
#934 = CARTESIAN_POINT('',(-37.44308549982,0.299376702156,0.201432116035
    ));
#935 = CARTESIAN_POINT('',(-37.41656536759,0.351933681722,0.216171708696
    ));
#936 = CARTESIAN_POINT('',(-37.38641696448,0.400732975807,0.232944573307
    ));
#937 = CARTESIAN_POINT('',(-37.29553676086,0.523764777346,0.283560727857
    ));
#938 = CARTESIAN_POINT('',(-37.22874629852,0.589974464299,0.320815849107
    ));
#939 = CARTESIAN_POINT('',(-37.15554506232,0.644329630332,0.361728384875
    ));
#940 = CARTESIAN_POINT('',(-37.07793931889,0.687088455313,0.405204757676
    ));
#941 = CARTESIAN_POINT('',(-36.99754421906,0.718682227791,0.450357830885
    ));
#942 = CARTESIAN_POINT('',(-36.91556182077,0.739540077922,0.49652173288)
  );
#943 = CARTESIAN_POINT('',(-36.83285121594,0.75,0.543216789076));
#944 = CARTESIAN_POINT('',(-36.75,0.75,0.590112210029));
#945 = PCURVE('',#677,#946);
#946 = DEFINITIONAL_REPRESENTATION('',(#947),#978);
#947 = B_SPLINE_CURVE_WITH_KNOTS('',8,(#948,#949,#950,#951,#952,#953,
    #954,#955,#956,#957,#958,#959,#960,#961,#962,#963,#964,#965,#966,
    #967,#968,#969,#970,#971,#972,#973,#974,#975,#976,#977),
  .UNSPECIFIED.,.F.,.F.,(9,7,7,7,9),(0.,0.31786964747,0.499560045775,
    0.682119034809,1.),.UNSPECIFIED.);
#948 = CARTESIAN_POINT('',(3.121187322904,-0.590112210029));
#949 = CARTESIAN_POINT('',(3.12123331362,-0.543216189325));
#950 = CARTESIAN_POINT('',(3.121563500977,-0.496521370926));
#951 = CARTESIAN_POINT('',(3.122173296413,-0.45035782375));
#952 = CARTESIAN_POINT('',(3.123068962082,-0.405204953081));
#953 = CARTESIAN_POINT('',(3.124259044355,-0.361728518962));
#954 = CARTESIAN_POINT('',(3.125752214863,-0.320815798758));
#955 = CARTESIAN_POINT('',(3.12755316689,-0.283560549165));
#956 = CARTESIAN_POINT('',(3.130869713481,-0.233031873285));
#957 = CARTESIAN_POINT('',(3.132176423488,-0.216331137848));
#958 = CARTESIAN_POINT('',(3.13357925522,-0.201642820162));
#959 = CARTESIAN_POINT('',(3.135069913849,-0.189327754395));
#960 = CARTESIAN_POINT('',(3.136635322189,-0.179741448311));
#961 = CARTESIAN_POINT('',(3.138256676475,-0.173195600317));
#962 = CARTESIAN_POINT('',(3.139908911025,-0.169896054752));
#963 = CARTESIAN_POINT('',(3.143221146962,-0.169787262562));
#964 = CARTESIAN_POINT('',(3.144882117094,-0.173009086501));
#965 = CARTESIAN_POINT('',(3.14651252515,-0.17951291474));
#966 = CARTESIAN_POINT('',(3.148086847531,-0.189092330891));
#967 = CARTESIAN_POINT('',(3.149585921794,-0.201432116035));
#968 = CARTESIAN_POINT('',(3.150996414402,-0.216171708696));
#969 = CARTESIAN_POINT('',(3.152309863598,-0.232944573307));
#970 = CARTESIAN_POINT('',(3.155632152019,-0.283560727857));
#971 = CARTESIAN_POINT('',(3.157433088757,-0.320815849107));
#972 = CARTESIAN_POINT('',(3.158926257913,-0.361728384874));
#973 = CARTESIAN_POINT('',(3.160116341306,-0.405204757676));
#974 = CARTESIAN_POINT('',(3.1610120154,-0.450357830885));
#975 = CARTESIAN_POINT('',(3.161621813701,-0.49652173288));
#976 = CARTESIAN_POINT('',(3.161951994149,-0.543216789076));
#977 = CARTESIAN_POINT('',(3.161997984277,-0.590112210029));
#978 = ( GEOMETRIC_REPRESENTATION_CONTEXT(2) 
PARAMETRIC_REPRESENTATION_CONTEXT() REPRESENTATION_CONTEXT('2D SPACE',''
  ) );
#979 = PCURVE('',#980,#985);
#980 = CYLINDRICAL_SURFACE('',#981,0.75);
#981 = AXIS2_PLACEMENT_3D('',#982,#983,#984);
#982 = CARTESIAN_POINT('',(-36.75,0.,0.));
#983 = DIRECTION('',(0.,-0.,-1.));
#984 = DIRECTION('',(0.,-1.,0.));
#985 = DEFINITIONAL_REPRESENTATION('',(#986),#1017);
#986 = B_SPLINE_CURVE_WITH_KNOTS('',8,(#987,#988,#989,#990,#991,#992,
    #993,#994,#995,#996,#997,#998,#999,#1000,#1001,#1002,#1003,#1004,
    #1005,#1006,#1007,#1008,#1009,#1010,#1011,#1012,#1013,#1014,#1015,
    #1016),.UNSPECIFIED.,.F.,.F.,(9,7,7,7,9),(0.,0.31786964747,
    0.499560045775,0.682119034809,1.),.UNSPECIFIED.);
#987 = CARTESIAN_POINT('',(0.,-0.590112210029));
#988 = CARTESIAN_POINT('',(0.110469700718,-0.543216189325));
#989 = CARTESIAN_POINT('',(0.220750484044,-0.496521370926));
#990 = CARTESIAN_POINT('',(0.332110715217,-0.45035782375));
#991 = CARTESIAN_POINT('',(0.445446128218,-0.405204953081));
#992 = CARTESIAN_POINT('',(0.561524223261,-0.361728518962));
#993 = CARTESIAN_POINT('',(0.681118723208,-0.320815798758));
#994 = CARTESIAN_POINT('',(0.805039540609,-0.283560549165));
#995 = CARTESIAN_POINT('',(1.00863057242,-0.233031873285));
#996 = CARTESIAN_POINT('',(1.084478061436,-0.216331137848));
#997 = CARTESIAN_POINT('',(1.162090254062,-0.201642820162));
#998 = CARTESIAN_POINT('',(1.241357045321,-0.189327754395));
#999 = CARTESIAN_POINT('',(1.322085959129,-0.179741448311));
#1000 = CARTESIAN_POINT('',(1.403985873202,-0.173195600317));
#1001 = CARTESIAN_POINT('',(1.486609101058,-0.169896054752));
#1002 = CARTESIAN_POINT('',(1.65222109208,-0.169787262562));
#1003 = CARTESIAN_POINT('',(1.735257816614,-0.173009086501));
#1004 = CARTESIAN_POINT('',(1.817575507559,-0.17951291474));
#1005 = CARTESIAN_POINT('',(1.898718110021,-0.189092330891));
#1006 = CARTESIAN_POINT('',(1.978388805865,-0.201432116035));
#1007 = CARTESIAN_POINT('',(2.056390729384,-0.216171708696));
#1008 = CARTESIAN_POINT('',(2.132610330558,-0.232944573307));
#1009 = CARTESIAN_POINT('',(2.33655383297,-0.283560727857));
#1010 = CARTESIAN_POINT('',(2.460473855564,-0.320815849107));
#1011 = CARTESIAN_POINT('',(2.580068092254,-0.361728384874));
#1012 = CARTESIAN_POINT('',(2.696146033127,-0.405204757676));
#1013 = CARTESIAN_POINT('',(2.809482054067,-0.450357830885));
#1014 = CARTESIAN_POINT('',(2.920843026418,-0.49652173288));
#1015 = CARTESIAN_POINT('',(3.031124365663,-0.543216789076));
#1016 = CARTESIAN_POINT('',(3.14159265359,-0.590112210029));
#1017 = ( GEOMETRIC_REPRESENTATION_CONTEXT(2) 
PARAMETRIC_REPRESENTATION_CONTEXT() REPRESENTATION_CONTEXT('2D SPACE',''
  ) );
#1018 = ORIENTED_EDGE('',*,*,#1019,.F.);
#1019 = EDGE_CURVE('',#1020,#911,#1022,.T.);
#1020 = VERTEX_POINT('',#1021);
#1021 = CARTESIAN_POINT('',(36.75,0.75,0.590112210029));
#1022 = SURFACE_CURVE('',#1023,(#1028,#1097),.PCURVE_S1.);
#1023 = HYPERBOLA('',#1024,0.424603174603,0.75);
#1024 = AXIS2_PLACEMENT_3D('',#1025,#1026,#1027);
#1025 = CARTESIAN_POINT('',(0.,0.75,21.4));
#1026 = DIRECTION('',(0.,1.,0.));
#1027 = DIRECTION('',(0.,0.,-1.));
#1028 = PCURVE('',#677,#1029);
#1029 = DEFINITIONAL_REPRESENTATION('',(#1030),#1096);
#1030 = B_SPLINE_CURVE_WITH_KNOTS('',8,(#1031,#1032,#1033,#1034,#1035,
    #1036,#1037,#1038,#1039,#1040,#1041,#1042,#1043,#1044,#1045,#1046,
    #1047,#1048,#1049,#1050,#1051,#1052,#1053,#1054,#1055,#1056,#1057,
    #1058,#1059,#1060,#1061,#1062,#1063,#1064,#1065,#1066,#1067,#1068,
    #1069,#1070,#1071,#1072,#1073,#1074,#1075,#1076,#1077,#1078,#1079,
    #1080,#1081,#1082,#1083,#1084,#1085,#1086,#1087,#1088,#1089,#1090,
    #1091,#1092,#1093,#1094,#1095),.UNSPECIFIED.,.F.,.F.,(9,7,7,7,7,7,7,
    7,7,9),(-4.613039922107,-3.459779941581,-2.45067745862,
    -1.567712786029,-0.795118697512,-0.119098870059,0.472418478961,
    1.507573839748,3.060306880928,4.613039922107),.UNSPECIFIED.);
#1031 = CARTESIAN_POINT('',(6.263342735269,-7.817175169021E-15));
#1032 = CARTESIAN_POINT('',(6.26048246746,-3.084363148738));
#1033 = CARTESIAN_POINT('',(6.257151059356,-5.660473067664));
#1034 = CARTESIAN_POINT('',(6.253258005343,-7.826001428352));
#1035 = CARTESIAN_POINT('',(6.24869196774,-9.656089668735));
#1036 = CARTESIAN_POINT('',(6.243314778445,-11.2098337937));
#1037 = CARTESIAN_POINT('',(6.236953251315,-12.53431111965));
#1038 = CARTESIAN_POINT('',(6.229387365964,-13.6674396978));
#1039 = CARTESIAN_POINT('',(6.212409770574,-15.49102328654));
#1040 = CARTESIAN_POINT('',(6.203346992421,-16.21910752542));
#1041 = CARTESIAN_POINT('',(6.192953826865,-16.84490201541));
#1042 = CARTESIAN_POINT('',(6.18100168668,-17.38486974606));
#1043 = CARTESIAN_POINT('',(6.16721576606,-17.85234441644));
#1044 = CARTESIAN_POINT('',(6.151262459579,-18.25824474134));
#1045 = CARTESIAN_POINT('',(6.132735080816,-18.61157216287));
#1046 = CARTESIAN_POINT('',(6.092245509695,-19.18950024628));
#1047 = CARTESIAN_POINT('',(6.071002126708,-19.42467093691));
#1048 = CARTESIAN_POINT('',(6.047080617042,-19.63031873739));
#1049 = CARTESIAN_POINT('',(6.020099632291,-19.81055299656));
#1050 = CARTESIAN_POINT('',(5.989623807311,-19.96877989663));
#1051 = CARTESIAN_POINT('',(5.955155847784,-20.10784165939));
#1052 = CARTESIAN_POINT('',(5.916145009446,-20.2301175367));
#1053 = CARTESIAN_POINT('',(5.833436356341,-20.43165247929));
#1054 = CARTESIAN_POINT('',(5.790933783142,-20.51437813945));
#1055 = CARTESIAN_POINT('',(5.744153513805,-20.58711611784));
#1056 = CARTESIAN_POINT('',(5.692718420188,-20.65097833917));
#1057 = CARTESIAN_POINT('',(5.636273023474,-20.70689029871));
#1058 = CARTESIAN_POINT('',(5.574536249723,-20.7556209662));
#1059 = CARTESIAN_POINT('',(5.507380657889,-20.79780464994));
#1060 = CARTESIAN_POINT('',(5.37155093743,-20.86558622058));
#1061 = CARTESIAN_POINT('',(5.304114788503,-20.89259826746));
#1062 = CARTESIAN_POINT('',(5.23272009814,-20.91533510035));
#1063 = CARTESIAN_POINT('',(5.157592011112,-20.93407061353));
#1064 = CARTESIAN_POINT('',(5.079158034236,-20.94901605786));
#1065 = CARTESIAN_POINT('',(4.998060514029,-20.96032540629));
#1066 = CARTESIAN_POINT('',(4.915113970107,-20.96809848409));
#1067 = CARTESIAN_POINT('',(4.757788934286,-20.9761298206));
#1068 = CARTESIAN_POINT('',(4.683635844492,-20.97720598207));
#1069 = CARTESIAN_POINT('',(4.60933902717,-20.97564157589));
#1070 = CARTESIAN_POINT('',(4.535541588825,-20.97143665755));
#1071 = CARTESIAN_POINT('',(4.462868479954,-20.96456067351));
#1072 = CARTESIAN_POINT('',(4.3918749856,-20.95495210474));
#1073 = CARTESIAN_POINT('',(4.323013956757,-20.94251719028));
#1074 = CARTESIAN_POINT('',(4.140435477903,-20.90019617707));
#1075 = CARTESIAN_POINT('',(4.031811648322,-20.86421632461));
#1076 = CARTESIAN_POINT('',(3.932565881046,-20.81850107471));
#1077 = CARTESIAN_POINT('',(3.843479319641,-20.76204010645));
#1078 = CARTESIAN_POINT('',(3.764204759209,-20.69346319678));
#1079 = CARTESIAN_POINT('',(3.694033330251,-20.61097421218));
#1080 = CARTESIAN_POINT('',(3.632081020546,-20.51225077907));
#1081 = CARTESIAN_POINT('',(3.49550857458,-20.21733182132));
#1082 = CARTESIAN_POINT('',(3.430042658876,-19.99708099239));
#1083 = CARTESIAN_POINT('',(3.378024526286,-19.72337396933));
#1084 = CARTESIAN_POINT('',(3.336346433703,-19.38256886632));
#1085 = CARTESIAN_POINT('',(3.302791888312,-18.95633565258));
#1086 = CARTESIAN_POINT('',(3.275591071615,-18.41967861636));
#1087 = CARTESIAN_POINT('',(3.253426247851,-17.73794551958));
#1088 = CARTESIAN_POINT('',(3.217115159779,-15.98362398434));
#1089 = CARTESIAN_POINT('',(3.202969210033,-14.91103486875));
#1090 = CARTESIAN_POINT('',(3.191808816429,-13.59266952724));
#1091 = CARTESIAN_POINT('',(3.182915664663,-11.96244874884));
#1092 = CARTESIAN_POINT('',(3.175771404967,-9.932594912768));
#1093 = CARTESIAN_POINT('',(3.169991331518,-7.384148313974));
#1094 = CARTESIAN_POINT('',(3.165286249908,-4.15274322608));
#1095 = CARTESIAN_POINT('',(3.161435225501,-7.817175169021E-15));
#1096 = ( GEOMETRIC_REPRESENTATION_CONTEXT(2) 
PARAMETRIC_REPRESENTATION_CONTEXT() REPRESENTATION_CONTEXT('2D SPACE',''
  ) );
#1097 = PCURVE('',#1098,#1103);
#1098 = PLANE('',#1099);
#1099 = AXIS2_PLACEMENT_3D('',#1100,#1101,#1102);
#1100 = CARTESIAN_POINT('',(-36.75,0.75,0.));
#1101 = DIRECTION('',(0.,1.,0.));
#1102 = DIRECTION('',(1.,0.,0.));
#1103 = DEFINITIONAL_REPRESENTATION('',(#1104),#1108);
#1104 = HYPERBOLA('',#1105,0.424603174603,0.75);
#1105 = AXIS2_PLACEMENT_2D('',#1106,#1107);
#1106 = CARTESIAN_POINT('',(36.75,-21.4));
#1107 = DIRECTION('',(0.,1.));
#1108 = ( GEOMETRIC_REPRESENTATION_CONTEXT(2) 
PARAMETRIC_REPRESENTATION_CONTEXT() REPRESENTATION_CONTEXT('2D SPACE',''
  ) );
#1109 = ORIENTED_EDGE('',*,*,#1110,.T.);
#1110 = EDGE_CURVE('',#1020,#728,#1111,.T.);
#1111 = SURFACE_CURVE('',#1112,(#1129,#1149),.PCURVE_S1.);
#1112 = B_SPLINE_CURVE_WITH_KNOTS('',8,(#1113,#1114,#1115,#1116,#1117,
    #1118,#1119,#1120,#1121,#1122,#1123,#1124,#1125,#1126,#1127,#1128),
  .UNSPECIFIED.,.F.,.F.,(9,7,9),(0.,0.635749954163,1.),.UNSPECIFIED.);
#1113 = CARTESIAN_POINT('',(36.75,0.75,0.590112210029));
#1114 = CARTESIAN_POINT('',(36.832852275539,0.75,0.543216189325));
#1115 = CARTESIAN_POINT('',(36.915562465693,0.739539815271,
    0.496521370926));
#1116 = CARTESIAN_POINT('',(36.997544234754,0.718682053816,
    0.450357823749));
#1117 = CARTESIAN_POINT('',(37.07793897105,0.687088587884,0.405204953082
    ));
#1118 = CARTESIAN_POINT('',(37.155544821155,0.644329809583,
    0.361728518962));
#1119 = CARTESIAN_POINT('',(37.228746387836,0.589974601405,
    0.320815798758));
#1120 = CARTESIAN_POINT('',(37.295537081704,0.523764343002,
    0.283560549165));
#1121 = CARTESIAN_POINT('',(37.386338595192,0.400839070584,0.23298822145
    ));
#1122 = CARTESIAN_POINT('',(37.416422102394,0.352165336531,0.21625141383
    ));
#1123 = CARTESIAN_POINT('',(37.44289600602,0.299751800784,0.201537435168
    ));
#1124 = CARTESIAN_POINT('',(37.465094905106,0.243913818032,
    0.189209962224));
#1125 = CARTESIAN_POINT('',(37.482362093186,0.185159329967,
    0.179627024693));
#1126 = CARTESIAN_POINT('',(37.494122712603,0.124227178317,
    0.173102081274));
#1127 = CARTESIAN_POINT('',(37.5,6.210454974118E-02,0.169841269841));
#1128 = CARTESIAN_POINT('',(37.5,0.,0.169841269841));
#1129 = PCURVE('',#677,#1130);
#1130 = DEFINITIONAL_REPRESENTATION('',(#1131),#1148);
#1131 = B_SPLINE_CURVE_WITH_KNOTS('',8,(#1132,#1133,#1134,#1135,#1136,
    #1137,#1138,#1139,#1140,#1141,#1142,#1143,#1144,#1145,#1146,#1147),
  .UNSPECIFIED.,.F.,.F.,(9,7,9),(0.,0.635749954163,1.),.UNSPECIFIED.);
#1132 = CARTESIAN_POINT('',(6.262779976493,-0.590112210029));
#1133 = CARTESIAN_POINT('',(6.262825967209,-0.543216189325));
#1134 = CARTESIAN_POINT('',(6.263156154567,-0.496521370926));
#1135 = CARTESIAN_POINT('',(6.263765950002,-0.450357823749));
#1136 = CARTESIAN_POINT('',(6.264661615672,-0.405204953082));
#1137 = CARTESIAN_POINT('',(6.265851697944,-0.361728518961));
#1138 = CARTESIAN_POINT('',(6.267344868452,-0.320815798758));
#1139 = CARTESIAN_POINT('',(6.26914582048,-0.283560549165));
#1140 = CARTESIAN_POINT('',(6.272465232242,-0.23298822145));
#1141 = CARTESIAN_POINT('',(6.273775311197,-0.21625141383));
#1142 = CARTESIAN_POINT('',(6.275181972149,-0.201537435168));
#1143 = CARTESIAN_POINT('',(6.276676837157,-0.189209962224));
#1144 = CARTESIAN_POINT('',(6.278246701352,-0.179627024693));
#1145 = CARTESIAN_POINT('',(6.279872582242,-0.173102081274));
#1146 = CARTESIAN_POINT('',(6.281529185853,-0.169841269841));
#1147 = CARTESIAN_POINT('',(6.28318530718,-0.169841269841));
#1148 = ( GEOMETRIC_REPRESENTATION_CONTEXT(2) 
PARAMETRIC_REPRESENTATION_CONTEXT() REPRESENTATION_CONTEXT('2D SPACE',''
  ) );
#1149 = PCURVE('',#794,#1150);
#1150 = DEFINITIONAL_REPRESENTATION('',(#1151),#1168);
#1151 = B_SPLINE_CURVE_WITH_KNOTS('',8,(#1152,#1153,#1154,#1155,#1156,
    #1157,#1158,#1159,#1160,#1161,#1162,#1163,#1164,#1165,#1166,#1167),
  .UNSPECIFIED.,.F.,.F.,(9,7,9),(0.,0.635749954163,1.),.UNSPECIFIED.);
#1152 = CARTESIAN_POINT('',(0.,-0.590112210029));
#1153 = CARTESIAN_POINT('',(0.110469700718,-0.543216189325));
#1154 = CARTESIAN_POINT('',(0.220750484043,-0.496521370926));
#1155 = CARTESIAN_POINT('',(0.332110715218,-0.450357823749));
#1156 = CARTESIAN_POINT('',(0.445446128216,-0.405204953082));
#1157 = CARTESIAN_POINT('',(0.561524223262,-0.361728518962));
#1158 = CARTESIAN_POINT('',(0.681118723207,-0.320815798758));
#1159 = CARTESIAN_POINT('',(0.805039540609,-0.283560549165));
#1160 = CARTESIAN_POINT('',(1.008806455166,-0.23298822145));
#1161 = CARTESIAN_POINT('',(1.084839984327,-0.21625141383));
#1162 = CARTESIAN_POINT('',(1.162647014917,-0.201537435168));
#1163 = CARTESIAN_POINT('',(1.242115729339,-0.189209962224));
#1164 = CARTESIAN_POINT('',(1.323051465596,-0.179627024693));
#1165 = CARTESIAN_POINT('',(1.40516026232,-0.173102081274));
#1166 = CARTESIAN_POINT('',(1.487990260473,-0.169841269841));
#1167 = CARTESIAN_POINT('',(1.570796326795,-0.169841269841));
#1168 = ( GEOMETRIC_REPRESENTATION_CONTEXT(2) 
PARAMETRIC_REPRESENTATION_CONTEXT() REPRESENTATION_CONTEXT('2D SPACE',''
  ) );
#1169 = ADVANCED_FACE('',(#1170),#712,.T.);
#1170 = FACE_BOUND('',#1171,.T.);
#1171 = EDGE_LOOP('',(#1172,#1173,#1196,#1223));
#1172 = ORIENTED_EDGE('',*,*,#695,.T.);
#1173 = ORIENTED_EDGE('',*,*,#1174,.T.);
#1174 = EDGE_CURVE('',#696,#1175,#1177,.T.);
#1175 = VERTEX_POINT('',#1176);
#1176 = CARTESIAN_POINT('',(44.75,0.,80.7));
#1177 = SEAM_CURVE('',#1178,(#1182,#1189),.PCURVE_S1.);
#1178 = LINE('',#1179,#1180);
#1179 = CARTESIAN_POINT('',(44.75,0.,69.9));
#1180 = VECTOR('',#1181,1.);
#1181 = DIRECTION('',(0.,0.,1.));
#1182 = PCURVE('',#712,#1183);
#1183 = DEFINITIONAL_REPRESENTATION('',(#1184),#1188);
#1184 = LINE('',#1185,#1186);
#1185 = CARTESIAN_POINT('',(-4.138911435803E-13,0.));
#1186 = VECTOR('',#1187,1.);
#1187 = DIRECTION('',(-0.,-1.));
#1188 = ( GEOMETRIC_REPRESENTATION_CONTEXT(2) 
PARAMETRIC_REPRESENTATION_CONTEXT() REPRESENTATION_CONTEXT('2D SPACE',''
  ) );
#1189 = PCURVE('',#712,#1190);
#1190 = DEFINITIONAL_REPRESENTATION('',(#1191),#1195);
#1191 = LINE('',#1192,#1193);
#1192 = CARTESIAN_POINT('',(6.28318530718,0.));
#1193 = VECTOR('',#1194,1.);
#1194 = DIRECTION('',(-0.,-1.));
#1195 = ( GEOMETRIC_REPRESENTATION_CONTEXT(2) 
PARAMETRIC_REPRESENTATION_CONTEXT() REPRESENTATION_CONTEXT('2D SPACE',''
  ) );
#1196 = ORIENTED_EDGE('',*,*,#1197,.F.);
#1197 = EDGE_CURVE('',#1175,#1175,#1198,.T.);
#1198 = SURFACE_CURVE('',#1199,(#1204,#1211),.PCURVE_S1.);
#1199 = CIRCLE('',#1200,44.75);
#1200 = AXIS2_PLACEMENT_3D('',#1201,#1202,#1203);
#1201 = CARTESIAN_POINT('',(0.,0.,80.7));
#1202 = DIRECTION('',(0.,0.,1.));
#1203 = DIRECTION('',(1.,0.,-0.));
#1204 = PCURVE('',#712,#1205);
#1205 = DEFINITIONAL_REPRESENTATION('',(#1206),#1210);
#1206 = LINE('',#1207,#1208);
#1207 = CARTESIAN_POINT('',(6.28318530718,-10.8));
#1208 = VECTOR('',#1209,1.);
#1209 = DIRECTION('',(-1.,0.));
#1210 = ( GEOMETRIC_REPRESENTATION_CONTEXT(2) 
PARAMETRIC_REPRESENTATION_CONTEXT() REPRESENTATION_CONTEXT('2D SPACE',''
  ) );
#1211 = PCURVE('',#1212,#1217);
#1212 = PLANE('',#1213);
#1213 = AXIS2_PLACEMENT_3D('',#1214,#1215,#1216);
#1214 = CARTESIAN_POINT('',(-2.933502854163E-15,4.040240899597E-15,80.7)
  );
#1215 = DIRECTION('',(0.,0.,1.));
#1216 = DIRECTION('',(1.,0.,-0.));
#1217 = DEFINITIONAL_REPRESENTATION('',(#1218),#1222);
#1218 = CIRCLE('',#1219,44.75);
#1219 = AXIS2_PLACEMENT_2D('',#1220,#1221);
#1220 = CARTESIAN_POINT('',(2.933502854163E-15,-4.040240899597E-15));
#1221 = DIRECTION('',(1.,0.));
#1222 = ( GEOMETRIC_REPRESENTATION_CONTEXT(2) 
PARAMETRIC_REPRESENTATION_CONTEXT() REPRESENTATION_CONTEXT('2D SPACE',''
  ) );
#1223 = ORIENTED_EDGE('',*,*,#1174,.F.);
#1224 = ADVANCED_FACE('',(#1225),#794,.F.);
#1225 = FACE_BOUND('',#1226,.F.);
#1226 = EDGE_LOOP('',(#1227,#1228,#1251,#1284,#1305));
#1227 = ORIENTED_EDGE('',*,*,#1110,.F.);
#1228 = ORIENTED_EDGE('',*,*,#1229,.T.);
#1229 = EDGE_CURVE('',#1020,#1230,#1232,.T.);
#1230 = VERTEX_POINT('',#1231);
#1231 = CARTESIAN_POINT('',(36.75,0.75,109.));
#1232 = SURFACE_CURVE('',#1233,(#1237,#1244),.PCURVE_S1.);
#1233 = LINE('',#1234,#1235);
#1234 = CARTESIAN_POINT('',(36.75,0.75,0.));
#1235 = VECTOR('',#1236,1.);
#1236 = DIRECTION('',(0.,0.,1.));
#1237 = PCURVE('',#794,#1238);
#1238 = DEFINITIONAL_REPRESENTATION('',(#1239),#1243);
#1239 = LINE('',#1240,#1241);
#1240 = CARTESIAN_POINT('',(0.,0.));
#1241 = VECTOR('',#1242,1.);
#1242 = DIRECTION('',(0.,-1.));
#1243 = ( GEOMETRIC_REPRESENTATION_CONTEXT(2) 
PARAMETRIC_REPRESENTATION_CONTEXT() REPRESENTATION_CONTEXT('2D SPACE',''
  ) );
#1244 = PCURVE('',#1098,#1245);
#1245 = DEFINITIONAL_REPRESENTATION('',(#1246),#1250);
#1246 = LINE('',#1247,#1248);
#1247 = CARTESIAN_POINT('',(73.5,0.));
#1248 = VECTOR('',#1249,1.);
#1249 = DIRECTION('',(0.,-1.));
#1250 = ( GEOMETRIC_REPRESENTATION_CONTEXT(2) 
PARAMETRIC_REPRESENTATION_CONTEXT() REPRESENTATION_CONTEXT('2D SPACE',''
  ) );
#1251 = ORIENTED_EDGE('',*,*,#1252,.T.);
#1252 = EDGE_CURVE('',#1230,#1253,#1255,.T.);
#1253 = VERTEX_POINT('',#1254);
#1254 = CARTESIAN_POINT('',(36.75,-0.75,109.));
#1255 = SURFACE_CURVE('',#1256,(#1261,#1268),.PCURVE_S1.);
#1256 = CIRCLE('',#1257,0.75);
#1257 = AXIS2_PLACEMENT_3D('',#1258,#1259,#1260);
#1258 = CARTESIAN_POINT('',(36.75,0.,109.));
#1259 = DIRECTION('',(0.,0.,-1.));
#1260 = DIRECTION('',(0.,1.,0.));
#1261 = PCURVE('',#794,#1262);
#1262 = DEFINITIONAL_REPRESENTATION('',(#1263),#1267);
#1263 = LINE('',#1264,#1265);
#1264 = CARTESIAN_POINT('',(0.,-109.));
#1265 = VECTOR('',#1266,1.);
#1266 = DIRECTION('',(1.,0.));
#1267 = ( GEOMETRIC_REPRESENTATION_CONTEXT(2) 
PARAMETRIC_REPRESENTATION_CONTEXT() REPRESENTATION_CONTEXT('2D SPACE',''
  ) );
#1268 = PCURVE('',#1269,#1274);
#1269 = PLANE('',#1270);
#1270 = AXIS2_PLACEMENT_3D('',#1271,#1272,#1273);
#1271 = CARTESIAN_POINT('',(-4.403329231825E-15,5.790076070423E-16,109.)
  );
#1272 = DIRECTION('',(0.,0.,1.));
#1273 = DIRECTION('',(1.,0.,-0.));
#1274 = DEFINITIONAL_REPRESENTATION('',(#1275),#1283);
#1275 = ( BOUNDED_CURVE() B_SPLINE_CURVE(2,(#1276,#1277,#1278,#1279,
#1280,#1281,#1282),.UNSPECIFIED.,.T.,.F.) B_SPLINE_CURVE_WITH_KNOTS((1,2
    ,2,2,2,1),(-2.094395102393,0.,2.094395102393,4.188790204786,
6.28318530718,8.377580409573),.UNSPECIFIED.) CURVE() 
GEOMETRIC_REPRESENTATION_ITEM() RATIONAL_B_SPLINE_CURVE((1.,0.5,1.,0.5,
1.,0.5,1.)) REPRESENTATION_ITEM('') );
#1276 = CARTESIAN_POINT('',(36.75,0.75));
#1277 = CARTESIAN_POINT('',(38.049038105677,0.75));
#1278 = CARTESIAN_POINT('',(37.399519052838,-0.375));
#1279 = CARTESIAN_POINT('',(36.75,-1.5));
#1280 = CARTESIAN_POINT('',(36.100480947162,-0.375));
#1281 = CARTESIAN_POINT('',(35.450961894323,0.75));
#1282 = CARTESIAN_POINT('',(36.75,0.75));
#1283 = ( GEOMETRIC_REPRESENTATION_CONTEXT(2) 
PARAMETRIC_REPRESENTATION_CONTEXT() REPRESENTATION_CONTEXT('2D SPACE',''
  ) );
#1284 = ORIENTED_EDGE('',*,*,#1285,.F.);
#1285 = EDGE_CURVE('',#753,#1253,#1286,.T.);
#1286 = SURFACE_CURVE('',#1287,(#1291,#1298),.PCURVE_S1.);
#1287 = LINE('',#1288,#1289);
#1288 = CARTESIAN_POINT('',(36.75,-0.75,0.));
#1289 = VECTOR('',#1290,1.);
#1290 = DIRECTION('',(0.,0.,1.));
#1291 = PCURVE('',#794,#1292);
#1292 = DEFINITIONAL_REPRESENTATION('',(#1293),#1297);
#1293 = LINE('',#1294,#1295);
#1294 = CARTESIAN_POINT('',(3.14159265359,0.));
#1295 = VECTOR('',#1296,1.);
#1296 = DIRECTION('',(0.,-1.));
#1297 = ( GEOMETRIC_REPRESENTATION_CONTEXT(2) 
PARAMETRIC_REPRESENTATION_CONTEXT() REPRESENTATION_CONTEXT('2D SPACE',''
  ) );
#1298 = PCURVE('',#898,#1299);
#1299 = DEFINITIONAL_REPRESENTATION('',(#1300),#1304);
#1300 = LINE('',#1301,#1302);
#1301 = CARTESIAN_POINT('',(0.,-0.));
#1302 = VECTOR('',#1303,1.);
#1303 = DIRECTION('',(0.,-1.));
#1304 = ( GEOMETRIC_REPRESENTATION_CONTEXT(2) 
PARAMETRIC_REPRESENTATION_CONTEXT() REPRESENTATION_CONTEXT('2D SPACE',''
  ) );
#1305 = ORIENTED_EDGE('',*,*,#752,.F.);
#1306 = ADVANCED_FACE('',(#1307),#1098,.F.);
#1307 = FACE_BOUND('',#1308,.F.);
#1308 = EDGE_LOOP('',(#1309,#1310,#1333,#1354));
#1309 = ORIENTED_EDGE('',*,*,#1019,.T.);
#1310 = ORIENTED_EDGE('',*,*,#1311,.T.);
#1311 = EDGE_CURVE('',#911,#1312,#1314,.T.);
#1312 = VERTEX_POINT('',#1313);
#1313 = CARTESIAN_POINT('',(-36.75,0.75,109.));
#1314 = SURFACE_CURVE('',#1315,(#1319,#1326),.PCURVE_S1.);
#1315 = LINE('',#1316,#1317);
#1316 = CARTESIAN_POINT('',(-36.75,0.75,0.));
#1317 = VECTOR('',#1318,1.);
#1318 = DIRECTION('',(0.,0.,1.));
#1319 = PCURVE('',#1098,#1320);
#1320 = DEFINITIONAL_REPRESENTATION('',(#1321),#1325);
#1321 = LINE('',#1322,#1323);
#1322 = CARTESIAN_POINT('',(0.,0.));
#1323 = VECTOR('',#1324,1.);
#1324 = DIRECTION('',(0.,-1.));
#1325 = ( GEOMETRIC_REPRESENTATION_CONTEXT(2) 
PARAMETRIC_REPRESENTATION_CONTEXT() REPRESENTATION_CONTEXT('2D SPACE',''
  ) );
#1326 = PCURVE('',#980,#1327);
#1327 = DEFINITIONAL_REPRESENTATION('',(#1328),#1332);
#1328 = LINE('',#1329,#1330);
#1329 = CARTESIAN_POINT('',(3.14159265359,0.));
#1330 = VECTOR('',#1331,1.);
#1331 = DIRECTION('',(0.,-1.));
#1332 = ( GEOMETRIC_REPRESENTATION_CONTEXT(2) 
PARAMETRIC_REPRESENTATION_CONTEXT() REPRESENTATION_CONTEXT('2D SPACE',''
  ) );
#1333 = ORIENTED_EDGE('',*,*,#1334,.T.);
#1334 = EDGE_CURVE('',#1312,#1230,#1335,.T.);
#1335 = SURFACE_CURVE('',#1336,(#1340,#1347),.PCURVE_S1.);
#1336 = LINE('',#1337,#1338);
#1337 = CARTESIAN_POINT('',(-36.75,0.75,109.));
#1338 = VECTOR('',#1339,1.);
#1339 = DIRECTION('',(1.,0.,0.));
#1340 = PCURVE('',#1098,#1341);
#1341 = DEFINITIONAL_REPRESENTATION('',(#1342),#1346);
#1342 = LINE('',#1343,#1344);
#1343 = CARTESIAN_POINT('',(0.,-109.));
#1344 = VECTOR('',#1345,1.);
#1345 = DIRECTION('',(1.,0.));
#1346 = ( GEOMETRIC_REPRESENTATION_CONTEXT(2) 
PARAMETRIC_REPRESENTATION_CONTEXT() REPRESENTATION_CONTEXT('2D SPACE',''
  ) );
#1347 = PCURVE('',#1269,#1348);
#1348 = DEFINITIONAL_REPRESENTATION('',(#1349),#1353);
#1349 = LINE('',#1350,#1351);
#1350 = CARTESIAN_POINT('',(-36.75,0.75));
#1351 = VECTOR('',#1352,1.);
#1352 = DIRECTION('',(1.,0.));
#1353 = ( GEOMETRIC_REPRESENTATION_CONTEXT(2) 
PARAMETRIC_REPRESENTATION_CONTEXT() REPRESENTATION_CONTEXT('2D SPACE',''
  ) );
#1354 = ORIENTED_EDGE('',*,*,#1229,.F.);
#1355 = ADVANCED_FACE('',(#1356),#980,.F.);
#1356 = FACE_BOUND('',#1357,.F.);
#1357 = EDGE_LOOP('',(#1358,#1359,#1382,#1408));
#1358 = ORIENTED_EDGE('',*,*,#910,.F.);
#1359 = ORIENTED_EDGE('',*,*,#1360,.T.);
#1360 = EDGE_CURVE('',#820,#1361,#1363,.T.);
#1361 = VERTEX_POINT('',#1362);
#1362 = CARTESIAN_POINT('',(-36.75,-0.75,109.));
#1363 = SURFACE_CURVE('',#1364,(#1368,#1375),.PCURVE_S1.);
#1364 = LINE('',#1365,#1366);
#1365 = CARTESIAN_POINT('',(-36.75,-0.75,0.));
#1366 = VECTOR('',#1367,1.);
#1367 = DIRECTION('',(0.,0.,1.));
#1368 = PCURVE('',#980,#1369);
#1369 = DEFINITIONAL_REPRESENTATION('',(#1370),#1374);
#1370 = LINE('',#1371,#1372);
#1371 = CARTESIAN_POINT('',(0.,0.));
#1372 = VECTOR('',#1373,1.);
#1373 = DIRECTION('',(0.,-1.));
#1374 = ( GEOMETRIC_REPRESENTATION_CONTEXT(2) 
PARAMETRIC_REPRESENTATION_CONTEXT() REPRESENTATION_CONTEXT('2D SPACE',''
  ) );
#1375 = PCURVE('',#898,#1376);
#1376 = DEFINITIONAL_REPRESENTATION('',(#1377),#1381);
#1377 = LINE('',#1378,#1379);
#1378 = CARTESIAN_POINT('',(73.5,0.));
#1379 = VECTOR('',#1380,1.);
#1380 = DIRECTION('',(0.,-1.));
#1381 = ( GEOMETRIC_REPRESENTATION_CONTEXT(2) 
PARAMETRIC_REPRESENTATION_CONTEXT() REPRESENTATION_CONTEXT('2D SPACE',''
  ) );
#1382 = ORIENTED_EDGE('',*,*,#1383,.T.);
#1383 = EDGE_CURVE('',#1361,#1312,#1384,.T.);
#1384 = SURFACE_CURVE('',#1385,(#1390,#1397),.PCURVE_S1.);
#1385 = CIRCLE('',#1386,0.75);
#1386 = AXIS2_PLACEMENT_3D('',#1387,#1388,#1389);
#1387 = CARTESIAN_POINT('',(-36.75,0.,109.));
#1388 = DIRECTION('',(0.,-0.,-1.));
#1389 = DIRECTION('',(0.,-1.,0.));
#1390 = PCURVE('',#980,#1391);
#1391 = DEFINITIONAL_REPRESENTATION('',(#1392),#1396);
#1392 = LINE('',#1393,#1394);
#1393 = CARTESIAN_POINT('',(0.,-109.));
#1394 = VECTOR('',#1395,1.);
#1395 = DIRECTION('',(1.,0.));
#1396 = ( GEOMETRIC_REPRESENTATION_CONTEXT(2) 
PARAMETRIC_REPRESENTATION_CONTEXT() REPRESENTATION_CONTEXT('2D SPACE',''
  ) );
#1397 = PCURVE('',#1269,#1398);
#1398 = DEFINITIONAL_REPRESENTATION('',(#1399),#1407);
#1399 = ( BOUNDED_CURVE() B_SPLINE_CURVE(2,(#1400,#1401,#1402,#1403,
#1404,#1405,#1406),.UNSPECIFIED.,.T.,.F.) B_SPLINE_CURVE_WITH_KNOTS((1,2
    ,2,2,2,1),(-2.094395102393,0.,2.094395102393,4.188790204786,
6.28318530718,8.377580409573),.UNSPECIFIED.) CURVE() 
GEOMETRIC_REPRESENTATION_ITEM() RATIONAL_B_SPLINE_CURVE((1.,0.5,1.,0.5,
1.,0.5,1.)) REPRESENTATION_ITEM('') );
#1400 = CARTESIAN_POINT('',(-36.75,-0.75));
#1401 = CARTESIAN_POINT('',(-38.04903810567,-0.75));
#1402 = CARTESIAN_POINT('',(-37.39951905283,0.375));
#1403 = CARTESIAN_POINT('',(-36.75,1.5));
#1404 = CARTESIAN_POINT('',(-36.10048094716,0.375));
#1405 = CARTESIAN_POINT('',(-35.45096189432,-0.75));
#1406 = CARTESIAN_POINT('',(-36.75,-0.75));
#1407 = ( GEOMETRIC_REPRESENTATION_CONTEXT(2) 
PARAMETRIC_REPRESENTATION_CONTEXT() REPRESENTATION_CONTEXT('2D SPACE',''
  ) );
#1408 = ORIENTED_EDGE('',*,*,#1311,.F.);
#1409 = ADVANCED_FACE('',(#1410),#898,.F.);
#1410 = FACE_BOUND('',#1411,.F.);
#1411 = EDGE_LOOP('',(#1412,#1413,#1414,#1435));
#1412 = ORIENTED_EDGE('',*,*,#819,.T.);
#1413 = ORIENTED_EDGE('',*,*,#1285,.T.);
#1414 = ORIENTED_EDGE('',*,*,#1415,.T.);
#1415 = EDGE_CURVE('',#1253,#1361,#1416,.T.);
#1416 = SURFACE_CURVE('',#1417,(#1421,#1428),.PCURVE_S1.);
#1417 = LINE('',#1418,#1419);
#1418 = CARTESIAN_POINT('',(36.75,-0.75,109.));
#1419 = VECTOR('',#1420,1.);
#1420 = DIRECTION('',(-1.,0.,0.));
#1421 = PCURVE('',#898,#1422);
#1422 = DEFINITIONAL_REPRESENTATION('',(#1423),#1427);
#1423 = LINE('',#1424,#1425);
#1424 = CARTESIAN_POINT('',(0.,-109.));
#1425 = VECTOR('',#1426,1.);
#1426 = DIRECTION('',(1.,0.));
#1427 = ( GEOMETRIC_REPRESENTATION_CONTEXT(2) 
PARAMETRIC_REPRESENTATION_CONTEXT() REPRESENTATION_CONTEXT('2D SPACE',''
  ) );
#1428 = PCURVE('',#1269,#1429);
#1429 = DEFINITIONAL_REPRESENTATION('',(#1430),#1434);
#1430 = LINE('',#1431,#1432);
#1431 = CARTESIAN_POINT('',(36.75,-0.75));
#1432 = VECTOR('',#1433,1.);
#1433 = DIRECTION('',(-1.,0.));
#1434 = ( GEOMETRIC_REPRESENTATION_CONTEXT(2) 
PARAMETRIC_REPRESENTATION_CONTEXT() REPRESENTATION_CONTEXT('2D SPACE',''
  ) );
#1435 = ORIENTED_EDGE('',*,*,#1360,.F.);
#1436 = ADVANCED_FACE('',(#1437,#1440),#1212,.T.);
#1437 = FACE_BOUND('',#1438,.T.);
#1438 = EDGE_LOOP('',(#1439));
#1439 = ORIENTED_EDGE('',*,*,#1197,.T.);
#1440 = FACE_BOUND('',#1441,.T.);
#1441 = EDGE_LOOP('',(#1442));
#1442 = ORIENTED_EDGE('',*,*,#1443,.F.);
#1443 = EDGE_CURVE('',#1444,#1444,#1446,.T.);
#1444 = VERTEX_POINT('',#1445);
#1445 = CARTESIAN_POINT('',(39.75,0.,80.7));
#1446 = SURFACE_CURVE('',#1447,(#1452,#1459),.PCURVE_S1.);
#1447 = CIRCLE('',#1448,39.75);
#1448 = AXIS2_PLACEMENT_3D('',#1449,#1450,#1451);
#1449 = CARTESIAN_POINT('',(0.,0.,80.7));
#1450 = DIRECTION('',(0.,0.,1.));
#1451 = DIRECTION('',(1.,0.,-0.));
#1452 = PCURVE('',#1212,#1453);
#1453 = DEFINITIONAL_REPRESENTATION('',(#1454),#1458);
#1454 = CIRCLE('',#1455,39.75);
#1455 = AXIS2_PLACEMENT_2D('',#1456,#1457);
#1456 = CARTESIAN_POINT('',(2.933502854163E-15,-4.040240899597E-15));
#1457 = DIRECTION('',(1.,0.));
#1458 = ( GEOMETRIC_REPRESENTATION_CONTEXT(2) 
PARAMETRIC_REPRESENTATION_CONTEXT() REPRESENTATION_CONTEXT('2D SPACE',''
  ) );
#1459 = PCURVE('',#1460,#1465);
#1460 = CYLINDRICAL_SURFACE('',#1461,39.75);
#1461 = AXIS2_PLACEMENT_3D('',#1462,#1463,#1464);
#1462 = CARTESIAN_POINT('',(0.,0.,80.7));
#1463 = DIRECTION('',(-0.,-0.,-1.));
#1464 = DIRECTION('',(1.,0.,0.));
#1465 = DEFINITIONAL_REPRESENTATION('',(#1466),#1470);
#1466 = LINE('',#1467,#1468);
#1467 = CARTESIAN_POINT('',(6.28318530718,0.));
#1468 = VECTOR('',#1469,1.);
#1469 = DIRECTION('',(-1.,0.));
#1470 = ( GEOMETRIC_REPRESENTATION_CONTEXT(2) 
PARAMETRIC_REPRESENTATION_CONTEXT() REPRESENTATION_CONTEXT('2D SPACE',''
  ) );
#1471 = ADVANCED_FACE('',(#1472,#1498),#1269,.T.);
#1472 = FACE_BOUND('',#1473,.T.);
#1473 = EDGE_LOOP('',(#1474));
#1474 = ORIENTED_EDGE('',*,*,#1475,.T.);
#1475 = EDGE_CURVE('',#1476,#1476,#1478,.T.);
#1476 = VERTEX_POINT('',#1477);
#1477 = CARTESIAN_POINT('',(39.75,0.,109.));
#1478 = SURFACE_CURVE('',#1479,(#1484,#1491),.PCURVE_S1.);
#1479 = CIRCLE('',#1480,39.75);
#1480 = AXIS2_PLACEMENT_3D('',#1481,#1482,#1483);
#1481 = CARTESIAN_POINT('',(0.,0.,109.));
#1482 = DIRECTION('',(0.,0.,1.));
#1483 = DIRECTION('',(1.,0.,-0.));
#1484 = PCURVE('',#1269,#1485);
#1485 = DEFINITIONAL_REPRESENTATION('',(#1486),#1490);
#1486 = CIRCLE('',#1487,39.75);
#1487 = AXIS2_PLACEMENT_2D('',#1488,#1489);
#1488 = CARTESIAN_POINT('',(4.403329231825E-15,-5.790076070423E-16));
#1489 = DIRECTION('',(1.,0.));
#1490 = ( GEOMETRIC_REPRESENTATION_CONTEXT(2) 
PARAMETRIC_REPRESENTATION_CONTEXT() REPRESENTATION_CONTEXT('2D SPACE',''
  ) );
#1491 = PCURVE('',#1460,#1492);
#1492 = DEFINITIONAL_REPRESENTATION('',(#1493),#1497);
#1493 = LINE('',#1494,#1495);
#1494 = CARTESIAN_POINT('',(6.28318530718,-28.3));
#1495 = VECTOR('',#1496,1.);
#1496 = DIRECTION('',(-1.,0.));
#1497 = ( GEOMETRIC_REPRESENTATION_CONTEXT(2) 
PARAMETRIC_REPRESENTATION_CONTEXT() REPRESENTATION_CONTEXT('2D SPACE',''
  ) );
#1498 = FACE_BOUND('',#1499,.T.);
#1499 = EDGE_LOOP('',(#1500,#1501,#1502,#1503));
#1500 = ORIENTED_EDGE('',*,*,#1334,.T.);
#1501 = ORIENTED_EDGE('',*,*,#1252,.T.);
#1502 = ORIENTED_EDGE('',*,*,#1415,.T.);
#1503 = ORIENTED_EDGE('',*,*,#1383,.T.);
#1504 = ADVANCED_FACE('',(#1505),#1460,.T.);
#1505 = FACE_BOUND('',#1506,.T.);
#1506 = EDGE_LOOP('',(#1507,#1508,#1529,#1530));
#1507 = ORIENTED_EDGE('',*,*,#1443,.T.);
#1508 = ORIENTED_EDGE('',*,*,#1509,.T.);
#1509 = EDGE_CURVE('',#1444,#1476,#1510,.T.);
#1510 = SEAM_CURVE('',#1511,(#1515,#1522),.PCURVE_S1.);
#1511 = LINE('',#1512,#1513);
#1512 = CARTESIAN_POINT('',(39.75,0.,80.7));
#1513 = VECTOR('',#1514,1.);
#1514 = DIRECTION('',(0.,0.,1.));
#1515 = PCURVE('',#1460,#1516);
#1516 = DEFINITIONAL_REPRESENTATION('',(#1517),#1521);
#1517 = LINE('',#1518,#1519);
#1518 = CARTESIAN_POINT('',(-4.138911435803E-13,0.));
#1519 = VECTOR('',#1520,1.);
#1520 = DIRECTION('',(-0.,-1.));
#1521 = ( GEOMETRIC_REPRESENTATION_CONTEXT(2) 
PARAMETRIC_REPRESENTATION_CONTEXT() REPRESENTATION_CONTEXT('2D SPACE',''
  ) );
#1522 = PCURVE('',#1460,#1523);
#1523 = DEFINITIONAL_REPRESENTATION('',(#1524),#1528);
#1524 = LINE('',#1525,#1526);
#1525 = CARTESIAN_POINT('',(6.28318530718,0.));
#1526 = VECTOR('',#1527,1.);
#1527 = DIRECTION('',(-0.,-1.));
#1528 = ( GEOMETRIC_REPRESENTATION_CONTEXT(2) 
PARAMETRIC_REPRESENTATION_CONTEXT() REPRESENTATION_CONTEXT('2D SPACE',''
  ) );
#1529 = ORIENTED_EDGE('',*,*,#1475,.F.);
#1530 = ORIENTED_EDGE('',*,*,#1509,.F.);
#1531 = ORIENTED_CLOSED_SHELL('',*,#1532,.F.);
#1532 = CLOSED_SHELL('',(#1533,#1621,#1625));
#1533 = ADVANCED_FACE('',(#1534),#1548,.T.);
#1534 = FACE_BOUND('',#1535,.T.);
#1535 = EDGE_LOOP('',(#1536,#1566,#1593,#1594));
#1536 = ORIENTED_EDGE('',*,*,#1537,.T.);
#1537 = EDGE_CURVE('',#1538,#1540,#1542,.T.);
#1538 = VERTEX_POINT('',#1539);
#1539 = CARTESIAN_POINT('',(-40.61,0.,54.5));
#1540 = VERTEX_POINT('',#1541);
#1541 = CARTESIAN_POINT('',(-40.61,0.,44.5));
#1542 = SEAM_CURVE('',#1543,(#1547,#1559),.PCURVE_S1.);
#1543 = LINE('',#1544,#1545);
#1544 = CARTESIAN_POINT('',(-40.61,0.,54.5));
#1545 = VECTOR('',#1546,1.);
#1546 = DIRECTION('',(-0.,-0.,-1.));
#1547 = PCURVE('',#1548,#1553);
#1548 = CYLINDRICAL_SURFACE('',#1549,0.89);
#1549 = AXIS2_PLACEMENT_3D('',#1550,#1551,#1552);
#1550 = CARTESIAN_POINT('',(-41.5,0.,54.5));
#1551 = DIRECTION('',(0.,0.,1.));
#1552 = DIRECTION('',(1.,0.,-0.));
#1553 = DEFINITIONAL_REPRESENTATION('',(#1554),#1558);
#1554 = LINE('',#1555,#1556);
#1555 = CARTESIAN_POINT('',(4.138911435803E-13,0.));
#1556 = VECTOR('',#1557,1.);
#1557 = DIRECTION('',(0.,-1.));
#1558 = ( GEOMETRIC_REPRESENTATION_CONTEXT(2) 
PARAMETRIC_REPRESENTATION_CONTEXT() REPRESENTATION_CONTEXT('2D SPACE',''
  ) );
#1559 = PCURVE('',#1548,#1560);
#1560 = DEFINITIONAL_REPRESENTATION('',(#1561),#1565);
#1561 = LINE('',#1562,#1563);
#1562 = CARTESIAN_POINT('',(6.28318530718,0.));
#1563 = VECTOR('',#1564,1.);
#1564 = DIRECTION('',(0.,-1.));
#1565 = ( GEOMETRIC_REPRESENTATION_CONTEXT(2) 
PARAMETRIC_REPRESENTATION_CONTEXT() REPRESENTATION_CONTEXT('2D SPACE',''
  ) );
#1566 = ORIENTED_EDGE('',*,*,#1567,.T.);
#1567 = EDGE_CURVE('',#1540,#1540,#1568,.T.);
#1568 = SURFACE_CURVE('',#1569,(#1574,#1581),.PCURVE_S1.);
#1569 = CIRCLE('',#1570,0.89);
#1570 = AXIS2_PLACEMENT_3D('',#1571,#1572,#1573);
#1571 = CARTESIAN_POINT('',(-41.5,0.,44.5));
#1572 = DIRECTION('',(0.,0.,1.));
#1573 = DIRECTION('',(1.,0.,-0.));
#1574 = PCURVE('',#1548,#1575);
#1575 = DEFINITIONAL_REPRESENTATION('',(#1576),#1580);
#1576 = LINE('',#1577,#1578);
#1577 = CARTESIAN_POINT('',(0.,-10.));
#1578 = VECTOR('',#1579,1.);
#1579 = DIRECTION('',(1.,0.));
#1580 = ( GEOMETRIC_REPRESENTATION_CONTEXT(2) 
PARAMETRIC_REPRESENTATION_CONTEXT() REPRESENTATION_CONTEXT('2D SPACE',''
  ) );
#1581 = PCURVE('',#1582,#1587);
#1582 = PLANE('',#1583);
#1583 = AXIS2_PLACEMENT_3D('',#1584,#1585,#1586);
#1584 = CARTESIAN_POINT('',(-41.5,1.168286122289E-17,44.5));
#1585 = DIRECTION('',(0.,0.,1.));
#1586 = DIRECTION('',(1.,0.,-0.));
#1587 = DEFINITIONAL_REPRESENTATION('',(#1588),#1592);
#1588 = CIRCLE('',#1589,0.89);
#1589 = AXIS2_PLACEMENT_2D('',#1590,#1591);
#1590 = CARTESIAN_POINT('',(0.,-1.168286122289E-17));
#1591 = DIRECTION('',(1.,0.));
#1592 = ( GEOMETRIC_REPRESENTATION_CONTEXT(2) 
PARAMETRIC_REPRESENTATION_CONTEXT() REPRESENTATION_CONTEXT('2D SPACE',''
  ) );
#1593 = ORIENTED_EDGE('',*,*,#1537,.F.);
#1594 = ORIENTED_EDGE('',*,*,#1595,.F.);
#1595 = EDGE_CURVE('',#1538,#1538,#1596,.T.);
#1596 = SURFACE_CURVE('',#1597,(#1602,#1609),.PCURVE_S1.);
#1597 = CIRCLE('',#1598,0.89);
#1598 = AXIS2_PLACEMENT_3D('',#1599,#1600,#1601);
#1599 = CARTESIAN_POINT('',(-41.5,0.,54.5));
#1600 = DIRECTION('',(0.,0.,1.));
#1601 = DIRECTION('',(1.,0.,-0.));
#1602 = PCURVE('',#1548,#1603);
#1603 = DEFINITIONAL_REPRESENTATION('',(#1604),#1608);
#1604 = LINE('',#1605,#1606);
#1605 = CARTESIAN_POINT('',(0.,0.));
#1606 = VECTOR('',#1607,1.);
#1607 = DIRECTION('',(1.,0.));
#1608 = ( GEOMETRIC_REPRESENTATION_CONTEXT(2) 
PARAMETRIC_REPRESENTATION_CONTEXT() REPRESENTATION_CONTEXT('2D SPACE',''
  ) );
#1609 = PCURVE('',#1610,#1615);
#1610 = PLANE('',#1611);
#1611 = AXIS2_PLACEMENT_3D('',#1612,#1613,#1614);
#1612 = CARTESIAN_POINT('',(-41.5,1.168286122289E-17,54.5));
#1613 = DIRECTION('',(0.,0.,1.));
#1614 = DIRECTION('',(1.,0.,-0.));
#1615 = DEFINITIONAL_REPRESENTATION('',(#1616),#1620);
#1616 = CIRCLE('',#1617,0.89);
#1617 = AXIS2_PLACEMENT_2D('',#1618,#1619);
#1618 = CARTESIAN_POINT('',(0.,-1.168286122289E-17));
#1619 = DIRECTION('',(1.,0.));
#1620 = ( GEOMETRIC_REPRESENTATION_CONTEXT(2) 
PARAMETRIC_REPRESENTATION_CONTEXT() REPRESENTATION_CONTEXT('2D SPACE',''
  ) );
#1621 = ADVANCED_FACE('',(#1622),#1610,.T.);
#1622 = FACE_BOUND('',#1623,.T.);
#1623 = EDGE_LOOP('',(#1624));
#1624 = ORIENTED_EDGE('',*,*,#1595,.T.);
#1625 = ADVANCED_FACE('',(#1626),#1582,.F.);
#1626 = FACE_BOUND('',#1627,.F.);
#1627 = EDGE_LOOP('',(#1628));
#1628 = ORIENTED_EDGE('',*,*,#1567,.T.);
#1629 = ORIENTED_CLOSED_SHELL('',*,#1630,.F.);
#1630 = CLOSED_SHELL('',(#1631,#1719,#1723));
#1631 = ADVANCED_FACE('',(#1632),#1646,.T.);
#1632 = FACE_BOUND('',#1633,.T.);
#1633 = EDGE_LOOP('',(#1634,#1664,#1691,#1692));
#1634 = ORIENTED_EDGE('',*,*,#1635,.T.);
#1635 = EDGE_CURVE('',#1636,#1638,#1640,.T.);
#1636 = VERTEX_POINT('',#1637);
#1637 = CARTESIAN_POINT('',(42.39,0.,54.5));
#1638 = VERTEX_POINT('',#1639);
#1639 = CARTESIAN_POINT('',(42.39,0.,44.5));
#1640 = SEAM_CURVE('',#1641,(#1645,#1657),.PCURVE_S1.);
#1641 = LINE('',#1642,#1643);
#1642 = CARTESIAN_POINT('',(42.39,0.,54.5));
#1643 = VECTOR('',#1644,1.);
#1644 = DIRECTION('',(-0.,-0.,-1.));
#1645 = PCURVE('',#1646,#1651);
#1646 = CYLINDRICAL_SURFACE('',#1647,0.89);
#1647 = AXIS2_PLACEMENT_3D('',#1648,#1649,#1650);
#1648 = CARTESIAN_POINT('',(41.5,0.,54.5));
#1649 = DIRECTION('',(0.,0.,1.));
#1650 = DIRECTION('',(1.,0.,-0.));
#1651 = DEFINITIONAL_REPRESENTATION('',(#1652),#1656);
#1652 = LINE('',#1653,#1654);
#1653 = CARTESIAN_POINT('',(4.138911435803E-13,0.));
#1654 = VECTOR('',#1655,1.);
#1655 = DIRECTION('',(0.,-1.));
#1656 = ( GEOMETRIC_REPRESENTATION_CONTEXT(2) 
PARAMETRIC_REPRESENTATION_CONTEXT() REPRESENTATION_CONTEXT('2D SPACE',''
  ) );
#1657 = PCURVE('',#1646,#1658);
#1658 = DEFINITIONAL_REPRESENTATION('',(#1659),#1663);
#1659 = LINE('',#1660,#1661);
#1660 = CARTESIAN_POINT('',(6.28318530718,0.));
#1661 = VECTOR('',#1662,1.);
#1662 = DIRECTION('',(0.,-1.));
#1663 = ( GEOMETRIC_REPRESENTATION_CONTEXT(2) 
PARAMETRIC_REPRESENTATION_CONTEXT() REPRESENTATION_CONTEXT('2D SPACE',''
  ) );
#1664 = ORIENTED_EDGE('',*,*,#1665,.T.);
#1665 = EDGE_CURVE('',#1638,#1638,#1666,.T.);
#1666 = SURFACE_CURVE('',#1667,(#1672,#1679),.PCURVE_S1.);
#1667 = CIRCLE('',#1668,0.89);
#1668 = AXIS2_PLACEMENT_3D('',#1669,#1670,#1671);
#1669 = CARTESIAN_POINT('',(41.5,0.,44.5));
#1670 = DIRECTION('',(0.,0.,1.));
#1671 = DIRECTION('',(1.,0.,-0.));
#1672 = PCURVE('',#1646,#1673);
#1673 = DEFINITIONAL_REPRESENTATION('',(#1674),#1678);
#1674 = LINE('',#1675,#1676);
#1675 = CARTESIAN_POINT('',(0.,-10.));
#1676 = VECTOR('',#1677,1.);
#1677 = DIRECTION('',(1.,0.));
#1678 = ( GEOMETRIC_REPRESENTATION_CONTEXT(2) 
PARAMETRIC_REPRESENTATION_CONTEXT() REPRESENTATION_CONTEXT('2D SPACE',''
  ) );
#1679 = PCURVE('',#1680,#1685);
#1680 = PLANE('',#1681);
#1681 = AXIS2_PLACEMENT_3D('',#1682,#1683,#1684);
#1682 = CARTESIAN_POINT('',(41.5,1.168286122289E-17,44.5));
#1683 = DIRECTION('',(0.,0.,1.));
#1684 = DIRECTION('',(1.,0.,-0.));
#1685 = DEFINITIONAL_REPRESENTATION('',(#1686),#1690);
#1686 = CIRCLE('',#1687,0.89);
#1687 = AXIS2_PLACEMENT_2D('',#1688,#1689);
#1688 = CARTESIAN_POINT('',(0.,-1.168286122289E-17));
#1689 = DIRECTION('',(1.,0.));
#1690 = ( GEOMETRIC_REPRESENTATION_CONTEXT(2) 
PARAMETRIC_REPRESENTATION_CONTEXT() REPRESENTATION_CONTEXT('2D SPACE',''
  ) );
#1691 = ORIENTED_EDGE('',*,*,#1635,.F.);
#1692 = ORIENTED_EDGE('',*,*,#1693,.F.);
#1693 = EDGE_CURVE('',#1636,#1636,#1694,.T.);
#1694 = SURFACE_CURVE('',#1695,(#1700,#1707),.PCURVE_S1.);
#1695 = CIRCLE('',#1696,0.89);
#1696 = AXIS2_PLACEMENT_3D('',#1697,#1698,#1699);
#1697 = CARTESIAN_POINT('',(41.5,0.,54.5));
#1698 = DIRECTION('',(0.,0.,1.));
#1699 = DIRECTION('',(1.,0.,-0.));
#1700 = PCURVE('',#1646,#1701);
#1701 = DEFINITIONAL_REPRESENTATION('',(#1702),#1706);
#1702 = LINE('',#1703,#1704);
#1703 = CARTESIAN_POINT('',(0.,0.));
#1704 = VECTOR('',#1705,1.);
#1705 = DIRECTION('',(1.,0.));
#1706 = ( GEOMETRIC_REPRESENTATION_CONTEXT(2) 
PARAMETRIC_REPRESENTATION_CONTEXT() REPRESENTATION_CONTEXT('2D SPACE',''
  ) );
#1707 = PCURVE('',#1708,#1713);
#1708 = PLANE('',#1709);
#1709 = AXIS2_PLACEMENT_3D('',#1710,#1711,#1712);
#1710 = CARTESIAN_POINT('',(41.5,1.168286122289E-17,54.5));
#1711 = DIRECTION('',(0.,0.,1.));
#1712 = DIRECTION('',(1.,0.,-0.));
#1713 = DEFINITIONAL_REPRESENTATION('',(#1714),#1718);
#1714 = CIRCLE('',#1715,0.89);
#1715 = AXIS2_PLACEMENT_2D('',#1716,#1717);
#1716 = CARTESIAN_POINT('',(0.,-1.168286122289E-17));
#1717 = DIRECTION('',(1.,0.));
#1718 = ( GEOMETRIC_REPRESENTATION_CONTEXT(2) 
PARAMETRIC_REPRESENTATION_CONTEXT() REPRESENTATION_CONTEXT('2D SPACE',''
  ) );
#1719 = ADVANCED_FACE('',(#1720),#1708,.T.);
#1720 = FACE_BOUND('',#1721,.T.);
#1721 = EDGE_LOOP('',(#1722));
#1722 = ORIENTED_EDGE('',*,*,#1693,.T.);
#1723 = ADVANCED_FACE('',(#1724),#1680,.F.);
#1724 = FACE_BOUND('',#1725,.F.);
#1725 = EDGE_LOOP('',(#1726));
#1726 = ORIENTED_EDGE('',*,*,#1665,.T.);
#1727 = ( GEOMETRIC_REPRESENTATION_CONTEXT(3) 
GLOBAL_UNCERTAINTY_ASSIGNED_CONTEXT((#1731)) 
GLOBAL_UNIT_ASSIGNED_CONTEXT((#1728,#1729,#1730)) REPRESENTATION_CONTEXT
('Context #1','3D Context with UNIT and UNCERTAINTY') );
#1728 = ( LENGTH_UNIT() NAMED_UNIT(*) SI_UNIT(.MILLI.,.METRE.) );
#1729 = ( NAMED_UNIT(*) PLANE_ANGLE_UNIT() SI_UNIT($,.RADIAN.) );
#1730 = ( NAMED_UNIT(*) SI_UNIT($,.STERADIAN.) SOLID_ANGLE_UNIT() );
#1731 = UNCERTAINTY_MEASURE_WITH_UNIT(LENGTH_MEASURE(1.E-07),#1728,
  'distance_accuracy_value','confusion accuracy');
#1732 = CONTEXT_DEPENDENT_SHAPE_REPRESENTATION(#1733,#1735);
#1733 = ( REPRESENTATION_RELATIONSHIP('','',#562,#10) 
REPRESENTATION_RELATIONSHIP_WITH_TRANSFORMATION(#1734) 
SHAPE_REPRESENTATION_RELATIONSHIP() );
#1734 = ITEM_DEFINED_TRANSFORMATION('','',#11,#19);
#1735 = PRODUCT_DEFINITION_SHAPE('Placement','Placement of an item',
  #1736);
#1736 = NEXT_ASSEMBLY_USAGE_OCCURRENCE('2','','',#5,#557,$);
#1737 = PRODUCT_RELATED_PRODUCT_CATEGORY('part',$,(#559));
ENDSEC;
END-ISO-10303-21;
