ISO-10303-21;
HEADER;
FILE_DESCRIPTION(('Open CASCADE Model'),'2;1');
FILE_NAME('Open CASCADE Shape Model','2026-09-13T04:25:20',('Author'),(
    'Open CASCADE'),'Open CASCADE STEP processor 7.9','Open CASCADE 7.9'
  ,'Unknown');
FILE_SCHEMA(('AUTOMOTIVE_DESIGN { 1 0 10303 214 1 1 1 1 }'));
ENDSEC;
DATA;
#1 = APPLICATION_PROTOCOL_DEFINITION('international standard',
  'automotive_design',2000,#2);
#2 = APPLICATION_CONTEXT(
  'core data for automotive mechanical design processes');
#3 = SHAPE_DEFINITION_REPRESENTATION(#4,#10);
#4 = PRODUCT_DEFINITION_SHAPE('','',#5);
#5 = PRODUCT_DEFINITION('design','',#6,#9);
#6 = PRODUCT_DEFINITION_FORMATION('','',#7);
#7 = PRODUCT('Open CASCADE STEP translator 7.9 1',
  'Open CASCADE STEP translator 7.9 1','',(#8));
#8 = PRODUCT_CONTEXT('',#2,'mechanical');
#9 = PRODUCT_DEFINITION_CONTEXT('part definition',#2,'design');
#10 = ADVANCED_BREP_SHAPE_REPRESENTATION('',(#11,#15),#1387);
#11 = AXIS2_PLACEMENT_3D('',#12,#13,#14);
#12 = CARTESIAN_POINT('',(0.,0.,0.));
#13 = DIRECTION('',(0.,0.,1.));
#14 = DIRECTION('',(1.,0.,-0.));
#15 = MANIFOLD_SOLID_BREP('',#16);
#16 = CLOSED_SHELL('',(#17,#137,#210,#488,#536,#780,#1041,#1095,#1172,
    #1200,#1228,#1235,#1284,#1289,#1294,#1321,#1370,#1375,#1380));
#17 = ADVANCED_FACE('',(#18),#33,.T.);
#18 = FACE_BOUND('',#19,.T.);
#19 = EDGE_LOOP('',(#20,#56,#84,#113));
#20 = ORIENTED_EDGE('',*,*,#21,.T.);
#21 = EDGE_CURVE('',#22,#24,#26,.T.);
#22 = VERTEX_POINT('',#23);
#23 = CARTESIAN_POINT('',(-46.5,5.694607616035E-15,0.));
#24 = VERTEX_POINT('',#25);
#25 = CARTESIAN_POINT('',(46.5,0.,0.));
#26 = SURFACE_CURVE('',#27,(#32,#44),.PCURVE_S1.);
#27 = CIRCLE('',#28,46.5);
#28 = AXIS2_PLACEMENT_3D('',#29,#30,#31);
#29 = CARTESIAN_POINT('',(0.,0.,0.));
#30 = DIRECTION('',(0.,0.,1.));
#31 = DIRECTION('',(1.,0.,-0.));
#32 = PCURVE('',#33,#38);
#33 = CYLINDRICAL_SURFACE('',#34,46.5);
#34 = AXIS2_PLACEMENT_3D('',#35,#36,#37);
#35 = CARTESIAN_POINT('',(0.,0.,0.));
#36 = DIRECTION('',(-0.,-0.,-1.));
#37 = DIRECTION('',(1.,0.,0.));
#38 = DEFINITIONAL_REPRESENTATION('',(#39),#43);
#39 = LINE('',#40,#41);
#40 = CARTESIAN_POINT('',(6.28318530718,0.));
#41 = VECTOR('',#42,1.);
#42 = DIRECTION('',(-1.,0.));
#43 = ( GEOMETRIC_REPRESENTATION_CONTEXT(2) 
PARAMETRIC_REPRESENTATION_CONTEXT() REPRESENTATION_CONTEXT('2D SPACE',''
  ) );
#44 = PCURVE('',#45,#50);
#45 = PLANE('',#46);
#46 = AXIS2_PLACEMENT_3D('',#47,#48,#49);
#47 = CARTESIAN_POINT('',(-1.882068139409E-15,-1.61343992693E-17,0.));
#48 = DIRECTION('',(0.,0.,1.));
#49 = DIRECTION('',(1.,0.,-0.));
#50 = DEFINITIONAL_REPRESENTATION('',(#51),#55);
#51 = CIRCLE('',#52,46.5);
#52 = AXIS2_PLACEMENT_2D('',#53,#54);
#53 = CARTESIAN_POINT('',(1.882068139409E-15,1.61343992693E-17));
#54 = DIRECTION('',(1.,0.));
#55 = ( GEOMETRIC_REPRESENTATION_CONTEXT(2) 
PARAMETRIC_REPRESENTATION_CONTEXT() REPRESENTATION_CONTEXT('2D SPACE',''
  ) );
#56 = ORIENTED_EDGE('',*,*,#57,.T.);
#57 = EDGE_CURVE('',#24,#58,#60,.T.);
#58 = VERTEX_POINT('',#59);
#59 = CARTESIAN_POINT('',(46.5,0.,69.9));
#60 = SURFACE_CURVE('',#61,(#65,#72),.PCURVE_S1.);
#61 = LINE('',#62,#63);
#62 = CARTESIAN_POINT('',(46.5,0.,0.));
#63 = VECTOR('',#64,1.);
#64 = DIRECTION('',(0.,0.,1.));
#65 = PCURVE('',#33,#66);
#66 = DEFINITIONAL_REPRESENTATION('',(#67),#71);
#67 = LINE('',#68,#69);
#68 = CARTESIAN_POINT('',(-4.138911435803E-13,0.));
#69 = VECTOR('',#70,1.);
#70 = DIRECTION('',(-0.,-1.));
#71 = ( GEOMETRIC_REPRESENTATION_CONTEXT(2) 
PARAMETRIC_REPRESENTATION_CONTEXT() REPRESENTATION_CONTEXT('2D SPACE',''
  ) );
#72 = PCURVE('',#73,#78);
#73 = PLANE('',#74);
#74 = AXIS2_PLACEMENT_3D('',#75,#76,#77);
#75 = CARTESIAN_POINT('',(-300.,0.,-300.));
#76 = DIRECTION('',(0.,1.,0.));
#77 = DIRECTION('',(0.,0.,1.));
#78 = DEFINITIONAL_REPRESENTATION('',(#79),#83);
#79 = LINE('',#80,#81);
#80 = CARTESIAN_POINT('',(300.,346.5));
#81 = VECTOR('',#82,1.);
#82 = DIRECTION('',(1.,0.));
#83 = ( GEOMETRIC_REPRESENTATION_CONTEXT(2) 
PARAMETRIC_REPRESENTATION_CONTEXT() REPRESENTATION_CONTEXT('2D SPACE',''
  ) );
#84 = ORIENTED_EDGE('',*,*,#85,.F.);
#85 = EDGE_CURVE('',#86,#58,#88,.T.);
#86 = VERTEX_POINT('',#87);
#87 = CARTESIAN_POINT('',(-46.5,5.694607616035E-15,69.9));
#88 = SURFACE_CURVE('',#89,(#94,#101),.PCURVE_S1.);
#89 = CIRCLE('',#90,46.5);
#90 = AXIS2_PLACEMENT_3D('',#91,#92,#93);
#91 = CARTESIAN_POINT('',(0.,0.,69.9));
#92 = DIRECTION('',(0.,0.,1.));
#93 = DIRECTION('',(1.,0.,-0.));
#94 = PCURVE('',#33,#95);
#95 = DEFINITIONAL_REPRESENTATION('',(#96),#100);
#96 = LINE('',#97,#98);
#97 = CARTESIAN_POINT('',(6.28318530718,-69.9));
#98 = VECTOR('',#99,1.);
#99 = DIRECTION('',(-1.,0.));
#100 = ( GEOMETRIC_REPRESENTATION_CONTEXT(2) 
PARAMETRIC_REPRESENTATION_CONTEXT() REPRESENTATION_CONTEXT('2D SPACE',''
  ) );
#101 = PCURVE('',#102,#107);
#102 = PLANE('',#103);
#103 = AXIS2_PLACEMENT_3D('',#104,#105,#106);
#104 = CARTESIAN_POINT('',(-1.882068139409E-15,-1.61343992693E-17,69.9)
  );
#105 = DIRECTION('',(0.,0.,1.));
#106 = DIRECTION('',(1.,0.,-0.));
#107 = DEFINITIONAL_REPRESENTATION('',(#108),#112);
#108 = CIRCLE('',#109,46.5);
#109 = AXIS2_PLACEMENT_2D('',#110,#111);
#110 = CARTESIAN_POINT('',(1.882068139409E-15,1.61343992693E-17));
#111 = DIRECTION('',(1.,0.));
#112 = ( GEOMETRIC_REPRESENTATION_CONTEXT(2) 
PARAMETRIC_REPRESENTATION_CONTEXT() REPRESENTATION_CONTEXT('2D SPACE',''
  ) );
#113 = ORIENTED_EDGE('',*,*,#114,.T.);
#114 = EDGE_CURVE('',#86,#22,#115,.T.);
#115 = SURFACE_CURVE('',#116,(#120,#126),.PCURVE_S1.);
#116 = LINE('',#117,#118);
#117 = CARTESIAN_POINT('',(-46.5,0.,0.));
#118 = VECTOR('',#119,1.);
#119 = DIRECTION('',(-0.,-0.,-1.));
#120 = PCURVE('',#33,#121);
#121 = DEFINITIONAL_REPRESENTATION('',(#122),#125);
#122 = B_SPLINE_CURVE_WITH_KNOTS('',1,(#123,#124),.UNSPECIFIED.,.F.,.F.,
  (2,2),(-69.9000006,6.E-07),.PIECEWISE_BEZIER_KNOTS.);
#123 = CARTESIAN_POINT('',(3.14159265359,-69.9000006));
#124 = CARTESIAN_POINT('',(3.14159265359,6.E-07));
#125 = ( GEOMETRIC_REPRESENTATION_CONTEXT(2) 
PARAMETRIC_REPRESENTATION_CONTEXT() REPRESENTATION_CONTEXT('2D SPACE',''
  ) );
#126 = PCURVE('',#127,#132);
#127 = PLANE('',#128);
#128 = AXIS2_PLACEMENT_3D('',#129,#130,#131);
#129 = CARTESIAN_POINT('',(-300.,0.,-300.));
#130 = DIRECTION('',(0.,1.,0.));
#131 = DIRECTION('',(0.,0.,1.));
#132 = DEFINITIONAL_REPRESENTATION('',(#133),#136);
#133 = B_SPLINE_CURVE_WITH_KNOTS('',1,(#134,#135),.UNSPECIFIED.,.F.,.F.,
  (2,2),(-69.9000006,6.E-07),.PIECEWISE_BEZIER_KNOTS.);
#134 = CARTESIAN_POINT('',(369.9000006,253.5));
#135 = CARTESIAN_POINT('',(299.9999994,253.5));
#136 = ( GEOMETRIC_REPRESENTATION_CONTEXT(2) 
PARAMETRIC_REPRESENTATION_CONTEXT() REPRESENTATION_CONTEXT('2D SPACE',''
  ) );
#137 = ADVANCED_FACE('',(#138),#45,.F.);
#138 = FACE_BOUND('',#139,.F.);
#139 = EDGE_LOOP('',(#140,#141,#162,#191));
#140 = ORIENTED_EDGE('',*,*,#21,.T.);
#141 = ORIENTED_EDGE('',*,*,#142,.T.);
#142 = EDGE_CURVE('',#24,#143,#145,.T.);
#143 = VERTEX_POINT('',#144);
#144 = CARTESIAN_POINT('',(37.8,0.,0.));
#145 = SURFACE_CURVE('',#146,(#150,#156),.PCURVE_S1.);
#146 = LINE('',#147,#148);
#147 = CARTESIAN_POINT('',(-150.,0.,0.));
#148 = VECTOR('',#149,1.);
#149 = DIRECTION('',(-1.,0.,0.));
#150 = PCURVE('',#45,#151);
#151 = DEFINITIONAL_REPRESENTATION('',(#152),#155);
#152 = B_SPLINE_CURVE_WITH_KNOTS('',1,(#153,#154),.UNSPECIFIED.,.F.,.F.,
  (2,2),(-196.5,-103.5),.PIECEWISE_BEZIER_KNOTS.);
#153 = CARTESIAN_POINT('',(46.5,1.61343992693E-17));
#154 = CARTESIAN_POINT('',(-46.5,1.61343992693E-17));
#155 = ( GEOMETRIC_REPRESENTATION_CONTEXT(2) 
PARAMETRIC_REPRESENTATION_CONTEXT() REPRESENTATION_CONTEXT('2D SPACE',''
  ) );
#156 = PCURVE('',#73,#157);
#157 = DEFINITIONAL_REPRESENTATION('',(#158),#161);
#158 = B_SPLINE_CURVE_WITH_KNOTS('',1,(#159,#160),.UNSPECIFIED.,.F.,.F.,
  (2,2),(-196.5,-103.5),.PIECEWISE_BEZIER_KNOTS.);
#159 = CARTESIAN_POINT('',(300.,346.5));
#160 = CARTESIAN_POINT('',(300.,253.5));
#161 = ( GEOMETRIC_REPRESENTATION_CONTEXT(2) 
PARAMETRIC_REPRESENTATION_CONTEXT() REPRESENTATION_CONTEXT('2D SPACE',''
  ) );
#162 = ORIENTED_EDGE('',*,*,#163,.F.);
#163 = EDGE_CURVE('',#164,#143,#166,.T.);
#164 = VERTEX_POINT('',#165);
#165 = CARTESIAN_POINT('',(-37.8,4.629164900777E-15,0.));
#166 = SURFACE_CURVE('',#167,(#172,#179),.PCURVE_S1.);
#167 = CIRCLE('',#168,37.8);
#168 = AXIS2_PLACEMENT_3D('',#169,#170,#171);
#169 = CARTESIAN_POINT('',(0.,0.,0.));
#170 = DIRECTION('',(0.,0.,1.));
#171 = DIRECTION('',(1.,0.,-0.));
#172 = PCURVE('',#45,#173);
#173 = DEFINITIONAL_REPRESENTATION('',(#174),#178);
#174 = CIRCLE('',#175,37.8);
#175 = AXIS2_PLACEMENT_2D('',#176,#177);
#176 = CARTESIAN_POINT('',(1.882068139409E-15,1.61343992693E-17));
#177 = DIRECTION('',(1.,0.));
#178 = ( GEOMETRIC_REPRESENTATION_CONTEXT(2) 
PARAMETRIC_REPRESENTATION_CONTEXT() REPRESENTATION_CONTEXT('2D SPACE',''
  ) );
#179 = PCURVE('',#180,#185);
#180 = CONICAL_SURFACE('',#181,37.8,1.055647906843);
#181 = AXIS2_PLACEMENT_3D('',#182,#183,#184);
#182 = CARTESIAN_POINT('',(0.,0.,0.));
#183 = DIRECTION('',(-0.,-0.,-1.));
#184 = DIRECTION('',(1.,0.,-0.));
#185 = DEFINITIONAL_REPRESENTATION('',(#186),#190);
#186 = LINE('',#187,#188);
#187 = CARTESIAN_POINT('',(6.28318530718,0.));
#188 = VECTOR('',#189,1.);
#189 = DIRECTION('',(-1.,0.));
#190 = ( GEOMETRIC_REPRESENTATION_CONTEXT(2) 
PARAMETRIC_REPRESENTATION_CONTEXT() REPRESENTATION_CONTEXT('2D SPACE',''
  ) );
#191 = ORIENTED_EDGE('',*,*,#192,.T.);
#192 = EDGE_CURVE('',#164,#22,#193,.T.);
#193 = SURFACE_CURVE('',#194,(#198,#204),.PCURVE_S1.);
#194 = LINE('',#195,#196);
#195 = CARTESIAN_POINT('',(-150.,0.,0.));
#196 = VECTOR('',#197,1.);
#197 = DIRECTION('',(-1.,0.,0.));
#198 = PCURVE('',#45,#199);
#199 = DEFINITIONAL_REPRESENTATION('',(#200),#203);
#200 = B_SPLINE_CURVE_WITH_KNOTS('',1,(#201,#202),.UNSPECIFIED.,.F.,.F.,
  (2,2),(-196.5,-103.5),.PIECEWISE_BEZIER_KNOTS.);
#201 = CARTESIAN_POINT('',(46.5,1.61343992693E-17));
#202 = CARTESIAN_POINT('',(-46.5,1.61343992693E-17));
#203 = ( GEOMETRIC_REPRESENTATION_CONTEXT(2) 
PARAMETRIC_REPRESENTATION_CONTEXT() REPRESENTATION_CONTEXT('2D SPACE',''
  ) );
#204 = PCURVE('',#127,#205);
#205 = DEFINITIONAL_REPRESENTATION('',(#206),#209);
#206 = B_SPLINE_CURVE_WITH_KNOTS('',1,(#207,#208),.UNSPECIFIED.,.F.,.F.,
  (2,2),(-196.5,-103.5),.PIECEWISE_BEZIER_KNOTS.);
#207 = CARTESIAN_POINT('',(300.,346.5));
#208 = CARTESIAN_POINT('',(300.,253.5));
#209 = ( GEOMETRIC_REPRESENTATION_CONTEXT(2) 
PARAMETRIC_REPRESENTATION_CONTEXT() REPRESENTATION_CONTEXT('2D SPACE',''
  ) );
#210 = ADVANCED_FACE('',(#211,#385),#127,.T.);
#211 = FACE_BOUND('',#212,.T.);
#212 = EDGE_LOOP('',(#213,#214,#235,#261,#287,#313,#339,#365,#384));
#213 = ORIENTED_EDGE('',*,*,#114,.F.);
#214 = ORIENTED_EDGE('',*,*,#215,.F.);
#215 = EDGE_CURVE('',#216,#86,#218,.T.);
#216 = VERTEX_POINT('',#217);
#217 = CARTESIAN_POINT('',(-44.75,5.480294426184E-15,69.9));
#218 = SURFACE_CURVE('',#219,(#223,#229),.PCURVE_S1.);
#219 = LINE('',#220,#221);
#220 = CARTESIAN_POINT('',(-150.,0.,69.9));
#221 = VECTOR('',#222,1.);
#222 = DIRECTION('',(-1.,0.,0.));
#223 = PCURVE('',#127,#224);
#224 = DEFINITIONAL_REPRESENTATION('',(#225),#228);
#225 = B_SPLINE_CURVE_WITH_KNOTS('',1,(#226,#227),.UNSPECIFIED.,.F.,.F.,
  (2,2),(-196.5,-103.5),.PIECEWISE_BEZIER_KNOTS.);
#226 = CARTESIAN_POINT('',(369.9,346.5));
#227 = CARTESIAN_POINT('',(369.9,253.5));
#228 = ( GEOMETRIC_REPRESENTATION_CONTEXT(2) 
PARAMETRIC_REPRESENTATION_CONTEXT() REPRESENTATION_CONTEXT('2D SPACE',''
  ) );
#229 = PCURVE('',#102,#230);
#230 = DEFINITIONAL_REPRESENTATION('',(#231),#234);
#231 = B_SPLINE_CURVE_WITH_KNOTS('',1,(#232,#233),.UNSPECIFIED.,.F.,.F.,
  (2,2),(-196.5,-103.5),.PIECEWISE_BEZIER_KNOTS.);
#232 = CARTESIAN_POINT('',(46.5,1.61343992693E-17));
#233 = CARTESIAN_POINT('',(-46.5,1.61343992693E-17));
#234 = ( GEOMETRIC_REPRESENTATION_CONTEXT(2) 
PARAMETRIC_REPRESENTATION_CONTEXT() REPRESENTATION_CONTEXT('2D SPACE',''
  ) );
#235 = ORIENTED_EDGE('',*,*,#236,.F.);
#236 = EDGE_CURVE('',#237,#216,#239,.T.);
#237 = VERTEX_POINT('',#238);
#238 = CARTESIAN_POINT('',(-44.75,5.480294426184E-15,80.7));
#239 = SURFACE_CURVE('',#240,(#244,#250),.PCURVE_S1.);
#240 = LINE('',#241,#242);
#241 = CARTESIAN_POINT('',(-44.75,0.,69.9));
#242 = VECTOR('',#243,1.);
#243 = DIRECTION('',(-0.,-0.,-1.));
#244 = PCURVE('',#127,#245);
#245 = DEFINITIONAL_REPRESENTATION('',(#246),#249);
#246 = B_SPLINE_CURVE_WITH_KNOTS('',1,(#247,#248),.UNSPECIFIED.,.F.,.F.,
  (2,2),(-10.8000006,6.000000070117E-07),.PIECEWISE_BEZIER_KNOTS.);
#247 = CARTESIAN_POINT('',(380.7000006,255.25));
#248 = CARTESIAN_POINT('',(369.8999994,255.25));
#249 = ( GEOMETRIC_REPRESENTATION_CONTEXT(2) 
PARAMETRIC_REPRESENTATION_CONTEXT() REPRESENTATION_CONTEXT('2D SPACE',''
  ) );
#250 = PCURVE('',#251,#256);
#251 = CYLINDRICAL_SURFACE('',#252,44.75);
#252 = AXIS2_PLACEMENT_3D('',#253,#254,#255);
#253 = CARTESIAN_POINT('',(0.,0.,69.9));
#254 = DIRECTION('',(-0.,-0.,-1.));
#255 = DIRECTION('',(1.,0.,0.));
#256 = DEFINITIONAL_REPRESENTATION('',(#257),#260);
#257 = B_SPLINE_CURVE_WITH_KNOTS('',1,(#258,#259),.UNSPECIFIED.,.F.,.F.,
  (2,2),(-10.8000006,6.000000070117E-07),.PIECEWISE_BEZIER_KNOTS.);
#258 = CARTESIAN_POINT('',(3.14159265359,-10.8000006));
#259 = CARTESIAN_POINT('',(3.14159265359,6.000000070117E-07));
#260 = ( GEOMETRIC_REPRESENTATION_CONTEXT(2) 
PARAMETRIC_REPRESENTATION_CONTEXT() REPRESENTATION_CONTEXT('2D SPACE',''
  ) );
#261 = ORIENTED_EDGE('',*,*,#262,.F.);
#262 = EDGE_CURVE('',#263,#237,#265,.T.);
#263 = VERTEX_POINT('',#264);
#264 = CARTESIAN_POINT('',(-39.75,4.867971026611E-15,80.7));
#265 = SURFACE_CURVE('',#266,(#270,#276),.PCURVE_S1.);
#266 = LINE('',#267,#268);
#267 = CARTESIAN_POINT('',(-150.,0.,80.7));
#268 = VECTOR('',#269,1.);
#269 = DIRECTION('',(-1.,0.,0.));
#270 = PCURVE('',#127,#271);
#271 = DEFINITIONAL_REPRESENTATION('',(#272),#275);
#272 = B_SPLINE_CURVE_WITH_KNOTS('',1,(#273,#274),.UNSPECIFIED.,.F.,.F.,
  (2,2),(-194.75,-105.25),.PIECEWISE_BEZIER_KNOTS.);
#273 = CARTESIAN_POINT('',(380.7,344.75));
#274 = CARTESIAN_POINT('',(380.7,255.25));
#275 = ( GEOMETRIC_REPRESENTATION_CONTEXT(2) 
PARAMETRIC_REPRESENTATION_CONTEXT() REPRESENTATION_CONTEXT('2D SPACE',''
  ) );
#276 = PCURVE('',#277,#282);
#277 = PLANE('',#278);
#278 = AXIS2_PLACEMENT_3D('',#279,#280,#281);
#279 = CARTESIAN_POINT('',(-2.933502854163E-15,4.040240899597E-15,80.7)
  );
#280 = DIRECTION('',(0.,0.,1.));
#281 = DIRECTION('',(1.,0.,-0.));
#282 = DEFINITIONAL_REPRESENTATION('',(#283),#286);
#283 = B_SPLINE_CURVE_WITH_KNOTS('',1,(#284,#285),.UNSPECIFIED.,.F.,.F.,
  (2,2),(-194.75,-105.25),.PIECEWISE_BEZIER_KNOTS.);
#284 = CARTESIAN_POINT('',(44.75,-4.040240899597E-15));
#285 = CARTESIAN_POINT('',(-44.75,-4.040240899597E-15));
#286 = ( GEOMETRIC_REPRESENTATION_CONTEXT(2) 
PARAMETRIC_REPRESENTATION_CONTEXT() REPRESENTATION_CONTEXT('2D SPACE',''
  ) );
#287 = ORIENTED_EDGE('',*,*,#288,.F.);
#288 = EDGE_CURVE('',#289,#263,#291,.T.);
#289 = VERTEX_POINT('',#290);
#290 = CARTESIAN_POINT('',(-39.75,4.867971026611E-15,109.));
#291 = SURFACE_CURVE('',#292,(#296,#302),.PCURVE_S1.);
#292 = LINE('',#293,#294);
#293 = CARTESIAN_POINT('',(-39.75,0.,80.7));
#294 = VECTOR('',#295,1.);
#295 = DIRECTION('',(-0.,-0.,-1.));
#296 = PCURVE('',#127,#297);
#297 = DEFINITIONAL_REPRESENTATION('',(#298),#301);
#298 = B_SPLINE_CURVE_WITH_KNOTS('',1,(#299,#300),.UNSPECIFIED.,.F.,.F.,
  (2,2),(-28.3000006,6.000000070117E-07),.PIECEWISE_BEZIER_KNOTS.);
#299 = CARTESIAN_POINT('',(409.0000006,260.25));
#300 = CARTESIAN_POINT('',(380.6999994,260.25));
#301 = ( GEOMETRIC_REPRESENTATION_CONTEXT(2) 
PARAMETRIC_REPRESENTATION_CONTEXT() REPRESENTATION_CONTEXT('2D SPACE',''
  ) );
#302 = PCURVE('',#303,#308);
#303 = CYLINDRICAL_SURFACE('',#304,39.75);
#304 = AXIS2_PLACEMENT_3D('',#305,#306,#307);
#305 = CARTESIAN_POINT('',(0.,0.,80.7));
#306 = DIRECTION('',(-0.,-0.,-1.));
#307 = DIRECTION('',(1.,0.,0.));
#308 = DEFINITIONAL_REPRESENTATION('',(#309),#312);
#309 = B_SPLINE_CURVE_WITH_KNOTS('',1,(#310,#311),.UNSPECIFIED.,.F.,.F.,
  (2,2),(-28.3000006,6.000000070117E-07),.PIECEWISE_BEZIER_KNOTS.);
#310 = CARTESIAN_POINT('',(3.14159265359,-28.3000006));
#311 = CARTESIAN_POINT('',(3.14159265359,6.000000070117E-07));
#312 = ( GEOMETRIC_REPRESENTATION_CONTEXT(2) 
PARAMETRIC_REPRESENTATION_CONTEXT() REPRESENTATION_CONTEXT('2D SPACE',''
  ) );
#313 = ORIENTED_EDGE('',*,*,#314,.F.);
#314 = EDGE_CURVE('',#315,#289,#317,.T.);
#315 = VERTEX_POINT('',#316);
#316 = CARTESIAN_POINT('',(-37.5,-4.592425496803E-17,109.));
#317 = SURFACE_CURVE('',#318,(#322,#328),.PCURVE_S1.);
#318 = LINE('',#319,#320);
#319 = CARTESIAN_POINT('',(-150.,0.,109.));
#320 = VECTOR('',#321,1.);
#321 = DIRECTION('',(-1.,0.,0.));
#322 = PCURVE('',#127,#323);
#323 = DEFINITIONAL_REPRESENTATION('',(#324),#327);
#324 = B_SPLINE_CURVE_WITH_KNOTS('',1,(#325,#326),.UNSPECIFIED.,.F.,.F.,
  (2,2),(-189.75,-110.25),.PIECEWISE_BEZIER_KNOTS.);
#325 = CARTESIAN_POINT('',(409.,339.75));
#326 = CARTESIAN_POINT('',(409.,260.25));
#327 = ( GEOMETRIC_REPRESENTATION_CONTEXT(2) 
PARAMETRIC_REPRESENTATION_CONTEXT() REPRESENTATION_CONTEXT('2D SPACE',''
  ) );
#328 = PCURVE('',#329,#334);
#329 = PLANE('',#330);
#330 = AXIS2_PLACEMENT_3D('',#331,#332,#333);
#331 = CARTESIAN_POINT('',(-4.403329231825E-15,5.790076070423E-16,109.)
  );
#332 = DIRECTION('',(0.,0.,1.));
#333 = DIRECTION('',(1.,0.,-0.));
#334 = DEFINITIONAL_REPRESENTATION('',(#335),#338);
#335 = B_SPLINE_CURVE_WITH_KNOTS('',1,(#336,#337),.UNSPECIFIED.,.F.,.F.,
  (2,2),(-189.75,-110.25),.PIECEWISE_BEZIER_KNOTS.);
#336 = CARTESIAN_POINT('',(39.75,-5.790076070423E-16));
#337 = CARTESIAN_POINT('',(-39.75,-5.790076070423E-16));
#338 = ( GEOMETRIC_REPRESENTATION_CONTEXT(2) 
PARAMETRIC_REPRESENTATION_CONTEXT() REPRESENTATION_CONTEXT('2D SPACE',''
  ) );
#339 = ORIENTED_EDGE('',*,*,#340,.T.);
#340 = EDGE_CURVE('',#315,#341,#343,.T.);
#341 = VERTEX_POINT('',#342);
#342 = CARTESIAN_POINT('',(-37.49999999999,-3.309527131512E-17,
    0.169841269842));
#343 = SURFACE_CURVE('',#344,(#348,#354),.PCURVE_S1.);
#344 = LINE('',#345,#346);
#345 = CARTESIAN_POINT('',(-37.5,0.,0.));
#346 = VECTOR('',#347,1.);
#347 = DIRECTION('',(0.,-0.,-1.));
#348 = PCURVE('',#127,#349);
#349 = DEFINITIONAL_REPRESENTATION('',(#350),#353);
#350 = B_SPLINE_CURVE_WITH_KNOTS('',1,(#351,#352),.UNSPECIFIED.,.F.,.F.,
  (2,2),(-109.0000006,-0.169786662562),.PIECEWISE_BEZIER_KNOTS.);
#351 = CARTESIAN_POINT('',(409.0000006,262.5));
#352 = CARTESIAN_POINT('',(300.16978666256,262.5));
#353 = ( GEOMETRIC_REPRESENTATION_CONTEXT(2) 
PARAMETRIC_REPRESENTATION_CONTEXT() REPRESENTATION_CONTEXT('2D SPACE',''
  ) );
#354 = PCURVE('',#355,#360);
#355 = CYLINDRICAL_SURFACE('',#356,0.75);
#356 = AXIS2_PLACEMENT_3D('',#357,#358,#359);
#357 = CARTESIAN_POINT('',(-36.75,0.,0.));
#358 = DIRECTION('',(0.,-0.,-1.));
#359 = DIRECTION('',(0.,-1.,0.));
#360 = DEFINITIONAL_REPRESENTATION('',(#361),#364);
#361 = B_SPLINE_CURVE_WITH_KNOTS('',1,(#362,#363),.UNSPECIFIED.,.F.,.F.,
  (2,2),(-109.0000006,-0.169786662562),.PIECEWISE_BEZIER_KNOTS.);
#362 = CARTESIAN_POINT('',(1.570796326795,-109.0000006));
#363 = CARTESIAN_POINT('',(1.570796326795,-0.169786662562));
#364 = ( GEOMETRIC_REPRESENTATION_CONTEXT(2) 
PARAMETRIC_REPRESENTATION_CONTEXT() REPRESENTATION_CONTEXT('2D SPACE',''
  ) );
#365 = ORIENTED_EDGE('',*,*,#366,.T.);
#366 = EDGE_CURVE('',#341,#164,#367,.T.);
#367 = SURFACE_CURVE('',#368,(#372,#378),.PCURVE_S1.);
#368 = LINE('',#369,#370);
#369 = CARTESIAN_POINT('',(0.,0.,21.399999999993));
#370 = VECTOR('',#371,1.);
#371 = DIRECTION('',(-0.870219610714,0.,-0.492664012415));
#372 = PCURVE('',#127,#373);
#373 = DEFINITIONAL_REPRESENTATION('',(#374),#377);
#374 = B_SPLINE_CURVE_WITH_KNOTS('',1,(#375,#376),.UNSPECIFIED.,.F.,.F.,
  (2,2),(0.858179220055,43.437311150665),.PIECEWISE_BEZIER_KNOTS.);
#375 = CARTESIAN_POINT('',(320.97720598207,299.2531956132));
#376 = CARTESIAN_POINT('',(300.,262.2));
#377 = ( GEOMETRIC_REPRESENTATION_CONTEXT(2) 
PARAMETRIC_REPRESENTATION_CONTEXT() REPRESENTATION_CONTEXT('2D SPACE',''
  ) );
#378 = PCURVE('',#180,#379);
#379 = DEFINITIONAL_REPRESENTATION('',(#380),#383);
#380 = B_SPLINE_CURVE_WITH_KNOTS('',1,(#381,#382),.UNSPECIFIED.,.F.,.F.,
  (2,2),(0.858179220055,43.437311150665),.PIECEWISE_BEZIER_KNOTS.);
#381 = CARTESIAN_POINT('',(3.14159265359,-20.97720598207));
#382 = CARTESIAN_POINT('',(3.14159265359,-3.500588351917E-15));
#383 = ( GEOMETRIC_REPRESENTATION_CONTEXT(2) 
PARAMETRIC_REPRESENTATION_CONTEXT() REPRESENTATION_CONTEXT('2D SPACE',''
  ) );
#384 = ORIENTED_EDGE('',*,*,#192,.T.);
#385 = FACE_BOUND('',#386,.T.);
#386 = EDGE_LOOP('',(#387,#417,#443,#464));
#387 = ORIENTED_EDGE('',*,*,#388,.F.);
#388 = EDGE_CURVE('',#389,#391,#393,.T.);
#389 = VERTEX_POINT('',#390);
#390 = CARTESIAN_POINT('',(-40.61,0.,54.5));
#391 = VERTEX_POINT('',#392);
#392 = CARTESIAN_POINT('',(-40.61,0.,44.5));
#393 = SURFACE_CURVE('',#394,(#398,#405),.PCURVE_S1.);
#394 = LINE('',#395,#396);
#395 = CARTESIAN_POINT('',(-40.61,0.,54.5));
#396 = VECTOR('',#397,1.);
#397 = DIRECTION('',(-0.,-0.,-1.));
#398 = PCURVE('',#127,#399);
#399 = DEFINITIONAL_REPRESENTATION('',(#400),#404);
#400 = LINE('',#401,#402);
#401 = CARTESIAN_POINT('',(354.5,259.39));
#402 = VECTOR('',#403,1.);
#403 = DIRECTION('',(-1.,0.));
#404 = ( GEOMETRIC_REPRESENTATION_CONTEXT(2) 
PARAMETRIC_REPRESENTATION_CONTEXT() REPRESENTATION_CONTEXT('2D SPACE',''
  ) );
#405 = PCURVE('',#406,#411);
#406 = CYLINDRICAL_SURFACE('',#407,0.89);
#407 = AXIS2_PLACEMENT_3D('',#408,#409,#410);
#408 = CARTESIAN_POINT('',(-41.5,0.,54.5));
#409 = DIRECTION('',(0.,0.,1.));
#410 = DIRECTION('',(1.,0.,-0.));
#411 = DEFINITIONAL_REPRESENTATION('',(#412),#416);
#412 = LINE('',#413,#414);
#413 = CARTESIAN_POINT('',(6.28318530718,0.));
#414 = VECTOR('',#415,1.);
#415 = DIRECTION('',(0.,-1.));
#416 = ( GEOMETRIC_REPRESENTATION_CONTEXT(2) 
PARAMETRIC_REPRESENTATION_CONTEXT() REPRESENTATION_CONTEXT('2D SPACE',''
  ) );
#417 = ORIENTED_EDGE('',*,*,#418,.T.);
#418 = EDGE_CURVE('',#389,#419,#421,.T.);
#419 = VERTEX_POINT('',#420);
#420 = CARTESIAN_POINT('',(-42.39,1.089935651241E-16,54.5));
#421 = SURFACE_CURVE('',#422,(#426,#432),.PCURVE_S1.);
#422 = LINE('',#423,#424);
#423 = CARTESIAN_POINT('',(-170.75,0.,54.5));
#424 = VECTOR('',#425,1.);
#425 = DIRECTION('',(-1.,0.,0.));
#426 = PCURVE('',#127,#427);
#427 = DEFINITIONAL_REPRESENTATION('',(#428),#431);
#428 = B_SPLINE_CURVE_WITH_KNOTS('',1,(#429,#430),.UNSPECIFIED.,.F.,.F.,
  (2,2),(-130.14,-128.36),.PIECEWISE_BEZIER_KNOTS.);
#429 = CARTESIAN_POINT('',(354.5,259.39));
#430 = CARTESIAN_POINT('',(354.5,257.61));
#431 = ( GEOMETRIC_REPRESENTATION_CONTEXT(2) 
PARAMETRIC_REPRESENTATION_CONTEXT() REPRESENTATION_CONTEXT('2D SPACE',''
  ) );
#432 = PCURVE('',#433,#438);
#433 = PLANE('',#434);
#434 = AXIS2_PLACEMENT_3D('',#435,#436,#437);
#435 = CARTESIAN_POINT('',(-41.5,1.168286122289E-17,54.5));
#436 = DIRECTION('',(0.,0.,1.));
#437 = DIRECTION('',(1.,0.,-0.));
#438 = DEFINITIONAL_REPRESENTATION('',(#439),#442);
#439 = B_SPLINE_CURVE_WITH_KNOTS('',1,(#440,#441),.UNSPECIFIED.,.F.,.F.,
  (2,2),(-130.14,-128.36),.PIECEWISE_BEZIER_KNOTS.);
#440 = CARTESIAN_POINT('',(0.89,-1.168286122289E-17));
#441 = CARTESIAN_POINT('',(-0.89,-1.168286122289E-17));
#442 = ( GEOMETRIC_REPRESENTATION_CONTEXT(2) 
PARAMETRIC_REPRESENTATION_CONTEXT() REPRESENTATION_CONTEXT('2D SPACE',''
  ) );
#443 = ORIENTED_EDGE('',*,*,#444,.F.);
#444 = EDGE_CURVE('',#445,#419,#447,.T.);
#445 = VERTEX_POINT('',#446);
#446 = CARTESIAN_POINT('',(-42.39,1.089935651241E-16,44.5));
#447 = SURFACE_CURVE('',#448,(#452,#458),.PCURVE_S1.);
#448 = LINE('',#449,#450);
#449 = CARTESIAN_POINT('',(-42.39,0.,54.5));
#450 = VECTOR('',#451,1.);
#451 = DIRECTION('',(0.,0.,1.));
#452 = PCURVE('',#127,#453);
#453 = DEFINITIONAL_REPRESENTATION('',(#454),#457);
#454 = B_SPLINE_CURVE_WITH_KNOTS('',1,(#455,#456),.UNSPECIFIED.,.F.,.F.,
  (2,2),(-10.0000006,5.999999999062E-07),.PIECEWISE_BEZIER_KNOTS.);
#455 = CARTESIAN_POINT('',(344.4999994,257.61));
#456 = CARTESIAN_POINT('',(354.5000006,257.61));
#457 = ( GEOMETRIC_REPRESENTATION_CONTEXT(2) 
PARAMETRIC_REPRESENTATION_CONTEXT() REPRESENTATION_CONTEXT('2D SPACE',''
  ) );
#458 = PCURVE('',#406,#459);
#459 = DEFINITIONAL_REPRESENTATION('',(#460),#463);
#460 = B_SPLINE_CURVE_WITH_KNOTS('',1,(#461,#462),.UNSPECIFIED.,.F.,.F.,
  (2,2),(-10.0000006,5.999999999062E-07),.PIECEWISE_BEZIER_KNOTS.);
#461 = CARTESIAN_POINT('',(3.14159265359,-10.0000006));
#462 = CARTESIAN_POINT('',(3.14159265359,5.999999999062E-07));
#463 = ( GEOMETRIC_REPRESENTATION_CONTEXT(2) 
PARAMETRIC_REPRESENTATION_CONTEXT() REPRESENTATION_CONTEXT('2D SPACE',''
  ) );
#464 = ORIENTED_EDGE('',*,*,#465,.F.);
#465 = EDGE_CURVE('',#391,#445,#466,.T.);
#466 = SURFACE_CURVE('',#467,(#471,#477),.PCURVE_S1.);
#467 = LINE('',#468,#469);
#468 = CARTESIAN_POINT('',(-170.75,0.,44.5));
#469 = VECTOR('',#470,1.);
#470 = DIRECTION('',(-1.,0.,0.));
#471 = PCURVE('',#127,#472);
#472 = DEFINITIONAL_REPRESENTATION('',(#473),#476);
#473 = B_SPLINE_CURVE_WITH_KNOTS('',1,(#474,#475),.UNSPECIFIED.,.F.,.F.,
  (2,2),(-130.14,-128.36),.PIECEWISE_BEZIER_KNOTS.);
#474 = CARTESIAN_POINT('',(344.5,259.39));
#475 = CARTESIAN_POINT('',(344.5,257.61));
#476 = ( GEOMETRIC_REPRESENTATION_CONTEXT(2) 
PARAMETRIC_REPRESENTATION_CONTEXT() REPRESENTATION_CONTEXT('2D SPACE',''
  ) );
#477 = PCURVE('',#478,#483);
#478 = PLANE('',#479);
#479 = AXIS2_PLACEMENT_3D('',#480,#481,#482);
#480 = CARTESIAN_POINT('',(-41.5,1.168286122289E-17,44.5));
#481 = DIRECTION('',(0.,0.,1.));
#482 = DIRECTION('',(1.,0.,-0.));
#483 = DEFINITIONAL_REPRESENTATION('',(#484),#487);
#484 = B_SPLINE_CURVE_WITH_KNOTS('',1,(#485,#486),.UNSPECIFIED.,.F.,.F.,
  (2,2),(-130.14,-128.36),.PIECEWISE_BEZIER_KNOTS.);
#485 = CARTESIAN_POINT('',(0.89,-1.168286122289E-17));
#486 = CARTESIAN_POINT('',(-0.89,-1.168286122289E-17));
#487 = ( GEOMETRIC_REPRESENTATION_CONTEXT(2) 
PARAMETRIC_REPRESENTATION_CONTEXT() REPRESENTATION_CONTEXT('2D SPACE',''
  ) );
#488 = ADVANCED_FACE('',(#489),#102,.T.);
#489 = FACE_BOUND('',#490,.T.);
#490 = EDGE_LOOP('',(#491,#492,#513,#535));
#491 = ORIENTED_EDGE('',*,*,#85,.T.);
#492 = ORIENTED_EDGE('',*,*,#493,.T.);
#493 = EDGE_CURVE('',#58,#494,#496,.T.);
#494 = VERTEX_POINT('',#495);
#495 = CARTESIAN_POINT('',(44.75,0.,69.9));
#496 = SURFACE_CURVE('',#497,(#501,#507),.PCURVE_S1.);
#497 = LINE('',#498,#499);
#498 = CARTESIAN_POINT('',(-150.,0.,69.9));
#499 = VECTOR('',#500,1.);
#500 = DIRECTION('',(-1.,0.,0.));
#501 = PCURVE('',#102,#502);
#502 = DEFINITIONAL_REPRESENTATION('',(#503),#506);
#503 = B_SPLINE_CURVE_WITH_KNOTS('',1,(#504,#505),.UNSPECIFIED.,.F.,.F.,
  (2,2),(-196.5,-103.5),.PIECEWISE_BEZIER_KNOTS.);
#504 = CARTESIAN_POINT('',(46.5,1.61343992693E-17));
#505 = CARTESIAN_POINT('',(-46.5,1.61343992693E-17));
#506 = ( GEOMETRIC_REPRESENTATION_CONTEXT(2) 
PARAMETRIC_REPRESENTATION_CONTEXT() REPRESENTATION_CONTEXT('2D SPACE',''
  ) );
#507 = PCURVE('',#73,#508);
#508 = DEFINITIONAL_REPRESENTATION('',(#509),#512);
#509 = B_SPLINE_CURVE_WITH_KNOTS('',1,(#510,#511),.UNSPECIFIED.,.F.,.F.,
  (2,2),(-196.5,-103.5),.PIECEWISE_BEZIER_KNOTS.);
#510 = CARTESIAN_POINT('',(369.9,346.5));
#511 = CARTESIAN_POINT('',(369.9,253.5));
#512 = ( GEOMETRIC_REPRESENTATION_CONTEXT(2) 
PARAMETRIC_REPRESENTATION_CONTEXT() REPRESENTATION_CONTEXT('2D SPACE',''
  ) );
#513 = ORIENTED_EDGE('',*,*,#514,.F.);
#514 = EDGE_CURVE('',#216,#494,#515,.T.);
#515 = SURFACE_CURVE('',#516,(#521,#528),.PCURVE_S1.);
#516 = CIRCLE('',#517,44.75);
#517 = AXIS2_PLACEMENT_3D('',#518,#519,#520);
#518 = CARTESIAN_POINT('',(0.,0.,69.9));
#519 = DIRECTION('',(0.,0.,1.));
#520 = DIRECTION('',(1.,0.,-0.));
#521 = PCURVE('',#102,#522);
#522 = DEFINITIONAL_REPRESENTATION('',(#523),#527);
#523 = CIRCLE('',#524,44.75);
#524 = AXIS2_PLACEMENT_2D('',#525,#526);
#525 = CARTESIAN_POINT('',(1.882068139409E-15,1.61343992693E-17));
#526 = DIRECTION('',(1.,0.));
#527 = ( GEOMETRIC_REPRESENTATION_CONTEXT(2) 
PARAMETRIC_REPRESENTATION_CONTEXT() REPRESENTATION_CONTEXT('2D SPACE',''
  ) );
#528 = PCURVE('',#251,#529);
#529 = DEFINITIONAL_REPRESENTATION('',(#530),#534);
#530 = LINE('',#531,#532);
#531 = CARTESIAN_POINT('',(6.28318530718,0.));
#532 = VECTOR('',#533,1.);
#533 = DIRECTION('',(-1.,0.));
#534 = ( GEOMETRIC_REPRESENTATION_CONTEXT(2) 
PARAMETRIC_REPRESENTATION_CONTEXT() REPRESENTATION_CONTEXT('2D SPACE',''
  ) );
#535 = ORIENTED_EDGE('',*,*,#215,.T.);
#536 = ADVANCED_FACE('',(#537,#677),#73,.T.);
#537 = FACE_BOUND('',#538,.T.);
#538 = EDGE_LOOP('',(#539,#540,#541,#564,#590,#611,#634,#655,#676));
#539 = ORIENTED_EDGE('',*,*,#57,.F.);
#540 = ORIENTED_EDGE('',*,*,#142,.T.);
#541 = ORIENTED_EDGE('',*,*,#542,.T.);
#542 = EDGE_CURVE('',#143,#543,#545,.T.);
#543 = VERTEX_POINT('',#544);
#544 = CARTESIAN_POINT('',(37.5,0.,0.169841269841));
#545 = SURFACE_CURVE('',#546,(#550,#557),.PCURVE_S1.);
#546 = LINE('',#547,#548);
#547 = CARTESIAN_POINT('',(37.8,0.,0.));
#548 = VECTOR('',#549,1.);
#549 = DIRECTION('',(-0.870219610714,0.,0.492664012415));
#550 = PCURVE('',#73,#551);
#551 = DEFINITIONAL_REPRESENTATION('',(#552),#556);
#552 = LINE('',#553,#554);
#553 = CARTESIAN_POINT('',(300.,337.8));
#554 = VECTOR('',#555,1.);
#555 = DIRECTION('',(0.492664012415,-0.870219610714));
#556 = ( GEOMETRIC_REPRESENTATION_CONTEXT(2) 
PARAMETRIC_REPRESENTATION_CONTEXT() REPRESENTATION_CONTEXT('2D SPACE',''
  ) );
#557 = PCURVE('',#180,#558);
#558 = DEFINITIONAL_REPRESENTATION('',(#559),#563);
#559 = LINE('',#560,#561);
#560 = CARTESIAN_POINT('',(-4.138911435803E-13,0.));
#561 = VECTOR('',#562,1.);
#562 = DIRECTION('',(-0.,-1.));
#563 = ( GEOMETRIC_REPRESENTATION_CONTEXT(2) 
PARAMETRIC_REPRESENTATION_CONTEXT() REPRESENTATION_CONTEXT('2D SPACE',''
  ) );
#564 = ORIENTED_EDGE('',*,*,#565,.F.);
#565 = EDGE_CURVE('',#566,#543,#568,.T.);
#566 = VERTEX_POINT('',#567);
#567 = CARTESIAN_POINT('',(37.5,4.592425496803E-17,109.));
#568 = SURFACE_CURVE('',#569,(#573,#579),.PCURVE_S1.);
#569 = LINE('',#570,#571);
#570 = CARTESIAN_POINT('',(37.5,0.,0.));
#571 = VECTOR('',#572,1.);
#572 = DIRECTION('',(0.,0.,-1.));
#573 = PCURVE('',#73,#574);
#574 = DEFINITIONAL_REPRESENTATION('',(#575),#578);
#575 = B_SPLINE_CURVE_WITH_KNOTS('',1,(#576,#577),.UNSPECIFIED.,.F.,.F.,
  (2,2),(-109.0000006,-0.169840669841),.PIECEWISE_BEZIER_KNOTS.);
#576 = CARTESIAN_POINT('',(409.0000006,337.5));
#577 = CARTESIAN_POINT('',(300.16984066984,337.5));
#578 = ( GEOMETRIC_REPRESENTATION_CONTEXT(2) 
PARAMETRIC_REPRESENTATION_CONTEXT() REPRESENTATION_CONTEXT('2D SPACE',''
  ) );
#579 = PCURVE('',#580,#585);
#580 = CYLINDRICAL_SURFACE('',#581,0.75);
#581 = AXIS2_PLACEMENT_3D('',#582,#583,#584);
#582 = CARTESIAN_POINT('',(36.75,0.,0.));
#583 = DIRECTION('',(0.,0.,-1.));
#584 = DIRECTION('',(0.,1.,0.));
#585 = DEFINITIONAL_REPRESENTATION('',(#586),#589);
#586 = B_SPLINE_CURVE_WITH_KNOTS('',1,(#587,#588),.UNSPECIFIED.,.F.,.F.,
  (2,2),(-109.0000006,-0.169840669841),.PIECEWISE_BEZIER_KNOTS.);
#587 = CARTESIAN_POINT('',(1.570796326795,-109.0000006));
#588 = CARTESIAN_POINT('',(1.570796326795,-0.169840669841));
#589 = ( GEOMETRIC_REPRESENTATION_CONTEXT(2) 
PARAMETRIC_REPRESENTATION_CONTEXT() REPRESENTATION_CONTEXT('2D SPACE',''
  ) );
#590 = ORIENTED_EDGE('',*,*,#591,.F.);
#591 = EDGE_CURVE('',#592,#566,#594,.T.);
#592 = VERTEX_POINT('',#593);
#593 = CARTESIAN_POINT('',(39.75,0.,109.));
#594 = SURFACE_CURVE('',#595,(#599,#605),.PCURVE_S1.);
#595 = LINE('',#596,#597);
#596 = CARTESIAN_POINT('',(-150.,0.,109.));
#597 = VECTOR('',#598,1.);
#598 = DIRECTION('',(-1.,0.,0.));
#599 = PCURVE('',#73,#600);
#600 = DEFINITIONAL_REPRESENTATION('',(#601),#604);
#601 = B_SPLINE_CURVE_WITH_KNOTS('',1,(#602,#603),.UNSPECIFIED.,.F.,.F.,
  (2,2),(-189.75,-110.25),.PIECEWISE_BEZIER_KNOTS.);
#602 = CARTESIAN_POINT('',(409.,339.75));
#603 = CARTESIAN_POINT('',(409.,260.25));
#604 = ( GEOMETRIC_REPRESENTATION_CONTEXT(2) 
PARAMETRIC_REPRESENTATION_CONTEXT() REPRESENTATION_CONTEXT('2D SPACE',''
  ) );
#605 = PCURVE('',#329,#606);
#606 = DEFINITIONAL_REPRESENTATION('',(#607),#610);
#607 = B_SPLINE_CURVE_WITH_KNOTS('',1,(#608,#609),.UNSPECIFIED.,.F.,.F.,
  (2,2),(-189.75,-110.25),.PIECEWISE_BEZIER_KNOTS.);
#608 = CARTESIAN_POINT('',(39.75,-5.790076070423E-16));
#609 = CARTESIAN_POINT('',(-39.75,-5.790076070423E-16));
#610 = ( GEOMETRIC_REPRESENTATION_CONTEXT(2) 
PARAMETRIC_REPRESENTATION_CONTEXT() REPRESENTATION_CONTEXT('2D SPACE',''
  ) );
#611 = ORIENTED_EDGE('',*,*,#612,.F.);
#612 = EDGE_CURVE('',#613,#592,#615,.T.);
#613 = VERTEX_POINT('',#614);
#614 = CARTESIAN_POINT('',(39.75,0.,80.7));
#615 = SURFACE_CURVE('',#616,(#620,#627),.PCURVE_S1.);
#616 = LINE('',#617,#618);
#617 = CARTESIAN_POINT('',(39.75,0.,80.7));
#618 = VECTOR('',#619,1.);
#619 = DIRECTION('',(0.,0.,1.));
#620 = PCURVE('',#73,#621);
#621 = DEFINITIONAL_REPRESENTATION('',(#622),#626);
#622 = LINE('',#623,#624);
#623 = CARTESIAN_POINT('',(380.7,339.75));
#624 = VECTOR('',#625,1.);
#625 = DIRECTION('',(1.,0.));
#626 = ( GEOMETRIC_REPRESENTATION_CONTEXT(2) 
PARAMETRIC_REPRESENTATION_CONTEXT() REPRESENTATION_CONTEXT('2D SPACE',''
  ) );
#627 = PCURVE('',#303,#628);
#628 = DEFINITIONAL_REPRESENTATION('',(#629),#633);
#629 = LINE('',#630,#631);
#630 = CARTESIAN_POINT('',(-4.138911435803E-13,0.));
#631 = VECTOR('',#632,1.);
#632 = DIRECTION('',(-0.,-1.));
#633 = ( GEOMETRIC_REPRESENTATION_CONTEXT(2) 
PARAMETRIC_REPRESENTATION_CONTEXT() REPRESENTATION_CONTEXT('2D SPACE',''
  ) );
#634 = ORIENTED_EDGE('',*,*,#635,.F.);
#635 = EDGE_CURVE('',#636,#613,#638,.T.);
#636 = VERTEX_POINT('',#637);
#637 = CARTESIAN_POINT('',(44.75,0.,80.7));
#638 = SURFACE_CURVE('',#639,(#643,#649),.PCURVE_S1.);
#639 = LINE('',#640,#641);
#640 = CARTESIAN_POINT('',(-150.,0.,80.7));
#641 = VECTOR('',#642,1.);
#642 = DIRECTION('',(-1.,0.,0.));
#643 = PCURVE('',#73,#644);
#644 = DEFINITIONAL_REPRESENTATION('',(#645),#648);
#645 = B_SPLINE_CURVE_WITH_KNOTS('',1,(#646,#647),.UNSPECIFIED.,.F.,.F.,
  (2,2),(-194.75,-105.25),.PIECEWISE_BEZIER_KNOTS.);
#646 = CARTESIAN_POINT('',(380.7,344.75));
#647 = CARTESIAN_POINT('',(380.7,255.25));
#648 = ( GEOMETRIC_REPRESENTATION_CONTEXT(2) 
PARAMETRIC_REPRESENTATION_CONTEXT() REPRESENTATION_CONTEXT('2D SPACE',''
  ) );
#649 = PCURVE('',#277,#650);
#650 = DEFINITIONAL_REPRESENTATION('',(#651),#654);
#651 = B_SPLINE_CURVE_WITH_KNOTS('',1,(#652,#653),.UNSPECIFIED.,.F.,.F.,
  (2,2),(-194.75,-105.25),.PIECEWISE_BEZIER_KNOTS.);
#652 = CARTESIAN_POINT('',(44.75,-4.040240899597E-15));
#653 = CARTESIAN_POINT('',(-44.75,-4.040240899597E-15));
#654 = ( GEOMETRIC_REPRESENTATION_CONTEXT(2) 
PARAMETRIC_REPRESENTATION_CONTEXT() REPRESENTATION_CONTEXT('2D SPACE',''
  ) );
#655 = ORIENTED_EDGE('',*,*,#656,.F.);
#656 = EDGE_CURVE('',#494,#636,#657,.T.);
#657 = SURFACE_CURVE('',#658,(#662,#669),.PCURVE_S1.);
#658 = LINE('',#659,#660);
#659 = CARTESIAN_POINT('',(44.75,0.,69.9));
#660 = VECTOR('',#661,1.);
#661 = DIRECTION('',(0.,0.,1.));
#662 = PCURVE('',#73,#663);
#663 = DEFINITIONAL_REPRESENTATION('',(#664),#668);
#664 = LINE('',#665,#666);
#665 = CARTESIAN_POINT('',(369.9,344.75));
#666 = VECTOR('',#667,1.);
#667 = DIRECTION('',(1.,0.));
#668 = ( GEOMETRIC_REPRESENTATION_CONTEXT(2) 
PARAMETRIC_REPRESENTATION_CONTEXT() REPRESENTATION_CONTEXT('2D SPACE',''
  ) );
#669 = PCURVE('',#251,#670);
#670 = DEFINITIONAL_REPRESENTATION('',(#671),#675);
#671 = LINE('',#672,#673);
#672 = CARTESIAN_POINT('',(-4.138911435803E-13,0.));
#673 = VECTOR('',#674,1.);
#674 = DIRECTION('',(-0.,-1.));
#675 = ( GEOMETRIC_REPRESENTATION_CONTEXT(2) 
PARAMETRIC_REPRESENTATION_CONTEXT() REPRESENTATION_CONTEXT('2D SPACE',''
  ) );
#676 = ORIENTED_EDGE('',*,*,#493,.F.);
#677 = FACE_BOUND('',#678,.T.);
#678 = EDGE_LOOP('',(#679,#709,#735,#756));
#679 = ORIENTED_EDGE('',*,*,#680,.F.);
#680 = EDGE_CURVE('',#681,#683,#685,.T.);
#681 = VERTEX_POINT('',#682);
#682 = CARTESIAN_POINT('',(42.39,0.,54.5));
#683 = VERTEX_POINT('',#684);
#684 = CARTESIAN_POINT('',(42.39,0.,44.5));
#685 = SURFACE_CURVE('',#686,(#690,#697),.PCURVE_S1.);
#686 = LINE('',#687,#688);
#687 = CARTESIAN_POINT('',(42.39,0.,54.5));
#688 = VECTOR('',#689,1.);
#689 = DIRECTION('',(-0.,-0.,-1.));
#690 = PCURVE('',#73,#691);
#691 = DEFINITIONAL_REPRESENTATION('',(#692),#696);
#692 = LINE('',#693,#694);
#693 = CARTESIAN_POINT('',(354.5,342.39));
#694 = VECTOR('',#695,1.);
#695 = DIRECTION('',(-1.,0.));
#696 = ( GEOMETRIC_REPRESENTATION_CONTEXT(2) 
PARAMETRIC_REPRESENTATION_CONTEXT() REPRESENTATION_CONTEXT('2D SPACE',''
  ) );
#697 = PCURVE('',#698,#703);
#698 = CYLINDRICAL_SURFACE('',#699,0.89);
#699 = AXIS2_PLACEMENT_3D('',#700,#701,#702);
#700 = CARTESIAN_POINT('',(41.5,0.,54.5));
#701 = DIRECTION('',(0.,0.,1.));
#702 = DIRECTION('',(1.,0.,-0.));
#703 = DEFINITIONAL_REPRESENTATION('',(#704),#708);
#704 = LINE('',#705,#706);
#705 = CARTESIAN_POINT('',(6.28318530718,0.));
#706 = VECTOR('',#707,1.);
#707 = DIRECTION('',(0.,-1.));
#708 = ( GEOMETRIC_REPRESENTATION_CONTEXT(2) 
PARAMETRIC_REPRESENTATION_CONTEXT() REPRESENTATION_CONTEXT('2D SPACE',''
  ) );
#709 = ORIENTED_EDGE('',*,*,#710,.T.);
#710 = EDGE_CURVE('',#681,#711,#713,.T.);
#711 = VERTEX_POINT('',#712);
#712 = CARTESIAN_POINT('',(40.61,1.089935651241E-16,54.5));
#713 = SURFACE_CURVE('',#714,(#718,#724),.PCURVE_S1.);
#714 = LINE('',#715,#716);
#715 = CARTESIAN_POINT('',(-129.25,0.,54.5));
#716 = VECTOR('',#717,1.);
#717 = DIRECTION('',(-1.,0.,0.));
#718 = PCURVE('',#73,#719);
#719 = DEFINITIONAL_REPRESENTATION('',(#720),#723);
#720 = B_SPLINE_CURVE_WITH_KNOTS('',1,(#721,#722),.UNSPECIFIED.,.F.,.F.,
  (2,2),(-171.64,-169.86),.PIECEWISE_BEZIER_KNOTS.);
#721 = CARTESIAN_POINT('',(354.5,342.39));
#722 = CARTESIAN_POINT('',(354.5,340.61));
#723 = ( GEOMETRIC_REPRESENTATION_CONTEXT(2) 
PARAMETRIC_REPRESENTATION_CONTEXT() REPRESENTATION_CONTEXT('2D SPACE',''
  ) );
#724 = PCURVE('',#725,#730);
#725 = PLANE('',#726);
#726 = AXIS2_PLACEMENT_3D('',#727,#728,#729);
#727 = CARTESIAN_POINT('',(41.5,1.168286122289E-17,54.5));
#728 = DIRECTION('',(0.,0.,1.));
#729 = DIRECTION('',(1.,0.,-0.));
#730 = DEFINITIONAL_REPRESENTATION('',(#731),#734);
#731 = B_SPLINE_CURVE_WITH_KNOTS('',1,(#732,#733),.UNSPECIFIED.,.F.,.F.,
  (2,2),(-171.64,-169.86),.PIECEWISE_BEZIER_KNOTS.);
#732 = CARTESIAN_POINT('',(0.89,-1.168286122289E-17));
#733 = CARTESIAN_POINT('',(-0.89,-1.168286122289E-17));
#734 = ( GEOMETRIC_REPRESENTATION_CONTEXT(2) 
PARAMETRIC_REPRESENTATION_CONTEXT() REPRESENTATION_CONTEXT('2D SPACE',''
  ) );
#735 = ORIENTED_EDGE('',*,*,#736,.F.);
#736 = EDGE_CURVE('',#737,#711,#739,.T.);
#737 = VERTEX_POINT('',#738);
#738 = CARTESIAN_POINT('',(40.61,1.089935651241E-16,44.5));
#739 = SURFACE_CURVE('',#740,(#744,#750),.PCURVE_S1.);
#740 = LINE('',#741,#742);
#741 = CARTESIAN_POINT('',(40.61,0.,54.5));
#742 = VECTOR('',#743,1.);
#743 = DIRECTION('',(0.,0.,1.));
#744 = PCURVE('',#73,#745);
#745 = DEFINITIONAL_REPRESENTATION('',(#746),#749);
#746 = B_SPLINE_CURVE_WITH_KNOTS('',1,(#747,#748),.UNSPECIFIED.,.F.,.F.,
  (2,2),(-10.0000006,5.999999999062E-07),.PIECEWISE_BEZIER_KNOTS.);
#747 = CARTESIAN_POINT('',(344.4999994,340.61));
#748 = CARTESIAN_POINT('',(354.5000006,340.61));
#749 = ( GEOMETRIC_REPRESENTATION_CONTEXT(2) 
PARAMETRIC_REPRESENTATION_CONTEXT() REPRESENTATION_CONTEXT('2D SPACE',''
  ) );
#750 = PCURVE('',#698,#751);
#751 = DEFINITIONAL_REPRESENTATION('',(#752),#755);
#752 = B_SPLINE_CURVE_WITH_KNOTS('',1,(#753,#754),.UNSPECIFIED.,.F.,.F.,
  (2,2),(-10.0000006,5.999999999062E-07),.PIECEWISE_BEZIER_KNOTS.);
#753 = CARTESIAN_POINT('',(3.14159265359,-10.0000006));
#754 = CARTESIAN_POINT('',(3.14159265359,5.999999999062E-07));
#755 = ( GEOMETRIC_REPRESENTATION_CONTEXT(2) 
PARAMETRIC_REPRESENTATION_CONTEXT() REPRESENTATION_CONTEXT('2D SPACE',''
  ) );
#756 = ORIENTED_EDGE('',*,*,#757,.F.);
#757 = EDGE_CURVE('',#683,#737,#758,.T.);
#758 = SURFACE_CURVE('',#759,(#763,#769),.PCURVE_S1.);
#759 = LINE('',#760,#761);
#760 = CARTESIAN_POINT('',(-129.25,0.,44.5));
#761 = VECTOR('',#762,1.);
#762 = DIRECTION('',(-1.,0.,0.));
#763 = PCURVE('',#73,#764);
#764 = DEFINITIONAL_REPRESENTATION('',(#765),#768);
#765 = B_SPLINE_CURVE_WITH_KNOTS('',1,(#766,#767),.UNSPECIFIED.,.F.,.F.,
  (2,2),(-171.64,-169.86),.PIECEWISE_BEZIER_KNOTS.);
#766 = CARTESIAN_POINT('',(344.5,342.39));
#767 = CARTESIAN_POINT('',(344.5,340.61));
#768 = ( GEOMETRIC_REPRESENTATION_CONTEXT(2) 
PARAMETRIC_REPRESENTATION_CONTEXT() REPRESENTATION_CONTEXT('2D SPACE',''
  ) );
#769 = PCURVE('',#770,#775);
#770 = PLANE('',#771);
#771 = AXIS2_PLACEMENT_3D('',#772,#773,#774);
#772 = CARTESIAN_POINT('',(41.5,1.168286122289E-17,44.5));
#773 = DIRECTION('',(0.,0.,1.));
#774 = DIRECTION('',(1.,0.,-0.));
#775 = DEFINITIONAL_REPRESENTATION('',(#776),#779);
#776 = B_SPLINE_CURVE_WITH_KNOTS('',1,(#777,#778),.UNSPECIFIED.,.F.,.F.,
  (2,2),(-171.64,-169.86),.PIECEWISE_BEZIER_KNOTS.);
#777 = CARTESIAN_POINT('',(0.89,-1.168286122289E-17));
#778 = CARTESIAN_POINT('',(-0.89,-1.168286122289E-17));
#779 = ( GEOMETRIC_REPRESENTATION_CONTEXT(2) 
PARAMETRIC_REPRESENTATION_CONTEXT() REPRESENTATION_CONTEXT('2D SPACE',''
  ) );
#780 = ADVANCED_FACE('',(#781),#180,.F.);
#781 = FACE_BOUND('',#782,.F.);
#782 = EDGE_LOOP('',(#783,#784,#785,#847,#938,#1040));
#783 = ORIENTED_EDGE('',*,*,#163,.T.);
#784 = ORIENTED_EDGE('',*,*,#542,.T.);
#785 = ORIENTED_EDGE('',*,*,#786,.T.);
#786 = EDGE_CURVE('',#543,#787,#789,.T.);
#787 = VERTEX_POINT('',#788);
#788 = CARTESIAN_POINT('',(36.75,-0.75,0.590112210029));
#789 = SURFACE_CURVE('',#790,(#807,#827),.PCURVE_S1.);
#790 = B_SPLINE_CURVE_WITH_KNOTS('',8,(#791,#792,#793,#794,#795,#796,
    #797,#798,#799,#800,#801,#802,#803,#804,#805,#806),.UNSPECIFIED.,.F.
  ,.F.,(9,7,9),(0.,0.363278324605,1.),.UNSPECIFIED.);
#791 = CARTESIAN_POINT('',(37.5,0.,0.169841269841));
#792 = CARTESIAN_POINT('',(37.5,-6.193974728916E-02,0.169841269841));
#793 = CARTESIAN_POINT('',(37.494153860894,-0.123897574485,
    0.173084799636));
#794 = CARTESIAN_POINT('',(37.482455570439,-0.184674175029,
    0.179575162474));
#795 = CARTESIAN_POINT('',(37.465277997556,-0.243289947852,
    0.189108349707));
#796 = CARTESIAN_POINT('',(37.443190243259,-0.299010757603,
    0.201374039775));
#797 = CARTESIAN_POINT('',(37.416843055582,-0.351330621857,0.21601745269
    ));
#798 = CARTESIAN_POINT('',(37.386896849763,-0.399934165792,0.23267764199
    ));
#799 = CARTESIAN_POINT('',(37.296250167577,-0.523056069984,0.28316280138
    ));
#800 = CARTESIAN_POINT('',(37.229417009095,-0.589476104407,
    0.320440989818));
#801 = CARTESIAN_POINT('',(37.156137009089,-0.644003486788,
    0.361396763871));
#802 = CARTESIAN_POINT('',(37.078429203258,-0.686895936748,
    0.404929618941));
#803 = CARTESIAN_POINT('',(36.997918678844,-0.718586811378,
    0.450146975956));
#804 = CARTESIAN_POINT('',(36.915814075272,-0.739507993105,
    0.496379322341));
#805 = CARTESIAN_POINT('',(36.832978190429,-0.75,0.543144919016));
#806 = CARTESIAN_POINT('',(36.75,-0.75,0.590112210029));
#807 = PCURVE('',#180,#808);
#808 = DEFINITIONAL_REPRESENTATION('',(#809),#826);
#809 = B_SPLINE_CURVE_WITH_KNOTS('',8,(#810,#811,#812,#813,#814,#815,
    #816,#817,#818,#819,#820,#821,#822,#823,#824,#825),.UNSPECIFIED.,.F.
  ,.F.,(9,7,9),(0.,0.363278324605,1.),.UNSPECIFIED.);
#810 = CARTESIAN_POINT('',(-4.138911435803E-13,-0.169841269841));
#811 = CARTESIAN_POINT('',(1.651726594586E-03,-0.169841269841));
#812 = CARTESIAN_POINT('',(3.303935496586E-03,-0.173084799636));
#813 = CARTESIAN_POINT('',(4.925660251586E-03,-0.179575162474));
#814 = CARTESIAN_POINT('',(6.491800890586E-03,-0.189108349707));
#815 = CARTESIAN_POINT('',(7.983496397586E-03,-0.201374039775));
#816 = CARTESIAN_POINT('',(9.387594525586E-03,-0.21601745269));
#817 = CARTESIAN_POINT('',(1.069571966959E-02,-0.23267764199));
#818 = CARTESIAN_POINT('',(1.402022240359E-02,-0.28316280138));
#819 = CARTESIAN_POINT('',(1.582674529159E-02,-0.320440989818));
#820 = CARTESIAN_POINT('',(1.732452685959E-02,-0.36139676387));
#821 = CARTESIAN_POINT('',(1.851822990559E-02,-0.404929618942));
#822 = CARTESIAN_POINT('',(1.941657261859E-02,-0.450146975956));
#823 = CARTESIAN_POINT('',(2.002814811959E-02,-0.496379322341));
#824 = CARTESIAN_POINT('',(2.035927007559E-02,-0.543144919016));
#825 = CARTESIAN_POINT('',(2.040533068659E-02,-0.590112210029));
#826 = ( GEOMETRIC_REPRESENTATION_CONTEXT(2) 
PARAMETRIC_REPRESENTATION_CONTEXT() REPRESENTATION_CONTEXT('2D SPACE',''
  ) );
#827 = PCURVE('',#580,#828);
#828 = DEFINITIONAL_REPRESENTATION('',(#829),#846);
#829 = B_SPLINE_CURVE_WITH_KNOTS('',8,(#830,#831,#832,#833,#834,#835,
    #836,#837,#838,#839,#840,#841,#842,#843,#844,#845),.UNSPECIFIED.,.F.
  ,.F.,(9,7,9),(0.,0.363278324605,1.),.UNSPECIFIED.);
#830 = CARTESIAN_POINT('',(1.570796326795,-0.169841269841));
#831 = CARTESIAN_POINT('',(1.653382656514,-0.169841269841));
#832 = CARTESIAN_POINT('',(1.735992920462,-0.173084799635));
#833 = CARTESIAN_POINT('',(1.817887442533,-0.179575162474));
#834 = CARTESIAN_POINT('',(1.898617608981,-0.189108349707));
#835 = CARTESIAN_POINT('',(1.977891152533,-0.201374039775));
#836 = CARTESIAN_POINT('',(2.055513900031,-0.21601745269));
#837 = CARTESIAN_POINT('',(2.131373371259,-0.23267764199));
#838 = CARTESIAN_POINT('',(2.335228763505,-0.28316280138));
#839 = CARTESIAN_POINT('',(2.459377965207,-0.320440989818));
#840 = CARTESIAN_POINT('',(2.579182733486,-0.361396763871));
#841 = CARTESIAN_POINT('',(2.6954553848,-0.404929618941));
#842 = CARTESIAN_POINT('',(2.808973344276,-0.450146975956));
#843 = CARTESIAN_POINT('',(2.92050668111,-0.496379322341));
#844 = CARTESIAN_POINT('',(3.030955066352,-0.543144919016));
#845 = CARTESIAN_POINT('',(3.14159265359,-0.590112210029));
#846 = ( GEOMETRIC_REPRESENTATION_CONTEXT(2) 
PARAMETRIC_REPRESENTATION_CONTEXT() REPRESENTATION_CONTEXT('2D SPACE',''
  ) );
#847 = ORIENTED_EDGE('',*,*,#848,.F.);
#848 = EDGE_CURVE('',#849,#787,#851,.T.);
#849 = VERTEX_POINT('',#850);
#850 = CARTESIAN_POINT('',(-36.75,-0.75,0.590112210029));
#851 = SURFACE_CURVE('',#852,(#857,#926),.PCURVE_S1.);
#852 = HYPERBOLA('',#853,0.424603174603,0.75);
#853 = AXIS2_PLACEMENT_3D('',#854,#855,#856);
#854 = CARTESIAN_POINT('',(0.,-0.75,21.4));
#855 = DIRECTION('',(0.,-1.,0.));
#856 = DIRECTION('',(-0.,-0.,-1.));
#857 = PCURVE('',#180,#858);
#858 = DEFINITIONAL_REPRESENTATION('',(#859),#925);
#859 = B_SPLINE_CURVE_WITH_KNOTS('',8,(#860,#861,#862,#863,#864,#865,
    #866,#867,#868,#869,#870,#871,#872,#873,#874,#875,#876,#877,#878,
    #879,#880,#881,#882,#883,#884,#885,#886,#887,#888,#889,#890,#891,
    #892,#893,#894,#895,#896,#897,#898,#899,#900,#901,#902,#903,#904,
    #905,#906,#907,#908,#909,#910,#911,#912,#913,#914,#915,#916,#917,
    #918,#919,#920,#921,#922,#923,#924),.UNSPECIFIED.,.F.,.F.,(9,7,7,7,7
    ,7,7,7,7,9),(-4.613039922107,-3.459779941581,-2.45067745862,
    -1.567712786029,-0.795118697512,-0.119098870059,0.472418478962,
    1.507573839748,3.060306880928,4.613039922107),.UNSPECIFIED.);
#860 = CARTESIAN_POINT('',(3.12175008168,-7.817175169021E-15));
#861 = CARTESIAN_POINT('',(3.118889813871,-3.084363148738));
#862 = CARTESIAN_POINT('',(3.115558405765,-5.660473067664));
#863 = CARTESIAN_POINT('',(3.111665351765,-7.826001428352));
#864 = CARTESIAN_POINT('',(3.107099314144,-9.656089668735));
#865 = CARTESIAN_POINT('',(3.101722124873,-11.2098337937));
#866 = CARTESIAN_POINT('',(3.095360597726,-12.53431111965));
#867 = CARTESIAN_POINT('',(3.087794712375,-13.6674396978));
#868 = CARTESIAN_POINT('',(3.070817116985,-15.49102328654));
#869 = CARTESIAN_POINT('',(3.061754338832,-16.21910752542));
#870 = CARTESIAN_POINT('',(3.051361173275,-16.84490201541));
#871 = CARTESIAN_POINT('',(3.03940903309,-17.38486974606));
#872 = CARTESIAN_POINT('',(3.02562311247,-17.85234441644));
#873 = CARTESIAN_POINT('',(3.009669805989,-18.25824474134));
#874 = CARTESIAN_POINT('',(2.991142427227,-18.61157216287));
#875 = CARTESIAN_POINT('',(2.950652856106,-19.18950024628));
#876 = CARTESIAN_POINT('',(2.929409473119,-19.42467093691));
#877 = CARTESIAN_POINT('',(2.905487963452,-19.63031873739));
#878 = CARTESIAN_POINT('',(2.878506978701,-19.81055299656));
#879 = CARTESIAN_POINT('',(2.84803115372,-19.96877989663));
#880 = CARTESIAN_POINT('',(2.813563194195,-20.10784165939));
#881 = CARTESIAN_POINT('',(2.774552355856,-20.2301175367));
#882 = CARTESIAN_POINT('',(2.691843702752,-20.43165247929));
#883 = CARTESIAN_POINT('',(2.649341129552,-20.51437813945));
#884 = CARTESIAN_POINT('',(2.602560860215,-20.58711611784));
#885 = CARTESIAN_POINT('',(2.551125766598,-20.65097833917));
#886 = CARTESIAN_POINT('',(2.494680369884,-20.70689029871));
#887 = CARTESIAN_POINT('',(2.432943596133,-20.7556209662));
#888 = CARTESIAN_POINT('',(2.365788004299,-20.79780464994));
#889 = CARTESIAN_POINT('',(2.229958283841,-20.86558622058));
#890 = CARTESIAN_POINT('',(2.162522134913,-20.89259826746));
#891 = CARTESIAN_POINT('',(2.091127444551,-20.91533510035));
#892 = CARTESIAN_POINT('',(2.015999357522,-20.93407061353));
#893 = CARTESIAN_POINT('',(1.937565380646,-20.94901605786));
#894 = CARTESIAN_POINT('',(1.856467860439,-20.96032540629));
#895 = CARTESIAN_POINT('',(1.773521316517,-20.96809848409));
#896 = CARTESIAN_POINT('',(1.616196280696,-20.9761298206));
#897 = CARTESIAN_POINT('',(1.542043190902,-20.97720598207));
#898 = CARTESIAN_POINT('',(1.46774637358,-20.97564157589));
#899 = CARTESIAN_POINT('',(1.393948935235,-20.97143665755));
#900 = CARTESIAN_POINT('',(1.321275826365,-20.96456067351));
#901 = CARTESIAN_POINT('',(1.25028233201,-20.95495210474));
#902 = CARTESIAN_POINT('',(1.181421303167,-20.94251719028));
#903 = CARTESIAN_POINT('',(0.998842824313,-20.90019617707));
#904 = CARTESIAN_POINT('',(0.890218994728,-20.86421632461));
#905 = CARTESIAN_POINT('',(0.790973227482,-20.81850107471));
#906 = CARTESIAN_POINT('',(0.701886666022,-20.76204010645));
#907 = CARTESIAN_POINT('',(0.622612105657,-20.69346319678));
#908 = CARTESIAN_POINT('',(0.552440676656,-20.61097421218));
#909 = CARTESIAN_POINT('',(0.490488366956,-20.51225077907));
#910 = CARTESIAN_POINT('',(0.35391592099,-20.21733182132));
#911 = CARTESIAN_POINT('',(0.288450005288,-19.99708099239));
#912 = CARTESIAN_POINT('',(0.236431872708,-19.72337396933));
#913 = CARTESIAN_POINT('',(0.19475378011,-19.38256886632));
#914 = CARTESIAN_POINT('',(0.161199234731,-18.95633565258));
#915 = CARTESIAN_POINT('',(0.133998418028,-18.41967861636));
#916 = CARTESIAN_POINT('',(0.111833594262,-17.73794551958));
#917 = CARTESIAN_POINT('',(7.552250618959E-02,-15.98362398434));
#918 = CARTESIAN_POINT('',(6.137655642159E-02,-14.91103486875));
#919 = CARTESIAN_POINT('',(5.021616290759E-02,-13.59266952721));
#920 = CARTESIAN_POINT('',(4.132301101259E-02,-11.96244874885));
#921 = CARTESIAN_POINT('',(3.417875145059E-02,-9.932594912761));
#922 = CARTESIAN_POINT('',(2.839867791059E-02,-7.384148313979));
#923 = CARTESIAN_POINT('',(2.369359631859E-02,-4.15274322608));
#924 = CARTESIAN_POINT('',(1.984257191059E-02,-4.770894536145E-15));
#925 = ( GEOMETRIC_REPRESENTATION_CONTEXT(2) 
PARAMETRIC_REPRESENTATION_CONTEXT() REPRESENTATION_CONTEXT('2D SPACE',''
  ) );
#926 = PCURVE('',#927,#932);
#927 = PLANE('',#928);
#928 = AXIS2_PLACEMENT_3D('',#929,#930,#931);
#929 = CARTESIAN_POINT('',(36.75,-0.75,0.));
#930 = DIRECTION('',(0.,-1.,0.));
#931 = DIRECTION('',(-1.,0.,0.));
#932 = DEFINITIONAL_REPRESENTATION('',(#933),#937);
#933 = HYPERBOLA('',#934,0.424603174603,0.75);
#934 = AXIS2_PLACEMENT_2D('',#935,#936);
#935 = CARTESIAN_POINT('',(36.75,-21.4));
#936 = DIRECTION('',(0.,1.));
#937 = ( GEOMETRIC_REPRESENTATION_CONTEXT(2) 
PARAMETRIC_REPRESENTATION_CONTEXT() REPRESENTATION_CONTEXT('2D SPACE',''
  ) );
#938 = ORIENTED_EDGE('',*,*,#939,.T.);
#939 = EDGE_CURVE('',#849,#341,#940,.T.);
#940 = SURFACE_CURVE('',#941,(#972,#1006),.PCURVE_S1.);
#941 = B_SPLINE_CURVE_WITH_KNOTS('',8,(#942,#943,#944,#945,#946,#947,
    #948,#949,#950,#951,#952,#953,#954,#955,#956,#957,#958,#959,#960,
    #961,#962,#963,#964,#965,#966,#967,#968,#969,#970,#971),
  .UNSPECIFIED.,.F.,.F.,(9,7,7,7,9),(0.,0.31786964747,0.499560045775,
    0.682119034809,1.),.UNSPECIFIED.);
#942 = CARTESIAN_POINT('',(-36.75,-0.75,0.590112210029));
#943 = CARTESIAN_POINT('',(-36.83285227553,-0.75,0.543216189325));
#944 = CARTESIAN_POINT('',(-36.91556246569,-0.739539815272,
    0.496521370926));
#945 = CARTESIAN_POINT('',(-36.99754423475,-0.718682053815,
    0.450357823749));
#946 = CARTESIAN_POINT('',(-37.07793897105,-0.687088587885,
    0.405204953082));
#947 = CARTESIAN_POINT('',(-37.15554482115,-0.644329809582,
    0.361728518961));
#948 = CARTESIAN_POINT('',(-37.22874638783,-0.589974601405,
    0.320815798758));
#949 = CARTESIAN_POINT('',(-37.2955370817,-0.523764343002,0.283560549165
    ));
#950 = CARTESIAN_POINT('',(-37.38626021927,-0.400945174337,
    0.233031873285));
#951 = CARTESIAN_POINT('',(-37.41627880364,-0.352396950726,
    0.216331137848));
#952 = CARTESIAN_POINT('',(-37.44270639473,-0.300126764733,
    0.201642820162));
#953 = CARTESIAN_POINT('',(-37.46488278933,-0.244446833823,
    0.189327754395));
#954 = CARTESIAN_POINT('',(-37.48215591724,-0.185860158582,
    0.179741448311));
#955 = CARTESIAN_POINT('',(-37.49395415387,-0.125098579347,
    0.173195600317));
#956 = CARTESIAN_POINT('',(-37.4999012555,-6.314034160526E-02,
    0.169896054752));
#957 = CARTESIAN_POINT('',(-37.50009734289,6.10684968806E-02,
    0.169787262562));
#958 = CARTESIAN_POINT('',(-37.49429032725,0.123355417038,0.173009086501
    ));
#959 = CARTESIAN_POINT('',(-37.4825677055,0.184458163415,0.17951291474)
  );
#960 = CARTESIAN_POINT('',(-37.4653067328,0.243380555691,0.189092330891)
  );
#961 = CARTESIAN_POINT('',(-37.44308549982,0.299376702156,0.201432116035
    ));
#962 = CARTESIAN_POINT('',(-37.41656536759,0.351933681722,0.216171708696
    ));
#963 = CARTESIAN_POINT('',(-37.38641696448,0.400732975807,0.232944573307
    ));
#964 = CARTESIAN_POINT('',(-37.29553676086,0.523764777346,0.283560727857
    ));
#965 = CARTESIAN_POINT('',(-37.22874629852,0.589974464299,0.320815849107
    ));
#966 = CARTESIAN_POINT('',(-37.15554506232,0.644329630332,0.361728384875
    ));
#967 = CARTESIAN_POINT('',(-37.07793931889,0.687088455313,0.405204757676
    ));
#968 = CARTESIAN_POINT('',(-36.99754421906,0.718682227791,0.450357830885
    ));
#969 = CARTESIAN_POINT('',(-36.91556182077,0.739540077922,0.49652173288)
  );
#970 = CARTESIAN_POINT('',(-36.83285121594,0.75,0.543216789076));
#971 = CARTESIAN_POINT('',(-36.75,0.75,0.590112210029));
#972 = PCURVE('',#180,#973);
#973 = DEFINITIONAL_REPRESENTATION('',(#974),#1005);
#974 = B_SPLINE_CURVE_WITH_KNOTS('',8,(#975,#976,#977,#978,#979,#980,
    #981,#982,#983,#984,#985,#986,#987,#988,#989,#990,#991,#992,#993,
    #994,#995,#996,#997,#998,#999,#1000,#1001,#1002,#1003,#1004),
  .UNSPECIFIED.,.F.,.F.,(9,7,7,7,9),(0.,0.31786964747,0.499560045775,
    0.682119034809,1.),.UNSPECIFIED.);
#975 = CARTESIAN_POINT('',(3.121187322904,-0.590112210029));
#976 = CARTESIAN_POINT('',(3.12123331362,-0.543216189325));
#977 = CARTESIAN_POINT('',(3.121563500977,-0.496521370926));
#978 = CARTESIAN_POINT('',(3.122173296413,-0.45035782375));
#979 = CARTESIAN_POINT('',(3.123068962082,-0.405204953081));
#980 = CARTESIAN_POINT('',(3.124259044355,-0.361728518962));
#981 = CARTESIAN_POINT('',(3.125752214863,-0.320815798758));
#982 = CARTESIAN_POINT('',(3.12755316689,-0.283560549165));
#983 = CARTESIAN_POINT('',(3.130869713481,-0.233031873285));
#984 = CARTESIAN_POINT('',(3.132176423488,-0.216331137848));
#985 = CARTESIAN_POINT('',(3.13357925522,-0.201642820162));
#986 = CARTESIAN_POINT('',(3.135069913849,-0.189327754395));
#987 = CARTESIAN_POINT('',(3.136635322189,-0.179741448311));
#988 = CARTESIAN_POINT('',(3.138256676475,-0.173195600317));
#989 = CARTESIAN_POINT('',(3.139908911025,-0.169896054752));
#990 = CARTESIAN_POINT('',(3.143221146962,-0.169787262562));
#991 = CARTESIAN_POINT('',(3.144882117094,-0.173009086501));
#992 = CARTESIAN_POINT('',(3.14651252515,-0.17951291474));
#993 = CARTESIAN_POINT('',(3.148086847531,-0.189092330891));
#994 = CARTESIAN_POINT('',(3.149585921794,-0.201432116035));
#995 = CARTESIAN_POINT('',(3.150996414402,-0.216171708696));
#996 = CARTESIAN_POINT('',(3.152309863598,-0.232944573307));
#997 = CARTESIAN_POINT('',(3.155632152019,-0.283560727857));
#998 = CARTESIAN_POINT('',(3.157433088757,-0.320815849107));
#999 = CARTESIAN_POINT('',(3.158926257913,-0.361728384874));
#1000 = CARTESIAN_POINT('',(3.160116341306,-0.405204757676));
#1001 = CARTESIAN_POINT('',(3.1610120154,-0.450357830885));
#1002 = CARTESIAN_POINT('',(3.161621813701,-0.49652173288));
#1003 = CARTESIAN_POINT('',(3.161951994149,-0.543216789076));
#1004 = CARTESIAN_POINT('',(3.161997984277,-0.590112210029));
#1005 = ( GEOMETRIC_REPRESENTATION_CONTEXT(2) 
PARAMETRIC_REPRESENTATION_CONTEXT() REPRESENTATION_CONTEXT('2D SPACE',''
  ) );
#1006 = PCURVE('',#355,#1007);
#1007 = DEFINITIONAL_REPRESENTATION('',(#1008),#1039);
#1008 = B_SPLINE_CURVE_WITH_KNOTS('',8,(#1009,#1010,#1011,#1012,#1013,
    #1014,#1015,#1016,#1017,#1018,#1019,#1020,#1021,#1022,#1023,#1024,
    #1025,#1026,#1027,#1028,#1029,#1030,#1031,#1032,#1033,#1034,#1035,
    #1036,#1037,#1038),.UNSPECIFIED.,.F.,.F.,(9,7,7,7,9),(0.,
    0.31786964747,0.499560045775,0.682119034809,1.),.UNSPECIFIED.);
#1009 = CARTESIAN_POINT('',(0.,-0.590112210029));
#1010 = CARTESIAN_POINT('',(0.110469700718,-0.543216189325));
#1011 = CARTESIAN_POINT('',(0.220750484044,-0.496521370926));
#1012 = CARTESIAN_POINT('',(0.332110715217,-0.45035782375));
#1013 = CARTESIAN_POINT('',(0.445446128218,-0.405204953081));
#1014 = CARTESIAN_POINT('',(0.561524223261,-0.361728518962));
#1015 = CARTESIAN_POINT('',(0.681118723208,-0.320815798758));
#1016 = CARTESIAN_POINT('',(0.805039540609,-0.283560549165));
#1017 = CARTESIAN_POINT('',(1.00863057242,-0.233031873285));
#1018 = CARTESIAN_POINT('',(1.084478061436,-0.216331137848));
#1019 = CARTESIAN_POINT('',(1.162090254062,-0.201642820162));
#1020 = CARTESIAN_POINT('',(1.241357045321,-0.189327754395));
#1021 = CARTESIAN_POINT('',(1.322085959129,-0.179741448311));
#1022 = CARTESIAN_POINT('',(1.403985873202,-0.173195600317));
#1023 = CARTESIAN_POINT('',(1.486609101058,-0.169896054752));
#1024 = CARTESIAN_POINT('',(1.65222109208,-0.169787262562));
#1025 = CARTESIAN_POINT('',(1.735257816614,-0.173009086501));
#1026 = CARTESIAN_POINT('',(1.817575507559,-0.17951291474));
#1027 = CARTESIAN_POINT('',(1.898718110021,-0.189092330891));
#1028 = CARTESIAN_POINT('',(1.978388805865,-0.201432116035));
#1029 = CARTESIAN_POINT('',(2.056390729384,-0.216171708696));
#1030 = CARTESIAN_POINT('',(2.132610330558,-0.232944573307));
#1031 = CARTESIAN_POINT('',(2.33655383297,-0.283560727857));
#1032 = CARTESIAN_POINT('',(2.460473855564,-0.320815849107));
#1033 = CARTESIAN_POINT('',(2.580068092254,-0.361728384874));
#1034 = CARTESIAN_POINT('',(2.696146033127,-0.405204757676));
#1035 = CARTESIAN_POINT('',(2.809482054067,-0.450357830885));
#1036 = CARTESIAN_POINT('',(2.920843026418,-0.49652173288));
#1037 = CARTESIAN_POINT('',(3.031124365663,-0.543216789076));
#1038 = CARTESIAN_POINT('',(3.14159265359,-0.590112210029));
#1039 = ( GEOMETRIC_REPRESENTATION_CONTEXT(2) 
PARAMETRIC_REPRESENTATION_CONTEXT() REPRESENTATION_CONTEXT('2D SPACE',''
  ) );
#1040 = ORIENTED_EDGE('',*,*,#366,.T.);
#1041 = ADVANCED_FACE('',(#1042),#355,.F.);
#1042 = FACE_BOUND('',#1043,.F.);
#1043 = EDGE_LOOP('',(#1044,#1045,#1068,#1094));
#1044 = ORIENTED_EDGE('',*,*,#939,.F.);
#1045 = ORIENTED_EDGE('',*,*,#1046,.T.);
#1046 = EDGE_CURVE('',#849,#1047,#1049,.T.);
#1047 = VERTEX_POINT('',#1048);
#1048 = CARTESIAN_POINT('',(-36.75,-0.75,109.));
#1049 = SURFACE_CURVE('',#1050,(#1054,#1061),.PCURVE_S1.);
#1050 = LINE('',#1051,#1052);
#1051 = CARTESIAN_POINT('',(-36.75,-0.75,0.));
#1052 = VECTOR('',#1053,1.);
#1053 = DIRECTION('',(0.,0.,1.));
#1054 = PCURVE('',#355,#1055);
#1055 = DEFINITIONAL_REPRESENTATION('',(#1056),#1060);
#1056 = LINE('',#1057,#1058);
#1057 = CARTESIAN_POINT('',(0.,0.));
#1058 = VECTOR('',#1059,1.);
#1059 = DIRECTION('',(0.,-1.));
#1060 = ( GEOMETRIC_REPRESENTATION_CONTEXT(2) 
PARAMETRIC_REPRESENTATION_CONTEXT() REPRESENTATION_CONTEXT('2D SPACE',''
  ) );
#1061 = PCURVE('',#927,#1062);
#1062 = DEFINITIONAL_REPRESENTATION('',(#1063),#1067);
#1063 = LINE('',#1064,#1065);
#1064 = CARTESIAN_POINT('',(73.5,0.));
#1065 = VECTOR('',#1066,1.);
#1066 = DIRECTION('',(0.,-1.));
#1067 = ( GEOMETRIC_REPRESENTATION_CONTEXT(2) 
PARAMETRIC_REPRESENTATION_CONTEXT() REPRESENTATION_CONTEXT('2D SPACE',''
  ) );
#1068 = ORIENTED_EDGE('',*,*,#1069,.T.);
#1069 = EDGE_CURVE('',#1047,#315,#1070,.T.);
#1070 = SURFACE_CURVE('',#1071,(#1076,#1083),.PCURVE_S1.);
#1071 = CIRCLE('',#1072,0.75);
#1072 = AXIS2_PLACEMENT_3D('',#1073,#1074,#1075);
#1073 = CARTESIAN_POINT('',(-36.75,0.,109.));
#1074 = DIRECTION('',(0.,-0.,-1.));
#1075 = DIRECTION('',(0.,-1.,0.));
#1076 = PCURVE('',#355,#1077);
#1077 = DEFINITIONAL_REPRESENTATION('',(#1078),#1082);
#1078 = LINE('',#1079,#1080);
#1079 = CARTESIAN_POINT('',(0.,-109.));
#1080 = VECTOR('',#1081,1.);
#1081 = DIRECTION('',(1.,0.));
#1082 = ( GEOMETRIC_REPRESENTATION_CONTEXT(2) 
PARAMETRIC_REPRESENTATION_CONTEXT() REPRESENTATION_CONTEXT('2D SPACE',''
  ) );
#1083 = PCURVE('',#329,#1084);
#1084 = DEFINITIONAL_REPRESENTATION('',(#1085),#1093);
#1085 = ( BOUNDED_CURVE() B_SPLINE_CURVE(2,(#1086,#1087,#1088,#1089,
#1090,#1091,#1092),.UNSPECIFIED.,.T.,.F.) B_SPLINE_CURVE_WITH_KNOTS((1,2
    ,2,2,2,1),(-2.094395102393,0.,2.094395102393,4.188790204786,
6.28318530718,8.377580409573),.UNSPECIFIED.) CURVE() 
GEOMETRIC_REPRESENTATION_ITEM() RATIONAL_B_SPLINE_CURVE((1.,0.5,1.,0.5,
1.,0.5,1.)) REPRESENTATION_ITEM('') );
#1086 = CARTESIAN_POINT('',(-36.75,-0.75));
#1087 = CARTESIAN_POINT('',(-38.04903810567,-0.75));
#1088 = CARTESIAN_POINT('',(-37.39951905283,0.375));
#1089 = CARTESIAN_POINT('',(-36.75,1.5));
#1090 = CARTESIAN_POINT('',(-36.10048094716,0.375));
#1091 = CARTESIAN_POINT('',(-35.45096189432,-0.75));
#1092 = CARTESIAN_POINT('',(-36.75,-0.75));
#1093 = ( GEOMETRIC_REPRESENTATION_CONTEXT(2) 
PARAMETRIC_REPRESENTATION_CONTEXT() REPRESENTATION_CONTEXT('2D SPACE',''
  ) );
#1094 = ORIENTED_EDGE('',*,*,#340,.T.);
#1095 = ADVANCED_FACE('',(#1096),#329,.T.);
#1096 = FACE_BOUND('',#1097,.T.);
#1097 = EDGE_LOOP('',(#1098,#1120,#1121,#1149,#1170,#1171));
#1098 = ORIENTED_EDGE('',*,*,#1099,.T.);
#1099 = EDGE_CURVE('',#289,#592,#1100,.T.);
#1100 = SURFACE_CURVE('',#1101,(#1106,#1113),.PCURVE_S1.);
#1101 = CIRCLE('',#1102,39.75);
#1102 = AXIS2_PLACEMENT_3D('',#1103,#1104,#1105);
#1103 = CARTESIAN_POINT('',(0.,0.,109.));
#1104 = DIRECTION('',(0.,0.,1.));
#1105 = DIRECTION('',(1.,0.,-0.));
#1106 = PCURVE('',#329,#1107);
#1107 = DEFINITIONAL_REPRESENTATION('',(#1108),#1112);
#1108 = CIRCLE('',#1109,39.75);
#1109 = AXIS2_PLACEMENT_2D('',#1110,#1111);
#1110 = CARTESIAN_POINT('',(4.403329231825E-15,-5.790076070423E-16));
#1111 = DIRECTION('',(1.,0.));
#1112 = ( GEOMETRIC_REPRESENTATION_CONTEXT(2) 
PARAMETRIC_REPRESENTATION_CONTEXT() REPRESENTATION_CONTEXT('2D SPACE',''
  ) );
#1113 = PCURVE('',#303,#1114);
#1114 = DEFINITIONAL_REPRESENTATION('',(#1115),#1119);
#1115 = LINE('',#1116,#1117);
#1116 = CARTESIAN_POINT('',(6.28318530718,-28.3));
#1117 = VECTOR('',#1118,1.);
#1118 = DIRECTION('',(-1.,0.));
#1119 = ( GEOMETRIC_REPRESENTATION_CONTEXT(2) 
PARAMETRIC_REPRESENTATION_CONTEXT() REPRESENTATION_CONTEXT('2D SPACE',''
  ) );
#1120 = ORIENTED_EDGE('',*,*,#591,.T.);
#1121 = ORIENTED_EDGE('',*,*,#1122,.T.);
#1122 = EDGE_CURVE('',#566,#1123,#1125,.T.);
#1123 = VERTEX_POINT('',#1124);
#1124 = CARTESIAN_POINT('',(36.75,-0.75,109.));
#1125 = SURFACE_CURVE('',#1126,(#1131,#1142),.PCURVE_S1.);
#1126 = CIRCLE('',#1127,0.75);
#1127 = AXIS2_PLACEMENT_3D('',#1128,#1129,#1130);
#1128 = CARTESIAN_POINT('',(36.75,0.,109.));
#1129 = DIRECTION('',(0.,0.,-1.));
#1130 = DIRECTION('',(0.,1.,0.));
#1131 = PCURVE('',#329,#1132);
#1132 = DEFINITIONAL_REPRESENTATION('',(#1133),#1141);
#1133 = ( BOUNDED_CURVE() B_SPLINE_CURVE(2,(#1134,#1135,#1136,#1137,
#1138,#1139,#1140),.UNSPECIFIED.,.T.,.F.) B_SPLINE_CURVE_WITH_KNOTS((1,2
    ,2,2,2,1),(-2.094395102393,0.,2.094395102393,4.188790204786,
6.28318530718,8.377580409573),.UNSPECIFIED.) CURVE() 
GEOMETRIC_REPRESENTATION_ITEM() RATIONAL_B_SPLINE_CURVE((1.,0.5,1.,0.5,
1.,0.5,1.)) REPRESENTATION_ITEM('') );
#1134 = CARTESIAN_POINT('',(36.75,0.75));
#1135 = CARTESIAN_POINT('',(38.049038105677,0.75));
#1136 = CARTESIAN_POINT('',(37.399519052838,-0.375));
#1137 = CARTESIAN_POINT('',(36.75,-1.5));
#1138 = CARTESIAN_POINT('',(36.100480947162,-0.375));
#1139 = CARTESIAN_POINT('',(35.450961894323,0.75));
#1140 = CARTESIAN_POINT('',(36.75,0.75));
#1141 = ( GEOMETRIC_REPRESENTATION_CONTEXT(2) 
PARAMETRIC_REPRESENTATION_CONTEXT() REPRESENTATION_CONTEXT('2D SPACE',''
  ) );
#1142 = PCURVE('',#580,#1143);
#1143 = DEFINITIONAL_REPRESENTATION('',(#1144),#1148);
#1144 = LINE('',#1145,#1146);
#1145 = CARTESIAN_POINT('',(0.,-109.));
#1146 = VECTOR('',#1147,1.);
#1147 = DIRECTION('',(1.,0.));
#1148 = ( GEOMETRIC_REPRESENTATION_CONTEXT(2) 
PARAMETRIC_REPRESENTATION_CONTEXT() REPRESENTATION_CONTEXT('2D SPACE',''
  ) );
#1149 = ORIENTED_EDGE('',*,*,#1150,.T.);
#1150 = EDGE_CURVE('',#1123,#1047,#1151,.T.);
#1151 = SURFACE_CURVE('',#1152,(#1156,#1163),.PCURVE_S1.);
#1152 = LINE('',#1153,#1154);
#1153 = CARTESIAN_POINT('',(36.75,-0.75,109.));
#1154 = VECTOR('',#1155,1.);
#1155 = DIRECTION('',(-1.,0.,0.));
#1156 = PCURVE('',#329,#1157);
#1157 = DEFINITIONAL_REPRESENTATION('',(#1158),#1162);
#1158 = LINE('',#1159,#1160);
#1159 = CARTESIAN_POINT('',(36.75,-0.75));
#1160 = VECTOR('',#1161,1.);
#1161 = DIRECTION('',(-1.,0.));
#1162 = ( GEOMETRIC_REPRESENTATION_CONTEXT(2) 
PARAMETRIC_REPRESENTATION_CONTEXT() REPRESENTATION_CONTEXT('2D SPACE',''
  ) );
#1163 = PCURVE('',#927,#1164);
#1164 = DEFINITIONAL_REPRESENTATION('',(#1165),#1169);
#1165 = LINE('',#1166,#1167);
#1166 = CARTESIAN_POINT('',(0.,-109.));
#1167 = VECTOR('',#1168,1.);
#1168 = DIRECTION('',(1.,0.));
#1169 = ( GEOMETRIC_REPRESENTATION_CONTEXT(2) 
PARAMETRIC_REPRESENTATION_CONTEXT() REPRESENTATION_CONTEXT('2D SPACE',''
  ) );
#1170 = ORIENTED_EDGE('',*,*,#1069,.T.);
#1171 = ORIENTED_EDGE('',*,*,#314,.T.);
#1172 = ADVANCED_FACE('',(#1173),#303,.T.);
#1173 = FACE_BOUND('',#1174,.T.);
#1174 = EDGE_LOOP('',(#1175,#1197,#1198,#1199));
#1175 = ORIENTED_EDGE('',*,*,#1176,.T.);
#1176 = EDGE_CURVE('',#263,#613,#1177,.T.);
#1177 = SURFACE_CURVE('',#1178,(#1183,#1190),.PCURVE_S1.);
#1178 = CIRCLE('',#1179,39.75);
#1179 = AXIS2_PLACEMENT_3D('',#1180,#1181,#1182);
#1180 = CARTESIAN_POINT('',(0.,0.,80.7));
#1181 = DIRECTION('',(0.,0.,1.));
#1182 = DIRECTION('',(1.,0.,-0.));
#1183 = PCURVE('',#303,#1184);
#1184 = DEFINITIONAL_REPRESENTATION('',(#1185),#1189);
#1185 = LINE('',#1186,#1187);
#1186 = CARTESIAN_POINT('',(6.28318530718,0.));
#1187 = VECTOR('',#1188,1.);
#1188 = DIRECTION('',(-1.,0.));
#1189 = ( GEOMETRIC_REPRESENTATION_CONTEXT(2) 
PARAMETRIC_REPRESENTATION_CONTEXT() REPRESENTATION_CONTEXT('2D SPACE',''
  ) );
#1190 = PCURVE('',#277,#1191);
#1191 = DEFINITIONAL_REPRESENTATION('',(#1192),#1196);
#1192 = CIRCLE('',#1193,39.75);
#1193 = AXIS2_PLACEMENT_2D('',#1194,#1195);
#1194 = CARTESIAN_POINT('',(2.933502854163E-15,-4.040240899597E-15));
#1195 = DIRECTION('',(1.,0.));
#1196 = ( GEOMETRIC_REPRESENTATION_CONTEXT(2) 
PARAMETRIC_REPRESENTATION_CONTEXT() REPRESENTATION_CONTEXT('2D SPACE',''
  ) );
#1197 = ORIENTED_EDGE('',*,*,#612,.T.);
#1198 = ORIENTED_EDGE('',*,*,#1099,.F.);
#1199 = ORIENTED_EDGE('',*,*,#288,.T.);
#1200 = ADVANCED_FACE('',(#1201),#277,.T.);
#1201 = FACE_BOUND('',#1202,.T.);
#1202 = EDGE_LOOP('',(#1203,#1225,#1226,#1227));
#1203 = ORIENTED_EDGE('',*,*,#1204,.T.);
#1204 = EDGE_CURVE('',#237,#636,#1205,.T.);
#1205 = SURFACE_CURVE('',#1206,(#1211,#1218),.PCURVE_S1.);
#1206 = CIRCLE('',#1207,44.75);
#1207 = AXIS2_PLACEMENT_3D('',#1208,#1209,#1210);
#1208 = CARTESIAN_POINT('',(0.,0.,80.7));
#1209 = DIRECTION('',(0.,0.,1.));
#1210 = DIRECTION('',(1.,0.,-0.));
#1211 = PCURVE('',#277,#1212);
#1212 = DEFINITIONAL_REPRESENTATION('',(#1213),#1217);
#1213 = CIRCLE('',#1214,44.75);
#1214 = AXIS2_PLACEMENT_2D('',#1215,#1216);
#1215 = CARTESIAN_POINT('',(2.933502854163E-15,-4.040240899597E-15));
#1216 = DIRECTION('',(1.,0.));
#1217 = ( GEOMETRIC_REPRESENTATION_CONTEXT(2) 
PARAMETRIC_REPRESENTATION_CONTEXT() REPRESENTATION_CONTEXT('2D SPACE',''
  ) );
#1218 = PCURVE('',#251,#1219);
#1219 = DEFINITIONAL_REPRESENTATION('',(#1220),#1224);
#1220 = LINE('',#1221,#1222);
#1221 = CARTESIAN_POINT('',(6.28318530718,-10.8));
#1222 = VECTOR('',#1223,1.);
#1223 = DIRECTION('',(-1.,0.));
#1224 = ( GEOMETRIC_REPRESENTATION_CONTEXT(2) 
PARAMETRIC_REPRESENTATION_CONTEXT() REPRESENTATION_CONTEXT('2D SPACE',''
  ) );
#1225 = ORIENTED_EDGE('',*,*,#635,.T.);
#1226 = ORIENTED_EDGE('',*,*,#1176,.F.);
#1227 = ORIENTED_EDGE('',*,*,#262,.T.);
#1228 = ADVANCED_FACE('',(#1229),#251,.T.);
#1229 = FACE_BOUND('',#1230,.T.);
#1230 = EDGE_LOOP('',(#1231,#1232,#1233,#1234));
#1231 = ORIENTED_EDGE('',*,*,#514,.T.);
#1232 = ORIENTED_EDGE('',*,*,#656,.T.);
#1233 = ORIENTED_EDGE('',*,*,#1204,.F.);
#1234 = ORIENTED_EDGE('',*,*,#236,.T.);
#1235 = ADVANCED_FACE('',(#1236),#406,.F.);
#1236 = FACE_BOUND('',#1237,.F.);
#1237 = EDGE_LOOP('',(#1238,#1239,#1261,#1262));
#1238 = ORIENTED_EDGE('',*,*,#388,.F.);
#1239 = ORIENTED_EDGE('',*,*,#1240,.F.);
#1240 = EDGE_CURVE('',#419,#389,#1241,.T.);
#1241 = SURFACE_CURVE('',#1242,(#1247,#1254),.PCURVE_S1.);
#1242 = CIRCLE('',#1243,0.89);
#1243 = AXIS2_PLACEMENT_3D('',#1244,#1245,#1246);
#1244 = CARTESIAN_POINT('',(-41.5,0.,54.5));
#1245 = DIRECTION('',(0.,0.,1.));
#1246 = DIRECTION('',(1.,0.,-0.));
#1247 = PCURVE('',#406,#1248);
#1248 = DEFINITIONAL_REPRESENTATION('',(#1249),#1253);
#1249 = LINE('',#1250,#1251);
#1250 = CARTESIAN_POINT('',(0.,0.));
#1251 = VECTOR('',#1252,1.);
#1252 = DIRECTION('',(1.,0.));
#1253 = ( GEOMETRIC_REPRESENTATION_CONTEXT(2) 
PARAMETRIC_REPRESENTATION_CONTEXT() REPRESENTATION_CONTEXT('2D SPACE',''
  ) );
#1254 = PCURVE('',#433,#1255);
#1255 = DEFINITIONAL_REPRESENTATION('',(#1256),#1260);
#1256 = CIRCLE('',#1257,0.89);
#1257 = AXIS2_PLACEMENT_2D('',#1258,#1259);
#1258 = CARTESIAN_POINT('',(0.,-1.168286122289E-17));
#1259 = DIRECTION('',(1.,0.));
#1260 = ( GEOMETRIC_REPRESENTATION_CONTEXT(2) 
PARAMETRIC_REPRESENTATION_CONTEXT() REPRESENTATION_CONTEXT('2D SPACE',''
  ) );
#1261 = ORIENTED_EDGE('',*,*,#444,.F.);
#1262 = ORIENTED_EDGE('',*,*,#1263,.T.);
#1263 = EDGE_CURVE('',#445,#391,#1264,.T.);
#1264 = SURFACE_CURVE('',#1265,(#1270,#1277),.PCURVE_S1.);
#1265 = CIRCLE('',#1266,0.89);
#1266 = AXIS2_PLACEMENT_3D('',#1267,#1268,#1269);
#1267 = CARTESIAN_POINT('',(-41.5,0.,44.5));
#1268 = DIRECTION('',(0.,0.,1.));
#1269 = DIRECTION('',(1.,0.,-0.));
#1270 = PCURVE('',#406,#1271);
#1271 = DEFINITIONAL_REPRESENTATION('',(#1272),#1276);
#1272 = LINE('',#1273,#1274);
#1273 = CARTESIAN_POINT('',(0.,-10.));
#1274 = VECTOR('',#1275,1.);
#1275 = DIRECTION('',(1.,0.));
#1276 = ( GEOMETRIC_REPRESENTATION_CONTEXT(2) 
PARAMETRIC_REPRESENTATION_CONTEXT() REPRESENTATION_CONTEXT('2D SPACE',''
  ) );
#1277 = PCURVE('',#478,#1278);
#1278 = DEFINITIONAL_REPRESENTATION('',(#1279),#1283);
#1279 = CIRCLE('',#1280,0.89);
#1280 = AXIS2_PLACEMENT_2D('',#1281,#1282);
#1281 = CARTESIAN_POINT('',(0.,-1.168286122289E-17));
#1282 = DIRECTION('',(1.,0.));
#1283 = ( GEOMETRIC_REPRESENTATION_CONTEXT(2) 
PARAMETRIC_REPRESENTATION_CONTEXT() REPRESENTATION_CONTEXT('2D SPACE',''
  ) );
#1284 = ADVANCED_FACE('',(#1285),#478,.T.);
#1285 = FACE_BOUND('',#1286,.T.);
#1286 = EDGE_LOOP('',(#1287,#1288));
#1287 = ORIENTED_EDGE('',*,*,#1263,.T.);
#1288 = ORIENTED_EDGE('',*,*,#465,.T.);
#1289 = ADVANCED_FACE('',(#1290),#433,.F.);
#1290 = FACE_BOUND('',#1291,.F.);
#1291 = EDGE_LOOP('',(#1292,#1293));
#1292 = ORIENTED_EDGE('',*,*,#1240,.T.);
#1293 = ORIENTED_EDGE('',*,*,#418,.T.);
#1294 = ADVANCED_FACE('',(#1295),#580,.F.);
#1295 = FACE_BOUND('',#1296,.F.);
#1296 = EDGE_LOOP('',(#1297,#1298,#1299,#1300));
#1297 = ORIENTED_EDGE('',*,*,#786,.F.);
#1298 = ORIENTED_EDGE('',*,*,#565,.F.);
#1299 = ORIENTED_EDGE('',*,*,#1122,.T.);
#1300 = ORIENTED_EDGE('',*,*,#1301,.F.);
#1301 = EDGE_CURVE('',#787,#1123,#1302,.T.);
#1302 = SURFACE_CURVE('',#1303,(#1307,#1314),.PCURVE_S1.);
#1303 = LINE('',#1304,#1305);
#1304 = CARTESIAN_POINT('',(36.75,-0.75,0.));
#1305 = VECTOR('',#1306,1.);
#1306 = DIRECTION('',(0.,0.,1.));
#1307 = PCURVE('',#580,#1308);
#1308 = DEFINITIONAL_REPRESENTATION('',(#1309),#1313);
#1309 = LINE('',#1310,#1311);
#1310 = CARTESIAN_POINT('',(3.14159265359,0.));
#1311 = VECTOR('',#1312,1.);
#1312 = DIRECTION('',(0.,-1.));
#1313 = ( GEOMETRIC_REPRESENTATION_CONTEXT(2) 
PARAMETRIC_REPRESENTATION_CONTEXT() REPRESENTATION_CONTEXT('2D SPACE',''
  ) );
#1314 = PCURVE('',#927,#1315);
#1315 = DEFINITIONAL_REPRESENTATION('',(#1316),#1320);
#1316 = LINE('',#1317,#1318);
#1317 = CARTESIAN_POINT('',(0.,-0.));
#1318 = VECTOR('',#1319,1.);
#1319 = DIRECTION('',(0.,-1.));
#1320 = ( GEOMETRIC_REPRESENTATION_CONTEXT(2) 
PARAMETRIC_REPRESENTATION_CONTEXT() REPRESENTATION_CONTEXT('2D SPACE',''
  ) );
#1321 = ADVANCED_FACE('',(#1322),#698,.F.);
#1322 = FACE_BOUND('',#1323,.F.);
#1323 = EDGE_LOOP('',(#1324,#1325,#1347,#1348));
#1324 = ORIENTED_EDGE('',*,*,#680,.F.);
#1325 = ORIENTED_EDGE('',*,*,#1326,.F.);
#1326 = EDGE_CURVE('',#711,#681,#1327,.T.);
#1327 = SURFACE_CURVE('',#1328,(#1333,#1340),.PCURVE_S1.);
#1328 = CIRCLE('',#1329,0.89);
#1329 = AXIS2_PLACEMENT_3D('',#1330,#1331,#1332);
#1330 = CARTESIAN_POINT('',(41.5,0.,54.5));
#1331 = DIRECTION('',(0.,0.,1.));
#1332 = DIRECTION('',(1.,0.,-0.));
#1333 = PCURVE('',#698,#1334);
#1334 = DEFINITIONAL_REPRESENTATION('',(#1335),#1339);
#1335 = LINE('',#1336,#1337);
#1336 = CARTESIAN_POINT('',(0.,0.));
#1337 = VECTOR('',#1338,1.);
#1338 = DIRECTION('',(1.,0.));
#1339 = ( GEOMETRIC_REPRESENTATION_CONTEXT(2) 
PARAMETRIC_REPRESENTATION_CONTEXT() REPRESENTATION_CONTEXT('2D SPACE',''
  ) );
#1340 = PCURVE('',#725,#1341);
#1341 = DEFINITIONAL_REPRESENTATION('',(#1342),#1346);
#1342 = CIRCLE('',#1343,0.89);
#1343 = AXIS2_PLACEMENT_2D('',#1344,#1345);
#1344 = CARTESIAN_POINT('',(0.,-1.168286122289E-17));
#1345 = DIRECTION('',(1.,0.));
#1346 = ( GEOMETRIC_REPRESENTATION_CONTEXT(2) 
PARAMETRIC_REPRESENTATION_CONTEXT() REPRESENTATION_CONTEXT('2D SPACE',''
  ) );
#1347 = ORIENTED_EDGE('',*,*,#736,.F.);
#1348 = ORIENTED_EDGE('',*,*,#1349,.T.);
#1349 = EDGE_CURVE('',#737,#683,#1350,.T.);
#1350 = SURFACE_CURVE('',#1351,(#1356,#1363),.PCURVE_S1.);
#1351 = CIRCLE('',#1352,0.89);
#1352 = AXIS2_PLACEMENT_3D('',#1353,#1354,#1355);
#1353 = CARTESIAN_POINT('',(41.5,0.,44.5));
#1354 = DIRECTION('',(0.,0.,1.));
#1355 = DIRECTION('',(1.,0.,-0.));
#1356 = PCURVE('',#698,#1357);
#1357 = DEFINITIONAL_REPRESENTATION('',(#1358),#1362);
#1358 = LINE('',#1359,#1360);
#1359 = CARTESIAN_POINT('',(0.,-10.));
#1360 = VECTOR('',#1361,1.);
#1361 = DIRECTION('',(1.,0.));
#1362 = ( GEOMETRIC_REPRESENTATION_CONTEXT(2) 
PARAMETRIC_REPRESENTATION_CONTEXT() REPRESENTATION_CONTEXT('2D SPACE',''
  ) );
#1363 = PCURVE('',#770,#1364);
#1364 = DEFINITIONAL_REPRESENTATION('',(#1365),#1369);
#1365 = CIRCLE('',#1366,0.89);
#1366 = AXIS2_PLACEMENT_2D('',#1367,#1368);
#1367 = CARTESIAN_POINT('',(0.,-1.168286122289E-17));
#1368 = DIRECTION('',(1.,0.));
#1369 = ( GEOMETRIC_REPRESENTATION_CONTEXT(2) 
PARAMETRIC_REPRESENTATION_CONTEXT() REPRESENTATION_CONTEXT('2D SPACE',''
  ) );
#1370 = ADVANCED_FACE('',(#1371),#770,.T.);
#1371 = FACE_BOUND('',#1372,.T.);
#1372 = EDGE_LOOP('',(#1373,#1374));
#1373 = ORIENTED_EDGE('',*,*,#1349,.T.);
#1374 = ORIENTED_EDGE('',*,*,#757,.T.);
#1375 = ADVANCED_FACE('',(#1376),#725,.F.);
#1376 = FACE_BOUND('',#1377,.F.);
#1377 = EDGE_LOOP('',(#1378,#1379));
#1378 = ORIENTED_EDGE('',*,*,#1326,.T.);
#1379 = ORIENTED_EDGE('',*,*,#710,.T.);
#1380 = ADVANCED_FACE('',(#1381),#927,.F.);
#1381 = FACE_BOUND('',#1382,.F.);
#1382 = EDGE_LOOP('',(#1383,#1384,#1385,#1386));
#1383 = ORIENTED_EDGE('',*,*,#848,.T.);
#1384 = ORIENTED_EDGE('',*,*,#1301,.T.);
#1385 = ORIENTED_EDGE('',*,*,#1150,.T.);
#1386 = ORIENTED_EDGE('',*,*,#1046,.F.);
#1387 = ( GEOMETRIC_REPRESENTATION_CONTEXT(3) 
GLOBAL_UNCERTAINTY_ASSIGNED_CONTEXT((#1391)) 
GLOBAL_UNIT_ASSIGNED_CONTEXT((#1388,#1389,#1390)) REPRESENTATION_CONTEXT
('Context #1','3D Context with UNIT and UNCERTAINTY') );
#1388 = ( LENGTH_UNIT() NAMED_UNIT(*) SI_UNIT(.MILLI.,.METRE.) );
#1389 = ( NAMED_UNIT(*) PLANE_ANGLE_UNIT() SI_UNIT($,.RADIAN.) );
#1390 = ( NAMED_UNIT(*) SI_UNIT($,.STERADIAN.) SOLID_ANGLE_UNIT() );
#1391 = UNCERTAINTY_MEASURE_WITH_UNIT(LENGTH_MEASURE(1.E-07),#1388,
  'distance_accuracy_value','confusion accuracy');
#1392 = PRODUCT_RELATED_PRODUCT_CATEGORY('part',$,(#7));
ENDSEC;
END-ISO-10303-21;
