ISO-10303-21;
HEADER;
FILE_DESCRIPTION(('Open CASCADE Model'),'2;1');
FILE_NAME('Open CASCADE Shape Model','2026-09-13T04:25:20',('Author'),(
    'Open CASCADE'),'Open CASCADE STEP processor 7.9','Open CASCADE 7.9'
  ,'Unknown');
FILE_SCHEMA(('AUTOMOTIVE_DESIGN { 1 0 10303 214 1 1 1 1 }'));
ENDSEC;
DATA;
#1 = APPLICATION_PROTOCOL_DEFINITION('international standard',
  'automotive_design',2000,#2);
#2 = APPLICATION_CONTEXT(
  'core data for automotive mechanical design processes');
#3 = SHAPE_DEFINITION_REPRESENTATION(#4,#10);
#4 = PRODUCT_DEFINITION_SHAPE('','',#5);
#5 = PRODUCT_DEFINITION('design','',#6,#9);
#6 = PRODUCT_DEFINITION_FORMATION('','',#7);
#7 = PRODUCT('Open CASCADE STEP translator 7.9 2',
  'Open CASCADE STEP translator 7.9 2','',(#8));
#8 = PRODUCT_CONTEXT('',#2,'mechanical');
#9 = PRODUCT_DEFINITION_CONTEXT('part definition',#2,'design');
#10 = ADVANCED_BREP_SHAPE_REPRESENTATION('',(#11,#15),#1387);
#11 = AXIS2_PLACEMENT_3D('',#12,#13,#14);
#12 = CARTESIAN_POINT('',(0.,0.,0.));
#13 = DIRECTION('',(0.,0.,1.));
#14 = DIRECTION('',(1.,0.,-0.));
#15 = MANIFOLD_SOLID_BREP('',#16);
#16 = CLOSED_SHELL('',(#17,#137,#446,#494,#752,#780,#808,#836,#864,#952,
    #1040,#1235,#1284,#1289,#1294,#1321,#1370,#1375,#1380));
#17 = ADVANCED_FACE('',(#18),#32,.T.);
#18 = FACE_BOUND('',#19,.T.);
#19 = EDGE_LOOP('',(#20,#55,#84,#110));
#20 = ORIENTED_EDGE('',*,*,#21,.F.);
#21 = EDGE_CURVE('',#22,#24,#26,.T.);
#22 = VERTEX_POINT('',#23);
#23 = CARTESIAN_POINT('',(46.5,0.,0.));
#24 = VERTEX_POINT('',#25);
#25 = CARTESIAN_POINT('',(46.5,0.,69.9));
#26 = SURFACE_CURVE('',#27,(#31,#43),.PCURVE_S1.);
#27 = LINE('',#28,#29);
#28 = CARTESIAN_POINT('',(46.5,0.,0.));
#29 = VECTOR('',#30,1.);
#30 = DIRECTION('',(0.,0.,1.));
#31 = PCURVE('',#32,#37);
#32 = CYLINDRICAL_SURFACE('',#33,46.5);
#33 = AXIS2_PLACEMENT_3D('',#34,#35,#36);
#34 = CARTESIAN_POINT('',(0.,0.,0.));
#35 = DIRECTION('',(-0.,-0.,-1.));
#36 = DIRECTION('',(1.,0.,0.));
#37 = DEFINITIONAL_REPRESENTATION('',(#38),#42);
#38 = LINE('',#39,#40);
#39 = CARTESIAN_POINT('',(6.28318530718,0.));
#40 = VECTOR('',#41,1.);
#41 = DIRECTION('',(-0.,-1.));
#42 = ( GEOMETRIC_REPRESENTATION_CONTEXT(2) 
PARAMETRIC_REPRESENTATION_CONTEXT() REPRESENTATION_CONTEXT('2D SPACE',''
  ) );
#43 = PCURVE('',#44,#49);
#44 = PLANE('',#45);
#45 = AXIS2_PLACEMENT_3D('',#46,#47,#48);
#46 = CARTESIAN_POINT('',(-300.,0.,-300.));
#47 = DIRECTION('',(0.,1.,0.));
#48 = DIRECTION('',(0.,0.,1.));
#49 = DEFINITIONAL_REPRESENTATION('',(#50),#54);
#50 = LINE('',#51,#52);
#51 = CARTESIAN_POINT('',(300.,346.5));
#52 = VECTOR('',#53,1.);
#53 = DIRECTION('',(1.,0.));
#54 = ( GEOMETRIC_REPRESENTATION_CONTEXT(2) 
PARAMETRIC_REPRESENTATION_CONTEXT() REPRESENTATION_CONTEXT('2D SPACE',''
  ) );
#55 = ORIENTED_EDGE('',*,*,#56,.T.);
#56 = EDGE_CURVE('',#22,#57,#59,.T.);
#57 = VERTEX_POINT('',#58);
#58 = CARTESIAN_POINT('',(-46.5,5.694607616035E-15,0.));
#59 = SURFACE_CURVE('',#60,(#65,#72),.PCURVE_S1.);
#60 = CIRCLE('',#61,46.5);
#61 = AXIS2_PLACEMENT_3D('',#62,#63,#64);
#62 = CARTESIAN_POINT('',(0.,0.,0.));
#63 = DIRECTION('',(0.,0.,1.));
#64 = DIRECTION('',(1.,0.,-0.));
#65 = PCURVE('',#32,#66);
#66 = DEFINITIONAL_REPRESENTATION('',(#67),#71);
#67 = LINE('',#68,#69);
#68 = CARTESIAN_POINT('',(6.28318530718,0.));
#69 = VECTOR('',#70,1.);
#70 = DIRECTION('',(-1.,0.));
#71 = ( GEOMETRIC_REPRESENTATION_CONTEXT(2) 
PARAMETRIC_REPRESENTATION_CONTEXT() REPRESENTATION_CONTEXT('2D SPACE',''
  ) );
#72 = PCURVE('',#73,#78);
#73 = PLANE('',#74);
#74 = AXIS2_PLACEMENT_3D('',#75,#76,#77);
#75 = CARTESIAN_POINT('',(-1.882068139409E-15,-1.61343992693E-17,0.));
#76 = DIRECTION('',(0.,0.,1.));
#77 = DIRECTION('',(1.,0.,-0.));
#78 = DEFINITIONAL_REPRESENTATION('',(#79),#83);
#79 = CIRCLE('',#80,46.5);
#80 = AXIS2_PLACEMENT_2D('',#81,#82);
#81 = CARTESIAN_POINT('',(1.882068139409E-15,1.61343992693E-17));
#82 = DIRECTION('',(1.,0.));
#83 = ( GEOMETRIC_REPRESENTATION_CONTEXT(2) 
PARAMETRIC_REPRESENTATION_CONTEXT() REPRESENTATION_CONTEXT('2D SPACE',''
  ) );
#84 = ORIENTED_EDGE('',*,*,#85,.F.);
#85 = EDGE_CURVE('',#86,#57,#88,.T.);
#86 = VERTEX_POINT('',#87);
#87 = CARTESIAN_POINT('',(-46.5,5.694607616035E-15,69.9));
#88 = SURFACE_CURVE('',#89,(#93,#99),.PCURVE_S1.);
#89 = LINE('',#90,#91);
#90 = CARTESIAN_POINT('',(-46.5,0.,0.));
#91 = VECTOR('',#92,1.);
#92 = DIRECTION('',(-0.,-0.,-1.));
#93 = PCURVE('',#32,#94);
#94 = DEFINITIONAL_REPRESENTATION('',(#95),#98);
#95 = B_SPLINE_CURVE_WITH_KNOTS('',1,(#96,#97),.UNSPECIFIED.,.F.,.F.,(2,
    2),(-69.9000006,6.E-07),.PIECEWISE_BEZIER_KNOTS.);
#96 = CARTESIAN_POINT('',(3.14159265359,-69.9000006));
#97 = CARTESIAN_POINT('',(3.14159265359,6.E-07));
#98 = ( GEOMETRIC_REPRESENTATION_CONTEXT(2) 
PARAMETRIC_REPRESENTATION_CONTEXT() REPRESENTATION_CONTEXT('2D SPACE',''
  ) );
#99 = PCURVE('',#100,#105);
#100 = PLANE('',#101);
#101 = AXIS2_PLACEMENT_3D('',#102,#103,#104);
#102 = CARTESIAN_POINT('',(-300.,0.,-300.));
#103 = DIRECTION('',(0.,1.,0.));
#104 = DIRECTION('',(0.,0.,1.));
#105 = DEFINITIONAL_REPRESENTATION('',(#106),#109);
#106 = B_SPLINE_CURVE_WITH_KNOTS('',1,(#107,#108),.UNSPECIFIED.,.F.,.F.,
  (2,2),(-69.9000006,6.E-07),.PIECEWISE_BEZIER_KNOTS.);
#107 = CARTESIAN_POINT('',(369.9000006,253.5));
#108 = CARTESIAN_POINT('',(299.9999994,253.5));
#109 = ( GEOMETRIC_REPRESENTATION_CONTEXT(2) 
PARAMETRIC_REPRESENTATION_CONTEXT() REPRESENTATION_CONTEXT('2D SPACE',''
  ) );
#110 = ORIENTED_EDGE('',*,*,#111,.F.);
#111 = EDGE_CURVE('',#24,#86,#112,.T.);
#112 = SURFACE_CURVE('',#113,(#118,#125),.PCURVE_S1.);
#113 = CIRCLE('',#114,46.5);
#114 = AXIS2_PLACEMENT_3D('',#115,#116,#117);
#115 = CARTESIAN_POINT('',(0.,0.,69.9));
#116 = DIRECTION('',(0.,0.,1.));
#117 = DIRECTION('',(1.,0.,-0.));
#118 = PCURVE('',#32,#119);
#119 = DEFINITIONAL_REPRESENTATION('',(#120),#124);
#120 = LINE('',#121,#122);
#121 = CARTESIAN_POINT('',(6.28318530718,-69.9));
#122 = VECTOR('',#123,1.);
#123 = DIRECTION('',(-1.,0.));
#124 = ( GEOMETRIC_REPRESENTATION_CONTEXT(2) 
PARAMETRIC_REPRESENTATION_CONTEXT() REPRESENTATION_CONTEXT('2D SPACE',''
  ) );
#125 = PCURVE('',#126,#131);
#126 = PLANE('',#127);
#127 = AXIS2_PLACEMENT_3D('',#128,#129,#130);
#128 = CARTESIAN_POINT('',(-1.882068139409E-15,-1.61343992693E-17,69.9)
  );
#129 = DIRECTION('',(0.,0.,1.));
#130 = DIRECTION('',(1.,0.,-0.));
#131 = DEFINITIONAL_REPRESENTATION('',(#132),#136);
#132 = CIRCLE('',#133,46.5);
#133 = AXIS2_PLACEMENT_2D('',#134,#135);
#134 = CARTESIAN_POINT('',(1.882068139409E-15,1.61343992693E-17));
#135 = DIRECTION('',(1.,0.));
#136 = ( GEOMETRIC_REPRESENTATION_CONTEXT(2) 
PARAMETRIC_REPRESENTATION_CONTEXT() REPRESENTATION_CONTEXT('2D SPACE',''
  ) );
#137 = ADVANCED_FACE('',(#138,#343),#44,.F.);
#138 = FACE_BOUND('',#139,.F.);
#139 = EDGE_LOOP('',(#140,#141,#162,#190,#216,#242,#270,#296,#324));
#140 = ORIENTED_EDGE('',*,*,#21,.F.);
#141 = ORIENTED_EDGE('',*,*,#142,.T.);
#142 = EDGE_CURVE('',#22,#143,#145,.T.);
#143 = VERTEX_POINT('',#144);
#144 = CARTESIAN_POINT('',(37.8,0.,0.));
#145 = SURFACE_CURVE('',#146,(#150,#156),.PCURVE_S1.);
#146 = LINE('',#147,#148);
#147 = CARTESIAN_POINT('',(-150.,0.,0.));
#148 = VECTOR('',#149,1.);
#149 = DIRECTION('',(-1.,0.,0.));
#150 = PCURVE('',#44,#151);
#151 = DEFINITIONAL_REPRESENTATION('',(#152),#155);
#152 = B_SPLINE_CURVE_WITH_KNOTS('',1,(#153,#154),.UNSPECIFIED.,.F.,.F.,
  (2,2),(-196.5,-103.5),.PIECEWISE_BEZIER_KNOTS.);
#153 = CARTESIAN_POINT('',(300.,346.5));
#154 = CARTESIAN_POINT('',(300.,253.5));
#155 = ( GEOMETRIC_REPRESENTATION_CONTEXT(2) 
PARAMETRIC_REPRESENTATION_CONTEXT() REPRESENTATION_CONTEXT('2D SPACE',''
  ) );
#156 = PCURVE('',#73,#157);
#157 = DEFINITIONAL_REPRESENTATION('',(#158),#161);
#158 = B_SPLINE_CURVE_WITH_KNOTS('',1,(#159,#160),.UNSPECIFIED.,.F.,.F.,
  (2,2),(-196.5,-103.5),.PIECEWISE_BEZIER_KNOTS.);
#159 = CARTESIAN_POINT('',(46.5,1.61343992693E-17));
#160 = CARTESIAN_POINT('',(-46.5,1.61343992693E-17));
#161 = ( GEOMETRIC_REPRESENTATION_CONTEXT(2) 
PARAMETRIC_REPRESENTATION_CONTEXT() REPRESENTATION_CONTEXT('2D SPACE',''
  ) );
#162 = ORIENTED_EDGE('',*,*,#163,.T.);
#163 = EDGE_CURVE('',#143,#164,#166,.T.);
#164 = VERTEX_POINT('',#165);
#165 = CARTESIAN_POINT('',(37.5,0.,0.169841269841));
#166 = SURFACE_CURVE('',#167,(#171,#178),.PCURVE_S1.);
#167 = LINE('',#168,#169);
#168 = CARTESIAN_POINT('',(37.8,0.,0.));
#169 = VECTOR('',#170,1.);
#170 = DIRECTION('',(-0.870219610714,0.,0.492664012415));
#171 = PCURVE('',#44,#172);
#172 = DEFINITIONAL_REPRESENTATION('',(#173),#177);
#173 = LINE('',#174,#175);
#174 = CARTESIAN_POINT('',(300.,337.8));
#175 = VECTOR('',#176,1.);
#176 = DIRECTION('',(0.492664012415,-0.870219610714));
#177 = ( GEOMETRIC_REPRESENTATION_CONTEXT(2) 
PARAMETRIC_REPRESENTATION_CONTEXT() REPRESENTATION_CONTEXT('2D SPACE',''
  ) );
#178 = PCURVE('',#179,#184);
#179 = CONICAL_SURFACE('',#180,37.8,1.055647906843);
#180 = AXIS2_PLACEMENT_3D('',#181,#182,#183);
#181 = CARTESIAN_POINT('',(0.,0.,0.));
#182 = DIRECTION('',(-0.,-0.,-1.));
#183 = DIRECTION('',(1.,0.,-0.));
#184 = DEFINITIONAL_REPRESENTATION('',(#185),#189);
#185 = LINE('',#186,#187);
#186 = CARTESIAN_POINT('',(6.28318530718,0.));
#187 = VECTOR('',#188,1.);
#188 = DIRECTION('',(-0.,-1.));
#189 = ( GEOMETRIC_REPRESENTATION_CONTEXT(2) 
PARAMETRIC_REPRESENTATION_CONTEXT() REPRESENTATION_CONTEXT('2D SPACE',''
  ) );
#190 = ORIENTED_EDGE('',*,*,#191,.F.);
#191 = EDGE_CURVE('',#192,#164,#194,.T.);
#192 = VERTEX_POINT('',#193);
#193 = CARTESIAN_POINT('',(37.5,4.592425496803E-17,109.));
#194 = SURFACE_CURVE('',#195,(#199,#205),.PCURVE_S1.);
#195 = LINE('',#196,#197);
#196 = CARTESIAN_POINT('',(37.5,0.,0.));
#197 = VECTOR('',#198,1.);
#198 = DIRECTION('',(0.,0.,-1.));
#199 = PCURVE('',#44,#200);
#200 = DEFINITIONAL_REPRESENTATION('',(#201),#204);
#201 = B_SPLINE_CURVE_WITH_KNOTS('',1,(#202,#203),.UNSPECIFIED.,.F.,.F.,
  (2,2),(-109.0000006,-0.169840669841),.PIECEWISE_BEZIER_KNOTS.);
#202 = CARTESIAN_POINT('',(409.0000006,337.5));
#203 = CARTESIAN_POINT('',(300.16984066984,337.5));
#204 = ( GEOMETRIC_REPRESENTATION_CONTEXT(2) 
PARAMETRIC_REPRESENTATION_CONTEXT() REPRESENTATION_CONTEXT('2D SPACE',''
  ) );
#205 = PCURVE('',#206,#211);
#206 = CYLINDRICAL_SURFACE('',#207,0.75);
#207 = AXIS2_PLACEMENT_3D('',#208,#209,#210);
#208 = CARTESIAN_POINT('',(36.75,0.,0.));
#209 = DIRECTION('',(0.,0.,-1.));
#210 = DIRECTION('',(0.,1.,0.));
#211 = DEFINITIONAL_REPRESENTATION('',(#212),#215);
#212 = B_SPLINE_CURVE_WITH_KNOTS('',1,(#213,#214),.UNSPECIFIED.,.F.,.F.,
  (2,2),(-109.0000006,-0.169840669841),.PIECEWISE_BEZIER_KNOTS.);
#213 = CARTESIAN_POINT('',(1.570796326795,-109.0000006));
#214 = CARTESIAN_POINT('',(1.570796326795,-0.169840669841));
#215 = ( GEOMETRIC_REPRESENTATION_CONTEXT(2) 
PARAMETRIC_REPRESENTATION_CONTEXT() REPRESENTATION_CONTEXT('2D SPACE',''
  ) );
#216 = ORIENTED_EDGE('',*,*,#217,.F.);
#217 = EDGE_CURVE('',#218,#192,#220,.T.);
#218 = VERTEX_POINT('',#219);
#219 = CARTESIAN_POINT('',(39.75,0.,109.));
#220 = SURFACE_CURVE('',#221,(#225,#231),.PCURVE_S1.);
#221 = LINE('',#222,#223);
#222 = CARTESIAN_POINT('',(-150.,0.,109.));
#223 = VECTOR('',#224,1.);
#224 = DIRECTION('',(-1.,0.,0.));
#225 = PCURVE('',#44,#226);
#226 = DEFINITIONAL_REPRESENTATION('',(#227),#230);
#227 = B_SPLINE_CURVE_WITH_KNOTS('',1,(#228,#229),.UNSPECIFIED.,.F.,.F.,
  (2,2),(-189.75,-110.25),.PIECEWISE_BEZIER_KNOTS.);
#228 = CARTESIAN_POINT('',(409.,339.75));
#229 = CARTESIAN_POINT('',(409.,260.25));
#230 = ( GEOMETRIC_REPRESENTATION_CONTEXT(2) 
PARAMETRIC_REPRESENTATION_CONTEXT() REPRESENTATION_CONTEXT('2D SPACE',''
  ) );
#231 = PCURVE('',#232,#237);
#232 = PLANE('',#233);
#233 = AXIS2_PLACEMENT_3D('',#234,#235,#236);
#234 = CARTESIAN_POINT('',(-4.403329231825E-15,5.790076070423E-16,109.)
  );
#235 = DIRECTION('',(0.,0.,1.));
#236 = DIRECTION('',(1.,0.,-0.));
#237 = DEFINITIONAL_REPRESENTATION('',(#238),#241);
#238 = B_SPLINE_CURVE_WITH_KNOTS('',1,(#239,#240),.UNSPECIFIED.,.F.,.F.,
  (2,2),(-189.75,-110.25),.PIECEWISE_BEZIER_KNOTS.);
#239 = CARTESIAN_POINT('',(39.75,-5.790076070423E-16));
#240 = CARTESIAN_POINT('',(-39.75,-5.790076070423E-16));
#241 = ( GEOMETRIC_REPRESENTATION_CONTEXT(2) 
PARAMETRIC_REPRESENTATION_CONTEXT() REPRESENTATION_CONTEXT('2D SPACE',''
  ) );
#242 = ORIENTED_EDGE('',*,*,#243,.F.);
#243 = EDGE_CURVE('',#244,#218,#246,.T.);
#244 = VERTEX_POINT('',#245);
#245 = CARTESIAN_POINT('',(39.75,0.,80.7));
#246 = SURFACE_CURVE('',#247,(#251,#258),.PCURVE_S1.);
#247 = LINE('',#248,#249);
#248 = CARTESIAN_POINT('',(39.75,0.,80.7));
#249 = VECTOR('',#250,1.);
#250 = DIRECTION('',(0.,0.,1.));
#251 = PCURVE('',#44,#252);
#252 = DEFINITIONAL_REPRESENTATION('',(#253),#257);
#253 = LINE('',#254,#255);
#254 = CARTESIAN_POINT('',(380.7,339.75));
#255 = VECTOR('',#256,1.);
#256 = DIRECTION('',(1.,0.));
#257 = ( GEOMETRIC_REPRESENTATION_CONTEXT(2) 
PARAMETRIC_REPRESENTATION_CONTEXT() REPRESENTATION_CONTEXT('2D SPACE',''
  ) );
#258 = PCURVE('',#259,#264);
#259 = CYLINDRICAL_SURFACE('',#260,39.75);
#260 = AXIS2_PLACEMENT_3D('',#261,#262,#263);
#261 = CARTESIAN_POINT('',(0.,0.,80.7));
#262 = DIRECTION('',(-0.,-0.,-1.));
#263 = DIRECTION('',(1.,0.,0.));
#264 = DEFINITIONAL_REPRESENTATION('',(#265),#269);
#265 = LINE('',#266,#267);
#266 = CARTESIAN_POINT('',(6.28318530718,0.));
#267 = VECTOR('',#268,1.);
#268 = DIRECTION('',(-0.,-1.));
#269 = ( GEOMETRIC_REPRESENTATION_CONTEXT(2) 
PARAMETRIC_REPRESENTATION_CONTEXT() REPRESENTATION_CONTEXT('2D SPACE',''
  ) );
#270 = ORIENTED_EDGE('',*,*,#271,.F.);
#271 = EDGE_CURVE('',#272,#244,#274,.T.);
#272 = VERTEX_POINT('',#273);
#273 = CARTESIAN_POINT('',(44.75,0.,80.7));
#274 = SURFACE_CURVE('',#275,(#279,#285),.PCURVE_S1.);
#275 = LINE('',#276,#277);
#276 = CARTESIAN_POINT('',(-150.,0.,80.7));
#277 = VECTOR('',#278,1.);
#278 = DIRECTION('',(-1.,0.,0.));
#279 = PCURVE('',#44,#280);
#280 = DEFINITIONAL_REPRESENTATION('',(#281),#284);
#281 = B_SPLINE_CURVE_WITH_KNOTS('',1,(#282,#283),.UNSPECIFIED.,.F.,.F.,
  (2,2),(-194.75,-105.25),.PIECEWISE_BEZIER_KNOTS.);
#282 = CARTESIAN_POINT('',(380.7,344.75));
#283 = CARTESIAN_POINT('',(380.7,255.25));
#284 = ( GEOMETRIC_REPRESENTATION_CONTEXT(2) 
PARAMETRIC_REPRESENTATION_CONTEXT() REPRESENTATION_CONTEXT('2D SPACE',''
  ) );
#285 = PCURVE('',#286,#291);
#286 = PLANE('',#287);
#287 = AXIS2_PLACEMENT_3D('',#288,#289,#290);
#288 = CARTESIAN_POINT('',(-2.933502854163E-15,4.040240899597E-15,80.7)
  );
#289 = DIRECTION('',(0.,0.,1.));
#290 = DIRECTION('',(1.,0.,-0.));
#291 = DEFINITIONAL_REPRESENTATION('',(#292),#295);
#292 = B_SPLINE_CURVE_WITH_KNOTS('',1,(#293,#294),.UNSPECIFIED.,.F.,.F.,
  (2,2),(-194.75,-105.25),.PIECEWISE_BEZIER_KNOTS.);
#293 = CARTESIAN_POINT('',(44.75,-4.040240899597E-15));
#294 = CARTESIAN_POINT('',(-44.75,-4.040240899597E-15));
#295 = ( GEOMETRIC_REPRESENTATION_CONTEXT(2) 
PARAMETRIC_REPRESENTATION_CONTEXT() REPRESENTATION_CONTEXT('2D SPACE',''
  ) );
#296 = ORIENTED_EDGE('',*,*,#297,.F.);
#297 = EDGE_CURVE('',#298,#272,#300,.T.);
#298 = VERTEX_POINT('',#299);
#299 = CARTESIAN_POINT('',(44.75,0.,69.9));
#300 = SURFACE_CURVE('',#301,(#305,#312),.PCURVE_S1.);
#301 = LINE('',#302,#303);
#302 = CARTESIAN_POINT('',(44.75,0.,69.9));
#303 = VECTOR('',#304,1.);
#304 = DIRECTION('',(0.,0.,1.));
#305 = PCURVE('',#44,#306);
#306 = DEFINITIONAL_REPRESENTATION('',(#307),#311);
#307 = LINE('',#308,#309);
#308 = CARTESIAN_POINT('',(369.9,344.75));
#309 = VECTOR('',#310,1.);
#310 = DIRECTION('',(1.,0.));
#311 = ( GEOMETRIC_REPRESENTATION_CONTEXT(2) 
PARAMETRIC_REPRESENTATION_CONTEXT() REPRESENTATION_CONTEXT('2D SPACE',''
  ) );
#312 = PCURVE('',#313,#318);
#313 = CYLINDRICAL_SURFACE('',#314,44.75);
#314 = AXIS2_PLACEMENT_3D('',#315,#316,#317);
#315 = CARTESIAN_POINT('',(0.,0.,69.9));
#316 = DIRECTION('',(-0.,-0.,-1.));
#317 = DIRECTION('',(1.,0.,0.));
#318 = DEFINITIONAL_REPRESENTATION('',(#319),#323);
#319 = LINE('',#320,#321);
#320 = CARTESIAN_POINT('',(6.28318530718,0.));
#321 = VECTOR('',#322,1.);
#322 = DIRECTION('',(-0.,-1.));
#323 = ( GEOMETRIC_REPRESENTATION_CONTEXT(2) 
PARAMETRIC_REPRESENTATION_CONTEXT() REPRESENTATION_CONTEXT('2D SPACE',''
  ) );
#324 = ORIENTED_EDGE('',*,*,#325,.F.);
#325 = EDGE_CURVE('',#24,#298,#326,.T.);
#326 = SURFACE_CURVE('',#327,(#331,#337),.PCURVE_S1.);
#327 = LINE('',#328,#329);
#328 = CARTESIAN_POINT('',(-150.,0.,69.9));
#329 = VECTOR('',#330,1.);
#330 = DIRECTION('',(-1.,0.,0.));
#331 = PCURVE('',#44,#332);
#332 = DEFINITIONAL_REPRESENTATION('',(#333),#336);
#333 = B_SPLINE_CURVE_WITH_KNOTS('',1,(#334,#335),.UNSPECIFIED.,.F.,.F.,
  (2,2),(-196.5,-103.5),.PIECEWISE_BEZIER_KNOTS.);
#334 = CARTESIAN_POINT('',(369.9,346.5));
#335 = CARTESIAN_POINT('',(369.9,253.5));
#336 = ( GEOMETRIC_REPRESENTATION_CONTEXT(2) 
PARAMETRIC_REPRESENTATION_CONTEXT() REPRESENTATION_CONTEXT('2D SPACE',''
  ) );
#337 = PCURVE('',#126,#338);
#338 = DEFINITIONAL_REPRESENTATION('',(#339),#342);
#339 = B_SPLINE_CURVE_WITH_KNOTS('',1,(#340,#341),.UNSPECIFIED.,.F.,.F.,
  (2,2),(-196.5,-103.5),.PIECEWISE_BEZIER_KNOTS.);
#340 = CARTESIAN_POINT('',(46.5,1.61343992693E-17));
#341 = CARTESIAN_POINT('',(-46.5,1.61343992693E-17));
#342 = ( GEOMETRIC_REPRESENTATION_CONTEXT(2) 
PARAMETRIC_REPRESENTATION_CONTEXT() REPRESENTATION_CONTEXT('2D SPACE',''
  ) );
#343 = FACE_BOUND('',#344,.F.);
#344 = EDGE_LOOP('',(#345,#375,#401,#422));
#345 = ORIENTED_EDGE('',*,*,#346,.F.);
#346 = EDGE_CURVE('',#347,#349,#351,.T.);
#347 = VERTEX_POINT('',#348);
#348 = CARTESIAN_POINT('',(42.39,0.,54.5));
#349 = VERTEX_POINT('',#350);
#350 = CARTESIAN_POINT('',(42.39,0.,44.5));
#351 = SURFACE_CURVE('',#352,(#356,#363),.PCURVE_S1.);
#352 = LINE('',#353,#354);
#353 = CARTESIAN_POINT('',(42.39,0.,54.5));
#354 = VECTOR('',#355,1.);
#355 = DIRECTION('',(-0.,-0.,-1.));
#356 = PCURVE('',#44,#357);
#357 = DEFINITIONAL_REPRESENTATION('',(#358),#362);
#358 = LINE('',#359,#360);
#359 = CARTESIAN_POINT('',(354.5,342.39));
#360 = VECTOR('',#361,1.);
#361 = DIRECTION('',(-1.,0.));
#362 = ( GEOMETRIC_REPRESENTATION_CONTEXT(2) 
PARAMETRIC_REPRESENTATION_CONTEXT() REPRESENTATION_CONTEXT('2D SPACE',''
  ) );
#363 = PCURVE('',#364,#369);
#364 = CYLINDRICAL_SURFACE('',#365,0.89);
#365 = AXIS2_PLACEMENT_3D('',#366,#367,#368);
#366 = CARTESIAN_POINT('',(41.5,0.,54.5));
#367 = DIRECTION('',(0.,0.,1.));
#368 = DIRECTION('',(1.,0.,-0.));
#369 = DEFINITIONAL_REPRESENTATION('',(#370),#374);
#370 = LINE('',#371,#372);
#371 = CARTESIAN_POINT('',(4.138911435803E-13,0.));
#372 = VECTOR('',#373,1.);
#373 = DIRECTION('',(0.,-1.));
#374 = ( GEOMETRIC_REPRESENTATION_CONTEXT(2) 
PARAMETRIC_REPRESENTATION_CONTEXT() REPRESENTATION_CONTEXT('2D SPACE',''
  ) );
#375 = ORIENTED_EDGE('',*,*,#376,.T.);
#376 = EDGE_CURVE('',#347,#377,#379,.T.);
#377 = VERTEX_POINT('',#378);
#378 = CARTESIAN_POINT('',(40.61,1.089935651241E-16,54.5));
#379 = SURFACE_CURVE('',#380,(#384,#390),.PCURVE_S1.);
#380 = LINE('',#381,#382);
#381 = CARTESIAN_POINT('',(-129.25,0.,54.5));
#382 = VECTOR('',#383,1.);
#383 = DIRECTION('',(-1.,0.,0.));
#384 = PCURVE('',#44,#385);
#385 = DEFINITIONAL_REPRESENTATION('',(#386),#389);
#386 = B_SPLINE_CURVE_WITH_KNOTS('',1,(#387,#388),.UNSPECIFIED.,.F.,.F.,
  (2,2),(-171.64,-169.86),.PIECEWISE_BEZIER_KNOTS.);
#387 = CARTESIAN_POINT('',(354.5,342.39));
#388 = CARTESIAN_POINT('',(354.5,340.61));
#389 = ( GEOMETRIC_REPRESENTATION_CONTEXT(2) 
PARAMETRIC_REPRESENTATION_CONTEXT() REPRESENTATION_CONTEXT('2D SPACE',''
  ) );
#390 = PCURVE('',#391,#396);
#391 = PLANE('',#392);
#392 = AXIS2_PLACEMENT_3D('',#393,#394,#395);
#393 = CARTESIAN_POINT('',(41.5,1.168286122289E-17,54.5));
#394 = DIRECTION('',(0.,0.,1.));
#395 = DIRECTION('',(1.,0.,-0.));
#396 = DEFINITIONAL_REPRESENTATION('',(#397),#400);
#397 = B_SPLINE_CURVE_WITH_KNOTS('',1,(#398,#399),.UNSPECIFIED.,.F.,.F.,
  (2,2),(-171.64,-169.86),.PIECEWISE_BEZIER_KNOTS.);
#398 = CARTESIAN_POINT('',(0.89,-1.168286122289E-17));
#399 = CARTESIAN_POINT('',(-0.89,-1.168286122289E-17));
#400 = ( GEOMETRIC_REPRESENTATION_CONTEXT(2) 
PARAMETRIC_REPRESENTATION_CONTEXT() REPRESENTATION_CONTEXT('2D SPACE',''
  ) );
#401 = ORIENTED_EDGE('',*,*,#402,.F.);
#402 = EDGE_CURVE('',#403,#377,#405,.T.);
#403 = VERTEX_POINT('',#404);
#404 = CARTESIAN_POINT('',(40.61,1.089935651241E-16,44.5));
#405 = SURFACE_CURVE('',#406,(#410,#416),.PCURVE_S1.);
#406 = LINE('',#407,#408);
#407 = CARTESIAN_POINT('',(40.61,0.,54.5));
#408 = VECTOR('',#409,1.);
#409 = DIRECTION('',(0.,0.,1.));
#410 = PCURVE('',#44,#411);
#411 = DEFINITIONAL_REPRESENTATION('',(#412),#415);
#412 = B_SPLINE_CURVE_WITH_KNOTS('',1,(#413,#414),.UNSPECIFIED.,.F.,.F.,
  (2,2),(-10.0000006,5.999999999062E-07),.PIECEWISE_BEZIER_KNOTS.);
#413 = CARTESIAN_POINT('',(344.4999994,340.61));
#414 = CARTESIAN_POINT('',(354.5000006,340.61));
#415 = ( GEOMETRIC_REPRESENTATION_CONTEXT(2) 
PARAMETRIC_REPRESENTATION_CONTEXT() REPRESENTATION_CONTEXT('2D SPACE',''
  ) );
#416 = PCURVE('',#364,#417);
#417 = DEFINITIONAL_REPRESENTATION('',(#418),#421);
#418 = B_SPLINE_CURVE_WITH_KNOTS('',1,(#419,#420),.UNSPECIFIED.,.F.,.F.,
  (2,2),(-10.0000006,5.999999999062E-07),.PIECEWISE_BEZIER_KNOTS.);
#419 = CARTESIAN_POINT('',(3.14159265359,-10.0000006));
#420 = CARTESIAN_POINT('',(3.14159265359,5.999999999062E-07));
#421 = ( GEOMETRIC_REPRESENTATION_CONTEXT(2) 
PARAMETRIC_REPRESENTATION_CONTEXT() REPRESENTATION_CONTEXT('2D SPACE',''
  ) );
#422 = ORIENTED_EDGE('',*,*,#423,.F.);
#423 = EDGE_CURVE('',#349,#403,#424,.T.);
#424 = SURFACE_CURVE('',#425,(#429,#435),.PCURVE_S1.);
#425 = LINE('',#426,#427);
#426 = CARTESIAN_POINT('',(-129.25,0.,44.5));
#427 = VECTOR('',#428,1.);
#428 = DIRECTION('',(-1.,0.,0.));
#429 = PCURVE('',#44,#430);
#430 = DEFINITIONAL_REPRESENTATION('',(#431),#434);
#431 = B_SPLINE_CURVE_WITH_KNOTS('',1,(#432,#433),.UNSPECIFIED.,.F.,.F.,
  (2,2),(-171.64,-169.86),.PIECEWISE_BEZIER_KNOTS.);
#432 = CARTESIAN_POINT('',(344.5,342.39));
#433 = CARTESIAN_POINT('',(344.5,340.61));
#434 = ( GEOMETRIC_REPRESENTATION_CONTEXT(2) 
PARAMETRIC_REPRESENTATION_CONTEXT() REPRESENTATION_CONTEXT('2D SPACE',''
  ) );
#435 = PCURVE('',#436,#441);
#436 = PLANE('',#437);
#437 = AXIS2_PLACEMENT_3D('',#438,#439,#440);
#438 = CARTESIAN_POINT('',(41.5,1.168286122289E-17,44.5));
#439 = DIRECTION('',(0.,0.,1.));
#440 = DIRECTION('',(1.,0.,-0.));
#441 = DEFINITIONAL_REPRESENTATION('',(#442),#445);
#442 = B_SPLINE_CURVE_WITH_KNOTS('',1,(#443,#444),.UNSPECIFIED.,.F.,.F.,
  (2,2),(-171.64,-169.86),.PIECEWISE_BEZIER_KNOTS.);
#443 = CARTESIAN_POINT('',(0.89,-1.168286122289E-17));
#444 = CARTESIAN_POINT('',(-0.89,-1.168286122289E-17));
#445 = ( GEOMETRIC_REPRESENTATION_CONTEXT(2) 
PARAMETRIC_REPRESENTATION_CONTEXT() REPRESENTATION_CONTEXT('2D SPACE',''
  ) );
#446 = ADVANCED_FACE('',(#447),#126,.T.);
#447 = FACE_BOUND('',#448,.T.);
#448 = EDGE_LOOP('',(#449,#450,#451,#472));
#449 = ORIENTED_EDGE('',*,*,#325,.F.);
#450 = ORIENTED_EDGE('',*,*,#111,.T.);
#451 = ORIENTED_EDGE('',*,*,#452,.F.);
#452 = EDGE_CURVE('',#453,#86,#455,.T.);
#453 = VERTEX_POINT('',#454);
#454 = CARTESIAN_POINT('',(-44.75,5.480294426184E-15,69.9));
#455 = SURFACE_CURVE('',#456,(#460,#466),.PCURVE_S1.);
#456 = LINE('',#457,#458);
#457 = CARTESIAN_POINT('',(-150.,0.,69.9));
#458 = VECTOR('',#459,1.);
#459 = DIRECTION('',(-1.,0.,0.));
#460 = PCURVE('',#126,#461);
#461 = DEFINITIONAL_REPRESENTATION('',(#462),#465);
#462 = B_SPLINE_CURVE_WITH_KNOTS('',1,(#463,#464),.UNSPECIFIED.,.F.,.F.,
  (2,2),(-196.5,-103.5),.PIECEWISE_BEZIER_KNOTS.);
#463 = CARTESIAN_POINT('',(46.5,1.61343992693E-17));
#464 = CARTESIAN_POINT('',(-46.5,1.61343992693E-17));
#465 = ( GEOMETRIC_REPRESENTATION_CONTEXT(2) 
PARAMETRIC_REPRESENTATION_CONTEXT() REPRESENTATION_CONTEXT('2D SPACE',''
  ) );
#466 = PCURVE('',#100,#467);
#467 = DEFINITIONAL_REPRESENTATION('',(#468),#471);
#468 = B_SPLINE_CURVE_WITH_KNOTS('',1,(#469,#470),.UNSPECIFIED.,.F.,.F.,
  (2,2),(-196.5,-103.5),.PIECEWISE_BEZIER_KNOTS.);
#469 = CARTESIAN_POINT('',(369.9,346.5));
#470 = CARTESIAN_POINT('',(369.9,253.5));
#471 = ( GEOMETRIC_REPRESENTATION_CONTEXT(2) 
PARAMETRIC_REPRESENTATION_CONTEXT() REPRESENTATION_CONTEXT('2D SPACE',''
  ) );
#472 = ORIENTED_EDGE('',*,*,#473,.F.);
#473 = EDGE_CURVE('',#298,#453,#474,.T.);
#474 = SURFACE_CURVE('',#475,(#480,#487),.PCURVE_S1.);
#475 = CIRCLE('',#476,44.75);
#476 = AXIS2_PLACEMENT_3D('',#477,#478,#479);
#477 = CARTESIAN_POINT('',(0.,0.,69.9));
#478 = DIRECTION('',(0.,0.,1.));
#479 = DIRECTION('',(1.,0.,-0.));
#480 = PCURVE('',#126,#481);
#481 = DEFINITIONAL_REPRESENTATION('',(#482),#486);
#482 = CIRCLE('',#483,44.75);
#483 = AXIS2_PLACEMENT_2D('',#484,#485);
#484 = CARTESIAN_POINT('',(1.882068139409E-15,1.61343992693E-17));
#485 = DIRECTION('',(1.,0.));
#486 = ( GEOMETRIC_REPRESENTATION_CONTEXT(2) 
PARAMETRIC_REPRESENTATION_CONTEXT() REPRESENTATION_CONTEXT('2D SPACE',''
  ) );
#487 = PCURVE('',#313,#488);
#488 = DEFINITIONAL_REPRESENTATION('',(#489),#493);
#489 = LINE('',#490,#491);
#490 = CARTESIAN_POINT('',(6.28318530718,0.));
#491 = VECTOR('',#492,1.);
#492 = DIRECTION('',(-1.,0.));
#493 = ( GEOMETRIC_REPRESENTATION_CONTEXT(2) 
PARAMETRIC_REPRESENTATION_CONTEXT() REPRESENTATION_CONTEXT('2D SPACE',''
  ) );
#494 = ADVANCED_FACE('',(#495,#649),#100,.F.);
#495 = FACE_BOUND('',#496,.F.);
#496 = EDGE_LOOP('',(#497,#498,#499,#520,#541,#562,#583,#609,#630));
#497 = ORIENTED_EDGE('',*,*,#85,.F.);
#498 = ORIENTED_EDGE('',*,*,#452,.F.);
#499 = ORIENTED_EDGE('',*,*,#500,.F.);
#500 = EDGE_CURVE('',#501,#453,#503,.T.);
#501 = VERTEX_POINT('',#502);
#502 = CARTESIAN_POINT('',(-44.75,5.480294426184E-15,80.7));
#503 = SURFACE_CURVE('',#504,(#508,#514),.PCURVE_S1.);
#504 = LINE('',#505,#506);
#505 = CARTESIAN_POINT('',(-44.75,0.,69.9));
#506 = VECTOR('',#507,1.);
#507 = DIRECTION('',(-0.,-0.,-1.));
#508 = PCURVE('',#100,#509);
#509 = DEFINITIONAL_REPRESENTATION('',(#510),#513);
#510 = B_SPLINE_CURVE_WITH_KNOTS('',1,(#511,#512),.UNSPECIFIED.,.F.,.F.,
  (2,2),(-10.8000006,6.000000070117E-07),.PIECEWISE_BEZIER_KNOTS.);
#511 = CARTESIAN_POINT('',(380.7000006,255.25));
#512 = CARTESIAN_POINT('',(369.8999994,255.25));
#513 = ( GEOMETRIC_REPRESENTATION_CONTEXT(2) 
PARAMETRIC_REPRESENTATION_CONTEXT() REPRESENTATION_CONTEXT('2D SPACE',''
  ) );
#514 = PCURVE('',#313,#515);
#515 = DEFINITIONAL_REPRESENTATION('',(#516),#519);
#516 = B_SPLINE_CURVE_WITH_KNOTS('',1,(#517,#518),.UNSPECIFIED.,.F.,.F.,
  (2,2),(-10.8000006,6.000000070117E-07),.PIECEWISE_BEZIER_KNOTS.);
#517 = CARTESIAN_POINT('',(3.14159265359,-10.8000006));
#518 = CARTESIAN_POINT('',(3.14159265359,6.000000070117E-07));
#519 = ( GEOMETRIC_REPRESENTATION_CONTEXT(2) 
PARAMETRIC_REPRESENTATION_CONTEXT() REPRESENTATION_CONTEXT('2D SPACE',''
  ) );
#520 = ORIENTED_EDGE('',*,*,#521,.F.);
#521 = EDGE_CURVE('',#522,#501,#524,.T.);
#522 = VERTEX_POINT('',#523);
#523 = CARTESIAN_POINT('',(-39.75,4.867971026611E-15,80.7));
#524 = SURFACE_CURVE('',#525,(#529,#535),.PCURVE_S1.);
#525 = LINE('',#526,#527);
#526 = CARTESIAN_POINT('',(-150.,0.,80.7));
#527 = VECTOR('',#528,1.);
#528 = DIRECTION('',(-1.,0.,0.));
#529 = PCURVE('',#100,#530);
#530 = DEFINITIONAL_REPRESENTATION('',(#531),#534);
#531 = B_SPLINE_CURVE_WITH_KNOTS('',1,(#532,#533),.UNSPECIFIED.,.F.,.F.,
  (2,2),(-194.75,-105.25),.PIECEWISE_BEZIER_KNOTS.);
#532 = CARTESIAN_POINT('',(380.7,344.75));
#533 = CARTESIAN_POINT('',(380.7,255.25));
#534 = ( GEOMETRIC_REPRESENTATION_CONTEXT(2) 
PARAMETRIC_REPRESENTATION_CONTEXT() REPRESENTATION_CONTEXT('2D SPACE',''
  ) );
#535 = PCURVE('',#286,#536);
#536 = DEFINITIONAL_REPRESENTATION('',(#537),#540);
#537 = B_SPLINE_CURVE_WITH_KNOTS('',1,(#538,#539),.UNSPECIFIED.,.F.,.F.,
  (2,2),(-194.75,-105.25),.PIECEWISE_BEZIER_KNOTS.);
#538 = CARTESIAN_POINT('',(44.75,-4.040240899597E-15));
#539 = CARTESIAN_POINT('',(-44.75,-4.040240899597E-15));
#540 = ( GEOMETRIC_REPRESENTATION_CONTEXT(2) 
PARAMETRIC_REPRESENTATION_CONTEXT() REPRESENTATION_CONTEXT('2D SPACE',''
  ) );
#541 = ORIENTED_EDGE('',*,*,#542,.F.);
#542 = EDGE_CURVE('',#543,#522,#545,.T.);
#543 = VERTEX_POINT('',#544);
#544 = CARTESIAN_POINT('',(-39.75,4.867971026611E-15,109.));
#545 = SURFACE_CURVE('',#546,(#550,#556),.PCURVE_S1.);
#546 = LINE('',#547,#548);
#547 = CARTESIAN_POINT('',(-39.75,0.,80.7));
#548 = VECTOR('',#549,1.);
#549 = DIRECTION('',(-0.,-0.,-1.));
#550 = PCURVE('',#100,#551);
#551 = DEFINITIONAL_REPRESENTATION('',(#552),#555);
#552 = B_SPLINE_CURVE_WITH_KNOTS('',1,(#553,#554),.UNSPECIFIED.,.F.,.F.,
  (2,2),(-28.3000006,6.000000070117E-07),.PIECEWISE_BEZIER_KNOTS.);
#553 = CARTESIAN_POINT('',(409.0000006,260.25));
#554 = CARTESIAN_POINT('',(380.6999994,260.25));
#555 = ( GEOMETRIC_REPRESENTATION_CONTEXT(2) 
PARAMETRIC_REPRESENTATION_CONTEXT() REPRESENTATION_CONTEXT('2D SPACE',''
  ) );
#556 = PCURVE('',#259,#557);
#557 = DEFINITIONAL_REPRESENTATION('',(#558),#561);
#558 = B_SPLINE_CURVE_WITH_KNOTS('',1,(#559,#560),.UNSPECIFIED.,.F.,.F.,
  (2,2),(-28.3000006,6.000000070117E-07),.PIECEWISE_BEZIER_KNOTS.);
#559 = CARTESIAN_POINT('',(3.14159265359,-28.3000006));
#560 = CARTESIAN_POINT('',(3.14159265359,6.000000070117E-07));
#561 = ( GEOMETRIC_REPRESENTATION_CONTEXT(2) 
PARAMETRIC_REPRESENTATION_CONTEXT() REPRESENTATION_CONTEXT('2D SPACE',''
  ) );
#562 = ORIENTED_EDGE('',*,*,#563,.F.);
#563 = EDGE_CURVE('',#564,#543,#566,.T.);
#564 = VERTEX_POINT('',#565);
#565 = CARTESIAN_POINT('',(-37.5,-4.592425496803E-17,109.));
#566 = SURFACE_CURVE('',#567,(#571,#577),.PCURVE_S1.);
#567 = LINE('',#568,#569);
#568 = CARTESIAN_POINT('',(-150.,0.,109.));
#569 = VECTOR('',#570,1.);
#570 = DIRECTION('',(-1.,0.,0.));
#571 = PCURVE('',#100,#572);
#572 = DEFINITIONAL_REPRESENTATION('',(#573),#576);
#573 = B_SPLINE_CURVE_WITH_KNOTS('',1,(#574,#575),.UNSPECIFIED.,.F.,.F.,
  (2,2),(-189.75,-110.25),.PIECEWISE_BEZIER_KNOTS.);
#574 = CARTESIAN_POINT('',(409.,339.75));
#575 = CARTESIAN_POINT('',(409.,260.25));
#576 = ( GEOMETRIC_REPRESENTATION_CONTEXT(2) 
PARAMETRIC_REPRESENTATION_CONTEXT() REPRESENTATION_CONTEXT('2D SPACE',''
  ) );
#577 = PCURVE('',#232,#578);
#578 = DEFINITIONAL_REPRESENTATION('',(#579),#582);
#579 = B_SPLINE_CURVE_WITH_KNOTS('',1,(#580,#581),.UNSPECIFIED.,.F.,.F.,
  (2,2),(-189.75,-110.25),.PIECEWISE_BEZIER_KNOTS.);
#580 = CARTESIAN_POINT('',(39.75,-5.790076070423E-16));
#581 = CARTESIAN_POINT('',(-39.75,-5.790076070423E-16));
#582 = ( GEOMETRIC_REPRESENTATION_CONTEXT(2) 
PARAMETRIC_REPRESENTATION_CONTEXT() REPRESENTATION_CONTEXT('2D SPACE',''
  ) );
#583 = ORIENTED_EDGE('',*,*,#584,.T.);
#584 = EDGE_CURVE('',#564,#585,#587,.T.);
#585 = VERTEX_POINT('',#586);
#586 = CARTESIAN_POINT('',(-37.49999999999,-3.309527131512E-17,
    0.169841269842));
#587 = SURFACE_CURVE('',#588,(#592,#598),.PCURVE_S1.);
#588 = LINE('',#589,#590);
#589 = CARTESIAN_POINT('',(-37.5,0.,0.));
#590 = VECTOR('',#591,1.);
#591 = DIRECTION('',(0.,-0.,-1.));
#592 = PCURVE('',#100,#593);
#593 = DEFINITIONAL_REPRESENTATION('',(#594),#597);
#594 = B_SPLINE_CURVE_WITH_KNOTS('',1,(#595,#596),.UNSPECIFIED.,.F.,.F.,
  (2,2),(-109.0000006,-0.169786662562),.PIECEWISE_BEZIER_KNOTS.);
#595 = CARTESIAN_POINT('',(409.0000006,262.5));
#596 = CARTESIAN_POINT('',(300.16978666256,262.5));
#597 = ( GEOMETRIC_REPRESENTATION_CONTEXT(2) 
PARAMETRIC_REPRESENTATION_CONTEXT() REPRESENTATION_CONTEXT('2D SPACE',''
  ) );
#598 = PCURVE('',#599,#604);
#599 = CYLINDRICAL_SURFACE('',#600,0.75);
#600 = AXIS2_PLACEMENT_3D('',#601,#602,#603);
#601 = CARTESIAN_POINT('',(-36.75,0.,0.));
#602 = DIRECTION('',(0.,-0.,-1.));
#603 = DIRECTION('',(0.,-1.,0.));
#604 = DEFINITIONAL_REPRESENTATION('',(#605),#608);
#605 = B_SPLINE_CURVE_WITH_KNOTS('',1,(#606,#607),.UNSPECIFIED.,.F.,.F.,
  (2,2),(-109.0000006,-0.169786662562),.PIECEWISE_BEZIER_KNOTS.);
#606 = CARTESIAN_POINT('',(1.570796326795,-109.0000006));
#607 = CARTESIAN_POINT('',(1.570796326795,-0.169786662562));
#608 = ( GEOMETRIC_REPRESENTATION_CONTEXT(2) 
PARAMETRIC_REPRESENTATION_CONTEXT() REPRESENTATION_CONTEXT('2D SPACE',''
  ) );
#609 = ORIENTED_EDGE('',*,*,#610,.T.);
#610 = EDGE_CURVE('',#585,#611,#613,.T.);
#611 = VERTEX_POINT('',#612);
#612 = CARTESIAN_POINT('',(-37.8,4.629164900777E-15,0.));
#613 = SURFACE_CURVE('',#614,(#618,#624),.PCURVE_S1.);
#614 = LINE('',#615,#616);
#615 = CARTESIAN_POINT('',(0.,0.,21.399999999993));
#616 = VECTOR('',#617,1.);
#617 = DIRECTION('',(-0.870219610714,0.,-0.492664012415));
#618 = PCURVE('',#100,#619);
#619 = DEFINITIONAL_REPRESENTATION('',(#620),#623);
#620 = B_SPLINE_CURVE_WITH_KNOTS('',1,(#621,#622),.UNSPECIFIED.,.F.,.F.,
  (2,2),(0.858179220055,43.437311150665),.PIECEWISE_BEZIER_KNOTS.);
#621 = CARTESIAN_POINT('',(320.97720598207,299.2531956132));
#622 = CARTESIAN_POINT('',(300.,262.2));
#623 = ( GEOMETRIC_REPRESENTATION_CONTEXT(2) 
PARAMETRIC_REPRESENTATION_CONTEXT() REPRESENTATION_CONTEXT('2D SPACE',''
  ) );
#624 = PCURVE('',#179,#625);
#625 = DEFINITIONAL_REPRESENTATION('',(#626),#629);
#626 = B_SPLINE_CURVE_WITH_KNOTS('',1,(#627,#628),.UNSPECIFIED.,.F.,.F.,
  (2,2),(0.858179220055,43.437311150665),.PIECEWISE_BEZIER_KNOTS.);
#627 = CARTESIAN_POINT('',(3.14159265359,-20.97720598207));
#628 = CARTESIAN_POINT('',(3.14159265359,-3.500588351917E-15));
#629 = ( GEOMETRIC_REPRESENTATION_CONTEXT(2) 
PARAMETRIC_REPRESENTATION_CONTEXT() REPRESENTATION_CONTEXT('2D SPACE',''
  ) );
#630 = ORIENTED_EDGE('',*,*,#631,.T.);
#631 = EDGE_CURVE('',#611,#57,#632,.T.);
#632 = SURFACE_CURVE('',#633,(#637,#643),.PCURVE_S1.);
#633 = LINE('',#634,#635);
#634 = CARTESIAN_POINT('',(-150.,0.,0.));
#635 = VECTOR('',#636,1.);
#636 = DIRECTION('',(-1.,0.,0.));
#637 = PCURVE('',#100,#638);
#638 = DEFINITIONAL_REPRESENTATION('',(#639),#642);
#639 = B_SPLINE_CURVE_WITH_KNOTS('',1,(#640,#641),.UNSPECIFIED.,.F.,.F.,
  (2,2),(-196.5,-103.5),.PIECEWISE_BEZIER_KNOTS.);
#640 = CARTESIAN_POINT('',(300.,346.5));
#641 = CARTESIAN_POINT('',(300.,253.5));
#642 = ( GEOMETRIC_REPRESENTATION_CONTEXT(2) 
PARAMETRIC_REPRESENTATION_CONTEXT() REPRESENTATION_CONTEXT('2D SPACE',''
  ) );
#643 = PCURVE('',#73,#644);
#644 = DEFINITIONAL_REPRESENTATION('',(#645),#648);
#645 = B_SPLINE_CURVE_WITH_KNOTS('',1,(#646,#647),.UNSPECIFIED.,.F.,.F.,
  (2,2),(-196.5,-103.5),.PIECEWISE_BEZIER_KNOTS.);
#646 = CARTESIAN_POINT('',(46.5,1.61343992693E-17));
#647 = CARTESIAN_POINT('',(-46.5,1.61343992693E-17));
#648 = ( GEOMETRIC_REPRESENTATION_CONTEXT(2) 
PARAMETRIC_REPRESENTATION_CONTEXT() REPRESENTATION_CONTEXT('2D SPACE',''
  ) );
#649 = FACE_BOUND('',#650,.F.);
#650 = EDGE_LOOP('',(#651,#681,#707,#728));
#651 = ORIENTED_EDGE('',*,*,#652,.F.);
#652 = EDGE_CURVE('',#653,#655,#657,.T.);
#653 = VERTEX_POINT('',#654);
#654 = CARTESIAN_POINT('',(-40.61,0.,54.5));
#655 = VERTEX_POINT('',#656);
#656 = CARTESIAN_POINT('',(-40.61,0.,44.5));
#657 = SURFACE_CURVE('',#658,(#662,#669),.PCURVE_S1.);
#658 = LINE('',#659,#660);
#659 = CARTESIAN_POINT('',(-40.61,0.,54.5));
#660 = VECTOR('',#661,1.);
#661 = DIRECTION('',(-0.,-0.,-1.));
#662 = PCURVE('',#100,#663);
#663 = DEFINITIONAL_REPRESENTATION('',(#664),#668);
#664 = LINE('',#665,#666);
#665 = CARTESIAN_POINT('',(354.5,259.39));
#666 = VECTOR('',#667,1.);
#667 = DIRECTION('',(-1.,0.));
#668 = ( GEOMETRIC_REPRESENTATION_CONTEXT(2) 
PARAMETRIC_REPRESENTATION_CONTEXT() REPRESENTATION_CONTEXT('2D SPACE',''
  ) );
#669 = PCURVE('',#670,#675);
#670 = CYLINDRICAL_SURFACE('',#671,0.89);
#671 = AXIS2_PLACEMENT_3D('',#672,#673,#674);
#672 = CARTESIAN_POINT('',(-41.5,0.,54.5));
#673 = DIRECTION('',(0.,0.,1.));
#674 = DIRECTION('',(1.,0.,-0.));
#675 = DEFINITIONAL_REPRESENTATION('',(#676),#680);
#676 = LINE('',#677,#678);
#677 = CARTESIAN_POINT('',(4.138911435803E-13,0.));
#678 = VECTOR('',#679,1.);
#679 = DIRECTION('',(0.,-1.));
#680 = ( GEOMETRIC_REPRESENTATION_CONTEXT(2) 
PARAMETRIC_REPRESENTATION_CONTEXT() REPRESENTATION_CONTEXT('2D SPACE',''
  ) );
#681 = ORIENTED_EDGE('',*,*,#682,.T.);
#682 = EDGE_CURVE('',#653,#683,#685,.T.);
#683 = VERTEX_POINT('',#684);
#684 = CARTESIAN_POINT('',(-42.39,1.089935651241E-16,54.5));
#685 = SURFACE_CURVE('',#686,(#690,#696),.PCURVE_S1.);
#686 = LINE('',#687,#688);
#687 = CARTESIAN_POINT('',(-170.75,0.,54.5));
#688 = VECTOR('',#689,1.);
#689 = DIRECTION('',(-1.,0.,0.));
#690 = PCURVE('',#100,#691);
#691 = DEFINITIONAL_REPRESENTATION('',(#692),#695);
#692 = B_SPLINE_CURVE_WITH_KNOTS('',1,(#693,#694),.UNSPECIFIED.,.F.,.F.,
  (2,2),(-130.14,-128.36),.PIECEWISE_BEZIER_KNOTS.);
#693 = CARTESIAN_POINT('',(354.5,259.39));
#694 = CARTESIAN_POINT('',(354.5,257.61));
#695 = ( GEOMETRIC_REPRESENTATION_CONTEXT(2) 
PARAMETRIC_REPRESENTATION_CONTEXT() REPRESENTATION_CONTEXT('2D SPACE',''
  ) );
#696 = PCURVE('',#697,#702);
#697 = PLANE('',#698);
#698 = AXIS2_PLACEMENT_3D('',#699,#700,#701);
#699 = CARTESIAN_POINT('',(-41.5,1.168286122289E-17,54.5));
#700 = DIRECTION('',(0.,0.,1.));
#701 = DIRECTION('',(1.,0.,-0.));
#702 = DEFINITIONAL_REPRESENTATION('',(#703),#706);
#703 = B_SPLINE_CURVE_WITH_KNOTS('',1,(#704,#705),.UNSPECIFIED.,.F.,.F.,
  (2,2),(-130.14,-128.36),.PIECEWISE_BEZIER_KNOTS.);
#704 = CARTESIAN_POINT('',(0.89,-1.168286122289E-17));
#705 = CARTESIAN_POINT('',(-0.89,-1.168286122289E-17));
#706 = ( GEOMETRIC_REPRESENTATION_CONTEXT(2) 
PARAMETRIC_REPRESENTATION_CONTEXT() REPRESENTATION_CONTEXT('2D SPACE',''
  ) );
#707 = ORIENTED_EDGE('',*,*,#708,.F.);
#708 = EDGE_CURVE('',#709,#683,#711,.T.);
#709 = VERTEX_POINT('',#710);
#710 = CARTESIAN_POINT('',(-42.39,1.089935651241E-16,44.5));
#711 = SURFACE_CURVE('',#712,(#716,#722),.PCURVE_S1.);
#712 = LINE('',#713,#714);
#713 = CARTESIAN_POINT('',(-42.39,0.,54.5));
#714 = VECTOR('',#715,1.);
#715 = DIRECTION('',(0.,0.,1.));
#716 = PCURVE('',#100,#717);
#717 = DEFINITIONAL_REPRESENTATION('',(#718),#721);
#718 = B_SPLINE_CURVE_WITH_KNOTS('',1,(#719,#720),.UNSPECIFIED.,.F.,.F.,
  (2,2),(-10.0000006,5.999999999062E-07),.PIECEWISE_BEZIER_KNOTS.);
#719 = CARTESIAN_POINT('',(344.4999994,257.61));
#720 = CARTESIAN_POINT('',(354.5000006,257.61));
#721 = ( GEOMETRIC_REPRESENTATION_CONTEXT(2) 
PARAMETRIC_REPRESENTATION_CONTEXT() REPRESENTATION_CONTEXT('2D SPACE',''
  ) );
#722 = PCURVE('',#670,#723);
#723 = DEFINITIONAL_REPRESENTATION('',(#724),#727);
#724 = B_SPLINE_CURVE_WITH_KNOTS('',1,(#725,#726),.UNSPECIFIED.,.F.,.F.,
  (2,2),(-10.0000006,5.999999999062E-07),.PIECEWISE_BEZIER_KNOTS.);
#725 = CARTESIAN_POINT('',(3.14159265359,-10.0000006));
#726 = CARTESIAN_POINT('',(3.14159265359,5.999999999062E-07));
#727 = ( GEOMETRIC_REPRESENTATION_CONTEXT(2) 
PARAMETRIC_REPRESENTATION_CONTEXT() REPRESENTATION_CONTEXT('2D SPACE',''
  ) );
#728 = ORIENTED_EDGE('',*,*,#729,.F.);
#729 = EDGE_CURVE('',#655,#709,#730,.T.);
#730 = SURFACE_CURVE('',#731,(#735,#741),.PCURVE_S1.);
#731 = LINE('',#732,#733);
#732 = CARTESIAN_POINT('',(-170.75,0.,44.5));
#733 = VECTOR('',#734,1.);
#734 = DIRECTION('',(-1.,0.,0.));
#735 = PCURVE('',#100,#736);
#736 = DEFINITIONAL_REPRESENTATION('',(#737),#740);
#737 = B_SPLINE_CURVE_WITH_KNOTS('',1,(#738,#739),.UNSPECIFIED.,.F.,.F.,
  (2,2),(-130.14,-128.36),.PIECEWISE_BEZIER_KNOTS.);
#738 = CARTESIAN_POINT('',(344.5,259.39));
#739 = CARTESIAN_POINT('',(344.5,257.61));
#740 = ( GEOMETRIC_REPRESENTATION_CONTEXT(2) 
PARAMETRIC_REPRESENTATION_CONTEXT() REPRESENTATION_CONTEXT('2D SPACE',''
  ) );
#741 = PCURVE('',#742,#747);
#742 = PLANE('',#743);
#743 = AXIS2_PLACEMENT_3D('',#744,#745,#746);
#744 = CARTESIAN_POINT('',(-41.5,1.168286122289E-17,44.5));
#745 = DIRECTION('',(0.,0.,1.));
#746 = DIRECTION('',(1.,0.,-0.));
#747 = DEFINITIONAL_REPRESENTATION('',(#748),#751);
#748 = B_SPLINE_CURVE_WITH_KNOTS('',1,(#749,#750),.UNSPECIFIED.,.F.,.F.,
  (2,2),(-130.14,-128.36),.PIECEWISE_BEZIER_KNOTS.);
#749 = CARTESIAN_POINT('',(0.89,-1.168286122289E-17));
#750 = CARTESIAN_POINT('',(-0.89,-1.168286122289E-17));
#751 = ( GEOMETRIC_REPRESENTATION_CONTEXT(2) 
PARAMETRIC_REPRESENTATION_CONTEXT() REPRESENTATION_CONTEXT('2D SPACE',''
  ) );
#752 = ADVANCED_FACE('',(#753),#73,.F.);
#753 = FACE_BOUND('',#754,.F.);
#754 = EDGE_LOOP('',(#755,#756,#757,#758));
#755 = ORIENTED_EDGE('',*,*,#142,.F.);
#756 = ORIENTED_EDGE('',*,*,#56,.T.);
#757 = ORIENTED_EDGE('',*,*,#631,.F.);
#758 = ORIENTED_EDGE('',*,*,#759,.F.);
#759 = EDGE_CURVE('',#143,#611,#760,.T.);
#760 = SURFACE_CURVE('',#761,(#766,#773),.PCURVE_S1.);
#761 = CIRCLE('',#762,37.8);
#762 = AXIS2_PLACEMENT_3D('',#763,#764,#765);
#763 = CARTESIAN_POINT('',(0.,0.,0.));
#764 = DIRECTION('',(0.,0.,1.));
#765 = DIRECTION('',(1.,0.,-0.));
#766 = PCURVE('',#73,#767);
#767 = DEFINITIONAL_REPRESENTATION('',(#768),#772);
#768 = CIRCLE('',#769,37.8);
#769 = AXIS2_PLACEMENT_2D('',#770,#771);
#770 = CARTESIAN_POINT('',(1.882068139409E-15,1.61343992693E-17));
#771 = DIRECTION('',(1.,0.));
#772 = ( GEOMETRIC_REPRESENTATION_CONTEXT(2) 
PARAMETRIC_REPRESENTATION_CONTEXT() REPRESENTATION_CONTEXT('2D SPACE',''
  ) );
#773 = PCURVE('',#179,#774);
#774 = DEFINITIONAL_REPRESENTATION('',(#775),#779);
#775 = LINE('',#776,#777);
#776 = CARTESIAN_POINT('',(6.28318530718,0.));
#777 = VECTOR('',#778,1.);
#778 = DIRECTION('',(-1.,0.));
#779 = ( GEOMETRIC_REPRESENTATION_CONTEXT(2) 
PARAMETRIC_REPRESENTATION_CONTEXT() REPRESENTATION_CONTEXT('2D SPACE',''
  ) );
#780 = ADVANCED_FACE('',(#781),#313,.T.);
#781 = FACE_BOUND('',#782,.T.);
#782 = EDGE_LOOP('',(#783,#784,#785,#786));
#783 = ORIENTED_EDGE('',*,*,#297,.F.);
#784 = ORIENTED_EDGE('',*,*,#473,.T.);
#785 = ORIENTED_EDGE('',*,*,#500,.F.);
#786 = ORIENTED_EDGE('',*,*,#787,.F.);
#787 = EDGE_CURVE('',#272,#501,#788,.T.);
#788 = SURFACE_CURVE('',#789,(#794,#801),.PCURVE_S1.);
#789 = CIRCLE('',#790,44.75);
#790 = AXIS2_PLACEMENT_3D('',#791,#792,#793);
#791 = CARTESIAN_POINT('',(0.,0.,80.7));
#792 = DIRECTION('',(0.,0.,1.));
#793 = DIRECTION('',(1.,0.,-0.));
#794 = PCURVE('',#313,#795);
#795 = DEFINITIONAL_REPRESENTATION('',(#796),#800);
#796 = LINE('',#797,#798);
#797 = CARTESIAN_POINT('',(6.28318530718,-10.8));
#798 = VECTOR('',#799,1.);
#799 = DIRECTION('',(-1.,0.));
#800 = ( GEOMETRIC_REPRESENTATION_CONTEXT(2) 
PARAMETRIC_REPRESENTATION_CONTEXT() REPRESENTATION_CONTEXT('2D SPACE',''
  ) );
#801 = PCURVE('',#286,#802);
#802 = DEFINITIONAL_REPRESENTATION('',(#803),#807);
#803 = CIRCLE('',#804,44.75);
#804 = AXIS2_PLACEMENT_2D('',#805,#806);
#805 = CARTESIAN_POINT('',(2.933502854163E-15,-4.040240899597E-15));
#806 = DIRECTION('',(1.,0.));
#807 = ( GEOMETRIC_REPRESENTATION_CONTEXT(2) 
PARAMETRIC_REPRESENTATION_CONTEXT() REPRESENTATION_CONTEXT('2D SPACE',''
  ) );
#808 = ADVANCED_FACE('',(#809),#286,.T.);
#809 = FACE_BOUND('',#810,.T.);
#810 = EDGE_LOOP('',(#811,#812,#813,#814));
#811 = ORIENTED_EDGE('',*,*,#271,.F.);
#812 = ORIENTED_EDGE('',*,*,#787,.T.);
#813 = ORIENTED_EDGE('',*,*,#521,.F.);
#814 = ORIENTED_EDGE('',*,*,#815,.F.);
#815 = EDGE_CURVE('',#244,#522,#816,.T.);
#816 = SURFACE_CURVE('',#817,(#822,#829),.PCURVE_S1.);
#817 = CIRCLE('',#818,39.75);
#818 = AXIS2_PLACEMENT_3D('',#819,#820,#821);
#819 = CARTESIAN_POINT('',(0.,0.,80.7));
#820 = DIRECTION('',(0.,0.,1.));
#821 = DIRECTION('',(1.,0.,-0.));
#822 = PCURVE('',#286,#823);
#823 = DEFINITIONAL_REPRESENTATION('',(#824),#828);
#824 = CIRCLE('',#825,39.75);
#825 = AXIS2_PLACEMENT_2D('',#826,#827);
#826 = CARTESIAN_POINT('',(2.933502854163E-15,-4.040240899597E-15));
#827 = DIRECTION('',(1.,0.));
#828 = ( GEOMETRIC_REPRESENTATION_CONTEXT(2) 
PARAMETRIC_REPRESENTATION_CONTEXT() REPRESENTATION_CONTEXT('2D SPACE',''
  ) );
#829 = PCURVE('',#259,#830);
#830 = DEFINITIONAL_REPRESENTATION('',(#831),#835);
#831 = LINE('',#832,#833);
#832 = CARTESIAN_POINT('',(6.28318530718,0.));
#833 = VECTOR('',#834,1.);
#834 = DIRECTION('',(-1.,0.));
#835 = ( GEOMETRIC_REPRESENTATION_CONTEXT(2) 
PARAMETRIC_REPRESENTATION_CONTEXT() REPRESENTATION_CONTEXT('2D SPACE',''
  ) );
#836 = ADVANCED_FACE('',(#837),#259,.T.);
#837 = FACE_BOUND('',#838,.T.);
#838 = EDGE_LOOP('',(#839,#840,#841,#842));
#839 = ORIENTED_EDGE('',*,*,#243,.F.);
#840 = ORIENTED_EDGE('',*,*,#815,.T.);
#841 = ORIENTED_EDGE('',*,*,#542,.F.);
#842 = ORIENTED_EDGE('',*,*,#843,.F.);
#843 = EDGE_CURVE('',#218,#543,#844,.T.);
#844 = SURFACE_CURVE('',#845,(#850,#857),.PCURVE_S1.);
#845 = CIRCLE('',#846,39.75);
#846 = AXIS2_PLACEMENT_3D('',#847,#848,#849);
#847 = CARTESIAN_POINT('',(0.,0.,109.));
#848 = DIRECTION('',(0.,0.,1.));
#849 = DIRECTION('',(1.,0.,-0.));
#850 = PCURVE('',#259,#851);
#851 = DEFINITIONAL_REPRESENTATION('',(#852),#856);
#852 = LINE('',#853,#854);
#853 = CARTESIAN_POINT('',(6.28318530718,-28.3));
#854 = VECTOR('',#855,1.);
#855 = DIRECTION('',(-1.,0.));
#856 = ( GEOMETRIC_REPRESENTATION_CONTEXT(2) 
PARAMETRIC_REPRESENTATION_CONTEXT() REPRESENTATION_CONTEXT('2D SPACE',''
  ) );
#857 = PCURVE('',#232,#858);
#858 = DEFINITIONAL_REPRESENTATION('',(#859),#863);
#859 = CIRCLE('',#860,39.75);
#860 = AXIS2_PLACEMENT_2D('',#861,#862);
#861 = CARTESIAN_POINT('',(4.403329231825E-15,-5.790076070423E-16));
#862 = DIRECTION('',(1.,0.));
#863 = ( GEOMETRIC_REPRESENTATION_CONTEXT(2) 
PARAMETRIC_REPRESENTATION_CONTEXT() REPRESENTATION_CONTEXT('2D SPACE',''
  ) );
#864 = ADVANCED_FACE('',(#865),#232,.T.);
#865 = FACE_BOUND('',#866,.T.);
#866 = EDGE_LOOP('',(#867,#868,#869,#870,#898,#926));
#867 = ORIENTED_EDGE('',*,*,#217,.F.);
#868 = ORIENTED_EDGE('',*,*,#843,.T.);
#869 = ORIENTED_EDGE('',*,*,#563,.F.);
#870 = ORIENTED_EDGE('',*,*,#871,.T.);
#871 = EDGE_CURVE('',#564,#872,#874,.T.);
#872 = VERTEX_POINT('',#873);
#873 = CARTESIAN_POINT('',(-36.75,0.75,109.));
#874 = SURFACE_CURVE('',#875,(#880,#891),.PCURVE_S1.);
#875 = CIRCLE('',#876,0.75);
#876 = AXIS2_PLACEMENT_3D('',#877,#878,#879);
#877 = CARTESIAN_POINT('',(-36.75,0.,109.));
#878 = DIRECTION('',(0.,-0.,-1.));
#879 = DIRECTION('',(0.,-1.,0.));
#880 = PCURVE('',#232,#881);
#881 = DEFINITIONAL_REPRESENTATION('',(#882),#890);
#882 = ( BOUNDED_CURVE() B_SPLINE_CURVE(2,(#883,#884,#885,#886,#887,#888
,#889),.UNSPECIFIED.,.T.,.F.) B_SPLINE_CURVE_WITH_KNOTS((1,2,2,2,2,1),(
    -2.094395102393,0.,2.094395102393,4.188790204786,6.28318530718,
8.377580409573),.UNSPECIFIED.) CURVE() GEOMETRIC_REPRESENTATION_ITEM() 
RATIONAL_B_SPLINE_CURVE((1.,0.5,1.,0.5,1.,0.5,1.)) REPRESENTATION_ITEM(
  '') );
#883 = CARTESIAN_POINT('',(-36.75,-0.75));
#884 = CARTESIAN_POINT('',(-38.04903810567,-0.75));
#885 = CARTESIAN_POINT('',(-37.39951905283,0.375));
#886 = CARTESIAN_POINT('',(-36.75,1.5));
#887 = CARTESIAN_POINT('',(-36.10048094716,0.375));
#888 = CARTESIAN_POINT('',(-35.45096189432,-0.75));
#889 = CARTESIAN_POINT('',(-36.75,-0.75));
#890 = ( GEOMETRIC_REPRESENTATION_CONTEXT(2) 
PARAMETRIC_REPRESENTATION_CONTEXT() REPRESENTATION_CONTEXT('2D SPACE',''
  ) );
#891 = PCURVE('',#599,#892);
#892 = DEFINITIONAL_REPRESENTATION('',(#893),#897);
#893 = LINE('',#894,#895);
#894 = CARTESIAN_POINT('',(0.,-109.));
#895 = VECTOR('',#896,1.);
#896 = DIRECTION('',(1.,0.));
#897 = ( GEOMETRIC_REPRESENTATION_CONTEXT(2) 
PARAMETRIC_REPRESENTATION_CONTEXT() REPRESENTATION_CONTEXT('2D SPACE',''
  ) );
#898 = ORIENTED_EDGE('',*,*,#899,.T.);
#899 = EDGE_CURVE('',#872,#900,#902,.T.);
#900 = VERTEX_POINT('',#901);
#901 = CARTESIAN_POINT('',(36.75,0.75,109.));
#902 = SURFACE_CURVE('',#903,(#907,#914),.PCURVE_S1.);
#903 = LINE('',#904,#905);
#904 = CARTESIAN_POINT('',(-36.75,0.75,109.));
#905 = VECTOR('',#906,1.);
#906 = DIRECTION('',(1.,0.,0.));
#907 = PCURVE('',#232,#908);
#908 = DEFINITIONAL_REPRESENTATION('',(#909),#913);
#909 = LINE('',#910,#911);
#910 = CARTESIAN_POINT('',(-36.75,0.75));
#911 = VECTOR('',#912,1.);
#912 = DIRECTION('',(1.,0.));
#913 = ( GEOMETRIC_REPRESENTATION_CONTEXT(2) 
PARAMETRIC_REPRESENTATION_CONTEXT() REPRESENTATION_CONTEXT('2D SPACE',''
  ) );
#914 = PCURVE('',#915,#920);
#915 = PLANE('',#916);
#916 = AXIS2_PLACEMENT_3D('',#917,#918,#919);
#917 = CARTESIAN_POINT('',(-36.75,0.75,0.));
#918 = DIRECTION('',(0.,1.,0.));
#919 = DIRECTION('',(1.,0.,0.));
#920 = DEFINITIONAL_REPRESENTATION('',(#921),#925);
#921 = LINE('',#922,#923);
#922 = CARTESIAN_POINT('',(0.,-109.));
#923 = VECTOR('',#924,1.);
#924 = DIRECTION('',(1.,0.));
#925 = ( GEOMETRIC_REPRESENTATION_CONTEXT(2) 
PARAMETRIC_REPRESENTATION_CONTEXT() REPRESENTATION_CONTEXT('2D SPACE',''
  ) );
#926 = ORIENTED_EDGE('',*,*,#927,.T.);
#927 = EDGE_CURVE('',#900,#192,#928,.T.);
#928 = SURFACE_CURVE('',#929,(#934,#945),.PCURVE_S1.);
#929 = CIRCLE('',#930,0.75);
#930 = AXIS2_PLACEMENT_3D('',#931,#932,#933);
#931 = CARTESIAN_POINT('',(36.75,0.,109.));
#932 = DIRECTION('',(0.,0.,-1.));
#933 = DIRECTION('',(0.,1.,0.));
#934 = PCURVE('',#232,#935);
#935 = DEFINITIONAL_REPRESENTATION('',(#936),#944);
#936 = ( BOUNDED_CURVE() B_SPLINE_CURVE(2,(#937,#938,#939,#940,#941,#942
,#943),.UNSPECIFIED.,.T.,.F.) B_SPLINE_CURVE_WITH_KNOTS((1,2,2,2,2,1),(
    -2.094395102393,0.,2.094395102393,4.188790204786,6.28318530718,
8.377580409573),.UNSPECIFIED.) CURVE() GEOMETRIC_REPRESENTATION_ITEM() 
RATIONAL_B_SPLINE_CURVE((1.,0.5,1.,0.5,1.,0.5,1.)) REPRESENTATION_ITEM(
  '') );
#937 = CARTESIAN_POINT('',(36.75,0.75));
#938 = CARTESIAN_POINT('',(38.049038105677,0.75));
#939 = CARTESIAN_POINT('',(37.399519052838,-0.375));
#940 = CARTESIAN_POINT('',(36.75,-1.5));
#941 = CARTESIAN_POINT('',(36.100480947162,-0.375));
#942 = CARTESIAN_POINT('',(35.450961894323,0.75));
#943 = CARTESIAN_POINT('',(36.75,0.75));
#944 = ( GEOMETRIC_REPRESENTATION_CONTEXT(2) 
PARAMETRIC_REPRESENTATION_CONTEXT() REPRESENTATION_CONTEXT('2D SPACE',''
  ) );
#945 = PCURVE('',#206,#946);
#946 = DEFINITIONAL_REPRESENTATION('',(#947),#951);
#947 = LINE('',#948,#949);
#948 = CARTESIAN_POINT('',(0.,-109.));
#949 = VECTOR('',#950,1.);
#950 = DIRECTION('',(1.,0.));
#951 = ( GEOMETRIC_REPRESENTATION_CONTEXT(2) 
PARAMETRIC_REPRESENTATION_CONTEXT() REPRESENTATION_CONTEXT('2D SPACE',''
  ) );
#952 = ADVANCED_FACE('',(#953),#206,.F.);
#953 = FACE_BOUND('',#954,.F.);
#954 = EDGE_LOOP('',(#955,#1017,#1038,#1039));
#955 = ORIENTED_EDGE('',*,*,#956,.F.);
#956 = EDGE_CURVE('',#957,#164,#959,.T.);
#957 = VERTEX_POINT('',#958);
#958 = CARTESIAN_POINT('',(36.75,0.75,0.590112210029));
#959 = SURFACE_CURVE('',#960,(#977,#997),.PCURVE_S1.);
#960 = B_SPLINE_CURVE_WITH_KNOTS('',8,(#961,#962,#963,#964,#965,#966,
    #967,#968,#969,#970,#971,#972,#973,#974,#975,#976),.UNSPECIFIED.,.F.
  ,.F.,(9,7,9),(0.,0.635749954163,1.),.UNSPECIFIED.);
#961 = CARTESIAN_POINT('',(36.75,0.75,0.590112210029));
#962 = CARTESIAN_POINT('',(36.832852275539,0.75,0.543216189325));
#963 = CARTESIAN_POINT('',(36.915562465693,0.739539815271,0.496521370926
    ));
#964 = CARTESIAN_POINT('',(36.997544234754,0.718682053816,0.450357823749
    ));
#965 = CARTESIAN_POINT('',(37.07793897105,0.687088587884,0.405204953082)
  );
#966 = CARTESIAN_POINT('',(37.155544821155,0.644329809583,0.361728518962
    ));
#967 = CARTESIAN_POINT('',(37.228746387836,0.589974601405,0.320815798758
    ));
#968 = CARTESIAN_POINT('',(37.295537081704,0.523764343002,0.283560549165
    ));
#969 = CARTESIAN_POINT('',(37.386338595192,0.400839070584,0.23298822145)
  );
#970 = CARTESIAN_POINT('',(37.416422102394,0.352165336531,0.21625141383)
  );
#971 = CARTESIAN_POINT('',(37.44289600602,0.299751800784,0.201537435168)
  );
#972 = CARTESIAN_POINT('',(37.465094905106,0.243913818032,0.189209962224
    ));
#973 = CARTESIAN_POINT('',(37.482362093186,0.185159329967,0.179627024693
    ));
#974 = CARTESIAN_POINT('',(37.494122712603,0.124227178317,0.173102081274
    ));
#975 = CARTESIAN_POINT('',(37.5,6.210454974118E-02,0.169841269841));
#976 = CARTESIAN_POINT('',(37.5,0.,0.169841269841));
#977 = PCURVE('',#206,#978);
#978 = DEFINITIONAL_REPRESENTATION('',(#979),#996);
#979 = B_SPLINE_CURVE_WITH_KNOTS('',8,(#980,#981,#982,#983,#984,#985,
    #986,#987,#988,#989,#990,#991,#992,#993,#994,#995),.UNSPECIFIED.,.F.
  ,.F.,(9,7,9),(0.,0.635749954163,1.),.UNSPECIFIED.);
#980 = CARTESIAN_POINT('',(0.,-0.590112210029));
#981 = CARTESIAN_POINT('',(0.110469700718,-0.543216189325));
#982 = CARTESIAN_POINT('',(0.220750484043,-0.496521370926));
#983 = CARTESIAN_POINT('',(0.332110715218,-0.450357823749));
#984 = CARTESIAN_POINT('',(0.445446128216,-0.405204953082));
#985 = CARTESIAN_POINT('',(0.561524223262,-0.361728518962));
#986 = CARTESIAN_POINT('',(0.681118723207,-0.320815798758));
#987 = CARTESIAN_POINT('',(0.805039540609,-0.283560549165));
#988 = CARTESIAN_POINT('',(1.008806455166,-0.23298822145));
#989 = CARTESIAN_POINT('',(1.084839984327,-0.21625141383));
#990 = CARTESIAN_POINT('',(1.162647014917,-0.201537435168));
#991 = CARTESIAN_POINT('',(1.242115729339,-0.189209962224));
#992 = CARTESIAN_POINT('',(1.323051465596,-0.179627024693));
#993 = CARTESIAN_POINT('',(1.40516026232,-0.173102081274));
#994 = CARTESIAN_POINT('',(1.487990260473,-0.169841269841));
#995 = CARTESIAN_POINT('',(1.570796326795,-0.169841269841));
#996 = ( GEOMETRIC_REPRESENTATION_CONTEXT(2) 
PARAMETRIC_REPRESENTATION_CONTEXT() REPRESENTATION_CONTEXT('2D SPACE',''
  ) );
#997 = PCURVE('',#179,#998);
#998 = DEFINITIONAL_REPRESENTATION('',(#999),#1016);
#999 = B_SPLINE_CURVE_WITH_KNOTS('',8,(#1000,#1001,#1002,#1003,#1004,
    #1005,#1006,#1007,#1008,#1009,#1010,#1011,#1012,#1013,#1014,#1015),
  .UNSPECIFIED.,.F.,.F.,(9,7,9),(0.,0.635749954163,1.),.UNSPECIFIED.);
#1000 = CARTESIAN_POINT('',(6.262779976493,-0.590112210029));
#1001 = CARTESIAN_POINT('',(6.262825967209,-0.543216189325));
#1002 = CARTESIAN_POINT('',(6.263156154567,-0.496521370926));
#1003 = CARTESIAN_POINT('',(6.263765950002,-0.450357823749));
#1004 = CARTESIAN_POINT('',(6.264661615672,-0.405204953082));
#1005 = CARTESIAN_POINT('',(6.265851697944,-0.361728518961));
#1006 = CARTESIAN_POINT('',(6.267344868452,-0.320815798758));
#1007 = CARTESIAN_POINT('',(6.26914582048,-0.283560549165));
#1008 = CARTESIAN_POINT('',(6.272465232242,-0.23298822145));
#1009 = CARTESIAN_POINT('',(6.273775311197,-0.21625141383));
#1010 = CARTESIAN_POINT('',(6.275181972149,-0.201537435168));
#1011 = CARTESIAN_POINT('',(6.276676837157,-0.189209962224));
#1012 = CARTESIAN_POINT('',(6.278246701352,-0.179627024693));
#1013 = CARTESIAN_POINT('',(6.279872582242,-0.173102081274));
#1014 = CARTESIAN_POINT('',(6.281529185853,-0.169841269841));
#1015 = CARTESIAN_POINT('',(6.28318530718,-0.169841269841));
#1016 = ( GEOMETRIC_REPRESENTATION_CONTEXT(2) 
PARAMETRIC_REPRESENTATION_CONTEXT() REPRESENTATION_CONTEXT('2D SPACE',''
  ) );
#1017 = ORIENTED_EDGE('',*,*,#1018,.T.);
#1018 = EDGE_CURVE('',#957,#900,#1019,.T.);
#1019 = SURFACE_CURVE('',#1020,(#1024,#1031),.PCURVE_S1.);
#1020 = LINE('',#1021,#1022);
#1021 = CARTESIAN_POINT('',(36.75,0.75,0.));
#1022 = VECTOR('',#1023,1.);
#1023 = DIRECTION('',(0.,0.,1.));
#1024 = PCURVE('',#206,#1025);
#1025 = DEFINITIONAL_REPRESENTATION('',(#1026),#1030);
#1026 = LINE('',#1027,#1028);
#1027 = CARTESIAN_POINT('',(0.,0.));
#1028 = VECTOR('',#1029,1.);
#1029 = DIRECTION('',(0.,-1.));
#1030 = ( GEOMETRIC_REPRESENTATION_CONTEXT(2) 
PARAMETRIC_REPRESENTATION_CONTEXT() REPRESENTATION_CONTEXT('2D SPACE',''
  ) );
#1031 = PCURVE('',#915,#1032);
#1032 = DEFINITIONAL_REPRESENTATION('',(#1033),#1037);
#1033 = LINE('',#1034,#1035);
#1034 = CARTESIAN_POINT('',(73.5,0.));
#1035 = VECTOR('',#1036,1.);
#1036 = DIRECTION('',(0.,-1.));
#1037 = ( GEOMETRIC_REPRESENTATION_CONTEXT(2) 
PARAMETRIC_REPRESENTATION_CONTEXT() REPRESENTATION_CONTEXT('2D SPACE',''
  ) );
#1038 = ORIENTED_EDGE('',*,*,#927,.T.);
#1039 = ORIENTED_EDGE('',*,*,#191,.T.);
#1040 = ADVANCED_FACE('',(#1041),#179,.F.);
#1041 = FACE_BOUND('',#1042,.F.);
#1042 = EDGE_LOOP('',(#1043,#1044,#1045,#1046,#1150,#1234));
#1043 = ORIENTED_EDGE('',*,*,#163,.F.);
#1044 = ORIENTED_EDGE('',*,*,#759,.T.);
#1045 = ORIENTED_EDGE('',*,*,#610,.F.);
#1046 = ORIENTED_EDGE('',*,*,#1047,.T.);
#1047 = EDGE_CURVE('',#585,#1048,#1050,.T.);
#1048 = VERTEX_POINT('',#1049);
#1049 = CARTESIAN_POINT('',(-36.75,0.75,0.590112210029));
#1050 = SURFACE_CURVE('',#1051,(#1082,#1116),.PCURVE_S1.);
#1051 = B_SPLINE_CURVE_WITH_KNOTS('',8,(#1052,#1053,#1054,#1055,#1056,
    #1057,#1058,#1059,#1060,#1061,#1062,#1063,#1064,#1065,#1066,#1067,
    #1068,#1069,#1070,#1071,#1072,#1073,#1074,#1075,#1076,#1077,#1078,
    #1079,#1080,#1081),.UNSPECIFIED.,.F.,.F.,(9,7,7,7,9),(0.,
    0.31786964747,0.499560045775,0.682119034809,1.),.UNSPECIFIED.);
#1052 = CARTESIAN_POINT('',(-36.75,-0.75,0.590112210029));
#1053 = CARTESIAN_POINT('',(-36.83285227553,-0.75,0.543216189325));
#1054 = CARTESIAN_POINT('',(-36.91556246569,-0.739539815272,
    0.496521370926));
#1055 = CARTESIAN_POINT('',(-36.99754423475,-0.718682053815,
    0.450357823749));
#1056 = CARTESIAN_POINT('',(-37.07793897105,-0.687088587885,
    0.405204953082));
#1057 = CARTESIAN_POINT('',(-37.15554482115,-0.644329809582,
    0.361728518961));
#1058 = CARTESIAN_POINT('',(-37.22874638783,-0.589974601405,
    0.320815798758));
#1059 = CARTESIAN_POINT('',(-37.2955370817,-0.523764343002,
    0.283560549165));
#1060 = CARTESIAN_POINT('',(-37.38626021927,-0.400945174337,
    0.233031873285));
#1061 = CARTESIAN_POINT('',(-37.41627880364,-0.352396950726,
    0.216331137848));
#1062 = CARTESIAN_POINT('',(-37.44270639473,-0.300126764733,
    0.201642820162));
#1063 = CARTESIAN_POINT('',(-37.46488278933,-0.244446833823,
    0.189327754395));
#1064 = CARTESIAN_POINT('',(-37.48215591724,-0.185860158582,
    0.179741448311));
#1065 = CARTESIAN_POINT('',(-37.49395415387,-0.125098579347,
    0.173195600317));
#1066 = CARTESIAN_POINT('',(-37.4999012555,-6.314034160526E-02,
    0.169896054752));
#1067 = CARTESIAN_POINT('',(-37.50009734289,6.10684968806E-02,
    0.169787262562));
#1068 = CARTESIAN_POINT('',(-37.49429032725,0.123355417038,
    0.173009086501));
#1069 = CARTESIAN_POINT('',(-37.4825677055,0.184458163415,0.17951291474)
  );
#1070 = CARTESIAN_POINT('',(-37.4653067328,0.243380555691,0.189092330891
    ));
#1071 = CARTESIAN_POINT('',(-37.44308549982,0.299376702156,
    0.201432116035));
#1072 = CARTESIAN_POINT('',(-37.41656536759,0.351933681722,
    0.216171708696));
#1073 = CARTESIAN_POINT('',(-37.38641696448,0.400732975807,
    0.232944573307));
#1074 = CARTESIAN_POINT('',(-37.29553676086,0.523764777346,
    0.283560727857));
#1075 = CARTESIAN_POINT('',(-37.22874629852,0.589974464299,
    0.320815849107));
#1076 = CARTESIAN_POINT('',(-37.15554506232,0.644329630332,
    0.361728384875));
#1077 = CARTESIAN_POINT('',(-37.07793931889,0.687088455313,
    0.405204757676));
#1078 = CARTESIAN_POINT('',(-36.99754421906,0.718682227791,
    0.450357830885));
#1079 = CARTESIAN_POINT('',(-36.91556182077,0.739540077922,0.49652173288
    ));
#1080 = CARTESIAN_POINT('',(-36.83285121594,0.75,0.543216789076));
#1081 = CARTESIAN_POINT('',(-36.75,0.75,0.590112210029));
#1082 = PCURVE('',#179,#1083);
#1083 = DEFINITIONAL_REPRESENTATION('',(#1084),#1115);
#1084 = B_SPLINE_CURVE_WITH_KNOTS('',8,(#1085,#1086,#1087,#1088,#1089,
    #1090,#1091,#1092,#1093,#1094,#1095,#1096,#1097,#1098,#1099,#1100,
    #1101,#1102,#1103,#1104,#1105,#1106,#1107,#1108,#1109,#1110,#1111,
    #1112,#1113,#1114),.UNSPECIFIED.,.F.,.F.,(9,7,7,7,9),(0.,
    0.31786964747,0.499560045775,0.682119034809,1.),.UNSPECIFIED.);
#1085 = CARTESIAN_POINT('',(3.121187322904,-0.590112210029));
#1086 = CARTESIAN_POINT('',(3.12123331362,-0.543216189325));
#1087 = CARTESIAN_POINT('',(3.121563500977,-0.496521370926));
#1088 = CARTESIAN_POINT('',(3.122173296413,-0.45035782375));
#1089 = CARTESIAN_POINT('',(3.123068962082,-0.405204953081));
#1090 = CARTESIAN_POINT('',(3.124259044355,-0.361728518962));
#1091 = CARTESIAN_POINT('',(3.125752214863,-0.320815798758));
#1092 = CARTESIAN_POINT('',(3.12755316689,-0.283560549165));
#1093 = CARTESIAN_POINT('',(3.130869713481,-0.233031873285));
#1094 = CARTESIAN_POINT('',(3.132176423488,-0.216331137848));
#1095 = CARTESIAN_POINT('',(3.13357925522,-0.201642820162));
#1096 = CARTESIAN_POINT('',(3.135069913849,-0.189327754395));
#1097 = CARTESIAN_POINT('',(3.136635322189,-0.179741448311));
#1098 = CARTESIAN_POINT('',(3.138256676475,-0.173195600317));
#1099 = CARTESIAN_POINT('',(3.139908911025,-0.169896054752));
#1100 = CARTESIAN_POINT('',(3.143221146962,-0.169787262562));
#1101 = CARTESIAN_POINT('',(3.144882117094,-0.173009086501));
#1102 = CARTESIAN_POINT('',(3.14651252515,-0.17951291474));
#1103 = CARTESIAN_POINT('',(3.148086847531,-0.189092330891));
#1104 = CARTESIAN_POINT('',(3.149585921794,-0.201432116035));
#1105 = CARTESIAN_POINT('',(3.150996414402,-0.216171708696));
#1106 = CARTESIAN_POINT('',(3.152309863598,-0.232944573307));
#1107 = CARTESIAN_POINT('',(3.155632152019,-0.283560727857));
#1108 = CARTESIAN_POINT('',(3.157433088757,-0.320815849107));
#1109 = CARTESIAN_POINT('',(3.158926257913,-0.361728384874));
#1110 = CARTESIAN_POINT('',(3.160116341306,-0.405204757676));
#1111 = CARTESIAN_POINT('',(3.1610120154,-0.450357830885));
#1112 = CARTESIAN_POINT('',(3.161621813701,-0.49652173288));
#1113 = CARTESIAN_POINT('',(3.161951994149,-0.543216789076));
#1114 = CARTESIAN_POINT('',(3.161997984277,-0.590112210029));
#1115 = ( GEOMETRIC_REPRESENTATION_CONTEXT(2) 
PARAMETRIC_REPRESENTATION_CONTEXT() REPRESENTATION_CONTEXT('2D SPACE',''
  ) );
#1116 = PCURVE('',#599,#1117);
#1117 = DEFINITIONAL_REPRESENTATION('',(#1118),#1149);
#1118 = B_SPLINE_CURVE_WITH_KNOTS('',8,(#1119,#1120,#1121,#1122,#1123,
    #1124,#1125,#1126,#1127,#1128,#1129,#1130,#1131,#1132,#1133,#1134,
    #1135,#1136,#1137,#1138,#1139,#1140,#1141,#1142,#1143,#1144,#1145,
    #1146,#1147,#1148),.UNSPECIFIED.,.F.,.F.,(9,7,7,7,9),(0.,
    0.31786964747,0.499560045775,0.682119034809,1.),.UNSPECIFIED.);
#1119 = CARTESIAN_POINT('',(0.,-0.590112210029));
#1120 = CARTESIAN_POINT('',(0.110469700718,-0.543216189325));
#1121 = CARTESIAN_POINT('',(0.220750484044,-0.496521370926));
#1122 = CARTESIAN_POINT('',(0.332110715217,-0.45035782375));
#1123 = CARTESIAN_POINT('',(0.445446128218,-0.405204953081));
#1124 = CARTESIAN_POINT('',(0.561524223261,-0.361728518962));
#1125 = CARTESIAN_POINT('',(0.681118723208,-0.320815798758));
#1126 = CARTESIAN_POINT('',(0.805039540609,-0.283560549165));
#1127 = CARTESIAN_POINT('',(1.00863057242,-0.233031873285));
#1128 = CARTESIAN_POINT('',(1.084478061436,-0.216331137848));
#1129 = CARTESIAN_POINT('',(1.162090254062,-0.201642820162));
#1130 = CARTESIAN_POINT('',(1.241357045321,-0.189327754395));
#1131 = CARTESIAN_POINT('',(1.322085959129,-0.179741448311));
#1132 = CARTESIAN_POINT('',(1.403985873202,-0.173195600317));
#1133 = CARTESIAN_POINT('',(1.486609101058,-0.169896054752));
#1134 = CARTESIAN_POINT('',(1.65222109208,-0.169787262562));
#1135 = CARTESIAN_POINT('',(1.735257816614,-0.173009086501));
#1136 = CARTESIAN_POINT('',(1.817575507559,-0.17951291474));
#1137 = CARTESIAN_POINT('',(1.898718110021,-0.189092330891));
#1138 = CARTESIAN_POINT('',(1.978388805865,-0.201432116035));
#1139 = CARTESIAN_POINT('',(2.056390729384,-0.216171708696));
#1140 = CARTESIAN_POINT('',(2.132610330558,-0.232944573307));
#1141 = CARTESIAN_POINT('',(2.33655383297,-0.283560727857));
#1142 = CARTESIAN_POINT('',(2.460473855564,-0.320815849107));
#1143 = CARTESIAN_POINT('',(2.580068092254,-0.361728384874));
#1144 = CARTESIAN_POINT('',(2.696146033127,-0.405204757676));
#1145 = CARTESIAN_POINT('',(2.809482054067,-0.450357830885));
#1146 = CARTESIAN_POINT('',(2.920843026418,-0.49652173288));
#1147 = CARTESIAN_POINT('',(3.031124365663,-0.543216789076));
#1148 = CARTESIAN_POINT('',(3.14159265359,-0.590112210029));
#1149 = ( GEOMETRIC_REPRESENTATION_CONTEXT(2) 
PARAMETRIC_REPRESENTATION_CONTEXT() REPRESENTATION_CONTEXT('2D SPACE',''
  ) );
#1150 = ORIENTED_EDGE('',*,*,#1151,.F.);
#1151 = EDGE_CURVE('',#957,#1048,#1152,.T.);
#1152 = SURFACE_CURVE('',#1153,(#1158,#1227),.PCURVE_S1.);
#1153 = HYPERBOLA('',#1154,0.424603174603,0.75);
#1154 = AXIS2_PLACEMENT_3D('',#1155,#1156,#1157);
#1155 = CARTESIAN_POINT('',(0.,0.75,21.4));
#1156 = DIRECTION('',(0.,1.,0.));
#1157 = DIRECTION('',(0.,0.,-1.));
#1158 = PCURVE('',#179,#1159);
#1159 = DEFINITIONAL_REPRESENTATION('',(#1160),#1226);
#1160 = B_SPLINE_CURVE_WITH_KNOTS('',8,(#1161,#1162,#1163,#1164,#1165,
    #1166,#1167,#1168,#1169,#1170,#1171,#1172,#1173,#1174,#1175,#1176,
    #1177,#1178,#1179,#1180,#1181,#1182,#1183,#1184,#1185,#1186,#1187,
    #1188,#1189,#1190,#1191,#1192,#1193,#1194,#1195,#1196,#1197,#1198,
    #1199,#1200,#1201,#1202,#1203,#1204,#1205,#1206,#1207,#1208,#1209,
    #1210,#1211,#1212,#1213,#1214,#1215,#1216,#1217,#1218,#1219,#1220,
    #1221,#1222,#1223,#1224,#1225),.UNSPECIFIED.,.F.,.F.,(9,7,7,7,7,7,7,
    7,7,9),(-4.613039922107,-3.459779941581,-2.45067745862,
    -1.567712786029,-0.795118697512,-0.119098870059,0.472418478961,
    1.507573839748,3.060306880928,4.613039922107),.UNSPECIFIED.);
#1161 = CARTESIAN_POINT('',(6.263342735269,-7.817175169021E-15));
#1162 = CARTESIAN_POINT('',(6.26048246746,-3.084363148738));
#1163 = CARTESIAN_POINT('',(6.257151059356,-5.660473067664));
#1164 = CARTESIAN_POINT('',(6.253258005343,-7.826001428352));
#1165 = CARTESIAN_POINT('',(6.24869196774,-9.656089668735));
#1166 = CARTESIAN_POINT('',(6.243314778445,-11.2098337937));
#1167 = CARTESIAN_POINT('',(6.236953251315,-12.53431111965));
#1168 = CARTESIAN_POINT('',(6.229387365964,-13.6674396978));
#1169 = CARTESIAN_POINT('',(6.212409770574,-15.49102328654));
#1170 = CARTESIAN_POINT('',(6.203346992421,-16.21910752542));
#1171 = CARTESIAN_POINT('',(6.192953826865,-16.84490201541));
#1172 = CARTESIAN_POINT('',(6.18100168668,-17.38486974606));
#1173 = CARTESIAN_POINT('',(6.16721576606,-17.85234441644));
#1174 = CARTESIAN_POINT('',(6.151262459579,-18.25824474134));
#1175 = CARTESIAN_POINT('',(6.132735080816,-18.61157216287));
#1176 = CARTESIAN_POINT('',(6.092245509695,-19.18950024628));
#1177 = CARTESIAN_POINT('',(6.071002126708,-19.42467093691));
#1178 = CARTESIAN_POINT('',(6.047080617042,-19.63031873739));
#1179 = CARTESIAN_POINT('',(6.020099632291,-19.81055299656));
#1180 = CARTESIAN_POINT('',(5.989623807311,-19.96877989663));
#1181 = CARTESIAN_POINT('',(5.955155847784,-20.10784165939));
#1182 = CARTESIAN_POINT('',(5.916145009446,-20.2301175367));
#1183 = CARTESIAN_POINT('',(5.833436356341,-20.43165247929));
#1184 = CARTESIAN_POINT('',(5.790933783142,-20.51437813945));
#1185 = CARTESIAN_POINT('',(5.744153513805,-20.58711611784));
#1186 = CARTESIAN_POINT('',(5.692718420188,-20.65097833917));
#1187 = CARTESIAN_POINT('',(5.636273023474,-20.70689029871));
#1188 = CARTESIAN_POINT('',(5.574536249723,-20.7556209662));
#1189 = CARTESIAN_POINT('',(5.507380657889,-20.79780464994));
#1190 = CARTESIAN_POINT('',(5.37155093743,-20.86558622058));
#1191 = CARTESIAN_POINT('',(5.304114788503,-20.89259826746));
#1192 = CARTESIAN_POINT('',(5.23272009814,-20.91533510035));
#1193 = CARTESIAN_POINT('',(5.157592011112,-20.93407061353));
#1194 = CARTESIAN_POINT('',(5.079158034236,-20.94901605786));
#1195 = CARTESIAN_POINT('',(4.998060514029,-20.96032540629));
#1196 = CARTESIAN_POINT('',(4.915113970107,-20.96809848409));
#1197 = CARTESIAN_POINT('',(4.757788934286,-20.9761298206));
#1198 = CARTESIAN_POINT('',(4.683635844492,-20.97720598207));
#1199 = CARTESIAN_POINT('',(4.60933902717,-20.97564157589));
#1200 = CARTESIAN_POINT('',(4.535541588825,-20.97143665755));
#1201 = CARTESIAN_POINT('',(4.462868479954,-20.96456067351));
#1202 = CARTESIAN_POINT('',(4.3918749856,-20.95495210474));
#1203 = CARTESIAN_POINT('',(4.323013956757,-20.94251719028));
#1204 = CARTESIAN_POINT('',(4.140435477903,-20.90019617707));
#1205 = CARTESIAN_POINT('',(4.031811648322,-20.86421632461));
#1206 = CARTESIAN_POINT('',(3.932565881046,-20.81850107471));
#1207 = CARTESIAN_POINT('',(3.843479319641,-20.76204010645));
#1208 = CARTESIAN_POINT('',(3.764204759209,-20.69346319678));
#1209 = CARTESIAN_POINT('',(3.694033330251,-20.61097421218));
#1210 = CARTESIAN_POINT('',(3.632081020546,-20.51225077907));
#1211 = CARTESIAN_POINT('',(3.49550857458,-20.21733182132));
#1212 = CARTESIAN_POINT('',(3.430042658876,-19.99708099239));
#1213 = CARTESIAN_POINT('',(3.378024526286,-19.72337396933));
#1214 = CARTESIAN_POINT('',(3.336346433703,-19.38256886632));
#1215 = CARTESIAN_POINT('',(3.302791888312,-18.95633565258));
#1216 = CARTESIAN_POINT('',(3.275591071615,-18.41967861636));
#1217 = CARTESIAN_POINT('',(3.253426247851,-17.73794551958));
#1218 = CARTESIAN_POINT('',(3.217115159779,-15.98362398434));
#1219 = CARTESIAN_POINT('',(3.202969210033,-14.91103486875));
#1220 = CARTESIAN_POINT('',(3.191808816429,-13.59266952724));
#1221 = CARTESIAN_POINT('',(3.182915664663,-11.96244874884));
#1222 = CARTESIAN_POINT('',(3.175771404967,-9.932594912768));
#1223 = CARTESIAN_POINT('',(3.169991331518,-7.384148313974));
#1224 = CARTESIAN_POINT('',(3.165286249908,-4.15274322608));
#1225 = CARTESIAN_POINT('',(3.161435225501,-7.817175169021E-15));
#1226 = ( GEOMETRIC_REPRESENTATION_CONTEXT(2) 
PARAMETRIC_REPRESENTATION_CONTEXT() REPRESENTATION_CONTEXT('2D SPACE',''
  ) );
#1227 = PCURVE('',#915,#1228);
#1228 = DEFINITIONAL_REPRESENTATION('',(#1229),#1233);
#1229 = HYPERBOLA('',#1230,0.424603174603,0.75);
#1230 = AXIS2_PLACEMENT_2D('',#1231,#1232);
#1231 = CARTESIAN_POINT('',(36.75,-21.4));
#1232 = DIRECTION('',(0.,1.));
#1233 = ( GEOMETRIC_REPRESENTATION_CONTEXT(2) 
PARAMETRIC_REPRESENTATION_CONTEXT() REPRESENTATION_CONTEXT('2D SPACE',''
  ) );
#1234 = ORIENTED_EDGE('',*,*,#956,.T.);
#1235 = ADVANCED_FACE('',(#1236),#364,.F.);
#1236 = FACE_BOUND('',#1237,.F.);
#1237 = EDGE_LOOP('',(#1238,#1260,#1261,#1283));
#1238 = ORIENTED_EDGE('',*,*,#1239,.F.);
#1239 = EDGE_CURVE('',#347,#377,#1240,.T.);
#1240 = SURFACE_CURVE('',#1241,(#1246,#1253),.PCURVE_S1.);
#1241 = CIRCLE('',#1242,0.89);
#1242 = AXIS2_PLACEMENT_3D('',#1243,#1244,#1245);
#1243 = CARTESIAN_POINT('',(41.5,0.,54.5));
#1244 = DIRECTION('',(0.,0.,1.));
#1245 = DIRECTION('',(1.,0.,-0.));
#1246 = PCURVE('',#364,#1247);
#1247 = DEFINITIONAL_REPRESENTATION('',(#1248),#1252);
#1248 = LINE('',#1249,#1250);
#1249 = CARTESIAN_POINT('',(0.,0.));
#1250 = VECTOR('',#1251,1.);
#1251 = DIRECTION('',(1.,0.));
#1252 = ( GEOMETRIC_REPRESENTATION_CONTEXT(2) 
PARAMETRIC_REPRESENTATION_CONTEXT() REPRESENTATION_CONTEXT('2D SPACE',''
  ) );
#1253 = PCURVE('',#391,#1254);
#1254 = DEFINITIONAL_REPRESENTATION('',(#1255),#1259);
#1255 = CIRCLE('',#1256,0.89);
#1256 = AXIS2_PLACEMENT_2D('',#1257,#1258);
#1257 = CARTESIAN_POINT('',(0.,-1.168286122289E-17));
#1258 = DIRECTION('',(1.,0.));
#1259 = ( GEOMETRIC_REPRESENTATION_CONTEXT(2) 
PARAMETRIC_REPRESENTATION_CONTEXT() REPRESENTATION_CONTEXT('2D SPACE',''
  ) );
#1260 = ORIENTED_EDGE('',*,*,#346,.T.);
#1261 = ORIENTED_EDGE('',*,*,#1262,.T.);
#1262 = EDGE_CURVE('',#349,#403,#1263,.T.);
#1263 = SURFACE_CURVE('',#1264,(#1269,#1276),.PCURVE_S1.);
#1264 = CIRCLE('',#1265,0.89);
#1265 = AXIS2_PLACEMENT_3D('',#1266,#1267,#1268);
#1266 = CARTESIAN_POINT('',(41.5,0.,44.5));
#1267 = DIRECTION('',(0.,0.,1.));
#1268 = DIRECTION('',(1.,0.,-0.));
#1269 = PCURVE('',#364,#1270);
#1270 = DEFINITIONAL_REPRESENTATION('',(#1271),#1275);
#1271 = LINE('',#1272,#1273);
#1272 = CARTESIAN_POINT('',(0.,-10.));
#1273 = VECTOR('',#1274,1.);
#1274 = DIRECTION('',(1.,0.));
#1275 = ( GEOMETRIC_REPRESENTATION_CONTEXT(2) 
PARAMETRIC_REPRESENTATION_CONTEXT() REPRESENTATION_CONTEXT('2D SPACE',''
  ) );
#1276 = PCURVE('',#436,#1277);
#1277 = DEFINITIONAL_REPRESENTATION('',(#1278),#1282);
#1278 = CIRCLE('',#1279,0.89);
#1279 = AXIS2_PLACEMENT_2D('',#1280,#1281);
#1280 = CARTESIAN_POINT('',(0.,-1.168286122289E-17));
#1281 = DIRECTION('',(1.,0.));
#1282 = ( GEOMETRIC_REPRESENTATION_CONTEXT(2) 
PARAMETRIC_REPRESENTATION_CONTEXT() REPRESENTATION_CONTEXT('2D SPACE',''
  ) );
#1283 = ORIENTED_EDGE('',*,*,#402,.T.);
#1284 = ADVANCED_FACE('',(#1285),#436,.T.);
#1285 = FACE_BOUND('',#1286,.T.);
#1286 = EDGE_LOOP('',(#1287,#1288));
#1287 = ORIENTED_EDGE('',*,*,#423,.F.);
#1288 = ORIENTED_EDGE('',*,*,#1262,.T.);
#1289 = ADVANCED_FACE('',(#1290),#391,.F.);
#1290 = FACE_BOUND('',#1291,.F.);
#1291 = EDGE_LOOP('',(#1292,#1293));
#1292 = ORIENTED_EDGE('',*,*,#376,.F.);
#1293 = ORIENTED_EDGE('',*,*,#1239,.T.);
#1294 = ADVANCED_FACE('',(#1295),#599,.F.);
#1295 = FACE_BOUND('',#1296,.F.);
#1296 = EDGE_LOOP('',(#1297,#1298,#1299,#1300));
#1297 = ORIENTED_EDGE('',*,*,#1047,.F.);
#1298 = ORIENTED_EDGE('',*,*,#584,.F.);
#1299 = ORIENTED_EDGE('',*,*,#871,.T.);
#1300 = ORIENTED_EDGE('',*,*,#1301,.F.);
#1301 = EDGE_CURVE('',#1048,#872,#1302,.T.);
#1302 = SURFACE_CURVE('',#1303,(#1307,#1314),.PCURVE_S1.);
#1303 = LINE('',#1304,#1305);
#1304 = CARTESIAN_POINT('',(-36.75,0.75,0.));
#1305 = VECTOR('',#1306,1.);
#1306 = DIRECTION('',(0.,0.,1.));
#1307 = PCURVE('',#599,#1308);
#1308 = DEFINITIONAL_REPRESENTATION('',(#1309),#1313);
#1309 = LINE('',#1310,#1311);
#1310 = CARTESIAN_POINT('',(3.14159265359,0.));
#1311 = VECTOR('',#1312,1.);
#1312 = DIRECTION('',(0.,-1.));
#1313 = ( GEOMETRIC_REPRESENTATION_CONTEXT(2) 
PARAMETRIC_REPRESENTATION_CONTEXT() REPRESENTATION_CONTEXT('2D SPACE',''
  ) );
#1314 = PCURVE('',#915,#1315);
#1315 = DEFINITIONAL_REPRESENTATION('',(#1316),#1320);
#1316 = LINE('',#1317,#1318);
#1317 = CARTESIAN_POINT('',(0.,0.));
#1318 = VECTOR('',#1319,1.);
#1319 = DIRECTION('',(0.,-1.));
#1320 = ( GEOMETRIC_REPRESENTATION_CONTEXT(2) 
PARAMETRIC_REPRESENTATION_CONTEXT() REPRESENTATION_CONTEXT('2D SPACE',''
  ) );
#1321 = ADVANCED_FACE('',(#1322),#670,.F.);
#1322 = FACE_BOUND('',#1323,.F.);
#1323 = EDGE_LOOP('',(#1324,#1346,#1347,#1369));
#1324 = ORIENTED_EDGE('',*,*,#1325,.F.);
#1325 = EDGE_CURVE('',#653,#683,#1326,.T.);
#1326 = SURFACE_CURVE('',#1327,(#1332,#1339),.PCURVE_S1.);
#1327 = CIRCLE('',#1328,0.89);
#1328 = AXIS2_PLACEMENT_3D('',#1329,#1330,#1331);
#1329 = CARTESIAN_POINT('',(-41.5,0.,54.5));
#1330 = DIRECTION('',(0.,0.,1.));
#1331 = DIRECTION('',(1.,0.,-0.));
#1332 = PCURVE('',#670,#1333);
#1333 = DEFINITIONAL_REPRESENTATION('',(#1334),#1338);
#1334 = LINE('',#1335,#1336);
#1335 = CARTESIAN_POINT('',(0.,0.));
#1336 = VECTOR('',#1337,1.);
#1337 = DIRECTION('',(1.,0.));
#1338 = ( GEOMETRIC_REPRESENTATION_CONTEXT(2) 
PARAMETRIC_REPRESENTATION_CONTEXT() REPRESENTATION_CONTEXT('2D SPACE',''
  ) );
#1339 = PCURVE('',#697,#1340);
#1340 = DEFINITIONAL_REPRESENTATION('',(#1341),#1345);
#1341 = CIRCLE('',#1342,0.89);
#1342 = AXIS2_PLACEMENT_2D('',#1343,#1344);
#1343 = CARTESIAN_POINT('',(0.,-1.168286122289E-17));
#1344 = DIRECTION('',(1.,0.));
#1345 = ( GEOMETRIC_REPRESENTATION_CONTEXT(2) 
PARAMETRIC_REPRESENTATION_CONTEXT() REPRESENTATION_CONTEXT('2D SPACE',''
  ) );
#1346 = ORIENTED_EDGE('',*,*,#652,.T.);
#1347 = ORIENTED_EDGE('',*,*,#1348,.T.);
#1348 = EDGE_CURVE('',#655,#709,#1349,.T.);
#1349 = SURFACE_CURVE('',#1350,(#1355,#1362),.PCURVE_S1.);
#1350 = CIRCLE('',#1351,0.89);
#1351 = AXIS2_PLACEMENT_3D('',#1352,#1353,#1354);
#1352 = CARTESIAN_POINT('',(-41.5,0.,44.5));
#1353 = DIRECTION('',(0.,0.,1.));
#1354 = DIRECTION('',(1.,0.,-0.));
#1355 = PCURVE('',#670,#1356);
#1356 = DEFINITIONAL_REPRESENTATION('',(#1357),#1361);
#1357 = LINE('',#1358,#1359);
#1358 = CARTESIAN_POINT('',(0.,-10.));
#1359 = VECTOR('',#1360,1.);
#1360 = DIRECTION('',(1.,0.));
#1361 = ( GEOMETRIC_REPRESENTATION_CONTEXT(2) 
PARAMETRIC_REPRESENTATION_CONTEXT() REPRESENTATION_CONTEXT('2D SPACE',''
  ) );
#1362 = PCURVE('',#742,#1363);
#1363 = DEFINITIONAL_REPRESENTATION('',(#1364),#1368);
#1364 = CIRCLE('',#1365,0.89);
#1365 = AXIS2_PLACEMENT_2D('',#1366,#1367);
#1366 = CARTESIAN_POINT('',(0.,-1.168286122289E-17));
#1367 = DIRECTION('',(1.,0.));
#1368 = ( GEOMETRIC_REPRESENTATION_CONTEXT(2) 
PARAMETRIC_REPRESENTATION_CONTEXT() REPRESENTATION_CONTEXT('2D SPACE',''
  ) );
#1369 = ORIENTED_EDGE('',*,*,#708,.T.);
#1370 = ADVANCED_FACE('',(#1371),#742,.T.);
#1371 = FACE_BOUND('',#1372,.T.);
#1372 = EDGE_LOOP('',(#1373,#1374));
#1373 = ORIENTED_EDGE('',*,*,#729,.F.);
#1374 = ORIENTED_EDGE('',*,*,#1348,.T.);
#1375 = ADVANCED_FACE('',(#1376),#697,.F.);
#1376 = FACE_BOUND('',#1377,.F.);
#1377 = EDGE_LOOP('',(#1378,#1379));
#1378 = ORIENTED_EDGE('',*,*,#682,.F.);
#1379 = ORIENTED_EDGE('',*,*,#1325,.T.);
#1380 = ADVANCED_FACE('',(#1381),#915,.F.);
#1381 = FACE_BOUND('',#1382,.F.);
#1382 = EDGE_LOOP('',(#1383,#1384,#1385,#1386));
#1383 = ORIENTED_EDGE('',*,*,#1151,.T.);
#1384 = ORIENTED_EDGE('',*,*,#1301,.T.);
#1385 = ORIENTED_EDGE('',*,*,#899,.T.);
#1386 = ORIENTED_EDGE('',*,*,#1018,.F.);
#1387 = ( GEOMETRIC_REPRESENTATION_CONTEXT(3) 
GLOBAL_UNCERTAINTY_ASSIGNED_CONTEXT((#1391)) 
GLOBAL_UNIT_ASSIGNED_CONTEXT((#1388,#1389,#1390)) REPRESENTATION_CONTEXT
('Context #1','3D Context with UNIT and UNCERTAINTY') );
#1388 = ( LENGTH_UNIT() NAMED_UNIT(*) SI_UNIT(.MILLI.,.METRE.) );
#1389 = ( NAMED_UNIT(*) PLANE_ANGLE_UNIT() SI_UNIT($,.RADIAN.) );
#1390 = ( NAMED_UNIT(*) SI_UNIT($,.STERADIAN.) SOLID_ANGLE_UNIT() );
#1391 = UNCERTAINTY_MEASURE_WITH_UNIT(LENGTH_MEASURE(1.E-07),#1388,
  'distance_accuracy_value','confusion accuracy');
#1392 = PRODUCT_RELATED_PRODUCT_CATEGORY('part',$,(#7));
ENDSEC;
END-ISO-10303-21;
