ISO-10303-21;
HEADER;
FILE_DESCRIPTION(('Open CASCADE Model'),'2;1');
FILE_NAME('Open CASCADE Shape Model','2026-09-14T15:31:43',('Author'),(
    'Open CASCADE'),'Open CASCADE STEP processor 7.9','Open CASCADE 7.9'
  ,'Unknown');
FILE_SCHEMA(('AUTOMOTIVE_DESIGN { 1 0 10303 214 1 1 1 1 }'));
ENDSEC;
DATA;
#1 = APPLICATION_PROTOCOL_DEFINITION('international standard',
  'automotive_design',2000,#2);
#2 = APPLICATION_CONTEXT(
  'core data for automotive mechanical design processes');
#3 = SHAPE_DEFINITION_REPRESENTATION(#4,#10);
#4 = PRODUCT_DEFINITION_SHAPE('','',#5);
#5 = PRODUCT_DEFINITION('design','',#6,#9);
#6 = PRODUCT_DEFINITION_FORMATION('','',#7);
#7 = PRODUCT('Open CASCADE STEP translator 7.9 1',
  'Open CASCADE STEP translator 7.9 1','',(#8));
#8 = PRODUCT_CONTEXT('',#2,'mechanical');
#9 = PRODUCT_DEFINITION_CONTEXT('part definition',#2,'design');
#10 = ADVANCED_BREP_SHAPE_REPRESENTATION('',(#11,#15),#1508);
#11 = AXIS2_PLACEMENT_3D('',#12,#13,#14);
#12 = CARTESIAN_POINT('',(0.,0.,0.));
#13 = DIRECTION('',(0.,0.,1.));
#14 = DIRECTION('',(1.,0.,-0.));
#15 = MANIFOLD_SOLID_BREP('',#16);
#16 = CLOSED_SHELL('',(#17,#107,#389,#513,#671,#776,#857,#955,#1031,
    #1097,#1182,#1239,#1278,#1330,#1354,#1361,#1368,#1416,#1442,#1468,
    #1495,#1501));
#17 = ADVANCED_FACE('',(#18),#31,.T.);
#18 = FACE_BOUND('',#19,.T.);
#19 = EDGE_LOOP('',(#20,#58,#79,#106));
#20 = ORIENTED_EDGE('',*,*,#21,.T.);
#21 = EDGE_CURVE('',#22,#22,#24,.T.);
#22 = VERTEX_POINT('',#23);
#23 = CARTESIAN_POINT('',(46.499999888739,3.216713912751E-03,69.9));
#24 = SURFACE_CURVE('',#25,(#30,#42),.PCURVE_S1.);
#25 = CIRCLE('',#26,46.5);
#26 = AXIS2_PLACEMENT_3D('',#27,#28,#29);
#27 = CARTESIAN_POINT('',(0.,0.,69.9));
#28 = DIRECTION('',(0.,0.,-1.));
#29 = DIRECTION('',(0.999999997607,6.9176643285E-05,0.));
#30 = PCURVE('',#31,#36);
#31 = CYLINDRICAL_SURFACE('',#32,46.5);
#32 = AXIS2_PLACEMENT_3D('',#33,#34,#35);
#33 = CARTESIAN_POINT('',(0.,0.,0.));
#34 = DIRECTION('',(-0.,-0.,-1.));
#35 = DIRECTION('',(1.,0.,0.));
#36 = DEFINITIONAL_REPRESENTATION('',(#37),#41);
#37 = LINE('',#38,#39);
#38 = CARTESIAN_POINT('',(-6.917664341355E-05,-69.9));
#39 = VECTOR('',#40,1.);
#40 = DIRECTION('',(1.,-0.));
#41 = ( GEOMETRIC_REPRESENTATION_CONTEXT(2) 
PARAMETRIC_REPRESENTATION_CONTEXT() REPRESENTATION_CONTEXT('2D SPACE',''
  ) );
#42 = PCURVE('',#43,#48);
#43 = PLANE('',#44);
#44 = AXIS2_PLACEMENT_3D('',#45,#46,#47);
#45 = CARTESIAN_POINT('',(-1.882068139409E-15,-1.61343992693E-17,69.9));
#46 = DIRECTION('',(0.,0.,1.));
#47 = DIRECTION('',(1.,0.,0.));
#48 = DEFINITIONAL_REPRESENTATION('',(#49),#57);
#49 = ( BOUNDED_CURVE() B_SPLINE_CURVE(2,(#50,#51,#52,#53,#54,#55,#56),
.UNSPECIFIED.,.T.,.F.) B_SPLINE_CURVE_WITH_KNOTS((1,2,2,2,2,1),(
    -2.094395102393,0.,2.094395102393,4.188790204786,6.28318530718,
8.377580409573),.UNSPECIFIED.) CURVE() GEOMETRIC_REPRESENTATION_ITEM() 
RATIONAL_B_SPLINE_CURVE((1.,0.5,1.,0.5,1.,0.5,1.)) REPRESENTATION_ITEM(
  '') );
#50 = CARTESIAN_POINT('',(46.499999888739,3.216713912753E-03));
#51 = CARTESIAN_POINT('',(46.50557140067,-80.53714564533));
#52 = CARTESIAN_POINT('',(-23.2472141884,-40.27178953657));
#53 = CARTESIAN_POINT('',(-92.99999977747,-6.433427825516E-03));
#54 = CARTESIAN_POINT('',(-23.25278570033,40.268572822665));
#55 = CARTESIAN_POINT('',(46.494428376809,80.543579073156));
#56 = CARTESIAN_POINT('',(46.499999888739,3.216713912753E-03));
#57 = ( GEOMETRIC_REPRESENTATION_CONTEXT(2) 
PARAMETRIC_REPRESENTATION_CONTEXT() REPRESENTATION_CONTEXT('2D SPACE',''
  ) );
#58 = ORIENTED_EDGE('',*,*,#59,.T.);
#59 = EDGE_CURVE('',#22,#60,#62,.T.);
#60 = VERTEX_POINT('',#61);
#61 = CARTESIAN_POINT('',(46.499999888739,3.216713912751E-03,0.));
#62 = SEAM_CURVE('',#63,(#67,#73),.PCURVE_S1.);
#63 = LINE('',#64,#65);
#64 = CARTESIAN_POINT('',(46.499999888739,3.216713912751E-03,0.));
#65 = VECTOR('',#66,1.);
#66 = DIRECTION('',(-0.,-0.,-1.));
#67 = PCURVE('',#31,#68);
#68 = DEFINITIONAL_REPRESENTATION('',(#69),#72);
#69 = B_SPLINE_CURVE_WITH_KNOTS('',1,(#70,#71),.UNSPECIFIED.,.F.,.F.,(2,
    2),(-69.9,-0.),.PIECEWISE_BEZIER_KNOTS.);
#70 = CARTESIAN_POINT('',(6.283116130536,-69.9));
#71 = CARTESIAN_POINT('',(6.283116130536,1.058791184068E-22));
#72 = ( GEOMETRIC_REPRESENTATION_CONTEXT(2) 
PARAMETRIC_REPRESENTATION_CONTEXT() REPRESENTATION_CONTEXT('2D SPACE',''
  ) );
#73 = PCURVE('',#31,#74);
#74 = DEFINITIONAL_REPRESENTATION('',(#75),#78);
#75 = B_SPLINE_CURVE_WITH_KNOTS('',1,(#76,#77),.UNSPECIFIED.,.F.,.F.,(2,
    2),(-69.9,-0.),.PIECEWISE_BEZIER_KNOTS.);
#76 = CARTESIAN_POINT('',(-6.917664341355E-05,-69.9));
#77 = CARTESIAN_POINT('',(-6.917664341355E-05,0.));
#78 = ( GEOMETRIC_REPRESENTATION_CONTEXT(2) 
PARAMETRIC_REPRESENTATION_CONTEXT() REPRESENTATION_CONTEXT('2D SPACE',''
  ) );
#79 = ORIENTED_EDGE('',*,*,#80,.T.);
#80 = EDGE_CURVE('',#60,#60,#81,.T.);
#81 = SURFACE_CURVE('',#82,(#87,#94),.PCURVE_S1.);
#82 = CIRCLE('',#83,46.5);
#83 = AXIS2_PLACEMENT_3D('',#84,#85,#86);
#84 = CARTESIAN_POINT('',(1.7763568394E-15,0.,0.));
#85 = DIRECTION('',(0.,0.,1.));
#86 = DIRECTION('',(0.999999997607,6.917664328497E-05,-0.));
#87 = PCURVE('',#31,#88);
#88 = DEFINITIONAL_REPRESENTATION('',(#89),#93);
#89 = LINE('',#90,#91);
#90 = CARTESIAN_POINT('',(6.283116130537,0.));
#91 = VECTOR('',#92,1.);
#92 = DIRECTION('',(-1.,0.));
#93 = ( GEOMETRIC_REPRESENTATION_CONTEXT(2) 
PARAMETRIC_REPRESENTATION_CONTEXT() REPRESENTATION_CONTEXT('2D SPACE',''
  ) );
#94 = PCURVE('',#95,#100);
#95 = PLANE('',#96);
#96 = AXIS2_PLACEMENT_3D('',#97,#98,#99);
#97 = CARTESIAN_POINT('',(-1.882068139409E-15,-1.61343992693E-17,0.));
#98 = DIRECTION('',(0.,0.,1.));
#99 = DIRECTION('',(1.,0.,0.));
#100 = DEFINITIONAL_REPRESENTATION('',(#101),#105);
#101 = CIRCLE('',#102,46.5);
#102 = AXIS2_PLACEMENT_2D('',#103,#104);
#103 = CARTESIAN_POINT('',(3.658424978809E-15,1.61343992693E-17));
#104 = DIRECTION('',(0.999999997607,6.917664328497E-05));
#105 = ( GEOMETRIC_REPRESENTATION_CONTEXT(2) 
PARAMETRIC_REPRESENTATION_CONTEXT() REPRESENTATION_CONTEXT('2D SPACE',''
  ) );
#106 = ORIENTED_EDGE('',*,*,#59,.F.);
#107 = ADVANCED_FACE('',(#108,#111),#95,.F.);
#108 = FACE_BOUND('',#109,.F.);
#109 = EDGE_LOOP('',(#110));
#110 = ORIENTED_EDGE('',*,*,#80,.T.);
#111 = FACE_BOUND('',#112,.F.);
#112 = EDGE_LOOP('',(#113,#163,#207,#255,#299,#343));
#113 = ORIENTED_EDGE('',*,*,#114,.F.);
#114 = EDGE_CURVE('',#115,#117,#119,.T.);
#115 = VERTEX_POINT('',#116);
#116 = CARTESIAN_POINT('',(37.8,0.,0.));
#117 = VERTEX_POINT('',#118);
#118 = CARTESIAN_POINT('',(37.799999863132,3.216713912751E-03,0.));
#119 = SURFACE_CURVE('',#120,(#125,#132),.PCURVE_S1.);
#120 = CIRCLE('',#121,37.8);
#121 = AXIS2_PLACEMENT_3D('',#122,#123,#124);
#122 = CARTESIAN_POINT('',(0.,0.,0.));
#123 = DIRECTION('',(0.,0.,1.));
#124 = DIRECTION('',(1.,0.,0.));
#125 = PCURVE('',#95,#126);
#126 = DEFINITIONAL_REPRESENTATION('',(#127),#131);
#127 = CIRCLE('',#128,37.8);
#128 = AXIS2_PLACEMENT_2D('',#129,#130);
#129 = CARTESIAN_POINT('',(1.882068139409E-15,1.61343992693E-17));
#130 = DIRECTION('',(1.,0.));
#131 = ( GEOMETRIC_REPRESENTATION_CONTEXT(2) 
PARAMETRIC_REPRESENTATION_CONTEXT() REPRESENTATION_CONTEXT('2D SPACE',''
  ) );
#132 = PCURVE('',#133,#158);
#133 = B_SPLINE_SURFACE_WITH_KNOTS('',11,1,(
    (#134,#135)
    ,(#136,#137)
    ,(#138,#139)
    ,(#140,#141)
    ,(#142,#143)
    ,(#144,#145)
    ,(#146,#147)
    ,(#148,#149)
    ,(#150,#151)
    ,(#152,#153)
    ,(#154,#155)
    ,(#156,#157
    )),.UNSPECIFIED.,.F.,.F.,.F.,(12,12),(2,2),(-73.5,0.),(0.,1.),
  .PIECEWISE_BEZIER_KNOTS.);
#134 = CARTESIAN_POINT('',(37.8,-7.105427357601E-15,0.));
#135 = CARTESIAN_POINT('',(36.75,0.75,99.));
#136 = CARTESIAN_POINT('',(37.8,10.725534618702,0.));
#137 = CARTESIAN_POINT('',(30.068181818182,0.75,99.));
#138 = CARTESIAN_POINT('',(34.452359659639,21.451068457069,0.));
#139 = CARTESIAN_POINT('',(23.386363636364,0.75,99.));
#140 = CARTESIAN_POINT('',(27.757079789678,31.015652162493,0.));
#141 = CARTESIAN_POINT('',(16.704545454545,0.75,99.));
#142 = CARTESIAN_POINT('',(18.167101192845,38.2582922896,0.));
#143 = CARTESIAN_POINT('',(10.022727272727,0.75,99.));
#144 = CARTESIAN_POINT('',(6.588333853533,42.220109895496,0.));
#145 = CARTESIAN_POINT('',(3.340909090909,0.75,99.));
#146 = CARTESIAN_POINT('',(-5.725506764718,42.345748249928,0.));
#147 = CARTESIAN_POINT('',(-3.340909090909,0.75,99.));
#148 = CARTESIAN_POINT('',(-17.38270020679,38.621007601877,0.));
#149 = CARTESIAN_POINT('',(-10.02272727272,0.75,99.));
#150 = CARTESIAN_POINT('',(-27.11846055823,31.575548363709,0.));
#151 = CARTESIAN_POINT('',(-16.70454545454,0.75,99.));
#152 = CARTESIAN_POINT('',(-34.00750154424,22.149565747081,0.));
#153 = CARTESIAN_POINT('',(-23.38636363636,0.75,99.));
#154 = CARTESIAN_POINT('',(-37.57328784484,11.494569734672,0.));
#155 = CARTESIAN_POINT('',(-30.06818181818,0.75,99.));
#156 = CARTESIAN_POINT('',(-37.79213073791,0.771267974243,0.));
#157 = CARTESIAN_POINT('',(-36.75,0.75,99.));
#158 = DEFINITIONAL_REPRESENTATION('',(#159),#162);
#159 = B_SPLINE_CURVE_WITH_KNOTS('',1,(#160,#161),.UNSPECIFIED.,.F.,.F.,
  (2,2),(0.,3.121187322903),.PIECEWISE_BEZIER_KNOTS.);
#160 = CARTESIAN_POINT('',(-73.5,0.));
#161 = CARTESIAN_POINT('',(0.,0.));
#162 = ( GEOMETRIC_REPRESENTATION_CONTEXT(2) 
PARAMETRIC_REPRESENTATION_CONTEXT() REPRESENTATION_CONTEXT('2D SPACE',''
  ) );
#163 = ORIENTED_EDGE('',*,*,#164,.F.);
#164 = EDGE_CURVE('',#165,#115,#167,.T.);
#165 = VERTEX_POINT('',#166);
#166 = CARTESIAN_POINT('',(37.792130737918,-0.771267974243,0.));
#167 = SURFACE_CURVE('',#168,(#173,#180),.PCURVE_S1.);
#168 = CIRCLE('',#169,37.8);
#169 = AXIS2_PLACEMENT_3D('',#170,#171,#172);
#170 = CARTESIAN_POINT('',(0.,0.,0.));
#171 = DIRECTION('',(0.,0.,1.));
#172 = DIRECTION('',(1.,0.,0.));
#173 = PCURVE('',#95,#174);
#174 = DEFINITIONAL_REPRESENTATION('',(#175),#179);
#175 = CIRCLE('',#176,37.8);
#176 = AXIS2_PLACEMENT_2D('',#177,#178);
#177 = CARTESIAN_POINT('',(1.882068139409E-15,1.61343992693E-17));
#178 = DIRECTION('',(1.,0.));
#179 = ( GEOMETRIC_REPRESENTATION_CONTEXT(2) 
PARAMETRIC_REPRESENTATION_CONTEXT() REPRESENTATION_CONTEXT('2D SPACE',''
  ) );
#180 = PCURVE('',#181,#202);
#181 = B_SPLINE_SURFACE_WITH_KNOTS('',9,1,(
    (#182,#183)
    ,(#184,#185)
    ,(#186,#187)
    ,(#188,#189)
    ,(#190,#191)
    ,(#192,#193)
    ,(#194,#195)
    ,(#196,#197)
    ,(#198,#199)
    ,(#200,#201
    )),.UNSPECIFIED.,.F.,.F.,.F.,(10,10),(2,2),(3.14159265359,
    6.28318530718),(0.,1.),.PIECEWISE_BEZIER_KNOTS.);
#182 = CARTESIAN_POINT('',(37.792130737918,-0.771267974243,0.));
#183 = CARTESIAN_POINT('',(36.75,-0.75,99.));
#184 = CARTESIAN_POINT('',(37.793879402147,-0.685583427015,0.));
#185 = CARTESIAN_POINT('',(37.011799387799,-0.75,99.));
#186 = CARTESIAN_POINT('',(37.795409506102,-0.599894419434,0.));
#187 = CARTESIAN_POINT('',(37.273601492499,-0.647191900061,
    98.999999999999));
#188 = CARTESIAN_POINT('',(37.796721043281,-0.514201588687,0.));
#189 = CARTESIAN_POINT('',(37.48924283384,-0.44157278914,99.000000000004
    ));
#190 = CARTESIAN_POINT('',(37.797814007183,-0.428505571955,0.));
#191 = CARTESIAN_POINT('',(37.612680472816,-0.157317457926,
    98.999999999993));
#192 = CARTESIAN_POINT('',(37.798688391308,-0.342807006425,0.));
#193 = CARTESIAN_POINT('',(37.612680472822,0.157317457926,
    99.000000000007));
#194 = CARTESIAN_POINT('',(37.799344189153,-0.25710652928,0.));
#195 = CARTESIAN_POINT('',(37.489242833835,0.44157278914,98.999999999994
    ));
#196 = CARTESIAN_POINT('',(37.799781394217,-0.171404777705,0.));
#197 = CARTESIAN_POINT('',(37.2736014925,0.647191900061,99.000000000003)
  );
#198 = CARTESIAN_POINT('',(37.8,-8.570238888347E-02,0.));
#199 = CARTESIAN_POINT('',(37.011799387799,0.75,98.999999999999));
#200 = CARTESIAN_POINT('',(37.8,-9.27036225562E-15,0.));
#201 = CARTESIAN_POINT('',(36.75,0.75,99.));
#202 = DEFINITIONAL_REPRESENTATION('',(#203),#206);
#203 = B_SPLINE_CURVE_WITH_KNOTS('',1,(#204,#205),.UNSPECIFIED.,.F.,.F.,
  (2,2),(6.262779976493,6.28318530718),.PIECEWISE_BEZIER_KNOTS.);
#204 = CARTESIAN_POINT('',(3.14159265359,0.));
#205 = CARTESIAN_POINT('',(6.28318530718,0.));
#206 = ( GEOMETRIC_REPRESENTATION_CONTEXT(2) 
PARAMETRIC_REPRESENTATION_CONTEXT() REPRESENTATION_CONTEXT('2D SPACE',''
  ) );
#207 = ORIENTED_EDGE('',*,*,#208,.F.);
#208 = EDGE_CURVE('',#209,#165,#211,.T.);
#209 = VERTEX_POINT('',#210);
#210 = CARTESIAN_POINT('',(-37.79213073791,-0.771267974243,0.));
#211 = SURFACE_CURVE('',#212,(#217,#224),.PCURVE_S1.);
#212 = CIRCLE('',#213,37.8);
#213 = AXIS2_PLACEMENT_3D('',#214,#215,#216);
#214 = CARTESIAN_POINT('',(0.,0.,0.));
#215 = DIRECTION('',(0.,0.,1.));
#216 = DIRECTION('',(1.,0.,0.));
#217 = PCURVE('',#95,#218);
#218 = DEFINITIONAL_REPRESENTATION('',(#219),#223);
#219 = CIRCLE('',#220,37.8);
#220 = AXIS2_PLACEMENT_2D('',#221,#222);
#221 = CARTESIAN_POINT('',(1.882068139409E-15,1.61343992693E-17));
#222 = DIRECTION('',(1.,0.));
#223 = ( GEOMETRIC_REPRESENTATION_CONTEXT(2) 
PARAMETRIC_REPRESENTATION_CONTEXT() REPRESENTATION_CONTEXT('2D SPACE',''
  ) );
#224 = PCURVE('',#225,#250);
#225 = B_SPLINE_SURFACE_WITH_KNOTS('',11,1,(
    (#226,#227)
    ,(#228,#229)
    ,(#230,#231)
    ,(#232,#233)
    ,(#234,#235)
    ,(#236,#237)
    ,(#238,#239)
    ,(#240,#241)
    ,(#242,#243)
    ,(#244,#245)
    ,(#246,#247)
    ,(#248,#249
    )),.UNSPECIFIED.,.F.,.F.,.F.,(12,12),(2,2),(-73.5,0.),(0.,1.),
  .PIECEWISE_BEZIER_KNOTS.);
#226 = CARTESIAN_POINT('',(-37.79213073791,-0.771267974243,0.));
#227 = CARTESIAN_POINT('',(-36.75,-0.75,99.));
#228 = CARTESIAN_POINT('',(-37.57471857012,-11.42446419602,0.));
#229 = CARTESIAN_POINT('',(-30.06818181818,-0.75,99.));
#230 = CARTESIAN_POINT('',(-34.05398244305,-22.01024492189,0.));
#231 = CARTESIAN_POINT('',(-23.38636363636,-0.75,99.));
#232 = CARTESIAN_POINT('',(-27.25314953237,-31.390518583,0.));
#233 = CARTESIAN_POINT('',(-16.70454545454,-0.75,99.));
#234 = CARTESIAN_POINT('',(-17.63656680973,-38.43615531257,0.));
#235 = CARTESIAN_POINT('',(-10.02272727272,-0.75,99.));
#236 = CARTESIAN_POINT('',(-6.105738169345,-42.22257429826,0.));
#237 = CARTESIAN_POINT('',(-3.340909090909,-0.75,99.));
#238 = CARTESIAN_POINT('',(6.105738169345,-42.22257429824,0.));
#239 = CARTESIAN_POINT('',(3.340909090909,-0.75,99.));
#240 = CARTESIAN_POINT('',(17.636566809734,-38.43615531259,0.));
#241 = CARTESIAN_POINT('',(10.022727272727,-0.75,99.));
#242 = CARTESIAN_POINT('',(27.253149532378,-31.39051858299,0.));
#243 = CARTESIAN_POINT('',(16.704545454545,-0.75,99.));
#244 = CARTESIAN_POINT('',(34.053982443054,-22.01024492189,0.));
#245 = CARTESIAN_POINT('',(23.386363636364,-0.75,99.));
#246 = CARTESIAN_POINT('',(37.574718570127,-11.42446419602,0.));
#247 = CARTESIAN_POINT('',(30.068181818182,-0.75,99.));
#248 = CARTESIAN_POINT('',(37.792130737918,-0.771267974243,0.));
#249 = CARTESIAN_POINT('',(36.75,-0.75,99.));
#250 = DEFINITIONAL_REPRESENTATION('',(#251),#254);
#251 = B_SPLINE_CURVE_WITH_KNOTS('',1,(#252,#253),.UNSPECIFIED.,.F.,.F.,
  (2,2),(3.161997984276,6.262779976493),.PIECEWISE_BEZIER_KNOTS.);
#252 = CARTESIAN_POINT('',(-73.5,0.));
#253 = CARTESIAN_POINT('',(0.,0.));
#254 = ( GEOMETRIC_REPRESENTATION_CONTEXT(2) 
PARAMETRIC_REPRESENTATION_CONTEXT() REPRESENTATION_CONTEXT('2D SPACE',''
  ) );
#255 = ORIENTED_EDGE('',*,*,#256,.F.);
#256 = EDGE_CURVE('',#257,#209,#259,.T.);
#257 = VERTEX_POINT('',#258);
#258 = CARTESIAN_POINT('',(-37.79999986313,3.216713912749E-03,0.));
#259 = SURFACE_CURVE('',#260,(#265,#272),.PCURVE_S1.);
#260 = CIRCLE('',#261,37.8);
#261 = AXIS2_PLACEMENT_3D('',#262,#263,#264);
#262 = CARTESIAN_POINT('',(0.,0.,0.));
#263 = DIRECTION('',(0.,0.,1.));
#264 = DIRECTION('',(1.,0.,0.));
#265 = PCURVE('',#95,#266);
#266 = DEFINITIONAL_REPRESENTATION('',(#267),#271);
#267 = CIRCLE('',#268,37.8);
#268 = AXIS2_PLACEMENT_2D('',#269,#270);
#269 = CARTESIAN_POINT('',(1.882068139409E-15,1.61343992693E-17));
#270 = DIRECTION('',(1.,0.));
#271 = ( GEOMETRIC_REPRESENTATION_CONTEXT(2) 
PARAMETRIC_REPRESENTATION_CONTEXT() REPRESENTATION_CONTEXT('2D SPACE',''
  ) );
#272 = PCURVE('',#273,#294);
#273 = B_SPLINE_SURFACE_WITH_KNOTS('',9,1,(
    (#274,#275)
    ,(#276,#277)
    ,(#278,#279)
    ,(#280,#281)
    ,(#282,#283)
    ,(#284,#285)
    ,(#286,#287)
    ,(#288,#289)
    ,(#290,#291)
    ,(#292,#293
    )),.UNSPECIFIED.,.F.,.F.,.F.,(10,10),(2,2),(3.14159265359,
    6.28318530718),(0.,1.),.PIECEWISE_BEZIER_KNOTS.);
#274 = CARTESIAN_POINT('',(-37.79213073791,0.771267974243,0.));
#275 = CARTESIAN_POINT('',(-36.75,0.75,99.));
#276 = CARTESIAN_POINT('',(-37.79562806637,0.599898879786,0.));
#277 = CARTESIAN_POINT('',(-37.01179938779,0.75,99.));
#278 = CARTESIAN_POINT('',(-37.79825118407,0.428511943798,0.));
#279 = CARTESIAN_POINT('',(-37.27360149249,0.647191900061,
    98.999999999999));
#280 = CARTESIAN_POINT('',(-37.79999998699,0.257112263859,0.));
#281 = CARTESIAN_POINT('',(-37.48924283384,0.44157278914,99.000000000004
    ));
#282 = CARTESIAN_POINT('',(-37.80087440579,8.570493754982E-02,0.));
#283 = CARTESIAN_POINT('',(-37.61268047281,0.157317457926,
    98.999999999993));
#284 = CARTESIAN_POINT('',(-37.80087440579,-8.570493754981E-02,0.));
#285 = CARTESIAN_POINT('',(-37.61268047282,-0.157317457926,
    99.000000000007));
#286 = CARTESIAN_POINT('',(-37.79999998699,-0.257112263859,0.));
#287 = CARTESIAN_POINT('',(-37.48924283383,-0.44157278914,
    98.999999999994));
#288 = CARTESIAN_POINT('',(-37.79825118407,-0.428511943798,0.));
#289 = CARTESIAN_POINT('',(-37.2736014925,-0.647191900061,
    99.000000000003));
#290 = CARTESIAN_POINT('',(-37.79562806637,-0.599898879786,0.));
#291 = CARTESIAN_POINT('',(-37.01179938779,-0.75,98.999999999999));
#292 = CARTESIAN_POINT('',(-37.79213073791,-0.771267974243,0.));
#293 = CARTESIAN_POINT('',(-36.75,-0.75,99.));
#294 = DEFINITIONAL_REPRESENTATION('',(#295),#298);
#295 = B_SPLINE_CURVE_WITH_KNOTS('',1,(#296,#297),.UNSPECIFIED.,.F.,.F.,
  (2,2),(3.121187322903,3.161997984276),.PIECEWISE_BEZIER_KNOTS.);
#296 = CARTESIAN_POINT('',(3.14159265359,0.));
#297 = CARTESIAN_POINT('',(6.28318530718,0.));
#298 = ( GEOMETRIC_REPRESENTATION_CONTEXT(2) 
PARAMETRIC_REPRESENTATION_CONTEXT() REPRESENTATION_CONTEXT('2D SPACE',''
  ) );
#299 = ORIENTED_EDGE('',*,*,#300,.F.);
#300 = EDGE_CURVE('',#301,#257,#303,.T.);
#301 = VERTEX_POINT('',#302);
#302 = CARTESIAN_POINT('',(-37.79213073791,0.771267974243,0.));
#303 = SURFACE_CURVE('',#304,(#309,#316),.PCURVE_S1.);
#304 = CIRCLE('',#305,37.8);
#305 = AXIS2_PLACEMENT_3D('',#306,#307,#308);
#306 = CARTESIAN_POINT('',(0.,0.,0.));
#307 = DIRECTION('',(0.,0.,1.));
#308 = DIRECTION('',(1.,0.,0.));
#309 = PCURVE('',#95,#310);
#310 = DEFINITIONAL_REPRESENTATION('',(#311),#315);
#311 = CIRCLE('',#312,37.8);
#312 = AXIS2_PLACEMENT_2D('',#313,#314);
#313 = CARTESIAN_POINT('',(1.882068139409E-15,1.61343992693E-17));
#314 = DIRECTION('',(1.,0.));
#315 = ( GEOMETRIC_REPRESENTATION_CONTEXT(2) 
PARAMETRIC_REPRESENTATION_CONTEXT() REPRESENTATION_CONTEXT('2D SPACE',''
  ) );
#316 = PCURVE('',#317,#338);
#317 = B_SPLINE_SURFACE_WITH_KNOTS('',9,1,(
    (#318,#319)
    ,(#320,#321)
    ,(#322,#323)
    ,(#324,#325)
    ,(#326,#327)
    ,(#328,#329)
    ,(#330,#331)
    ,(#332,#333)
    ,(#334,#335)
    ,(#336,#337
    )),.UNSPECIFIED.,.F.,.F.,.F.,(10,10),(2,2),(3.14159265359,
    6.28318530718),(0.,1.),.PIECEWISE_BEZIER_KNOTS.);
#318 = CARTESIAN_POINT('',(-37.79213073791,0.771267974243,0.));
#319 = CARTESIAN_POINT('',(-36.75,0.75,99.));
#320 = CARTESIAN_POINT('',(-37.79562806637,0.599898879786,0.));
#321 = CARTESIAN_POINT('',(-37.01179938779,0.75,99.));
#322 = CARTESIAN_POINT('',(-37.79825118407,0.428511943798,0.));
#323 = CARTESIAN_POINT('',(-37.27360149249,0.647191900061,
    98.999999999999));
#324 = CARTESIAN_POINT('',(-37.79999998699,0.257112263859,0.));
#325 = CARTESIAN_POINT('',(-37.48924283384,0.44157278914,99.000000000004
    ));
#326 = CARTESIAN_POINT('',(-37.80087440579,8.570493754982E-02,0.));
#327 = CARTESIAN_POINT('',(-37.61268047281,0.157317457926,
    98.999999999993));
#328 = CARTESIAN_POINT('',(-37.80087440579,-8.570493754981E-02,0.));
#329 = CARTESIAN_POINT('',(-37.61268047282,-0.157317457926,
    99.000000000007));
#330 = CARTESIAN_POINT('',(-37.79999998699,-0.257112263859,0.));
#331 = CARTESIAN_POINT('',(-37.48924283383,-0.44157278914,
    98.999999999994));
#332 = CARTESIAN_POINT('',(-37.79825118407,-0.428511943798,0.));
#333 = CARTESIAN_POINT('',(-37.2736014925,-0.647191900061,
    99.000000000003));
#334 = CARTESIAN_POINT('',(-37.79562806637,-0.599898879786,0.));
#335 = CARTESIAN_POINT('',(-37.01179938779,-0.75,98.999999999999));
#336 = CARTESIAN_POINT('',(-37.79213073791,-0.771267974243,0.));
#337 = CARTESIAN_POINT('',(-36.75,-0.75,99.));
#338 = DEFINITIONAL_REPRESENTATION('',(#339),#342);
#339 = B_SPLINE_CURVE_WITH_KNOTS('',1,(#340,#341),.UNSPECIFIED.,.F.,.F.,
  (2,2),(3.121187322903,3.161997984276),.PIECEWISE_BEZIER_KNOTS.);
#340 = CARTESIAN_POINT('',(3.14159265359,0.));
#341 = CARTESIAN_POINT('',(6.28318530718,0.));
#342 = ( GEOMETRIC_REPRESENTATION_CONTEXT(2) 
PARAMETRIC_REPRESENTATION_CONTEXT() REPRESENTATION_CONTEXT('2D SPACE',''
  ) );
#343 = ORIENTED_EDGE('',*,*,#344,.F.);
#344 = EDGE_CURVE('',#117,#301,#345,.T.);
#345 = SURFACE_CURVE('',#346,(#351,#358),.PCURVE_S1.);
#346 = CIRCLE('',#347,37.8);
#347 = AXIS2_PLACEMENT_3D('',#348,#349,#350);
#348 = CARTESIAN_POINT('',(0.,0.,0.));
#349 = DIRECTION('',(0.,0.,1.));
#350 = DIRECTION('',(1.,0.,0.));
#351 = PCURVE('',#95,#352);
#352 = DEFINITIONAL_REPRESENTATION('',(#353),#357);
#353 = CIRCLE('',#354,37.8);
#354 = AXIS2_PLACEMENT_2D('',#355,#356);
#355 = CARTESIAN_POINT('',(1.882068139409E-15,1.61343992693E-17));
#356 = DIRECTION('',(1.,0.));
#357 = ( GEOMETRIC_REPRESENTATION_CONTEXT(2) 
PARAMETRIC_REPRESENTATION_CONTEXT() REPRESENTATION_CONTEXT('2D SPACE',''
  ) );
#358 = PCURVE('',#359,#384);
#359 = B_SPLINE_SURFACE_WITH_KNOTS('',11,1,(
    (#360,#361)
    ,(#362,#363)
    ,(#364,#365)
    ,(#366,#367)
    ,(#368,#369)
    ,(#370,#371)
    ,(#372,#373)
    ,(#374,#375)
    ,(#376,#377)
    ,(#378,#379)
    ,(#380,#381)
    ,(#382,#383
    )),.UNSPECIFIED.,.F.,.F.,.F.,(12,12),(2,2),(-73.5,0.),(0.,1.),
  .PIECEWISE_BEZIER_KNOTS.);
#360 = CARTESIAN_POINT('',(37.8,-7.105427357601E-15,0.));
#361 = CARTESIAN_POINT('',(36.75,0.75,99.));
#362 = CARTESIAN_POINT('',(37.8,10.725534618702,0.));
#363 = CARTESIAN_POINT('',(30.068181818182,0.75,99.));
#364 = CARTESIAN_POINT('',(34.452359659639,21.451068457069,0.));
#365 = CARTESIAN_POINT('',(23.386363636364,0.75,99.));
#366 = CARTESIAN_POINT('',(27.757079789678,31.015652162493,0.));
#367 = CARTESIAN_POINT('',(16.704545454545,0.75,99.));
#368 = CARTESIAN_POINT('',(18.167101192845,38.2582922896,0.));
#369 = CARTESIAN_POINT('',(10.022727272727,0.75,99.));
#370 = CARTESIAN_POINT('',(6.588333853533,42.220109895496,0.));
#371 = CARTESIAN_POINT('',(3.340909090909,0.75,99.));
#372 = CARTESIAN_POINT('',(-5.725506764718,42.345748249928,0.));
#373 = CARTESIAN_POINT('',(-3.340909090909,0.75,99.));
#374 = CARTESIAN_POINT('',(-17.38270020679,38.621007601877,0.));
#375 = CARTESIAN_POINT('',(-10.02272727272,0.75,99.));
#376 = CARTESIAN_POINT('',(-27.11846055823,31.575548363709,0.));
#377 = CARTESIAN_POINT('',(-16.70454545454,0.75,99.));
#378 = CARTESIAN_POINT('',(-34.00750154424,22.149565747081,0.));
#379 = CARTESIAN_POINT('',(-23.38636363636,0.75,99.));
#380 = CARTESIAN_POINT('',(-37.57328784484,11.494569734672,0.));
#381 = CARTESIAN_POINT('',(-30.06818181818,0.75,99.));
#382 = CARTESIAN_POINT('',(-37.79213073791,0.771267974243,0.));
#383 = CARTESIAN_POINT('',(-36.75,0.75,99.));
#384 = DEFINITIONAL_REPRESENTATION('',(#385),#388);
#385 = B_SPLINE_CURVE_WITH_KNOTS('',1,(#386,#387),.UNSPECIFIED.,.F.,.F.,
  (2,2),(0.,3.121187322903),.PIECEWISE_BEZIER_KNOTS.);
#386 = CARTESIAN_POINT('',(-73.5,0.));
#387 = CARTESIAN_POINT('',(0.,0.));
#388 = ( GEOMETRIC_REPRESENTATION_CONTEXT(2) 
PARAMETRIC_REPRESENTATION_CONTEXT() REPRESENTATION_CONTEXT('2D SPACE',''
  ) );
#389 = ADVANCED_FACE('',(#390),#359,.F.);
#390 = FACE_BOUND('',#391,.F.);
#391 = EDGE_LOOP('',(#392,#421,#422,#444,#472));
#392 = ORIENTED_EDGE('',*,*,#393,.F.);
#393 = EDGE_CURVE('',#117,#394,#396,.T.);
#394 = VERTEX_POINT('',#395);
#395 = CARTESIAN_POINT('',(37.795496600522,3.216713912751E-03,
    0.424606236484));
#396 = SURFACE_CURVE('',#397,(#403,#412),.PCURVE_S1.);
#397 = B_SPLINE_CURVE_WITH_KNOTS('',4,(#398,#399,#400,#401,#402),
  .UNSPECIFIED.,.F.,.F.,(5,5),(0.,1.),.PIECEWISE_BEZIER_KNOTS.);
#398 = CARTESIAN_POINT('',(37.799999863132,3.216713912751E-03,0.));
#399 = CARTESIAN_POINT('',(37.798871932963,3.216713912751E-03,
    0.106151546809));
#400 = CARTESIAN_POINT('',(37.797745406425,3.216713912751E-03,
    0.212303101828));
#401 = CARTESIAN_POINT('',(37.796620292549,3.216713912751E-03,
    0.318454665056));
#402 = CARTESIAN_POINT('',(37.795496600522,3.216713912751E-03,
    0.424606236484));
#403 = PCURVE('',#359,#404);
#404 = DEFINITIONAL_REPRESENTATION('',(#405),#411);
#405 = B_SPLINE_CURVE_WITH_KNOTS('',4,(#406,#407,#408,#409,#410),
  .UNSPECIFIED.,.F.,.F.,(5,5),(0.,1.),.PIECEWISE_BEZIER_KNOTS.);
#406 = CARTESIAN_POINT('',(-73.49799604417,0.));
#407 = CARTESIAN_POINT('',(-73.49849488436,1.072237846559E-03));
#408 = CARTESIAN_POINT('',(-73.49899515091,2.144475776043E-03));
#409 = CARTESIAN_POINT('',(-73.49949685301,3.216713788446E-03));
#410 = CARTESIAN_POINT('',(-73.5,4.288951883677E-03));
#411 = ( GEOMETRIC_REPRESENTATION_CONTEXT(2) 
PARAMETRIC_REPRESENTATION_CONTEXT() REPRESENTATION_CONTEXT('2D SPACE',''
  ) );
#412 = PCURVE('',#133,#413);
#413 = DEFINITIONAL_REPRESENTATION('',(#414),#420);
#414 = B_SPLINE_CURVE_WITH_KNOTS('',4,(#415,#416,#417,#418,#419),
  .UNSPECIFIED.,.F.,.F.,(5,5),(0.,1.),.PIECEWISE_BEZIER_KNOTS.);
#415 = CARTESIAN_POINT('',(-73.49799604417,0.));
#416 = CARTESIAN_POINT('',(-73.49849488436,1.072237846559E-03));
#417 = CARTESIAN_POINT('',(-73.49899515091,2.144475776043E-03));
#418 = CARTESIAN_POINT('',(-73.49949685301,3.216713788446E-03));
#419 = CARTESIAN_POINT('',(-73.5,4.288951883677E-03));
#420 = ( GEOMETRIC_REPRESENTATION_CONTEXT(2) 
PARAMETRIC_REPRESENTATION_CONTEXT() REPRESENTATION_CONTEXT('2D SPACE',''
  ) );
#421 = ORIENTED_EDGE('',*,*,#344,.T.);
#422 = ORIENTED_EDGE('',*,*,#423,.T.);
#423 = EDGE_CURVE('',#301,#424,#426,.T.);
#424 = VERTEX_POINT('',#425);
#425 = CARTESIAN_POINT('',(-36.75,0.75,99.));
#426 = SURFACE_CURVE('',#427,(#430,#437),.PCURVE_S1.);
#427 = B_SPLINE_CURVE_WITH_KNOTS('',1,(#428,#429),.UNSPECIFIED.,.F.,.F.,
  (2,2),(0.,1.),.PIECEWISE_BEZIER_KNOTS.);
#428 = CARTESIAN_POINT('',(-37.79213073791,0.771267974243,0.));
#429 = CARTESIAN_POINT('',(-36.75,0.75,99.));
#430 = PCURVE('',#359,#431);
#431 = DEFINITIONAL_REPRESENTATION('',(#432),#436);
#432 = LINE('',#433,#434);
#433 = CARTESIAN_POINT('',(0.,0.));
#434 = VECTOR('',#435,1.);
#435 = DIRECTION('',(0.,1.));
#436 = ( GEOMETRIC_REPRESENTATION_CONTEXT(2) 
PARAMETRIC_REPRESENTATION_CONTEXT() REPRESENTATION_CONTEXT('2D SPACE',''
  ) );
#437 = PCURVE('',#317,#438);
#438 = DEFINITIONAL_REPRESENTATION('',(#439),#443);
#439 = LINE('',#440,#441);
#440 = CARTESIAN_POINT('',(3.14159265359,0.));
#441 = VECTOR('',#442,1.);
#442 = DIRECTION('',(0.,1.));
#443 = ( GEOMETRIC_REPRESENTATION_CONTEXT(2) 
PARAMETRIC_REPRESENTATION_CONTEXT() REPRESENTATION_CONTEXT('2D SPACE',''
  ) );
#444 = ORIENTED_EDGE('',*,*,#445,.T.);
#445 = EDGE_CURVE('',#424,#446,#448,.T.);
#446 = VERTEX_POINT('',#447);
#447 = CARTESIAN_POINT('',(36.75,0.75,99.));
#448 = SURFACE_CURVE('',#449,(#453,#460),.PCURVE_S1.);
#449 = LINE('',#450,#451);
#450 = CARTESIAN_POINT('',(-36.75,0.75,99.));
#451 = VECTOR('',#452,1.);
#452 = DIRECTION('',(1.,0.,0.));
#453 = PCURVE('',#359,#454);
#454 = DEFINITIONAL_REPRESENTATION('',(#455),#459);
#455 = LINE('',#456,#457);
#456 = CARTESIAN_POINT('',(0.,1.));
#457 = VECTOR('',#458,1.);
#458 = DIRECTION('',(-1.,0.));
#459 = ( GEOMETRIC_REPRESENTATION_CONTEXT(2) 
PARAMETRIC_REPRESENTATION_CONTEXT() REPRESENTATION_CONTEXT('2D SPACE',''
  ) );
#460 = PCURVE('',#461,#466);
#461 = PLANE('',#462);
#462 = AXIS2_PLACEMENT_3D('',#463,#464,#465);
#463 = CARTESIAN_POINT('',(-36.75,0.75,99.));
#464 = DIRECTION('',(0.,1.,0.));
#465 = DIRECTION('',(1.,0.,0.));
#466 = DEFINITIONAL_REPRESENTATION('',(#467),#471);
#467 = LINE('',#468,#469);
#468 = CARTESIAN_POINT('',(0.,0.));
#469 = VECTOR('',#470,1.);
#470 = DIRECTION('',(1.,0.));
#471 = ( GEOMETRIC_REPRESENTATION_CONTEXT(2) 
PARAMETRIC_REPRESENTATION_CONTEXT() REPRESENTATION_CONTEXT('2D SPACE',''
  ) );
#472 = ORIENTED_EDGE('',*,*,#473,.F.);
#473 = EDGE_CURVE('',#394,#446,#474,.T.);
#474 = SURFACE_CURVE('',#475,(#478,#485),.PCURVE_S1.);
#475 = B_SPLINE_CURVE_WITH_KNOTS('',1,(#476,#477),.UNSPECIFIED.,.F.,.F.,
  (2,2),(0.,1.),.PIECEWISE_BEZIER_KNOTS.);
#476 = CARTESIAN_POINT('',(37.8,-7.105427357601E-15,0.));
#477 = CARTESIAN_POINT('',(36.75,0.75,99.));
#478 = PCURVE('',#359,#479);
#479 = DEFINITIONAL_REPRESENTATION('',(#480),#484);
#480 = LINE('',#481,#482);
#481 = CARTESIAN_POINT('',(-73.5,0.));
#482 = VECTOR('',#483,1.);
#483 = DIRECTION('',(0.,1.));
#484 = ( GEOMETRIC_REPRESENTATION_CONTEXT(2) 
PARAMETRIC_REPRESENTATION_CONTEXT() REPRESENTATION_CONTEXT('2D SPACE',''
  ) );
#485 = PCURVE('',#486,#507);
#486 = B_SPLINE_SURFACE_WITH_KNOTS('',9,1,(
    (#487,#488)
    ,(#489,#490)
    ,(#491,#492)
    ,(#493,#494)
    ,(#495,#496)
    ,(#497,#498)
    ,(#499,#500)
    ,(#501,#502)
    ,(#503,#504)
    ,(#505,#506
    )),.UNSPECIFIED.,.F.,.F.,.F.,(10,10),(2,2),(3.14159265359,
    6.28318530718),(0.,1.),.PIECEWISE_BEZIER_KNOTS.);
#487 = CARTESIAN_POINT('',(37.792130737918,-0.771267974243,0.));
#488 = CARTESIAN_POINT('',(36.75,-0.75,99.));
#489 = CARTESIAN_POINT('',(37.793879402147,-0.685583427015,0.));
#490 = CARTESIAN_POINT('',(37.011799387799,-0.75,99.));
#491 = CARTESIAN_POINT('',(37.795409506102,-0.599894419434,0.));
#492 = CARTESIAN_POINT('',(37.273601492499,-0.647191900061,
    98.999999999999));
#493 = CARTESIAN_POINT('',(37.796721043281,-0.514201588687,0.));
#494 = CARTESIAN_POINT('',(37.48924283384,-0.44157278914,99.000000000004
    ));
#495 = CARTESIAN_POINT('',(37.797814007183,-0.428505571955,0.));
#496 = CARTESIAN_POINT('',(37.612680472816,-0.157317457926,
    98.999999999993));
#497 = CARTESIAN_POINT('',(37.798688391308,-0.342807006425,0.));
#498 = CARTESIAN_POINT('',(37.612680472822,0.157317457926,
    99.000000000007));
#499 = CARTESIAN_POINT('',(37.799344189153,-0.25710652928,0.));
#500 = CARTESIAN_POINT('',(37.489242833835,0.44157278914,98.999999999994
    ));
#501 = CARTESIAN_POINT('',(37.799781394217,-0.171404777705,0.));
#502 = CARTESIAN_POINT('',(37.2736014925,0.647191900061,99.000000000003)
  );
#503 = CARTESIAN_POINT('',(37.8,-8.570238888347E-02,0.));
#504 = CARTESIAN_POINT('',(37.011799387799,0.75,98.999999999999));
#505 = CARTESIAN_POINT('',(37.8,-9.27036225562E-15,0.));
#506 = CARTESIAN_POINT('',(36.75,0.75,99.));
#507 = DEFINITIONAL_REPRESENTATION('',(#508),#512);
#508 = LINE('',#509,#510);
#509 = CARTESIAN_POINT('',(6.28318530718,0.));
#510 = VECTOR('',#511,1.);
#511 = DIRECTION('',(0.,1.));
#512 = ( GEOMETRIC_REPRESENTATION_CONTEXT(2) 
PARAMETRIC_REPRESENTATION_CONTEXT() REPRESENTATION_CONTEXT('2D SPACE',''
  ) );
#513 = ADVANCED_FACE('',(#514),#486,.F.);
#514 = FACE_BOUND('',#515,.F.);
#515 = EDGE_LOOP('',(#516,#644,#645));
#516 = ORIENTED_EDGE('',*,*,#517,.F.);
#517 = EDGE_CURVE('',#394,#518,#520,.T.);
#518 = VERTEX_POINT('',#519);
#519 = CARTESIAN_POINT('',(37.499993101803,3.216713912751E-03,99.));
#520 = SURFACE_CURVE('',#521,(#560,#602),.PCURVE_S1.);
#521 = B_SPLINE_CURVE_WITH_KNOTS('',7,(#522,#523,#524,#525,#526,#527,
    #528,#529,#530,#531,#532,#533,#534,#535,#536,#537,#538,#539,#540,
    #541,#542,#543,#544,#545,#546,#547,#548,#549,#550,#551,#552,#553,
    #554,#555,#556,#557,#558,#559),.UNSPECIFIED.,.F.,.F.,(8,6,6,6,6,6,8)
  ,(0.,7.444463539427E-02,0.19473740372,0.376729374166,0.55863294258,
    0.969467266241,1.),.UNSPECIFIED.);
#522 = CARTESIAN_POINT('',(37.795496600522,3.216713912751E-03,
    0.424606236484));
#523 = CARTESIAN_POINT('',(37.784486232802,3.216713912751E-03,
    1.472576124453));
#524 = CARTESIAN_POINT('',(37.774078252353,3.216713912751E-03,
    2.520527814157));
#525 = CARTESIAN_POINT('',(37.764298146723,3.216713912751E-03,
    3.568464673152));
#526 = CARTESIAN_POINT('',(37.755161014797,3.216713912751E-03,
    4.616391443341));
#527 = CARTESIAN_POINT('',(37.746666482676,3.216713912751E-03,
    5.664313788188));
#528 = CARTESIAN_POINT('',(37.738798259306,3.216713912751E-03,
    6.712237707624));
#529 = CARTESIAN_POINT('',(37.719781082469,3.216713912751E-03,
    9.453488076345));
#530 = CARTESIAN_POINT('',(37.709595891579,3.216713912751E-03,
    11.14682603285));
#531 = CARTESIAN_POINT('',(37.700855424893,3.216713912751E-03,
    12.840205670887));
#532 = CARTESIAN_POINT('',(37.693358080667,3.216713912751E-03,
    14.533645750873));
#533 = CARTESIAN_POINT('',(37.686875443827,3.216713912751E-03,
    16.227154096293));
#534 = CARTESIAN_POINT('',(37.68121273103,3.216713912751E-03,
    17.920731107828));
#535 = CARTESIAN_POINT('',(37.668623150032,3.216713912751E-03,
    22.176696158487));
#536 = CARTESIAN_POINT('',(37.662538157324,3.216713912751E-03,
    24.739168149203));
#537 = CARTESIAN_POINT('',(37.657369123469,3.216713912751E-03,
    27.30177566164));
#538 = CARTESIAN_POINT('',(37.652712013809,3.216713912751E-03,
    29.864494001434));
#539 = CARTESIAN_POINT('',(37.648340621158,3.216713912751E-03,
    32.427300987111));
#540 = CARTESIAN_POINT('',(37.64409305003,3.216713912751E-03,
    34.990178229651));
#541 = CARTESIAN_POINT('',(37.635642364291,3.216713912751E-03,
    40.114800560927));
#542 = CARTESIAN_POINT('',(37.631438885845,3.216713912751E-03,
    42.676546319639));
#543 = CARTESIAN_POINT('',(37.627152687144,3.216713912751E-03,
    45.238337133044));
#544 = CARTESIAN_POINT('',(37.622729867682,3.216713912751E-03,
    47.8001633524));
#545 = CARTESIAN_POINT('',(37.618140714134,3.216713912751E-03,
    50.362017691611));
#546 = CARTESIAN_POINT('',(37.613366381798,3.216713912751E-03,
    52.923895090678));
#547 = CARTESIAN_POINT('',(37.597175883693,3.216713912751E-03,
    61.271909627469));
#548 = CARTESIAN_POINT('',(37.584961951229,3.216713912751E-03,
    67.058122000603));
#549 = CARTESIAN_POINT('',(37.571648184461,3.216713912751E-03,
    72.844393205691));
#550 = CARTESIAN_POINT('',(37.557321346263,3.216713912751E-03,
    78.630701117722));
#551 = CARTESIAN_POINT('',(37.542039039641,3.216713912751E-03,
    84.417032128806));
#552 = CARTESIAN_POINT('',(37.525881059143,3.216713912751E-03,
    90.203380258518));
#553 = CARTESIAN_POINT('',(37.507652169882,3.216713912751E-03,
    96.419782179988));
#554 = CARTESIAN_POINT('',(37.506386666691,3.216713912751E-03,
    96.849818303643));
#555 = CARTESIAN_POINT('',(37.505116719802,3.216713912751E-03,
    97.279854501635));
#556 = CARTESIAN_POINT('',(37.503842356905,3.216713912751E-03,
    97.709890772066));
#557 = CARTESIAN_POINT('',(37.502563605517,3.216713912751E-03,
    98.139927113105));
#558 = CARTESIAN_POINT('',(37.501280492988,3.216713912751E-03,
    98.569963522984));
#559 = CARTESIAN_POINT('',(37.4999930465,3.216713912751E-03,99.));
#560 = PCURVE('',#486,#561);
#561 = DEFINITIONAL_REPRESENTATION('',(#562),#601);
#562 = B_SPLINE_CURVE_WITH_KNOTS('',7,(#563,#564,#565,#566,#567,#568,
    #569,#570,#571,#572,#573,#574,#575,#576,#577,#578,#579,#580,#581,
    #582,#583,#584,#585,#586,#587,#588,#589,#590,#591,#592,#593,#594,
    #595,#596,#597,#598,#599,#600),.UNSPECIFIED.,.F.,.F.,(8,6,6,6,6,6,8)
  ,(0.,7.444463539427E-02,0.19473740372,0.376729374166,0.55863294258,
    0.969467266241,1.),.UNSPECIFIED.);
#563 = CARTESIAN_POINT('',(6.28318530718,4.28895188368E-03));
#564 = CARTESIAN_POINT('',(6.250709797006,1.487450630761E-02));
#565 = CARTESIAN_POINT('',(6.21744557306,2.545987691068E-02));
#566 = CARTESIAN_POINT('',(6.183525931298,3.604509770861E-02));
#567 = CARTESIAN_POINT('',(6.149120208428,4.66302165994E-02));
#568 = CARTESIAN_POINT('',(6.114421607825,5.721529078978E-02));
#569 = CARTESIAN_POINT('',(6.079629603808,6.780038088509E-02));
#570 = CARTESIAN_POINT('',(5.98885194505,9.548977854894E-02));
#571 = CARTESIAN_POINT('',(5.933010724573,0.112594202352));
#572 = CARTESIAN_POINT('',(5.878175818595,0.129699047181));
#573 = CARTESIAN_POINT('',(5.825030734921,0.146804502534));
#574 = CARTESIAN_POINT('',(5.77395167175,0.163910647437));
#575 = CARTESIAN_POINT('',(5.725114306725,0.181017485938));
#576 = CARTESIAN_POINT('',(5.608146931779,0.224007031904));
#577 = CARTESIAN_POINT('',(5.542969015149,0.249890587366));
#578 = CARTESIAN_POINT('',(5.483204952483,0.275775511734));
#579 = CARTESIAN_POINT('',(5.428342744793,0.30166155557));
#580 = CARTESIAN_POINT('',(5.37784971102,0.327548494819));
#581 = CARTESIAN_POINT('',(5.331222311046,0.353436143734));
#582 = CARTESIAN_POINT('',(5.244832386812,0.405200005666));
#583 = CARTESIAN_POINT('',(5.205066841876,0.431076225451));
#584 = CARTESIAN_POINT('',(5.168275287732,0.456952900334));
#585 = CARTESIAN_POINT('',(5.134077994546,0.482829932853));
#586 = CARTESIAN_POINT('',(5.102161212276,0.50870724941));
#587 = CARTESIAN_POINT('',(5.072268105382,0.534584798896));
#588 = CARTESIAN_POINT('',(4.980741720974,0.618908178055));
#589 = CARTESIAN_POINT('',(4.926511109839,0.677354767683));
#590 = CARTESIAN_POINT('',(4.878980141188,0.735801951573));
#591 = CARTESIAN_POINT('',(4.836719326568,0.794249506239));
#592 = CARTESIAN_POINT('',(4.798713229686,0.85269729423));
#593 = CARTESIAN_POINT('',(4.764235289529,0.911145255137));
#594 = CARTESIAN_POINT('',(4.730389192199,0.973937193737));
#595 = CARTESIAN_POINT('',(4.728064221807,0.978280992966));
#596 = CARTESIAN_POINT('',(4.725755447295,0.982624792946));
#597 = CARTESIAN_POINT('',(4.723462646713,0.986968593657));
#598 = CARTESIAN_POINT('',(4.721185603214,0.991312395082));
#599 = CARTESIAN_POINT('',(4.718924105047,0.995656197202));
#600 = CARTESIAN_POINT('',(4.716677945562,1.));
#601 = ( GEOMETRIC_REPRESENTATION_CONTEXT(2) 
PARAMETRIC_REPRESENTATION_CONTEXT() REPRESENTATION_CONTEXT('2D SPACE',''
  ) );
#602 = PCURVE('',#181,#603);
#603 = DEFINITIONAL_REPRESENTATION('',(#604),#643);
#604 = B_SPLINE_CURVE_WITH_KNOTS('',7,(#605,#606,#607,#608,#609,#610,
    #611,#612,#613,#614,#615,#616,#617,#618,#619,#620,#621,#622,#623,
    #624,#625,#626,#627,#628,#629,#630,#631,#632,#633,#634,#635,#636,
    #637,#638,#639,#640,#641,#642),.UNSPECIFIED.,.F.,.F.,(8,6,6,6,6,6,8)
  ,(0.,7.444463539427E-02,0.19473740372,0.376729374166,0.55863294258,
    0.969467266241,1.),.UNSPECIFIED.);
#605 = CARTESIAN_POINT('',(6.28318530718,4.28895188368E-03));
#606 = CARTESIAN_POINT('',(6.250709797006,1.487450630761E-02));
#607 = CARTESIAN_POINT('',(6.21744557306,2.545987691068E-02));
#608 = CARTESIAN_POINT('',(6.183525931298,3.604509770861E-02));
#609 = CARTESIAN_POINT('',(6.149120208428,4.66302165994E-02));
#610 = CARTESIAN_POINT('',(6.114421607825,5.721529078978E-02));
#611 = CARTESIAN_POINT('',(6.079629603808,6.780038088509E-02));
#612 = CARTESIAN_POINT('',(5.98885194505,9.548977854894E-02));
#613 = CARTESIAN_POINT('',(5.933010724573,0.112594202352));
#614 = CARTESIAN_POINT('',(5.878175818595,0.129699047181));
#615 = CARTESIAN_POINT('',(5.825030734921,0.146804502534));
#616 = CARTESIAN_POINT('',(5.77395167175,0.163910647437));
#617 = CARTESIAN_POINT('',(5.725114306725,0.181017485938));
#618 = CARTESIAN_POINT('',(5.608146931779,0.224007031904));
#619 = CARTESIAN_POINT('',(5.542969015149,0.249890587366));
#620 = CARTESIAN_POINT('',(5.483204952483,0.275775511734));
#621 = CARTESIAN_POINT('',(5.428342744793,0.30166155557));
#622 = CARTESIAN_POINT('',(5.37784971102,0.327548494819));
#623 = CARTESIAN_POINT('',(5.331222311046,0.353436143734));
#624 = CARTESIAN_POINT('',(5.244832386812,0.405200005666));
#625 = CARTESIAN_POINT('',(5.205066841876,0.431076225451));
#626 = CARTESIAN_POINT('',(5.168275287732,0.456952900334));
#627 = CARTESIAN_POINT('',(5.134077994546,0.482829932853));
#628 = CARTESIAN_POINT('',(5.102161212276,0.50870724941));
#629 = CARTESIAN_POINT('',(5.072268105382,0.534584798896));
#630 = CARTESIAN_POINT('',(4.980741720974,0.618908178055));
#631 = CARTESIAN_POINT('',(4.926511109839,0.677354767683));
#632 = CARTESIAN_POINT('',(4.878980141188,0.735801951573));
#633 = CARTESIAN_POINT('',(4.836719326568,0.794249506239));
#634 = CARTESIAN_POINT('',(4.798713229686,0.85269729423));
#635 = CARTESIAN_POINT('',(4.764235289529,0.911145255137));
#636 = CARTESIAN_POINT('',(4.730389192199,0.973937193737));
#637 = CARTESIAN_POINT('',(4.728064221807,0.978280992966));
#638 = CARTESIAN_POINT('',(4.725755447295,0.982624792946));
#639 = CARTESIAN_POINT('',(4.723462646713,0.986968593657));
#640 = CARTESIAN_POINT('',(4.721185603214,0.991312395082));
#641 = CARTESIAN_POINT('',(4.718924105047,0.995656197202));
#642 = CARTESIAN_POINT('',(4.716677945562,1.));
#643 = ( GEOMETRIC_REPRESENTATION_CONTEXT(2) 
PARAMETRIC_REPRESENTATION_CONTEXT() REPRESENTATION_CONTEXT('2D SPACE',''
  ) );
#644 = ORIENTED_EDGE('',*,*,#473,.T.);
#645 = ORIENTED_EDGE('',*,*,#646,.T.);
#646 = EDGE_CURVE('',#446,#518,#647,.T.);
#647 = SURFACE_CURVE('',#648,(#653,#660),.PCURVE_S1.);
#648 = CIRCLE('',#649,0.75);
#649 = AXIS2_PLACEMENT_3D('',#650,#651,#652);
#650 = CARTESIAN_POINT('',(36.75,0.,99.));
#651 = DIRECTION('',(0.,0.,-1.));
#652 = DIRECTION('',(0.,1.,0.));
#653 = PCURVE('',#486,#654);
#654 = DEFINITIONAL_REPRESENTATION('',(#655),#659);
#655 = LINE('',#656,#657);
#656 = CARTESIAN_POINT('',(6.28318530718,1.));
#657 = VECTOR('',#658,1.);
#658 = DIRECTION('',(-1.,0.));
#659 = ( GEOMETRIC_REPRESENTATION_CONTEXT(2) 
PARAMETRIC_REPRESENTATION_CONTEXT() REPRESENTATION_CONTEXT('2D SPACE',''
  ) );
#660 = PCURVE('',#661,#666);
#661 = CYLINDRICAL_SURFACE('',#662,0.75);
#662 = AXIS2_PLACEMENT_3D('',#663,#664,#665);
#663 = CARTESIAN_POINT('',(36.75,0.,99.));
#664 = DIRECTION('',(0.,0.,-1.));
#665 = DIRECTION('',(0.,1.,0.));
#666 = DEFINITIONAL_REPRESENTATION('',(#667),#670);
#667 = B_SPLINE_CURVE_WITH_KNOTS('',1,(#668,#669),.UNSPECIFIED.,.F.,.F.,
  (2,2),(0.,3.14159265359),.PIECEWISE_BEZIER_KNOTS.);
#668 = CARTESIAN_POINT('',(0.,0.));
#669 = CARTESIAN_POINT('',(3.14159265359,0.));
#670 = ( GEOMETRIC_REPRESENTATION_CONTEXT(2) 
PARAMETRIC_REPRESENTATION_CONTEXT() REPRESENTATION_CONTEXT('2D SPACE',''
  ) );
#671 = ADVANCED_FACE('',(#672),#661,.F.);
#672 = FACE_BOUND('',#673,.F.);
#673 = EDGE_LOOP('',(#674,#697,#698,#721,#750));
#674 = ORIENTED_EDGE('',*,*,#675,.F.);
#675 = EDGE_CURVE('',#518,#676,#678,.T.);
#676 = VERTEX_POINT('',#677);
#677 = CARTESIAN_POINT('',(36.75,-0.75,99.));
#678 = SURFACE_CURVE('',#679,(#684,#690),.PCURVE_S1.);
#679 = CIRCLE('',#680,0.75);
#680 = AXIS2_PLACEMENT_3D('',#681,#682,#683);
#681 = CARTESIAN_POINT('',(36.75,0.,99.));
#682 = DIRECTION('',(0.,0.,-1.));
#683 = DIRECTION('',(0.,1.,0.));
#684 = PCURVE('',#661,#685);
#685 = DEFINITIONAL_REPRESENTATION('',(#686),#689);
#686 = B_SPLINE_CURVE_WITH_KNOTS('',1,(#687,#688),.UNSPECIFIED.,.F.,.F.,
  (2,2),(0.,3.14159265359),.PIECEWISE_BEZIER_KNOTS.);
#687 = CARTESIAN_POINT('',(0.,0.));
#688 = CARTESIAN_POINT('',(3.14159265359,0.));
#689 = ( GEOMETRIC_REPRESENTATION_CONTEXT(2) 
PARAMETRIC_REPRESENTATION_CONTEXT() REPRESENTATION_CONTEXT('2D SPACE',''
  ) );
#690 = PCURVE('',#181,#691);
#691 = DEFINITIONAL_REPRESENTATION('',(#692),#696);
#692 = LINE('',#693,#694);
#693 = CARTESIAN_POINT('',(6.28318530718,1.));
#694 = VECTOR('',#695,1.);
#695 = DIRECTION('',(-1.,0.));
#696 = ( GEOMETRIC_REPRESENTATION_CONTEXT(2) 
PARAMETRIC_REPRESENTATION_CONTEXT() REPRESENTATION_CONTEXT('2D SPACE',''
  ) );
#697 = ORIENTED_EDGE('',*,*,#646,.F.);
#698 = ORIENTED_EDGE('',*,*,#699,.T.);
#699 = EDGE_CURVE('',#446,#700,#702,.T.);
#700 = VERTEX_POINT('',#701);
#701 = CARTESIAN_POINT('',(36.75,0.75,107.5));
#702 = SURFACE_CURVE('',#703,(#707,#714),.PCURVE_S1.);
#703 = LINE('',#704,#705);
#704 = CARTESIAN_POINT('',(36.75,0.75,99.));
#705 = VECTOR('',#706,1.);
#706 = DIRECTION('',(0.,0.,1.));
#707 = PCURVE('',#661,#708);
#708 = DEFINITIONAL_REPRESENTATION('',(#709),#713);
#709 = LINE('',#710,#711);
#710 = CARTESIAN_POINT('',(0.,0.));
#711 = VECTOR('',#712,1.);
#712 = DIRECTION('',(0.,-1.));
#713 = ( GEOMETRIC_REPRESENTATION_CONTEXT(2) 
PARAMETRIC_REPRESENTATION_CONTEXT() REPRESENTATION_CONTEXT('2D SPACE',''
  ) );
#714 = PCURVE('',#461,#715);
#715 = DEFINITIONAL_REPRESENTATION('',(#716),#720);
#716 = LINE('',#717,#718);
#717 = CARTESIAN_POINT('',(73.5,0.));
#718 = VECTOR('',#719,1.);
#719 = DIRECTION('',(0.,-1.));
#720 = ( GEOMETRIC_REPRESENTATION_CONTEXT(2) 
PARAMETRIC_REPRESENTATION_CONTEXT() REPRESENTATION_CONTEXT('2D SPACE',''
  ) );
#721 = ORIENTED_EDGE('',*,*,#722,.F.);
#722 = EDGE_CURVE('',#723,#700,#725,.T.);
#723 = VERTEX_POINT('',#724);
#724 = CARTESIAN_POINT('',(36.75,-0.75,107.5));
#725 = SURFACE_CURVE('',#726,(#731,#738),.PCURVE_S1.);
#726 = CIRCLE('',#727,0.75);
#727 = AXIS2_PLACEMENT_3D('',#728,#729,#730);
#728 = CARTESIAN_POINT('',(36.75,0.,107.5));
#729 = DIRECTION('',(-0.,0.,1.));
#730 = DIRECTION('',(0.,-1.,0.));
#731 = PCURVE('',#661,#732);
#732 = DEFINITIONAL_REPRESENTATION('',(#733),#737);
#733 = LINE('',#734,#735);
#734 = CARTESIAN_POINT('',(3.14159265359,-8.5));
#735 = VECTOR('',#736,1.);
#736 = DIRECTION('',(-1.,-0.));
#737 = ( GEOMETRIC_REPRESENTATION_CONTEXT(2) 
PARAMETRIC_REPRESENTATION_CONTEXT() REPRESENTATION_CONTEXT('2D SPACE',''
  ) );
#738 = PCURVE('',#739,#744);
#739 = CONICAL_SURFACE('',#740,0.75,0.785398163397);
#740 = AXIS2_PLACEMENT_3D('',#741,#742,#743);
#741 = CARTESIAN_POINT('',(36.75,0.,107.5));
#742 = DIRECTION('',(0.,0.,1.));
#743 = DIRECTION('',(0.,1.,0.));
#744 = DEFINITIONAL_REPRESENTATION('',(#745),#749);
#745 = LINE('',#746,#747);
#746 = CARTESIAN_POINT('',(3.14159265359,0.));
#747 = VECTOR('',#748,1.);
#748 = DIRECTION('',(1.,-0.));
#749 = ( GEOMETRIC_REPRESENTATION_CONTEXT(2) 
PARAMETRIC_REPRESENTATION_CONTEXT() REPRESENTATION_CONTEXT('2D SPACE',''
  ) );
#750 = ORIENTED_EDGE('',*,*,#751,.F.);
#751 = EDGE_CURVE('',#676,#723,#752,.T.);
#752 = SURFACE_CURVE('',#753,(#757,#764),.PCURVE_S1.);
#753 = LINE('',#754,#755);
#754 = CARTESIAN_POINT('',(36.75,-0.75,99.));
#755 = VECTOR('',#756,1.);
#756 = DIRECTION('',(0.,0.,1.));
#757 = PCURVE('',#661,#758);
#758 = DEFINITIONAL_REPRESENTATION('',(#759),#763);
#759 = LINE('',#760,#761);
#760 = CARTESIAN_POINT('',(3.14159265359,0.));
#761 = VECTOR('',#762,1.);
#762 = DIRECTION('',(0.,-1.));
#763 = ( GEOMETRIC_REPRESENTATION_CONTEXT(2) 
PARAMETRIC_REPRESENTATION_CONTEXT() REPRESENTATION_CONTEXT('2D SPACE',''
  ) );
#764 = PCURVE('',#765,#770);
#765 = PLANE('',#766);
#766 = AXIS2_PLACEMENT_3D('',#767,#768,#769);
#767 = CARTESIAN_POINT('',(36.75,-0.75,99.));
#768 = DIRECTION('',(0.,-1.,0.));
#769 = DIRECTION('',(-1.,0.,0.));
#770 = DEFINITIONAL_REPRESENTATION('',(#771),#775);
#771 = LINE('',#772,#773);
#772 = CARTESIAN_POINT('',(0.,-0.));
#773 = VECTOR('',#774,1.);
#774 = DIRECTION('',(0.,-1.));
#775 = ( GEOMETRIC_REPRESENTATION_CONTEXT(2) 
PARAMETRIC_REPRESENTATION_CONTEXT() REPRESENTATION_CONTEXT('2D SPACE',''
  ) );
#776 = ADVANCED_FACE('',(#777),#765,.F.);
#777 = FACE_BOUND('',#778,.F.);
#778 = EDGE_LOOP('',(#779,#802,#803,#831));
#779 = ORIENTED_EDGE('',*,*,#780,.F.);
#780 = EDGE_CURVE('',#676,#781,#783,.T.);
#781 = VERTEX_POINT('',#782);
#782 = CARTESIAN_POINT('',(-36.75,-0.75,99.));
#783 = SURFACE_CURVE('',#784,(#788,#795),.PCURVE_S1.);
#784 = LINE('',#785,#786);
#785 = CARTESIAN_POINT('',(36.75,-0.75,99.));
#786 = VECTOR('',#787,1.);
#787 = DIRECTION('',(-1.,0.,0.));
#788 = PCURVE('',#765,#789);
#789 = DEFINITIONAL_REPRESENTATION('',(#790),#794);
#790 = LINE('',#791,#792);
#791 = CARTESIAN_POINT('',(0.,-0.));
#792 = VECTOR('',#793,1.);
#793 = DIRECTION('',(1.,0.));
#794 = ( GEOMETRIC_REPRESENTATION_CONTEXT(2) 
PARAMETRIC_REPRESENTATION_CONTEXT() REPRESENTATION_CONTEXT('2D SPACE',''
  ) );
#795 = PCURVE('',#225,#796);
#796 = DEFINITIONAL_REPRESENTATION('',(#797),#801);
#797 = LINE('',#798,#799);
#798 = CARTESIAN_POINT('',(0.,1.));
#799 = VECTOR('',#800,1.);
#800 = DIRECTION('',(-1.,0.));
#801 = ( GEOMETRIC_REPRESENTATION_CONTEXT(2) 
PARAMETRIC_REPRESENTATION_CONTEXT() REPRESENTATION_CONTEXT('2D SPACE',''
  ) );
#802 = ORIENTED_EDGE('',*,*,#751,.T.);
#803 = ORIENTED_EDGE('',*,*,#804,.T.);
#804 = EDGE_CURVE('',#723,#805,#807,.T.);
#805 = VERTEX_POINT('',#806);
#806 = CARTESIAN_POINT('',(-36.75,-0.75,107.5));
#807 = SURFACE_CURVE('',#808,(#812,#819),.PCURVE_S1.);
#808 = LINE('',#809,#810);
#809 = CARTESIAN_POINT('',(36.75,-0.75,107.5));
#810 = VECTOR('',#811,1.);
#811 = DIRECTION('',(-1.,0.,0.));
#812 = PCURVE('',#765,#813);
#813 = DEFINITIONAL_REPRESENTATION('',(#814),#818);
#814 = LINE('',#815,#816);
#815 = CARTESIAN_POINT('',(0.,-8.5));
#816 = VECTOR('',#817,1.);
#817 = DIRECTION('',(1.,0.));
#818 = ( GEOMETRIC_REPRESENTATION_CONTEXT(2) 
PARAMETRIC_REPRESENTATION_CONTEXT() REPRESENTATION_CONTEXT('2D SPACE',''
  ) );
#819 = PCURVE('',#820,#825);
#820 = PLANE('',#821);
#821 = AXIS2_PLACEMENT_3D('',#822,#823,#824);
#822 = CARTESIAN_POINT('',(36.75,-2.25,109.));
#823 = DIRECTION('',(0.,0.707106781187,0.707106781187));
#824 = DIRECTION('',(-1.,0.,0.));
#825 = DEFINITIONAL_REPRESENTATION('',(#826),#830);
#826 = LINE('',#827,#828);
#827 = CARTESIAN_POINT('',(0.,-2.12132034356));
#828 = VECTOR('',#829,1.);
#829 = DIRECTION('',(1.,0.));
#830 = ( GEOMETRIC_REPRESENTATION_CONTEXT(2) 
PARAMETRIC_REPRESENTATION_CONTEXT() REPRESENTATION_CONTEXT('2D SPACE',''
  ) );
#831 = ORIENTED_EDGE('',*,*,#832,.F.);
#832 = EDGE_CURVE('',#781,#805,#833,.T.);
#833 = SURFACE_CURVE('',#834,(#838,#845),.PCURVE_S1.);
#834 = LINE('',#835,#836);
#835 = CARTESIAN_POINT('',(-36.75,-0.75,99.));
#836 = VECTOR('',#837,1.);
#837 = DIRECTION('',(0.,0.,1.));
#838 = PCURVE('',#765,#839);
#839 = DEFINITIONAL_REPRESENTATION('',(#840),#844);
#840 = LINE('',#841,#842);
#841 = CARTESIAN_POINT('',(73.5,0.));
#842 = VECTOR('',#843,1.);
#843 = DIRECTION('',(0.,-1.));
#844 = ( GEOMETRIC_REPRESENTATION_CONTEXT(2) 
PARAMETRIC_REPRESENTATION_CONTEXT() REPRESENTATION_CONTEXT('2D SPACE',''
  ) );
#845 = PCURVE('',#846,#851);
#846 = CYLINDRICAL_SURFACE('',#847,0.75);
#847 = AXIS2_PLACEMENT_3D('',#848,#849,#850);
#848 = CARTESIAN_POINT('',(-36.75,0.,99.));
#849 = DIRECTION('',(0.,0.,-1.));
#850 = DIRECTION('',(0.,-1.,0.));
#851 = DEFINITIONAL_REPRESENTATION('',(#852),#856);
#852 = LINE('',#853,#854);
#853 = CARTESIAN_POINT('',(0.,0.));
#854 = VECTOR('',#855,1.);
#855 = DIRECTION('',(0.,-1.));
#856 = ( GEOMETRIC_REPRESENTATION_CONTEXT(2) 
PARAMETRIC_REPRESENTATION_CONTEXT() REPRESENTATION_CONTEXT('2D SPACE',''
  ) );
#857 = ADVANCED_FACE('',(#858),#846,.F.);
#858 = FACE_BOUND('',#859,.F.);
#859 = EDGE_LOOP('',(#860,#883,#884,#913,#934));
#860 = ORIENTED_EDGE('',*,*,#861,.F.);
#861 = EDGE_CURVE('',#781,#862,#864,.T.);
#862 = VERTEX_POINT('',#863);
#863 = CARTESIAN_POINT('',(-37.4999931018,3.216713912751E-03,99.));
#864 = SURFACE_CURVE('',#865,(#870,#876),.PCURVE_S1.);
#865 = CIRCLE('',#866,0.75);
#866 = AXIS2_PLACEMENT_3D('',#867,#868,#869);
#867 = CARTESIAN_POINT('',(-36.75,0.,99.));
#868 = DIRECTION('',(-0.,-0.,-1.));
#869 = DIRECTION('',(0.,-1.,0.));
#870 = PCURVE('',#846,#871);
#871 = DEFINITIONAL_REPRESENTATION('',(#872),#875);
#872 = B_SPLINE_CURVE_WITH_KNOTS('',1,(#873,#874),.UNSPECIFIED.,.F.,.F.,
  (2,2),(0.,3.14159265359),.PIECEWISE_BEZIER_KNOTS.);
#873 = CARTESIAN_POINT('',(0.,0.));
#874 = CARTESIAN_POINT('',(3.14159265359,0.));
#875 = ( GEOMETRIC_REPRESENTATION_CONTEXT(2) 
PARAMETRIC_REPRESENTATION_CONTEXT() REPRESENTATION_CONTEXT('2D SPACE',''
  ) );
#876 = PCURVE('',#273,#877);
#877 = DEFINITIONAL_REPRESENTATION('',(#878),#882);
#878 = LINE('',#879,#880);
#879 = CARTESIAN_POINT('',(6.28318530718,1.));
#880 = VECTOR('',#881,1.);
#881 = DIRECTION('',(-1.,0.));
#882 = ( GEOMETRIC_REPRESENTATION_CONTEXT(2) 
PARAMETRIC_REPRESENTATION_CONTEXT() REPRESENTATION_CONTEXT('2D SPACE',''
  ) );
#883 = ORIENTED_EDGE('',*,*,#832,.T.);
#884 = ORIENTED_EDGE('',*,*,#885,.F.);
#885 = EDGE_CURVE('',#886,#805,#888,.T.);
#886 = VERTEX_POINT('',#887);
#887 = CARTESIAN_POINT('',(-36.75,0.75,107.5));
#888 = SURFACE_CURVE('',#889,(#894,#901),.PCURVE_S1.);
#889 = CIRCLE('',#890,0.75);
#890 = AXIS2_PLACEMENT_3D('',#891,#892,#893);
#891 = CARTESIAN_POINT('',(-36.75,0.,107.5));
#892 = DIRECTION('',(0.,-0.,1.));
#893 = DIRECTION('',(0.,1.,0.));
#894 = PCURVE('',#846,#895);
#895 = DEFINITIONAL_REPRESENTATION('',(#896),#900);
#896 = LINE('',#897,#898);
#897 = CARTESIAN_POINT('',(3.14159265359,-8.5));
#898 = VECTOR('',#899,1.);
#899 = DIRECTION('',(-1.,-0.));
#900 = ( GEOMETRIC_REPRESENTATION_CONTEXT(2) 
PARAMETRIC_REPRESENTATION_CONTEXT() REPRESENTATION_CONTEXT('2D SPACE',''
  ) );
#901 = PCURVE('',#902,#907);
#902 = CONICAL_SURFACE('',#903,0.75,0.785398163397);
#903 = AXIS2_PLACEMENT_3D('',#904,#905,#906);
#904 = CARTESIAN_POINT('',(-36.75,0.,107.5));
#905 = DIRECTION('',(0.,0.,1.));
#906 = DIRECTION('',(0.,-1.,0.));
#907 = DEFINITIONAL_REPRESENTATION('',(#908),#912);
#908 = LINE('',#909,#910);
#909 = CARTESIAN_POINT('',(3.14159265359,0.));
#910 = VECTOR('',#911,1.);
#911 = DIRECTION('',(1.,-0.));
#912 = ( GEOMETRIC_REPRESENTATION_CONTEXT(2) 
PARAMETRIC_REPRESENTATION_CONTEXT() REPRESENTATION_CONTEXT('2D SPACE',''
  ) );
#913 = ORIENTED_EDGE('',*,*,#914,.F.);
#914 = EDGE_CURVE('',#424,#886,#915,.T.);
#915 = SURFACE_CURVE('',#916,(#920,#927),.PCURVE_S1.);
#916 = LINE('',#917,#918);
#917 = CARTESIAN_POINT('',(-36.75,0.75,99.));
#918 = VECTOR('',#919,1.);
#919 = DIRECTION('',(0.,0.,1.));
#920 = PCURVE('',#846,#921);
#921 = DEFINITIONAL_REPRESENTATION('',(#922),#926);
#922 = LINE('',#923,#924);
#923 = CARTESIAN_POINT('',(3.14159265359,0.));
#924 = VECTOR('',#925,1.);
#925 = DIRECTION('',(0.,-1.));
#926 = ( GEOMETRIC_REPRESENTATION_CONTEXT(2) 
PARAMETRIC_REPRESENTATION_CONTEXT() REPRESENTATION_CONTEXT('2D SPACE',''
  ) );
#927 = PCURVE('',#461,#928);
#928 = DEFINITIONAL_REPRESENTATION('',(#929),#933);
#929 = LINE('',#930,#931);
#930 = CARTESIAN_POINT('',(0.,0.));
#931 = VECTOR('',#932,1.);
#932 = DIRECTION('',(0.,-1.));
#933 = ( GEOMETRIC_REPRESENTATION_CONTEXT(2) 
PARAMETRIC_REPRESENTATION_CONTEXT() REPRESENTATION_CONTEXT('2D SPACE',''
  ) );
#934 = ORIENTED_EDGE('',*,*,#935,.F.);
#935 = EDGE_CURVE('',#862,#424,#936,.T.);
#936 = SURFACE_CURVE('',#937,(#942,#948),.PCURVE_S1.);
#937 = CIRCLE('',#938,0.75);
#938 = AXIS2_PLACEMENT_3D('',#939,#940,#941);
#939 = CARTESIAN_POINT('',(-36.75,0.,99.));
#940 = DIRECTION('',(-0.,-0.,-1.));
#941 = DIRECTION('',(0.,-1.,0.));
#942 = PCURVE('',#846,#943);
#943 = DEFINITIONAL_REPRESENTATION('',(#944),#947);
#944 = B_SPLINE_CURVE_WITH_KNOTS('',1,(#945,#946),.UNSPECIFIED.,.F.,.F.,
  (2,2),(0.,3.14159265359),.PIECEWISE_BEZIER_KNOTS.);
#945 = CARTESIAN_POINT('',(0.,0.));
#946 = CARTESIAN_POINT('',(3.14159265359,0.));
#947 = ( GEOMETRIC_REPRESENTATION_CONTEXT(2) 
PARAMETRIC_REPRESENTATION_CONTEXT() REPRESENTATION_CONTEXT('2D SPACE',''
  ) );
#948 = PCURVE('',#317,#949);
#949 = DEFINITIONAL_REPRESENTATION('',(#950),#954);
#950 = LINE('',#951,#952);
#951 = CARTESIAN_POINT('',(6.28318530718,1.));
#952 = VECTOR('',#953,1.);
#953 = DIRECTION('',(-1.,0.));
#954 = ( GEOMETRIC_REPRESENTATION_CONTEXT(2) 
PARAMETRIC_REPRESENTATION_CONTEXT() REPRESENTATION_CONTEXT('2D SPACE',''
  ) );
#955 = ADVANCED_FACE('',(#956),#902,.F.);
#956 = FACE_BOUND('',#957,.F.);
#957 = EDGE_LOOP('',(#958,#989,#1012,#1013));
#958 = ORIENTED_EDGE('',*,*,#959,.F.);
#959 = EDGE_CURVE('',#960,#962,#964,.T.);
#960 = VERTEX_POINT('',#961);
#961 = CARTESIAN_POINT('',(-36.75,2.25,109.));
#962 = VERTEX_POINT('',#963);
#963 = CARTESIAN_POINT('',(-36.75,-2.25,109.));
#964 = SURFACE_CURVE('',#965,(#970,#977),.PCURVE_S1.);
#965 = CIRCLE('',#966,2.25);
#966 = AXIS2_PLACEMENT_3D('',#967,#968,#969);
#967 = CARTESIAN_POINT('',(-36.75,0.,109.));
#968 = DIRECTION('',(0.,-0.,1.));
#969 = DIRECTION('',(0.,1.,0.));
#970 = PCURVE('',#902,#971);
#971 = DEFINITIONAL_REPRESENTATION('',(#972),#976);
#972 = LINE('',#973,#974);
#973 = CARTESIAN_POINT('',(3.14159265359,1.5));
#974 = VECTOR('',#975,1.);
#975 = DIRECTION('',(1.,-0.));
#976 = ( GEOMETRIC_REPRESENTATION_CONTEXT(2) 
PARAMETRIC_REPRESENTATION_CONTEXT() REPRESENTATION_CONTEXT('2D SPACE',''
  ) );
#977 = PCURVE('',#978,#983);
#978 = PLANE('',#979);
#979 = AXIS2_PLACEMENT_3D('',#980,#981,#982);
#980 = CARTESIAN_POINT('',(-4.403329231825E-15,5.790076070423E-16,109.)
  );
#981 = DIRECTION('',(0.,0.,1.));
#982 = DIRECTION('',(1.,0.,0.));
#983 = DEFINITIONAL_REPRESENTATION('',(#984),#988);
#984 = CIRCLE('',#985,2.25);
#985 = AXIS2_PLACEMENT_2D('',#986,#987);
#986 = CARTESIAN_POINT('',(-36.75,-5.790076070423E-16));
#987 = DIRECTION('',(0.,1.));
#988 = ( GEOMETRIC_REPRESENTATION_CONTEXT(2) 
PARAMETRIC_REPRESENTATION_CONTEXT() REPRESENTATION_CONTEXT('2D SPACE',''
  ) );
#989 = ORIENTED_EDGE('',*,*,#990,.F.);
#990 = EDGE_CURVE('',#886,#960,#991,.T.);
#991 = SURFACE_CURVE('',#992,(#995,#1001),.PCURVE_S1.);
#992 = B_SPLINE_CURVE_WITH_KNOTS('',1,(#993,#994),.UNSPECIFIED.,.F.,.F.,
  (2,2),(0.,1.),.PIECEWISE_BEZIER_KNOTS.);
#993 = CARTESIAN_POINT('',(-36.75,0.75,107.5));
#994 = CARTESIAN_POINT('',(-36.75,2.25,109.));
#995 = PCURVE('',#902,#996);
#996 = DEFINITIONAL_REPRESENTATION('',(#997),#1000);
#997 = B_SPLINE_CURVE_WITH_KNOTS('',1,(#998,#999),.UNSPECIFIED.,.F.,.F.,
  (2,2),(0.,1.),.PIECEWISE_BEZIER_KNOTS.);
#998 = CARTESIAN_POINT('',(3.14159265359,0.));
#999 = CARTESIAN_POINT('',(3.14159265359,1.5));
#1000 = ( GEOMETRIC_REPRESENTATION_CONTEXT(2) 
PARAMETRIC_REPRESENTATION_CONTEXT() REPRESENTATION_CONTEXT('2D SPACE',''
  ) );
#1001 = PCURVE('',#1002,#1007);
#1002 = PLANE('',#1003);
#1003 = AXIS2_PLACEMENT_3D('',#1004,#1005,#1006);
#1004 = CARTESIAN_POINT('',(-36.75,2.25,109.));
#1005 = DIRECTION('',(0.,-0.707106781187,0.707106781187));
#1006 = DIRECTION('',(1.,0.,0.));
#1007 = DEFINITIONAL_REPRESENTATION('',(#1008),#1011);
#1008 = B_SPLINE_CURVE_WITH_KNOTS('',1,(#1009,#1010),.UNSPECIFIED.,.F.,
  .F.,(2,2),(0.,1.),.PIECEWISE_BEZIER_KNOTS.);
#1009 = CARTESIAN_POINT('',(0.,-2.12132034356));
#1010 = CARTESIAN_POINT('',(0.,0.));
#1011 = ( GEOMETRIC_REPRESENTATION_CONTEXT(2) 
PARAMETRIC_REPRESENTATION_CONTEXT() REPRESENTATION_CONTEXT('2D SPACE',''
  ) );
#1012 = ORIENTED_EDGE('',*,*,#885,.T.);
#1013 = ORIENTED_EDGE('',*,*,#1014,.T.);
#1014 = EDGE_CURVE('',#805,#962,#1015,.T.);
#1015 = SURFACE_CURVE('',#1016,(#1019,#1025),.PCURVE_S1.);
#1016 = B_SPLINE_CURVE_WITH_KNOTS('',1,(#1017,#1018),.UNSPECIFIED.,.F.,
  .F.,(2,2),(0.,1.),.PIECEWISE_BEZIER_KNOTS.);
#1017 = CARTESIAN_POINT('',(-36.75,-0.75,107.5));
#1018 = CARTESIAN_POINT('',(-36.75,-2.25,109.));
#1019 = PCURVE('',#902,#1020);
#1020 = DEFINITIONAL_REPRESENTATION('',(#1021),#1024);
#1021 = B_SPLINE_CURVE_WITH_KNOTS('',1,(#1022,#1023),.UNSPECIFIED.,.F.,
  .F.,(2,2),(0.,1.),.PIECEWISE_BEZIER_KNOTS.);
#1022 = CARTESIAN_POINT('',(6.28318530718,0.));
#1023 = CARTESIAN_POINT('',(6.28318530718,1.5));
#1024 = ( GEOMETRIC_REPRESENTATION_CONTEXT(2) 
PARAMETRIC_REPRESENTATION_CONTEXT() REPRESENTATION_CONTEXT('2D SPACE',''
  ) );
#1025 = PCURVE('',#820,#1026);
#1026 = DEFINITIONAL_REPRESENTATION('',(#1027),#1030);
#1027 = B_SPLINE_CURVE_WITH_KNOTS('',1,(#1028,#1029),.UNSPECIFIED.,.F.,
  .F.,(2,2),(0.,1.),.PIECEWISE_BEZIER_KNOTS.);
#1028 = CARTESIAN_POINT('',(73.5,-2.12132034356));
#1029 = CARTESIAN_POINT('',(73.5,0.));
#1030 = ( GEOMETRIC_REPRESENTATION_CONTEXT(2) 
PARAMETRIC_REPRESENTATION_CONTEXT() REPRESENTATION_CONTEXT('2D SPACE',''
  ) );
#1031 = ADVANCED_FACE('',(#1032),#1002,.T.);
#1032 = FACE_BOUND('',#1033,.T.);
#1033 = EDGE_LOOP('',(#1034,#1055,#1075,#1096));
#1034 = ORIENTED_EDGE('',*,*,#1035,.T.);
#1035 = EDGE_CURVE('',#886,#700,#1036,.T.);
#1036 = SURFACE_CURVE('',#1037,(#1041,#1048),.PCURVE_S1.);
#1037 = LINE('',#1038,#1039);
#1038 = CARTESIAN_POINT('',(-36.75,0.75,107.5));
#1039 = VECTOR('',#1040,1.);
#1040 = DIRECTION('',(1.,0.,0.));
#1041 = PCURVE('',#1002,#1042);
#1042 = DEFINITIONAL_REPRESENTATION('',(#1043),#1047);
#1043 = LINE('',#1044,#1045);
#1044 = CARTESIAN_POINT('',(0.,-2.12132034356));
#1045 = VECTOR('',#1046,1.);
#1046 = DIRECTION('',(1.,0.));
#1047 = ( GEOMETRIC_REPRESENTATION_CONTEXT(2) 
PARAMETRIC_REPRESENTATION_CONTEXT() REPRESENTATION_CONTEXT('2D SPACE',''
  ) );
#1048 = PCURVE('',#461,#1049);
#1049 = DEFINITIONAL_REPRESENTATION('',(#1050),#1054);
#1050 = LINE('',#1051,#1052);
#1051 = CARTESIAN_POINT('',(0.,-8.5));
#1052 = VECTOR('',#1053,1.);
#1053 = DIRECTION('',(1.,0.));
#1054 = ( GEOMETRIC_REPRESENTATION_CONTEXT(2) 
PARAMETRIC_REPRESENTATION_CONTEXT() REPRESENTATION_CONTEXT('2D SPACE',''
  ) );
#1055 = ORIENTED_EDGE('',*,*,#1056,.T.);
#1056 = EDGE_CURVE('',#700,#1057,#1059,.T.);
#1057 = VERTEX_POINT('',#1058);
#1058 = CARTESIAN_POINT('',(36.75,2.25,109.));
#1059 = SURFACE_CURVE('',#1060,(#1063,#1069),.PCURVE_S1.);
#1060 = B_SPLINE_CURVE_WITH_KNOTS('',1,(#1061,#1062),.UNSPECIFIED.,.F.,
  .F.,(2,2),(0.,1.),.PIECEWISE_BEZIER_KNOTS.);
#1061 = CARTESIAN_POINT('',(36.75,0.75,107.5));
#1062 = CARTESIAN_POINT('',(36.75,2.25,109.));
#1063 = PCURVE('',#1002,#1064);
#1064 = DEFINITIONAL_REPRESENTATION('',(#1065),#1068);
#1065 = B_SPLINE_CURVE_WITH_KNOTS('',1,(#1066,#1067),.UNSPECIFIED.,.F.,
  .F.,(2,2),(0.,1.),.PIECEWISE_BEZIER_KNOTS.);
#1066 = CARTESIAN_POINT('',(73.5,-2.12132034356));
#1067 = CARTESIAN_POINT('',(73.5,0.));
#1068 = ( GEOMETRIC_REPRESENTATION_CONTEXT(2) 
PARAMETRIC_REPRESENTATION_CONTEXT() REPRESENTATION_CONTEXT('2D SPACE',''
  ) );
#1069 = PCURVE('',#739,#1070);
#1070 = DEFINITIONAL_REPRESENTATION('',(#1071),#1074);
#1071 = B_SPLINE_CURVE_WITH_KNOTS('',1,(#1072,#1073),.UNSPECIFIED.,.F.,
  .F.,(2,2),(0.,1.),.PIECEWISE_BEZIER_KNOTS.);
#1072 = CARTESIAN_POINT('',(6.28318530718,0.));
#1073 = CARTESIAN_POINT('',(6.28318530718,1.5));
#1074 = ( GEOMETRIC_REPRESENTATION_CONTEXT(2) 
PARAMETRIC_REPRESENTATION_CONTEXT() REPRESENTATION_CONTEXT('2D SPACE',''
  ) );
#1075 = ORIENTED_EDGE('',*,*,#1076,.F.);
#1076 = EDGE_CURVE('',#960,#1057,#1077,.T.);
#1077 = SURFACE_CURVE('',#1078,(#1082,#1089),.PCURVE_S1.);
#1078 = LINE('',#1079,#1080);
#1079 = CARTESIAN_POINT('',(-36.75,2.25,109.));
#1080 = VECTOR('',#1081,1.);
#1081 = DIRECTION('',(1.,0.,0.));
#1082 = PCURVE('',#1002,#1083);
#1083 = DEFINITIONAL_REPRESENTATION('',(#1084),#1088);
#1084 = LINE('',#1085,#1086);
#1085 = CARTESIAN_POINT('',(0.,0.));
#1086 = VECTOR('',#1087,1.);
#1087 = DIRECTION('',(1.,0.));
#1088 = ( GEOMETRIC_REPRESENTATION_CONTEXT(2) 
PARAMETRIC_REPRESENTATION_CONTEXT() REPRESENTATION_CONTEXT('2D SPACE',''
  ) );
#1089 = PCURVE('',#978,#1090);
#1090 = DEFINITIONAL_REPRESENTATION('',(#1091),#1095);
#1091 = LINE('',#1092,#1093);
#1092 = CARTESIAN_POINT('',(-36.75,2.25));
#1093 = VECTOR('',#1094,1.);
#1094 = DIRECTION('',(1.,0.));
#1095 = ( GEOMETRIC_REPRESENTATION_CONTEXT(2) 
PARAMETRIC_REPRESENTATION_CONTEXT() REPRESENTATION_CONTEXT('2D SPACE',''
  ) );
#1096 = ORIENTED_EDGE('',*,*,#990,.F.);
#1097 = ADVANCED_FACE('',(#1098,#1133),#978,.T.);
#1098 = FACE_BOUND('',#1099,.T.);
#1099 = EDGE_LOOP('',(#1100));
#1100 = ORIENTED_EDGE('',*,*,#1101,.F.);
#1101 = EDGE_CURVE('',#1102,#1102,#1104,.T.);
#1102 = VERTEX_POINT('',#1103);
#1103 = CARTESIAN_POINT('',(39.749999869846,3.216713912751E-03,109.));
#1104 = SURFACE_CURVE('',#1105,(#1110,#1121),.PCURVE_S1.);
#1105 = CIRCLE('',#1106,39.75);
#1106 = AXIS2_PLACEMENT_3D('',#1107,#1108,#1109);
#1107 = CARTESIAN_POINT('',(-5.329070518201E-15,-7.105427357601E-15,109.
    ));
#1108 = DIRECTION('',(0.,0.,-1.));
#1109 = DIRECTION('',(0.999999996726,8.092362044647E-05,0.));
#1110 = PCURVE('',#978,#1111);
#1111 = DEFINITIONAL_REPRESENTATION('',(#1112),#1120);
#1112 = ( BOUNDED_CURVE() B_SPLINE_CURVE(2,(#1113,#1114,#1115,#1116,
#1117,#1118,#1119),.UNSPECIFIED.,.T.,.F.) B_SPLINE_CURVE_WITH_KNOTS((1,2
    ,2,2,2,1),(-2.094395102393,0.,2.094395102393,4.188790204786,
6.28318530718,8.377580409573),.UNSPECIFIED.) CURVE() 
GEOMETRIC_REPRESENTATION_ITEM() RATIONAL_B_SPLINE_CURVE((1.,0.5,1.,0.5,
1.,0.5,1.)) REPRESENTATION_ITEM('') );
#1113 = CARTESIAN_POINT('',(39.749999869846,3.216713912739E-03));
#1114 = CARTESIAN_POINT('',(39.755571381776,-68.84580266151));
#1115 = CARTESIAN_POINT('',(-19.87221417895,-34.42611804467));
#1116 = CARTESIAN_POINT('',(-79.49999973969,-6.433427825512E-03));
#1117 = CARTESIAN_POINT('',(-19.87778569088,34.422901330758));
#1118 = CARTESIAN_POINT('',(39.744428357916,68.852236089342));
#1119 = CARTESIAN_POINT('',(39.749999869846,3.216713912739E-03));
#1120 = ( GEOMETRIC_REPRESENTATION_CONTEXT(2) 
PARAMETRIC_REPRESENTATION_CONTEXT() REPRESENTATION_CONTEXT('2D SPACE',''
  ) );
#1121 = PCURVE('',#1122,#1127);
#1122 = CYLINDRICAL_SURFACE('',#1123,39.75);
#1123 = AXIS2_PLACEMENT_3D('',#1124,#1125,#1126);
#1124 = CARTESIAN_POINT('',(0.,0.,80.7));
#1125 = DIRECTION('',(-0.,-0.,-1.));
#1126 = DIRECTION('',(1.,0.,0.));
#1127 = DEFINITIONAL_REPRESENTATION('',(#1128),#1132);
#1128 = LINE('',#1129,#1130);
#1129 = CARTESIAN_POINT('',(-8.092361986289E-05,-28.3));
#1130 = VECTOR('',#1131,1.);
#1131 = DIRECTION('',(1.,-0.));
#1132 = ( GEOMETRIC_REPRESENTATION_CONTEXT(2) 
PARAMETRIC_REPRESENTATION_CONTEXT() REPRESENTATION_CONTEXT('2D SPACE',''
  ) );
#1133 = FACE_BOUND('',#1134,.T.);
#1134 = EDGE_LOOP('',(#1135,#1159,#1180,#1181));
#1135 = ORIENTED_EDGE('',*,*,#1136,.F.);
#1136 = EDGE_CURVE('',#1137,#1057,#1139,.T.);
#1137 = VERTEX_POINT('',#1138);
#1138 = CARTESIAN_POINT('',(36.75,-2.25,109.));
#1139 = SURFACE_CURVE('',#1140,(#1145,#1152),.PCURVE_S1.);
#1140 = CIRCLE('',#1141,2.25);
#1141 = AXIS2_PLACEMENT_3D('',#1142,#1143,#1144);
#1142 = CARTESIAN_POINT('',(36.75,0.,109.));
#1143 = DIRECTION('',(-0.,0.,1.));
#1144 = DIRECTION('',(0.,-1.,0.));
#1145 = PCURVE('',#978,#1146);
#1146 = DEFINITIONAL_REPRESENTATION('',(#1147),#1151);
#1147 = CIRCLE('',#1148,2.25);
#1148 = AXIS2_PLACEMENT_2D('',#1149,#1150);
#1149 = CARTESIAN_POINT('',(36.75,-5.790076070423E-16));
#1150 = DIRECTION('',(0.,-1.));
#1151 = ( GEOMETRIC_REPRESENTATION_CONTEXT(2) 
PARAMETRIC_REPRESENTATION_CONTEXT() REPRESENTATION_CONTEXT('2D SPACE',''
  ) );
#1152 = PCURVE('',#739,#1153);
#1153 = DEFINITIONAL_REPRESENTATION('',(#1154),#1158);
#1154 = LINE('',#1155,#1156);
#1155 = CARTESIAN_POINT('',(3.14159265359,1.5));
#1156 = VECTOR('',#1157,1.);
#1157 = DIRECTION('',(1.,-0.));
#1158 = ( GEOMETRIC_REPRESENTATION_CONTEXT(2) 
PARAMETRIC_REPRESENTATION_CONTEXT() REPRESENTATION_CONTEXT('2D SPACE',''
  ) );
#1159 = ORIENTED_EDGE('',*,*,#1160,.T.);
#1160 = EDGE_CURVE('',#1137,#962,#1161,.T.);
#1161 = SURFACE_CURVE('',#1162,(#1166,#1173),.PCURVE_S1.);
#1162 = LINE('',#1163,#1164);
#1163 = CARTESIAN_POINT('',(36.75,-2.25,109.));
#1164 = VECTOR('',#1165,1.);
#1165 = DIRECTION('',(-1.,0.,0.));
#1166 = PCURVE('',#978,#1167);
#1167 = DEFINITIONAL_REPRESENTATION('',(#1168),#1172);
#1168 = LINE('',#1169,#1170);
#1169 = CARTESIAN_POINT('',(36.75,-2.25));
#1170 = VECTOR('',#1171,1.);
#1171 = DIRECTION('',(-1.,0.));
#1172 = ( GEOMETRIC_REPRESENTATION_CONTEXT(2) 
PARAMETRIC_REPRESENTATION_CONTEXT() REPRESENTATION_CONTEXT('2D SPACE',''
  ) );
#1173 = PCURVE('',#820,#1174);
#1174 = DEFINITIONAL_REPRESENTATION('',(#1175),#1179);
#1175 = LINE('',#1176,#1177);
#1176 = CARTESIAN_POINT('',(0.,0.));
#1177 = VECTOR('',#1178,1.);
#1178 = DIRECTION('',(1.,0.));
#1179 = ( GEOMETRIC_REPRESENTATION_CONTEXT(2) 
PARAMETRIC_REPRESENTATION_CONTEXT() REPRESENTATION_CONTEXT('2D SPACE',''
  ) );
#1180 = ORIENTED_EDGE('',*,*,#959,.F.);
#1181 = ORIENTED_EDGE('',*,*,#1076,.T.);
#1182 = ADVANCED_FACE('',(#1183),#1122,.T.);
#1183 = FACE_BOUND('',#1184,.T.);
#1184 = EDGE_LOOP('',(#1185,#1186,#1207,#1238));
#1185 = ORIENTED_EDGE('',*,*,#1101,.T.);
#1186 = ORIENTED_EDGE('',*,*,#1187,.T.);
#1187 = EDGE_CURVE('',#1102,#1188,#1190,.T.);
#1188 = VERTEX_POINT('',#1189);
#1189 = CARTESIAN_POINT('',(39.749999869846,3.216713912751E-03,80.7));
#1190 = SEAM_CURVE('',#1191,(#1195,#1201),.PCURVE_S1.);
#1191 = LINE('',#1192,#1193);
#1192 = CARTESIAN_POINT('',(39.749999869846,3.216713912751E-03,80.7));
#1193 = VECTOR('',#1194,1.);
#1194 = DIRECTION('',(-0.,-0.,-1.));
#1195 = PCURVE('',#1122,#1196);
#1196 = DEFINITIONAL_REPRESENTATION('',(#1197),#1200);
#1197 = B_SPLINE_CURVE_WITH_KNOTS('',1,(#1198,#1199),.UNSPECIFIED.,.F.,
  .F.,(2,2),(-28.3,-0.),.PIECEWISE_BEZIER_KNOTS.);
#1198 = CARTESIAN_POINT('',(6.283104383559,-28.3));
#1199 = CARTESIAN_POINT('',(6.283104383559,0.));
#1200 = ( GEOMETRIC_REPRESENTATION_CONTEXT(2) 
PARAMETRIC_REPRESENTATION_CONTEXT() REPRESENTATION_CONTEXT('2D SPACE',''
  ) );
#1201 = PCURVE('',#1122,#1202);
#1202 = DEFINITIONAL_REPRESENTATION('',(#1203),#1206);
#1203 = B_SPLINE_CURVE_WITH_KNOTS('',1,(#1204,#1205),.UNSPECIFIED.,.F.,
  .F.,(2,2),(-28.3,-0.),.PIECEWISE_BEZIER_KNOTS.);
#1204 = CARTESIAN_POINT('',(-8.092362041356E-05,-28.3));
#1205 = CARTESIAN_POINT('',(-8.092362041356E-05,0.));
#1206 = ( GEOMETRIC_REPRESENTATION_CONTEXT(2) 
PARAMETRIC_REPRESENTATION_CONTEXT() REPRESENTATION_CONTEXT('2D SPACE',''
  ) );
#1207 = ORIENTED_EDGE('',*,*,#1208,.F.);
#1208 = EDGE_CURVE('',#1188,#1188,#1209,.T.);
#1209 = SURFACE_CURVE('',#1210,(#1215,#1222),.PCURVE_S1.);
#1210 = CIRCLE('',#1211,39.75);
#1211 = AXIS2_PLACEMENT_3D('',#1212,#1213,#1214);
#1212 = CARTESIAN_POINT('',(-5.329070518201E-15,-7.105427357601E-15,80.7
    ));
#1213 = DIRECTION('',(0.,0.,-1.));
#1214 = DIRECTION('',(0.999999996726,8.092362044647E-05,0.));
#1215 = PCURVE('',#1122,#1216);
#1216 = DEFINITIONAL_REPRESENTATION('',(#1217),#1221);
#1217 = LINE('',#1218,#1219);
#1218 = CARTESIAN_POINT('',(-8.092361986289E-05,0.));
#1219 = VECTOR('',#1220,1.);
#1220 = DIRECTION('',(1.,-0.));
#1221 = ( GEOMETRIC_REPRESENTATION_CONTEXT(2) 
PARAMETRIC_REPRESENTATION_CONTEXT() REPRESENTATION_CONTEXT('2D SPACE',''
  ) );
#1222 = PCURVE('',#1223,#1228);
#1223 = PLANE('',#1224);
#1224 = AXIS2_PLACEMENT_3D('',#1225,#1226,#1227);
#1225 = CARTESIAN_POINT('',(-2.933502854163E-15,4.040240899597E-15,80.7)
  );
#1226 = DIRECTION('',(0.,0.,1.));
#1227 = DIRECTION('',(1.,0.,0.));
#1228 = DEFINITIONAL_REPRESENTATION('',(#1229),#1237);
#1229 = ( BOUNDED_CURVE() B_SPLINE_CURVE(2,(#1230,#1231,#1232,#1233,
#1234,#1235,#1236),.UNSPECIFIED.,.T.,.F.) B_SPLINE_CURVE_WITH_KNOTS((1,2
    ,2,2,2,1),(-2.094395102393,0.,2.094395102393,4.188790204786,
6.28318530718,8.377580409573),.UNSPECIFIED.) CURVE() 
GEOMETRIC_REPRESENTATION_ITEM() RATIONAL_B_SPLINE_CURVE((1.,0.5,1.,0.5,
1.,0.5,1.)) REPRESENTATION_ITEM('') );
#1230 = CARTESIAN_POINT('',(39.749999869846,3.216713912736E-03));
#1231 = CARTESIAN_POINT('',(39.755571381776,-68.84580266151));
#1232 = CARTESIAN_POINT('',(-19.87221417895,-34.42611804467));
#1233 = CARTESIAN_POINT('',(-79.49999973969,-6.433427825515E-03));
#1234 = CARTESIAN_POINT('',(-19.87778569088,34.422901330758));
#1235 = CARTESIAN_POINT('',(39.744428357916,68.852236089342));
#1236 = CARTESIAN_POINT('',(39.749999869846,3.216713912736E-03));
#1237 = ( GEOMETRIC_REPRESENTATION_CONTEXT(2) 
PARAMETRIC_REPRESENTATION_CONTEXT() REPRESENTATION_CONTEXT('2D SPACE',''
  ) );
#1238 = ORIENTED_EDGE('',*,*,#1187,.F.);
#1239 = ADVANCED_FACE('',(#1240,#1275),#1223,.T.);
#1240 = FACE_BOUND('',#1241,.T.);
#1241 = EDGE_LOOP('',(#1242));
#1242 = ORIENTED_EDGE('',*,*,#1243,.F.);
#1243 = EDGE_CURVE('',#1244,#1244,#1246,.T.);
#1244 = VERTEX_POINT('',#1245);
#1245 = CARTESIAN_POINT('',(44.749999884388,3.216713912751E-03,80.7));
#1246 = SURFACE_CURVE('',#1247,(#1252,#1263),.PCURVE_S1.);
#1247 = CIRCLE('',#1248,44.75);
#1248 = AXIS2_PLACEMENT_3D('',#1249,#1250,#1251);
#1249 = CARTESIAN_POINT('',(-1.7763568394E-15,1.7763568394E-15,80.7));
#1250 = DIRECTION('',(0.,0.,-1.));
#1251 = DIRECTION('',(0.999999997416,7.188187514497E-05,0.));
#1252 = PCURVE('',#1223,#1253);
#1253 = DEFINITIONAL_REPRESENTATION('',(#1254),#1262);
#1254 = ( BOUNDED_CURVE() B_SPLINE_CURVE(2,(#1255,#1256,#1257,#1258,
#1259,#1260,#1261),.UNSPECIFIED.,.T.,.F.) B_SPLINE_CURVE_WITH_KNOTS((1,2
    ,2,2,2,1),(-2.094395102393,0.,2.094395102393,4.188790204786,
6.28318530718,8.377580409573),.UNSPECIFIED.) CURVE() 
GEOMETRIC_REPRESENTATION_ITEM() RATIONAL_B_SPLINE_CURVE((1.,0.5,1.,0.5,
1.,0.5,1.)) REPRESENTATION_ITEM('') );
#1255 = CARTESIAN_POINT('',(44.749999884388,3.216713912735E-03));
#1256 = CARTESIAN_POINT('',(44.755571396319,-77.50605672454));
#1257 = CARTESIAN_POINT('',(-22.37221418622,-38.75624507618));
#1258 = CARTESIAN_POINT('',(-89.49999976877,-6.433427825488E-03));
#1259 = CARTESIAN_POINT('',(-22.37778569815,38.753028362275));
#1260 = CARTESIAN_POINT('',(44.744428372458,77.512490152375));
#1261 = CARTESIAN_POINT('',(44.749999884388,3.216713912735E-03));
#1262 = ( GEOMETRIC_REPRESENTATION_CONTEXT(2) 
PARAMETRIC_REPRESENTATION_CONTEXT() REPRESENTATION_CONTEXT('2D SPACE',''
  ) );
#1263 = PCURVE('',#1264,#1269);
#1264 = CYLINDRICAL_SURFACE('',#1265,44.75);
#1265 = AXIS2_PLACEMENT_3D('',#1266,#1267,#1268);
#1266 = CARTESIAN_POINT('',(0.,0.,69.9));
#1267 = DIRECTION('',(-0.,-0.,-1.));
#1268 = DIRECTION('',(1.,0.,0.));
#1269 = DEFINITIONAL_REPRESENTATION('',(#1270),#1274);
#1270 = LINE('',#1271,#1272);
#1271 = CARTESIAN_POINT('',(-7.188187520768E-05,-10.8));
#1272 = VECTOR('',#1273,1.);
#1273 = DIRECTION('',(1.,-0.));
#1274 = ( GEOMETRIC_REPRESENTATION_CONTEXT(2) 
PARAMETRIC_REPRESENTATION_CONTEXT() REPRESENTATION_CONTEXT('2D SPACE',''
  ) );
#1275 = FACE_BOUND('',#1276,.T.);
#1276 = EDGE_LOOP('',(#1277));
#1277 = ORIENTED_EDGE('',*,*,#1208,.T.);
#1278 = ADVANCED_FACE('',(#1279),#1264,.T.);
#1279 = FACE_BOUND('',#1280,.T.);
#1280 = EDGE_LOOP('',(#1281,#1282,#1303,#1329));
#1281 = ORIENTED_EDGE('',*,*,#1243,.T.);
#1282 = ORIENTED_EDGE('',*,*,#1283,.T.);
#1283 = EDGE_CURVE('',#1244,#1284,#1286,.T.);
#1284 = VERTEX_POINT('',#1285);
#1285 = CARTESIAN_POINT('',(44.749999884388,3.216713912751E-03,69.9));
#1286 = SEAM_CURVE('',#1287,(#1291,#1297),.PCURVE_S1.);
#1287 = LINE('',#1288,#1289);
#1288 = CARTESIAN_POINT('',(44.749999884388,3.216713912751E-03,69.9));
#1289 = VECTOR('',#1290,1.);
#1290 = DIRECTION('',(-0.,-0.,-1.));
#1291 = PCURVE('',#1264,#1292);
#1292 = DEFINITIONAL_REPRESENTATION('',(#1293),#1296);
#1293 = B_SPLINE_CURVE_WITH_KNOTS('',1,(#1294,#1295),.UNSPECIFIED.,.F.,
  .F.,(2,2),(-10.8,-0.),.PIECEWISE_BEZIER_KNOTS.);
#1294 = CARTESIAN_POINT('',(6.283113425304,-10.8));
#1295 = CARTESIAN_POINT('',(6.283113425304,0.));
#1296 = ( GEOMETRIC_REPRESENTATION_CONTEXT(2) 
PARAMETRIC_REPRESENTATION_CONTEXT() REPRESENTATION_CONTEXT('2D SPACE',''
  ) );
#1297 = PCURVE('',#1264,#1298);
#1298 = DEFINITIONAL_REPRESENTATION('',(#1299),#1302);
#1299 = B_SPLINE_CURVE_WITH_KNOTS('',1,(#1300,#1301),.UNSPECIFIED.,.F.,
  .F.,(2,2),(-10.8,-0.),.PIECEWISE_BEZIER_KNOTS.);
#1300 = CARTESIAN_POINT('',(-7.188187541374E-05,-10.8));
#1301 = CARTESIAN_POINT('',(-7.188187541374E-05,0.));
#1302 = ( GEOMETRIC_REPRESENTATION_CONTEXT(2) 
PARAMETRIC_REPRESENTATION_CONTEXT() REPRESENTATION_CONTEXT('2D SPACE',''
  ) );
#1303 = ORIENTED_EDGE('',*,*,#1304,.F.);
#1304 = EDGE_CURVE('',#1284,#1284,#1305,.T.);
#1305 = SURFACE_CURVE('',#1306,(#1311,#1318),.PCURVE_S1.);
#1306 = CIRCLE('',#1307,44.75);
#1307 = AXIS2_PLACEMENT_3D('',#1308,#1309,#1310);
#1308 = CARTESIAN_POINT('',(0.,0.,69.9));
#1309 = DIRECTION('',(0.,0.,-1.));
#1310 = DIRECTION('',(0.999999997416,7.188187514535E-05,0.));
#1311 = PCURVE('',#1264,#1312);
#1312 = DEFINITIONAL_REPRESENTATION('',(#1313),#1317);
#1313 = LINE('',#1314,#1315);
#1314 = CARTESIAN_POINT('',(-7.188187541374E-05,0.));
#1315 = VECTOR('',#1316,1.);
#1316 = DIRECTION('',(1.,-0.));
#1317 = ( GEOMETRIC_REPRESENTATION_CONTEXT(2) 
PARAMETRIC_REPRESENTATION_CONTEXT() REPRESENTATION_CONTEXT('2D SPACE',''
  ) );
#1318 = PCURVE('',#43,#1319);
#1319 = DEFINITIONAL_REPRESENTATION('',(#1320),#1328);
#1320 = ( BOUNDED_CURVE() B_SPLINE_CURVE(2,(#1321,#1322,#1323,#1324,
#1325,#1326,#1327),.UNSPECIFIED.,.T.,.F.) B_SPLINE_CURVE_WITH_KNOTS((1,2
    ,2,2,2,1),(-2.094395102393,0.,2.094395102393,4.188790204786,
6.28318530718,8.377580409573),.UNSPECIFIED.) CURVE() 
GEOMETRIC_REPRESENTATION_ITEM() RATIONAL_B_SPLINE_CURVE((1.,0.5,1.,0.5,
1.,0.5,1.)) REPRESENTATION_ITEM('') );
#1321 = CARTESIAN_POINT('',(44.749999884388,3.216713912754E-03));
#1322 = CARTESIAN_POINT('',(44.755571396319,-77.50605672454));
#1323 = CARTESIAN_POINT('',(-22.37221418622,-38.75624507618));
#1324 = CARTESIAN_POINT('',(-89.49999976877,-6.433427825519E-03));
#1325 = CARTESIAN_POINT('',(-22.37778569815,38.753028362275));
#1326 = CARTESIAN_POINT('',(44.744428372458,77.512490152375));
#1327 = CARTESIAN_POINT('',(44.749999884388,3.216713912754E-03));
#1328 = ( GEOMETRIC_REPRESENTATION_CONTEXT(2) 
PARAMETRIC_REPRESENTATION_CONTEXT() REPRESENTATION_CONTEXT('2D SPACE',''
  ) );
#1329 = ORIENTED_EDGE('',*,*,#1283,.F.);
#1330 = ADVANCED_FACE('',(#1331),#820,.T.);
#1331 = FACE_BOUND('',#1332,.T.);
#1332 = EDGE_LOOP('',(#1333,#1334,#1335,#1336));
#1333 = ORIENTED_EDGE('',*,*,#804,.T.);
#1334 = ORIENTED_EDGE('',*,*,#1014,.T.);
#1335 = ORIENTED_EDGE('',*,*,#1160,.F.);
#1336 = ORIENTED_EDGE('',*,*,#1337,.F.);
#1337 = EDGE_CURVE('',#723,#1137,#1338,.T.);
#1338 = SURFACE_CURVE('',#1339,(#1342,#1348),.PCURVE_S1.);
#1339 = B_SPLINE_CURVE_WITH_KNOTS('',1,(#1340,#1341),.UNSPECIFIED.,.F.,
  .F.,(2,2),(0.,1.),.PIECEWISE_BEZIER_KNOTS.);
#1340 = CARTESIAN_POINT('',(36.75,-0.75,107.5));
#1341 = CARTESIAN_POINT('',(36.75,-2.25,109.));
#1342 = PCURVE('',#820,#1343);
#1343 = DEFINITIONAL_REPRESENTATION('',(#1344),#1347);
#1344 = B_SPLINE_CURVE_WITH_KNOTS('',1,(#1345,#1346),.UNSPECIFIED.,.F.,
  .F.,(2,2),(0.,1.),.PIECEWISE_BEZIER_KNOTS.);
#1345 = CARTESIAN_POINT('',(0.,-2.12132034356));
#1346 = CARTESIAN_POINT('',(0.,0.));
#1347 = ( GEOMETRIC_REPRESENTATION_CONTEXT(2) 
PARAMETRIC_REPRESENTATION_CONTEXT() REPRESENTATION_CONTEXT('2D SPACE',''
  ) );
#1348 = PCURVE('',#739,#1349);
#1349 = DEFINITIONAL_REPRESENTATION('',(#1350),#1353);
#1350 = B_SPLINE_CURVE_WITH_KNOTS('',1,(#1351,#1352),.UNSPECIFIED.,.F.,
  .F.,(2,2),(0.,1.),.PIECEWISE_BEZIER_KNOTS.);
#1351 = CARTESIAN_POINT('',(3.14159265359,0.));
#1352 = CARTESIAN_POINT('',(3.14159265359,1.5));
#1353 = ( GEOMETRIC_REPRESENTATION_CONTEXT(2) 
PARAMETRIC_REPRESENTATION_CONTEXT() REPRESENTATION_CONTEXT('2D SPACE',''
  ) );
#1354 = ADVANCED_FACE('',(#1355),#739,.F.);
#1355 = FACE_BOUND('',#1356,.F.);
#1356 = EDGE_LOOP('',(#1357,#1358,#1359,#1360));
#1357 = ORIENTED_EDGE('',*,*,#1136,.F.);
#1358 = ORIENTED_EDGE('',*,*,#1337,.F.);
#1359 = ORIENTED_EDGE('',*,*,#722,.T.);
#1360 = ORIENTED_EDGE('',*,*,#1056,.T.);
#1361 = ADVANCED_FACE('',(#1362),#461,.F.);
#1362 = FACE_BOUND('',#1363,.F.);
#1363 = EDGE_LOOP('',(#1364,#1365,#1366,#1367));
#1364 = ORIENTED_EDGE('',*,*,#445,.F.);
#1365 = ORIENTED_EDGE('',*,*,#914,.T.);
#1366 = ORIENTED_EDGE('',*,*,#1035,.T.);
#1367 = ORIENTED_EDGE('',*,*,#699,.F.);
#1368 = ADVANCED_FACE('',(#1369),#317,.F.);
#1369 = FACE_BOUND('',#1370,.F.);
#1370 = EDGE_LOOP('',(#1371,#1372,#1373,#1415));
#1371 = ORIENTED_EDGE('',*,*,#423,.F.);
#1372 = ORIENTED_EDGE('',*,*,#300,.T.);
#1373 = ORIENTED_EDGE('',*,*,#1374,.T.);
#1374 = EDGE_CURVE('',#257,#862,#1375,.T.);
#1375 = SURFACE_CURVE('',#1376,(#1387,#1401),.PCURVE_S1.);
#1376 = B_SPLINE_CURVE_WITH_KNOTS('',5,(#1377,#1378,#1379,#1380,#1381,
    #1382,#1383,#1384,#1385,#1386),.UNSPECIFIED.,.F.,.F.,(6,4,6),(0.,
    0.842000002342,1.),.UNSPECIFIED.);
#1377 = CARTESIAN_POINT('',(-37.79999986313,3.216713912751E-03,0.));
#1378 = CARTESIAN_POINT('',(-37.74947719109,3.216713912751E-03,
    16.671600036235));
#1379 = CARTESIAN_POINT('',(-37.69895569622,3.216713912751E-03,
    33.343200080379));
#1380 = CARTESIAN_POINT('',(-37.64843464493,3.216713912751E-03,
    50.014800127579));
#1381 = CARTESIAN_POINT('',(-37.59791394192,3.216713912751E-03,
    66.686400176733));
#1382 = CARTESIAN_POINT('',(-37.53791335127,3.216713912751E-03,
    86.486400181832));
#1383 = CARTESIAN_POINT('',(-37.52843326553,3.216713912751E-03,
    89.614800136313));
#1384 = CARTESIAN_POINT('',(-37.51895318655,3.216713912751E-03,
    92.743200090837));
#1385 = CARTESIAN_POINT('',(-37.5094731137,3.216713912751E-03,
    95.8716000454));
#1386 = CARTESIAN_POINT('',(-37.4999930465,3.216713912751E-03,99.));
#1387 = PCURVE('',#317,#1388);
#1388 = DEFINITIONAL_REPRESENTATION('',(#1389),#1400);
#1389 = B_SPLINE_CURVE_WITH_KNOTS('',5,(#1390,#1391,#1392,#1393,#1394,
    #1395,#1396,#1397,#1398,#1399),.UNSPECIFIED.,.F.,.F.,(6,4,6),(0.,
    0.842000002342,1.),.UNSPECIFIED.);
#1390 = CARTESIAN_POINT('',(4.7058381421,0.));
#1391 = CARTESIAN_POINT('',(4.706419909718,0.168400000366));
#1392 = CARTESIAN_POINT('',(4.706872857408,0.336800000812));
#1393 = CARTESIAN_POINT('',(4.707251924966,0.505200001289));
#1394 = CARTESIAN_POINT('',(4.707573537111,0.673600001785));
#1395 = CARTESIAN_POINT('',(4.707904884159,0.873600001837));
#1396 = CARTESIAN_POINT('',(4.707955726691,0.905200001377));
#1397 = CARTESIAN_POINT('',(4.708005145563,0.936800000918));
#1398 = CARTESIAN_POINT('',(4.708053218681,0.968400000459));
#1399 = CARTESIAN_POINT('',(4.708100015207,1.));
#1400 = ( GEOMETRIC_REPRESENTATION_CONTEXT(2) 
PARAMETRIC_REPRESENTATION_CONTEXT() REPRESENTATION_CONTEXT('2D SPACE',''
  ) );
#1401 = PCURVE('',#273,#1402);
#1402 = DEFINITIONAL_REPRESENTATION('',(#1403),#1414);
#1403 = B_SPLINE_CURVE_WITH_KNOTS('',5,(#1404,#1405,#1406,#1407,#1408,
    #1409,#1410,#1411,#1412,#1413),.UNSPECIFIED.,.F.,.F.,(6,4,6),(0.,
    0.842000002342,1.),.UNSPECIFIED.);
#1404 = CARTESIAN_POINT('',(4.7058381421,0.));
#1405 = CARTESIAN_POINT('',(4.706419909718,0.168400000366));
#1406 = CARTESIAN_POINT('',(4.706872857408,0.336800000812));
#1407 = CARTESIAN_POINT('',(4.707251924966,0.505200001289));
#1408 = CARTESIAN_POINT('',(4.707573537111,0.673600001785));
#1409 = CARTESIAN_POINT('',(4.707904884159,0.873600001837));
#1410 = CARTESIAN_POINT('',(4.707955726691,0.905200001377));
#1411 = CARTESIAN_POINT('',(4.708005145563,0.936800000918));
#1412 = CARTESIAN_POINT('',(4.708053218681,0.968400000459));
#1413 = CARTESIAN_POINT('',(4.708100015207,1.));
#1414 = ( GEOMETRIC_REPRESENTATION_CONTEXT(2) 
PARAMETRIC_REPRESENTATION_CONTEXT() REPRESENTATION_CONTEXT('2D SPACE',''
  ) );
#1415 = ORIENTED_EDGE('',*,*,#935,.T.);
#1416 = ADVANCED_FACE('',(#1417),#273,.F.);
#1417 = FACE_BOUND('',#1418,.F.);
#1418 = EDGE_LOOP('',(#1419,#1420,#1421,#1441));
#1419 = ORIENTED_EDGE('',*,*,#1374,.F.);
#1420 = ORIENTED_EDGE('',*,*,#256,.T.);
#1421 = ORIENTED_EDGE('',*,*,#1422,.T.);
#1422 = EDGE_CURVE('',#209,#781,#1423,.T.);
#1423 = SURFACE_CURVE('',#1424,(#1427,#1434),.PCURVE_S1.);
#1424 = B_SPLINE_CURVE_WITH_KNOTS('',1,(#1425,#1426),.UNSPECIFIED.,.F.,
  .F.,(2,2),(0.,1.),.PIECEWISE_BEZIER_KNOTS.);
#1425 = CARTESIAN_POINT('',(-37.79213073791,-0.771267974243,0.));
#1426 = CARTESIAN_POINT('',(-36.75,-0.75,99.));
#1427 = PCURVE('',#273,#1428);
#1428 = DEFINITIONAL_REPRESENTATION('',(#1429),#1433);
#1429 = LINE('',#1430,#1431);
#1430 = CARTESIAN_POINT('',(6.28318530718,0.));
#1431 = VECTOR('',#1432,1.);
#1432 = DIRECTION('',(0.,1.));
#1433 = ( GEOMETRIC_REPRESENTATION_CONTEXT(2) 
PARAMETRIC_REPRESENTATION_CONTEXT() REPRESENTATION_CONTEXT('2D SPACE',''
  ) );
#1434 = PCURVE('',#225,#1435);
#1435 = DEFINITIONAL_REPRESENTATION('',(#1436),#1440);
#1436 = LINE('',#1437,#1438);
#1437 = CARTESIAN_POINT('',(-73.5,0.));
#1438 = VECTOR('',#1439,1.);
#1439 = DIRECTION('',(0.,1.));
#1440 = ( GEOMETRIC_REPRESENTATION_CONTEXT(2) 
PARAMETRIC_REPRESENTATION_CONTEXT() REPRESENTATION_CONTEXT('2D SPACE',''
  ) );
#1441 = ORIENTED_EDGE('',*,*,#861,.T.);
#1442 = ADVANCED_FACE('',(#1443),#225,.F.);
#1443 = FACE_BOUND('',#1444,.F.);
#1444 = EDGE_LOOP('',(#1445,#1446,#1466,#1467));
#1445 = ORIENTED_EDGE('',*,*,#208,.T.);
#1446 = ORIENTED_EDGE('',*,*,#1447,.T.);
#1447 = EDGE_CURVE('',#165,#676,#1448,.T.);
#1448 = SURFACE_CURVE('',#1449,(#1452,#1459),.PCURVE_S1.);
#1449 = B_SPLINE_CURVE_WITH_KNOTS('',1,(#1450,#1451),.UNSPECIFIED.,.F.,
  .F.,(2,2),(0.,1.),.PIECEWISE_BEZIER_KNOTS.);
#1450 = CARTESIAN_POINT('',(37.792130737918,-0.771267974243,0.));
#1451 = CARTESIAN_POINT('',(36.75,-0.75,99.));
#1452 = PCURVE('',#225,#1453);
#1453 = DEFINITIONAL_REPRESENTATION('',(#1454),#1458);
#1454 = LINE('',#1455,#1456);
#1455 = CARTESIAN_POINT('',(0.,0.));
#1456 = VECTOR('',#1457,1.);
#1457 = DIRECTION('',(0.,1.));
#1458 = ( GEOMETRIC_REPRESENTATION_CONTEXT(2) 
PARAMETRIC_REPRESENTATION_CONTEXT() REPRESENTATION_CONTEXT('2D SPACE',''
  ) );
#1459 = PCURVE('',#181,#1460);
#1460 = DEFINITIONAL_REPRESENTATION('',(#1461),#1465);
#1461 = LINE('',#1462,#1463);
#1462 = CARTESIAN_POINT('',(3.14159265359,0.));
#1463 = VECTOR('',#1464,1.);
#1464 = DIRECTION('',(0.,1.));
#1465 = ( GEOMETRIC_REPRESENTATION_CONTEXT(2) 
PARAMETRIC_REPRESENTATION_CONTEXT() REPRESENTATION_CONTEXT('2D SPACE',''
  ) );
#1466 = ORIENTED_EDGE('',*,*,#780,.T.);
#1467 = ORIENTED_EDGE('',*,*,#1422,.F.);
#1468 = ADVANCED_FACE('',(#1469),#181,.F.);
#1469 = FACE_BOUND('',#1470,.F.);
#1470 = EDGE_LOOP('',(#1471,#1472,#1473,#1493,#1494));
#1471 = ORIENTED_EDGE('',*,*,#1447,.F.);
#1472 = ORIENTED_EDGE('',*,*,#164,.T.);
#1473 = ORIENTED_EDGE('',*,*,#1474,.T.);
#1474 = EDGE_CURVE('',#115,#394,#1475,.T.);
#1475 = SURFACE_CURVE('',#1476,(#1479,#1486),.PCURVE_S1.);
#1476 = B_SPLINE_CURVE_WITH_KNOTS('',1,(#1477,#1478),.UNSPECIFIED.,.F.,
  .F.,(2,2),(0.,1.),.PIECEWISE_BEZIER_KNOTS.);
#1477 = CARTESIAN_POINT('',(37.8,-7.105427357601E-15,0.));
#1478 = CARTESIAN_POINT('',(36.75,0.75,99.));
#1479 = PCURVE('',#181,#1480);
#1480 = DEFINITIONAL_REPRESENTATION('',(#1481),#1485);
#1481 = LINE('',#1482,#1483);
#1482 = CARTESIAN_POINT('',(6.28318530718,0.));
#1483 = VECTOR('',#1484,1.);
#1484 = DIRECTION('',(0.,1.));
#1485 = ( GEOMETRIC_REPRESENTATION_CONTEXT(2) 
PARAMETRIC_REPRESENTATION_CONTEXT() REPRESENTATION_CONTEXT('2D SPACE',''
  ) );
#1486 = PCURVE('',#133,#1487);
#1487 = DEFINITIONAL_REPRESENTATION('',(#1488),#1492);
#1488 = LINE('',#1489,#1490);
#1489 = CARTESIAN_POINT('',(-73.5,0.));
#1490 = VECTOR('',#1491,1.);
#1491 = DIRECTION('',(0.,1.));
#1492 = ( GEOMETRIC_REPRESENTATION_CONTEXT(2) 
PARAMETRIC_REPRESENTATION_CONTEXT() REPRESENTATION_CONTEXT('2D SPACE',''
  ) );
#1493 = ORIENTED_EDGE('',*,*,#517,.T.);
#1494 = ORIENTED_EDGE('',*,*,#675,.T.);
#1495 = ADVANCED_FACE('',(#1496),#133,.F.);
#1496 = FACE_BOUND('',#1497,.F.);
#1497 = EDGE_LOOP('',(#1498,#1499,#1500));
#1498 = ORIENTED_EDGE('',*,*,#1474,.F.);
#1499 = ORIENTED_EDGE('',*,*,#114,.T.);
#1500 = ORIENTED_EDGE('',*,*,#393,.T.);
#1501 = ADVANCED_FACE('',(#1502,#1505),#43,.T.);
#1502 = FACE_BOUND('',#1503,.T.);
#1503 = EDGE_LOOP('',(#1504));
#1504 = ORIENTED_EDGE('',*,*,#21,.F.);
#1505 = FACE_BOUND('',#1506,.T.);
#1506 = EDGE_LOOP('',(#1507));
#1507 = ORIENTED_EDGE('',*,*,#1304,.T.);
#1508 = ( GEOMETRIC_REPRESENTATION_CONTEXT(3) 
GLOBAL_UNCERTAINTY_ASSIGNED_CONTEXT((#1512)) 
GLOBAL_UNIT_ASSIGNED_CONTEXT((#1509,#1510,#1511)) REPRESENTATION_CONTEXT
('Context #1','3D Context with UNIT and UNCERTAINTY') );
#1509 = ( LENGTH_UNIT() NAMED_UNIT(*) SI_UNIT(.MILLI.,.METRE.) );
#1510 = ( NAMED_UNIT(*) PLANE_ANGLE_UNIT() SI_UNIT($,.RADIAN.) );
#1511 = ( NAMED_UNIT(*) SI_UNIT($,.STERADIAN.) SOLID_ANGLE_UNIT() );
#1512 = UNCERTAINTY_MEASURE_WITH_UNIT(LENGTH_MEASURE(1.E-07),#1509,
  'distance_accuracy_value','confusion accuracy');
#1513 = PRODUCT_RELATED_PRODUCT_CATEGORY('part',$,(#7));
ENDSEC;
END-ISO-10303-21;
