ISO-10303-21;
HEADER;
FILE_DESCRIPTION(('Open CASCADE Model'),'2;1');
FILE_NAME('Open CASCADE Shape Model','2026-09-12T15:43:42',('Author'),(
    'Open CASCADE'),'Open CASCADE STEP processor 7.9','Open CASCADE 7.9'
  ,'Unknown');
FILE_SCHEMA(('AUTOMOTIVE_DESIGN { 1 0 10303 214 1 1 1 1 }'));
ENDSEC;
DATA;
#1 = APPLICATION_PROTOCOL_DEFINITION('international standard',
  'automotive_design',2000,#2);
#2 = APPLICATION_CONTEXT(
  'core data for automotive mechanical design processes');
#3 = SHAPE_DEFINITION_REPRESENTATION(#4,#10);
#4 = PRODUCT_DEFINITION_SHAPE('','',#5);
#5 = PRODUCT_DEFINITION('design','',#6,#9);
#6 = PRODUCT_DEFINITION_FORMATION('','',#7);
#7 = PRODUCT('Open CASCADE STEP translator 7.9 2',
  'Open CASCADE STEP translator 7.9 2','',(#8));
#8 = PRODUCT_CONTEXT('',#2,'mechanical');
#9 = PRODUCT_DEFINITION_CONTEXT('part definition',#2,'design');
#10 = ADVANCED_BREP_SHAPE_REPRESENTATION('',(#11,#15),#1331);
#11 = AXIS2_PLACEMENT_3D('',#12,#13,#14);
#12 = CARTESIAN_POINT('',(0.,0.,0.));
#13 = DIRECTION('',(0.,0.,1.));
#14 = DIRECTION('',(1.,0.,-0.));
#15 = MANIFOLD_SOLID_BREP('',#16);
#16 = CLOSED_SHELL('',(#17,#105,#140,#618,#673,#708,#943,#1178,#1213,
    #1274,#1324));
#17 = ADVANCED_FACE('',(#18),#31,.T.);
#18 = FACE_BOUND('',#19,.T.);
#19 = EDGE_LOOP('',(#20,#54,#77,#104));
#20 = ORIENTED_EDGE('',*,*,#21,.F.);
#21 = EDGE_CURVE('',#22,#22,#24,.T.);
#22 = VERTEX_POINT('',#23);
#23 = CARTESIAN_POINT('',(65.,-1.592040838892E-14,95.));
#24 = SURFACE_CURVE('',#25,(#30,#42),.PCURVE_S1.);
#25 = CIRCLE('',#26,65.);
#26 = AXIS2_PLACEMENT_3D('',#27,#28,#29);
#27 = CARTESIAN_POINT('',(0.,0.,95.));
#28 = DIRECTION('',(0.,0.,1.));
#29 = DIRECTION('',(1.,0.,-0.));
#30 = PCURVE('',#31,#36);
#31 = CYLINDRICAL_SURFACE('',#32,65.);
#32 = AXIS2_PLACEMENT_3D('',#33,#34,#35);
#33 = CARTESIAN_POINT('',(0.,0.,53.));
#34 = DIRECTION('',(0.,0.,1.));
#35 = DIRECTION('',(1.,0.,-0.));
#36 = DEFINITIONAL_REPRESENTATION('',(#37),#41);
#37 = LINE('',#38,#39);
#38 = CARTESIAN_POINT('',(0.,42.));
#39 = VECTOR('',#40,1.);
#40 = DIRECTION('',(1.,0.));
#41 = ( GEOMETRIC_REPRESENTATION_CONTEXT(2) 
PARAMETRIC_REPRESENTATION_CONTEXT() REPRESENTATION_CONTEXT('2D SPACE',''
  ) );
#42 = PCURVE('',#43,#48);
#43 = PLANE('',#44);
#44 = AXIS2_PLACEMENT_3D('',#45,#46,#47);
#45 = CARTESIAN_POINT('',(0.,0.,95.));
#46 = DIRECTION('',(0.,0.,1.));
#47 = DIRECTION('',(1.,0.,-0.));
#48 = DEFINITIONAL_REPRESENTATION('',(#49),#53);
#49 = CIRCLE('',#50,65.);
#50 = AXIS2_PLACEMENT_2D('',#51,#52);
#51 = CARTESIAN_POINT('',(0.,0.));
#52 = DIRECTION('',(1.,0.));
#53 = ( GEOMETRIC_REPRESENTATION_CONTEXT(2) 
PARAMETRIC_REPRESENTATION_CONTEXT() REPRESENTATION_CONTEXT('2D SPACE',''
  ) );
#54 = ORIENTED_EDGE('',*,*,#55,.F.);
#55 = EDGE_CURVE('',#56,#22,#58,.T.);
#56 = VERTEX_POINT('',#57);
#57 = CARTESIAN_POINT('',(65.,-1.592040838892E-14,53.));
#58 = SEAM_CURVE('',#59,(#63,#70),.PCURVE_S1.);
#59 = LINE('',#60,#61);
#60 = CARTESIAN_POINT('',(65.,-1.592040838892E-14,53.));
#61 = VECTOR('',#62,1.);
#62 = DIRECTION('',(0.,0.,1.));
#63 = PCURVE('',#31,#64);
#64 = DEFINITIONAL_REPRESENTATION('',(#65),#69);
#65 = LINE('',#66,#67);
#66 = CARTESIAN_POINT('',(6.28318530718,-0.));
#67 = VECTOR('',#68,1.);
#68 = DIRECTION('',(0.,1.));
#69 = ( GEOMETRIC_REPRESENTATION_CONTEXT(2) 
PARAMETRIC_REPRESENTATION_CONTEXT() REPRESENTATION_CONTEXT('2D SPACE',''
  ) );
#70 = PCURVE('',#31,#71);
#71 = DEFINITIONAL_REPRESENTATION('',(#72),#76);
#72 = LINE('',#73,#74);
#73 = CARTESIAN_POINT('',(0.,-0.));
#74 = VECTOR('',#75,1.);
#75 = DIRECTION('',(0.,1.));
#76 = ( GEOMETRIC_REPRESENTATION_CONTEXT(2) 
PARAMETRIC_REPRESENTATION_CONTEXT() REPRESENTATION_CONTEXT('2D SPACE',''
  ) );
#77 = ORIENTED_EDGE('',*,*,#78,.T.);
#78 = EDGE_CURVE('',#56,#56,#79,.T.);
#79 = SURFACE_CURVE('',#80,(#85,#92),.PCURVE_S1.);
#80 = CIRCLE('',#81,65.);
#81 = AXIS2_PLACEMENT_3D('',#82,#83,#84);
#82 = CARTESIAN_POINT('',(0.,0.,53.));
#83 = DIRECTION('',(0.,0.,1.));
#84 = DIRECTION('',(1.,0.,-0.));
#85 = PCURVE('',#31,#86);
#86 = DEFINITIONAL_REPRESENTATION('',(#87),#91);
#87 = LINE('',#88,#89);
#88 = CARTESIAN_POINT('',(0.,0.));
#89 = VECTOR('',#90,1.);
#90 = DIRECTION('',(1.,0.));
#91 = ( GEOMETRIC_REPRESENTATION_CONTEXT(2) 
PARAMETRIC_REPRESENTATION_CONTEXT() REPRESENTATION_CONTEXT('2D SPACE',''
  ) );
#92 = PCURVE('',#93,#98);
#93 = CYLINDRICAL_SURFACE('',#94,65.);
#94 = AXIS2_PLACEMENT_3D('',#95,#96,#97);
#95 = CARTESIAN_POINT('',(0.,0.,-1.));
#96 = DIRECTION('',(0.,0.,1.));
#97 = DIRECTION('',(1.,0.,-0.));
#98 = DEFINITIONAL_REPRESENTATION('',(#99),#103);
#99 = LINE('',#100,#101);
#100 = CARTESIAN_POINT('',(0.,54.));
#101 = VECTOR('',#102,1.);
#102 = DIRECTION('',(1.,0.));
#103 = ( GEOMETRIC_REPRESENTATION_CONTEXT(2) 
PARAMETRIC_REPRESENTATION_CONTEXT() REPRESENTATION_CONTEXT('2D SPACE',''
  ) );
#104 = ORIENTED_EDGE('',*,*,#55,.T.);
#105 = ADVANCED_FACE('',(#106,#109),#43,.T.);
#106 = FACE_BOUND('',#107,.T.);
#107 = EDGE_LOOP('',(#108));
#108 = ORIENTED_EDGE('',*,*,#21,.T.);
#109 = FACE_BOUND('',#110,.T.);
#110 = EDGE_LOOP('',(#111));
#111 = ORIENTED_EDGE('',*,*,#112,.F.);
#112 = EDGE_CURVE('',#113,#113,#115,.T.);
#113 = VERTEX_POINT('',#114);
#114 = CARTESIAN_POINT('',(40.,-9.797174393179E-15,95.));
#115 = SURFACE_CURVE('',#116,(#121,#128),.PCURVE_S1.);
#116 = CIRCLE('',#117,40.);
#117 = AXIS2_PLACEMENT_3D('',#118,#119,#120);
#118 = CARTESIAN_POINT('',(0.,0.,95.));
#119 = DIRECTION('',(0.,0.,1.));
#120 = DIRECTION('',(1.,0.,-0.));
#121 = PCURVE('',#43,#122);
#122 = DEFINITIONAL_REPRESENTATION('',(#123),#127);
#123 = CIRCLE('',#124,40.);
#124 = AXIS2_PLACEMENT_2D('',#125,#126);
#125 = CARTESIAN_POINT('',(0.,0.));
#126 = DIRECTION('',(1.,0.));
#127 = ( GEOMETRIC_REPRESENTATION_CONTEXT(2) 
PARAMETRIC_REPRESENTATION_CONTEXT() REPRESENTATION_CONTEXT('2D SPACE',''
  ) );
#128 = PCURVE('',#129,#134);
#129 = CYLINDRICAL_SURFACE('',#130,40.);
#130 = AXIS2_PLACEMENT_3D('',#131,#132,#133);
#131 = CARTESIAN_POINT('',(0.,0.,81.));
#132 = DIRECTION('',(0.,0.,1.));
#133 = DIRECTION('',(1.,0.,-0.));
#134 = DEFINITIONAL_REPRESENTATION('',(#135),#139);
#135 = LINE('',#136,#137);
#136 = CARTESIAN_POINT('',(0.,14.));
#137 = VECTOR('',#138,1.);
#138 = DIRECTION('',(1.,0.));
#139 = ( GEOMETRIC_REPRESENTATION_CONTEXT(2) 
PARAMETRIC_REPRESENTATION_CONTEXT() REPRESENTATION_CONTEXT('2D SPACE',''
  ) );
#140 = ADVANCED_FACE('',(#141,#195,#411),#93,.T.);
#141 = FACE_BOUND('',#142,.T.);
#142 = EDGE_LOOP('',(#143,#166,#167,#168));
#143 = ORIENTED_EDGE('',*,*,#144,.T.);
#144 = EDGE_CURVE('',#145,#56,#147,.T.);
#145 = VERTEX_POINT('',#146);
#146 = CARTESIAN_POINT('',(65.,-1.592040838892E-14,0.));
#147 = SEAM_CURVE('',#148,(#152,#159),.PCURVE_S1.);
#148 = LINE('',#149,#150);
#149 = CARTESIAN_POINT('',(65.,-1.592040838892E-14,-1.));
#150 = VECTOR('',#151,1.);
#151 = DIRECTION('',(0.,0.,1.));
#152 = PCURVE('',#93,#153);
#153 = DEFINITIONAL_REPRESENTATION('',(#154),#158);
#154 = LINE('',#155,#156);
#155 = CARTESIAN_POINT('',(6.28318530718,-0.));
#156 = VECTOR('',#157,1.);
#157 = DIRECTION('',(0.,1.));
#158 = ( GEOMETRIC_REPRESENTATION_CONTEXT(2) 
PARAMETRIC_REPRESENTATION_CONTEXT() REPRESENTATION_CONTEXT('2D SPACE',''
  ) );
#159 = PCURVE('',#93,#160);
#160 = DEFINITIONAL_REPRESENTATION('',(#161),#165);
#161 = LINE('',#162,#163);
#162 = CARTESIAN_POINT('',(0.,-0.));
#163 = VECTOR('',#164,1.);
#164 = DIRECTION('',(0.,1.));
#165 = ( GEOMETRIC_REPRESENTATION_CONTEXT(2) 
PARAMETRIC_REPRESENTATION_CONTEXT() REPRESENTATION_CONTEXT('2D SPACE',''
  ) );
#166 = ORIENTED_EDGE('',*,*,#78,.F.);
#167 = ORIENTED_EDGE('',*,*,#144,.F.);
#168 = ORIENTED_EDGE('',*,*,#169,.T.);
#169 = EDGE_CURVE('',#145,#145,#170,.T.);
#170 = SURFACE_CURVE('',#171,(#176,#183),.PCURVE_S1.);
#171 = CIRCLE('',#172,65.);
#172 = AXIS2_PLACEMENT_3D('',#173,#174,#175);
#173 = CARTESIAN_POINT('',(0.,0.,0.));
#174 = DIRECTION('',(0.,0.,1.));
#175 = DIRECTION('',(1.,0.,-0.));
#176 = PCURVE('',#93,#177);
#177 = DEFINITIONAL_REPRESENTATION('',(#178),#182);
#178 = LINE('',#179,#180);
#179 = CARTESIAN_POINT('',(0.,1.));
#180 = VECTOR('',#181,1.);
#181 = DIRECTION('',(1.,0.));
#182 = ( GEOMETRIC_REPRESENTATION_CONTEXT(2) 
PARAMETRIC_REPRESENTATION_CONTEXT() REPRESENTATION_CONTEXT('2D SPACE',''
  ) );
#183 = PCURVE('',#184,#189);
#184 = PLANE('',#185);
#185 = AXIS2_PLACEMENT_3D('',#186,#187,#188);
#186 = CARTESIAN_POINT('',(0.,0.,0.));
#187 = DIRECTION('',(0.,0.,1.));
#188 = DIRECTION('',(1.,0.,-0.));
#189 = DEFINITIONAL_REPRESENTATION('',(#190),#194);
#190 = CIRCLE('',#191,65.);
#191 = AXIS2_PLACEMENT_2D('',#192,#193);
#192 = CARTESIAN_POINT('',(0.,0.));
#193 = DIRECTION('',(1.,0.));
#194 = ( GEOMETRIC_REPRESENTATION_CONTEXT(2) 
PARAMETRIC_REPRESENTATION_CONTEXT() REPRESENTATION_CONTEXT('2D SPACE',''
  ) );
#195 = FACE_BOUND('',#196,.T.);
#196 = EDGE_LOOP('',(#197));
#197 = ORIENTED_EDGE('',*,*,#198,.F.);
#198 = EDGE_CURVE('',#199,#199,#201,.T.);
#199 = VERTEX_POINT('',#200);
#200 = CARTESIAN_POINT('',(6.,64.722484501138,22.98));
#201 = SURFACE_CURVE('',#202,(#268,#337),.PCURVE_S1.);
#202 = B_SPLINE_CURVE_WITH_KNOTS('',8,(#203,#204,#205,#206,#207,#208,
    #209,#210,#211,#212,#213,#214,#215,#216,#217,#218,#219,#220,#221,
    #222,#223,#224,#225,#226,#227,#228,#229,#230,#231,#232,#233,#234,
    #235,#236,#237,#238,#239,#240,#241,#242,#243,#244,#245,#246,#247,
    #248,#249,#250,#251,#252,#253,#254,#255,#256,#257,#258,#259,#260,
    #261,#262,#263,#264,#265,#266,#267),.UNSPECIFIED.,.T.,.F.,(9,7,7,7,7
    ,7,7,7,7,9),(0.,0.129720200755,0.218385985992,0.298070918748,
    0.404327516317,0.499021734477,0.629059440511,0.728168046369,
    0.827806070996,1.),.UNSPECIFIED.);
#203 = CARTESIAN_POINT('',(6.,64.722484501138,22.98));
#204 = CARTESIAN_POINT('',(6.,64.722484501138,22.452175090269));
#205 = CARTESIAN_POINT('',(5.946933343199,64.72740389219,21.924987743274
    ));
#206 = CARTESIAN_POINT('',(5.841025499251,64.737222192452,
    21.401086075248));
#207 = CARTESIAN_POINT('',(5.681359231267,64.751777698242,
    20.883303744186));
#208 = CARTESIAN_POINT('',(5.466102271799,64.770754936725,20.37520181189
    ));
#209 = CARTESIAN_POINT('',(5.192678234513,64.793607312692,
    19.881476425087));
#210 = CARTESIAN_POINT('',(4.857998017342,64.819440852664,
    19.408494095887));
#211 = CARTESIAN_POINT('',(4.186057997386,64.86564341884,18.66222910051)
  );
#212 = CARTESIAN_POINT('',(3.881317624101,64.885279688248,
    18.371098753562));
#213 = CARTESIAN_POINT('',(3.54424950104,64.90528185706,18.096484865048)
  );
#214 = CARTESIAN_POINT('',(3.175017496772,64.925004059552,
    17.843203222853));
#215 = CARTESIAN_POINT('',(2.774348751738,64.943680150121,
    17.616224558891));
#216 = CARTESIAN_POINT('',(2.343577861392,64.960460722681,
    17.420697172781));
#217 = CARTESIAN_POINT('',(1.884734171148,64.974473464336,
    17.261993479014));
#218 = CARTESIAN_POINT('',(0.965640261166,64.994283437697,
    17.041338553627));
#219 = CARTESIAN_POINT('',(0.513516597019,65.000698396981,
    16.972002083823));
#220 = CARTESIAN_POINT('',(5.124671103186E-02,65.003547218499,
    16.942025159661));
#221 = CARTESIAN_POINT('',(-0.413633419398,65.002480485812,
    16.953455449746));
#222 = CARTESIAN_POINT('',(-0.873400937683,64.997514922803,
    17.00616666313));
#223 = CARTESIAN_POINT('',(-1.320546287373,64.989038958543,
    17.097880897882));
#224 = CARTESIAN_POINT('',(-1.748148949851,64.977733136616,
    17.22418154791));
#225 = CARTESIAN_POINT('',(-2.686336586964,64.946680783625,
    17.584318039913));
#226 = CARTESIAN_POINT('',(-3.178533547453,64.925327739876,
    17.840539442861));
#227 = CARTESIAN_POINT('',(-3.625312454213,64.901862645829,
    18.137209730907));
#228 = CARTESIAN_POINT('',(-4.026530746156,64.877648473335,
    18.466056309493));
#229 = CARTESIAN_POINT('',(-4.382890518544,64.85380091078,
    18.820144488664));
#230 = CARTESIAN_POINT('',(-4.69559691679,64.831178785389,
    19.193630269713));
#231 = CARTESIAN_POINT('',(-4.966138272449,64.810421364496,
    19.581603805294));
#232 = CARTESIAN_POINT('',(-5.401137436558,64.775535532307,
    20.335044458781));
#233 = CARTESIAN_POINT('',(-5.574590288695,64.760879073771,
    20.699502051899));
#234 = CARTESIAN_POINT('',(-5.717580407923,64.748320734331,
    21.071064921031));
#235 = CARTESIAN_POINT('',(-5.831016188435,64.738080788304,
    21.447879871747));
#236 = CARTESIAN_POINT('',(-5.915612272457,64.730307461465,
    21.828425094278));
#237 = CARTESIAN_POINT('',(-5.971859853469,64.725093238302,
    22.211400948529));
#238 = CARTESIAN_POINT('',(-6.,64.722484501138,22.59563481334));
#239 = CARTESIAN_POINT('',(-6.,64.722484501138,23.507824909731));
#240 = CARTESIAN_POINT('',(-5.946933343199,64.72740389219,
    24.035012256726));
#241 = CARTESIAN_POINT('',(-5.841025499251,64.737222192451,
    24.558913924752));
#242 = CARTESIAN_POINT('',(-5.681359231267,64.751777698242,
    25.076696255814));
#243 = CARTESIAN_POINT('',(-5.466102271798,64.770754936725,
    25.584798188111));
#244 = CARTESIAN_POINT('',(-5.192678234513,64.793607312692,
    26.078523574913));
#245 = CARTESIAN_POINT('',(-4.857998017341,64.819440852664,
    26.551505904113));
#246 = CARTESIAN_POINT('',(-4.15467160623,64.867801545714,
    27.332629018303));
#247 = CARTESIAN_POINT('',(-3.809707550318,64.889882686539,
    27.656918733503));
#248 = CARTESIAN_POINT('',(-3.423595708265,64.912388160801,
    27.960277452808));
#249 = CARTESIAN_POINT('',(-2.997057631688,64.934348387286,
    28.235338867534));
#250 = CARTESIAN_POINT('',(-2.531863947779,64.954613940199,
    28.474772390169));
#251 = CARTESIAN_POINT('',(-2.03085008296,64.971945510004,
    28.671275346804));
#252 = CARTESIAN_POINT('',(-1.498001263093,64.985144299718,
    28.817530663068));
#253 = CARTESIAN_POINT('',(-0.376224141632,65.001344567639,
    28.995202704619));
#254 = CARTESIAN_POINT('',(0.198757125575,65.004085040185,29.02374674274
    ));
#255 = CARTESIAN_POINT('',(0.774505495147,65.000843691347,
    28.988747630375));
#256 = CARTESIAN_POINT('',(1.338775819362,64.991639410206,
    28.890976320648));
#257 = CARTESIAN_POINT('',(1.87972704114,64.977262470169,28.734831770866
    ));
#258 = CARTESIAN_POINT('',(2.386808535458,64.959093509658,
    28.528204346015));
#259 = CARTESIAN_POINT('',(2.851518048142,64.938760406587,
    28.282382284412));
#260 = CARTESIAN_POINT('',(3.987309690475,64.881586895424,
    27.544790567591));
#261 = CARTESIAN_POINT('',(4.587007092868,64.842262796714,
    26.988196447097));
#262 = CARTESIAN_POINT('',(5.071351547016,64.804915505142,
    26.374671453106));
#263 = CARTESIAN_POINT('',(5.448249558432,64.772900862903,
    25.724820582046));
#264 = CARTESIAN_POINT('',(5.725165355207,64.747960612646,
    25.052712917504));
#265 = CARTESIAN_POINT('',(5.908037832133,64.731010132628,
    24.367398216642));
#266 = CARTESIAN_POINT('',(6.,64.722484501138,23.674841913666));
#267 = CARTESIAN_POINT('',(6.,64.722484501138,22.98));
#268 = PCURVE('',#93,#269);
#269 = DEFINITIONAL_REPRESENTATION('',(#270),#336);
#270 = B_SPLINE_CURVE_WITH_KNOTS('',8,(#271,#272,#273,#274,#275,#276,
    #277,#278,#279,#280,#281,#282,#283,#284,#285,#286,#287,#288,#289,
    #290,#291,#292,#293,#294,#295,#296,#297,#298,#299,#300,#301,#302,
    #303,#304,#305,#306,#307,#308,#309,#310,#311,#312,#313,#314,#315,
    #316,#317,#318,#319,#320,#321,#322,#323,#324,#325,#326,#327,#328,
    #329,#330,#331,#332,#333,#334,#335),.UNSPECIFIED.,.T.,.F.,(9,7,7,7,7
    ,7,7,7,7,9),(0.,0.129720200755,0.218385985992,0.298070918748,
    0.404327516317,0.499021734477,0.629059440511,0.728168046369,
    0.827806070996,1.),.UNSPECIFIED.);
#271 = CARTESIAN_POINT('',(1.478357041443,23.98));
#272 = CARTESIAN_POINT('',(1.478357041443,23.452175090269));
#273 = CARTESIAN_POINT('',(1.479176951793,22.924987743274));
#274 = CARTESIAN_POINT('',(1.48081329094,22.401086075248));
#275 = CARTESIAN_POINT('',(1.48327987605,21.883303744186));
#276 = CARTESIAN_POINT('',(1.486604334994,21.37520181189));
#277 = CARTESIAN_POINT('',(1.490825421506,20.881476425087));
#278 = CARTESIAN_POINT('',(1.495989482759,20.408494095887));
#279 = CARTESIAN_POINT('',(1.506351430298,19.66222910051));
#280 = CARTESIAN_POINT('',(1.511049421232,19.371098753562));
#281 = CARTESIAN_POINT('',(1.516244096619,19.096484865048));
#282 = CARTESIAN_POINT('',(1.521932471245,18.843203222853));
#283 = CARTESIAN_POINT('',(1.528102977115,18.616224558891));
#284 = CARTESIAN_POINT('',(1.534734880554,18.420697172781));
#285 = CARTESIAN_POINT('',(1.541797018782,18.261993479014));
#286 = CARTESIAN_POINT('',(1.555940209172,18.041338553627));
#287 = CARTESIAN_POINT('',(1.562896469618,17.972002083823));
#288 = CARTESIAN_POINT('',(1.570008063437,17.942025159661));
#289 = CARTESIAN_POINT('',(1.577159573585,17.953455449746));
#290 = CARTESIAN_POINT('',(1.584232849167,18.00616666313));
#291 = CARTESIAN_POINT('',(1.59111291936,18.097880897882));
#292 = CARTESIAN_POINT('',(1.597693575058,18.22418154791));
#293 = CARTESIAN_POINT('',(1.612135134834,18.584318039913));
#294 = CARTESIAN_POINT('',(1.619714118041,18.840539442861));
#295 = CARTESIAN_POINT('',(1.626596678672,19.137209730907));
#296 = CARTESIAN_POINT('',(1.632780190003,19.466056309493));
#297 = CARTESIAN_POINT('',(1.638274739988,19.820144488664));
#298 = CARTESIAN_POINT('',(1.643098099035,20.193630269713));
#299 = CARTESIAN_POINT('',(1.647272482399,20.581603805294));
#300 = CARTESIAN_POINT('',(1.653986263934,21.335044458781));
#301 = CARTESIAN_POINT('',(1.656664254755,21.699502051899));
#302 = CARTESIAN_POINT('',(1.658872554834,22.071064921031));
#303 = CARTESIAN_POINT('',(1.660624812296,22.447879871747));
#304 = CARTESIAN_POINT('',(1.661931773148,22.828425094278));
#305 = CARTESIAN_POINT('',(1.662800830231,23.211400948529));
#306 = CARTESIAN_POINT('',(1.663235612146,23.59563481334));
#307 = CARTESIAN_POINT('',(1.663235612146,24.507824909731));
#308 = CARTESIAN_POINT('',(1.662415701796,25.035012256726));
#309 = CARTESIAN_POINT('',(1.66077936265,25.558913924752));
#310 = CARTESIAN_POINT('',(1.65831277754,26.076696255814));
#311 = CARTESIAN_POINT('',(1.654988318596,26.584798188111));
#312 = CARTESIAN_POINT('',(1.650767232083,27.078523574913));
#313 = CARTESIAN_POINT('',(1.645603170831,27.551505904113));
#314 = CARTESIAN_POINT('',(1.634757215599,28.332629018303));
#315 = CARTESIAN_POINT('',(1.629439278598,28.656918733503));
#316 = CARTESIAN_POINT('',(1.623489170211,28.960277452808));
#317 = CARTESIAN_POINT('',(1.616918685081,29.235338867534));
#318 = CARTESIAN_POINT('',(1.609755581668,29.474772390169));
#319 = CARTESIAN_POINT('',(1.602043646794,29.671275346804));
#320 = CARTESIAN_POINT('',(1.593843899348,29.817530663068));
#321 = CARTESIAN_POINT('',(1.576583990205,29.995202704619));
#322 = CARTESIAN_POINT('',(1.567738435857,30.02374674274));
#323 = CARTESIAN_POINT('',(1.558881433852,29.988747630375));
#324 = CARTESIAN_POINT('',(1.550200141129,29.890976320648));
#325 = CARTESIAN_POINT('',(1.541875638742,29.734831770866));
#326 = CARTESIAN_POINT('',(1.534069786559,29.528204346015));
#327 = CARTESIAN_POINT('',(1.526913725617,29.282382284412));
#328 = CARTESIAN_POINT('',(1.509417883574,28.544790567591));
#329 = CARTESIAN_POINT('',(1.500173022348,27.988196447097));
#330 = CARTESIAN_POINT('',(1.492700024627,27.374671453106));
#331 = CARTESIAN_POINT('',(1.486880854578,26.724820582046));
#332 = CARTESIAN_POINT('',(1.482603398154,26.052712917504));
#333 = CARTESIAN_POINT('',(1.479777909992,25.367398216642));
#334 = CARTESIAN_POINT('',(1.478357041443,24.674841913666));
#335 = CARTESIAN_POINT('',(1.478357041443,23.98));
#336 = ( GEOMETRIC_REPRESENTATION_CONTEXT(2) 
PARAMETRIC_REPRESENTATION_CONTEXT() REPRESENTATION_CONTEXT('2D SPACE',''
  ) );
#337 = PCURVE('',#338,#343);
#338 = CYLINDRICAL_SURFACE('',#339,6.);
#339 = AXIS2_PLACEMENT_3D('',#340,#341,#342);
#340 = CARTESIAN_POINT('',(-4.102566777144E-15,-67.,22.98));
#341 = DIRECTION('',(6.123233995737E-17,1.,0.));
#342 = DIRECTION('',(1.,-6.123233995737E-17,0.));
#343 = DEFINITIONAL_REPRESENTATION('',(#344),#410);
#344 = B_SPLINE_CURVE_WITH_KNOTS('',8,(#345,#346,#347,#348,#349,#350,
    #351,#352,#353,#354,#355,#356,#357,#358,#359,#360,#361,#362,#363,
    #364,#365,#366,#367,#368,#369,#370,#371,#372,#373,#374,#375,#376,
    #377,#378,#379,#380,#381,#382,#383,#384,#385,#386,#387,#388,#389,
    #390,#391,#392,#393,#394,#395,#396,#397,#398,#399,#400,#401,#402,
    #403,#404,#405,#406,#407,#408,#409),.UNSPECIFIED.,.F.,.F.,(9,7,7,7,7
    ,7,7,7,7,9),(0.,0.129720200755,0.218385985992,0.298070918748,
    0.404327516317,0.499021734477,0.629059440511,0.728168046369,
    0.827806070996,1.),.UNSPECIFIED.);
#345 = CARTESIAN_POINT('',(0.,131.72248450113));
#346 = CARTESIAN_POINT('',(8.797081828843E-02,131.72248450113));
#347 = CARTESIAN_POINT('',(0.175835242517,131.72740389219));
#348 = CARTESIAN_POINT('',(0.26419008743,131.73722219245));
#349 = CARTESIAN_POINT('',(0.353588136074,131.75177769824));
#350 = CARTESIAN_POINT('',(0.444576137358,131.77075493672));
#351 = CARTESIAN_POINT('',(0.537716718453,131.79360731269));
#352 = CARTESIAN_POINT('',(0.633623447966,131.81944085266));
#353 = CARTESIAN_POINT('',(0.800989881756,131.86564341884));
#354 = CARTESIAN_POINT('',(0.871034036325,131.88527968824));
#355 = CARTESIAN_POINT('',(0.943114837612,131.90528185706));
#356 = CARTESIAN_POINT('',(1.017221377545,131.92500405955));
#357 = CARTESIAN_POINT('',(1.093383077022,131.94368015012));
#358 = CARTESIAN_POINT('',(1.171671324381,131.96046072268));
#359 = CARTESIAN_POINT('',(1.252207427251,131.97447346433));
#360 = CARTESIAN_POINT('',(1.409742450823,131.99428343769));
#361 = CARTESIAN_POINT('',(1.485712044796,132.00069839698));
#362 = CARTESIAN_POINT('',(1.56242642647,132.00354721849));
#363 = CARTESIAN_POINT('',(1.639316122439,132.00248048581));
#364 = CARTESIAN_POINT('',(1.715845356749,131.9975149228));
#365 = CARTESIAN_POINT('',(1.791460979741,131.98903895854));
#366 = CARTESIAN_POINT('',(1.865538267306,131.97773313661));
#367 = CARTESIAN_POINT('',(2.033027432403,131.94668078362));
#368 = CARTESIAN_POINT('',(2.124915415234,131.92532773987));
#369 = CARTESIAN_POINT('',(2.213487617179,131.90186264582));
#370 = CARTESIAN_POINT('',(2.299118791284,131.87764847333));
#371 = CARTESIAN_POINT('',(2.382124031084,131.85380091078));
#372 = CARTESIAN_POINT('',(2.462778405515,131.83117878538));
#373 = CARTESIAN_POINT('',(2.541322494572,131.81042136449));
#374 = CARTESIAN_POINT('',(2.686322215942,131.7755355323));
#375 = CARTESIAN_POINT('',(2.75338174299,131.76087907377));
#376 = CARTESIAN_POINT('',(2.81941363408,131.74832073433));
#377 = CARTESIAN_POINT('',(2.88463807205,131.7380807883));
#378 = CARTESIAN_POINT('',(2.949263185941,131.73030746146));
#379 = CARTESIAN_POINT('',(3.013492627967,131.7250932383));
#380 = CARTESIAN_POINT('',(3.077531789146,131.72248450113));
#381 = CARTESIAN_POINT('',(3.229563471878,131.72248450113));
#382 = CARTESIAN_POINT('',(3.317427896106,131.72740389219));
#383 = CARTESIAN_POINT('',(3.40578274102,131.73722219245));
#384 = CARTESIAN_POINT('',(3.495180789664,131.75177769824));
#385 = CARTESIAN_POINT('',(3.586168790948,131.77075493672));
#386 = CARTESIAN_POINT('',(3.679309372042,131.79360731269));
#387 = CARTESIAN_POINT('',(3.775216101556,131.81944085266));
#388 = CARTESIAN_POINT('',(3.950400239607,131.86780154571));
#389 = CARTESIAN_POINT('',(4.029037481612,131.88988268653));
#390 = CARTESIAN_POINT('',(4.110332142912,131.9123881608));
#391 = CARTESIAN_POINT('',(4.194168688699,131.93434838728));
#392 = CARTESIAN_POINT('',(4.280508749296,131.95461394019));
#393 = CARTESIAN_POINT('',(4.369386148353,131.97194551));
#394 = CARTESIAN_POINT('',(4.460914781818,131.98514429971));
#395 = CARTESIAN_POINT('',(4.650208150883,132.00134456763));
#396 = CARTESIAN_POINT('',(4.745602545602,132.00408504018));
#397 = CARTESIAN_POINT('',(4.840769778252,132.00084369134));
#398 = CARTESIAN_POINT('',(4.935070685517,131.9916394102));
#399 = CARTESIAN_POINT('',(5.027846604377,131.97726247016));
#400 = CARTESIAN_POINT('',(5.118343594478,131.95909350965));
#401 = CARTESIAN_POINT('',(5.205614281923,131.93876040658));
#402 = CARTESIAN_POINT('',(5.431326992361,131.88158689542));
#403 = CARTESIAN_POINT('',(5.565676215742,131.84226279671));
#404 = CARTESIAN_POINT('',(5.69351857605,131.80491550514));
#405 = CARTESIAN_POINT('',(5.8163080337,131.7729008629));
#406 = CARTESIAN_POINT('',(5.935368854723,131.74796061264));
#407 = CARTESIAN_POINT('',(6.051951771592,131.73101013262));
#408 = CARTESIAN_POINT('',(6.167378321569,131.72248450113));
#409 = CARTESIAN_POINT('',(6.28318530718,131.72248450113));
#410 = ( GEOMETRIC_REPRESENTATION_CONTEXT(2) 
PARAMETRIC_REPRESENTATION_CONTEXT() REPRESENTATION_CONTEXT('2D SPACE',''
  ) );
#411 = FACE_BOUND('',#412,.T.);
#412 = EDGE_LOOP('',(#413));
#413 = ORIENTED_EDGE('',*,*,#414,.T.);
#414 = EDGE_CURVE('',#415,#415,#417,.T.);
#415 = VERTEX_POINT('',#416);
#416 = CARTESIAN_POINT('',(6.,-64.72248450113,22.98));
#417 = SURFACE_CURVE('',#418,(#481,#547),.PCURVE_S1.);
#418 = B_SPLINE_CURVE_WITH_KNOTS('',7,(#419,#420,#421,#422,#423,#424,
    #425,#426,#427,#428,#429,#430,#431,#432,#433,#434,#435,#436,#437,
    #438,#439,#440,#441,#442,#443,#444,#445,#446,#447,#448,#449,#450,
    #451,#452,#453,#454,#455,#456,#457,#458,#459,#460,#461,#462,#463,
    #464,#465,#466,#467,#468,#469,#470,#471,#472,#473,#474,#475,#476,
    #477,#478,#479,#480),.UNSPECIFIED.,.T.,.F.,(8,6,6,6,6,6,6,6,6,6,8),(
    0.,0.129837904508,0.218584144383,0.298341383973,0.404694399747,
    0.499474544304,0.629630247736,0.718593707314,0.798546165526,
    0.891595984095,1.),.UNSPECIFIED.);
#419 = CARTESIAN_POINT('',(6.,-64.72248450113,22.98));
#420 = CARTESIAN_POINT('',(6.,-64.72248450113,22.37677153724));
#421 = CARTESIAN_POINT('',(5.929244453726,-64.72904368949,
    21.774393125985));
#422 = CARTESIAN_POINT('',(5.788094136845,-64.74212929347,21.17710186953
    ));
#423 = CARTESIAN_POINT('',(5.574624320438,-64.76142610337,
    20.589505619719));
#424 = CARTESIAN_POINT('',(5.285232173957,-64.78630299354,
    20.018028757553));
#425 = CARTESIAN_POINT('',(4.91501645084,-64.81552026768,19.471819481706
    ));
#426 = CARTESIAN_POINT('',(4.147084998657,-64.86832320051,
    18.618945200381));
#427 = CARTESIAN_POINT('',(3.792728512996,-64.89093185018,18.28848328051
    ));
#428 = CARTESIAN_POINT('',(3.395162090999,-64.9138918611,17.981285817817
    ));
#429 = CARTESIAN_POINT('',(2.954872881453,-64.93611625885,
    17.705120616169));
#430 = CARTESIAN_POINT('',(2.473475206589,-64.95628663574,
    17.468064459682));
#431 = CARTESIAN_POINT('',(1.953885874348,-64.97298298182,
    17.278595334106));
#432 = CARTESIAN_POINT('',(0.903492843743,-64.99562295117,
    17.026418278772));
#433 = CARTESIAN_POINT('',(0.383524514776,-65.00239021224,
    16.953863352173));
#434 = CARTESIAN_POINT('',(-0.148119971212,-65.00424142224,
    16.934922244154));
#435 = CARTESIAN_POINT('',(-0.679146867584,-65.00071954937,
    16.971988655339));
#436 = CARTESIAN_POINT('',(-1.197157721184,-64.99217387851,
    17.063130009449));
#437 = CARTESIAN_POINT('',(-1.690711985934,-64.97963419863,
    17.202133563181));
#438 = CARTESIAN_POINT('',(-2.76292642835,-64.94414579521,17.61371812547
    ));
#439 = CARTESIAN_POINT('',(-3.317069253819,-64.91905505476,
    17.916146548657));
#440 = CARTESIAN_POINT('',(-3.810258374451,-64.89154720046,
    18.269847640256));
#441 = CARTESIAN_POINT('',(-4.242803117863,-64.8637497462,
    18.662264978731));
#442 = CARTESIAN_POINT('',(-4.616369519678,-64.83721951841,
    19.083277005218));
#443 = CARTESIAN_POINT('',(-4.933279108126,-64.81305658632,
    19.524690063193));
#444 = CARTESIAN_POINT('',(-5.430421009965,-64.77318706382,
    20.385765095749));
#445 = CARTESIAN_POINT('',(-5.622646714938,-64.75677641042,
    20.804081037283));
#446 = CARTESIAN_POINT('',(-5.774540623714,-64.74324732867,
    21.231255251281));
#447 = CARTESIAN_POINT('',(-5.887491753156,-64.73291424793,
    21.664504492214));
#448 = CARTESIAN_POINT('',(-5.962479804625,-64.72596281735,
    22.101626097718));
#449 = CARTESIAN_POINT('',(-6.,-64.72248450113,22.54072550096));
#450 = CARTESIAN_POINT('',(-6.,-64.72248450113,23.583228468263));
#451 = CARTESIAN_POINT('',(-5.929244457599,-64.7290436892,
    24.185606852883));
#452 = CARTESIAN_POINT('',(-5.788094124242,-64.74212929439,
    24.782898167872));
#453 = CARTESIAN_POINT('',(-5.574624338291,-64.76142610208,
    25.370494343756));
#454 = CARTESIAN_POINT('',(-5.285232160977,-64.78630299445,
    25.941971262037));
#455 = CARTESIAN_POINT('',(-4.915016455123,-64.81552026739,
    26.488180513536));
#456 = CARTESIAN_POINT('',(-4.147084998657,-64.86832320051,
    27.341054799618));
#457 = CARTESIAN_POINT('',(-3.792728512996,-64.89093185018,
    27.67151671949));
#458 = CARTESIAN_POINT('',(-3.395162090999,-64.9138918611,
    27.978714182183));
#459 = CARTESIAN_POINT('',(-2.954872881453,-64.93611625885,
    28.254879383831));
#460 = CARTESIAN_POINT('',(-2.473475206589,-64.95628663574,
    28.491935540319));
#461 = CARTESIAN_POINT('',(-1.953885874348,-64.97298298182,
    28.681404665894));
#462 = CARTESIAN_POINT('',(-0.903492838507,-64.99562295129,
    28.933581722485));
#463 = CARTESIAN_POINT('',(-0.383524526916,-65.0023902119,
    29.006136643909));
#464 = CARTESIAN_POINT('',(0.148119978699,-65.00424142282,
    29.025077762441));
#465 = CARTESIAN_POINT('',(0.679146873826,-65.00071954873,28.98801133732
    ));
#466 = CARTESIAN_POINT('',(1.197157710539,-64.99217387895,
    28.896869995647));
#467 = CARTESIAN_POINT('',(1.690711990381,-64.97963419848,
    28.757866435112));
#468 = CARTESIAN_POINT('',(2.684975396925,-64.94672583661,
    28.376204471988));
#469 = CARTESIAN_POINT('',(3.175603423019,-64.92534552589,
    28.119531275001));
#470 = CARTESIAN_POINT('',(3.620198705936,-64.90186956809,
    27.821973114946));
#471 = CARTESIAN_POINT('',(4.018471671735,-64.87775014151,
    27.492247043718));
#472 = CARTESIAN_POINT('',(4.371085421804,-64.85413727283,27.13772655139
    ));
#473 = CARTESIAN_POINT('',(4.679292798977,-64.83189878766,
    26.764690422498));
#474 = CARTESIAN_POINT('',(5.254025867476,-64.78804994811,
    25.928448618756));
#475 = CARTESIAN_POINT('',(5.506738277536,-64.76703746386,
    25.458401891041));
#476 = CARTESIAN_POINT('',(5.705682832244,-64.749533847,24.974693400859)
  );
#477 = CARTESIAN_POINT('',(5.853214496831,-64.73609149407,24.48186886955
    ));
#478 = CARTESIAN_POINT('',(5.951032768962,-64.72702414946,
    23.983318982517));
#479 = CARTESIAN_POINT('',(6.,-64.72248450113,23.48183148951));
#480 = CARTESIAN_POINT('',(6.,-64.72248450113,22.98));
#481 = PCURVE('',#93,#482);
#482 = DEFINITIONAL_REPRESENTATION('',(#483),#546);
#483 = B_SPLINE_CURVE_WITH_KNOTS('',7,(#484,#485,#486,#487,#488,#489,
    #490,#491,#492,#493,#494,#495,#496,#497,#498,#499,#500,#501,#502,
    #503,#504,#505,#506,#507,#508,#509,#510,#511,#512,#513,#514,#515,
    #516,#517,#518,#519,#520,#521,#522,#523,#524,#525,#526,#527,#528,
    #529,#530,#531,#532,#533,#534,#535,#536,#537,#538,#539,#540,#541,
    #542,#543,#544,#545),.UNSPECIFIED.,.F.,.F.,(8,6,6,6,6,6,6,6,6,6,8),(
    0.,0.129837904508,0.218584144383,0.298341383973,0.404694399747,
    0.499474544304,0.629630247736,0.718593707314,0.798546165526,
    0.891595984095,1.),.UNSPECIFIED.);
#484 = CARTESIAN_POINT('',(4.804828265736,23.98));
#485 = CARTESIAN_POINT('',(4.804828265736,23.37677153724));
#486 = CARTESIAN_POINT('',(4.803735051876,22.774393125985));
#487 = CARTESIAN_POINT('',(4.801554195016,22.17710186953));
#488 = CARTESIAN_POINT('',(4.798256667162,21.589505619719));
#489 = CARTESIAN_POINT('',(4.793788146965,21.018028757553));
#490 = CARTESIAN_POINT('',(4.788075102332,20.471819481706));
#491 = CARTESIAN_POINT('',(4.77623287656,19.618945200381));
#492 = CARTESIAN_POINT('',(4.770770222622,19.28848328051));
#493 = CARTESIAN_POINT('',(4.76464380328,18.981285817817));
#494 = CARTESIAN_POINT('',(4.757861868264,18.705120616169));
#495 = CARTESIAN_POINT('',(4.750449766468,18.468064459682));
#496 = CARTESIAN_POINT('',(4.742452407846,18.278595334106));
#497 = CARTESIAN_POINT('',(4.726288761829,18.026418278772));
#498 = CARTESIAN_POINT('',(4.718288862805,17.953863352173));
#499 = CARTESIAN_POINT('',(4.710110272305,17.934922244154));
#500 = CARTESIAN_POINT('',(4.701941194885,17.971988655339));
#501 = CARTESIAN_POINT('',(4.693971229893,18.063130009449));
#502 = CARTESIAN_POINT('',(4.686375861602,18.202133563181));
#503 = CARTESIAN_POINT('',(4.669871221858,18.61371812547));
#504 = CARTESIAN_POINT('',(4.661337844899,18.916146548657));
#505 = CARTESIAN_POINT('',(4.653739098672,19.269847640256));
#506 = CARTESIAN_POINT('',(4.647071135682,19.662264978731));
#507 = CARTESIAN_POINT('',(4.641309619707,20.083277005218));
#508 = CARTESIAN_POINT('',(4.636419973458,20.524690063193));
#509 = CARTESIAN_POINT('',(4.628747080275,21.385765095749));
#510 = CARTESIAN_POINT('',(4.625779043141,21.804081037283));
#511 = CARTESIAN_POINT('',(4.623432977868,22.231255251281));
#512 = CARTESIAN_POINT('',(4.621688011898,22.664504492214));
#513 = CARTESIAN_POINT('',(4.620529404254,23.101626097718));
#514 = CARTESIAN_POINT('',(4.619949695033,23.54072550096));
#515 = CARTESIAN_POINT('',(4.619949695033,24.583228468263));
#516 = CARTESIAN_POINT('',(4.621042908833,25.185606852883));
#517 = CARTESIAN_POINT('',(4.623223765948,25.782898167872));
#518 = CARTESIAN_POINT('',(4.626521293332,26.370494343756));
#519 = CARTESIAN_POINT('',(4.630989814004,26.941971262037));
#520 = CARTESIAN_POINT('',(4.636702858372,27.488180513536));
#521 = CARTESIAN_POINT('',(4.64854508421,28.341054799618));
#522 = CARTESIAN_POINT('',(4.654007738147,28.67151671949));
#523 = CARTESIAN_POINT('',(4.660134157489,28.978714182183));
#524 = CARTESIAN_POINT('',(4.666916092506,29.254879383831));
#525 = CARTESIAN_POINT('',(4.674328194302,29.491935540319));
#526 = CARTESIAN_POINT('',(4.682325552924,29.681404665894));
#527 = CARTESIAN_POINT('',(4.69848919902,29.933581722485));
#528 = CARTESIAN_POINT('',(4.706489097777,30.006136643909));
#529 = CARTESIAN_POINT('',(4.714667688579,30.025077762441));
#530 = CARTESIAN_POINT('',(4.722836765981,29.98801133732));
#531 = CARTESIAN_POINT('',(4.730806730713,29.896869995647));
#532 = CARTESIAN_POINT('',(4.738402099236,29.757866435112));
#533 = CARTESIAN_POINT('',(4.753706835571,29.376204471988));
#534 = CARTESIAN_POINT('',(4.761261708684,29.119531275001));
#535 = CARTESIAN_POINT('',(4.768110752739,28.821973114946));
#536 = CARTESIAN_POINT('',(4.774249004957,28.492247043718));
#537 = CARTESIAN_POINT('',(4.779685858285,28.13772655139));
#538 = CARTESIAN_POINT('',(4.784439797292,27.764690422498));
#539 = CARTESIAN_POINT('',(4.793307541123,26.928448618756));
#540 = CARTESIAN_POINT('',(4.797208751389,26.458401891041));
#541 = CARTESIAN_POINT('',(4.800281226609,25.974693400859));
#542 = CARTESIAN_POINT('',(4.802560347209,25.48186886955));
#543 = CARTESIAN_POINT('',(4.804071692367,24.983318982517));
#544 = CARTESIAN_POINT('',(4.804828265736,24.48183148951));
#545 = CARTESIAN_POINT('',(4.804828265736,23.98));
#546 = ( GEOMETRIC_REPRESENTATION_CONTEXT(2) 
PARAMETRIC_REPRESENTATION_CONTEXT() REPRESENTATION_CONTEXT('2D SPACE',''
  ) );
#547 = PCURVE('',#548,#553);
#548 = CYLINDRICAL_SURFACE('',#549,6.);
#549 = AXIS2_PLACEMENT_3D('',#550,#551,#552);
#550 = CARTESIAN_POINT('',(-4.102566777144E-15,-67.,22.98));
#551 = DIRECTION('',(6.123233995737E-17,1.,0.));
#552 = DIRECTION('',(1.,-6.123233995737E-17,0.));
#553 = DEFINITIONAL_REPRESENTATION('',(#554),#617);
#554 = B_SPLINE_CURVE_WITH_KNOTS('',7,(#555,#556,#557,#558,#559,#560,
    #561,#562,#563,#564,#565,#566,#567,#568,#569,#570,#571,#572,#573,
    #574,#575,#576,#577,#578,#579,#580,#581,#582,#583,#584,#585,#586,
    #587,#588,#589,#590,#591,#592,#593,#594,#595,#596,#597,#598,#599,
    #600,#601,#602,#603,#604,#605,#606,#607,#608,#609,#610,#611,#612,
    #613,#614,#615,#616),.UNSPECIFIED.,.F.,.F.,(8,6,6,6,6,6,6,6,6,6,8),(
    0.,0.129837904508,0.218584144383,0.298341383973,0.404694399747,
    0.499474544304,0.629630247736,0.718593707314,0.798546165526,
    0.891595984095,1.),.UNSPECIFIED.);
#555 = CARTESIAN_POINT('',(0.,2.277515498862));
#556 = CARTESIAN_POINT('',(0.100538077127,2.277515498862));
#557 = CARTESIAN_POINT('',(0.200934301072,2.270956310507));
#558 = CARTESIAN_POINT('',(0.302143554547,2.257870706523));
#559 = CARTESIAN_POINT('',(0.40503271779,2.23857389663));
#560 = CARTESIAN_POINT('',(0.510481844459,2.213697006458));
#561 = CARTESIAN_POINT('',(0.619421329337,2.184479732311));
#562 = CARTESIAN_POINT('',(0.810697253869,2.131676799484));
#563 = CARTESIAN_POINT('',(0.891146294287,2.109068149812));
#564 = CARTESIAN_POINT('',(0.974295963846,2.086108138897));
#565 = CARTESIAN_POINT('',(1.060146795405,2.063883741147));
#566 = CARTESIAN_POINT('',(1.148776879384,2.043713364257));
#567 = CARTESIAN_POINT('',(1.240354650211,2.027017018174));
#568 = CARTESIAN_POINT('',(1.420394675544,2.004377048821));
#569 = CARTESIAN_POINT('',(1.507484501214,1.997609787751));
#570 = CARTESIAN_POINT('',(1.595391581623,1.995758577751));
#571 = CARTESIAN_POINT('',(1.683240663256,1.999280450624));
#572 = CARTESIAN_POINT('',(1.770186512572,2.007826121485));
#573 = CARTESIAN_POINT('',(1.855284381248,2.02036580137));
#574 = CARTESIAN_POINT('',(2.046700569931,2.055854204789));
#575 = CARTESIAN_POINT('',(2.150987030335,2.080944945236));
#576 = CARTESIAN_POINT('',(2.250987969286,2.108452799532));
#577 = CARTESIAN_POINT('',(2.347249613283,2.136250253798));
#578 = CARTESIAN_POINT('',(2.440248060753,2.162780481589));
#579 = CARTESIAN_POINT('',(2.530369439798,2.186943413676));
#580 = CARTESIAN_POINT('',(2.696083407078,2.226812936177));
#581 = CARTESIAN_POINT('',(2.772481188294,2.24322358958));
#582 = CARTESIAN_POINT('',(2.847573101552,2.256752671323));
#583 = CARTESIAN_POINT('',(2.921703042548,2.267085752069));
#584 = CARTESIAN_POINT('',(2.995196758262,2.274037182644));
#585 = CARTESIAN_POINT('',(3.068380237083,2.277515498862));
#586 = CARTESIAN_POINT('',(3.242130731634,2.277515498862));
#587 = CARTESIAN_POINT('',(3.342526950931,2.270956310793));
#588 = CARTESIAN_POINT('',(3.443736215073,2.257870705602));
#589 = CARTESIAN_POINT('',(3.546625364256,2.238573897915));
#590 = CARTESIAN_POINT('',(3.652074502103,2.213697005542));
#591 = CARTESIAN_POINT('',(3.76101398186,2.184479732606));
#592 = CARTESIAN_POINT('',(3.952289907458,2.131676799484));
#593 = CARTESIAN_POINT('',(4.032738947877,2.109068149812));
#594 = CARTESIAN_POINT('',(4.115888617435,2.086108138897));
#595 = CARTESIAN_POINT('',(4.201739448995,2.063883741147));
#596 = CARTESIAN_POINT('',(4.290369532974,2.043713364257));
#597 = CARTESIAN_POINT('',(4.381947303801,2.027017018174));
#598 = CARTESIAN_POINT('',(4.561987330031,2.004377048708));
#599 = CARTESIAN_POINT('',(4.649077152746,1.997609788099));
#600 = CARTESIAN_POINT('',(4.736984236437,1.995758577171));
#601 = CARTESIAN_POINT('',(4.824833317995,1.999280451265));
#602 = CARTESIAN_POINT('',(4.911779164267,2.007826121043));
#603 = CARTESIAN_POINT('',(4.996877035631,2.020365801518));
#604 = CARTESIAN_POINT('',(5.174377080677,2.05327416339));
#605 = CARTESIAN_POINT('',(5.266047850377,2.074654474101));
#606 = CARTESIAN_POINT('',(5.354418742854,2.09813043191));
#607 = CARTESIAN_POINT('',(5.439838947186,2.122249858481));
#608 = CARTESIAN_POINT('',(5.522599921586,2.145862727167));
#609 = CARTESIAN_POINT('',(5.602933070697,2.168101212336));
#610 = CARTESIAN_POINT('',(5.772049931538,2.211950051887));
#611 = CARTESIAN_POINT('',(5.860469950195,2.232962536132));
#612 = CARTESIAN_POINT('',(5.946918256447,2.250466152992));
#613 = CARTESIAN_POINT('',(6.031919778539,2.26390850593));
#614 = CARTESIAN_POINT('',(6.115964818751,2.272975850534));
#615 = CARTESIAN_POINT('',(6.199546725595,2.277515498862));
#616 = CARTESIAN_POINT('',(6.28318530718,2.277515498862));
#617 = ( GEOMETRIC_REPRESENTATION_CONTEXT(2) 
PARAMETRIC_REPRESENTATION_CONTEXT() REPRESENTATION_CONTEXT('2D SPACE',''
  ) );
#618 = ADVANCED_FACE('',(#619),#129,.F.);
#619 = FACE_BOUND('',#620,.F.);
#620 = EDGE_LOOP('',(#621,#622,#645,#672));
#621 = ORIENTED_EDGE('',*,*,#112,.F.);
#622 = ORIENTED_EDGE('',*,*,#623,.F.);
#623 = EDGE_CURVE('',#624,#113,#626,.T.);
#624 = VERTEX_POINT('',#625);
#625 = CARTESIAN_POINT('',(40.,-9.797174393179E-15,81.));
#626 = SEAM_CURVE('',#627,(#631,#638),.PCURVE_S1.);
#627 = LINE('',#628,#629);
#628 = CARTESIAN_POINT('',(40.,-9.797174393179E-15,81.));
#629 = VECTOR('',#630,1.);
#630 = DIRECTION('',(0.,0.,1.));
#631 = PCURVE('',#129,#632);
#632 = DEFINITIONAL_REPRESENTATION('',(#633),#637);
#633 = LINE('',#634,#635);
#634 = CARTESIAN_POINT('',(6.28318530718,-0.));
#635 = VECTOR('',#636,1.);
#636 = DIRECTION('',(0.,1.));
#637 = ( GEOMETRIC_REPRESENTATION_CONTEXT(2) 
PARAMETRIC_REPRESENTATION_CONTEXT() REPRESENTATION_CONTEXT('2D SPACE',''
  ) );
#638 = PCURVE('',#129,#639);
#639 = DEFINITIONAL_REPRESENTATION('',(#640),#644);
#640 = LINE('',#641,#642);
#641 = CARTESIAN_POINT('',(0.,-0.));
#642 = VECTOR('',#643,1.);
#643 = DIRECTION('',(0.,1.));
#644 = ( GEOMETRIC_REPRESENTATION_CONTEXT(2) 
PARAMETRIC_REPRESENTATION_CONTEXT() REPRESENTATION_CONTEXT('2D SPACE',''
  ) );
#645 = ORIENTED_EDGE('',*,*,#646,.T.);
#646 = EDGE_CURVE('',#624,#624,#647,.T.);
#647 = SURFACE_CURVE('',#648,(#653,#660),.PCURVE_S1.);
#648 = CIRCLE('',#649,40.);
#649 = AXIS2_PLACEMENT_3D('',#650,#651,#652);
#650 = CARTESIAN_POINT('',(0.,0.,81.));
#651 = DIRECTION('',(0.,0.,1.));
#652 = DIRECTION('',(1.,0.,-0.));
#653 = PCURVE('',#129,#654);
#654 = DEFINITIONAL_REPRESENTATION('',(#655),#659);
#655 = LINE('',#656,#657);
#656 = CARTESIAN_POINT('',(0.,0.));
#657 = VECTOR('',#658,1.);
#658 = DIRECTION('',(1.,0.));
#659 = ( GEOMETRIC_REPRESENTATION_CONTEXT(2) 
PARAMETRIC_REPRESENTATION_CONTEXT() REPRESENTATION_CONTEXT('2D SPACE',''
  ) );
#660 = PCURVE('',#661,#666);
#661 = PLANE('',#662);
#662 = AXIS2_PLACEMENT_3D('',#663,#664,#665);
#663 = CARTESIAN_POINT('',(0.,0.,81.));
#664 = DIRECTION('',(0.,0.,1.));
#665 = DIRECTION('',(1.,0.,-0.));
#666 = DEFINITIONAL_REPRESENTATION('',(#667),#671);
#667 = CIRCLE('',#668,40.);
#668 = AXIS2_PLACEMENT_2D('',#669,#670);
#669 = CARTESIAN_POINT('',(0.,0.));
#670 = DIRECTION('',(1.,0.));
#671 = ( GEOMETRIC_REPRESENTATION_CONTEXT(2) 
PARAMETRIC_REPRESENTATION_CONTEXT() REPRESENTATION_CONTEXT('2D SPACE',''
  ) );
#672 = ORIENTED_EDGE('',*,*,#623,.T.);
#673 = ADVANCED_FACE('',(#674,#677),#184,.F.);
#674 = FACE_BOUND('',#675,.F.);
#675 = EDGE_LOOP('',(#676));
#676 = ORIENTED_EDGE('',*,*,#169,.T.);
#677 = FACE_BOUND('',#678,.F.);
#678 = EDGE_LOOP('',(#679));
#679 = ORIENTED_EDGE('',*,*,#680,.F.);
#680 = EDGE_CURVE('',#681,#681,#683,.T.);
#681 = VERTEX_POINT('',#682);
#682 = CARTESIAN_POINT('',(47.5,-1.16341445919E-14,0.));
#683 = SURFACE_CURVE('',#684,(#689,#696),.PCURVE_S1.);
#684 = CIRCLE('',#685,47.5);
#685 = AXIS2_PLACEMENT_3D('',#686,#687,#688);
#686 = CARTESIAN_POINT('',(0.,0.,0.));
#687 = DIRECTION('',(0.,0.,1.));
#688 = DIRECTION('',(1.,0.,-0.));
#689 = PCURVE('',#184,#690);
#690 = DEFINITIONAL_REPRESENTATION('',(#691),#695);
#691 = CIRCLE('',#692,47.5);
#692 = AXIS2_PLACEMENT_2D('',#693,#694);
#693 = CARTESIAN_POINT('',(0.,0.));
#694 = DIRECTION('',(1.,0.));
#695 = ( GEOMETRIC_REPRESENTATION_CONTEXT(2) 
PARAMETRIC_REPRESENTATION_CONTEXT() REPRESENTATION_CONTEXT('2D SPACE',''
  ) );
#696 = PCURVE('',#697,#702);
#697 = CYLINDRICAL_SURFACE('',#698,47.5);
#698 = AXIS2_PLACEMENT_3D('',#699,#700,#701);
#699 = CARTESIAN_POINT('',(0.,0.,-1.));
#700 = DIRECTION('',(0.,0.,1.));
#701 = DIRECTION('',(1.,0.,-0.));
#702 = DEFINITIONAL_REPRESENTATION('',(#703),#707);
#703 = LINE('',#704,#705);
#704 = CARTESIAN_POINT('',(0.,1.));
#705 = VECTOR('',#706,1.);
#706 = DIRECTION('',(1.,0.));
#707 = ( GEOMETRIC_REPRESENTATION_CONTEXT(2) 
PARAMETRIC_REPRESENTATION_CONTEXT() REPRESENTATION_CONTEXT('2D SPACE',''
  ) );
#708 = ADVANCED_FACE('',(#709),#338,.F.);
#709 = FACE_BOUND('',#710,.F.);
#710 = EDGE_LOOP('',(#711,#712,#735,#942));
#711 = ORIENTED_EDGE('',*,*,#198,.F.);
#712 = ORIENTED_EDGE('',*,*,#713,.F.);
#713 = EDGE_CURVE('',#714,#199,#716,.T.);
#714 = VERTEX_POINT('',#715);
#715 = CARTESIAN_POINT('',(6.,47.119528860123,22.98));
#716 = SEAM_CURVE('',#717,(#721,#728),.PCURVE_S1.);
#717 = LINE('',#718,#719);
#718 = CARTESIAN_POINT('',(6.,-67.,22.98));
#719 = VECTOR('',#720,1.);
#720 = DIRECTION('',(6.123233995737E-17,1.,0.));
#721 = PCURVE('',#338,#722);
#722 = DEFINITIONAL_REPRESENTATION('',(#723),#727);
#723 = LINE('',#724,#725);
#724 = CARTESIAN_POINT('',(6.28318530718,-0.));
#725 = VECTOR('',#726,1.);
#726 = DIRECTION('',(0.,1.));
#727 = ( GEOMETRIC_REPRESENTATION_CONTEXT(2) 
PARAMETRIC_REPRESENTATION_CONTEXT() REPRESENTATION_CONTEXT('2D SPACE',''
  ) );
#728 = PCURVE('',#338,#729);
#729 = DEFINITIONAL_REPRESENTATION('',(#730),#734);
#730 = LINE('',#731,#732);
#731 = CARTESIAN_POINT('',(0.,-0.));
#732 = VECTOR('',#733,1.);
#733 = DIRECTION('',(0.,1.));
#734 = ( GEOMETRIC_REPRESENTATION_CONTEXT(2) 
PARAMETRIC_REPRESENTATION_CONTEXT() REPRESENTATION_CONTEXT('2D SPACE',''
  ) );
#735 = ORIENTED_EDGE('',*,*,#736,.T.);
#736 = EDGE_CURVE('',#714,#714,#737,.T.);
#737 = SURFACE_CURVE('',#738,(#804,#873),.PCURVE_S1.);
#738 = B_SPLINE_CURVE_WITH_KNOTS('',8,(#739,#740,#741,#742,#743,#744,
    #745,#746,#747,#748,#749,#750,#751,#752,#753,#754,#755,#756,#757,
    #758,#759,#760,#761,#762,#763,#764,#765,#766,#767,#768,#769,#770,
    #771,#772,#773,#774,#775,#776,#777,#778,#779,#780,#781,#782,#783,
    #784,#785,#786,#787,#788,#789,#790,#791,#792,#793,#794,#795,#796,
    #797,#798,#799,#800,#801,#802,#803),.UNSPECIFIED.,.T.,.F.,(9,7,7,7,7
    ,7,7,7,7,9),(0.,0.129201330416,0.227725804914,0.326747286961,
    0.426200203107,0.497979831358,0.628244410512,0.727579681794,
    0.827416051241,1.),.UNSPECIFIED.);
#739 = CARTESIAN_POINT('',(6.,47.119528860123,22.98));
#740 = CARTESIAN_POINT('',(6.,47.119528860123,22.451908508038));
#741 = CARTESIAN_POINT('',(5.946879720951,47.126292876895,
    21.924461158826));
#742 = CARTESIAN_POINT('',(5.840867091313,47.139792421614,
    21.400358683268));
#743 = CARTESIAN_POINT('',(5.681072314662,47.159798753791,
    20.882481174651));
#744 = CARTESIAN_POINT('',(5.465710778766,47.185866013913,
    20.374417418366));
#745 = CARTESIAN_POINT('',(5.192264038628,47.217229606202,
    19.880864952207));
#746 = CARTESIAN_POINT('',(4.857699440371,47.252653216654,
    19.408162492568));
#747 = CARTESIAN_POINT('',(4.154734590864,47.318933847905,18.62744093322
    ));
#748 = CARTESIAN_POINT('',(3.809896136909,47.34919246439,18.30326669934)
  );
#749 = CARTESIAN_POINT('',(3.423954297297,47.380020437356,
    18.000010916175));
#750 = CARTESIAN_POINT('',(2.997587198392,47.410093779892,
    17.724995908868));
#751 = CARTESIAN_POINT('',(2.532512850115,47.437844209856,
    17.485532099231));
#752 = CARTESIAN_POINT('',(2.031500676144,47.461579990477,
    17.288928590962));
#753 = CARTESIAN_POINT('',(1.498456676756,47.479660718193,
    17.142541467371));
#754 = CARTESIAN_POINT('',(0.375932736218,47.501846283473,
    16.964751141298));
#755 = CARTESIAN_POINT('',(-0.199284121401,47.505592142137,
    16.936234589449));
#756 = CARTESIAN_POINT('',(-0.77519613305,47.501146352996,
    16.971312381391));
#757 = CARTESIAN_POINT('',(-1.339552349117,47.488540082508,
    17.069185137388));
#758 = CARTESIAN_POINT('',(-1.880502698994,47.46885406295,
    17.225428224924));
#759 = CARTESIAN_POINT('',(-2.387476897261,47.443976216014,
    17.432115974033));
#760 = CARTESIAN_POINT('',(-2.851940959482,47.416138840055,
    17.677892357423));
#761 = CARTESIAN_POINT('',(-3.685539497098,47.358653972058,
    18.219237577429));
#762 = CARTESIAN_POINT('',(-4.062919949104,47.328401849317,
    18.52064933306));
#763 = CARTESIAN_POINT('',(-4.400760850675,47.298067056408,
    18.845837906114));
#764 = CARTESIAN_POINT('',(-4.700300372993,47.268749952811,
    19.189746396263));
#765 = CARTESIAN_POINT('',(-4.962970261089,47.241287483794,
    19.548359920202));
#766 = CARTESIAN_POINT('',(-5.190202661354,47.216298121589,
    19.918496593299));
#767 = CARTESIAN_POINT('',(-5.383289046486,47.194238511264,
    20.297653847685));
#768 = CARTESIAN_POINT('',(-5.65874781448,47.161871153847,
    20.962670141251));
#769 = CARTESIAN_POINT('',(-5.756992144141,47.149999629511,
    21.245170074312));
#770 = CARTESIAN_POINT('',(-5.838368061004,47.139953353269,
    21.530610150402));
#771 = CARTESIAN_POINT('',(-5.903168739807,47.131827523158,
    21.818301500493));
#772 = CARTESIAN_POINT('',(-5.95161892963,47.125689491243,
    22.107631998347));
#773 = CARTESIAN_POINT('',(-5.983870891923,47.12158267665,
    22.398042962039));
#774 = CARTESIAN_POINT('',(-6.,47.119528860123,22.689005999773));
#775 = CARTESIAN_POINT('',(-6.,47.119528860123,23.508091491964));
#776 = CARTESIAN_POINT('',(-5.94687972095,47.126292876895,
    24.035538841171));
#777 = CARTESIAN_POINT('',(-5.840867091314,47.139792421614,
    24.559641316732));
#778 = CARTESIAN_POINT('',(-5.681072314662,47.159798753791,
    25.077518825351));
#779 = CARTESIAN_POINT('',(-5.465710778765,47.185866013913,
    25.585582581634));
#780 = CARTESIAN_POINT('',(-5.192264038629,47.217229606202,
    26.079135047792));
#781 = CARTESIAN_POINT('',(-4.857699440372,47.252653216654,
    26.551837507432));
#782 = CARTESIAN_POINT('',(-4.154734590864,47.318933847905,
    27.33255906678));
#783 = CARTESIAN_POINT('',(-3.809896136909,47.34919246439,27.65673330066
    ));
#784 = CARTESIAN_POINT('',(-3.423954297298,47.380020437356,
    27.959989083824));
#785 = CARTESIAN_POINT('',(-2.997587198392,47.410093779892,
    28.235004091133));
#786 = CARTESIAN_POINT('',(-2.532512850114,47.437844209856,
    28.474467900769));
#787 = CARTESIAN_POINT('',(-2.031500676145,47.461579990477,
    28.671071409037));
#788 = CARTESIAN_POINT('',(-1.498456676756,47.479660718193,
    28.817458532629));
#789 = CARTESIAN_POINT('',(-0.375932733147,47.501846283534,
    28.995248859189));
#790 = CARTESIAN_POINT('',(0.199284112091,47.505592142136,
    29.023765410667));
#791 = CARTESIAN_POINT('',(0.775196142823,47.501146352795,28.98868761671
    ));
#792 = CARTESIAN_POINT('',(1.339552349701,47.488540082662,
    28.890814863999));
#793 = CARTESIAN_POINT('',(1.880502689198,47.468854063144,
    28.734571776913));
#794 = CARTESIAN_POINT('',(2.387476905297,47.443976215677,
    28.527884022818));
#795 = CARTESIAN_POINT('',(2.851940957224,47.416138840211,
    28.282107644043));
#796 = CARTESIAN_POINT('',(3.98677561631,47.337880760773,27.545137399409
    ));
#797 = CARTESIAN_POINT('',(4.58620703835,47.284018487533,26.988964025966
    ));
#798 = CARTESIAN_POINT('',(5.070534235647,47.232807827126,
    26.375794642186));
#799 = CARTESIAN_POINT('',(5.447604477219,47.188850893811,
    25.726128941232));
#800 = CARTESIAN_POINT('',(5.724780731271,47.15457142829,25.05397383006)
  );
#801 = CARTESIAN_POINT('',(5.90789575287,47.131257577658,24.368383172064
    ));
#802 = CARTESIAN_POINT('',(6.,47.119528860123,23.675378527358));
#803 = CARTESIAN_POINT('',(6.,47.119528860123,22.98));
#804 = PCURVE('',#338,#805);
#805 = DEFINITIONAL_REPRESENTATION('',(#806),#872);
#806 = B_SPLINE_CURVE_WITH_KNOTS('',8,(#807,#808,#809,#810,#811,#812,
    #813,#814,#815,#816,#817,#818,#819,#820,#821,#822,#823,#824,#825,
    #826,#827,#828,#829,#830,#831,#832,#833,#834,#835,#836,#837,#838,
    #839,#840,#841,#842,#843,#844,#845,#846,#847,#848,#849,#850,#851,
    #852,#853,#854,#855,#856,#857,#858,#859,#860,#861,#862,#863,#864,
    #865,#866,#867,#868,#869,#870,#871),.UNSPECIFIED.,.F.,.F.,(9,7,7,7,7
    ,7,7,7,7,9),(0.,0.129201330416,0.227725804914,0.326747286961,
    0.426200203107,0.497979831358,0.628244410512,0.727579681794,
    0.827416051241,1.),.UNSPECIFIED.);
#807 = CARTESIAN_POINT('',(0.,114.11952886012));
#808 = CARTESIAN_POINT('',(8.801524866036E-02,114.11952886012));
#809 = CARTESIAN_POINT('',(0.175923008365,114.12629287689));
#810 = CARTESIAN_POINT('',(0.264312887165,114.13979242161));
#811 = CARTESIAN_POINT('',(0.353731406763,114.15979875379));
#812 = CARTESIAN_POINT('',(0.444720301973,114.18586601391));
#813 = CARTESIAN_POINT('',(0.537838647367,114.2172296062));
#814 = CARTESIAN_POINT('',(0.633697817346,114.25265321665));
#815 = CARTESIAN_POINT('',(0.80879189784,114.3189338479));
#816 = CARTESIAN_POINT('',(0.887400217245,114.34919246439));
#817 = CARTESIAN_POINT('',(0.968664334263,114.38002043735));
#818 = CARTESIAN_POINT('',(1.05247284696,114.41009377989));
#819 = CARTESIAN_POINT('',(1.138797264296,114.43784420985));
#820 = CARTESIAN_POINT('',(1.22768166395,114.46157999047));
#821 = CARTESIAN_POINT('',(1.31924527982,114.47966071819));
#822 = CARTESIAN_POINT('',(1.508664670263,114.50184628347));
#823 = CARTESIAN_POINT('',(1.604097116481,114.50559214213));
#824 = CARTESIAN_POINT('',(1.699291315189,114.50114635299));
#825 = CARTESIAN_POINT('',(1.793608480043,114.4885400825));
#826 = CARTESIAN_POINT('',(1.886388644477,114.46885406295));
#827 = CARTESIAN_POINT('',(1.976873426553,114.44397621601));
#828 = CARTESIAN_POINT('',(2.064105672326,114.41613884005));
#829 = CARTESIAN_POINT('',(2.229764388528,114.35865397205));
#830 = CARTESIAN_POINT('',(2.309874195527,114.32840184931));
#831 = CARTESIAN_POINT('',(2.387486768369,114.2980670564));
#832 = CARTESIAN_POINT('',(2.462933317195,114.26874995281));
#833 = CARTESIAN_POINT('',(2.536515289879,114.24128748379));
#834 = CARTESIAN_POINT('',(2.608517683653,114.21629812158));
#835 = CARTESIAN_POINT('',(2.679215375306,114.19423851126));
#836 = CARTESIAN_POINT('',(2.799183450176,114.16187115384));
#837 = CARTESIAN_POINT('',(2.84894887133,114.14999962951));
#838 = CARTESIAN_POINT('',(2.898284857574,114.13995335326));
#839 = CARTESIAN_POINT('',(2.947281071156,114.13182752315));
#840 = CARTESIAN_POINT('',(2.996024193286,114.12568949124));
#841 = CARTESIAN_POINT('',(3.044599788368,114.12158267665));
#842 = CARTESIAN_POINT('',(3.093093653552,114.11952886012));
#843 = CARTESIAN_POINT('',(3.22960790225,114.11952886012));
#844 = CARTESIAN_POINT('',(3.317515661955,114.12629287689));
#845 = CARTESIAN_POINT('',(3.405905540755,114.13979242161));
#846 = CARTESIAN_POINT('',(3.495324060354,114.15979875379));
#847 = CARTESIAN_POINT('',(3.586312955563,114.18586601391));
#848 = CARTESIAN_POINT('',(3.679431300956,114.2172296062));
#849 = CARTESIAN_POINT('',(3.775290470936,114.25265321665));
#850 = CARTESIAN_POINT('',(3.95038455143,114.3189338479));
#851 = CARTESIAN_POINT('',(4.028992870834,114.34919246439));
#852 = CARTESIAN_POINT('',(4.110256987853,114.38002043735));
#853 = CARTESIAN_POINT('',(4.194065500549,114.41009377989));
#854 = CARTESIAN_POINT('',(4.280389917886,114.43784420985));
#855 = CARTESIAN_POINT('',(4.36927431754,114.46157999047));
#856 = CARTESIAN_POINT('',(4.46083793341,114.47966071819));
#857 = CARTESIAN_POINT('',(4.650257324371,114.50184628353));
#858 = CARTESIAN_POINT('',(4.745689768463,114.50559214213));
#859 = CARTESIAN_POINT('',(4.84088397052,114.50114635279));
#860 = CARTESIAN_POINT('',(4.935201133682,114.48854008266));
#861 = CARTESIAN_POINT('',(5.027981296323,114.46885406314));
#862 = CARTESIAN_POINT('',(5.118466081642,114.44397621567));
#863 = CARTESIAN_POINT('',(5.205698325467,114.41613884021));
#864 = CARTESIAN_POINT('',(5.431220857289,114.33788076077));
#865 = CARTESIAN_POINT('',(5.56549470396,114.28401848753));
#866 = CARTESIAN_POINT('',(5.693292500325,114.23280782712));
#867 = CARTESIAN_POINT('',(5.816070728763,114.18885089381));
#868 = CARTESIAN_POINT('',(5.9351531827,114.15457142829));
#869 = CARTESIAN_POINT('',(6.051787619626,114.13125757765));
#870 = CARTESIAN_POINT('',(6.167288885953,114.11952886012));
#871 = CARTESIAN_POINT('',(6.28318530718,114.11952886012));
#872 = ( GEOMETRIC_REPRESENTATION_CONTEXT(2) 
PARAMETRIC_REPRESENTATION_CONTEXT() REPRESENTATION_CONTEXT('2D SPACE',''
  ) );
#873 = PCURVE('',#697,#874);
#874 = DEFINITIONAL_REPRESENTATION('',(#875),#941);
#875 = B_SPLINE_CURVE_WITH_KNOTS('',8,(#876,#877,#878,#879,#880,#881,
    #882,#883,#884,#885,#886,#887,#888,#889,#890,#891,#892,#893,#894,
    #895,#896,#897,#898,#899,#900,#901,#902,#903,#904,#905,#906,#907,
    #908,#909,#910,#911,#912,#913,#914,#915,#916,#917,#918,#919,#920,
    #921,#922,#923,#924,#925,#926,#927,#928,#929,#930,#931,#932,#933,
    #934,#935,#936,#937,#938,#939,#940),.UNSPECIFIED.,.T.,.F.,(9,7,7,7,7
    ,7,7,7,7,9),(0.,0.129201330416,0.227725804914,0.326747286961,
    0.426200203107,0.497979831358,0.628244410512,0.727579681794,
    0.827416051241,1.),.UNSPECIFIED.);
#876 = CARTESIAN_POINT('',(1.444142193293,23.98));
#877 = CARTESIAN_POINT('',(1.444142193293,23.451908508038));
#878 = CARTESIAN_POINT('',(1.445269544129,22.924461158826));
#879 = CARTESIAN_POINT('',(1.447519413642,22.400358683268));
#880 = CARTESIAN_POINT('',(1.450909765508,21.882481174651));
#881 = CARTESIAN_POINT('',(1.455476702404,21.374417418366));
#882 = CARTESIAN_POINT('',(1.461270949845,20.880864952207));
#883 = CARTESIAN_POINT('',(1.468353319492,20.408162492568));
#884 = CARTESIAN_POINT('',(1.483218217283,19.62744093322));
#885 = CARTESIAN_POINT('',(1.490505716135,19.30326669934));
#886 = CARTESIAN_POINT('',(1.498656257328,19.000010916175));
#887 = CARTESIAN_POINT('',(1.507653875316,18.724995908868));
#888 = CARTESIAN_POINT('',(1.517461036688,18.485532099231));
#889 = CARTESIAN_POINT('',(1.528018973259,18.288928590962));
#890 = CARTESIAN_POINT('',(1.539246282546,18.142541467371));
#891 = CARTESIAN_POINT('',(1.562882980586,17.964751141298));
#892 = CARTESIAN_POINT('',(1.574992008451,17.936234589449));
#893 = CARTESIAN_POINT('',(1.587114767515,17.971312381391));
#894 = CARTESIAN_POINT('',(1.598996494752,18.069185137388));
#895 = CARTESIAN_POINT('',(1.610390505943,18.225428224924));
#896 = CARTESIAN_POINT('',(1.621075443122,18.432115974033));
#897 = CARTESIAN_POINT('',(1.630870779623,18.677892357423));
#898 = CARTESIAN_POINT('',(1.648461900928,19.219237577429));
#899 = CARTESIAN_POINT('',(1.656431744185,19.52064933306));
#900 = CARTESIAN_POINT('',(1.663572313234,19.845837906114));
#901 = CARTESIAN_POINT('',(1.669908216421,20.189746396263));
#902 = CARTESIAN_POINT('',(1.675468078345,20.548359920202));
#903 = CARTESIAN_POINT('',(1.680280684523,20.918496593299));
#904 = CARTESIAN_POINT('',(1.684372083203,21.297653847685));
#905 = CARTESIAN_POINT('',(1.690211112405,21.962670141251));
#906 = CARTESIAN_POINT('',(1.692294448354,22.245170074312));
#907 = CARTESIAN_POINT('',(1.694020624036,22.530610150402));
#908 = CARTESIAN_POINT('',(1.695395530537,22.818301500493));
#909 = CARTESIAN_POINT('',(1.696423687184,23.107631998347));
#910 = CARTESIAN_POINT('',(1.697108158243,23.398042962039));
#911 = CARTESIAN_POINT('',(1.697450460297,23.689005999773));
#912 = CARTESIAN_POINT('',(1.697450460297,24.508091491964));
#913 = CARTESIAN_POINT('',(1.696323109461,25.035538841171));
#914 = CARTESIAN_POINT('',(1.694073239948,25.559641316732));
#915 = CARTESIAN_POINT('',(1.690682888082,26.077518825351));
#916 = CARTESIAN_POINT('',(1.686115951186,26.585582581634));
#917 = CARTESIAN_POINT('',(1.680321703745,27.079135047792));
#918 = CARTESIAN_POINT('',(1.673239334098,27.551837507432));
#919 = CARTESIAN_POINT('',(1.658374436307,28.33255906678));
#920 = CARTESIAN_POINT('',(1.651086937455,28.65673330066));
#921 = CARTESIAN_POINT('',(1.642936396262,28.959989083824));
#922 = CARTESIAN_POINT('',(1.633938778274,29.235004091133));
#923 = CARTESIAN_POINT('',(1.624131616901,29.474467900769));
#924 = CARTESIAN_POINT('',(1.613573680331,29.671071409037));
#925 = CARTESIAN_POINT('',(1.602346371044,29.817458532629));
#926 = CARTESIAN_POINT('',(1.578709672939,29.995248859189));
#927 = CARTESIAN_POINT('',(1.566600645335,30.023765410667));
#928 = CARTESIAN_POINT('',(1.554477885868,29.98868761671));
#929 = CARTESIAN_POINT('',(1.542596158825,29.890814863999));
#930 = CARTESIAN_POINT('',(1.531202147854,29.734571776913));
#931 = CARTESIAN_POINT('',(1.520517210298,29.527884022818));
#932 = CARTESIAN_POINT('',(1.510721874015,29.282107644043));
#933 = CARTESIAN_POINT('',(1.486773878368,28.545137399409));
#934 = CARTESIAN_POINT('',(1.474106160183,27.988964025966));
#935 = CARTESIAN_POINT('',(1.463854447631,27.375794642186));
#936 = CARTESIAN_POINT('',(1.455862741172,26.726128941232));
#937 = CARTESIAN_POINT('',(1.449983072408,26.05397383006));
#938 = CARTESIAN_POINT('',(1.446096886041,25.368383172064));
#939 = CARTESIAN_POINT('',(1.444142193293,24.675378527358));
#940 = CARTESIAN_POINT('',(1.444142193293,23.98));
#941 = ( GEOMETRIC_REPRESENTATION_CONTEXT(2) 
PARAMETRIC_REPRESENTATION_CONTEXT() REPRESENTATION_CONTEXT('2D SPACE',''
  ) );
#942 = ORIENTED_EDGE('',*,*,#713,.T.);
#943 = ADVANCED_FACE('',(#944),#548,.F.);
#944 = FACE_BOUND('',#945,.F.);
#945 = EDGE_LOOP('',(#946,#1155,#1176,#1177));
#946 = ORIENTED_EDGE('',*,*,#947,.F.);
#947 = EDGE_CURVE('',#948,#948,#950,.T.);
#948 = VERTEX_POINT('',#949);
#949 = CARTESIAN_POINT('',(6.,-47.11952886012,22.98));
#950 = SURFACE_CURVE('',#951,(#1017,#1086),.PCURVE_S1.);
#951 = B_SPLINE_CURVE_WITH_KNOTS('',8,(#952,#953,#954,#955,#956,#957,
    #958,#959,#960,#961,#962,#963,#964,#965,#966,#967,#968,#969,#970,
    #971,#972,#973,#974,#975,#976,#977,#978,#979,#980,#981,#982,#983,
    #984,#985,#986,#987,#988,#989,#990,#991,#992,#993,#994,#995,#996,
    #997,#998,#999,#1000,#1001,#1002,#1003,#1004,#1005,#1006,#1007,#1008
    ,#1009,#1010,#1011,#1012,#1013,#1014,#1015,#1016),.UNSPECIFIED.,.T.,
  .F.,(9,7,7,7,7,7,7,7,7,9),(0.,0.129201329506,0.227725804233,
    0.326747286509,0.426200202886,0.497979831294,0.628244409562,
    0.727579681098,0.8274160508,1.),.UNSPECIFIED.);
#952 = CARTESIAN_POINT('',(6.,-47.11952886012,22.98));
#953 = CARTESIAN_POINT('',(6.,-47.11952886012,22.451908512851));
#954 = CARTESIAN_POINT('',(5.946879718055,-47.12629287718,
    21.924461144368));
#955 = CARTESIAN_POINT('',(5.840867097715,-47.13979242097,
    21.400358698689));
#956 = CARTESIAN_POINT('',(5.681072312048,-47.15979875404,
    20.882481175102));
#957 = CARTESIAN_POINT('',(5.465710772497,-47.18586601454,
    20.374417402915));
#958 = CARTESIAN_POINT('',(5.192264047258,-47.21722960536,
    19.880864965669));
#959 = CARTESIAN_POINT('',(4.857699436639,-47.252653217,19.408162488423)
  );
#960 = CARTESIAN_POINT('',(4.154734590865,-47.3189338479,18.62744093322)
  );
#961 = CARTESIAN_POINT('',(3.809896136909,-47.34919246439,18.30326669934
    ));
#962 = CARTESIAN_POINT('',(3.423954297298,-47.38002043735,
    18.000010916176));
#963 = CARTESIAN_POINT('',(2.997587198392,-47.41009377989,
    17.724995908868));
#964 = CARTESIAN_POINT('',(2.532512850114,-47.43784420985,
    17.485532099231));
#965 = CARTESIAN_POINT('',(2.031500676145,-47.46157999047,
    17.288928590962));
#966 = CARTESIAN_POINT('',(1.498456676755,-47.47966071819,17.14254146737
    ));
#967 = CARTESIAN_POINT('',(0.375932736218,-47.50184628347,
    16.964751141297));
#968 = CARTESIAN_POINT('',(-0.1992841214,-47.50559214213,16.936234589449
    ));
#969 = CARTESIAN_POINT('',(-0.775196133051,-47.50114635299,
    16.97131238139));
#970 = CARTESIAN_POINT('',(-1.339552349118,-47.4885400825,
    17.069185137388));
#971 = CARTESIAN_POINT('',(-1.880502698994,-47.46885406295,
    17.225428224924));
#972 = CARTESIAN_POINT('',(-2.387476897261,-47.44397621601,
    17.432115974033));
#973 = CARTESIAN_POINT('',(-2.851940959482,-47.41613884005,
    17.677892357423));
#974 = CARTESIAN_POINT('',(-3.685539497098,-47.35865397205,
    18.219237577429));
#975 = CARTESIAN_POINT('',(-4.062919949104,-47.32840184931,
    18.52064933306));
#976 = CARTESIAN_POINT('',(-4.400760850675,-47.2980670564,
    18.845837906114));
#977 = CARTESIAN_POINT('',(-4.700300372993,-47.26874995281,
    19.189746396263));
#978 = CARTESIAN_POINT('',(-4.962970261089,-47.24128748379,
    19.548359920202));
#979 = CARTESIAN_POINT('',(-5.190202661354,-47.21629812158,
    19.918496593299));
#980 = CARTESIAN_POINT('',(-5.383289046486,-47.19423851126,
    20.297653847685));
#981 = CARTESIAN_POINT('',(-5.658747814466,-47.16187115384,
    20.962670141216));
#982 = CARTESIAN_POINT('',(-5.756992144154,-47.1499996295,
    21.245170074332));
#983 = CARTESIAN_POINT('',(-5.838368061012,-47.13995335326,
    21.530610150437));
#984 = CARTESIAN_POINT('',(-5.9031687398,-47.13182752315,21.818301500493
    ));
#985 = CARTESIAN_POINT('',(-5.951618929624,-47.12568949124,
    22.107631998311));
#986 = CARTESIAN_POINT('',(-5.983870891928,-47.12158267665,
    22.398042962018));
#987 = CARTESIAN_POINT('',(-6.,-47.11952886012,22.68900599981));
#988 = CARTESIAN_POINT('',(-6.,-47.11952886012,23.508091487149));
#989 = CARTESIAN_POINT('',(-5.946879718055,-47.12629287718,
    24.035538855631));
#990 = CARTESIAN_POINT('',(-5.840867097715,-47.13979242097,
    24.559641301312));
#991 = CARTESIAN_POINT('',(-5.681072312049,-47.15979875404,
    25.077518824898));
#992 = CARTESIAN_POINT('',(-5.465710772497,-47.18586601454,
    25.585582597085));
#993 = CARTESIAN_POINT('',(-5.192264047257,-47.21722960536,
    26.079135034333));
#994 = CARTESIAN_POINT('',(-4.85769943664,-47.252653217,26.551837511576)
  );
#995 = CARTESIAN_POINT('',(-4.154734590865,-47.3189338479,
    27.332559066779));
#996 = CARTESIAN_POINT('',(-3.809896136908,-47.34919246439,
    27.656733300661));
#997 = CARTESIAN_POINT('',(-3.423954297298,-47.38002043735,
    27.959989083824));
#998 = CARTESIAN_POINT('',(-2.997587198392,-47.41009377989,
    28.235004091132));
#999 = CARTESIAN_POINT('',(-2.532512850114,-47.43784420985,
    28.47446790077));
#1000 = CARTESIAN_POINT('',(-2.031500676145,-47.46157999047,
    28.671071409037));
#1001 = CARTESIAN_POINT('',(-1.498456676756,-47.47966071819,
    28.81745853263));
#1002 = CARTESIAN_POINT('',(-0.375932733146,-47.50184628353,
    28.995248859189));
#1003 = CARTESIAN_POINT('',(0.19928411209,-47.50559214213,
    29.023765410668));
#1004 = CARTESIAN_POINT('',(0.775196142824,-47.50114635279,
    28.98868761671));
#1005 = CARTESIAN_POINT('',(1.339552349701,-47.48854008266,
    28.890814863999));
#1006 = CARTESIAN_POINT('',(1.880502689197,-47.46885406314,
    28.734571776913));
#1007 = CARTESIAN_POINT('',(2.387476905297,-47.44397621567,
    28.527884022817));
#1008 = CARTESIAN_POINT('',(2.851940957224,-47.41613884021,
    28.282107644043));
#1009 = CARTESIAN_POINT('',(3.986775616307,-47.33788076077,
    27.545137399411));
#1010 = CARTESIAN_POINT('',(4.586207038356,-47.28401848753,
    26.98896402596));
#1011 = CARTESIAN_POINT('',(5.070534235642,-47.23280782712,
    26.375794642193));
#1012 = CARTESIAN_POINT('',(5.447604477221,-47.18885089381,
    25.726128941227));
#1013 = CARTESIAN_POINT('',(5.724780731271,-47.15457142829,
    25.053973830061));
#1014 = CARTESIAN_POINT('',(5.90789575287,-47.13125757765,
    24.368383172066));
#1015 = CARTESIAN_POINT('',(6.,-47.11952886012,23.675378527357));
#1016 = CARTESIAN_POINT('',(6.,-47.11952886012,22.98));
#1017 = PCURVE('',#548,#1018);
#1018 = DEFINITIONAL_REPRESENTATION('',(#1019),#1085);
#1019 = B_SPLINE_CURVE_WITH_KNOTS('',8,(#1020,#1021,#1022,#1023,#1024,
    #1025,#1026,#1027,#1028,#1029,#1030,#1031,#1032,#1033,#1034,#1035,
    #1036,#1037,#1038,#1039,#1040,#1041,#1042,#1043,#1044,#1045,#1046,
    #1047,#1048,#1049,#1050,#1051,#1052,#1053,#1054,#1055,#1056,#1057,
    #1058,#1059,#1060,#1061,#1062,#1063,#1064,#1065,#1066,#1067,#1068,
    #1069,#1070,#1071,#1072,#1073,#1074,#1075,#1076,#1077,#1078,#1079,
    #1080,#1081,#1082,#1083,#1084),.UNSPECIFIED.,.F.,.F.,(9,7,7,7,7,7,7,
    7,7,9),(0.,0.129201329506,0.227725804233,0.326747286509,
    0.426200202886,0.497979831294,0.628244409562,0.727579681098,
    0.8274160508,1.),.UNSPECIFIED.);
#1020 = CARTESIAN_POINT('',(0.,19.880471139877));
#1021 = CARTESIAN_POINT('',(8.801524785817E-02,19.880471139877));
#1022 = CARTESIAN_POINT('',(0.175923010931,19.873707122812));
#1023 = CARTESIAN_POINT('',(0.264312884236,19.860207579026));
#1024 = CARTESIAN_POINT('',(0.353731406855,19.84020124596));
#1025 = CARTESIAN_POINT('',(0.444720304899,19.814133985459));
#1026 = CARTESIAN_POINT('',(0.537838644602,19.782770394635));
#1027 = CARTESIAN_POINT('',(0.633697818275,19.747346782994));
#1028 = CARTESIAN_POINT('',(0.80879189784,19.681066152095));
#1029 = CARTESIAN_POINT('',(0.887400217245,19.650807535609));
#1030 = CARTESIAN_POINT('',(0.968664334263,19.619979562644));
#1031 = CARTESIAN_POINT('',(1.05247284696,19.589906220108));
#1032 = CARTESIAN_POINT('',(1.138797264296,19.562155790144));
#1033 = CARTESIAN_POINT('',(1.22768166395,19.538420009523));
#1034 = CARTESIAN_POINT('',(1.31924527982,19.520339281807));
#1035 = CARTESIAN_POINT('',(1.508664670263,19.498153716527));
#1036 = CARTESIAN_POINT('',(1.604097116481,19.494407857863));
#1037 = CARTESIAN_POINT('',(1.699291315189,19.498853647004));
#1038 = CARTESIAN_POINT('',(1.793608480043,19.511459917492));
#1039 = CARTESIAN_POINT('',(1.886388644477,19.53114593705));
#1040 = CARTESIAN_POINT('',(1.976873426553,19.556023783986));
#1041 = CARTESIAN_POINT('',(2.064105672326,19.583861159945));
#1042 = CARTESIAN_POINT('',(2.229764388528,19.641346027942));
#1043 = CARTESIAN_POINT('',(2.309874195527,19.671598150683));
#1044 = CARTESIAN_POINT('',(2.387486768369,19.701932943592));
#1045 = CARTESIAN_POINT('',(2.462933317195,19.731250047189));
#1046 = CARTESIAN_POINT('',(2.536515289879,19.758712516206));
#1047 = CARTESIAN_POINT('',(2.608517683653,19.783701878411));
#1048 = CARTESIAN_POINT('',(2.679215375306,19.805761488736));
#1049 = CARTESIAN_POINT('',(2.79918345017,19.838128846152));
#1050 = CARTESIAN_POINT('',(2.848948871334,19.850000370491));
#1051 = CARTESIAN_POINT('',(2.89828485758,19.860046646732));
#1052 = CARTESIAN_POINT('',(2.947281071156,19.868172476842));
#1053 = CARTESIAN_POINT('',(2.99602419328,19.874310508756));
#1054 = CARTESIAN_POINT('',(3.044599788365,19.87841732335));
#1055 = CARTESIAN_POINT('',(3.093093653558,19.880471139877));
#1056 = CARTESIAN_POINT('',(3.229607901448,19.880471139877));
#1057 = CARTESIAN_POINT('',(3.317515664521,19.873707122812));
#1058 = CARTESIAN_POINT('',(3.405905537826,19.860207579026));
#1059 = CARTESIAN_POINT('',(3.495324060444,19.84020124596));
#1060 = CARTESIAN_POINT('',(3.586312958488,19.814133985459));
#1061 = CARTESIAN_POINT('',(3.679431298192,19.782770394635));
#1062 = CARTESIAN_POINT('',(3.775290471865,19.747346782994));
#1063 = CARTESIAN_POINT('',(3.95038455143,19.681066152095));
#1064 = CARTESIAN_POINT('',(4.028992870835,19.650807535609));
#1065 = CARTESIAN_POINT('',(4.110256987853,19.619979562644));
#1066 = CARTESIAN_POINT('',(4.194065500549,19.589906220108));
#1067 = CARTESIAN_POINT('',(4.280389917886,19.562155790144));
#1068 = CARTESIAN_POINT('',(4.36927431754,19.538420009523));
#1069 = CARTESIAN_POINT('',(4.46083793341,19.520339281807));
#1070 = CARTESIAN_POINT('',(4.650257324371,19.498153716466));
#1071 = CARTESIAN_POINT('',(4.745689768462,19.494407857864));
#1072 = CARTESIAN_POINT('',(4.84088397052,19.498853647205));
#1073 = CARTESIAN_POINT('',(4.935201133682,19.511459917338));
#1074 = CARTESIAN_POINT('',(5.027981296323,19.531145936856));
#1075 = CARTESIAN_POINT('',(5.118466081642,19.556023784323));
#1076 = CARTESIAN_POINT('',(5.205698325467,19.583861159789));
#1077 = CARTESIAN_POINT('',(5.431220857288,19.662119239227));
#1078 = CARTESIAN_POINT('',(5.565494703962,19.715981512467));
#1079 = CARTESIAN_POINT('',(5.693292500322,19.767192172873));
#1080 = CARTESIAN_POINT('',(5.816070728766,19.81114910619));
#1081 = CARTESIAN_POINT('',(5.935153182699,19.845428571709));
#1082 = CARTESIAN_POINT('',(6.051787619626,19.868742422342));
#1083 = CARTESIAN_POINT('',(6.167288885953,19.880471139877));
#1084 = CARTESIAN_POINT('',(6.28318530718,19.880471139877));
#1085 = ( GEOMETRIC_REPRESENTATION_CONTEXT(2) 
PARAMETRIC_REPRESENTATION_CONTEXT() REPRESENTATION_CONTEXT('2D SPACE',''
  ) );
#1086 = PCURVE('',#697,#1087);
#1087 = DEFINITIONAL_REPRESENTATION('',(#1088),#1154);
#1088 = B_SPLINE_CURVE_WITH_KNOTS('',8,(#1089,#1090,#1091,#1092,#1093,
    #1094,#1095,#1096,#1097,#1098,#1099,#1100,#1101,#1102,#1103,#1104,
    #1105,#1106,#1107,#1108,#1109,#1110,#1111,#1112,#1113,#1114,#1115,
    #1116,#1117,#1118,#1119,#1120,#1121,#1122,#1123,#1124,#1125,#1126,
    #1127,#1128,#1129,#1130,#1131,#1132,#1133,#1134,#1135,#1136,#1137,
    #1138,#1139,#1140,#1141,#1142,#1143,#1144,#1145,#1146,#1147,#1148,
    #1149,#1150,#1151,#1152,#1153),.UNSPECIFIED.,.T.,.F.,(9,7,7,7,7,7,7,
    7,7,9),(0.,0.129201329506,0.227725804233,0.326747286509,
    0.426200202886,0.497979831294,0.628244409562,0.727579681098,
    0.8274160508,1.),.UNSPECIFIED.);
#1089 = CARTESIAN_POINT('',(4.839043113886,23.98));
#1090 = CARTESIAN_POINT('',(4.839043113886,23.451908512851));
#1091 = CARTESIAN_POINT('',(4.83791576299,22.924461144368));
#1092 = CARTESIAN_POINT('',(4.835665893673,22.400358698689));
#1093 = CARTESIAN_POINT('',(4.832275541616,21.882481175102));
#1094 = CARTESIAN_POINT('',(4.827708604643,21.374417402915));
#1095 = CARTESIAN_POINT('',(4.821914357517,20.880864965669));
#1096 = CARTESIAN_POINT('',(4.814831987609,20.408162488423));
#1097 = CARTESIAN_POINT('',(4.799967089896,19.62744093322));
#1098 = CARTESIAN_POINT('',(4.792679591045,19.30326669934));
#1099 = CARTESIAN_POINT('',(4.784529049852,19.000010916176));
#1100 = CARTESIAN_POINT('',(4.775531431864,18.724995908868));
#1101 = CARTESIAN_POINT('',(4.765724270491,18.485532099231));
#1102 = CARTESIAN_POINT('',(4.755166333921,18.288928590962));
#1103 = CARTESIAN_POINT('',(4.743939024634,18.14254146737));
#1104 = CARTESIAN_POINT('',(4.720302326593,17.964751141297));
#1105 = CARTESIAN_POINT('',(4.708193298728,17.936234589449));
#1106 = CARTESIAN_POINT('',(4.696070539664,17.97131238139));
#1107 = CARTESIAN_POINT('',(4.684188812427,18.069185137388));
#1108 = CARTESIAN_POINT('',(4.672794801237,18.225428224924));
#1109 = CARTESIAN_POINT('',(4.662109864057,18.432115974033));
#1110 = CARTESIAN_POINT('',(4.652314527557,18.677892357423));
#1111 = CARTESIAN_POINT('',(4.634723406251,19.219237577429));
#1112 = CARTESIAN_POINT('',(4.626753562995,19.52064933306));
#1113 = CARTESIAN_POINT('',(4.619612993945,19.845837906114));
#1114 = CARTESIAN_POINT('',(4.613277090759,20.189746396263));
#1115 = CARTESIAN_POINT('',(4.607717228835,20.548359920202));
#1116 = CARTESIAN_POINT('',(4.602904622657,20.918496593299));
#1117 = CARTESIAN_POINT('',(4.598813223976,21.297653847685));
#1118 = CARTESIAN_POINT('',(4.592974194774,21.962670141216));
#1119 = CARTESIAN_POINT('',(4.590890858826,22.245170074332));
#1120 = CARTESIAN_POINT('',(4.589164683144,22.530610150437));
#1121 = CARTESIAN_POINT('',(4.587789776642,22.818301500493));
#1122 = CARTESIAN_POINT('',(4.586761619995,23.107631998311));
#1123 = CARTESIAN_POINT('',(4.586077148937,23.398042962018));
#1124 = CARTESIAN_POINT('',(4.585734846883,23.68900599981));
#1125 = CARTESIAN_POINT('',(4.585734846883,24.508091487149));
#1126 = CARTESIAN_POINT('',(4.58686219778,25.035538855631));
#1127 = CARTESIAN_POINT('',(4.589112067096,25.559641301312));
#1128 = CARTESIAN_POINT('',(4.592502419153,26.077518824898));
#1129 = CARTESIAN_POINT('',(4.597069356126,26.585582597085));
#1130 = CARTESIAN_POINT('',(4.602863603252,27.079135034333));
#1131 = CARTESIAN_POINT('',(4.60994597316,27.551837511576));
#1132 = CARTESIAN_POINT('',(4.624810870873,28.332559066779));
#1133 = CARTESIAN_POINT('',(4.632098369725,28.656733300661));
#1134 = CARTESIAN_POINT('',(4.640248910918,28.959989083824));
#1135 = CARTESIAN_POINT('',(4.649246528906,29.235004091132));
#1136 = CARTESIAN_POINT('',(4.659053690278,29.47446790077));
#1137 = CARTESIAN_POINT('',(4.669611626849,29.671071409037));
#1138 = CARTESIAN_POINT('',(4.680838936136,29.81745853263));
#1139 = CARTESIAN_POINT('',(4.704475634241,29.995248859189));
#1140 = CARTESIAN_POINT('',(4.716584661845,30.023765410668));
#1141 = CARTESIAN_POINT('',(4.728707421311,29.98868761671));
#1142 = CARTESIAN_POINT('',(4.740589148355,29.890814863999));
#1143 = CARTESIAN_POINT('',(4.751983159326,29.734571776913));
#1144 = CARTESIAN_POINT('',(4.762668096882,29.527884022817));
#1145 = CARTESIAN_POINT('',(4.772463433165,29.282107644043));
#1146 = CARTESIAN_POINT('',(4.796411428812,28.545137399411));
#1147 = CARTESIAN_POINT('',(4.809079146996,27.98896402596));
#1148 = CARTESIAN_POINT('',(4.819330859548,27.375794642193));
#1149 = CARTESIAN_POINT('',(4.827322566008,26.726128941227));
#1150 = CARTESIAN_POINT('',(4.833202234772,26.053973830061));
#1151 = CARTESIAN_POINT('',(4.837088421138,25.368383172066));
#1152 = CARTESIAN_POINT('',(4.839043113886,24.675378527357));
#1153 = CARTESIAN_POINT('',(4.839043113886,23.98));
#1154 = ( GEOMETRIC_REPRESENTATION_CONTEXT(2) 
PARAMETRIC_REPRESENTATION_CONTEXT() REPRESENTATION_CONTEXT('2D SPACE',''
  ) );
#1155 = ORIENTED_EDGE('',*,*,#1156,.F.);
#1156 = EDGE_CURVE('',#415,#948,#1157,.T.);
#1157 = SEAM_CURVE('',#1158,(#1162,#1169),.PCURVE_S1.);
#1158 = LINE('',#1159,#1160);
#1159 = CARTESIAN_POINT('',(6.,-67.,22.98));
#1160 = VECTOR('',#1161,1.);
#1161 = DIRECTION('',(6.123233995737E-17,1.,0.));
#1162 = PCURVE('',#548,#1163);
#1163 = DEFINITIONAL_REPRESENTATION('',(#1164),#1168);
#1164 = LINE('',#1165,#1166);
#1165 = CARTESIAN_POINT('',(6.28318530718,-0.));
#1166 = VECTOR('',#1167,1.);
#1167 = DIRECTION('',(0.,1.));
#1168 = ( GEOMETRIC_REPRESENTATION_CONTEXT(2) 
PARAMETRIC_REPRESENTATION_CONTEXT() REPRESENTATION_CONTEXT('2D SPACE',''
  ) );
#1169 = PCURVE('',#548,#1170);
#1170 = DEFINITIONAL_REPRESENTATION('',(#1171),#1175);
#1171 = LINE('',#1172,#1173);
#1172 = CARTESIAN_POINT('',(0.,-0.));
#1173 = VECTOR('',#1174,1.);
#1174 = DIRECTION('',(0.,1.));
#1175 = ( GEOMETRIC_REPRESENTATION_CONTEXT(2) 
PARAMETRIC_REPRESENTATION_CONTEXT() REPRESENTATION_CONTEXT('2D SPACE',''
  ) );
#1176 = ORIENTED_EDGE('',*,*,#414,.T.);
#1177 = ORIENTED_EDGE('',*,*,#1156,.T.);
#1178 = ADVANCED_FACE('',(#1179,#1210),#661,.F.);
#1179 = FACE_BOUND('',#1180,.F.);
#1180 = EDGE_LOOP('',(#1181));
#1181 = ORIENTED_EDGE('',*,*,#1182,.T.);
#1182 = EDGE_CURVE('',#1183,#1183,#1185,.T.);
#1183 = VERTEX_POINT('',#1184);
#1184 = CARTESIAN_POINT('',(45.,-1.102182119233E-14,81.));
#1185 = SURFACE_CURVE('',#1186,(#1191,#1198),.PCURVE_S1.);
#1186 = CIRCLE('',#1187,45.);
#1187 = AXIS2_PLACEMENT_3D('',#1188,#1189,#1190);
#1188 = CARTESIAN_POINT('',(0.,0.,81.));
#1189 = DIRECTION('',(0.,0.,1.));
#1190 = DIRECTION('',(1.,0.,-0.));
#1191 = PCURVE('',#661,#1192);
#1192 = DEFINITIONAL_REPRESENTATION('',(#1193),#1197);
#1193 = CIRCLE('',#1194,45.);
#1194 = AXIS2_PLACEMENT_2D('',#1195,#1196);
#1195 = CARTESIAN_POINT('',(0.,0.));
#1196 = DIRECTION('',(1.,0.));
#1197 = ( GEOMETRIC_REPRESENTATION_CONTEXT(2) 
PARAMETRIC_REPRESENTATION_CONTEXT() REPRESENTATION_CONTEXT('2D SPACE',''
  ) );
#1198 = PCURVE('',#1199,#1204);
#1199 = CYLINDRICAL_SURFACE('',#1200,45.);
#1200 = AXIS2_PLACEMENT_3D('',#1201,#1202,#1203);
#1201 = CARTESIAN_POINT('',(0.,0.,70.));
#1202 = DIRECTION('',(0.,0.,1.));
#1203 = DIRECTION('',(1.,0.,-0.));
#1204 = DEFINITIONAL_REPRESENTATION('',(#1205),#1209);
#1205 = LINE('',#1206,#1207);
#1206 = CARTESIAN_POINT('',(0.,11.));
#1207 = VECTOR('',#1208,1.);
#1208 = DIRECTION('',(1.,0.));
#1209 = ( GEOMETRIC_REPRESENTATION_CONTEXT(2) 
PARAMETRIC_REPRESENTATION_CONTEXT() REPRESENTATION_CONTEXT('2D SPACE',''
  ) );
#1210 = FACE_BOUND('',#1211,.F.);
#1211 = EDGE_LOOP('',(#1212));
#1212 = ORIENTED_EDGE('',*,*,#646,.F.);
#1213 = ADVANCED_FACE('',(#1214,#1268,#1271),#697,.F.);
#1214 = FACE_BOUND('',#1215,.F.);
#1215 = EDGE_LOOP('',(#1216,#1217,#1240,#1267));
#1216 = ORIENTED_EDGE('',*,*,#680,.T.);
#1217 = ORIENTED_EDGE('',*,*,#1218,.T.);
#1218 = EDGE_CURVE('',#681,#1219,#1221,.T.);
#1219 = VERTEX_POINT('',#1220);
#1220 = CARTESIAN_POINT('',(47.5,-1.16341445919E-14,70.));
#1221 = SEAM_CURVE('',#1222,(#1226,#1233),.PCURVE_S1.);
#1222 = LINE('',#1223,#1224);
#1223 = CARTESIAN_POINT('',(47.5,-1.16341445919E-14,-1.));
#1224 = VECTOR('',#1225,1.);
#1225 = DIRECTION('',(0.,0.,1.));
#1226 = PCURVE('',#697,#1227);
#1227 = DEFINITIONAL_REPRESENTATION('',(#1228),#1232);
#1228 = LINE('',#1229,#1230);
#1229 = CARTESIAN_POINT('',(0.,-0.));
#1230 = VECTOR('',#1231,1.);
#1231 = DIRECTION('',(0.,1.));
#1232 = ( GEOMETRIC_REPRESENTATION_CONTEXT(2) 
PARAMETRIC_REPRESENTATION_CONTEXT() REPRESENTATION_CONTEXT('2D SPACE',''
  ) );
#1233 = PCURVE('',#697,#1234);
#1234 = DEFINITIONAL_REPRESENTATION('',(#1235),#1239);
#1235 = LINE('',#1236,#1237);
#1236 = CARTESIAN_POINT('',(6.28318530718,-0.));
#1237 = VECTOR('',#1238,1.);
#1238 = DIRECTION('',(0.,1.));
#1239 = ( GEOMETRIC_REPRESENTATION_CONTEXT(2) 
PARAMETRIC_REPRESENTATION_CONTEXT() REPRESENTATION_CONTEXT('2D SPACE',''
  ) );
#1240 = ORIENTED_EDGE('',*,*,#1241,.F.);
#1241 = EDGE_CURVE('',#1219,#1219,#1242,.T.);
#1242 = SURFACE_CURVE('',#1243,(#1248,#1255),.PCURVE_S1.);
#1243 = CIRCLE('',#1244,47.5);
#1244 = AXIS2_PLACEMENT_3D('',#1245,#1246,#1247);
#1245 = CARTESIAN_POINT('',(0.,0.,70.));
#1246 = DIRECTION('',(0.,0.,1.));
#1247 = DIRECTION('',(1.,0.,-0.));
#1248 = PCURVE('',#697,#1249);
#1249 = DEFINITIONAL_REPRESENTATION('',(#1250),#1254);
#1250 = LINE('',#1251,#1252);
#1251 = CARTESIAN_POINT('',(0.,71.));
#1252 = VECTOR('',#1253,1.);
#1253 = DIRECTION('',(1.,0.));
#1254 = ( GEOMETRIC_REPRESENTATION_CONTEXT(2) 
PARAMETRIC_REPRESENTATION_CONTEXT() REPRESENTATION_CONTEXT('2D SPACE',''
  ) );
#1255 = PCURVE('',#1256,#1261);
#1256 = PLANE('',#1257);
#1257 = AXIS2_PLACEMENT_3D('',#1258,#1259,#1260);
#1258 = CARTESIAN_POINT('',(0.,0.,70.));
#1259 = DIRECTION('',(0.,0.,1.));
#1260 = DIRECTION('',(1.,0.,-0.));
#1261 = DEFINITIONAL_REPRESENTATION('',(#1262),#1266);
#1262 = CIRCLE('',#1263,47.5);
#1263 = AXIS2_PLACEMENT_2D('',#1264,#1265);
#1264 = CARTESIAN_POINT('',(0.,0.));
#1265 = DIRECTION('',(1.,0.));
#1266 = ( GEOMETRIC_REPRESENTATION_CONTEXT(2) 
PARAMETRIC_REPRESENTATION_CONTEXT() REPRESENTATION_CONTEXT('2D SPACE',''
  ) );
#1267 = ORIENTED_EDGE('',*,*,#1218,.F.);
#1268 = FACE_BOUND('',#1269,.F.);
#1269 = EDGE_LOOP('',(#1270));
#1270 = ORIENTED_EDGE('',*,*,#736,.F.);
#1271 = FACE_BOUND('',#1272,.F.);
#1272 = EDGE_LOOP('',(#1273));
#1273 = ORIENTED_EDGE('',*,*,#947,.T.);
#1274 = ADVANCED_FACE('',(#1275),#1199,.F.);
#1275 = FACE_BOUND('',#1276,.F.);
#1276 = EDGE_LOOP('',(#1277,#1278,#1301,#1323));
#1277 = ORIENTED_EDGE('',*,*,#1182,.F.);
#1278 = ORIENTED_EDGE('',*,*,#1279,.F.);
#1279 = EDGE_CURVE('',#1280,#1183,#1282,.T.);
#1280 = VERTEX_POINT('',#1281);
#1281 = CARTESIAN_POINT('',(45.,-1.102182119233E-14,70.));
#1282 = SEAM_CURVE('',#1283,(#1287,#1294),.PCURVE_S1.);
#1283 = LINE('',#1284,#1285);
#1284 = CARTESIAN_POINT('',(45.,-1.102182119233E-14,70.));
#1285 = VECTOR('',#1286,1.);
#1286 = DIRECTION('',(0.,0.,1.));
#1287 = PCURVE('',#1199,#1288);
#1288 = DEFINITIONAL_REPRESENTATION('',(#1289),#1293);
#1289 = LINE('',#1290,#1291);
#1290 = CARTESIAN_POINT('',(6.28318530718,-0.));
#1291 = VECTOR('',#1292,1.);
#1292 = DIRECTION('',(0.,1.));
#1293 = ( GEOMETRIC_REPRESENTATION_CONTEXT(2) 
PARAMETRIC_REPRESENTATION_CONTEXT() REPRESENTATION_CONTEXT('2D SPACE',''
  ) );
#1294 = PCURVE('',#1199,#1295);
#1295 = DEFINITIONAL_REPRESENTATION('',(#1296),#1300);
#1296 = LINE('',#1297,#1298);
#1297 = CARTESIAN_POINT('',(0.,-0.));
#1298 = VECTOR('',#1299,1.);
#1299 = DIRECTION('',(0.,1.));
#1300 = ( GEOMETRIC_REPRESENTATION_CONTEXT(2) 
PARAMETRIC_REPRESENTATION_CONTEXT() REPRESENTATION_CONTEXT('2D SPACE',''
  ) );
#1301 = ORIENTED_EDGE('',*,*,#1302,.T.);
#1302 = EDGE_CURVE('',#1280,#1280,#1303,.T.);
#1303 = SURFACE_CURVE('',#1304,(#1309,#1316),.PCURVE_S1.);
#1304 = CIRCLE('',#1305,45.);
#1305 = AXIS2_PLACEMENT_3D('',#1306,#1307,#1308);
#1306 = CARTESIAN_POINT('',(0.,0.,70.));
#1307 = DIRECTION('',(0.,0.,1.));
#1308 = DIRECTION('',(1.,0.,-0.));
#1309 = PCURVE('',#1199,#1310);
#1310 = DEFINITIONAL_REPRESENTATION('',(#1311),#1315);
#1311 = LINE('',#1312,#1313);
#1312 = CARTESIAN_POINT('',(0.,0.));
#1313 = VECTOR('',#1314,1.);
#1314 = DIRECTION('',(1.,0.));
#1315 = ( GEOMETRIC_REPRESENTATION_CONTEXT(2) 
PARAMETRIC_REPRESENTATION_CONTEXT() REPRESENTATION_CONTEXT('2D SPACE',''
  ) );
#1316 = PCURVE('',#1256,#1317);
#1317 = DEFINITIONAL_REPRESENTATION('',(#1318),#1322);
#1318 = CIRCLE('',#1319,45.);
#1319 = AXIS2_PLACEMENT_2D('',#1320,#1321);
#1320 = CARTESIAN_POINT('',(0.,0.));
#1321 = DIRECTION('',(1.,0.));
#1322 = ( GEOMETRIC_REPRESENTATION_CONTEXT(2) 
PARAMETRIC_REPRESENTATION_CONTEXT() REPRESENTATION_CONTEXT('2D SPACE',''
  ) );
#1323 = ORIENTED_EDGE('',*,*,#1279,.T.);
#1324 = ADVANCED_FACE('',(#1325,#1328),#1256,.F.);
#1325 = FACE_BOUND('',#1326,.F.);
#1326 = EDGE_LOOP('',(#1327));
#1327 = ORIENTED_EDGE('',*,*,#1241,.T.);
#1328 = FACE_BOUND('',#1329,.F.);
#1329 = EDGE_LOOP('',(#1330));
#1330 = ORIENTED_EDGE('',*,*,#1302,.F.);
#1331 = ( GEOMETRIC_REPRESENTATION_CONTEXT(3) 
GLOBAL_UNCERTAINTY_ASSIGNED_CONTEXT((#1335)) 
GLOBAL_UNIT_ASSIGNED_CONTEXT((#1332,#1333,#1334)) REPRESENTATION_CONTEXT
('Context #1','3D Context with UNIT and UNCERTAINTY') );
#1332 = ( LENGTH_UNIT() NAMED_UNIT(*) SI_UNIT(.MILLI.,.METRE.) );
#1333 = ( NAMED_UNIT(*) PLANE_ANGLE_UNIT() SI_UNIT($,.RADIAN.) );
#1334 = ( NAMED_UNIT(*) SI_UNIT($,.STERADIAN.) SOLID_ANGLE_UNIT() );
#1335 = UNCERTAINTY_MEASURE_WITH_UNIT(LENGTH_MEASURE(2.E-07),#1332,
  'distance_accuracy_value','confusion accuracy');
#1336 = PRODUCT_RELATED_PRODUCT_CATEGORY('part',$,(#7));
ENDSEC;
END-ISO-10303-21;
