ISO-10303-21;
HEADER;
FILE_DESCRIPTION(('Open CASCADE Model'),'2;1');
FILE_NAME('Open CASCADE Shape Model','2026-09-12T18:55:03',('Author'),(
    'Open CASCADE'),'Open CASCADE STEP processor 7.9','Open CASCADE 7.9'
  ,'Unknown');
FILE_SCHEMA(('AUTOMOTIVE_DESIGN { 1 0 10303 214 1 1 1 1 }'));
ENDSEC;
DATA;
#1 = APPLICATION_PROTOCOL_DEFINITION('international standard',
  'automotive_design',2000,#2);
#2 = APPLICATION_CONTEXT(
  'core data for automotive mechanical design processes');
#3 = SHAPE_DEFINITION_REPRESENTATION(#4,#10);
#4 = PRODUCT_DEFINITION_SHAPE('','',#5);
#5 = PRODUCT_DEFINITION('design','',#6,#9);
#6 = PRODUCT_DEFINITION_FORMATION('','',#7);
#7 = PRODUCT('Open CASCADE STEP translator 7.9 5',
  'Open CASCADE STEP translator 7.9 5','',(#8));
#8 = PRODUCT_CONTEXT('',#2,'mechanical');
#9 = PRODUCT_DEFINITION_CONTEXT('part definition',#2,'design');
#10 = ADVANCED_BREP_SHAPE_REPRESENTATION('',(#11,#15),#1533);
#11 = AXIS2_PLACEMENT_3D('',#12,#13,#14);
#12 = CARTESIAN_POINT('',(0.,0.,0.));
#13 = DIRECTION('',(0.,0.,1.));
#14 = DIRECTION('',(1.,0.,-0.));
#15 = MANIFOLD_SOLID_BREP('',#16);
#16 = CLOSED_SHELL('',(#17,#135,#271,#528,#576,#927,#1002,#1029,#1078,
    #1130,#1186,#1263,#1291,#1319,#1326,#1373,#1419,#1466,#1472,#1499,
    #1526));
#17 = ADVANCED_FACE('',(#18),#33,.T.);
#18 = FACE_BOUND('',#19,.F.);
#19 = EDGE_LOOP('',(#20,#56,#82,#111));
#20 = ORIENTED_EDGE('',*,*,#21,.F.);
#21 = EDGE_CURVE('',#22,#24,#26,.T.);
#22 = VERTEX_POINT('',#23);
#23 = CARTESIAN_POINT('',(46.499999888732,3.216813912758E-03,0.));
#24 = VERTEX_POINT('',#25);
#25 = CARTESIAN_POINT('',(-46.49999988873,3.216813912758E-03,0.));
#26 = SURFACE_CURVE('',#27,(#32,#44),.PCURVE_S1.);
#27 = CIRCLE('',#28,46.5);
#28 = AXIS2_PLACEMENT_3D('',#29,#30,#31);
#29 = CARTESIAN_POINT('',(0.,0.,0.));
#30 = DIRECTION('',(0.,0.,1.));
#31 = DIRECTION('',(1.,0.,0.));
#32 = PCURVE('',#33,#38);
#33 = CYLINDRICAL_SURFACE('',#34,46.5);
#34 = AXIS2_PLACEMENT_3D('',#35,#36,#37);
#35 = CARTESIAN_POINT('',(0.,0.,0.));
#36 = DIRECTION('',(-0.,-0.,-1.));
#37 = DIRECTION('',(1.,0.,0.));
#38 = DEFINITIONAL_REPRESENTATION('',(#39),#43);
#39 = LINE('',#40,#41);
#40 = CARTESIAN_POINT('',(-0.,0.));
#41 = VECTOR('',#42,1.);
#42 = DIRECTION('',(-1.,0.));
#43 = ( GEOMETRIC_REPRESENTATION_CONTEXT(2) 
PARAMETRIC_REPRESENTATION_CONTEXT() REPRESENTATION_CONTEXT('2D SPACE',''
  ) );
#44 = PCURVE('',#45,#50);
#45 = PLANE('',#46);
#46 = AXIS2_PLACEMENT_3D('',#47,#48,#49);
#47 = CARTESIAN_POINT('',(-1.882068139409E-15,-1.61343992693E-17,0.));
#48 = DIRECTION('',(0.,0.,1.));
#49 = DIRECTION('',(1.,0.,-0.));
#50 = DEFINITIONAL_REPRESENTATION('',(#51),#55);
#51 = CIRCLE('',#52,46.5);
#52 = AXIS2_PLACEMENT_2D('',#53,#54);
#53 = CARTESIAN_POINT('',(1.882068139409E-15,1.61343992693E-17));
#54 = DIRECTION('',(1.,0.));
#55 = ( GEOMETRIC_REPRESENTATION_CONTEXT(2) 
PARAMETRIC_REPRESENTATION_CONTEXT() REPRESENTATION_CONTEXT('2D SPACE',''
  ) );
#56 = ORIENTED_EDGE('',*,*,#57,.F.);
#57 = EDGE_CURVE('',#58,#22,#60,.T.);
#58 = VERTEX_POINT('',#59);
#59 = CARTESIAN_POINT('',(46.499999888732,3.216813912758E-03,69.9));
#60 = SURFACE_CURVE('',#61,(#65,#71),.PCURVE_S1.);
#61 = LINE('',#62,#63);
#62 = CARTESIAN_POINT('',(46.499999888732,3.216813912758E-03,0.));
#63 = VECTOR('',#64,1.);
#64 = DIRECTION('',(-0.,-0.,-1.));
#65 = PCURVE('',#33,#66);
#66 = DEFINITIONAL_REPRESENTATION('',(#67),#70);
#67 = B_SPLINE_CURVE_WITH_KNOTS('',1,(#68,#69),.UNSPECIFIED.,.F.,.F.,(2,
    2),(-69.9000006,6.E-07),.PIECEWISE_BEZIER_KNOTS.);
#68 = CARTESIAN_POINT('',(-6.917879387793E-05,-69.9000006));
#69 = CARTESIAN_POINT('',(-6.917879387793E-05,6.E-07));
#70 = ( GEOMETRIC_REPRESENTATION_CONTEXT(2) 
PARAMETRIC_REPRESENTATION_CONTEXT() REPRESENTATION_CONTEXT('2D SPACE',''
  ) );
#71 = PCURVE('',#72,#77);
#72 = PLANE('',#73);
#73 = AXIS2_PLACEMENT_3D('',#74,#75,#76);
#74 = CARTESIAN_POINT('',(-100.,3.216813912758E-03,-50.));
#75 = DIRECTION('',(0.,1.,0.));
#76 = DIRECTION('',(0.,0.,1.));
#77 = DEFINITIONAL_REPRESENTATION('',(#78),#81);
#78 = B_SPLINE_CURVE_WITH_KNOTS('',1,(#79,#80),.UNSPECIFIED.,.F.,.F.,(2,
    2),(-69.9000006,6.E-07),.PIECEWISE_BEZIER_KNOTS.);
#79 = CARTESIAN_POINT('',(119.9000006,146.49999988873));
#80 = CARTESIAN_POINT('',(49.9999994,146.49999988873));
#81 = ( GEOMETRIC_REPRESENTATION_CONTEXT(2) 
PARAMETRIC_REPRESENTATION_CONTEXT() REPRESENTATION_CONTEXT('2D SPACE',''
  ) );
#82 = ORIENTED_EDGE('',*,*,#83,.T.);
#83 = EDGE_CURVE('',#58,#84,#86,.T.);
#84 = VERTEX_POINT('',#85);
#85 = CARTESIAN_POINT('',(-46.49999988873,3.216813912758E-03,69.9));
#86 = SURFACE_CURVE('',#87,(#92,#99),.PCURVE_S1.);
#87 = CIRCLE('',#88,46.5);
#88 = AXIS2_PLACEMENT_3D('',#89,#90,#91);
#89 = CARTESIAN_POINT('',(0.,0.,69.9));
#90 = DIRECTION('',(0.,0.,1.));
#91 = DIRECTION('',(1.,0.,0.));
#92 = PCURVE('',#33,#93);
#93 = DEFINITIONAL_REPRESENTATION('',(#94),#98);
#94 = LINE('',#95,#96);
#95 = CARTESIAN_POINT('',(-0.,-69.9));
#96 = VECTOR('',#97,1.);
#97 = DIRECTION('',(-1.,0.));
#98 = ( GEOMETRIC_REPRESENTATION_CONTEXT(2) 
PARAMETRIC_REPRESENTATION_CONTEXT() REPRESENTATION_CONTEXT('2D SPACE',''
  ) );
#99 = PCURVE('',#100,#105);
#100 = PLANE('',#101);
#101 = AXIS2_PLACEMENT_3D('',#102,#103,#104);
#102 = CARTESIAN_POINT('',(-1.882068139409E-15,-1.61343992693E-17,69.9)
  );
#103 = DIRECTION('',(0.,0.,1.));
#104 = DIRECTION('',(1.,0.,-0.));
#105 = DEFINITIONAL_REPRESENTATION('',(#106),#110);
#106 = CIRCLE('',#107,46.5);
#107 = AXIS2_PLACEMENT_2D('',#108,#109);
#108 = CARTESIAN_POINT('',(1.882068139409E-15,1.61343992693E-17));
#109 = DIRECTION('',(1.,0.));
#110 = ( GEOMETRIC_REPRESENTATION_CONTEXT(2) 
PARAMETRIC_REPRESENTATION_CONTEXT() REPRESENTATION_CONTEXT('2D SPACE',''
  ) );
#111 = ORIENTED_EDGE('',*,*,#112,.T.);
#112 = EDGE_CURVE('',#84,#24,#113,.T.);
#113 = SURFACE_CURVE('',#114,(#118,#124),.PCURVE_S1.);
#114 = LINE('',#115,#116);
#115 = CARTESIAN_POINT('',(-46.49999988873,3.216813912758E-03,0.));
#116 = VECTOR('',#117,1.);
#117 = DIRECTION('',(-0.,-0.,-1.));
#118 = PCURVE('',#33,#119);
#119 = DEFINITIONAL_REPRESENTATION('',(#120),#123);
#120 = B_SPLINE_CURVE_WITH_KNOTS('',1,(#121,#122),.UNSPECIFIED.,.F.,.F.,
  (2,2),(-69.9000006,6.E-07),.PIECEWISE_BEZIER_KNOTS.);
#121 = CARTESIAN_POINT('',(-3.141523474796,-69.9000006));
#122 = CARTESIAN_POINT('',(-3.141523474796,6.E-07));
#123 = ( GEOMETRIC_REPRESENTATION_CONTEXT(2) 
PARAMETRIC_REPRESENTATION_CONTEXT() REPRESENTATION_CONTEXT('2D SPACE',''
  ) );
#124 = PCURVE('',#125,#130);
#125 = PLANE('',#126);
#126 = AXIS2_PLACEMENT_3D('',#127,#128,#129);
#127 = CARTESIAN_POINT('',(-100.,3.216813912758E-03,-50.));
#128 = DIRECTION('',(0.,1.,0.));
#129 = DIRECTION('',(0.,0.,1.));
#130 = DEFINITIONAL_REPRESENTATION('',(#131),#134);
#131 = B_SPLINE_CURVE_WITH_KNOTS('',1,(#132,#133),.UNSPECIFIED.,.F.,.F.,
  (2,2),(-69.9000006,6.E-07),.PIECEWISE_BEZIER_KNOTS.);
#132 = CARTESIAN_POINT('',(119.9000006,53.500000111268));
#133 = CARTESIAN_POINT('',(49.9999994,53.500000111268));
#134 = ( GEOMETRIC_REPRESENTATION_CONTEXT(2) 
PARAMETRIC_REPRESENTATION_CONTEXT() REPRESENTATION_CONTEXT('2D SPACE',''
  ) );
#135 = ADVANCED_FACE('',(#136),#45,.F.);
#136 = FACE_BOUND('',#137,.F.);
#137 = EDGE_LOOP('',(#138,#159,#160,#181,#225));
#138 = ORIENTED_EDGE('',*,*,#139,.F.);
#139 = EDGE_CURVE('',#22,#140,#142,.T.);
#140 = VERTEX_POINT('',#141);
#141 = CARTESIAN_POINT('',(37.799999863132,3.216713912751E-03,0.));
#142 = SURFACE_CURVE('',#143,(#147,#153),.PCURVE_S1.);
#143 = LINE('',#144,#145);
#144 = CARTESIAN_POINT('',(-50.,3.216813912758E-03,0.));
#145 = VECTOR('',#146,1.);
#146 = DIRECTION('',(-1.,0.,0.));
#147 = PCURVE('',#45,#148);
#148 = DEFINITIONAL_REPRESENTATION('',(#149),#152);
#149 = B_SPLINE_CURVE_WITH_KNOTS('',1,(#150,#151),.UNSPECIFIED.,.F.,.F.,
  (2,2),(-96.5,-3.5),.PIECEWISE_BEZIER_KNOTS.);
#150 = CARTESIAN_POINT('',(46.5,3.216813912758E-03));
#151 = CARTESIAN_POINT('',(-46.5,3.216813912758E-03));
#152 = ( GEOMETRIC_REPRESENTATION_CONTEXT(2) 
PARAMETRIC_REPRESENTATION_CONTEXT() REPRESENTATION_CONTEXT('2D SPACE',''
  ) );
#153 = PCURVE('',#72,#154);
#154 = DEFINITIONAL_REPRESENTATION('',(#155),#158);
#155 = B_SPLINE_CURVE_WITH_KNOTS('',1,(#156,#157),.UNSPECIFIED.,.F.,.F.,
  (2,2),(-96.5,-3.5),.PIECEWISE_BEZIER_KNOTS.);
#156 = CARTESIAN_POINT('',(50.,146.5));
#157 = CARTESIAN_POINT('',(50.,53.5));
#158 = ( GEOMETRIC_REPRESENTATION_CONTEXT(2) 
PARAMETRIC_REPRESENTATION_CONTEXT() REPRESENTATION_CONTEXT('2D SPACE',''
  ) );
#159 = ORIENTED_EDGE('',*,*,#21,.T.);
#160 = ORIENTED_EDGE('',*,*,#161,.F.);
#161 = EDGE_CURVE('',#162,#24,#164,.T.);
#162 = VERTEX_POINT('',#163);
#163 = CARTESIAN_POINT('',(-37.79999986313,3.216713912749E-03,0.));
#164 = SURFACE_CURVE('',#165,(#169,#175),.PCURVE_S1.);
#165 = LINE('',#166,#167);
#166 = CARTESIAN_POINT('',(-50.,3.216813912758E-03,0.));
#167 = VECTOR('',#168,1.);
#168 = DIRECTION('',(-1.,0.,0.));
#169 = PCURVE('',#45,#170);
#170 = DEFINITIONAL_REPRESENTATION('',(#171),#174);
#171 = B_SPLINE_CURVE_WITH_KNOTS('',1,(#172,#173),.UNSPECIFIED.,.F.,.F.,
  (2,2),(-96.5,-3.5),.PIECEWISE_BEZIER_KNOTS.);
#172 = CARTESIAN_POINT('',(46.5,3.216813912758E-03));
#173 = CARTESIAN_POINT('',(-46.5,3.216813912758E-03));
#174 = ( GEOMETRIC_REPRESENTATION_CONTEXT(2) 
PARAMETRIC_REPRESENTATION_CONTEXT() REPRESENTATION_CONTEXT('2D SPACE',''
  ) );
#175 = PCURVE('',#125,#176);
#176 = DEFINITIONAL_REPRESENTATION('',(#177),#180);
#177 = B_SPLINE_CURVE_WITH_KNOTS('',1,(#178,#179),.UNSPECIFIED.,.F.,.F.,
  (2,2),(-96.5,-3.5),.PIECEWISE_BEZIER_KNOTS.);
#178 = CARTESIAN_POINT('',(50.,146.5));
#179 = CARTESIAN_POINT('',(50.,53.5));
#180 = ( GEOMETRIC_REPRESENTATION_CONTEXT(2) 
PARAMETRIC_REPRESENTATION_CONTEXT() REPRESENTATION_CONTEXT('2D SPACE',''
  ) );
#181 = ORIENTED_EDGE('',*,*,#182,.F.);
#182 = EDGE_CURVE('',#183,#162,#185,.T.);
#183 = VERTEX_POINT('',#184);
#184 = CARTESIAN_POINT('',(-37.79213073791,0.771267974243,0.));
#185 = SURFACE_CURVE('',#186,(#191,#198),.PCURVE_S1.);
#186 = CIRCLE('',#187,37.8);
#187 = AXIS2_PLACEMENT_3D('',#188,#189,#190);
#188 = CARTESIAN_POINT('',(0.,0.,0.));
#189 = DIRECTION('',(0.,0.,1.));
#190 = DIRECTION('',(1.,0.,0.));
#191 = PCURVE('',#45,#192);
#192 = DEFINITIONAL_REPRESENTATION('',(#193),#197);
#193 = CIRCLE('',#194,37.8);
#194 = AXIS2_PLACEMENT_2D('',#195,#196);
#195 = CARTESIAN_POINT('',(1.882068139409E-15,1.61343992693E-17));
#196 = DIRECTION('',(1.,0.));
#197 = ( GEOMETRIC_REPRESENTATION_CONTEXT(2) 
PARAMETRIC_REPRESENTATION_CONTEXT() REPRESENTATION_CONTEXT('2D SPACE',''
  ) );
#198 = PCURVE('',#199,#220);
#199 = B_SPLINE_SURFACE_WITH_KNOTS('',9,1,(
    (#200,#201)
    ,(#202,#203)
    ,(#204,#205)
    ,(#206,#207)
    ,(#208,#209)
    ,(#210,#211)
    ,(#212,#213)
    ,(#214,#215)
    ,(#216,#217)
    ,(#218,#219
    )),.UNSPECIFIED.,.F.,.F.,.F.,(10,10),(2,2),(3.14159265359,
    6.28318530718),(0.,1.),.PIECEWISE_BEZIER_KNOTS.);
#200 = CARTESIAN_POINT('',(-37.79213073791,0.771267974243,0.));
#201 = CARTESIAN_POINT('',(-36.75,0.75,99.));
#202 = CARTESIAN_POINT('',(-37.79562806637,0.599898879786,0.));
#203 = CARTESIAN_POINT('',(-37.01179938779,0.75,99.));
#204 = CARTESIAN_POINT('',(-37.79825118407,0.428511943798,0.));
#205 = CARTESIAN_POINT('',(-37.27360149249,0.647191900061,
    98.999999999999));
#206 = CARTESIAN_POINT('',(-37.79999998699,0.257112263859,0.));
#207 = CARTESIAN_POINT('',(-37.48924283384,0.44157278914,99.000000000004
    ));
#208 = CARTESIAN_POINT('',(-37.80087440579,8.570493754982E-02,0.));
#209 = CARTESIAN_POINT('',(-37.61268047281,0.157317457926,
    98.999999999993));
#210 = CARTESIAN_POINT('',(-37.80087440579,-8.570493754981E-02,0.));
#211 = CARTESIAN_POINT('',(-37.61268047282,-0.157317457926,
    99.000000000007));
#212 = CARTESIAN_POINT('',(-37.79999998699,-0.257112263859,0.));
#213 = CARTESIAN_POINT('',(-37.48924283383,-0.44157278914,
    98.999999999994));
#214 = CARTESIAN_POINT('',(-37.79825118407,-0.428511943798,0.));
#215 = CARTESIAN_POINT('',(-37.2736014925,-0.647191900061,
    99.000000000003));
#216 = CARTESIAN_POINT('',(-37.79562806637,-0.599898879786,0.));
#217 = CARTESIAN_POINT('',(-37.01179938779,-0.75,98.999999999999));
#218 = CARTESIAN_POINT('',(-37.79213073791,-0.771267974243,0.));
#219 = CARTESIAN_POINT('',(-36.75,-0.75,99.));
#220 = DEFINITIONAL_REPRESENTATION('',(#221),#224);
#221 = B_SPLINE_CURVE_WITH_KNOTS('',1,(#222,#223),.UNSPECIFIED.,.F.,.F.,
  (2,2),(3.121187322903,3.161997984276),.PIECEWISE_BEZIER_KNOTS.);
#222 = CARTESIAN_POINT('',(3.14159265359,0.));
#223 = CARTESIAN_POINT('',(6.28318530718,0.));
#224 = ( GEOMETRIC_REPRESENTATION_CONTEXT(2) 
PARAMETRIC_REPRESENTATION_CONTEXT() REPRESENTATION_CONTEXT('2D SPACE',''
  ) );
#225 = ORIENTED_EDGE('',*,*,#226,.F.);
#226 = EDGE_CURVE('',#140,#183,#227,.T.);
#227 = SURFACE_CURVE('',#228,(#233,#240),.PCURVE_S1.);
#228 = CIRCLE('',#229,37.8);
#229 = AXIS2_PLACEMENT_3D('',#230,#231,#232);
#230 = CARTESIAN_POINT('',(0.,0.,0.));
#231 = DIRECTION('',(0.,0.,1.));
#232 = DIRECTION('',(1.,0.,0.));
#233 = PCURVE('',#45,#234);
#234 = DEFINITIONAL_REPRESENTATION('',(#235),#239);
#235 = CIRCLE('',#236,37.8);
#236 = AXIS2_PLACEMENT_2D('',#237,#238);
#237 = CARTESIAN_POINT('',(1.882068139409E-15,1.61343992693E-17));
#238 = DIRECTION('',(1.,0.));
#239 = ( GEOMETRIC_REPRESENTATION_CONTEXT(2) 
PARAMETRIC_REPRESENTATION_CONTEXT() REPRESENTATION_CONTEXT('2D SPACE',''
  ) );
#240 = PCURVE('',#241,#266);
#241 = B_SPLINE_SURFACE_WITH_KNOTS('',11,1,(
    (#242,#243)
    ,(#244,#245)
    ,(#246,#247)
    ,(#248,#249)
    ,(#250,#251)
    ,(#252,#253)
    ,(#254,#255)
    ,(#256,#257)
    ,(#258,#259)
    ,(#260,#261)
    ,(#262,#263)
    ,(#264,#265
    )),.UNSPECIFIED.,.F.,.F.,.F.,(12,12),(2,2),(-73.5,0.),(0.,1.),
  .PIECEWISE_BEZIER_KNOTS.);
#242 = CARTESIAN_POINT('',(37.8,-7.105427357601E-15,0.));
#243 = CARTESIAN_POINT('',(36.75,0.75,99.));
#244 = CARTESIAN_POINT('',(37.8,10.725534618702,0.));
#245 = CARTESIAN_POINT('',(30.068181818182,0.75,99.));
#246 = CARTESIAN_POINT('',(34.452359659639,21.451068457069,0.));
#247 = CARTESIAN_POINT('',(23.386363636364,0.75,99.));
#248 = CARTESIAN_POINT('',(27.757079789678,31.015652162493,0.));
#249 = CARTESIAN_POINT('',(16.704545454545,0.75,99.));
#250 = CARTESIAN_POINT('',(18.167101192845,38.2582922896,0.));
#251 = CARTESIAN_POINT('',(10.022727272727,0.75,99.));
#252 = CARTESIAN_POINT('',(6.588333853533,42.220109895496,0.));
#253 = CARTESIAN_POINT('',(3.340909090909,0.75,99.));
#254 = CARTESIAN_POINT('',(-5.725506764718,42.345748249928,0.));
#255 = CARTESIAN_POINT('',(-3.340909090909,0.75,99.));
#256 = CARTESIAN_POINT('',(-17.38270020679,38.621007601877,0.));
#257 = CARTESIAN_POINT('',(-10.02272727272,0.75,99.));
#258 = CARTESIAN_POINT('',(-27.11846055823,31.575548363709,0.));
#259 = CARTESIAN_POINT('',(-16.70454545454,0.75,99.));
#260 = CARTESIAN_POINT('',(-34.00750154424,22.149565747081,0.));
#261 = CARTESIAN_POINT('',(-23.38636363636,0.75,99.));
#262 = CARTESIAN_POINT('',(-37.57328784484,11.494569734672,0.));
#263 = CARTESIAN_POINT('',(-30.06818181818,0.75,99.));
#264 = CARTESIAN_POINT('',(-37.79213073791,0.771267974243,0.));
#265 = CARTESIAN_POINT('',(-36.75,0.75,99.));
#266 = DEFINITIONAL_REPRESENTATION('',(#267),#270);
#267 = B_SPLINE_CURVE_WITH_KNOTS('',1,(#268,#269),.UNSPECIFIED.,.F.,.F.,
  (2,2),(0.,3.121187322903),.PIECEWISE_BEZIER_KNOTS.);
#268 = CARTESIAN_POINT('',(-73.5,0.));
#269 = CARTESIAN_POINT('',(0.,0.));
#270 = ( GEOMETRIC_REPRESENTATION_CONTEXT(2) 
PARAMETRIC_REPRESENTATION_CONTEXT() REPRESENTATION_CONTEXT('2D SPACE',''
  ) );
#271 = ADVANCED_FACE('',(#272),#125,.F.);
#272 = FACE_BOUND('',#273,.F.);
#273 = EDGE_LOOP('',(#274,#318,#319,#320,#341,#367,#393,#419,#445,#478,
    #504));
#274 = ORIENTED_EDGE('',*,*,#275,.F.);
#275 = EDGE_CURVE('',#162,#276,#278,.T.);
#276 = VERTEX_POINT('',#277);
#277 = CARTESIAN_POINT('',(-37.4999931018,3.216713912751E-03,99.));
#278 = SURFACE_CURVE('',#279,(#290,#304),.PCURVE_S1.);
#279 = B_SPLINE_CURVE_WITH_KNOTS('',5,(#280,#281,#282,#283,#284,#285,
    #286,#287,#288,#289),.UNSPECIFIED.,.F.,.F.,(6,4,6),(0.,
    0.842000002342,1.),.UNSPECIFIED.);
#280 = CARTESIAN_POINT('',(-37.79999986313,3.216713912751E-03,0.));
#281 = CARTESIAN_POINT('',(-37.74947719109,3.216713912751E-03,
    16.671600036235));
#282 = CARTESIAN_POINT('',(-37.69895569622,3.216713912751E-03,
    33.343200080379));
#283 = CARTESIAN_POINT('',(-37.64843464493,3.216713912751E-03,
    50.014800127579));
#284 = CARTESIAN_POINT('',(-37.59791394192,3.216713912751E-03,
    66.686400176733));
#285 = CARTESIAN_POINT('',(-37.53791335127,3.216713912751E-03,
    86.486400181832));
#286 = CARTESIAN_POINT('',(-37.52843326553,3.216713912751E-03,
    89.614800136313));
#287 = CARTESIAN_POINT('',(-37.51895318655,3.216713912751E-03,
    92.743200090837));
#288 = CARTESIAN_POINT('',(-37.5094731137,3.216713912751E-03,
    95.8716000454));
#289 = CARTESIAN_POINT('',(-37.4999930465,3.216713912751E-03,99.));
#290 = PCURVE('',#125,#291);
#291 = DEFINITIONAL_REPRESENTATION('',(#292),#303);
#292 = B_SPLINE_CURVE_WITH_KNOTS('',5,(#293,#294,#295,#296,#297,#298,
    #299,#300,#301,#302),.UNSPECIFIED.,.F.,.F.,(6,4,6),(0.,
    0.842000002342,1.),.UNSPECIFIED.);
#293 = CARTESIAN_POINT('',(50.,62.20000013687));
#294 = CARTESIAN_POINT('',(66.671600036235,62.25052280891));
#295 = CARTESIAN_POINT('',(83.343200080379,62.30104430378));
#296 = CARTESIAN_POINT('',(100.01480012757,62.35156535507));
#297 = CARTESIAN_POINT('',(116.68640017673,62.40208605808));
#298 = CARTESIAN_POINT('',(136.48640018183,62.46208664873));
#299 = CARTESIAN_POINT('',(139.61480013631,62.47156673447));
#300 = CARTESIAN_POINT('',(142.74320009083,62.48104681345));
#301 = CARTESIAN_POINT('',(145.8716000454,62.4905268863));
#302 = CARTESIAN_POINT('',(149.,62.5000069535));
#303 = ( GEOMETRIC_REPRESENTATION_CONTEXT(2) 
PARAMETRIC_REPRESENTATION_CONTEXT() REPRESENTATION_CONTEXT('2D SPACE',''
  ) );
#304 = PCURVE('',#199,#305);
#305 = DEFINITIONAL_REPRESENTATION('',(#306),#317);
#306 = B_SPLINE_CURVE_WITH_KNOTS('',5,(#307,#308,#309,#310,#311,#312,
    #313,#314,#315,#316),.UNSPECIFIED.,.F.,.F.,(6,4,6),(0.,
    0.842000002342,1.),.UNSPECIFIED.);
#307 = CARTESIAN_POINT('',(4.7058381421,0.));
#308 = CARTESIAN_POINT('',(4.706419909718,0.168400000366));
#309 = CARTESIAN_POINT('',(4.706872857408,0.336800000812));
#310 = CARTESIAN_POINT('',(4.707251924966,0.505200001289));
#311 = CARTESIAN_POINT('',(4.707573537111,0.673600001785));
#312 = CARTESIAN_POINT('',(4.707904884159,0.873600001837));
#313 = CARTESIAN_POINT('',(4.707955726691,0.905200001377));
#314 = CARTESIAN_POINT('',(4.708005145563,0.936800000918));
#315 = CARTESIAN_POINT('',(4.708053218681,0.968400000459));
#316 = CARTESIAN_POINT('',(4.708100015207,1.));
#317 = ( GEOMETRIC_REPRESENTATION_CONTEXT(2) 
PARAMETRIC_REPRESENTATION_CONTEXT() REPRESENTATION_CONTEXT('2D SPACE',''
  ) );
#318 = ORIENTED_EDGE('',*,*,#161,.T.);
#319 = ORIENTED_EDGE('',*,*,#112,.F.);
#320 = ORIENTED_EDGE('',*,*,#321,.F.);
#321 = EDGE_CURVE('',#322,#84,#324,.T.);
#322 = VERTEX_POINT('',#323);
#323 = CARTESIAN_POINT('',(-44.74999988438,3.216813912761E-03,69.9));
#324 = SURFACE_CURVE('',#325,(#329,#335),.PCURVE_S1.);
#325 = LINE('',#326,#327);
#326 = CARTESIAN_POINT('',(-50.,3.216813912758E-03,69.9));
#327 = VECTOR('',#328,1.);
#328 = DIRECTION('',(-1.,0.,0.));
#329 = PCURVE('',#125,#330);
#330 = DEFINITIONAL_REPRESENTATION('',(#331),#334);
#331 = B_SPLINE_CURVE_WITH_KNOTS('',1,(#332,#333),.UNSPECIFIED.,.F.,.F.,
  (2,2),(-96.5,-3.5),.PIECEWISE_BEZIER_KNOTS.);
#332 = CARTESIAN_POINT('',(119.9,146.5));
#333 = CARTESIAN_POINT('',(119.9,53.5));
#334 = ( GEOMETRIC_REPRESENTATION_CONTEXT(2) 
PARAMETRIC_REPRESENTATION_CONTEXT() REPRESENTATION_CONTEXT('2D SPACE',''
  ) );
#335 = PCURVE('',#100,#336);
#336 = DEFINITIONAL_REPRESENTATION('',(#337),#340);
#337 = B_SPLINE_CURVE_WITH_KNOTS('',1,(#338,#339),.UNSPECIFIED.,.F.,.F.,
  (2,2),(-96.5,-3.5),.PIECEWISE_BEZIER_KNOTS.);
#338 = CARTESIAN_POINT('',(46.5,3.216813912758E-03));
#339 = CARTESIAN_POINT('',(-46.5,3.216813912758E-03));
#340 = ( GEOMETRIC_REPRESENTATION_CONTEXT(2) 
PARAMETRIC_REPRESENTATION_CONTEXT() REPRESENTATION_CONTEXT('2D SPACE',''
  ) );
#341 = ORIENTED_EDGE('',*,*,#342,.F.);
#342 = EDGE_CURVE('',#343,#322,#345,.T.);
#343 = VERTEX_POINT('',#344);
#344 = CARTESIAN_POINT('',(-44.74999988438,3.216813912761E-03,80.7));
#345 = SURFACE_CURVE('',#346,(#350,#356),.PCURVE_S1.);
#346 = LINE('',#347,#348);
#347 = CARTESIAN_POINT('',(-44.74999988438,3.216813912758E-03,69.9));
#348 = VECTOR('',#349,1.);
#349 = DIRECTION('',(-0.,-0.,-1.));
#350 = PCURVE('',#125,#351);
#351 = DEFINITIONAL_REPRESENTATION('',(#352),#355);
#352 = B_SPLINE_CURVE_WITH_KNOTS('',1,(#353,#354),.UNSPECIFIED.,.F.,.F.,
  (2,2),(-10.8000006,6.000000070117E-07),.PIECEWISE_BEZIER_KNOTS.);
#353 = CARTESIAN_POINT('',(130.7000006,55.250000115619));
#354 = CARTESIAN_POINT('',(119.8999994,55.250000115619));
#355 = ( GEOMETRIC_REPRESENTATION_CONTEXT(2) 
PARAMETRIC_REPRESENTATION_CONTEXT() REPRESENTATION_CONTEXT('2D SPACE',''
  ) );
#356 = PCURVE('',#357,#362);
#357 = CYLINDRICAL_SURFACE('',#358,44.75);
#358 = AXIS2_PLACEMENT_3D('',#359,#360,#361);
#359 = CARTESIAN_POINT('',(0.,0.,69.9));
#360 = DIRECTION('',(-0.,-0.,-1.));
#361 = DIRECTION('',(1.,0.,0.));
#362 = DEFINITIONAL_REPRESENTATION('',(#363),#366);
#363 = B_SPLINE_CURVE_WITH_KNOTS('',1,(#364,#365),.UNSPECIFIED.,.F.,.F.,
  (2,2),(-10.8000006,6.000000070117E-07),.PIECEWISE_BEZIER_KNOTS.);
#364 = CARTESIAN_POINT('',(-3.14152076948,-10.8000006));
#365 = CARTESIAN_POINT('',(-3.14152076948,6.000000070117E-07));
#366 = ( GEOMETRIC_REPRESENTATION_CONTEXT(2) 
PARAMETRIC_REPRESENTATION_CONTEXT() REPRESENTATION_CONTEXT('2D SPACE',''
  ) );
#367 = ORIENTED_EDGE('',*,*,#368,.F.);
#368 = EDGE_CURVE('',#369,#343,#371,.T.);
#369 = VERTEX_POINT('',#370);
#370 = CARTESIAN_POINT('',(-39.74999986983,3.216813912766E-03,80.7));
#371 = SURFACE_CURVE('',#372,(#376,#382),.PCURVE_S1.);
#372 = LINE('',#373,#374);
#373 = CARTESIAN_POINT('',(-50.,3.216813912758E-03,80.7));
#374 = VECTOR('',#375,1.);
#375 = DIRECTION('',(-1.,0.,0.));
#376 = PCURVE('',#125,#377);
#377 = DEFINITIONAL_REPRESENTATION('',(#378),#381);
#378 = B_SPLINE_CURVE_WITH_KNOTS('',1,(#379,#380),.UNSPECIFIED.,.F.,.F.,
  (2,2),(-94.75,-5.25),.PIECEWISE_BEZIER_KNOTS.);
#379 = CARTESIAN_POINT('',(130.7,144.75));
#380 = CARTESIAN_POINT('',(130.7,55.25));
#381 = ( GEOMETRIC_REPRESENTATION_CONTEXT(2) 
PARAMETRIC_REPRESENTATION_CONTEXT() REPRESENTATION_CONTEXT('2D SPACE',''
  ) );
#382 = PCURVE('',#383,#388);
#383 = PLANE('',#384);
#384 = AXIS2_PLACEMENT_3D('',#385,#386,#387);
#385 = CARTESIAN_POINT('',(-2.933502854163E-15,4.040240899597E-15,80.7)
  );
#386 = DIRECTION('',(0.,0.,1.));
#387 = DIRECTION('',(1.,0.,-0.));
#388 = DEFINITIONAL_REPRESENTATION('',(#389),#392);
#389 = B_SPLINE_CURVE_WITH_KNOTS('',1,(#390,#391),.UNSPECIFIED.,.F.,.F.,
  (2,2),(-94.75,-5.25),.PIECEWISE_BEZIER_KNOTS.);
#390 = CARTESIAN_POINT('',(44.75,3.216813912754E-03));
#391 = CARTESIAN_POINT('',(-44.75,3.216813912754E-03));
#392 = ( GEOMETRIC_REPRESENTATION_CONTEXT(2) 
PARAMETRIC_REPRESENTATION_CONTEXT() REPRESENTATION_CONTEXT('2D SPACE',''
  ) );
#393 = ORIENTED_EDGE('',*,*,#394,.F.);
#394 = EDGE_CURVE('',#395,#369,#397,.T.);
#395 = VERTEX_POINT('',#396);
#396 = CARTESIAN_POINT('',(-39.74999986983,3.216813912766E-03,109.));
#397 = SURFACE_CURVE('',#398,(#402,#408),.PCURVE_S1.);
#398 = LINE('',#399,#400);
#399 = CARTESIAN_POINT('',(-39.74999986983,3.216813912758E-03,80.7));
#400 = VECTOR('',#401,1.);
#401 = DIRECTION('',(-0.,-0.,-1.));
#402 = PCURVE('',#125,#403);
#403 = DEFINITIONAL_REPRESENTATION('',(#404),#407);
#404 = B_SPLINE_CURVE_WITH_KNOTS('',1,(#405,#406),.UNSPECIFIED.,.F.,.F.,
  (2,2),(-28.3000006,6.000000070117E-07),.PIECEWISE_BEZIER_KNOTS.);
#405 = CARTESIAN_POINT('',(159.0000006,60.250000130162));
#406 = CARTESIAN_POINT('',(130.6999994,60.250000130162));
#407 = ( GEOMETRIC_REPRESENTATION_CONTEXT(2) 
PARAMETRIC_REPRESENTATION_CONTEXT() REPRESENTATION_CONTEXT('2D SPACE',''
  ) );
#408 = PCURVE('',#409,#414);
#409 = CYLINDRICAL_SURFACE('',#410,39.75);
#410 = AXIS2_PLACEMENT_3D('',#411,#412,#413);
#411 = CARTESIAN_POINT('',(0.,0.,80.7));
#412 = DIRECTION('',(-0.,-0.,-1.));
#413 = DIRECTION('',(1.,0.,0.));
#414 = DEFINITIONAL_REPRESENTATION('',(#415),#418);
#415 = B_SPLINE_CURVE_WITH_KNOTS('',1,(#416,#417),.UNSPECIFIED.,.F.,.F.,
  (2,2),(-28.3000006,6.000000070117E-07),.PIECEWISE_BEZIER_KNOTS.);
#416 = CARTESIAN_POINT('',(-3.141511727454,-28.3000006));
#417 = CARTESIAN_POINT('',(-3.141511727454,6.000000070117E-07));
#418 = ( GEOMETRIC_REPRESENTATION_CONTEXT(2) 
PARAMETRIC_REPRESENTATION_CONTEXT() REPRESENTATION_CONTEXT('2D SPACE',''
  ) );
#419 = ORIENTED_EDGE('',*,*,#420,.F.);
#420 = EDGE_CURVE('',#421,#395,#423,.T.);
#421 = VERTEX_POINT('',#422);
#422 = CARTESIAN_POINT('',(-38.29999666196,3.216813912758E-03,109.));
#423 = SURFACE_CURVE('',#424,(#428,#434),.PCURVE_S1.);
#424 = LINE('',#425,#426);
#425 = CARTESIAN_POINT('',(-50.,3.216813912758E-03,109.));
#426 = VECTOR('',#427,1.);
#427 = DIRECTION('',(-1.,0.,0.));
#428 = PCURVE('',#125,#429);
#429 = DEFINITIONAL_REPRESENTATION('',(#430),#433);
#430 = B_SPLINE_CURVE_WITH_KNOTS('',1,(#431,#432),.UNSPECIFIED.,.F.,.F.,
  (2,2),(-89.75,-10.25),.PIECEWISE_BEZIER_KNOTS.);
#431 = CARTESIAN_POINT('',(159.,139.75));
#432 = CARTESIAN_POINT('',(159.,60.25));
#433 = ( GEOMETRIC_REPRESENTATION_CONTEXT(2) 
PARAMETRIC_REPRESENTATION_CONTEXT() REPRESENTATION_CONTEXT('2D SPACE',''
  ) );
#434 = PCURVE('',#435,#440);
#435 = PLANE('',#436);
#436 = AXIS2_PLACEMENT_3D('',#437,#438,#439);
#437 = CARTESIAN_POINT('',(-4.403329231825E-15,5.790076070423E-16,109.)
  );
#438 = DIRECTION('',(0.,0.,1.));
#439 = DIRECTION('',(1.,0.,-0.));
#440 = DEFINITIONAL_REPRESENTATION('',(#441),#444);
#441 = B_SPLINE_CURVE_WITH_KNOTS('',1,(#442,#443),.UNSPECIFIED.,.F.,.F.,
  (2,2),(-89.75,-10.25),.PIECEWISE_BEZIER_KNOTS.);
#442 = CARTESIAN_POINT('',(39.75,3.216813912757E-03));
#443 = CARTESIAN_POINT('',(-39.75,3.216813912757E-03));
#444 = ( GEOMETRIC_REPRESENTATION_CONTEXT(2) 
PARAMETRIC_REPRESENTATION_CONTEXT() REPRESENTATION_CONTEXT('2D SPACE',''
  ) );
#445 = ORIENTED_EDGE('',*,*,#446,.T.);
#446 = EDGE_CURVE('',#421,#447,#449,.T.);
#447 = VERTEX_POINT('',#448);
#448 = CARTESIAN_POINT('',(-37.49999310137,3.216813912758E-03,108.2));
#449 = SURFACE_CURVE('',#450,(#455,#462),.PCURVE_S1.);
#450 = HYPERBOLA('',#451,3.216813912758E-03,3.216813912758E-03);
#451 = AXIS2_PLACEMENT_3D('',#452,#453,#454);
#452 = CARTESIAN_POINT('',(-36.75,3.216813912758E-03,107.45));
#453 = DIRECTION('',(0.,1.,0.));
#454 = DIRECTION('',(-0.,0.,1.));
#455 = PCURVE('',#125,#456);
#456 = DEFINITIONAL_REPRESENTATION('',(#457),#461);
#457 = ( BOUNDED_CURVE() B_SPLINE_CURVE(2,(#458,#459,#460),
.UNSPECIFIED.,.F.,.F.) B_SPLINE_CURVE_WITH_KNOTS((3,3),(-6.870764912066,
-6.144824386374),.PIECEWISE_BEZIER_KNOTS.) CURVE() 
GEOMETRIC_REPRESENTATION_ITEM() RATIONAL_B_SPLINE_CURVE((1.,
1.066600113623,1.)) REPRESENTATION_ITEM('') );
#458 = CARTESIAN_POINT('',(159.,61.700003338033));
#459 = CARTESIAN_POINT('',(158.46086832674,62.239136172346));
#460 = CARTESIAN_POINT('',(158.2,62.500006898626));
#461 = ( GEOMETRIC_REPRESENTATION_CONTEXT(2) 
PARAMETRIC_REPRESENTATION_CONTEXT() REPRESENTATION_CONTEXT('2D SPACE',''
  ) );
#462 = PCURVE('',#463,#468);
#463 = CONICAL_SURFACE('',#464,0.75,0.785398163397);
#464 = AXIS2_PLACEMENT_3D('',#465,#466,#467);
#465 = CARTESIAN_POINT('',(-36.75,0.,108.2));
#466 = DIRECTION('',(-0.,0.,1.));
#467 = DIRECTION('',(0.,-1.,0.));
#468 = DEFINITIONAL_REPRESENTATION('',(#469),#477);
#469 = B_SPLINE_CURVE_WITH_KNOTS('',6,(#470,#471,#472,#473,#474,#475,
    #476),.UNSPECIFIED.,.F.,.F.,(7,7),(-6.870764912066,-6.144824386374),
  .PIECEWISE_BEZIER_KNOTS.);
#470 = CARTESIAN_POINT('',(-1.572871692099,0.8));
#471 = CARTESIAN_POINT('',(-1.573122790549,0.612465768065));
#472 = CARTESIAN_POINT('',(-1.573410345783,0.452159197661));
#473 = CARTESIAN_POINT('',(-1.573740971501,0.314139873686));
#474 = CARTESIAN_POINT('',(-1.574122893949,0.194658331415));
#475 = CARTESIAN_POINT('',(-1.574566488366,9.074173104613E-02));
#476 = CARTESIAN_POINT('',(-1.575085425163,9.436895709314E-16));
#477 = ( GEOMETRIC_REPRESENTATION_CONTEXT(2) 
PARAMETRIC_REPRESENTATION_CONTEXT() REPRESENTATION_CONTEXT('2D SPACE',''
  ) );
#478 = ORIENTED_EDGE('',*,*,#479,.F.);
#479 = EDGE_CURVE('',#480,#447,#482,.T.);
#480 = VERTEX_POINT('',#481);
#481 = CARTESIAN_POINT('',(-37.49999310137,3.216813912758E-03,107.5));
#482 = SURFACE_CURVE('',#483,(#487,#493),.PCURVE_S1.);
#483 = LINE('',#484,#485);
#484 = CARTESIAN_POINT('',(-37.49999310137,3.216813912758E-03,107.5));
#485 = VECTOR('',#486,1.);
#486 = DIRECTION('',(-0.,0.,1.));
#487 = PCURVE('',#125,#488);
#488 = DEFINITIONAL_REPRESENTATION('',(#489),#492);
#489 = B_SPLINE_CURVE_WITH_KNOTS('',1,(#490,#491),.UNSPECIFIED.,.F.,.F.,
  (2,2),(0.,0.7),.PIECEWISE_BEZIER_KNOTS.);
#490 = CARTESIAN_POINT('',(157.5,62.500006898626));
#491 = CARTESIAN_POINT('',(158.2,62.500006898626));
#492 = ( GEOMETRIC_REPRESENTATION_CONTEXT(2) 
PARAMETRIC_REPRESENTATION_CONTEXT() REPRESENTATION_CONTEXT('2D SPACE',''
  ) );
#493 = PCURVE('',#494,#499);
#494 = CYLINDRICAL_SURFACE('',#495,0.75);
#495 = AXIS2_PLACEMENT_3D('',#496,#497,#498);
#496 = CARTESIAN_POINT('',(-36.75,0.,107.5));
#497 = DIRECTION('',(-0.,0.,1.));
#498 = DIRECTION('',(0.,-1.,0.));
#499 = DEFINITIONAL_REPRESENTATION('',(#500),#503);
#500 = B_SPLINE_CURVE_WITH_KNOTS('',1,(#501,#502),.UNSPECIFIED.,.F.,.F.,
  (2,2),(0.,0.7),.PIECEWISE_BEZIER_KNOTS.);
#501 = CARTESIAN_POINT('',(-1.575085425163,0.));
#502 = CARTESIAN_POINT('',(-1.575085425163,0.7));
#503 = ( GEOMETRIC_REPRESENTATION_CONTEXT(2) 
PARAMETRIC_REPRESENTATION_CONTEXT() REPRESENTATION_CONTEXT('2D SPACE',''
  ) );
#504 = ORIENTED_EDGE('',*,*,#505,.T.);
#505 = EDGE_CURVE('',#480,#276,#506,.T.);
#506 = SURFACE_CURVE('',#507,(#511,#517),.PCURVE_S1.);
#507 = LINE('',#508,#509);
#508 = CARTESIAN_POINT('',(-37.49999310137,3.216813912758E-03,99.));
#509 = VECTOR('',#510,1.);
#510 = DIRECTION('',(0.,0.,-1.));
#511 = PCURVE('',#125,#512);
#512 = DEFINITIONAL_REPRESENTATION('',(#513),#516);
#513 = B_SPLINE_CURVE_WITH_KNOTS('',1,(#514,#515),.UNSPECIFIED.,.F.,.F.,
  (2,2),(-8.5000006,6.000000070117E-07),.PIECEWISE_BEZIER_KNOTS.);
#514 = CARTESIAN_POINT('',(157.5000006,62.500006898626));
#515 = CARTESIAN_POINT('',(148.9999994,62.500006898626));
#516 = ( GEOMETRIC_REPRESENTATION_CONTEXT(2) 
PARAMETRIC_REPRESENTATION_CONTEXT() REPRESENTATION_CONTEXT('2D SPACE',''
  ) );
#517 = PCURVE('',#518,#523);
#518 = CYLINDRICAL_SURFACE('',#519,0.75);
#519 = AXIS2_PLACEMENT_3D('',#520,#521,#522);
#520 = CARTESIAN_POINT('',(-36.75,0.,99.));
#521 = DIRECTION('',(0.,0.,-1.));
#522 = DIRECTION('',(0.,-1.,0.));
#523 = DEFINITIONAL_REPRESENTATION('',(#524),#527);
#524 = B_SPLINE_CURVE_WITH_KNOTS('',1,(#525,#526),.UNSPECIFIED.,.F.,.F.,
  (2,2),(-8.5000006,6.000000070117E-07),.PIECEWISE_BEZIER_KNOTS.);
#525 = CARTESIAN_POINT('',(1.575085425163,-8.5000006));
#526 = CARTESIAN_POINT('',(1.575085425163,6.000000070117E-07));
#527 = ( GEOMETRIC_REPRESENTATION_CONTEXT(2) 
PARAMETRIC_REPRESENTATION_CONTEXT() REPRESENTATION_CONTEXT('2D SPACE',''
  ) );
#528 = ADVANCED_FACE('',(#529),#100,.T.);
#529 = FACE_BOUND('',#530,.T.);
#530 = EDGE_LOOP('',(#531,#552,#553,#554));
#531 = ORIENTED_EDGE('',*,*,#532,.F.);
#532 = EDGE_CURVE('',#58,#533,#535,.T.);
#533 = VERTEX_POINT('',#534);
#534 = CARTESIAN_POINT('',(44.749999884381,3.216813912758E-03,69.9));
#535 = SURFACE_CURVE('',#536,(#540,#546),.PCURVE_S1.);
#536 = LINE('',#537,#538);
#537 = CARTESIAN_POINT('',(-50.,3.216813912758E-03,69.9));
#538 = VECTOR('',#539,1.);
#539 = DIRECTION('',(-1.,0.,0.));
#540 = PCURVE('',#100,#541);
#541 = DEFINITIONAL_REPRESENTATION('',(#542),#545);
#542 = B_SPLINE_CURVE_WITH_KNOTS('',1,(#543,#544),.UNSPECIFIED.,.F.,.F.,
  (2,2),(-96.5,-3.5),.PIECEWISE_BEZIER_KNOTS.);
#543 = CARTESIAN_POINT('',(46.5,3.216813912758E-03));
#544 = CARTESIAN_POINT('',(-46.5,3.216813912758E-03));
#545 = ( GEOMETRIC_REPRESENTATION_CONTEXT(2) 
PARAMETRIC_REPRESENTATION_CONTEXT() REPRESENTATION_CONTEXT('2D SPACE',''
  ) );
#546 = PCURVE('',#72,#547);
#547 = DEFINITIONAL_REPRESENTATION('',(#548),#551);
#548 = B_SPLINE_CURVE_WITH_KNOTS('',1,(#549,#550),.UNSPECIFIED.,.F.,.F.,
  (2,2),(-96.5,-3.5),.PIECEWISE_BEZIER_KNOTS.);
#549 = CARTESIAN_POINT('',(119.9,146.5));
#550 = CARTESIAN_POINT('',(119.9,53.5));
#551 = ( GEOMETRIC_REPRESENTATION_CONTEXT(2) 
PARAMETRIC_REPRESENTATION_CONTEXT() REPRESENTATION_CONTEXT('2D SPACE',''
  ) );
#552 = ORIENTED_EDGE('',*,*,#83,.T.);
#553 = ORIENTED_EDGE('',*,*,#321,.F.);
#554 = ORIENTED_EDGE('',*,*,#555,.F.);
#555 = EDGE_CURVE('',#533,#322,#556,.T.);
#556 = SURFACE_CURVE('',#557,(#562,#569),.PCURVE_S1.);
#557 = CIRCLE('',#558,44.75);
#558 = AXIS2_PLACEMENT_3D('',#559,#560,#561);
#559 = CARTESIAN_POINT('',(0.,0.,69.9));
#560 = DIRECTION('',(0.,0.,1.));
#561 = DIRECTION('',(1.,0.,0.));
#562 = PCURVE('',#100,#563);
#563 = DEFINITIONAL_REPRESENTATION('',(#564),#568);
#564 = CIRCLE('',#565,44.75);
#565 = AXIS2_PLACEMENT_2D('',#566,#567);
#566 = CARTESIAN_POINT('',(1.882068139409E-15,1.61343992693E-17));
#567 = DIRECTION('',(1.,0.));
#568 = ( GEOMETRIC_REPRESENTATION_CONTEXT(2) 
PARAMETRIC_REPRESENTATION_CONTEXT() REPRESENTATION_CONTEXT('2D SPACE',''
  ) );
#569 = PCURVE('',#357,#570);
#570 = DEFINITIONAL_REPRESENTATION('',(#571),#575);
#571 = LINE('',#572,#573);
#572 = CARTESIAN_POINT('',(-0.,0.));
#573 = VECTOR('',#574,1.);
#574 = DIRECTION('',(-1.,0.));
#575 = ( GEOMETRIC_REPRESENTATION_CONTEXT(2) 
PARAMETRIC_REPRESENTATION_CONTEXT() REPRESENTATION_CONTEXT('2D SPACE',''
  ) );
#576 = ADVANCED_FACE('',(#577),#72,.F.);
#577 = FACE_BOUND('',#578,.F.);
#578 = EDGE_LOOP('',(#579,#608,#757,#783,#809,#842,#863,#884,#905,#924,
    #925,#926));
#579 = ORIENTED_EDGE('',*,*,#580,.T.);
#580 = EDGE_CURVE('',#140,#581,#583,.T.);
#581 = VERTEX_POINT('',#582);
#582 = CARTESIAN_POINT('',(37.795496600522,3.216713912751E-03,
    0.424606236484));
#583 = SURFACE_CURVE('',#584,(#590,#599),.PCURVE_S1.);
#584 = B_SPLINE_CURVE_WITH_KNOTS('',4,(#585,#586,#587,#588,#589),
  .UNSPECIFIED.,.F.,.F.,(5,5),(0.,1.),.PIECEWISE_BEZIER_KNOTS.);
#585 = CARTESIAN_POINT('',(37.799999863132,3.216713912751E-03,0.));
#586 = CARTESIAN_POINT('',(37.798871932963,3.216713912751E-03,
    0.106151546809));
#587 = CARTESIAN_POINT('',(37.797745406425,3.216713912751E-03,
    0.212303101828));
#588 = CARTESIAN_POINT('',(37.796620292549,3.216713912751E-03,
    0.318454665056));
#589 = CARTESIAN_POINT('',(37.795496600522,3.216713912751E-03,
    0.424606236484));
#590 = PCURVE('',#72,#591);
#591 = DEFINITIONAL_REPRESENTATION('',(#592),#598);
#592 = B_SPLINE_CURVE_WITH_KNOTS('',4,(#593,#594,#595,#596,#597),
  .UNSPECIFIED.,.F.,.F.,(5,5),(0.,1.),.PIECEWISE_BEZIER_KNOTS.);
#593 = CARTESIAN_POINT('',(50.,137.79999986313));
#594 = CARTESIAN_POINT('',(50.106151546809,137.79887193296));
#595 = CARTESIAN_POINT('',(50.212303101828,137.79774540642));
#596 = CARTESIAN_POINT('',(50.318454665056,137.79662029254));
#597 = CARTESIAN_POINT('',(50.424606236484,137.79549660052));
#598 = ( GEOMETRIC_REPRESENTATION_CONTEXT(2) 
PARAMETRIC_REPRESENTATION_CONTEXT() REPRESENTATION_CONTEXT('2D SPACE',''
  ) );
#599 = PCURVE('',#241,#600);
#600 = DEFINITIONAL_REPRESENTATION('',(#601),#607);
#601 = B_SPLINE_CURVE_WITH_KNOTS('',4,(#602,#603,#604,#605,#606),
  .UNSPECIFIED.,.F.,.F.,(5,5),(0.,1.),.PIECEWISE_BEZIER_KNOTS.);
#602 = CARTESIAN_POINT('',(-73.49799604417,0.));
#603 = CARTESIAN_POINT('',(-73.49849488436,1.072237846559E-03));
#604 = CARTESIAN_POINT('',(-73.49899515091,2.144475776043E-03));
#605 = CARTESIAN_POINT('',(-73.49949685301,3.216713788446E-03));
#606 = CARTESIAN_POINT('',(-73.5,4.288951883677E-03));
#607 = ( GEOMETRIC_REPRESENTATION_CONTEXT(2) 
PARAMETRIC_REPRESENTATION_CONTEXT() REPRESENTATION_CONTEXT('2D SPACE',''
  ) );
#608 = ORIENTED_EDGE('',*,*,#609,.T.);
#609 = EDGE_CURVE('',#581,#610,#612,.T.);
#610 = VERTEX_POINT('',#611);
#611 = CARTESIAN_POINT('',(37.499993101803,3.216713912751E-03,99.));
#612 = SURFACE_CURVE('',#613,(#652,#694),.PCURVE_S1.);
#613 = B_SPLINE_CURVE_WITH_KNOTS('',7,(#614,#615,#616,#617,#618,#619,
    #620,#621,#622,#623,#624,#625,#626,#627,#628,#629,#630,#631,#632,
    #633,#634,#635,#636,#637,#638,#639,#640,#641,#642,#643,#644,#645,
    #646,#647,#648,#649,#650,#651),.UNSPECIFIED.,.F.,.F.,(8,6,6,6,6,6,8)
  ,(0.,7.444463539427E-02,0.19473740372,0.376729374166,0.55863294258,
    0.969467266241,1.),.UNSPECIFIED.);
#614 = CARTESIAN_POINT('',(37.795496600522,3.216713912751E-03,
    0.424606236484));
#615 = CARTESIAN_POINT('',(37.784486232802,3.216713912751E-03,
    1.472576124453));
#616 = CARTESIAN_POINT('',(37.774078252353,3.216713912751E-03,
    2.520527814157));
#617 = CARTESIAN_POINT('',(37.764298146723,3.216713912751E-03,
    3.568464673152));
#618 = CARTESIAN_POINT('',(37.755161014797,3.216713912751E-03,
    4.616391443341));
#619 = CARTESIAN_POINT('',(37.746666482676,3.216713912751E-03,
    5.664313788188));
#620 = CARTESIAN_POINT('',(37.738798259306,3.216713912751E-03,
    6.712237707624));
#621 = CARTESIAN_POINT('',(37.719781082469,3.216713912751E-03,
    9.453488076345));
#622 = CARTESIAN_POINT('',(37.709595891579,3.216713912751E-03,
    11.14682603285));
#623 = CARTESIAN_POINT('',(37.700855424893,3.216713912751E-03,
    12.840205670887));
#624 = CARTESIAN_POINT('',(37.693358080667,3.216713912751E-03,
    14.533645750873));
#625 = CARTESIAN_POINT('',(37.686875443827,3.216713912751E-03,
    16.227154096293));
#626 = CARTESIAN_POINT('',(37.68121273103,3.216713912751E-03,
    17.920731107828));
#627 = CARTESIAN_POINT('',(37.668623150032,3.216713912751E-03,
    22.176696158487));
#628 = CARTESIAN_POINT('',(37.662538157324,3.216713912751E-03,
    24.739168149203));
#629 = CARTESIAN_POINT('',(37.657369123469,3.216713912751E-03,
    27.30177566164));
#630 = CARTESIAN_POINT('',(37.652712013809,3.216713912751E-03,
    29.864494001434));
#631 = CARTESIAN_POINT('',(37.648340621158,3.216713912751E-03,
    32.427300987111));
#632 = CARTESIAN_POINT('',(37.64409305003,3.216713912751E-03,
    34.990178229651));
#633 = CARTESIAN_POINT('',(37.635642364291,3.216713912751E-03,
    40.114800560927));
#634 = CARTESIAN_POINT('',(37.631438885845,3.216713912751E-03,
    42.676546319639));
#635 = CARTESIAN_POINT('',(37.627152687144,3.216713912751E-03,
    45.238337133044));
#636 = CARTESIAN_POINT('',(37.622729867682,3.216713912751E-03,
    47.8001633524));
#637 = CARTESIAN_POINT('',(37.618140714134,3.216713912751E-03,
    50.362017691611));
#638 = CARTESIAN_POINT('',(37.613366381798,3.216713912751E-03,
    52.923895090678));
#639 = CARTESIAN_POINT('',(37.597175883693,3.216713912751E-03,
    61.271909627469));
#640 = CARTESIAN_POINT('',(37.584961951229,3.216713912751E-03,
    67.058122000603));
#641 = CARTESIAN_POINT('',(37.571648184461,3.216713912751E-03,
    72.844393205691));
#642 = CARTESIAN_POINT('',(37.557321346263,3.216713912751E-03,
    78.630701117722));
#643 = CARTESIAN_POINT('',(37.542039039641,3.216713912751E-03,
    84.417032128806));
#644 = CARTESIAN_POINT('',(37.525881059143,3.216713912751E-03,
    90.203380258518));
#645 = CARTESIAN_POINT('',(37.507652169882,3.216713912751E-03,
    96.419782179988));
#646 = CARTESIAN_POINT('',(37.506386666691,3.216713912751E-03,
    96.849818303643));
#647 = CARTESIAN_POINT('',(37.505116719802,3.216713912751E-03,
    97.279854501635));
#648 = CARTESIAN_POINT('',(37.503842356905,3.216713912751E-03,
    97.709890772066));
#649 = CARTESIAN_POINT('',(37.502563605517,3.216713912751E-03,
    98.139927113105));
#650 = CARTESIAN_POINT('',(37.501280492988,3.216713912751E-03,
    98.569963522984));
#651 = CARTESIAN_POINT('',(37.4999930465,3.216713912751E-03,99.));
#652 = PCURVE('',#72,#653);
#653 = DEFINITIONAL_REPRESENTATION('',(#654),#693);
#654 = B_SPLINE_CURVE_WITH_KNOTS('',7,(#655,#656,#657,#658,#659,#660,
    #661,#662,#663,#664,#665,#666,#667,#668,#669,#670,#671,#672,#673,
    #674,#675,#676,#677,#678,#679,#680,#681,#682,#683,#684,#685,#686,
    #687,#688,#689,#690,#691,#692),.UNSPECIFIED.,.F.,.F.,(8,6,6,6,6,6,8)
  ,(0.,7.444463539427E-02,0.19473740372,0.376729374166,0.55863294258,
    0.969467266241,1.),.UNSPECIFIED.);
#655 = CARTESIAN_POINT('',(50.424606236484,137.79549660052));
#656 = CARTESIAN_POINT('',(51.472576124453,137.7844862328));
#657 = CARTESIAN_POINT('',(52.520527814157,137.77407825235));
#658 = CARTESIAN_POINT('',(53.568464673152,137.76429814672));
#659 = CARTESIAN_POINT('',(54.616391443341,137.75516101479));
#660 = CARTESIAN_POINT('',(55.664313788188,137.74666648267));
#661 = CARTESIAN_POINT('',(56.712237707624,137.7387982593));
#662 = CARTESIAN_POINT('',(59.453488076345,137.71978108246));
#663 = CARTESIAN_POINT('',(61.14682603285,137.70959589157));
#664 = CARTESIAN_POINT('',(62.840205670887,137.70085542489));
#665 = CARTESIAN_POINT('',(64.533645750873,137.69335808066));
#666 = CARTESIAN_POINT('',(66.227154096293,137.68687544382));
#667 = CARTESIAN_POINT('',(67.920731107828,137.68121273103));
#668 = CARTESIAN_POINT('',(72.176696158487,137.66862315003));
#669 = CARTESIAN_POINT('',(74.739168149203,137.66253815732));
#670 = CARTESIAN_POINT('',(77.30177566164,137.65736912346));
#671 = CARTESIAN_POINT('',(79.864494001434,137.6527120138));
#672 = CARTESIAN_POINT('',(82.427300987111,137.64834062115));
#673 = CARTESIAN_POINT('',(84.990178229651,137.64409305003));
#674 = CARTESIAN_POINT('',(90.114800560927,137.63564236429));
#675 = CARTESIAN_POINT('',(92.676546319639,137.63143888584));
#676 = CARTESIAN_POINT('',(95.238337133044,137.62715268714));
#677 = CARTESIAN_POINT('',(97.8001633524,137.62272986768));
#678 = CARTESIAN_POINT('',(100.36201769161,137.61814071413));
#679 = CARTESIAN_POINT('',(102.92389509067,137.61336638179));
#680 = CARTESIAN_POINT('',(111.27190962746,137.59717588369));
#681 = CARTESIAN_POINT('',(117.0581220006,137.58496195122));
#682 = CARTESIAN_POINT('',(122.84439320569,137.57164818446));
#683 = CARTESIAN_POINT('',(128.63070111772,137.55732134626));
#684 = CARTESIAN_POINT('',(134.4170321288,137.54203903964));
#685 = CARTESIAN_POINT('',(140.20338025851,137.52588105914));
#686 = CARTESIAN_POINT('',(146.41978217998,137.50765216988));
#687 = CARTESIAN_POINT('',(146.84981830364,137.50638666669));
#688 = CARTESIAN_POINT('',(147.27985450163,137.5051167198));
#689 = CARTESIAN_POINT('',(147.70989077206,137.5038423569));
#690 = CARTESIAN_POINT('',(148.1399271131,137.50256360551));
#691 = CARTESIAN_POINT('',(148.56996352298,137.50128049298));
#692 = CARTESIAN_POINT('',(149.,137.4999930465));
#693 = ( GEOMETRIC_REPRESENTATION_CONTEXT(2) 
PARAMETRIC_REPRESENTATION_CONTEXT() REPRESENTATION_CONTEXT('2D SPACE',''
  ) );
#694 = PCURVE('',#695,#716);
#695 = B_SPLINE_SURFACE_WITH_KNOTS('',9,1,(
    (#696,#697)
    ,(#698,#699)
    ,(#700,#701)
    ,(#702,#703)
    ,(#704,#705)
    ,(#706,#707)
    ,(#708,#709)
    ,(#710,#711)
    ,(#712,#713)
    ,(#714,#715
    )),.UNSPECIFIED.,.F.,.F.,.F.,(10,10),(2,2),(3.14159265359,
    6.28318530718),(0.,1.),.PIECEWISE_BEZIER_KNOTS.);
#696 = CARTESIAN_POINT('',(37.792130737918,-0.771267974243,0.));
#697 = CARTESIAN_POINT('',(36.75,-0.75,99.));
#698 = CARTESIAN_POINT('',(37.793879402147,-0.685583427015,0.));
#699 = CARTESIAN_POINT('',(37.011799387799,-0.75,99.));
#700 = CARTESIAN_POINT('',(37.795409506102,-0.599894419434,0.));
#701 = CARTESIAN_POINT('',(37.273601492499,-0.647191900061,
    98.999999999999));
#702 = CARTESIAN_POINT('',(37.796721043281,-0.514201588687,0.));
#703 = CARTESIAN_POINT('',(37.48924283384,-0.44157278914,99.000000000004
    ));
#704 = CARTESIAN_POINT('',(37.797814007183,-0.428505571955,0.));
#705 = CARTESIAN_POINT('',(37.612680472816,-0.157317457926,
    98.999999999993));
#706 = CARTESIAN_POINT('',(37.798688391308,-0.342807006425,0.));
#707 = CARTESIAN_POINT('',(37.612680472822,0.157317457926,
    99.000000000007));
#708 = CARTESIAN_POINT('',(37.799344189153,-0.25710652928,0.));
#709 = CARTESIAN_POINT('',(37.489242833835,0.44157278914,98.999999999994
    ));
#710 = CARTESIAN_POINT('',(37.799781394217,-0.171404777705,0.));
#711 = CARTESIAN_POINT('',(37.2736014925,0.647191900061,99.000000000003)
  );
#712 = CARTESIAN_POINT('',(37.8,-8.570238888347E-02,0.));
#713 = CARTESIAN_POINT('',(37.011799387799,0.75,98.999999999999));
#714 = CARTESIAN_POINT('',(37.8,-9.27036225562E-15,0.));
#715 = CARTESIAN_POINT('',(36.75,0.75,99.));
#716 = DEFINITIONAL_REPRESENTATION('',(#717),#756);
#717 = B_SPLINE_CURVE_WITH_KNOTS('',7,(#718,#719,#720,#721,#722,#723,
    #724,#725,#726,#727,#728,#729,#730,#731,#732,#733,#734,#735,#736,
    #737,#738,#739,#740,#741,#742,#743,#744,#745,#746,#747,#748,#749,
    #750,#751,#752,#753,#754,#755),.UNSPECIFIED.,.F.,.F.,(8,6,6,6,6,6,8)
  ,(0.,7.444463539427E-02,0.19473740372,0.376729374166,0.55863294258,
    0.969467266241,1.),.UNSPECIFIED.);
#718 = CARTESIAN_POINT('',(6.28318530718,4.28895188368E-03));
#719 = CARTESIAN_POINT('',(6.250709797006,1.487450630761E-02));
#720 = CARTESIAN_POINT('',(6.21744557306,2.545987691068E-02));
#721 = CARTESIAN_POINT('',(6.183525931298,3.604509770861E-02));
#722 = CARTESIAN_POINT('',(6.149120208428,4.66302165994E-02));
#723 = CARTESIAN_POINT('',(6.114421607825,5.721529078978E-02));
#724 = CARTESIAN_POINT('',(6.079629603808,6.780038088509E-02));
#725 = CARTESIAN_POINT('',(5.98885194505,9.548977854894E-02));
#726 = CARTESIAN_POINT('',(5.933010724573,0.112594202352));
#727 = CARTESIAN_POINT('',(5.878175818595,0.129699047181));
#728 = CARTESIAN_POINT('',(5.825030734921,0.146804502534));
#729 = CARTESIAN_POINT('',(5.77395167175,0.163910647437));
#730 = CARTESIAN_POINT('',(5.725114306725,0.181017485938));
#731 = CARTESIAN_POINT('',(5.608146931779,0.224007031904));
#732 = CARTESIAN_POINT('',(5.542969015149,0.249890587366));
#733 = CARTESIAN_POINT('',(5.483204952483,0.275775511734));
#734 = CARTESIAN_POINT('',(5.428342744793,0.30166155557));
#735 = CARTESIAN_POINT('',(5.37784971102,0.327548494819));
#736 = CARTESIAN_POINT('',(5.331222311046,0.353436143734));
#737 = CARTESIAN_POINT('',(5.244832386812,0.405200005666));
#738 = CARTESIAN_POINT('',(5.205066841876,0.431076225451));
#739 = CARTESIAN_POINT('',(5.168275287732,0.456952900334));
#740 = CARTESIAN_POINT('',(5.134077994546,0.482829932853));
#741 = CARTESIAN_POINT('',(5.102161212276,0.50870724941));
#742 = CARTESIAN_POINT('',(5.072268105382,0.534584798896));
#743 = CARTESIAN_POINT('',(4.980741720974,0.618908178055));
#744 = CARTESIAN_POINT('',(4.926511109839,0.677354767683));
#745 = CARTESIAN_POINT('',(4.878980141188,0.735801951573));
#746 = CARTESIAN_POINT('',(4.836719326568,0.794249506239));
#747 = CARTESIAN_POINT('',(4.798713229686,0.85269729423));
#748 = CARTESIAN_POINT('',(4.764235289529,0.911145255137));
#749 = CARTESIAN_POINT('',(4.730389192199,0.973937193737));
#750 = CARTESIAN_POINT('',(4.728064221807,0.978280992966));
#751 = CARTESIAN_POINT('',(4.725755447295,0.982624792946));
#752 = CARTESIAN_POINT('',(4.723462646713,0.986968593657));
#753 = CARTESIAN_POINT('',(4.721185603214,0.991312395082));
#754 = CARTESIAN_POINT('',(4.718924105047,0.995656197202));
#755 = CARTESIAN_POINT('',(4.716677945562,1.));
#756 = ( GEOMETRIC_REPRESENTATION_CONTEXT(2) 
PARAMETRIC_REPRESENTATION_CONTEXT() REPRESENTATION_CONTEXT('2D SPACE',''
  ) );
#757 = ORIENTED_EDGE('',*,*,#758,.F.);
#758 = EDGE_CURVE('',#759,#610,#761,.T.);
#759 = VERTEX_POINT('',#760);
#760 = CARTESIAN_POINT('',(37.499993101374,3.216813912758E-03,107.5));
#761 = SURFACE_CURVE('',#762,(#766,#772),.PCURVE_S1.);
#762 = LINE('',#763,#764);
#763 = CARTESIAN_POINT('',(37.499993101374,3.216813912758E-03,99.));
#764 = VECTOR('',#765,1.);
#765 = DIRECTION('',(0.,0.,-1.));
#766 = PCURVE('',#72,#767);
#767 = DEFINITIONAL_REPRESENTATION('',(#768),#771);
#768 = B_SPLINE_CURVE_WITH_KNOTS('',1,(#769,#770),.UNSPECIFIED.,.F.,.F.,
  (2,2),(-8.5000006,6.000000070117E-07),.PIECEWISE_BEZIER_KNOTS.);
#769 = CARTESIAN_POINT('',(157.5000006,137.49999310137));
#770 = CARTESIAN_POINT('',(148.9999994,137.49999310137));
#771 = ( GEOMETRIC_REPRESENTATION_CONTEXT(2) 
PARAMETRIC_REPRESENTATION_CONTEXT() REPRESENTATION_CONTEXT('2D SPACE',''
  ) );
#772 = PCURVE('',#773,#778);
#773 = CYLINDRICAL_SURFACE('',#774,0.75);
#774 = AXIS2_PLACEMENT_3D('',#775,#776,#777);
#775 = CARTESIAN_POINT('',(36.75,0.,99.));
#776 = DIRECTION('',(0.,0.,-1.));
#777 = DIRECTION('',(0.,1.,0.));
#778 = DEFINITIONAL_REPRESENTATION('',(#779),#782);
#779 = B_SPLINE_CURVE_WITH_KNOTS('',1,(#780,#781),.UNSPECIFIED.,.F.,.F.,
  (2,2),(-8.5000006,6.000000070117E-07),.PIECEWISE_BEZIER_KNOTS.);
#780 = CARTESIAN_POINT('',(1.566507228427,-8.5000006));
#781 = CARTESIAN_POINT('',(1.566507228427,6.000000070117E-07));
#782 = ( GEOMETRIC_REPRESENTATION_CONTEXT(2) 
PARAMETRIC_REPRESENTATION_CONTEXT() REPRESENTATION_CONTEXT('2D SPACE',''
  ) );
#783 = ORIENTED_EDGE('',*,*,#784,.T.);
#784 = EDGE_CURVE('',#759,#785,#787,.T.);
#785 = VERTEX_POINT('',#786);
#786 = CARTESIAN_POINT('',(37.499993101374,3.216813912758E-03,108.2));
#787 = SURFACE_CURVE('',#788,(#792,#798),.PCURVE_S1.);
#788 = LINE('',#789,#790);
#789 = CARTESIAN_POINT('',(37.499993101374,3.216813912758E-03,107.5));
#790 = VECTOR('',#791,1.);
#791 = DIRECTION('',(-0.,-0.,1.));
#792 = PCURVE('',#72,#793);
#793 = DEFINITIONAL_REPRESENTATION('',(#794),#797);
#794 = B_SPLINE_CURVE_WITH_KNOTS('',1,(#795,#796),.UNSPECIFIED.,.F.,.F.,
  (2,2),(0.,0.7),.PIECEWISE_BEZIER_KNOTS.);
#795 = CARTESIAN_POINT('',(157.5,137.49999310137));
#796 = CARTESIAN_POINT('',(158.2,137.49999310137));
#797 = ( GEOMETRIC_REPRESENTATION_CONTEXT(2) 
PARAMETRIC_REPRESENTATION_CONTEXT() REPRESENTATION_CONTEXT('2D SPACE',''
  ) );
#798 = PCURVE('',#799,#804);
#799 = CYLINDRICAL_SURFACE('',#800,0.75);
#800 = AXIS2_PLACEMENT_3D('',#801,#802,#803);
#801 = CARTESIAN_POINT('',(36.75,0.,107.5));
#802 = DIRECTION('',(-0.,-0.,1.));
#803 = DIRECTION('',(0.,1.,0.));
#804 = DEFINITIONAL_REPRESENTATION('',(#805),#808);
#805 = B_SPLINE_CURVE_WITH_KNOTS('',1,(#806,#807),.UNSPECIFIED.,.F.,.F.,
  (2,2),(0.,0.7),.PIECEWISE_BEZIER_KNOTS.);
#806 = CARTESIAN_POINT('',(-1.566507228427,0.));
#807 = CARTESIAN_POINT('',(-1.566507228427,0.7));
#808 = ( GEOMETRIC_REPRESENTATION_CONTEXT(2) 
PARAMETRIC_REPRESENTATION_CONTEXT() REPRESENTATION_CONTEXT('2D SPACE',''
  ) );
#809 = ORIENTED_EDGE('',*,*,#810,.T.);
#810 = EDGE_CURVE('',#785,#811,#813,.T.);
#811 = VERTEX_POINT('',#812);
#812 = CARTESIAN_POINT('',(38.299996661967,3.216813912758E-03,109.));
#813 = SURFACE_CURVE('',#814,(#819,#826),.PCURVE_S1.);
#814 = HYPERBOLA('',#815,3.216813912758E-03,3.216813912758E-03);
#815 = AXIS2_PLACEMENT_3D('',#816,#817,#818);
#816 = CARTESIAN_POINT('',(36.75,3.216813912758E-03,107.45));
#817 = DIRECTION('',(0.,1.,0.));
#818 = DIRECTION('',(-0.,0.,1.));
#819 = PCURVE('',#72,#820);
#820 = DEFINITIONAL_REPRESENTATION('',(#821),#825);
#821 = ( BOUNDED_CURVE() B_SPLINE_CURVE(2,(#822,#823,#824),
.UNSPECIFIED.,.F.,.F.) B_SPLINE_CURVE_WITH_KNOTS((3,3),(6.144824386374,
6.870764912066),.PIECEWISE_BEZIER_KNOTS.) CURVE() 
GEOMETRIC_REPRESENTATION_ITEM() RATIONAL_B_SPLINE_CURVE((1.,
1.066600113623,1.)) REPRESENTATION_ITEM('') );
#822 = CARTESIAN_POINT('',(158.2,137.49999310137));
#823 = CARTESIAN_POINT('',(158.46086832674,137.76086382765));
#824 = CARTESIAN_POINT('',(159.,138.29999666196));
#825 = ( GEOMETRIC_REPRESENTATION_CONTEXT(2) 
PARAMETRIC_REPRESENTATION_CONTEXT() REPRESENTATION_CONTEXT('2D SPACE',''
  ) );
#826 = PCURVE('',#827,#832);
#827 = CONICAL_SURFACE('',#828,0.75,0.785398163397);
#828 = AXIS2_PLACEMENT_3D('',#829,#830,#831);
#829 = CARTESIAN_POINT('',(36.75,0.,108.2));
#830 = DIRECTION('',(-0.,-0.,1.));
#831 = DIRECTION('',(0.,1.,0.));
#832 = DEFINITIONAL_REPRESENTATION('',(#833),#841);
#833 = B_SPLINE_CURVE_WITH_KNOTS('',6,(#834,#835,#836,#837,#838,#839,
    #840),.UNSPECIFIED.,.F.,.F.,(7,7),(6.144824386374,6.870764912066),
  .PIECEWISE_BEZIER_KNOTS.);
#834 = CARTESIAN_POINT('',(-1.566507228427,9.436895709314E-16));
#835 = CARTESIAN_POINT('',(-1.567026165223,9.074173104613E-02));
#836 = CARTESIAN_POINT('',(-1.567469759641,0.194658331415));
#837 = CARTESIAN_POINT('',(-1.567851682089,0.314139873686));
#838 = CARTESIAN_POINT('',(-1.568182307807,0.452159197661));
#839 = CARTESIAN_POINT('',(-1.568469863041,0.612465768065));
#840 = CARTESIAN_POINT('',(-1.56872096149,0.8));
#841 = ( GEOMETRIC_REPRESENTATION_CONTEXT(2) 
PARAMETRIC_REPRESENTATION_CONTEXT() REPRESENTATION_CONTEXT('2D SPACE',''
  ) );
#842 = ORIENTED_EDGE('',*,*,#843,.F.);
#843 = EDGE_CURVE('',#844,#811,#846,.T.);
#844 = VERTEX_POINT('',#845);
#845 = CARTESIAN_POINT('',(39.749999869838,3.216813912758E-03,109.));
#846 = SURFACE_CURVE('',#847,(#851,#857),.PCURVE_S1.);
#847 = LINE('',#848,#849);
#848 = CARTESIAN_POINT('',(-50.,3.216813912758E-03,109.));
#849 = VECTOR('',#850,1.);
#850 = DIRECTION('',(-1.,0.,0.));
#851 = PCURVE('',#72,#852);
#852 = DEFINITIONAL_REPRESENTATION('',(#853),#856);
#853 = B_SPLINE_CURVE_WITH_KNOTS('',1,(#854,#855),.UNSPECIFIED.,.F.,.F.,
  (2,2),(-89.75,-10.25),.PIECEWISE_BEZIER_KNOTS.);
#854 = CARTESIAN_POINT('',(159.,139.75));
#855 = CARTESIAN_POINT('',(159.,60.25));
#856 = ( GEOMETRIC_REPRESENTATION_CONTEXT(2) 
PARAMETRIC_REPRESENTATION_CONTEXT() REPRESENTATION_CONTEXT('2D SPACE',''
  ) );
#857 = PCURVE('',#435,#858);
#858 = DEFINITIONAL_REPRESENTATION('',(#859),#862);
#859 = B_SPLINE_CURVE_WITH_KNOTS('',1,(#860,#861),.UNSPECIFIED.,.F.,.F.,
  (2,2),(-89.75,-10.25),.PIECEWISE_BEZIER_KNOTS.);
#860 = CARTESIAN_POINT('',(39.75,3.216813912757E-03));
#861 = CARTESIAN_POINT('',(-39.75,3.216813912757E-03));
#862 = ( GEOMETRIC_REPRESENTATION_CONTEXT(2) 
PARAMETRIC_REPRESENTATION_CONTEXT() REPRESENTATION_CONTEXT('2D SPACE',''
  ) );
#863 = ORIENTED_EDGE('',*,*,#864,.T.);
#864 = EDGE_CURVE('',#844,#865,#867,.T.);
#865 = VERTEX_POINT('',#866);
#866 = CARTESIAN_POINT('',(39.749999869838,3.216813912758E-03,80.7));
#867 = SURFACE_CURVE('',#868,(#872,#878),.PCURVE_S1.);
#868 = LINE('',#869,#870);
#869 = CARTESIAN_POINT('',(39.749999869838,3.216813912758E-03,80.7));
#870 = VECTOR('',#871,1.);
#871 = DIRECTION('',(-0.,-0.,-1.));
#872 = PCURVE('',#72,#873);
#873 = DEFINITIONAL_REPRESENTATION('',(#874),#877);
#874 = B_SPLINE_CURVE_WITH_KNOTS('',1,(#875,#876),.UNSPECIFIED.,.F.,.F.,
  (2,2),(-28.3000006,6.000000070117E-07),.PIECEWISE_BEZIER_KNOTS.);
#875 = CARTESIAN_POINT('',(159.0000006,139.74999986983));
#876 = CARTESIAN_POINT('',(130.6999994,139.74999986983));
#877 = ( GEOMETRIC_REPRESENTATION_CONTEXT(2) 
PARAMETRIC_REPRESENTATION_CONTEXT() REPRESENTATION_CONTEXT('2D SPACE',''
  ) );
#878 = PCURVE('',#409,#879);
#879 = DEFINITIONAL_REPRESENTATION('',(#880),#883);
#880 = B_SPLINE_CURVE_WITH_KNOTS('',1,(#881,#882),.UNSPECIFIED.,.F.,.F.,
  (2,2),(-28.3000006,6.000000070117E-07),.PIECEWISE_BEZIER_KNOTS.);
#881 = CARTESIAN_POINT('',(-8.092613625834E-05,-28.3000006));
#882 = CARTESIAN_POINT('',(-8.092613625834E-05,6.000000070117E-07));
#883 = ( GEOMETRIC_REPRESENTATION_CONTEXT(2) 
PARAMETRIC_REPRESENTATION_CONTEXT() REPRESENTATION_CONTEXT('2D SPACE',''
  ) );
#884 = ORIENTED_EDGE('',*,*,#885,.F.);
#885 = EDGE_CURVE('',#886,#865,#888,.T.);
#886 = VERTEX_POINT('',#887);
#887 = CARTESIAN_POINT('',(44.749999884381,3.216813912758E-03,80.7));
#888 = SURFACE_CURVE('',#889,(#893,#899),.PCURVE_S1.);
#889 = LINE('',#890,#891);
#890 = CARTESIAN_POINT('',(-50.,3.216813912758E-03,80.7));
#891 = VECTOR('',#892,1.);
#892 = DIRECTION('',(-1.,0.,0.));
#893 = PCURVE('',#72,#894);
#894 = DEFINITIONAL_REPRESENTATION('',(#895),#898);
#895 = B_SPLINE_CURVE_WITH_KNOTS('',1,(#896,#897),.UNSPECIFIED.,.F.,.F.,
  (2,2),(-94.75,-5.25),.PIECEWISE_BEZIER_KNOTS.);
#896 = CARTESIAN_POINT('',(130.7,144.75));
#897 = CARTESIAN_POINT('',(130.7,55.25));
#898 = ( GEOMETRIC_REPRESENTATION_CONTEXT(2) 
PARAMETRIC_REPRESENTATION_CONTEXT() REPRESENTATION_CONTEXT('2D SPACE',''
  ) );
#899 = PCURVE('',#383,#900);
#900 = DEFINITIONAL_REPRESENTATION('',(#901),#904);
#901 = B_SPLINE_CURVE_WITH_KNOTS('',1,(#902,#903),.UNSPECIFIED.,.F.,.F.,
  (2,2),(-94.75,-5.25),.PIECEWISE_BEZIER_KNOTS.);
#902 = CARTESIAN_POINT('',(44.75,3.216813912754E-03));
#903 = CARTESIAN_POINT('',(-44.75,3.216813912754E-03));
#904 = ( GEOMETRIC_REPRESENTATION_CONTEXT(2) 
PARAMETRIC_REPRESENTATION_CONTEXT() REPRESENTATION_CONTEXT('2D SPACE',''
  ) );
#905 = ORIENTED_EDGE('',*,*,#906,.T.);
#906 = EDGE_CURVE('',#886,#533,#907,.T.);
#907 = SURFACE_CURVE('',#908,(#912,#918),.PCURVE_S1.);
#908 = LINE('',#909,#910);
#909 = CARTESIAN_POINT('',(44.749999884381,3.216813912758E-03,69.9));
#910 = VECTOR('',#911,1.);
#911 = DIRECTION('',(-0.,-0.,-1.));
#912 = PCURVE('',#72,#913);
#913 = DEFINITIONAL_REPRESENTATION('',(#914),#917);
#914 = B_SPLINE_CURVE_WITH_KNOTS('',1,(#915,#916),.UNSPECIFIED.,.F.,.F.,
  (2,2),(-10.8000006,6.000000070117E-07),.PIECEWISE_BEZIER_KNOTS.);
#915 = CARTESIAN_POINT('',(130.7000006,144.74999988438));
#916 = CARTESIAN_POINT('',(119.8999994,144.74999988438));
#917 = ( GEOMETRIC_REPRESENTATION_CONTEXT(2) 
PARAMETRIC_REPRESENTATION_CONTEXT() REPRESENTATION_CONTEXT('2D SPACE',''
  ) );
#918 = PCURVE('',#357,#919);
#919 = DEFINITIONAL_REPRESENTATION('',(#920),#923);
#920 = B_SPLINE_CURVE_WITH_KNOTS('',1,(#921,#922),.UNSPECIFIED.,.F.,.F.,
  (2,2),(-10.8000006,6.000000070117E-07),.PIECEWISE_BEZIER_KNOTS.);
#921 = CARTESIAN_POINT('',(-7.18841098442E-05,-10.8000006));
#922 = CARTESIAN_POINT('',(-7.18841098442E-05,6.000000070117E-07));
#923 = ( GEOMETRIC_REPRESENTATION_CONTEXT(2) 
PARAMETRIC_REPRESENTATION_CONTEXT() REPRESENTATION_CONTEXT('2D SPACE',''
  ) );
#924 = ORIENTED_EDGE('',*,*,#532,.F.);
#925 = ORIENTED_EDGE('',*,*,#57,.T.);
#926 = ORIENTED_EDGE('',*,*,#139,.T.);
#927 = ADVANCED_FACE('',(#928),#241,.F.);
#928 = FACE_BOUND('',#929,.F.);
#929 = EDGE_LOOP('',(#930,#931,#932,#954,#982));
#930 = ORIENTED_EDGE('',*,*,#580,.F.);
#931 = ORIENTED_EDGE('',*,*,#226,.T.);
#932 = ORIENTED_EDGE('',*,*,#933,.T.);
#933 = EDGE_CURVE('',#183,#934,#936,.T.);
#934 = VERTEX_POINT('',#935);
#935 = CARTESIAN_POINT('',(-36.75,0.75,99.));
#936 = SURFACE_CURVE('',#937,(#940,#947),.PCURVE_S1.);
#937 = B_SPLINE_CURVE_WITH_KNOTS('',1,(#938,#939),.UNSPECIFIED.,.F.,.F.,
  (2,2),(0.,1.),.PIECEWISE_BEZIER_KNOTS.);
#938 = CARTESIAN_POINT('',(-37.79213073791,0.771267974243,0.));
#939 = CARTESIAN_POINT('',(-36.75,0.75,99.));
#940 = PCURVE('',#241,#941);
#941 = DEFINITIONAL_REPRESENTATION('',(#942),#946);
#942 = LINE('',#943,#944);
#943 = CARTESIAN_POINT('',(0.,0.));
#944 = VECTOR('',#945,1.);
#945 = DIRECTION('',(0.,1.));
#946 = ( GEOMETRIC_REPRESENTATION_CONTEXT(2) 
PARAMETRIC_REPRESENTATION_CONTEXT() REPRESENTATION_CONTEXT('2D SPACE',''
  ) );
#947 = PCURVE('',#199,#948);
#948 = DEFINITIONAL_REPRESENTATION('',(#949),#953);
#949 = LINE('',#950,#951);
#950 = CARTESIAN_POINT('',(3.14159265359,0.));
#951 = VECTOR('',#952,1.);
#952 = DIRECTION('',(0.,1.));
#953 = ( GEOMETRIC_REPRESENTATION_CONTEXT(2) 
PARAMETRIC_REPRESENTATION_CONTEXT() REPRESENTATION_CONTEXT('2D SPACE',''
  ) );
#954 = ORIENTED_EDGE('',*,*,#955,.T.);
#955 = EDGE_CURVE('',#934,#956,#958,.T.);
#956 = VERTEX_POINT('',#957);
#957 = CARTESIAN_POINT('',(36.75,0.75,99.));
#958 = SURFACE_CURVE('',#959,(#963,#970),.PCURVE_S1.);
#959 = LINE('',#960,#961);
#960 = CARTESIAN_POINT('',(-36.75,0.75,99.));
#961 = VECTOR('',#962,1.);
#962 = DIRECTION('',(1.,0.,0.));
#963 = PCURVE('',#241,#964);
#964 = DEFINITIONAL_REPRESENTATION('',(#965),#969);
#965 = LINE('',#966,#967);
#966 = CARTESIAN_POINT('',(0.,1.));
#967 = VECTOR('',#968,1.);
#968 = DIRECTION('',(-1.,0.));
#969 = ( GEOMETRIC_REPRESENTATION_CONTEXT(2) 
PARAMETRIC_REPRESENTATION_CONTEXT() REPRESENTATION_CONTEXT('2D SPACE',''
  ) );
#970 = PCURVE('',#971,#976);
#971 = PLANE('',#972);
#972 = AXIS2_PLACEMENT_3D('',#973,#974,#975);
#973 = CARTESIAN_POINT('',(-36.75,0.75,99.));
#974 = DIRECTION('',(0.,1.,0.));
#975 = DIRECTION('',(1.,0.,0.));
#976 = DEFINITIONAL_REPRESENTATION('',(#977),#981);
#977 = LINE('',#978,#979);
#978 = CARTESIAN_POINT('',(0.,0.));
#979 = VECTOR('',#980,1.);
#980 = DIRECTION('',(1.,0.));
#981 = ( GEOMETRIC_REPRESENTATION_CONTEXT(2) 
PARAMETRIC_REPRESENTATION_CONTEXT() REPRESENTATION_CONTEXT('2D SPACE',''
  ) );
#982 = ORIENTED_EDGE('',*,*,#983,.F.);
#983 = EDGE_CURVE('',#581,#956,#984,.T.);
#984 = SURFACE_CURVE('',#985,(#988,#995),.PCURVE_S1.);
#985 = B_SPLINE_CURVE_WITH_KNOTS('',1,(#986,#987),.UNSPECIFIED.,.F.,.F.,
  (2,2),(0.,1.),.PIECEWISE_BEZIER_KNOTS.);
#986 = CARTESIAN_POINT('',(37.8,-7.105427357601E-15,0.));
#987 = CARTESIAN_POINT('',(36.75,0.75,99.));
#988 = PCURVE('',#241,#989);
#989 = DEFINITIONAL_REPRESENTATION('',(#990),#994);
#990 = LINE('',#991,#992);
#991 = CARTESIAN_POINT('',(-73.5,0.));
#992 = VECTOR('',#993,1.);
#993 = DIRECTION('',(0.,1.));
#994 = ( GEOMETRIC_REPRESENTATION_CONTEXT(2) 
PARAMETRIC_REPRESENTATION_CONTEXT() REPRESENTATION_CONTEXT('2D SPACE',''
  ) );
#995 = PCURVE('',#695,#996);
#996 = DEFINITIONAL_REPRESENTATION('',(#997),#1001);
#997 = LINE('',#998,#999);
#998 = CARTESIAN_POINT('',(6.28318530718,0.));
#999 = VECTOR('',#1000,1.);
#1000 = DIRECTION('',(0.,1.));
#1001 = ( GEOMETRIC_REPRESENTATION_CONTEXT(2) 
PARAMETRIC_REPRESENTATION_CONTEXT() REPRESENTATION_CONTEXT('2D SPACE',''
  ) );
#1002 = ADVANCED_FACE('',(#1003),#199,.F.);
#1003 = FACE_BOUND('',#1004,.F.);
#1004 = EDGE_LOOP('',(#1005,#1006,#1007,#1008));
#1005 = ORIENTED_EDGE('',*,*,#933,.F.);
#1006 = ORIENTED_EDGE('',*,*,#182,.T.);
#1007 = ORIENTED_EDGE('',*,*,#275,.T.);
#1008 = ORIENTED_EDGE('',*,*,#1009,.T.);
#1009 = EDGE_CURVE('',#276,#934,#1010,.T.);
#1010 = SURFACE_CURVE('',#1011,(#1016,#1023),.PCURVE_S1.);
#1011 = CIRCLE('',#1012,0.75);
#1012 = AXIS2_PLACEMENT_3D('',#1013,#1014,#1015);
#1013 = CARTESIAN_POINT('',(-36.75,0.,99.));
#1014 = DIRECTION('',(-0.,-0.,-1.));
#1015 = DIRECTION('',(0.,-1.,0.));
#1016 = PCURVE('',#199,#1017);
#1017 = DEFINITIONAL_REPRESENTATION('',(#1018),#1022);
#1018 = LINE('',#1019,#1020);
#1019 = CARTESIAN_POINT('',(6.28318530718,1.));
#1020 = VECTOR('',#1021,1.);
#1021 = DIRECTION('',(-1.,0.));
#1022 = ( GEOMETRIC_REPRESENTATION_CONTEXT(2) 
PARAMETRIC_REPRESENTATION_CONTEXT() REPRESENTATION_CONTEXT('2D SPACE',''
  ) );
#1023 = PCURVE('',#518,#1024);
#1024 = DEFINITIONAL_REPRESENTATION('',(#1025),#1028);
#1025 = B_SPLINE_CURVE_WITH_KNOTS('',1,(#1026,#1027),.UNSPECIFIED.,.F.,
  .F.,(2,2),(0.,3.14159265359),.PIECEWISE_BEZIER_KNOTS.);
#1026 = CARTESIAN_POINT('',(0.,0.));
#1027 = CARTESIAN_POINT('',(3.14159265359,0.));
#1028 = ( GEOMETRIC_REPRESENTATION_CONTEXT(2) 
PARAMETRIC_REPRESENTATION_CONTEXT() REPRESENTATION_CONTEXT('2D SPACE',''
  ) );
#1029 = ADVANCED_FACE('',(#1030),#518,.F.);
#1030 = FACE_BOUND('',#1031,.F.);
#1031 = EDGE_LOOP('',(#1032,#1033,#1034,#1057));
#1032 = ORIENTED_EDGE('',*,*,#1009,.F.);
#1033 = ORIENTED_EDGE('',*,*,#505,.F.);
#1034 = ORIENTED_EDGE('',*,*,#1035,.F.);
#1035 = EDGE_CURVE('',#1036,#480,#1038,.T.);
#1036 = VERTEX_POINT('',#1037);
#1037 = CARTESIAN_POINT('',(-36.75,0.75,107.5));
#1038 = SURFACE_CURVE('',#1039,(#1044,#1051),.PCURVE_S1.);
#1039 = CIRCLE('',#1040,0.75);
#1040 = AXIS2_PLACEMENT_3D('',#1041,#1042,#1043);
#1041 = CARTESIAN_POINT('',(-36.75,0.,107.5));
#1042 = DIRECTION('',(0.,-0.,1.));
#1043 = DIRECTION('',(0.,1.,0.));
#1044 = PCURVE('',#518,#1045);
#1045 = DEFINITIONAL_REPRESENTATION('',(#1046),#1050);
#1046 = LINE('',#1047,#1048);
#1047 = CARTESIAN_POINT('',(3.14159265359,-8.5));
#1048 = VECTOR('',#1049,1.);
#1049 = DIRECTION('',(-1.,-0.));
#1050 = ( GEOMETRIC_REPRESENTATION_CONTEXT(2) 
PARAMETRIC_REPRESENTATION_CONTEXT() REPRESENTATION_CONTEXT('2D SPACE',''
  ) );
#1051 = PCURVE('',#494,#1052);
#1052 = DEFINITIONAL_REPRESENTATION('',(#1053),#1056);
#1053 = B_SPLINE_CURVE_WITH_KNOTS('',1,(#1054,#1055),.UNSPECIFIED.,.F.,
  .F.,(2,2),(0.,3.14159265359),.PIECEWISE_BEZIER_KNOTS.);
#1054 = CARTESIAN_POINT('',(-3.14159265359,0.));
#1055 = CARTESIAN_POINT('',(0.,0.));
#1056 = ( GEOMETRIC_REPRESENTATION_CONTEXT(2) 
PARAMETRIC_REPRESENTATION_CONTEXT() REPRESENTATION_CONTEXT('2D SPACE',''
  ) );
#1057 = ORIENTED_EDGE('',*,*,#1058,.F.);
#1058 = EDGE_CURVE('',#934,#1036,#1059,.T.);
#1059 = SURFACE_CURVE('',#1060,(#1064,#1071),.PCURVE_S1.);
#1060 = LINE('',#1061,#1062);
#1061 = CARTESIAN_POINT('',(-36.75,0.75,99.));
#1062 = VECTOR('',#1063,1.);
#1063 = DIRECTION('',(0.,0.,1.));
#1064 = PCURVE('',#518,#1065);
#1065 = DEFINITIONAL_REPRESENTATION('',(#1066),#1070);
#1066 = LINE('',#1067,#1068);
#1067 = CARTESIAN_POINT('',(3.14159265359,0.));
#1068 = VECTOR('',#1069,1.);
#1069 = DIRECTION('',(0.,-1.));
#1070 = ( GEOMETRIC_REPRESENTATION_CONTEXT(2) 
PARAMETRIC_REPRESENTATION_CONTEXT() REPRESENTATION_CONTEXT('2D SPACE',''
  ) );
#1071 = PCURVE('',#971,#1072);
#1072 = DEFINITIONAL_REPRESENTATION('',(#1073),#1077);
#1073 = LINE('',#1074,#1075);
#1074 = CARTESIAN_POINT('',(0.,0.));
#1075 = VECTOR('',#1076,1.);
#1076 = DIRECTION('',(0.,-1.));
#1077 = ( GEOMETRIC_REPRESENTATION_CONTEXT(2) 
PARAMETRIC_REPRESENTATION_CONTEXT() REPRESENTATION_CONTEXT('2D SPACE',''
  ) );
#1078 = ADVANCED_FACE('',(#1079),#494,.F.);
#1079 = FACE_BOUND('',#1080,.T.);
#1080 = EDGE_LOOP('',(#1081,#1082,#1107,#1129));
#1081 = ORIENTED_EDGE('',*,*,#1035,.F.);
#1082 = ORIENTED_EDGE('',*,*,#1083,.T.);
#1083 = EDGE_CURVE('',#1036,#1084,#1086,.T.);
#1084 = VERTEX_POINT('',#1085);
#1085 = CARTESIAN_POINT('',(-36.75,0.75,108.2));
#1086 = SURFACE_CURVE('',#1087,(#1090,#1096),.PCURVE_S1.);
#1087 = B_SPLINE_CURVE_WITH_KNOTS('',1,(#1088,#1089),.UNSPECIFIED.,.F.,
  .F.,(2,2),(0.,1.),.PIECEWISE_BEZIER_KNOTS.);
#1088 = CARTESIAN_POINT('',(-36.75,0.75,107.5));
#1089 = CARTESIAN_POINT('',(-36.75,0.75,108.2));
#1090 = PCURVE('',#494,#1091);
#1091 = DEFINITIONAL_REPRESENTATION('',(#1092),#1095);
#1092 = B_SPLINE_CURVE_WITH_KNOTS('',1,(#1093,#1094),.UNSPECIFIED.,.F.,
  .F.,(2,2),(0.,1.),.PIECEWISE_BEZIER_KNOTS.);
#1093 = CARTESIAN_POINT('',(-3.14159265359,0.));
#1094 = CARTESIAN_POINT('',(-3.14159265359,0.7));
#1095 = ( GEOMETRIC_REPRESENTATION_CONTEXT(2) 
PARAMETRIC_REPRESENTATION_CONTEXT() REPRESENTATION_CONTEXT('2D SPACE',''
  ) );
#1096 = PCURVE('',#1097,#1102);
#1097 = PLANE('',#1098);
#1098 = AXIS2_PLACEMENT_3D('',#1099,#1100,#1101);
#1099 = CARTESIAN_POINT('',(-36.75,0.75,108.2));
#1100 = DIRECTION('',(0.,-1.,0.));
#1101 = DIRECTION('',(1.,0.,0.));
#1102 = DEFINITIONAL_REPRESENTATION('',(#1103),#1106);
#1103 = B_SPLINE_CURVE_WITH_KNOTS('',1,(#1104,#1105),.UNSPECIFIED.,.F.,
  .F.,(2,2),(0.,1.),.PIECEWISE_BEZIER_KNOTS.);
#1104 = CARTESIAN_POINT('',(0.,-0.7));
#1105 = CARTESIAN_POINT('',(0.,0.));
#1106 = ( GEOMETRIC_REPRESENTATION_CONTEXT(2) 
PARAMETRIC_REPRESENTATION_CONTEXT() REPRESENTATION_CONTEXT('2D SPACE',''
  ) );
#1107 = ORIENTED_EDGE('',*,*,#1108,.F.);
#1108 = EDGE_CURVE('',#447,#1084,#1109,.T.);
#1109 = SURFACE_CURVE('',#1110,(#1115,#1122),.PCURVE_S1.);
#1110 = CIRCLE('',#1111,0.75);
#1111 = AXIS2_PLACEMENT_3D('',#1112,#1113,#1114);
#1112 = CARTESIAN_POINT('',(-36.75,0.,108.2));
#1113 = DIRECTION('',(0.,-0.,-1.));
#1114 = DIRECTION('',(0.,-1.,0.));
#1115 = PCURVE('',#494,#1116);
#1116 = DEFINITIONAL_REPRESENTATION('',(#1117),#1121);
#1117 = LINE('',#1118,#1119);
#1118 = CARTESIAN_POINT('',(-0.,0.7));
#1119 = VECTOR('',#1120,1.);
#1120 = DIRECTION('',(-1.,0.));
#1121 = ( GEOMETRIC_REPRESENTATION_CONTEXT(2) 
PARAMETRIC_REPRESENTATION_CONTEXT() REPRESENTATION_CONTEXT('2D SPACE',''
  ) );
#1122 = PCURVE('',#463,#1123);
#1123 = DEFINITIONAL_REPRESENTATION('',(#1124),#1128);
#1124 = LINE('',#1125,#1126);
#1125 = CARTESIAN_POINT('',(-0.,0.));
#1126 = VECTOR('',#1127,1.);
#1127 = DIRECTION('',(-1.,0.));
#1128 = ( GEOMETRIC_REPRESENTATION_CONTEXT(2) 
PARAMETRIC_REPRESENTATION_CONTEXT() REPRESENTATION_CONTEXT('2D SPACE',''
  ) );
#1129 = ORIENTED_EDGE('',*,*,#479,.F.);
#1130 = ADVANCED_FACE('',(#1131),#463,.F.);
#1131 = FACE_BOUND('',#1132,.T.);
#1132 = EDGE_LOOP('',(#1133,#1134,#1135,#1160));
#1133 = ORIENTED_EDGE('',*,*,#446,.T.);
#1134 = ORIENTED_EDGE('',*,*,#1108,.T.);
#1135 = ORIENTED_EDGE('',*,*,#1136,.T.);
#1136 = EDGE_CURVE('',#1084,#1137,#1139,.T.);
#1137 = VERTEX_POINT('',#1138);
#1138 = CARTESIAN_POINT('',(-36.75,1.55,109.));
#1139 = SURFACE_CURVE('',#1140,(#1143,#1149),.PCURVE_S1.);
#1140 = B_SPLINE_CURVE_WITH_KNOTS('',1,(#1141,#1142),.UNSPECIFIED.,.F.,
  .F.,(2,2),(0.,1.),.PIECEWISE_BEZIER_KNOTS.);
#1141 = CARTESIAN_POINT('',(-36.75,0.75,108.2));
#1142 = CARTESIAN_POINT('',(-36.75,1.55,109.));
#1143 = PCURVE('',#463,#1144);
#1144 = DEFINITIONAL_REPRESENTATION('',(#1145),#1148);
#1145 = B_SPLINE_CURVE_WITH_KNOTS('',1,(#1146,#1147),.UNSPECIFIED.,.F.,
  .F.,(2,2),(0.,1.),.PIECEWISE_BEZIER_KNOTS.);
#1146 = CARTESIAN_POINT('',(-3.14159265359,0.));
#1147 = CARTESIAN_POINT('',(-3.14159265359,0.8));
#1148 = ( GEOMETRIC_REPRESENTATION_CONTEXT(2) 
PARAMETRIC_REPRESENTATION_CONTEXT() REPRESENTATION_CONTEXT('2D SPACE',''
  ) );
#1149 = PCURVE('',#1150,#1155);
#1150 = PLANE('',#1151);
#1151 = AXIS2_PLACEMENT_3D('',#1152,#1153,#1154);
#1152 = CARTESIAN_POINT('',(-36.75,1.55,109.));
#1153 = DIRECTION('',(0.,-0.707106781187,0.707106781187));
#1154 = DIRECTION('',(1.,0.,0.));
#1155 = DEFINITIONAL_REPRESENTATION('',(#1156),#1159);
#1156 = B_SPLINE_CURVE_WITH_KNOTS('',1,(#1157,#1158),.UNSPECIFIED.,.F.,
  .F.,(2,2),(0.,1.),.PIECEWISE_BEZIER_KNOTS.);
#1157 = CARTESIAN_POINT('',(0.,-1.131370849898));
#1158 = CARTESIAN_POINT('',(0.,0.));
#1159 = ( GEOMETRIC_REPRESENTATION_CONTEXT(2) 
PARAMETRIC_REPRESENTATION_CONTEXT() REPRESENTATION_CONTEXT('2D SPACE',''
  ) );
#1160 = ORIENTED_EDGE('',*,*,#1161,.F.);
#1161 = EDGE_CURVE('',#421,#1137,#1162,.T.);
#1162 = SURFACE_CURVE('',#1163,(#1168,#1175),.PCURVE_S1.);
#1163 = CIRCLE('',#1164,1.55);
#1164 = AXIS2_PLACEMENT_3D('',#1165,#1166,#1167);
#1165 = CARTESIAN_POINT('',(-36.75,0.,109.));
#1166 = DIRECTION('',(0.,-0.,-1.));
#1167 = DIRECTION('',(0.,-1.,0.));
#1168 = PCURVE('',#463,#1169);
#1169 = DEFINITIONAL_REPRESENTATION('',(#1170),#1174);
#1170 = LINE('',#1171,#1172);
#1171 = CARTESIAN_POINT('',(-0.,0.8));
#1172 = VECTOR('',#1173,1.);
#1173 = DIRECTION('',(-1.,0.));
#1174 = ( GEOMETRIC_REPRESENTATION_CONTEXT(2) 
PARAMETRIC_REPRESENTATION_CONTEXT() REPRESENTATION_CONTEXT('2D SPACE',''
  ) );
#1175 = PCURVE('',#435,#1176);
#1176 = DEFINITIONAL_REPRESENTATION('',(#1177),#1185);
#1177 = ( BOUNDED_CURVE() B_SPLINE_CURVE(2,(#1178,#1179,#1180,#1181,
#1182,#1183,#1184),.UNSPECIFIED.,.T.,.F.) B_SPLINE_CURVE_WITH_KNOTS((1,2
    ,2,2,2,1),(-2.094395102393,0.,2.094395102393,4.188790204786,
6.28318530718,8.377580409573),.UNSPECIFIED.) CURVE() 
GEOMETRIC_REPRESENTATION_ITEM() RATIONAL_B_SPLINE_CURVE((1.,0.5,1.,0.5,
1.,0.5,1.)) REPRESENTATION_ITEM('') );
#1178 = CARTESIAN_POINT('',(-36.75,-1.55));
#1179 = CARTESIAN_POINT('',(-39.43467875173,-1.55));
#1180 = CARTESIAN_POINT('',(-38.09233937586,0.775));
#1181 = CARTESIAN_POINT('',(-36.75,3.1));
#1182 = CARTESIAN_POINT('',(-35.40766062413,0.775));
#1183 = CARTESIAN_POINT('',(-34.06532124826,-1.55));
#1184 = CARTESIAN_POINT('',(-36.75,-1.55));
#1185 = ( GEOMETRIC_REPRESENTATION_CONTEXT(2) 
PARAMETRIC_REPRESENTATION_CONTEXT() REPRESENTATION_CONTEXT('2D SPACE',''
  ) );
#1186 = ADVANCED_FACE('',(#1187),#435,.T.);
#1187 = FACE_BOUND('',#1188,.T.);
#1188 = EDGE_LOOP('',(#1189,#1190,#1212,#1213,#1214,#1237));
#1189 = ORIENTED_EDGE('',*,*,#843,.F.);
#1190 = ORIENTED_EDGE('',*,*,#1191,.T.);
#1191 = EDGE_CURVE('',#844,#395,#1192,.T.);
#1192 = SURFACE_CURVE('',#1193,(#1198,#1205),.PCURVE_S1.);
#1193 = CIRCLE('',#1194,39.75);
#1194 = AXIS2_PLACEMENT_3D('',#1195,#1196,#1197);
#1195 = CARTESIAN_POINT('',(0.,0.,109.));
#1196 = DIRECTION('',(0.,0.,1.));
#1197 = DIRECTION('',(1.,0.,0.));
#1198 = PCURVE('',#435,#1199);
#1199 = DEFINITIONAL_REPRESENTATION('',(#1200),#1204);
#1200 = CIRCLE('',#1201,39.75);
#1201 = AXIS2_PLACEMENT_2D('',#1202,#1203);
#1202 = CARTESIAN_POINT('',(4.403329231825E-15,-5.790076070423E-16));
#1203 = DIRECTION('',(1.,0.));
#1204 = ( GEOMETRIC_REPRESENTATION_CONTEXT(2) 
PARAMETRIC_REPRESENTATION_CONTEXT() REPRESENTATION_CONTEXT('2D SPACE',''
  ) );
#1205 = PCURVE('',#409,#1206);
#1206 = DEFINITIONAL_REPRESENTATION('',(#1207),#1211);
#1207 = LINE('',#1208,#1209);
#1208 = CARTESIAN_POINT('',(-0.,-28.3));
#1209 = VECTOR('',#1210,1.);
#1210 = DIRECTION('',(-1.,0.));
#1211 = ( GEOMETRIC_REPRESENTATION_CONTEXT(2) 
PARAMETRIC_REPRESENTATION_CONTEXT() REPRESENTATION_CONTEXT('2D SPACE',''
  ) );
#1212 = ORIENTED_EDGE('',*,*,#420,.F.);
#1213 = ORIENTED_EDGE('',*,*,#1161,.T.);
#1214 = ORIENTED_EDGE('',*,*,#1215,.T.);
#1215 = EDGE_CURVE('',#1137,#1216,#1218,.T.);
#1216 = VERTEX_POINT('',#1217);
#1217 = CARTESIAN_POINT('',(36.75,1.55,109.));
#1218 = SURFACE_CURVE('',#1219,(#1223,#1230),.PCURVE_S1.);
#1219 = LINE('',#1220,#1221);
#1220 = CARTESIAN_POINT('',(-36.75,1.55,109.));
#1221 = VECTOR('',#1222,1.);
#1222 = DIRECTION('',(1.,0.,0.));
#1223 = PCURVE('',#435,#1224);
#1224 = DEFINITIONAL_REPRESENTATION('',(#1225),#1229);
#1225 = LINE('',#1226,#1227);
#1226 = CARTESIAN_POINT('',(-36.75,1.55));
#1227 = VECTOR('',#1228,1.);
#1228 = DIRECTION('',(1.,0.));
#1229 = ( GEOMETRIC_REPRESENTATION_CONTEXT(2) 
PARAMETRIC_REPRESENTATION_CONTEXT() REPRESENTATION_CONTEXT('2D SPACE',''
  ) );
#1230 = PCURVE('',#1150,#1231);
#1231 = DEFINITIONAL_REPRESENTATION('',(#1232),#1236);
#1232 = LINE('',#1233,#1234);
#1233 = CARTESIAN_POINT('',(0.,0.));
#1234 = VECTOR('',#1235,1.);
#1235 = DIRECTION('',(1.,0.));
#1236 = ( GEOMETRIC_REPRESENTATION_CONTEXT(2) 
PARAMETRIC_REPRESENTATION_CONTEXT() REPRESENTATION_CONTEXT('2D SPACE',''
  ) );
#1237 = ORIENTED_EDGE('',*,*,#1238,.T.);
#1238 = EDGE_CURVE('',#1216,#811,#1239,.T.);
#1239 = SURFACE_CURVE('',#1240,(#1245,#1256),.PCURVE_S1.);
#1240 = CIRCLE('',#1241,1.55);
#1241 = AXIS2_PLACEMENT_3D('',#1242,#1243,#1244);
#1242 = CARTESIAN_POINT('',(36.75,0.,109.));
#1243 = DIRECTION('',(0.,0.,-1.));
#1244 = DIRECTION('',(0.,1.,0.));
#1245 = PCURVE('',#435,#1246);
#1246 = DEFINITIONAL_REPRESENTATION('',(#1247),#1255);
#1247 = ( BOUNDED_CURVE() B_SPLINE_CURVE(2,(#1248,#1249,#1250,#1251,
#1252,#1253,#1254),.UNSPECIFIED.,.T.,.F.) B_SPLINE_CURVE_WITH_KNOTS((1,2
    ,2,2,2,1),(-2.094395102393,0.,2.094395102393,4.188790204786,
6.28318530718,8.377580409573),.UNSPECIFIED.) CURVE() 
GEOMETRIC_REPRESENTATION_ITEM() RATIONAL_B_SPLINE_CURVE((1.,0.5,1.,0.5,
1.,0.5,1.)) REPRESENTATION_ITEM('') );
#1248 = CARTESIAN_POINT('',(36.75,1.55));
#1249 = CARTESIAN_POINT('',(39.434678751732,1.55));
#1250 = CARTESIAN_POINT('',(38.092339375866,-0.775));
#1251 = CARTESIAN_POINT('',(36.75,-3.1));
#1252 = CARTESIAN_POINT('',(35.407660624134,-0.775));
#1253 = CARTESIAN_POINT('',(34.065321248268,1.55));
#1254 = CARTESIAN_POINT('',(36.75,1.55));
#1255 = ( GEOMETRIC_REPRESENTATION_CONTEXT(2) 
PARAMETRIC_REPRESENTATION_CONTEXT() REPRESENTATION_CONTEXT('2D SPACE',''
  ) );
#1256 = PCURVE('',#827,#1257);
#1257 = DEFINITIONAL_REPRESENTATION('',(#1258),#1262);
#1258 = LINE('',#1259,#1260);
#1259 = CARTESIAN_POINT('',(-0.,0.8));
#1260 = VECTOR('',#1261,1.);
#1261 = DIRECTION('',(-1.,0.));
#1262 = ( GEOMETRIC_REPRESENTATION_CONTEXT(2) 
PARAMETRIC_REPRESENTATION_CONTEXT() REPRESENTATION_CONTEXT('2D SPACE',''
  ) );
#1263 = ADVANCED_FACE('',(#1264),#409,.T.);
#1264 = FACE_BOUND('',#1265,.F.);
#1265 = EDGE_LOOP('',(#1266,#1288,#1289,#1290));
#1266 = ORIENTED_EDGE('',*,*,#1267,.F.);
#1267 = EDGE_CURVE('',#865,#369,#1268,.T.);
#1268 = SURFACE_CURVE('',#1269,(#1274,#1281),.PCURVE_S1.);
#1269 = CIRCLE('',#1270,39.75);
#1270 = AXIS2_PLACEMENT_3D('',#1271,#1272,#1273);
#1271 = CARTESIAN_POINT('',(0.,0.,80.7));
#1272 = DIRECTION('',(0.,0.,1.));
#1273 = DIRECTION('',(1.,0.,0.));
#1274 = PCURVE('',#409,#1275);
#1275 = DEFINITIONAL_REPRESENTATION('',(#1276),#1280);
#1276 = LINE('',#1277,#1278);
#1277 = CARTESIAN_POINT('',(-0.,0.));
#1278 = VECTOR('',#1279,1.);
#1279 = DIRECTION('',(-1.,0.));
#1280 = ( GEOMETRIC_REPRESENTATION_CONTEXT(2) 
PARAMETRIC_REPRESENTATION_CONTEXT() REPRESENTATION_CONTEXT('2D SPACE',''
  ) );
#1281 = PCURVE('',#383,#1282);
#1282 = DEFINITIONAL_REPRESENTATION('',(#1283),#1287);
#1283 = CIRCLE('',#1284,39.75);
#1284 = AXIS2_PLACEMENT_2D('',#1285,#1286);
#1285 = CARTESIAN_POINT('',(2.933502854163E-15,-4.040240899597E-15));
#1286 = DIRECTION('',(1.,0.));
#1287 = ( GEOMETRIC_REPRESENTATION_CONTEXT(2) 
PARAMETRIC_REPRESENTATION_CONTEXT() REPRESENTATION_CONTEXT('2D SPACE',''
  ) );
#1288 = ORIENTED_EDGE('',*,*,#864,.F.);
#1289 = ORIENTED_EDGE('',*,*,#1191,.T.);
#1290 = ORIENTED_EDGE('',*,*,#394,.T.);
#1291 = ADVANCED_FACE('',(#1292),#383,.T.);
#1292 = FACE_BOUND('',#1293,.T.);
#1293 = EDGE_LOOP('',(#1294,#1295,#1317,#1318));
#1294 = ORIENTED_EDGE('',*,*,#885,.F.);
#1295 = ORIENTED_EDGE('',*,*,#1296,.T.);
#1296 = EDGE_CURVE('',#886,#343,#1297,.T.);
#1297 = SURFACE_CURVE('',#1298,(#1303,#1310),.PCURVE_S1.);
#1298 = CIRCLE('',#1299,44.75);
#1299 = AXIS2_PLACEMENT_3D('',#1300,#1301,#1302);
#1300 = CARTESIAN_POINT('',(0.,0.,80.7));
#1301 = DIRECTION('',(0.,0.,1.));
#1302 = DIRECTION('',(1.,0.,0.));
#1303 = PCURVE('',#383,#1304);
#1304 = DEFINITIONAL_REPRESENTATION('',(#1305),#1309);
#1305 = CIRCLE('',#1306,44.75);
#1306 = AXIS2_PLACEMENT_2D('',#1307,#1308);
#1307 = CARTESIAN_POINT('',(2.933502854163E-15,-4.040240899597E-15));
#1308 = DIRECTION('',(1.,0.));
#1309 = ( GEOMETRIC_REPRESENTATION_CONTEXT(2) 
PARAMETRIC_REPRESENTATION_CONTEXT() REPRESENTATION_CONTEXT('2D SPACE',''
  ) );
#1310 = PCURVE('',#357,#1311);
#1311 = DEFINITIONAL_REPRESENTATION('',(#1312),#1316);
#1312 = LINE('',#1313,#1314);
#1313 = CARTESIAN_POINT('',(-0.,-10.8));
#1314 = VECTOR('',#1315,1.);
#1315 = DIRECTION('',(-1.,0.));
#1316 = ( GEOMETRIC_REPRESENTATION_CONTEXT(2) 
PARAMETRIC_REPRESENTATION_CONTEXT() REPRESENTATION_CONTEXT('2D SPACE',''
  ) );
#1317 = ORIENTED_EDGE('',*,*,#368,.F.);
#1318 = ORIENTED_EDGE('',*,*,#1267,.F.);
#1319 = ADVANCED_FACE('',(#1320),#357,.T.);
#1320 = FACE_BOUND('',#1321,.F.);
#1321 = EDGE_LOOP('',(#1322,#1323,#1324,#1325));
#1322 = ORIENTED_EDGE('',*,*,#555,.F.);
#1323 = ORIENTED_EDGE('',*,*,#906,.F.);
#1324 = ORIENTED_EDGE('',*,*,#1296,.T.);
#1325 = ORIENTED_EDGE('',*,*,#342,.T.);
#1326 = ADVANCED_FACE('',(#1327),#827,.F.);
#1327 = FACE_BOUND('',#1328,.T.);
#1328 = EDGE_LOOP('',(#1329,#1349,#1371,#1372));
#1329 = ORIENTED_EDGE('',*,*,#1330,.F.);
#1330 = EDGE_CURVE('',#1331,#1216,#1333,.T.);
#1331 = VERTEX_POINT('',#1332);
#1332 = CARTESIAN_POINT('',(36.75,0.75,108.2));
#1333 = SURFACE_CURVE('',#1334,(#1337,#1343),.PCURVE_S1.);
#1334 = B_SPLINE_CURVE_WITH_KNOTS('',1,(#1335,#1336),.UNSPECIFIED.,.F.,
  .F.,(2,2),(0.,1.),.PIECEWISE_BEZIER_KNOTS.);
#1335 = CARTESIAN_POINT('',(36.75,0.75,108.2));
#1336 = CARTESIAN_POINT('',(36.75,1.55,109.));
#1337 = PCURVE('',#827,#1338);
#1338 = DEFINITIONAL_REPRESENTATION('',(#1339),#1342);
#1339 = B_SPLINE_CURVE_WITH_KNOTS('',1,(#1340,#1341),.UNSPECIFIED.,.F.,
  .F.,(2,2),(0.,1.),.PIECEWISE_BEZIER_KNOTS.);
#1340 = CARTESIAN_POINT('',(0.,0.));
#1341 = CARTESIAN_POINT('',(0.,0.8));
#1342 = ( GEOMETRIC_REPRESENTATION_CONTEXT(2) 
PARAMETRIC_REPRESENTATION_CONTEXT() REPRESENTATION_CONTEXT('2D SPACE',''
  ) );
#1343 = PCURVE('',#1150,#1344);
#1344 = DEFINITIONAL_REPRESENTATION('',(#1345),#1348);
#1345 = B_SPLINE_CURVE_WITH_KNOTS('',1,(#1346,#1347),.UNSPECIFIED.,.F.,
  .F.,(2,2),(0.,1.),.PIECEWISE_BEZIER_KNOTS.);
#1346 = CARTESIAN_POINT('',(73.5,-1.131370849898));
#1347 = CARTESIAN_POINT('',(73.5,0.));
#1348 = ( GEOMETRIC_REPRESENTATION_CONTEXT(2) 
PARAMETRIC_REPRESENTATION_CONTEXT() REPRESENTATION_CONTEXT('2D SPACE',''
  ) );
#1349 = ORIENTED_EDGE('',*,*,#1350,.T.);
#1350 = EDGE_CURVE('',#1331,#785,#1351,.T.);
#1351 = SURFACE_CURVE('',#1352,(#1357,#1364),.PCURVE_S1.);
#1352 = CIRCLE('',#1353,0.75);
#1353 = AXIS2_PLACEMENT_3D('',#1354,#1355,#1356);
#1354 = CARTESIAN_POINT('',(36.75,0.,108.2));
#1355 = DIRECTION('',(0.,0.,-1.));
#1356 = DIRECTION('',(0.,1.,0.));
#1357 = PCURVE('',#827,#1358);
#1358 = DEFINITIONAL_REPRESENTATION('',(#1359),#1363);
#1359 = LINE('',#1360,#1361);
#1360 = CARTESIAN_POINT('',(-0.,0.));
#1361 = VECTOR('',#1362,1.);
#1362 = DIRECTION('',(-1.,0.));
#1363 = ( GEOMETRIC_REPRESENTATION_CONTEXT(2) 
PARAMETRIC_REPRESENTATION_CONTEXT() REPRESENTATION_CONTEXT('2D SPACE',''
  ) );
#1364 = PCURVE('',#799,#1365);
#1365 = DEFINITIONAL_REPRESENTATION('',(#1366),#1370);
#1366 = LINE('',#1367,#1368);
#1367 = CARTESIAN_POINT('',(-0.,0.7));
#1368 = VECTOR('',#1369,1.);
#1369 = DIRECTION('',(-1.,0.));
#1370 = ( GEOMETRIC_REPRESENTATION_CONTEXT(2) 
PARAMETRIC_REPRESENTATION_CONTEXT() REPRESENTATION_CONTEXT('2D SPACE',''
  ) );
#1371 = ORIENTED_EDGE('',*,*,#810,.T.);
#1372 = ORIENTED_EDGE('',*,*,#1238,.F.);
#1373 = ADVANCED_FACE('',(#1374),#799,.F.);
#1374 = FACE_BOUND('',#1375,.T.);
#1375 = EDGE_LOOP('',(#1376,#1399,#1400,#1401));
#1376 = ORIENTED_EDGE('',*,*,#1377,.F.);
#1377 = EDGE_CURVE('',#759,#1378,#1380,.T.);
#1378 = VERTEX_POINT('',#1379);
#1379 = CARTESIAN_POINT('',(36.75,0.75,107.5));
#1380 = SURFACE_CURVE('',#1381,(#1386,#1392),.PCURVE_S1.);
#1381 = CIRCLE('',#1382,0.75);
#1382 = AXIS2_PLACEMENT_3D('',#1383,#1384,#1385);
#1383 = CARTESIAN_POINT('',(36.75,0.,107.5));
#1384 = DIRECTION('',(-0.,0.,1.));
#1385 = DIRECTION('',(0.,-1.,0.));
#1386 = PCURVE('',#799,#1387);
#1387 = DEFINITIONAL_REPRESENTATION('',(#1388),#1391);
#1388 = B_SPLINE_CURVE_WITH_KNOTS('',1,(#1389,#1390),.UNSPECIFIED.,.F.,
  .F.,(2,2),(0.,3.14159265359),.PIECEWISE_BEZIER_KNOTS.);
#1389 = CARTESIAN_POINT('',(-3.14159265359,0.));
#1390 = CARTESIAN_POINT('',(0.,0.));
#1391 = ( GEOMETRIC_REPRESENTATION_CONTEXT(2) 
PARAMETRIC_REPRESENTATION_CONTEXT() REPRESENTATION_CONTEXT('2D SPACE',''
  ) );
#1392 = PCURVE('',#773,#1393);
#1393 = DEFINITIONAL_REPRESENTATION('',(#1394),#1398);
#1394 = LINE('',#1395,#1396);
#1395 = CARTESIAN_POINT('',(3.14159265359,-8.5));
#1396 = VECTOR('',#1397,1.);
#1397 = DIRECTION('',(-1.,-0.));
#1398 = ( GEOMETRIC_REPRESENTATION_CONTEXT(2) 
PARAMETRIC_REPRESENTATION_CONTEXT() REPRESENTATION_CONTEXT('2D SPACE',''
  ) );
#1399 = ORIENTED_EDGE('',*,*,#784,.T.);
#1400 = ORIENTED_EDGE('',*,*,#1350,.F.);
#1401 = ORIENTED_EDGE('',*,*,#1402,.F.);
#1402 = EDGE_CURVE('',#1378,#1331,#1403,.T.);
#1403 = SURFACE_CURVE('',#1404,(#1407,#1413),.PCURVE_S1.);
#1404 = B_SPLINE_CURVE_WITH_KNOTS('',1,(#1405,#1406),.UNSPECIFIED.,.F.,
  .F.,(2,2),(0.,1.),.PIECEWISE_BEZIER_KNOTS.);
#1405 = CARTESIAN_POINT('',(36.75,0.75,107.5));
#1406 = CARTESIAN_POINT('',(36.75,0.75,108.2));
#1407 = PCURVE('',#799,#1408);
#1408 = DEFINITIONAL_REPRESENTATION('',(#1409),#1412);
#1409 = B_SPLINE_CURVE_WITH_KNOTS('',1,(#1410,#1411),.UNSPECIFIED.,.F.,
  .F.,(2,2),(0.,1.),.PIECEWISE_BEZIER_KNOTS.);
#1410 = CARTESIAN_POINT('',(0.,0.));
#1411 = CARTESIAN_POINT('',(0.,0.7));
#1412 = ( GEOMETRIC_REPRESENTATION_CONTEXT(2) 
PARAMETRIC_REPRESENTATION_CONTEXT() REPRESENTATION_CONTEXT('2D SPACE',''
  ) );
#1413 = PCURVE('',#1097,#1414);
#1414 = DEFINITIONAL_REPRESENTATION('',(#1415),#1418);
#1415 = B_SPLINE_CURVE_WITH_KNOTS('',1,(#1416,#1417),.UNSPECIFIED.,.F.,
  .F.,(2,2),(0.,1.),.PIECEWISE_BEZIER_KNOTS.);
#1416 = CARTESIAN_POINT('',(73.5,-0.7));
#1417 = CARTESIAN_POINT('',(73.5,0.));
#1418 = ( GEOMETRIC_REPRESENTATION_CONTEXT(2) 
PARAMETRIC_REPRESENTATION_CONTEXT() REPRESENTATION_CONTEXT('2D SPACE',''
  ) );
#1419 = ADVANCED_FACE('',(#1420),#773,.F.);
#1420 = FACE_BOUND('',#1421,.F.);
#1421 = EDGE_LOOP('',(#1422,#1423,#1444,#1465));
#1422 = ORIENTED_EDGE('',*,*,#758,.T.);
#1423 = ORIENTED_EDGE('',*,*,#1424,.F.);
#1424 = EDGE_CURVE('',#956,#610,#1425,.T.);
#1425 = SURFACE_CURVE('',#1426,(#1431,#1437),.PCURVE_S1.);
#1426 = CIRCLE('',#1427,0.75);
#1427 = AXIS2_PLACEMENT_3D('',#1428,#1429,#1430);
#1428 = CARTESIAN_POINT('',(36.75,0.,99.));
#1429 = DIRECTION('',(0.,0.,-1.));
#1430 = DIRECTION('',(0.,1.,0.));
#1431 = PCURVE('',#773,#1432);
#1432 = DEFINITIONAL_REPRESENTATION('',(#1433),#1436);
#1433 = B_SPLINE_CURVE_WITH_KNOTS('',1,(#1434,#1435),.UNSPECIFIED.,.F.,
  .F.,(2,2),(0.,3.14159265359),.PIECEWISE_BEZIER_KNOTS.);
#1434 = CARTESIAN_POINT('',(0.,0.));
#1435 = CARTESIAN_POINT('',(3.14159265359,0.));
#1436 = ( GEOMETRIC_REPRESENTATION_CONTEXT(2) 
PARAMETRIC_REPRESENTATION_CONTEXT() REPRESENTATION_CONTEXT('2D SPACE',''
  ) );
#1437 = PCURVE('',#695,#1438);
#1438 = DEFINITIONAL_REPRESENTATION('',(#1439),#1443);
#1439 = LINE('',#1440,#1441);
#1440 = CARTESIAN_POINT('',(6.28318530718,1.));
#1441 = VECTOR('',#1442,1.);
#1442 = DIRECTION('',(-1.,0.));
#1443 = ( GEOMETRIC_REPRESENTATION_CONTEXT(2) 
PARAMETRIC_REPRESENTATION_CONTEXT() REPRESENTATION_CONTEXT('2D SPACE',''
  ) );
#1444 = ORIENTED_EDGE('',*,*,#1445,.T.);
#1445 = EDGE_CURVE('',#956,#1378,#1446,.T.);
#1446 = SURFACE_CURVE('',#1447,(#1451,#1458),.PCURVE_S1.);
#1447 = LINE('',#1448,#1449);
#1448 = CARTESIAN_POINT('',(36.75,0.75,99.));
#1449 = VECTOR('',#1450,1.);
#1450 = DIRECTION('',(0.,0.,1.));
#1451 = PCURVE('',#773,#1452);
#1452 = DEFINITIONAL_REPRESENTATION('',(#1453),#1457);
#1453 = LINE('',#1454,#1455);
#1454 = CARTESIAN_POINT('',(0.,0.));
#1455 = VECTOR('',#1456,1.);
#1456 = DIRECTION('',(0.,-1.));
#1457 = ( GEOMETRIC_REPRESENTATION_CONTEXT(2) 
PARAMETRIC_REPRESENTATION_CONTEXT() REPRESENTATION_CONTEXT('2D SPACE',''
  ) );
#1458 = PCURVE('',#971,#1459);
#1459 = DEFINITIONAL_REPRESENTATION('',(#1460),#1464);
#1460 = LINE('',#1461,#1462);
#1461 = CARTESIAN_POINT('',(73.5,0.));
#1462 = VECTOR('',#1463,1.);
#1463 = DIRECTION('',(0.,-1.));
#1464 = ( GEOMETRIC_REPRESENTATION_CONTEXT(2) 
PARAMETRIC_REPRESENTATION_CONTEXT() REPRESENTATION_CONTEXT('2D SPACE',''
  ) );
#1465 = ORIENTED_EDGE('',*,*,#1377,.F.);
#1466 = ADVANCED_FACE('',(#1467),#695,.F.);
#1467 = FACE_BOUND('',#1468,.F.);
#1468 = EDGE_LOOP('',(#1469,#1470,#1471));
#1469 = ORIENTED_EDGE('',*,*,#609,.F.);
#1470 = ORIENTED_EDGE('',*,*,#983,.T.);
#1471 = ORIENTED_EDGE('',*,*,#1424,.T.);
#1472 = ADVANCED_FACE('',(#1473),#971,.F.);
#1473 = FACE_BOUND('',#1474,.F.);
#1474 = EDGE_LOOP('',(#1475,#1476,#1477,#1498));
#1475 = ORIENTED_EDGE('',*,*,#955,.F.);
#1476 = ORIENTED_EDGE('',*,*,#1058,.T.);
#1477 = ORIENTED_EDGE('',*,*,#1478,.T.);
#1478 = EDGE_CURVE('',#1036,#1378,#1479,.T.);
#1479 = SURFACE_CURVE('',#1480,(#1484,#1491),.PCURVE_S1.);
#1480 = LINE('',#1481,#1482);
#1481 = CARTESIAN_POINT('',(-36.75,0.75,107.5));
#1482 = VECTOR('',#1483,1.);
#1483 = DIRECTION('',(1.,0.,0.));
#1484 = PCURVE('',#971,#1485);
#1485 = DEFINITIONAL_REPRESENTATION('',(#1486),#1490);
#1486 = LINE('',#1487,#1488);
#1487 = CARTESIAN_POINT('',(0.,-8.5));
#1488 = VECTOR('',#1489,1.);
#1489 = DIRECTION('',(1.,0.));
#1490 = ( GEOMETRIC_REPRESENTATION_CONTEXT(2) 
PARAMETRIC_REPRESENTATION_CONTEXT() REPRESENTATION_CONTEXT('2D SPACE',''
  ) );
#1491 = PCURVE('',#1097,#1492);
#1492 = DEFINITIONAL_REPRESENTATION('',(#1493),#1497);
#1493 = LINE('',#1494,#1495);
#1494 = CARTESIAN_POINT('',(0.,-0.7));
#1495 = VECTOR('',#1496,1.);
#1496 = DIRECTION('',(1.,0.));
#1497 = ( GEOMETRIC_REPRESENTATION_CONTEXT(2) 
PARAMETRIC_REPRESENTATION_CONTEXT() REPRESENTATION_CONTEXT('2D SPACE',''
  ) );
#1498 = ORIENTED_EDGE('',*,*,#1445,.F.);
#1499 = ADVANCED_FACE('',(#1500),#1097,.T.);
#1500 = FACE_BOUND('',#1501,.T.);
#1501 = EDGE_LOOP('',(#1502,#1503,#1504,#1525));
#1502 = ORIENTED_EDGE('',*,*,#1478,.T.);
#1503 = ORIENTED_EDGE('',*,*,#1402,.T.);
#1504 = ORIENTED_EDGE('',*,*,#1505,.F.);
#1505 = EDGE_CURVE('',#1084,#1331,#1506,.T.);
#1506 = SURFACE_CURVE('',#1507,(#1511,#1518),.PCURVE_S1.);
#1507 = LINE('',#1508,#1509);
#1508 = CARTESIAN_POINT('',(-36.75,0.75,108.2));
#1509 = VECTOR('',#1510,1.);
#1510 = DIRECTION('',(1.,0.,0.));
#1511 = PCURVE('',#1097,#1512);
#1512 = DEFINITIONAL_REPRESENTATION('',(#1513),#1517);
#1513 = LINE('',#1514,#1515);
#1514 = CARTESIAN_POINT('',(0.,0.));
#1515 = VECTOR('',#1516,1.);
#1516 = DIRECTION('',(1.,0.));
#1517 = ( GEOMETRIC_REPRESENTATION_CONTEXT(2) 
PARAMETRIC_REPRESENTATION_CONTEXT() REPRESENTATION_CONTEXT('2D SPACE',''
  ) );
#1518 = PCURVE('',#1150,#1519);
#1519 = DEFINITIONAL_REPRESENTATION('',(#1520),#1524);
#1520 = LINE('',#1521,#1522);
#1521 = CARTESIAN_POINT('',(0.,-1.131370849898));
#1522 = VECTOR('',#1523,1.);
#1523 = DIRECTION('',(1.,0.));
#1524 = ( GEOMETRIC_REPRESENTATION_CONTEXT(2) 
PARAMETRIC_REPRESENTATION_CONTEXT() REPRESENTATION_CONTEXT('2D SPACE',''
  ) );
#1525 = ORIENTED_EDGE('',*,*,#1083,.F.);
#1526 = ADVANCED_FACE('',(#1527),#1150,.T.);
#1527 = FACE_BOUND('',#1528,.T.);
#1528 = EDGE_LOOP('',(#1529,#1530,#1531,#1532));
#1529 = ORIENTED_EDGE('',*,*,#1505,.T.);
#1530 = ORIENTED_EDGE('',*,*,#1330,.T.);
#1531 = ORIENTED_EDGE('',*,*,#1215,.F.);
#1532 = ORIENTED_EDGE('',*,*,#1136,.F.);
#1533 = ( GEOMETRIC_REPRESENTATION_CONTEXT(3) 
GLOBAL_UNCERTAINTY_ASSIGNED_CONTEXT((#1537)) 
GLOBAL_UNIT_ASSIGNED_CONTEXT((#1534,#1535,#1536)) REPRESENTATION_CONTEXT
('Context #1','3D Context with UNIT and UNCERTAINTY') );
#1534 = ( LENGTH_UNIT() NAMED_UNIT(*) SI_UNIT(.MILLI.,.METRE.) );
#1535 = ( NAMED_UNIT(*) PLANE_ANGLE_UNIT() SI_UNIT($,.RADIAN.) );
#1536 = ( NAMED_UNIT(*) SI_UNIT($,.STERADIAN.) SOLID_ANGLE_UNIT() );
#1537 = UNCERTAINTY_MEASURE_WITH_UNIT(LENGTH_MEASURE(5.E-07),#1534,
  'distance_accuracy_value','confusion accuracy');
#1538 = PRODUCT_RELATED_PRODUCT_CATEGORY('part',$,(#7));
ENDSEC;
END-ISO-10303-21;
