ISO-10303-21;
HEADER;
FILE_DESCRIPTION(('Open CASCADE Model'),'2;1');
FILE_NAME('Open CASCADE Shape Model','2026-09-12T18:55:03',('Author'),(
    'Open CASCADE'),'Open CASCADE STEP processor 7.9','Open CASCADE 7.9'
  ,'Unknown');
FILE_SCHEMA(('AUTOMOTIVE_DESIGN { 1 0 10303 214 1 1 1 1 }'));
ENDSEC;
DATA;
#1 = APPLICATION_PROTOCOL_DEFINITION('international standard',
  'automotive_design',2000,#2);
#2 = APPLICATION_CONTEXT(
  'core data for automotive mechanical design processes');
#3 = SHAPE_DEFINITION_REPRESENTATION(#4,#10);
#4 = PRODUCT_DEFINITION_SHAPE('','',#5);
#5 = PRODUCT_DEFINITION('design','',#6,#9);
#6 = PRODUCT_DEFINITION_FORMATION('','',#7);
#7 = PRODUCT('Open CASCADE STEP translator 7.9 6',
  'Open CASCADE STEP translator 7.9 6','',(#8));
#8 = PRODUCT_CONTEXT('',#2,'mechanical');
#9 = PRODUCT_DEFINITION_CONTEXT('part definition',#2,'design');
#10 = SHAPE_REPRESENTATION('',(#11,#15,#19,#23),#27);
#11 = AXIS2_PLACEMENT_3D('',#12,#13,#14);
#12 = CARTESIAN_POINT('',(0.,0.,0.));
#13 = DIRECTION('',(0.,0.,1.));
#14 = DIRECTION('',(1.,0.,-0.));
#15 = AXIS2_PLACEMENT_3D('',#16,#17,#18);
#16 = CARTESIAN_POINT('',(0.,0.,0.));
#17 = DIRECTION('',(0.,0.,1.));
#18 = DIRECTION('',(1.,0.,-0.));
#19 = AXIS2_PLACEMENT_3D('',#20,#21,#22);
#20 = CARTESIAN_POINT('',(0.,0.,0.));
#21 = DIRECTION('',(0.,0.,1.));
#22 = DIRECTION('',(1.,0.,0.));
#23 = AXIS2_PLACEMENT_3D('',#24,#25,#26);
#24 = CARTESIAN_POINT('',(0.,0.,0.));
#25 = DIRECTION('',(0.,0.,1.));
#26 = DIRECTION('',(1.,0.,0.));
#27 = ( GEOMETRIC_REPRESENTATION_CONTEXT(3) 
GLOBAL_UNCERTAINTY_ASSIGNED_CONTEXT((#31)) GLOBAL_UNIT_ASSIGNED_CONTEXT(
(#28,#29,#30)) REPRESENTATION_CONTEXT('Context #1',
  '3D Context with UNIT and UNCERTAINTY') );
#28 = ( LENGTH_UNIT() NAMED_UNIT(*) SI_UNIT(.MILLI.,.METRE.) );
#29 = ( NAMED_UNIT(*) PLANE_ANGLE_UNIT() SI_UNIT($,.RADIAN.) );
#30 = ( NAMED_UNIT(*) SI_UNIT($,.STERADIAN.) SOLID_ANGLE_UNIT() );
#31 = UNCERTAINTY_MEASURE_WITH_UNIT(LENGTH_MEASURE(5.E-07),#28,
  'distance_accuracy_value','confusion accuracy');
#32 = PRODUCT_RELATED_PRODUCT_CATEGORY('part',$,(#7));
#33 = SHAPE_DEFINITION_REPRESENTATION(#34,#40);
#34 = PRODUCT_DEFINITION_SHAPE('','',#35);
#35 = PRODUCT_DEFINITION('design','',#36,#39);
#36 = PRODUCT_DEFINITION_FORMATION('','',#37);
#37 = PRODUCT('Open CASCADE STEP translator 7.9 6.1',
  'Open CASCADE STEP translator 7.9 6.1','',(#38));
#38 = PRODUCT_CONTEXT('',#2,'mechanical');
#39 = PRODUCT_DEFINITION_CONTEXT('part definition',#2,'design');
#40 = ADVANCED_BREP_SHAPE_REPRESENTATION('',(#11,#41),#1460);
#41 = MANIFOLD_SOLID_BREP('',#42);
#42 = CLOSED_SHELL('',(#43,#327,#550,#582,#657,#732,#780,#812,#838,#915,
    #969,#1024,#1056,#1127,#1178,#1230,#1262,#1333,#1379,#1426,#1453));
#43 = ADVANCED_FACE('',(#44),#59,.F.);
#44 = FACE_BOUND('',#45,.F.);
#45 = EDGE_LOOP('',(#46,#97,#145,#193,#237,#281));
#46 = ORIENTED_EDGE('',*,*,#47,.T.);
#47 = EDGE_CURVE('',#48,#50,#52,.T.);
#48 = VERTEX_POINT('',#49);
#49 = CARTESIAN_POINT('',(37.792130737918,-0.771267974243,0.));
#50 = VERTEX_POINT('',#51);
#51 = CARTESIAN_POINT('',(37.8,0.,0.));
#52 = SURFACE_CURVE('',#53,(#58,#70),.PCURVE_S1.);
#53 = CIRCLE('',#54,37.8);
#54 = AXIS2_PLACEMENT_3D('',#55,#56,#57);
#55 = CARTESIAN_POINT('',(0.,0.,0.));
#56 = DIRECTION('',(0.,0.,1.));
#57 = DIRECTION('',(1.,0.,0.));
#58 = PCURVE('',#59,#64);
#59 = PLANE('',#60);
#60 = AXIS2_PLACEMENT_3D('',#61,#62,#63);
#61 = CARTESIAN_POINT('',(-1.882068139409E-15,-1.61343992693E-17,0.));
#62 = DIRECTION('',(0.,0.,1.));
#63 = DIRECTION('',(1.,0.,0.));
#64 = DEFINITIONAL_REPRESENTATION('',(#65),#69);
#65 = CIRCLE('',#66,37.8);
#66 = AXIS2_PLACEMENT_2D('',#67,#68);
#67 = CARTESIAN_POINT('',(1.882068139409E-15,1.61343992693E-17));
#68 = DIRECTION('',(1.,0.));
#69 = ( GEOMETRIC_REPRESENTATION_CONTEXT(2) 
PARAMETRIC_REPRESENTATION_CONTEXT() REPRESENTATION_CONTEXT('2D SPACE',''
  ) );
#70 = PCURVE('',#71,#92);
#71 = B_SPLINE_SURFACE_WITH_KNOTS('',9,1,(
    (#72,#73)
    ,(#74,#75)
    ,(#76,#77)
    ,(#78,#79)
    ,(#80,#81)
    ,(#82,#83)
    ,(#84,#85)
    ,(#86,#87)
    ,(#88,#89)
    ,(#90,#91
    )),.UNSPECIFIED.,.F.,.F.,.F.,(10,10),(2,2),(3.14159265359,
    6.28318530718),(0.,1.),.PIECEWISE_BEZIER_KNOTS.);
#72 = CARTESIAN_POINT('',(37.792130737918,-0.771267974243,0.));
#73 = CARTESIAN_POINT('',(36.75,-0.75,99.));
#74 = CARTESIAN_POINT('',(37.793879402147,-0.685583427015,0.));
#75 = CARTESIAN_POINT('',(37.011799387799,-0.75,99.));
#76 = CARTESIAN_POINT('',(37.795409506102,-0.599894419434,0.));
#77 = CARTESIAN_POINT('',(37.273601492499,-0.647191900061,
    98.999999999999));
#78 = CARTESIAN_POINT('',(37.796721043281,-0.514201588687,0.));
#79 = CARTESIAN_POINT('',(37.48924283384,-0.44157278914,99.000000000004)
  );
#80 = CARTESIAN_POINT('',(37.797814007183,-0.428505571955,0.));
#81 = CARTESIAN_POINT('',(37.612680472816,-0.157317457926,
    98.999999999993));
#82 = CARTESIAN_POINT('',(37.798688391308,-0.342807006425,0.));
#83 = CARTESIAN_POINT('',(37.612680472822,0.157317457926,99.000000000007
    ));
#84 = CARTESIAN_POINT('',(37.799344189153,-0.25710652928,0.));
#85 = CARTESIAN_POINT('',(37.489242833835,0.44157278914,98.999999999994)
  );
#86 = CARTESIAN_POINT('',(37.799781394217,-0.171404777705,0.));
#87 = CARTESIAN_POINT('',(37.2736014925,0.647191900061,99.000000000003)
  );
#88 = CARTESIAN_POINT('',(37.8,-8.570238888347E-02,0.));
#89 = CARTESIAN_POINT('',(37.011799387799,0.75,98.999999999999));
#90 = CARTESIAN_POINT('',(37.8,-9.27036225562E-15,0.));
#91 = CARTESIAN_POINT('',(36.75,0.75,99.));
#92 = DEFINITIONAL_REPRESENTATION('',(#93),#96);
#93 = B_SPLINE_CURVE_WITH_KNOTS('',1,(#94,#95),.UNSPECIFIED.,.F.,.F.,(2,
    2),(6.262779976493,6.28318530718),.PIECEWISE_BEZIER_KNOTS.);
#94 = CARTESIAN_POINT('',(3.14159265359,0.));
#95 = CARTESIAN_POINT('',(6.28318530718,0.));
#96 = ( GEOMETRIC_REPRESENTATION_CONTEXT(2) 
PARAMETRIC_REPRESENTATION_CONTEXT() REPRESENTATION_CONTEXT('2D SPACE',''
  ) );
#97 = ORIENTED_EDGE('',*,*,#98,.T.);
#98 = EDGE_CURVE('',#50,#99,#101,.T.);
#99 = VERTEX_POINT('',#100);
#100 = CARTESIAN_POINT('',(37.799999863132,3.216713912751E-03,0.));
#101 = SURFACE_CURVE('',#102,(#107,#114),.PCURVE_S1.);
#102 = CIRCLE('',#103,37.8);
#103 = AXIS2_PLACEMENT_3D('',#104,#105,#106);
#104 = CARTESIAN_POINT('',(0.,0.,0.));
#105 = DIRECTION('',(0.,0.,1.));
#106 = DIRECTION('',(1.,0.,0.));
#107 = PCURVE('',#59,#108);
#108 = DEFINITIONAL_REPRESENTATION('',(#109),#113);
#109 = CIRCLE('',#110,37.8);
#110 = AXIS2_PLACEMENT_2D('',#111,#112);
#111 = CARTESIAN_POINT('',(1.882068139409E-15,1.61343992693E-17));
#112 = DIRECTION('',(1.,0.));
#113 = ( GEOMETRIC_REPRESENTATION_CONTEXT(2) 
PARAMETRIC_REPRESENTATION_CONTEXT() REPRESENTATION_CONTEXT('2D SPACE',''
  ) );
#114 = PCURVE('',#115,#140);
#115 = B_SPLINE_SURFACE_WITH_KNOTS('',11,1,(
    (#116,#117)
    ,(#118,#119)
    ,(#120,#121)
    ,(#122,#123)
    ,(#124,#125)
    ,(#126,#127)
    ,(#128,#129)
    ,(#130,#131)
    ,(#132,#133)
    ,(#134,#135)
    ,(#136,#137)
    ,(#138,#139
    )),.UNSPECIFIED.,.F.,.F.,.F.,(12,12),(2,2),(-73.5,0.),(0.,1.),
  .PIECEWISE_BEZIER_KNOTS.);
#116 = CARTESIAN_POINT('',(37.8,-7.105427357601E-15,0.));
#117 = CARTESIAN_POINT('',(36.75,0.75,99.));
#118 = CARTESIAN_POINT('',(37.8,10.725534618702,0.));
#119 = CARTESIAN_POINT('',(30.068181818182,0.75,99.));
#120 = CARTESIAN_POINT('',(34.452359659639,21.451068457069,0.));
#121 = CARTESIAN_POINT('',(23.386363636364,0.75,99.));
#122 = CARTESIAN_POINT('',(27.757079789678,31.015652162493,0.));
#123 = CARTESIAN_POINT('',(16.704545454545,0.75,99.));
#124 = CARTESIAN_POINT('',(18.167101192845,38.2582922896,0.));
#125 = CARTESIAN_POINT('',(10.022727272727,0.75,99.));
#126 = CARTESIAN_POINT('',(6.588333853533,42.220109895496,0.));
#127 = CARTESIAN_POINT('',(3.340909090909,0.75,99.));
#128 = CARTESIAN_POINT('',(-5.725506764718,42.345748249928,0.));
#129 = CARTESIAN_POINT('',(-3.340909090909,0.75,99.));
#130 = CARTESIAN_POINT('',(-17.38270020679,38.621007601877,0.));
#131 = CARTESIAN_POINT('',(-10.02272727272,0.75,99.));
#132 = CARTESIAN_POINT('',(-27.11846055823,31.575548363709,0.));
#133 = CARTESIAN_POINT('',(-16.70454545454,0.75,99.));
#134 = CARTESIAN_POINT('',(-34.00750154424,22.149565747081,0.));
#135 = CARTESIAN_POINT('',(-23.38636363636,0.75,99.));
#136 = CARTESIAN_POINT('',(-37.57328784484,11.494569734672,0.));
#137 = CARTESIAN_POINT('',(-30.06818181818,0.75,99.));
#138 = CARTESIAN_POINT('',(-37.79213073791,0.771267974243,0.));
#139 = CARTESIAN_POINT('',(-36.75,0.75,99.));
#140 = DEFINITIONAL_REPRESENTATION('',(#141),#144);
#141 = B_SPLINE_CURVE_WITH_KNOTS('',1,(#142,#143),.UNSPECIFIED.,.F.,.F.,
  (2,2),(0.,3.121187322903),.PIECEWISE_BEZIER_KNOTS.);
#142 = CARTESIAN_POINT('',(-73.5,0.));
#143 = CARTESIAN_POINT('',(0.,0.));
#144 = ( GEOMETRIC_REPRESENTATION_CONTEXT(2) 
PARAMETRIC_REPRESENTATION_CONTEXT() REPRESENTATION_CONTEXT('2D SPACE',''
  ) );
#145 = ORIENTED_EDGE('',*,*,#146,.T.);
#146 = EDGE_CURVE('',#99,#147,#149,.T.);
#147 = VERTEX_POINT('',#148);
#148 = CARTESIAN_POINT('',(-37.79213073791,0.771267974243,0.));
#149 = SURFACE_CURVE('',#150,(#155,#162),.PCURVE_S1.);
#150 = CIRCLE('',#151,37.8);
#151 = AXIS2_PLACEMENT_3D('',#152,#153,#154);
#152 = CARTESIAN_POINT('',(0.,0.,0.));
#153 = DIRECTION('',(0.,0.,1.));
#154 = DIRECTION('',(1.,0.,0.));
#155 = PCURVE('',#59,#156);
#156 = DEFINITIONAL_REPRESENTATION('',(#157),#161);
#157 = CIRCLE('',#158,37.8);
#158 = AXIS2_PLACEMENT_2D('',#159,#160);
#159 = CARTESIAN_POINT('',(1.882068139409E-15,1.61343992693E-17));
#160 = DIRECTION('',(1.,0.));
#161 = ( GEOMETRIC_REPRESENTATION_CONTEXT(2) 
PARAMETRIC_REPRESENTATION_CONTEXT() REPRESENTATION_CONTEXT('2D SPACE',''
  ) );
#162 = PCURVE('',#163,#188);
#163 = B_SPLINE_SURFACE_WITH_KNOTS('',11,1,(
    (#164,#165)
    ,(#166,#167)
    ,(#168,#169)
    ,(#170,#171)
    ,(#172,#173)
    ,(#174,#175)
    ,(#176,#177)
    ,(#178,#179)
    ,(#180,#181)
    ,(#182,#183)
    ,(#184,#185)
    ,(#186,#187
    )),.UNSPECIFIED.,.F.,.F.,.F.,(12,12),(2,2),(-73.5,0.),(0.,1.),
  .PIECEWISE_BEZIER_KNOTS.);
#164 = CARTESIAN_POINT('',(37.8,-7.105427357601E-15,0.));
#165 = CARTESIAN_POINT('',(36.75,0.75,99.));
#166 = CARTESIAN_POINT('',(37.8,10.725534618702,0.));
#167 = CARTESIAN_POINT('',(30.068181818182,0.75,99.));
#168 = CARTESIAN_POINT('',(34.452359659639,21.451068457069,0.));
#169 = CARTESIAN_POINT('',(23.386363636364,0.75,99.));
#170 = CARTESIAN_POINT('',(27.757079789678,31.015652162493,0.));
#171 = CARTESIAN_POINT('',(16.704545454545,0.75,99.));
#172 = CARTESIAN_POINT('',(18.167101192845,38.2582922896,0.));
#173 = CARTESIAN_POINT('',(10.022727272727,0.75,99.));
#174 = CARTESIAN_POINT('',(6.588333853533,42.220109895496,0.));
#175 = CARTESIAN_POINT('',(3.340909090909,0.75,99.));
#176 = CARTESIAN_POINT('',(-5.725506764718,42.345748249928,0.));
#177 = CARTESIAN_POINT('',(-3.340909090909,0.75,99.));
#178 = CARTESIAN_POINT('',(-17.38270020679,38.621007601877,0.));
#179 = CARTESIAN_POINT('',(-10.02272727272,0.75,99.));
#180 = CARTESIAN_POINT('',(-27.11846055823,31.575548363709,0.));
#181 = CARTESIAN_POINT('',(-16.70454545454,0.75,99.));
#182 = CARTESIAN_POINT('',(-34.00750154424,22.149565747081,0.));
#183 = CARTESIAN_POINT('',(-23.38636363636,0.75,99.));
#184 = CARTESIAN_POINT('',(-37.57328784484,11.494569734672,0.));
#185 = CARTESIAN_POINT('',(-30.06818181818,0.75,99.));
#186 = CARTESIAN_POINT('',(-37.79213073791,0.771267974243,0.));
#187 = CARTESIAN_POINT('',(-36.75,0.75,99.));
#188 = DEFINITIONAL_REPRESENTATION('',(#189),#192);
#189 = B_SPLINE_CURVE_WITH_KNOTS('',1,(#190,#191),.UNSPECIFIED.,.F.,.F.,
  (2,2),(0.,3.121187322903),.PIECEWISE_BEZIER_KNOTS.);
#190 = CARTESIAN_POINT('',(-73.5,0.));
#191 = CARTESIAN_POINT('',(0.,0.));
#192 = ( GEOMETRIC_REPRESENTATION_CONTEXT(2) 
PARAMETRIC_REPRESENTATION_CONTEXT() REPRESENTATION_CONTEXT('2D SPACE',''
  ) );
#193 = ORIENTED_EDGE('',*,*,#194,.T.);
#194 = EDGE_CURVE('',#147,#195,#197,.T.);
#195 = VERTEX_POINT('',#196);
#196 = CARTESIAN_POINT('',(-37.79999986313,3.216713912749E-03,0.));
#197 = SURFACE_CURVE('',#198,(#203,#210),.PCURVE_S1.);
#198 = CIRCLE('',#199,37.8);
#199 = AXIS2_PLACEMENT_3D('',#200,#201,#202);
#200 = CARTESIAN_POINT('',(0.,0.,0.));
#201 = DIRECTION('',(0.,0.,1.));
#202 = DIRECTION('',(1.,0.,0.));
#203 = PCURVE('',#59,#204);
#204 = DEFINITIONAL_REPRESENTATION('',(#205),#209);
#205 = CIRCLE('',#206,37.8);
#206 = AXIS2_PLACEMENT_2D('',#207,#208);
#207 = CARTESIAN_POINT('',(1.882068139409E-15,1.61343992693E-17));
#208 = DIRECTION('',(1.,0.));
#209 = ( GEOMETRIC_REPRESENTATION_CONTEXT(2) 
PARAMETRIC_REPRESENTATION_CONTEXT() REPRESENTATION_CONTEXT('2D SPACE',''
  ) );
#210 = PCURVE('',#211,#232);
#211 = B_SPLINE_SURFACE_WITH_KNOTS('',9,1,(
    (#212,#213)
    ,(#214,#215)
    ,(#216,#217)
    ,(#218,#219)
    ,(#220,#221)
    ,(#222,#223)
    ,(#224,#225)
    ,(#226,#227)
    ,(#228,#229)
    ,(#230,#231
    )),.UNSPECIFIED.,.F.,.F.,.F.,(10,10),(2,2),(3.14159265359,
    6.28318530718),(0.,1.),.PIECEWISE_BEZIER_KNOTS.);
#212 = CARTESIAN_POINT('',(-37.79213073791,0.771267974243,0.));
#213 = CARTESIAN_POINT('',(-36.75,0.75,99.));
#214 = CARTESIAN_POINT('',(-37.79562806637,0.599898879786,0.));
#215 = CARTESIAN_POINT('',(-37.01179938779,0.75,99.));
#216 = CARTESIAN_POINT('',(-37.79825118407,0.428511943798,0.));
#217 = CARTESIAN_POINT('',(-37.27360149249,0.647191900061,
    98.999999999999));
#218 = CARTESIAN_POINT('',(-37.79999998699,0.257112263859,0.));
#219 = CARTESIAN_POINT('',(-37.48924283384,0.44157278914,99.000000000004
    ));
#220 = CARTESIAN_POINT('',(-37.80087440579,8.570493754982E-02,0.));
#221 = CARTESIAN_POINT('',(-37.61268047281,0.157317457926,
    98.999999999993));
#222 = CARTESIAN_POINT('',(-37.80087440579,-8.570493754981E-02,0.));
#223 = CARTESIAN_POINT('',(-37.61268047282,-0.157317457926,
    99.000000000007));
#224 = CARTESIAN_POINT('',(-37.79999998699,-0.257112263859,0.));
#225 = CARTESIAN_POINT('',(-37.48924283383,-0.44157278914,
    98.999999999994));
#226 = CARTESIAN_POINT('',(-37.79825118407,-0.428511943798,0.));
#227 = CARTESIAN_POINT('',(-37.2736014925,-0.647191900061,
    99.000000000003));
#228 = CARTESIAN_POINT('',(-37.79562806637,-0.599898879786,0.));
#229 = CARTESIAN_POINT('',(-37.01179938779,-0.75,98.999999999999));
#230 = CARTESIAN_POINT('',(-37.79213073791,-0.771267974243,0.));
#231 = CARTESIAN_POINT('',(-36.75,-0.75,99.));
#232 = DEFINITIONAL_REPRESENTATION('',(#233),#236);
#233 = B_SPLINE_CURVE_WITH_KNOTS('',1,(#234,#235),.UNSPECIFIED.,.F.,.F.,
  (2,2),(3.121187322903,3.161997984276),.PIECEWISE_BEZIER_KNOTS.);
#234 = CARTESIAN_POINT('',(3.14159265359,0.));
#235 = CARTESIAN_POINT('',(6.28318530718,0.));
#236 = ( GEOMETRIC_REPRESENTATION_CONTEXT(2) 
PARAMETRIC_REPRESENTATION_CONTEXT() REPRESENTATION_CONTEXT('2D SPACE',''
  ) );
#237 = ORIENTED_EDGE('',*,*,#238,.T.);
#238 = EDGE_CURVE('',#195,#239,#241,.T.);
#239 = VERTEX_POINT('',#240);
#240 = CARTESIAN_POINT('',(-37.79213073791,-0.771267974243,0.));
#241 = SURFACE_CURVE('',#242,(#247,#254),.PCURVE_S1.);
#242 = CIRCLE('',#243,37.8);
#243 = AXIS2_PLACEMENT_3D('',#244,#245,#246);
#244 = CARTESIAN_POINT('',(0.,0.,0.));
#245 = DIRECTION('',(0.,0.,1.));
#246 = DIRECTION('',(1.,0.,0.));
#247 = PCURVE('',#59,#248);
#248 = DEFINITIONAL_REPRESENTATION('',(#249),#253);
#249 = CIRCLE('',#250,37.8);
#250 = AXIS2_PLACEMENT_2D('',#251,#252);
#251 = CARTESIAN_POINT('',(1.882068139409E-15,1.61343992693E-17));
#252 = DIRECTION('',(1.,0.));
#253 = ( GEOMETRIC_REPRESENTATION_CONTEXT(2) 
PARAMETRIC_REPRESENTATION_CONTEXT() REPRESENTATION_CONTEXT('2D SPACE',''
  ) );
#254 = PCURVE('',#255,#276);
#255 = B_SPLINE_SURFACE_WITH_KNOTS('',9,1,(
    (#256,#257)
    ,(#258,#259)
    ,(#260,#261)
    ,(#262,#263)
    ,(#264,#265)
    ,(#266,#267)
    ,(#268,#269)
    ,(#270,#271)
    ,(#272,#273)
    ,(#274,#275
    )),.UNSPECIFIED.,.F.,.F.,.F.,(10,10),(2,2),(3.14159265359,
    6.28318530718),(0.,1.),.PIECEWISE_BEZIER_KNOTS.);
#256 = CARTESIAN_POINT('',(-37.79213073791,0.771267974243,0.));
#257 = CARTESIAN_POINT('',(-36.75,0.75,99.));
#258 = CARTESIAN_POINT('',(-37.79562806637,0.599898879786,0.));
#259 = CARTESIAN_POINT('',(-37.01179938779,0.75,99.));
#260 = CARTESIAN_POINT('',(-37.79825118407,0.428511943798,0.));
#261 = CARTESIAN_POINT('',(-37.27360149249,0.647191900061,
    98.999999999999));
#262 = CARTESIAN_POINT('',(-37.79999998699,0.257112263859,0.));
#263 = CARTESIAN_POINT('',(-37.48924283384,0.44157278914,99.000000000004
    ));
#264 = CARTESIAN_POINT('',(-37.80087440579,8.570493754982E-02,0.));
#265 = CARTESIAN_POINT('',(-37.61268047281,0.157317457926,
    98.999999999993));
#266 = CARTESIAN_POINT('',(-37.80087440579,-8.570493754981E-02,0.));
#267 = CARTESIAN_POINT('',(-37.61268047282,-0.157317457926,
    99.000000000007));
#268 = CARTESIAN_POINT('',(-37.79999998699,-0.257112263859,0.));
#269 = CARTESIAN_POINT('',(-37.48924283383,-0.44157278914,
    98.999999999994));
#270 = CARTESIAN_POINT('',(-37.79825118407,-0.428511943798,0.));
#271 = CARTESIAN_POINT('',(-37.2736014925,-0.647191900061,
    99.000000000003));
#272 = CARTESIAN_POINT('',(-37.79562806637,-0.599898879786,0.));
#273 = CARTESIAN_POINT('',(-37.01179938779,-0.75,98.999999999999));
#274 = CARTESIAN_POINT('',(-37.79213073791,-0.771267974243,0.));
#275 = CARTESIAN_POINT('',(-36.75,-0.75,99.));
#276 = DEFINITIONAL_REPRESENTATION('',(#277),#280);
#277 = B_SPLINE_CURVE_WITH_KNOTS('',1,(#278,#279),.UNSPECIFIED.,.F.,.F.,
  (2,2),(3.121187322903,3.161997984276),.PIECEWISE_BEZIER_KNOTS.);
#278 = CARTESIAN_POINT('',(3.14159265359,0.));
#279 = CARTESIAN_POINT('',(6.28318530718,0.));
#280 = ( GEOMETRIC_REPRESENTATION_CONTEXT(2) 
PARAMETRIC_REPRESENTATION_CONTEXT() REPRESENTATION_CONTEXT('2D SPACE',''
  ) );
#281 = ORIENTED_EDGE('',*,*,#282,.T.);
#282 = EDGE_CURVE('',#239,#48,#283,.T.);
#283 = SURFACE_CURVE('',#284,(#289,#296),.PCURVE_S1.);
#284 = CIRCLE('',#285,37.8);
#285 = AXIS2_PLACEMENT_3D('',#286,#287,#288);
#286 = CARTESIAN_POINT('',(0.,0.,0.));
#287 = DIRECTION('',(0.,0.,1.));
#288 = DIRECTION('',(1.,0.,0.));
#289 = PCURVE('',#59,#290);
#290 = DEFINITIONAL_REPRESENTATION('',(#291),#295);
#291 = CIRCLE('',#292,37.8);
#292 = AXIS2_PLACEMENT_2D('',#293,#294);
#293 = CARTESIAN_POINT('',(1.882068139409E-15,1.61343992693E-17));
#294 = DIRECTION('',(1.,0.));
#295 = ( GEOMETRIC_REPRESENTATION_CONTEXT(2) 
PARAMETRIC_REPRESENTATION_CONTEXT() REPRESENTATION_CONTEXT('2D SPACE',''
  ) );
#296 = PCURVE('',#297,#322);
#297 = B_SPLINE_SURFACE_WITH_KNOTS('',11,1,(
    (#298,#299)
    ,(#300,#301)
    ,(#302,#303)
    ,(#304,#305)
    ,(#306,#307)
    ,(#308,#309)
    ,(#310,#311)
    ,(#312,#313)
    ,(#314,#315)
    ,(#316,#317)
    ,(#318,#319)
    ,(#320,#321
    )),.UNSPECIFIED.,.F.,.F.,.F.,(12,12),(2,2),(-73.5,0.),(0.,1.),
  .PIECEWISE_BEZIER_KNOTS.);
#298 = CARTESIAN_POINT('',(-37.79213073791,-0.771267974243,0.));
#299 = CARTESIAN_POINT('',(-36.75,-0.75,99.));
#300 = CARTESIAN_POINT('',(-37.57471857012,-11.42446419602,0.));
#301 = CARTESIAN_POINT('',(-30.06818181818,-0.75,99.));
#302 = CARTESIAN_POINT('',(-34.05398244305,-22.01024492189,0.));
#303 = CARTESIAN_POINT('',(-23.38636363636,-0.75,99.));
#304 = CARTESIAN_POINT('',(-27.25314953237,-31.390518583,0.));
#305 = CARTESIAN_POINT('',(-16.70454545454,-0.75,99.));
#306 = CARTESIAN_POINT('',(-17.63656680973,-38.43615531257,0.));
#307 = CARTESIAN_POINT('',(-10.02272727272,-0.75,99.));
#308 = CARTESIAN_POINT('',(-6.105738169345,-42.22257429826,0.));
#309 = CARTESIAN_POINT('',(-3.340909090909,-0.75,99.));
#310 = CARTESIAN_POINT('',(6.105738169345,-42.22257429824,0.));
#311 = CARTESIAN_POINT('',(3.340909090909,-0.75,99.));
#312 = CARTESIAN_POINT('',(17.636566809734,-38.43615531259,0.));
#313 = CARTESIAN_POINT('',(10.022727272727,-0.75,99.));
#314 = CARTESIAN_POINT('',(27.253149532378,-31.39051858299,0.));
#315 = CARTESIAN_POINT('',(16.704545454545,-0.75,99.));
#316 = CARTESIAN_POINT('',(34.053982443054,-22.01024492189,0.));
#317 = CARTESIAN_POINT('',(23.386363636364,-0.75,99.));
#318 = CARTESIAN_POINT('',(37.574718570127,-11.42446419602,0.));
#319 = CARTESIAN_POINT('',(30.068181818182,-0.75,99.));
#320 = CARTESIAN_POINT('',(37.792130737918,-0.771267974243,0.));
#321 = CARTESIAN_POINT('',(36.75,-0.75,99.));
#322 = DEFINITIONAL_REPRESENTATION('',(#323),#326);
#323 = B_SPLINE_CURVE_WITH_KNOTS('',1,(#324,#325),.UNSPECIFIED.,.F.,.F.,
  (2,2),(3.161997984276,6.262779976493),.PIECEWISE_BEZIER_KNOTS.);
#324 = CARTESIAN_POINT('',(-73.5,0.));
#325 = CARTESIAN_POINT('',(0.,0.));
#326 = ( GEOMETRIC_REPRESENTATION_CONTEXT(2) 
PARAMETRIC_REPRESENTATION_CONTEXT() REPRESENTATION_CONTEXT('2D SPACE',''
  ) );
#327 = ADVANCED_FACE('',(#328),#71,.T.);
#328 = FACE_BOUND('',#329,.T.);
#329 = EDGE_LOOP('',(#330,#352,#353,#375,#524));
#330 = ORIENTED_EDGE('',*,*,#331,.F.);
#331 = EDGE_CURVE('',#48,#332,#334,.T.);
#332 = VERTEX_POINT('',#333);
#333 = CARTESIAN_POINT('',(36.75,-0.75,99.));
#334 = SURFACE_CURVE('',#335,(#338,#345),.PCURVE_S1.);
#335 = B_SPLINE_CURVE_WITH_KNOTS('',1,(#336,#337),.UNSPECIFIED.,.F.,.F.,
  (2,2),(0.,1.),.PIECEWISE_BEZIER_KNOTS.);
#336 = CARTESIAN_POINT('',(37.792130737918,-0.771267974243,0.));
#337 = CARTESIAN_POINT('',(36.75,-0.75,99.));
#338 = PCURVE('',#71,#339);
#339 = DEFINITIONAL_REPRESENTATION('',(#340),#344);
#340 = LINE('',#341,#342);
#341 = CARTESIAN_POINT('',(3.14159265359,0.));
#342 = VECTOR('',#343,1.);
#343 = DIRECTION('',(0.,1.));
#344 = ( GEOMETRIC_REPRESENTATION_CONTEXT(2) 
PARAMETRIC_REPRESENTATION_CONTEXT() REPRESENTATION_CONTEXT('2D SPACE',''
  ) );
#345 = PCURVE('',#297,#346);
#346 = DEFINITIONAL_REPRESENTATION('',(#347),#351);
#347 = LINE('',#348,#349);
#348 = CARTESIAN_POINT('',(0.,0.));
#349 = VECTOR('',#350,1.);
#350 = DIRECTION('',(0.,1.));
#351 = ( GEOMETRIC_REPRESENTATION_CONTEXT(2) 
PARAMETRIC_REPRESENTATION_CONTEXT() REPRESENTATION_CONTEXT('2D SPACE',''
  ) );
#352 = ORIENTED_EDGE('',*,*,#47,.T.);
#353 = ORIENTED_EDGE('',*,*,#354,.T.);
#354 = EDGE_CURVE('',#50,#355,#357,.T.);
#355 = VERTEX_POINT('',#356);
#356 = CARTESIAN_POINT('',(37.795496600522,3.216713912751E-03,
    0.424606236484));
#357 = SURFACE_CURVE('',#358,(#361,#368),.PCURVE_S1.);
#358 = B_SPLINE_CURVE_WITH_KNOTS('',1,(#359,#360),.UNSPECIFIED.,.F.,.F.,
  (2,2),(0.,1.),.PIECEWISE_BEZIER_KNOTS.);
#359 = CARTESIAN_POINT('',(37.8,-7.105427357601E-15,0.));
#360 = CARTESIAN_POINT('',(36.75,0.75,99.));
#361 = PCURVE('',#71,#362);
#362 = DEFINITIONAL_REPRESENTATION('',(#363),#367);
#363 = LINE('',#364,#365);
#364 = CARTESIAN_POINT('',(6.28318530718,0.));
#365 = VECTOR('',#366,1.);
#366 = DIRECTION('',(0.,1.));
#367 = ( GEOMETRIC_REPRESENTATION_CONTEXT(2) 
PARAMETRIC_REPRESENTATION_CONTEXT() REPRESENTATION_CONTEXT('2D SPACE',''
  ) );
#368 = PCURVE('',#115,#369);
#369 = DEFINITIONAL_REPRESENTATION('',(#370),#374);
#370 = LINE('',#371,#372);
#371 = CARTESIAN_POINT('',(-73.5,0.));
#372 = VECTOR('',#373,1.);
#373 = DIRECTION('',(0.,1.));
#374 = ( GEOMETRIC_REPRESENTATION_CONTEXT(2) 
PARAMETRIC_REPRESENTATION_CONTEXT() REPRESENTATION_CONTEXT('2D SPACE',''
  ) );
#375 = ORIENTED_EDGE('',*,*,#376,.T.);
#376 = EDGE_CURVE('',#355,#377,#379,.T.);
#377 = VERTEX_POINT('',#378);
#378 = CARTESIAN_POINT('',(37.499993101803,3.216713912751E-03,99.));
#379 = SURFACE_CURVE('',#380,(#419,#461),.PCURVE_S1.);
#380 = B_SPLINE_CURVE_WITH_KNOTS('',7,(#381,#382,#383,#384,#385,#386,
    #387,#388,#389,#390,#391,#392,#393,#394,#395,#396,#397,#398,#399,
    #400,#401,#402,#403,#404,#405,#406,#407,#408,#409,#410,#411,#412,
    #413,#414,#415,#416,#417,#418),.UNSPECIFIED.,.F.,.F.,(8,6,6,6,6,6,8)
  ,(0.,7.444463539427E-02,0.19473740372,0.376729374166,0.55863294258,
    0.969467266241,1.),.UNSPECIFIED.);
#381 = CARTESIAN_POINT('',(37.795496600522,3.216713912751E-03,
    0.424606236484));
#382 = CARTESIAN_POINT('',(37.784486232802,3.216713912751E-03,
    1.472576124453));
#383 = CARTESIAN_POINT('',(37.774078252353,3.216713912751E-03,
    2.520527814157));
#384 = CARTESIAN_POINT('',(37.764298146723,3.216713912751E-03,
    3.568464673152));
#385 = CARTESIAN_POINT('',(37.755161014797,3.216713912751E-03,
    4.616391443341));
#386 = CARTESIAN_POINT('',(37.746666482676,3.216713912751E-03,
    5.664313788188));
#387 = CARTESIAN_POINT('',(37.738798259306,3.216713912751E-03,
    6.712237707624));
#388 = CARTESIAN_POINT('',(37.719781082469,3.216713912751E-03,
    9.453488076345));
#389 = CARTESIAN_POINT('',(37.709595891579,3.216713912751E-03,
    11.14682603285));
#390 = CARTESIAN_POINT('',(37.700855424893,3.216713912751E-03,
    12.840205670887));
#391 = CARTESIAN_POINT('',(37.693358080667,3.216713912751E-03,
    14.533645750873));
#392 = CARTESIAN_POINT('',(37.686875443827,3.216713912751E-03,
    16.227154096293));
#393 = CARTESIAN_POINT('',(37.68121273103,3.216713912751E-03,
    17.920731107828));
#394 = CARTESIAN_POINT('',(37.668623150032,3.216713912751E-03,
    22.176696158487));
#395 = CARTESIAN_POINT('',(37.662538157324,3.216713912751E-03,
    24.739168149203));
#396 = CARTESIAN_POINT('',(37.657369123469,3.216713912751E-03,
    27.30177566164));
#397 = CARTESIAN_POINT('',(37.652712013809,3.216713912751E-03,
    29.864494001434));
#398 = CARTESIAN_POINT('',(37.648340621158,3.216713912751E-03,
    32.427300987111));
#399 = CARTESIAN_POINT('',(37.64409305003,3.216713912751E-03,
    34.990178229651));
#400 = CARTESIAN_POINT('',(37.635642364291,3.216713912751E-03,
    40.114800560927));
#401 = CARTESIAN_POINT('',(37.631438885845,3.216713912751E-03,
    42.676546319639));
#402 = CARTESIAN_POINT('',(37.627152687144,3.216713912751E-03,
    45.238337133044));
#403 = CARTESIAN_POINT('',(37.622729867682,3.216713912751E-03,
    47.8001633524));
#404 = CARTESIAN_POINT('',(37.618140714134,3.216713912751E-03,
    50.362017691611));
#405 = CARTESIAN_POINT('',(37.613366381798,3.216713912751E-03,
    52.923895090678));
#406 = CARTESIAN_POINT('',(37.597175883693,3.216713912751E-03,
    61.271909627469));
#407 = CARTESIAN_POINT('',(37.584961951229,3.216713912751E-03,
    67.058122000603));
#408 = CARTESIAN_POINT('',(37.571648184461,3.216713912751E-03,
    72.844393205691));
#409 = CARTESIAN_POINT('',(37.557321346263,3.216713912751E-03,
    78.630701117722));
#410 = CARTESIAN_POINT('',(37.542039039641,3.216713912751E-03,
    84.417032128806));
#411 = CARTESIAN_POINT('',(37.525881059143,3.216713912751E-03,
    90.203380258518));
#412 = CARTESIAN_POINT('',(37.507652169882,3.216713912751E-03,
    96.419782179988));
#413 = CARTESIAN_POINT('',(37.506386666691,3.216713912751E-03,
    96.849818303643));
#414 = CARTESIAN_POINT('',(37.505116719802,3.216713912751E-03,
    97.279854501635));
#415 = CARTESIAN_POINT('',(37.503842356905,3.216713912751E-03,
    97.709890772066));
#416 = CARTESIAN_POINT('',(37.502563605517,3.216713912751E-03,
    98.139927113105));
#417 = CARTESIAN_POINT('',(37.501280492988,3.216713912751E-03,
    98.569963522984));
#418 = CARTESIAN_POINT('',(37.4999930465,3.216713912751E-03,99.));
#419 = PCURVE('',#71,#420);
#420 = DEFINITIONAL_REPRESENTATION('',(#421),#460);
#421 = B_SPLINE_CURVE_WITH_KNOTS('',7,(#422,#423,#424,#425,#426,#427,
    #428,#429,#430,#431,#432,#433,#434,#435,#436,#437,#438,#439,#440,
    #441,#442,#443,#444,#445,#446,#447,#448,#449,#450,#451,#452,#453,
    #454,#455,#456,#457,#458,#459),.UNSPECIFIED.,.F.,.F.,(8,6,6,6,6,6,8)
  ,(0.,7.444463539427E-02,0.19473740372,0.376729374166,0.55863294258,
    0.969467266241,1.),.UNSPECIFIED.);
#422 = CARTESIAN_POINT('',(6.28318530718,4.28895188368E-03));
#423 = CARTESIAN_POINT('',(6.250709797006,1.487450630761E-02));
#424 = CARTESIAN_POINT('',(6.21744557306,2.545987691068E-02));
#425 = CARTESIAN_POINT('',(6.183525931298,3.604509770861E-02));
#426 = CARTESIAN_POINT('',(6.149120208428,4.66302165994E-02));
#427 = CARTESIAN_POINT('',(6.114421607825,5.721529078978E-02));
#428 = CARTESIAN_POINT('',(6.079629603808,6.780038088509E-02));
#429 = CARTESIAN_POINT('',(5.98885194505,9.548977854894E-02));
#430 = CARTESIAN_POINT('',(5.933010724573,0.112594202352));
#431 = CARTESIAN_POINT('',(5.878175818595,0.129699047181));
#432 = CARTESIAN_POINT('',(5.825030734921,0.146804502534));
#433 = CARTESIAN_POINT('',(5.77395167175,0.163910647437));
#434 = CARTESIAN_POINT('',(5.725114306725,0.181017485938));
#435 = CARTESIAN_POINT('',(5.608146931779,0.224007031904));
#436 = CARTESIAN_POINT('',(5.542969015149,0.249890587366));
#437 = CARTESIAN_POINT('',(5.483204952483,0.275775511734));
#438 = CARTESIAN_POINT('',(5.428342744793,0.30166155557));
#439 = CARTESIAN_POINT('',(5.37784971102,0.327548494819));
#440 = CARTESIAN_POINT('',(5.331222311046,0.353436143734));
#441 = CARTESIAN_POINT('',(5.244832386812,0.405200005666));
#442 = CARTESIAN_POINT('',(5.205066841876,0.431076225451));
#443 = CARTESIAN_POINT('',(5.168275287732,0.456952900334));
#444 = CARTESIAN_POINT('',(5.134077994546,0.482829932853));
#445 = CARTESIAN_POINT('',(5.102161212276,0.50870724941));
#446 = CARTESIAN_POINT('',(5.072268105382,0.534584798896));
#447 = CARTESIAN_POINT('',(4.980741720974,0.618908178055));
#448 = CARTESIAN_POINT('',(4.926511109839,0.677354767683));
#449 = CARTESIAN_POINT('',(4.878980141188,0.735801951573));
#450 = CARTESIAN_POINT('',(4.836719326568,0.794249506239));
#451 = CARTESIAN_POINT('',(4.798713229686,0.85269729423));
#452 = CARTESIAN_POINT('',(4.764235289529,0.911145255137));
#453 = CARTESIAN_POINT('',(4.730389192199,0.973937193737));
#454 = CARTESIAN_POINT('',(4.728064221807,0.978280992966));
#455 = CARTESIAN_POINT('',(4.725755447295,0.982624792946));
#456 = CARTESIAN_POINT('',(4.723462646713,0.986968593657));
#457 = CARTESIAN_POINT('',(4.721185603214,0.991312395082));
#458 = CARTESIAN_POINT('',(4.718924105047,0.995656197202));
#459 = CARTESIAN_POINT('',(4.716677945562,1.));
#460 = ( GEOMETRIC_REPRESENTATION_CONTEXT(2) 
PARAMETRIC_REPRESENTATION_CONTEXT() REPRESENTATION_CONTEXT('2D SPACE',''
  ) );
#461 = PCURVE('',#462,#483);
#462 = B_SPLINE_SURFACE_WITH_KNOTS('',9,1,(
    (#463,#464)
    ,(#465,#466)
    ,(#467,#468)
    ,(#469,#470)
    ,(#471,#472)
    ,(#473,#474)
    ,(#475,#476)
    ,(#477,#478)
    ,(#479,#480)
    ,(#481,#482
    )),.UNSPECIFIED.,.F.,.F.,.F.,(10,10),(2,2),(3.14159265359,
    6.28318530718),(0.,1.),.PIECEWISE_BEZIER_KNOTS.);
#463 = CARTESIAN_POINT('',(37.792130737918,-0.771267974243,0.));
#464 = CARTESIAN_POINT('',(36.75,-0.75,99.));
#465 = CARTESIAN_POINT('',(37.793879402147,-0.685583427015,0.));
#466 = CARTESIAN_POINT('',(37.011799387799,-0.75,99.));
#467 = CARTESIAN_POINT('',(37.795409506102,-0.599894419434,0.));
#468 = CARTESIAN_POINT('',(37.273601492499,-0.647191900061,
    98.999999999999));
#469 = CARTESIAN_POINT('',(37.796721043281,-0.514201588687,0.));
#470 = CARTESIAN_POINT('',(37.48924283384,-0.44157278914,99.000000000004
    ));
#471 = CARTESIAN_POINT('',(37.797814007183,-0.428505571955,0.));
#472 = CARTESIAN_POINT('',(37.612680472816,-0.157317457926,
    98.999999999993));
#473 = CARTESIAN_POINT('',(37.798688391308,-0.342807006425,0.));
#474 = CARTESIAN_POINT('',(37.612680472822,0.157317457926,
    99.000000000007));
#475 = CARTESIAN_POINT('',(37.799344189153,-0.25710652928,0.));
#476 = CARTESIAN_POINT('',(37.489242833835,0.44157278914,98.999999999994
    ));
#477 = CARTESIAN_POINT('',(37.799781394217,-0.171404777705,0.));
#478 = CARTESIAN_POINT('',(37.2736014925,0.647191900061,99.000000000003)
  );
#479 = CARTESIAN_POINT('',(37.8,-8.570238888347E-02,0.));
#480 = CARTESIAN_POINT('',(37.011799387799,0.75,98.999999999999));
#481 = CARTESIAN_POINT('',(37.8,-9.27036225562E-15,0.));
#482 = CARTESIAN_POINT('',(36.75,0.75,99.));
#483 = DEFINITIONAL_REPRESENTATION('',(#484),#523);
#484 = B_SPLINE_CURVE_WITH_KNOTS('',7,(#485,#486,#487,#488,#489,#490,
    #491,#492,#493,#494,#495,#496,#497,#498,#499,#500,#501,#502,#503,
    #504,#505,#506,#507,#508,#509,#510,#511,#512,#513,#514,#515,#516,
    #517,#518,#519,#520,#521,#522),.UNSPECIFIED.,.F.,.F.,(8,6,6,6,6,6,8)
  ,(0.,7.444463539427E-02,0.19473740372,0.376729374166,0.55863294258,
    0.969467266241,1.),.UNSPECIFIED.);
#485 = CARTESIAN_POINT('',(6.28318530718,4.28895188368E-03));
#486 = CARTESIAN_POINT('',(6.250709797006,1.487450630761E-02));
#487 = CARTESIAN_POINT('',(6.21744557306,2.545987691068E-02));
#488 = CARTESIAN_POINT('',(6.183525931298,3.604509770861E-02));
#489 = CARTESIAN_POINT('',(6.149120208428,4.66302165994E-02));
#490 = CARTESIAN_POINT('',(6.114421607825,5.721529078978E-02));
#491 = CARTESIAN_POINT('',(6.079629603808,6.780038088509E-02));
#492 = CARTESIAN_POINT('',(5.98885194505,9.548977854894E-02));
#493 = CARTESIAN_POINT('',(5.933010724573,0.112594202352));
#494 = CARTESIAN_POINT('',(5.878175818595,0.129699047181));
#495 = CARTESIAN_POINT('',(5.825030734921,0.146804502534));
#496 = CARTESIAN_POINT('',(5.77395167175,0.163910647437));
#497 = CARTESIAN_POINT('',(5.725114306725,0.181017485938));
#498 = CARTESIAN_POINT('',(5.608146931779,0.224007031904));
#499 = CARTESIAN_POINT('',(5.542969015149,0.249890587366));
#500 = CARTESIAN_POINT('',(5.483204952483,0.275775511734));
#501 = CARTESIAN_POINT('',(5.428342744793,0.30166155557));
#502 = CARTESIAN_POINT('',(5.37784971102,0.327548494819));
#503 = CARTESIAN_POINT('',(5.331222311046,0.353436143734));
#504 = CARTESIAN_POINT('',(5.244832386812,0.405200005666));
#505 = CARTESIAN_POINT('',(5.205066841876,0.431076225451));
#506 = CARTESIAN_POINT('',(5.168275287732,0.456952900334));
#507 = CARTESIAN_POINT('',(5.134077994546,0.482829932853));
#508 = CARTESIAN_POINT('',(5.102161212276,0.50870724941));
#509 = CARTESIAN_POINT('',(5.072268105382,0.534584798896));
#510 = CARTESIAN_POINT('',(4.980741720974,0.618908178055));
#511 = CARTESIAN_POINT('',(4.926511109839,0.677354767683));
#512 = CARTESIAN_POINT('',(4.878980141188,0.735801951573));
#513 = CARTESIAN_POINT('',(4.836719326568,0.794249506239));
#514 = CARTESIAN_POINT('',(4.798713229686,0.85269729423));
#515 = CARTESIAN_POINT('',(4.764235289529,0.911145255137));
#516 = CARTESIAN_POINT('',(4.730389192199,0.973937193737));
#517 = CARTESIAN_POINT('',(4.728064221807,0.978280992966));
#518 = CARTESIAN_POINT('',(4.725755447295,0.982624792946));
#519 = CARTESIAN_POINT('',(4.723462646713,0.986968593657));
#520 = CARTESIAN_POINT('',(4.721185603214,0.991312395082));
#521 = CARTESIAN_POINT('',(4.718924105047,0.995656197202));
#522 = CARTESIAN_POINT('',(4.716677945562,1.));
#523 = ( GEOMETRIC_REPRESENTATION_CONTEXT(2) 
PARAMETRIC_REPRESENTATION_CONTEXT() REPRESENTATION_CONTEXT('2D SPACE',''
  ) );
#524 = ORIENTED_EDGE('',*,*,#525,.T.);
#525 = EDGE_CURVE('',#377,#332,#526,.T.);
#526 = SURFACE_CURVE('',#527,(#532,#539),.PCURVE_S1.);
#527 = CIRCLE('',#528,0.75);
#528 = AXIS2_PLACEMENT_3D('',#529,#530,#531);
#529 = CARTESIAN_POINT('',(36.75,0.,99.));
#530 = DIRECTION('',(0.,0.,-1.));
#531 = DIRECTION('',(0.,1.,0.));
#532 = PCURVE('',#71,#533);
#533 = DEFINITIONAL_REPRESENTATION('',(#534),#538);
#534 = LINE('',#535,#536);
#535 = CARTESIAN_POINT('',(6.28318530718,1.));
#536 = VECTOR('',#537,1.);
#537 = DIRECTION('',(-1.,0.));
#538 = ( GEOMETRIC_REPRESENTATION_CONTEXT(2) 
PARAMETRIC_REPRESENTATION_CONTEXT() REPRESENTATION_CONTEXT('2D SPACE',''
  ) );
#539 = PCURVE('',#540,#545);
#540 = CYLINDRICAL_SURFACE('',#541,0.75);
#541 = AXIS2_PLACEMENT_3D('',#542,#543,#544);
#542 = CARTESIAN_POINT('',(36.75,0.,99.));
#543 = DIRECTION('',(0.,0.,-1.));
#544 = DIRECTION('',(0.,1.,0.));
#545 = DEFINITIONAL_REPRESENTATION('',(#546),#549);
#546 = B_SPLINE_CURVE_WITH_KNOTS('',1,(#547,#548),.UNSPECIFIED.,.F.,.F.,
  (2,2),(0.,3.14159265359),.PIECEWISE_BEZIER_KNOTS.);
#547 = CARTESIAN_POINT('',(0.,0.));
#548 = CARTESIAN_POINT('',(3.14159265359,0.));
#549 = ( GEOMETRIC_REPRESENTATION_CONTEXT(2) 
PARAMETRIC_REPRESENTATION_CONTEXT() REPRESENTATION_CONTEXT('2D SPACE',''
  ) );
#550 = ADVANCED_FACE('',(#551),#115,.T.);
#551 = FACE_BOUND('',#552,.T.);
#552 = EDGE_LOOP('',(#553,#554,#555));
#553 = ORIENTED_EDGE('',*,*,#354,.F.);
#554 = ORIENTED_EDGE('',*,*,#98,.T.);
#555 = ORIENTED_EDGE('',*,*,#556,.T.);
#556 = EDGE_CURVE('',#99,#355,#557,.T.);
#557 = SURFACE_CURVE('',#558,(#564,#573),.PCURVE_S1.);
#558 = B_SPLINE_CURVE_WITH_KNOTS('',4,(#559,#560,#561,#562,#563),
  .UNSPECIFIED.,.F.,.F.,(5,5),(0.,1.),.PIECEWISE_BEZIER_KNOTS.);
#559 = CARTESIAN_POINT('',(37.799999863132,3.216713912751E-03,0.));
#560 = CARTESIAN_POINT('',(37.798871932963,3.216713912751E-03,
    0.106151546809));
#561 = CARTESIAN_POINT('',(37.797745406425,3.216713912751E-03,
    0.212303101828));
#562 = CARTESIAN_POINT('',(37.796620292549,3.216713912751E-03,
    0.318454665056));
#563 = CARTESIAN_POINT('',(37.795496600522,3.216713912751E-03,
    0.424606236484));
#564 = PCURVE('',#115,#565);
#565 = DEFINITIONAL_REPRESENTATION('',(#566),#572);
#566 = B_SPLINE_CURVE_WITH_KNOTS('',4,(#567,#568,#569,#570,#571),
  .UNSPECIFIED.,.F.,.F.,(5,5),(0.,1.),.PIECEWISE_BEZIER_KNOTS.);
#567 = CARTESIAN_POINT('',(-73.49799604417,0.));
#568 = CARTESIAN_POINT('',(-73.49849488436,1.072237846559E-03));
#569 = CARTESIAN_POINT('',(-73.49899515091,2.144475776043E-03));
#570 = CARTESIAN_POINT('',(-73.49949685301,3.216713788446E-03));
#571 = CARTESIAN_POINT('',(-73.5,4.288951883677E-03));
#572 = ( GEOMETRIC_REPRESENTATION_CONTEXT(2) 
PARAMETRIC_REPRESENTATION_CONTEXT() REPRESENTATION_CONTEXT('2D SPACE',''
  ) );
#573 = PCURVE('',#163,#574);
#574 = DEFINITIONAL_REPRESENTATION('',(#575),#581);
#575 = B_SPLINE_CURVE_WITH_KNOTS('',4,(#576,#577,#578,#579,#580),
  .UNSPECIFIED.,.F.,.F.,(5,5),(0.,1.),.PIECEWISE_BEZIER_KNOTS.);
#576 = CARTESIAN_POINT('',(-73.49799604417,0.));
#577 = CARTESIAN_POINT('',(-73.49849488436,1.072237846559E-03));
#578 = CARTESIAN_POINT('',(-73.49899515091,2.144475776043E-03));
#579 = CARTESIAN_POINT('',(-73.49949685301,3.216713788446E-03));
#580 = CARTESIAN_POINT('',(-73.5,4.288951883677E-03));
#581 = ( GEOMETRIC_REPRESENTATION_CONTEXT(2) 
PARAMETRIC_REPRESENTATION_CONTEXT() REPRESENTATION_CONTEXT('2D SPACE',''
  ) );
#582 = ADVANCED_FACE('',(#583),#163,.T.);
#583 = FACE_BOUND('',#584,.T.);
#584 = EDGE_LOOP('',(#585,#586,#587,#609,#637));
#585 = ORIENTED_EDGE('',*,*,#556,.F.);
#586 = ORIENTED_EDGE('',*,*,#146,.T.);
#587 = ORIENTED_EDGE('',*,*,#588,.T.);
#588 = EDGE_CURVE('',#147,#589,#591,.T.);
#589 = VERTEX_POINT('',#590);
#590 = CARTESIAN_POINT('',(-36.75,0.75,99.));
#591 = SURFACE_CURVE('',#592,(#595,#602),.PCURVE_S1.);
#592 = B_SPLINE_CURVE_WITH_KNOTS('',1,(#593,#594),.UNSPECIFIED.,.F.,.F.,
  (2,2),(0.,1.),.PIECEWISE_BEZIER_KNOTS.);
#593 = CARTESIAN_POINT('',(-37.79213073791,0.771267974243,0.));
#594 = CARTESIAN_POINT('',(-36.75,0.75,99.));
#595 = PCURVE('',#163,#596);
#596 = DEFINITIONAL_REPRESENTATION('',(#597),#601);
#597 = LINE('',#598,#599);
#598 = CARTESIAN_POINT('',(0.,0.));
#599 = VECTOR('',#600,1.);
#600 = DIRECTION('',(0.,1.));
#601 = ( GEOMETRIC_REPRESENTATION_CONTEXT(2) 
PARAMETRIC_REPRESENTATION_CONTEXT() REPRESENTATION_CONTEXT('2D SPACE',''
  ) );
#602 = PCURVE('',#211,#603);
#603 = DEFINITIONAL_REPRESENTATION('',(#604),#608);
#604 = LINE('',#605,#606);
#605 = CARTESIAN_POINT('',(3.14159265359,0.));
#606 = VECTOR('',#607,1.);
#607 = DIRECTION('',(0.,1.));
#608 = ( GEOMETRIC_REPRESENTATION_CONTEXT(2) 
PARAMETRIC_REPRESENTATION_CONTEXT() REPRESENTATION_CONTEXT('2D SPACE',''
  ) );
#609 = ORIENTED_EDGE('',*,*,#610,.T.);
#610 = EDGE_CURVE('',#589,#611,#613,.T.);
#611 = VERTEX_POINT('',#612);
#612 = CARTESIAN_POINT('',(36.75,0.75,99.));
#613 = SURFACE_CURVE('',#614,(#618,#625),.PCURVE_S1.);
#614 = LINE('',#615,#616);
#615 = CARTESIAN_POINT('',(-36.75,0.75,99.));
#616 = VECTOR('',#617,1.);
#617 = DIRECTION('',(1.,0.,0.));
#618 = PCURVE('',#163,#619);
#619 = DEFINITIONAL_REPRESENTATION('',(#620),#624);
#620 = LINE('',#621,#622);
#621 = CARTESIAN_POINT('',(0.,1.));
#622 = VECTOR('',#623,1.);
#623 = DIRECTION('',(-1.,0.));
#624 = ( GEOMETRIC_REPRESENTATION_CONTEXT(2) 
PARAMETRIC_REPRESENTATION_CONTEXT() REPRESENTATION_CONTEXT('2D SPACE',''
  ) );
#625 = PCURVE('',#626,#631);
#626 = PLANE('',#627);
#627 = AXIS2_PLACEMENT_3D('',#628,#629,#630);
#628 = CARTESIAN_POINT('',(-36.75,0.75,99.));
#629 = DIRECTION('',(0.,1.,0.));
#630 = DIRECTION('',(1.,0.,0.));
#631 = DEFINITIONAL_REPRESENTATION('',(#632),#636);
#632 = LINE('',#633,#634);
#633 = CARTESIAN_POINT('',(0.,0.));
#634 = VECTOR('',#635,1.);
#635 = DIRECTION('',(1.,0.));
#636 = ( GEOMETRIC_REPRESENTATION_CONTEXT(2) 
PARAMETRIC_REPRESENTATION_CONTEXT() REPRESENTATION_CONTEXT('2D SPACE',''
  ) );
#637 = ORIENTED_EDGE('',*,*,#638,.F.);
#638 = EDGE_CURVE('',#355,#611,#639,.T.);
#639 = SURFACE_CURVE('',#640,(#643,#650),.PCURVE_S1.);
#640 = B_SPLINE_CURVE_WITH_KNOTS('',1,(#641,#642),.UNSPECIFIED.,.F.,.F.,
  (2,2),(0.,1.),.PIECEWISE_BEZIER_KNOTS.);
#641 = CARTESIAN_POINT('',(37.8,-7.105427357601E-15,0.));
#642 = CARTESIAN_POINT('',(36.75,0.75,99.));
#643 = PCURVE('',#163,#644);
#644 = DEFINITIONAL_REPRESENTATION('',(#645),#649);
#645 = LINE('',#646,#647);
#646 = CARTESIAN_POINT('',(-73.5,0.));
#647 = VECTOR('',#648,1.);
#648 = DIRECTION('',(0.,1.));
#649 = ( GEOMETRIC_REPRESENTATION_CONTEXT(2) 
PARAMETRIC_REPRESENTATION_CONTEXT() REPRESENTATION_CONTEXT('2D SPACE',''
  ) );
#650 = PCURVE('',#462,#651);
#651 = DEFINITIONAL_REPRESENTATION('',(#652),#656);
#652 = LINE('',#653,#654);
#653 = CARTESIAN_POINT('',(6.28318530718,0.));
#654 = VECTOR('',#655,1.);
#655 = DIRECTION('',(0.,1.));
#656 = ( GEOMETRIC_REPRESENTATION_CONTEXT(2) 
PARAMETRIC_REPRESENTATION_CONTEXT() REPRESENTATION_CONTEXT('2D SPACE',''
  ) );
#657 = ADVANCED_FACE('',(#658),#211,.T.);
#658 = FACE_BOUND('',#659,.T.);
#659 = EDGE_LOOP('',(#660,#661,#662,#706));
#660 = ORIENTED_EDGE('',*,*,#588,.F.);
#661 = ORIENTED_EDGE('',*,*,#194,.T.);
#662 = ORIENTED_EDGE('',*,*,#663,.T.);
#663 = EDGE_CURVE('',#195,#664,#666,.T.);
#664 = VERTEX_POINT('',#665);
#665 = CARTESIAN_POINT('',(-37.4999931018,3.216713912751E-03,99.));
#666 = SURFACE_CURVE('',#667,(#678,#692),.PCURVE_S1.);
#667 = B_SPLINE_CURVE_WITH_KNOTS('',5,(#668,#669,#670,#671,#672,#673,
    #674,#675,#676,#677),.UNSPECIFIED.,.F.,.F.,(6,4,6),(0.,
    0.842000002342,1.),.UNSPECIFIED.);
#668 = CARTESIAN_POINT('',(-37.79999986313,3.216713912751E-03,0.));
#669 = CARTESIAN_POINT('',(-37.74947719109,3.216713912751E-03,
    16.671600036235));
#670 = CARTESIAN_POINT('',(-37.69895569622,3.216713912751E-03,
    33.343200080379));
#671 = CARTESIAN_POINT('',(-37.64843464493,3.216713912751E-03,
    50.014800127579));
#672 = CARTESIAN_POINT('',(-37.59791394192,3.216713912751E-03,
    66.686400176733));
#673 = CARTESIAN_POINT('',(-37.53791335127,3.216713912751E-03,
    86.486400181832));
#674 = CARTESIAN_POINT('',(-37.52843326553,3.216713912751E-03,
    89.614800136313));
#675 = CARTESIAN_POINT('',(-37.51895318655,3.216713912751E-03,
    92.743200090837));
#676 = CARTESIAN_POINT('',(-37.5094731137,3.216713912751E-03,
    95.8716000454));
#677 = CARTESIAN_POINT('',(-37.4999930465,3.216713912751E-03,99.));
#678 = PCURVE('',#211,#679);
#679 = DEFINITIONAL_REPRESENTATION('',(#680),#691);
#680 = B_SPLINE_CURVE_WITH_KNOTS('',5,(#681,#682,#683,#684,#685,#686,
    #687,#688,#689,#690),.UNSPECIFIED.,.F.,.F.,(6,4,6),(0.,
    0.842000002342,1.),.UNSPECIFIED.);
#681 = CARTESIAN_POINT('',(4.7058381421,0.));
#682 = CARTESIAN_POINT('',(4.706419909718,0.168400000366));
#683 = CARTESIAN_POINT('',(4.706872857408,0.336800000812));
#684 = CARTESIAN_POINT('',(4.707251924966,0.505200001289));
#685 = CARTESIAN_POINT('',(4.707573537111,0.673600001785));
#686 = CARTESIAN_POINT('',(4.707904884159,0.873600001837));
#687 = CARTESIAN_POINT('',(4.707955726691,0.905200001377));
#688 = CARTESIAN_POINT('',(4.708005145563,0.936800000918));
#689 = CARTESIAN_POINT('',(4.708053218681,0.968400000459));
#690 = CARTESIAN_POINT('',(4.708100015207,1.));
#691 = ( GEOMETRIC_REPRESENTATION_CONTEXT(2) 
PARAMETRIC_REPRESENTATION_CONTEXT() REPRESENTATION_CONTEXT('2D SPACE',''
  ) );
#692 = PCURVE('',#255,#693);
#693 = DEFINITIONAL_REPRESENTATION('',(#694),#705);
#694 = B_SPLINE_CURVE_WITH_KNOTS('',5,(#695,#696,#697,#698,#699,#700,
    #701,#702,#703,#704),.UNSPECIFIED.,.F.,.F.,(6,4,6),(0.,
    0.842000002342,1.),.UNSPECIFIED.);
#695 = CARTESIAN_POINT('',(4.7058381421,0.));
#696 = CARTESIAN_POINT('',(4.706419909718,0.168400000366));
#697 = CARTESIAN_POINT('',(4.706872857408,0.336800000812));
#698 = CARTESIAN_POINT('',(4.707251924966,0.505200001289));
#699 = CARTESIAN_POINT('',(4.707573537111,0.673600001785));
#700 = CARTESIAN_POINT('',(4.707904884159,0.873600001837));
#701 = CARTESIAN_POINT('',(4.707955726691,0.905200001377));
#702 = CARTESIAN_POINT('',(4.708005145563,0.936800000918));
#703 = CARTESIAN_POINT('',(4.708053218681,0.968400000459));
#704 = CARTESIAN_POINT('',(4.708100015207,1.));
#705 = ( GEOMETRIC_REPRESENTATION_CONTEXT(2) 
PARAMETRIC_REPRESENTATION_CONTEXT() REPRESENTATION_CONTEXT('2D SPACE',''
  ) );
#706 = ORIENTED_EDGE('',*,*,#707,.T.);
#707 = EDGE_CURVE('',#664,#589,#708,.T.);
#708 = SURFACE_CURVE('',#709,(#714,#721),.PCURVE_S1.);
#709 = CIRCLE('',#710,0.75);
#710 = AXIS2_PLACEMENT_3D('',#711,#712,#713);
#711 = CARTESIAN_POINT('',(-36.75,0.,99.));
#712 = DIRECTION('',(-0.,-0.,-1.));
#713 = DIRECTION('',(0.,-1.,0.));
#714 = PCURVE('',#211,#715);
#715 = DEFINITIONAL_REPRESENTATION('',(#716),#720);
#716 = LINE('',#717,#718);
#717 = CARTESIAN_POINT('',(6.28318530718,1.));
#718 = VECTOR('',#719,1.);
#719 = DIRECTION('',(-1.,0.));
#720 = ( GEOMETRIC_REPRESENTATION_CONTEXT(2) 
PARAMETRIC_REPRESENTATION_CONTEXT() REPRESENTATION_CONTEXT('2D SPACE',''
  ) );
#721 = PCURVE('',#722,#727);
#722 = CYLINDRICAL_SURFACE('',#723,0.75);
#723 = AXIS2_PLACEMENT_3D('',#724,#725,#726);
#724 = CARTESIAN_POINT('',(-36.75,0.,99.));
#725 = DIRECTION('',(0.,0.,-1.));
#726 = DIRECTION('',(0.,-1.,0.));
#727 = DEFINITIONAL_REPRESENTATION('',(#728),#731);
#728 = B_SPLINE_CURVE_WITH_KNOTS('',1,(#729,#730),.UNSPECIFIED.,.F.,.F.,
  (2,2),(0.,3.14159265359),.PIECEWISE_BEZIER_KNOTS.);
#729 = CARTESIAN_POINT('',(0.,0.));
#730 = CARTESIAN_POINT('',(3.14159265359,0.));
#731 = ( GEOMETRIC_REPRESENTATION_CONTEXT(2) 
PARAMETRIC_REPRESENTATION_CONTEXT() REPRESENTATION_CONTEXT('2D SPACE',''
  ) );
#732 = ADVANCED_FACE('',(#733),#255,.T.);
#733 = FACE_BOUND('',#734,.T.);
#734 = EDGE_LOOP('',(#735,#736,#737,#759));
#735 = ORIENTED_EDGE('',*,*,#663,.F.);
#736 = ORIENTED_EDGE('',*,*,#238,.T.);
#737 = ORIENTED_EDGE('',*,*,#738,.T.);
#738 = EDGE_CURVE('',#239,#739,#741,.T.);
#739 = VERTEX_POINT('',#740);
#740 = CARTESIAN_POINT('',(-36.75,-0.75,99.));
#741 = SURFACE_CURVE('',#742,(#745,#752),.PCURVE_S1.);
#742 = B_SPLINE_CURVE_WITH_KNOTS('',1,(#743,#744),.UNSPECIFIED.,.F.,.F.,
  (2,2),(0.,1.),.PIECEWISE_BEZIER_KNOTS.);
#743 = CARTESIAN_POINT('',(-37.79213073791,-0.771267974243,0.));
#744 = CARTESIAN_POINT('',(-36.75,-0.75,99.));
#745 = PCURVE('',#255,#746);
#746 = DEFINITIONAL_REPRESENTATION('',(#747),#751);
#747 = LINE('',#748,#749);
#748 = CARTESIAN_POINT('',(6.28318530718,0.));
#749 = VECTOR('',#750,1.);
#750 = DIRECTION('',(0.,1.));
#751 = ( GEOMETRIC_REPRESENTATION_CONTEXT(2) 
PARAMETRIC_REPRESENTATION_CONTEXT() REPRESENTATION_CONTEXT('2D SPACE',''
  ) );
#752 = PCURVE('',#297,#753);
#753 = DEFINITIONAL_REPRESENTATION('',(#754),#758);
#754 = LINE('',#755,#756);
#755 = CARTESIAN_POINT('',(-73.5,0.));
#756 = VECTOR('',#757,1.);
#757 = DIRECTION('',(0.,1.));
#758 = ( GEOMETRIC_REPRESENTATION_CONTEXT(2) 
PARAMETRIC_REPRESENTATION_CONTEXT() REPRESENTATION_CONTEXT('2D SPACE',''
  ) );
#759 = ORIENTED_EDGE('',*,*,#760,.T.);
#760 = EDGE_CURVE('',#739,#664,#761,.T.);
#761 = SURFACE_CURVE('',#762,(#767,#774),.PCURVE_S1.);
#762 = CIRCLE('',#763,0.75);
#763 = AXIS2_PLACEMENT_3D('',#764,#765,#766);
#764 = CARTESIAN_POINT('',(-36.75,0.,99.));
#765 = DIRECTION('',(-0.,-0.,-1.));
#766 = DIRECTION('',(0.,-1.,0.));
#767 = PCURVE('',#255,#768);
#768 = DEFINITIONAL_REPRESENTATION('',(#769),#773);
#769 = LINE('',#770,#771);
#770 = CARTESIAN_POINT('',(6.28318530718,1.));
#771 = VECTOR('',#772,1.);
#772 = DIRECTION('',(-1.,0.));
#773 = ( GEOMETRIC_REPRESENTATION_CONTEXT(2) 
PARAMETRIC_REPRESENTATION_CONTEXT() REPRESENTATION_CONTEXT('2D SPACE',''
  ) );
#774 = PCURVE('',#722,#775);
#775 = DEFINITIONAL_REPRESENTATION('',(#776),#779);
#776 = B_SPLINE_CURVE_WITH_KNOTS('',1,(#777,#778),.UNSPECIFIED.,.F.,.F.,
  (2,2),(0.,3.14159265359),.PIECEWISE_BEZIER_KNOTS.);
#777 = CARTESIAN_POINT('',(0.,0.));
#778 = CARTESIAN_POINT('',(3.14159265359,0.));
#779 = ( GEOMETRIC_REPRESENTATION_CONTEXT(2) 
PARAMETRIC_REPRESENTATION_CONTEXT() REPRESENTATION_CONTEXT('2D SPACE',''
  ) );
#780 = ADVANCED_FACE('',(#781),#297,.T.);
#781 = FACE_BOUND('',#782,.T.);
#782 = EDGE_LOOP('',(#783,#784,#785,#811));
#783 = ORIENTED_EDGE('',*,*,#282,.T.);
#784 = ORIENTED_EDGE('',*,*,#331,.T.);
#785 = ORIENTED_EDGE('',*,*,#786,.T.);
#786 = EDGE_CURVE('',#332,#739,#787,.T.);
#787 = SURFACE_CURVE('',#788,(#792,#799),.PCURVE_S1.);
#788 = LINE('',#789,#790);
#789 = CARTESIAN_POINT('',(36.75,-0.75,99.));
#790 = VECTOR('',#791,1.);
#791 = DIRECTION('',(-1.,0.,0.));
#792 = PCURVE('',#297,#793);
#793 = DEFINITIONAL_REPRESENTATION('',(#794),#798);
#794 = LINE('',#795,#796);
#795 = CARTESIAN_POINT('',(0.,1.));
#796 = VECTOR('',#797,1.);
#797 = DIRECTION('',(-1.,0.));
#798 = ( GEOMETRIC_REPRESENTATION_CONTEXT(2) 
PARAMETRIC_REPRESENTATION_CONTEXT() REPRESENTATION_CONTEXT('2D SPACE',''
  ) );
#799 = PCURVE('',#800,#805);
#800 = PLANE('',#801);
#801 = AXIS2_PLACEMENT_3D('',#802,#803,#804);
#802 = CARTESIAN_POINT('',(36.75,-0.75,99.));
#803 = DIRECTION('',(0.,-1.,0.));
#804 = DIRECTION('',(-1.,0.,0.));
#805 = DEFINITIONAL_REPRESENTATION('',(#806),#810);
#806 = LINE('',#807,#808);
#807 = CARTESIAN_POINT('',(0.,-0.));
#808 = VECTOR('',#809,1.);
#809 = DIRECTION('',(1.,0.));
#810 = ( GEOMETRIC_REPRESENTATION_CONTEXT(2) 
PARAMETRIC_REPRESENTATION_CONTEXT() REPRESENTATION_CONTEXT('2D SPACE',''
  ) );
#811 = ORIENTED_EDGE('',*,*,#738,.F.);
#812 = ADVANCED_FACE('',(#813),#462,.T.);
#813 = FACE_BOUND('',#814,.T.);
#814 = EDGE_LOOP('',(#815,#816,#817));
#815 = ORIENTED_EDGE('',*,*,#376,.F.);
#816 = ORIENTED_EDGE('',*,*,#638,.T.);
#817 = ORIENTED_EDGE('',*,*,#818,.T.);
#818 = EDGE_CURVE('',#611,#377,#819,.T.);
#819 = SURFACE_CURVE('',#820,(#825,#832),.PCURVE_S1.);
#820 = CIRCLE('',#821,0.75);
#821 = AXIS2_PLACEMENT_3D('',#822,#823,#824);
#822 = CARTESIAN_POINT('',(36.75,0.,99.));
#823 = DIRECTION('',(0.,0.,-1.));
#824 = DIRECTION('',(0.,1.,0.));
#825 = PCURVE('',#462,#826);
#826 = DEFINITIONAL_REPRESENTATION('',(#827),#831);
#827 = LINE('',#828,#829);
#828 = CARTESIAN_POINT('',(6.28318530718,1.));
#829 = VECTOR('',#830,1.);
#830 = DIRECTION('',(-1.,0.));
#831 = ( GEOMETRIC_REPRESENTATION_CONTEXT(2) 
PARAMETRIC_REPRESENTATION_CONTEXT() REPRESENTATION_CONTEXT('2D SPACE',''
  ) );
#832 = PCURVE('',#540,#833);
#833 = DEFINITIONAL_REPRESENTATION('',(#834),#837);
#834 = B_SPLINE_CURVE_WITH_KNOTS('',1,(#835,#836),.UNSPECIFIED.,.F.,.F.,
  (2,2),(0.,3.14159265359),.PIECEWISE_BEZIER_KNOTS.);
#835 = CARTESIAN_POINT('',(0.,0.));
#836 = CARTESIAN_POINT('',(3.14159265359,0.));
#837 = ( GEOMETRIC_REPRESENTATION_CONTEXT(2) 
PARAMETRIC_REPRESENTATION_CONTEXT() REPRESENTATION_CONTEXT('2D SPACE',''
  ) );
#838 = ADVANCED_FACE('',(#839),#540,.T.);
#839 = FACE_BOUND('',#840,.T.);
#840 = EDGE_LOOP('',(#841,#842,#843,#866,#894));
#841 = ORIENTED_EDGE('',*,*,#525,.F.);
#842 = ORIENTED_EDGE('',*,*,#818,.F.);
#843 = ORIENTED_EDGE('',*,*,#844,.T.);
#844 = EDGE_CURVE('',#611,#845,#847,.T.);
#845 = VERTEX_POINT('',#846);
#846 = CARTESIAN_POINT('',(36.75,0.75,107.5));
#847 = SURFACE_CURVE('',#848,(#852,#859),.PCURVE_S1.);
#848 = LINE('',#849,#850);
#849 = CARTESIAN_POINT('',(36.75,0.75,99.));
#850 = VECTOR('',#851,1.);
#851 = DIRECTION('',(0.,0.,1.));
#852 = PCURVE('',#540,#853);
#853 = DEFINITIONAL_REPRESENTATION('',(#854),#858);
#854 = LINE('',#855,#856);
#855 = CARTESIAN_POINT('',(0.,0.));
#856 = VECTOR('',#857,1.);
#857 = DIRECTION('',(0.,-1.));
#858 = ( GEOMETRIC_REPRESENTATION_CONTEXT(2) 
PARAMETRIC_REPRESENTATION_CONTEXT() REPRESENTATION_CONTEXT('2D SPACE',''
  ) );
#859 = PCURVE('',#626,#860);
#860 = DEFINITIONAL_REPRESENTATION('',(#861),#865);
#861 = LINE('',#862,#863);
#862 = CARTESIAN_POINT('',(73.5,0.));
#863 = VECTOR('',#864,1.);
#864 = DIRECTION('',(0.,-1.));
#865 = ( GEOMETRIC_REPRESENTATION_CONTEXT(2) 
PARAMETRIC_REPRESENTATION_CONTEXT() REPRESENTATION_CONTEXT('2D SPACE',''
  ) );
#866 = ORIENTED_EDGE('',*,*,#867,.F.);
#867 = EDGE_CURVE('',#868,#845,#870,.T.);
#868 = VERTEX_POINT('',#869);
#869 = CARTESIAN_POINT('',(36.75,-0.75,107.5));
#870 = SURFACE_CURVE('',#871,(#876,#883),.PCURVE_S1.);
#871 = CIRCLE('',#872,0.75);
#872 = AXIS2_PLACEMENT_3D('',#873,#874,#875);
#873 = CARTESIAN_POINT('',(36.75,0.,107.5));
#874 = DIRECTION('',(-0.,0.,1.));
#875 = DIRECTION('',(0.,-1.,0.));
#876 = PCURVE('',#540,#877);
#877 = DEFINITIONAL_REPRESENTATION('',(#878),#882);
#878 = LINE('',#879,#880);
#879 = CARTESIAN_POINT('',(3.14159265359,-8.5));
#880 = VECTOR('',#881,1.);
#881 = DIRECTION('',(-1.,-0.));
#882 = ( GEOMETRIC_REPRESENTATION_CONTEXT(2) 
PARAMETRIC_REPRESENTATION_CONTEXT() REPRESENTATION_CONTEXT('2D SPACE',''
  ) );
#883 = PCURVE('',#884,#889);
#884 = CYLINDRICAL_SURFACE('',#885,0.75);
#885 = AXIS2_PLACEMENT_3D('',#886,#887,#888);
#886 = CARTESIAN_POINT('',(36.75,0.,107.5));
#887 = DIRECTION('',(-0.,-0.,1.));
#888 = DIRECTION('',(0.,1.,0.));
#889 = DEFINITIONAL_REPRESENTATION('',(#890),#893);
#890 = B_SPLINE_CURVE_WITH_KNOTS('',1,(#891,#892),.UNSPECIFIED.,.F.,.F.,
  (2,2),(0.,3.14159265359),.PIECEWISE_BEZIER_KNOTS.);
#891 = CARTESIAN_POINT('',(-3.14159265359,0.));
#892 = CARTESIAN_POINT('',(0.,0.));
#893 = ( GEOMETRIC_REPRESENTATION_CONTEXT(2) 
PARAMETRIC_REPRESENTATION_CONTEXT() REPRESENTATION_CONTEXT('2D SPACE',''
  ) );
#894 = ORIENTED_EDGE('',*,*,#895,.F.);
#895 = EDGE_CURVE('',#332,#868,#896,.T.);
#896 = SURFACE_CURVE('',#897,(#901,#908),.PCURVE_S1.);
#897 = LINE('',#898,#899);
#898 = CARTESIAN_POINT('',(36.75,-0.75,99.));
#899 = VECTOR('',#900,1.);
#900 = DIRECTION('',(0.,0.,1.));
#901 = PCURVE('',#540,#902);
#902 = DEFINITIONAL_REPRESENTATION('',(#903),#907);
#903 = LINE('',#904,#905);
#904 = CARTESIAN_POINT('',(3.14159265359,0.));
#905 = VECTOR('',#906,1.);
#906 = DIRECTION('',(0.,-1.));
#907 = ( GEOMETRIC_REPRESENTATION_CONTEXT(2) 
PARAMETRIC_REPRESENTATION_CONTEXT() REPRESENTATION_CONTEXT('2D SPACE',''
  ) );
#908 = PCURVE('',#800,#909);
#909 = DEFINITIONAL_REPRESENTATION('',(#910),#914);
#910 = LINE('',#911,#912);
#911 = CARTESIAN_POINT('',(0.,-0.));
#912 = VECTOR('',#913,1.);
#913 = DIRECTION('',(0.,-1.));
#914 = ( GEOMETRIC_REPRESENTATION_CONTEXT(2) 
PARAMETRIC_REPRESENTATION_CONTEXT() REPRESENTATION_CONTEXT('2D SPACE',''
  ) );
#915 = ADVANCED_FACE('',(#916),#626,.T.);
#916 = FACE_BOUND('',#917,.T.);
#917 = EDGE_LOOP('',(#918,#919,#942,#968));
#918 = ORIENTED_EDGE('',*,*,#610,.F.);
#919 = ORIENTED_EDGE('',*,*,#920,.T.);
#920 = EDGE_CURVE('',#589,#921,#923,.T.);
#921 = VERTEX_POINT('',#922);
#922 = CARTESIAN_POINT('',(-36.75,0.75,107.5));
#923 = SURFACE_CURVE('',#924,(#928,#935),.PCURVE_S1.);
#924 = LINE('',#925,#926);
#925 = CARTESIAN_POINT('',(-36.75,0.75,99.));
#926 = VECTOR('',#927,1.);
#927 = DIRECTION('',(0.,0.,1.));
#928 = PCURVE('',#626,#929);
#929 = DEFINITIONAL_REPRESENTATION('',(#930),#934);
#930 = LINE('',#931,#932);
#931 = CARTESIAN_POINT('',(0.,0.));
#932 = VECTOR('',#933,1.);
#933 = DIRECTION('',(0.,-1.));
#934 = ( GEOMETRIC_REPRESENTATION_CONTEXT(2) 
PARAMETRIC_REPRESENTATION_CONTEXT() REPRESENTATION_CONTEXT('2D SPACE',''
  ) );
#935 = PCURVE('',#722,#936);
#936 = DEFINITIONAL_REPRESENTATION('',(#937),#941);
#937 = LINE('',#938,#939);
#938 = CARTESIAN_POINT('',(3.14159265359,0.));
#939 = VECTOR('',#940,1.);
#940 = DIRECTION('',(0.,-1.));
#941 = ( GEOMETRIC_REPRESENTATION_CONTEXT(2) 
PARAMETRIC_REPRESENTATION_CONTEXT() REPRESENTATION_CONTEXT('2D SPACE',''
  ) );
#942 = ORIENTED_EDGE('',*,*,#943,.T.);
#943 = EDGE_CURVE('',#921,#845,#944,.T.);
#944 = SURFACE_CURVE('',#945,(#949,#956),.PCURVE_S1.);
#945 = LINE('',#946,#947);
#946 = CARTESIAN_POINT('',(-36.75,0.75,107.5));
#947 = VECTOR('',#948,1.);
#948 = DIRECTION('',(1.,0.,0.));
#949 = PCURVE('',#626,#950);
#950 = DEFINITIONAL_REPRESENTATION('',(#951),#955);
#951 = LINE('',#952,#953);
#952 = CARTESIAN_POINT('',(0.,-8.5));
#953 = VECTOR('',#954,1.);
#954 = DIRECTION('',(1.,0.));
#955 = ( GEOMETRIC_REPRESENTATION_CONTEXT(2) 
PARAMETRIC_REPRESENTATION_CONTEXT() REPRESENTATION_CONTEXT('2D SPACE',''
  ) );
#956 = PCURVE('',#957,#962);
#957 = PLANE('',#958);
#958 = AXIS2_PLACEMENT_3D('',#959,#960,#961);
#959 = CARTESIAN_POINT('',(-36.75,0.75,108.2));
#960 = DIRECTION('',(0.,-1.,0.));
#961 = DIRECTION('',(1.,0.,0.));
#962 = DEFINITIONAL_REPRESENTATION('',(#963),#967);
#963 = LINE('',#964,#965);
#964 = CARTESIAN_POINT('',(0.,-0.7));
#965 = VECTOR('',#966,1.);
#966 = DIRECTION('',(1.,0.));
#967 = ( GEOMETRIC_REPRESENTATION_CONTEXT(2) 
PARAMETRIC_REPRESENTATION_CONTEXT() REPRESENTATION_CONTEXT('2D SPACE',''
  ) );
#968 = ORIENTED_EDGE('',*,*,#844,.F.);
#969 = ADVANCED_FACE('',(#970),#722,.T.);
#970 = FACE_BOUND('',#971,.T.);
#971 = EDGE_LOOP('',(#972,#973,#996,#1022,#1023));
#972 = ORIENTED_EDGE('',*,*,#760,.F.);
#973 = ORIENTED_EDGE('',*,*,#974,.T.);
#974 = EDGE_CURVE('',#739,#975,#977,.T.);
#975 = VERTEX_POINT('',#976);
#976 = CARTESIAN_POINT('',(-36.75,-0.75,107.5));
#977 = SURFACE_CURVE('',#978,(#982,#989),.PCURVE_S1.);
#978 = LINE('',#979,#980);
#979 = CARTESIAN_POINT('',(-36.75,-0.75,99.));
#980 = VECTOR('',#981,1.);
#981 = DIRECTION('',(0.,0.,1.));
#982 = PCURVE('',#722,#983);
#983 = DEFINITIONAL_REPRESENTATION('',(#984),#988);
#984 = LINE('',#985,#986);
#985 = CARTESIAN_POINT('',(0.,0.));
#986 = VECTOR('',#987,1.);
#987 = DIRECTION('',(0.,-1.));
#988 = ( GEOMETRIC_REPRESENTATION_CONTEXT(2) 
PARAMETRIC_REPRESENTATION_CONTEXT() REPRESENTATION_CONTEXT('2D SPACE',''
  ) );
#989 = PCURVE('',#800,#990);
#990 = DEFINITIONAL_REPRESENTATION('',(#991),#995);
#991 = LINE('',#992,#993);
#992 = CARTESIAN_POINT('',(73.5,0.));
#993 = VECTOR('',#994,1.);
#994 = DIRECTION('',(0.,-1.));
#995 = ( GEOMETRIC_REPRESENTATION_CONTEXT(2) 
PARAMETRIC_REPRESENTATION_CONTEXT() REPRESENTATION_CONTEXT('2D SPACE',''
  ) );
#996 = ORIENTED_EDGE('',*,*,#997,.F.);
#997 = EDGE_CURVE('',#921,#975,#998,.T.);
#998 = SURFACE_CURVE('',#999,(#1004,#1011),.PCURVE_S1.);
#999 = CIRCLE('',#1000,0.75);
#1000 = AXIS2_PLACEMENT_3D('',#1001,#1002,#1003);
#1001 = CARTESIAN_POINT('',(-36.75,0.,107.5));
#1002 = DIRECTION('',(0.,-0.,1.));
#1003 = DIRECTION('',(0.,1.,0.));
#1004 = PCURVE('',#722,#1005);
#1005 = DEFINITIONAL_REPRESENTATION('',(#1006),#1010);
#1006 = LINE('',#1007,#1008);
#1007 = CARTESIAN_POINT('',(3.14159265359,-8.5));
#1008 = VECTOR('',#1009,1.);
#1009 = DIRECTION('',(-1.,-0.));
#1010 = ( GEOMETRIC_REPRESENTATION_CONTEXT(2) 
PARAMETRIC_REPRESENTATION_CONTEXT() REPRESENTATION_CONTEXT('2D SPACE',''
  ) );
#1011 = PCURVE('',#1012,#1017);
#1012 = CYLINDRICAL_SURFACE('',#1013,0.75);
#1013 = AXIS2_PLACEMENT_3D('',#1014,#1015,#1016);
#1014 = CARTESIAN_POINT('',(-36.75,0.,107.5));
#1015 = DIRECTION('',(-0.,0.,1.));
#1016 = DIRECTION('',(0.,-1.,0.));
#1017 = DEFINITIONAL_REPRESENTATION('',(#1018),#1021);
#1018 = B_SPLINE_CURVE_WITH_KNOTS('',1,(#1019,#1020),.UNSPECIFIED.,.F.,
  .F.,(2,2),(0.,3.14159265359),.PIECEWISE_BEZIER_KNOTS.);
#1019 = CARTESIAN_POINT('',(-3.14159265359,0.));
#1020 = CARTESIAN_POINT('',(0.,0.));
#1021 = ( GEOMETRIC_REPRESENTATION_CONTEXT(2) 
PARAMETRIC_REPRESENTATION_CONTEXT() REPRESENTATION_CONTEXT('2D SPACE',''
  ) );
#1022 = ORIENTED_EDGE('',*,*,#920,.F.);
#1023 = ORIENTED_EDGE('',*,*,#707,.F.);
#1024 = ADVANCED_FACE('',(#1025),#800,.T.);
#1025 = FACE_BOUND('',#1026,.T.);
#1026 = EDGE_LOOP('',(#1027,#1028,#1029,#1055));
#1027 = ORIENTED_EDGE('',*,*,#786,.F.);
#1028 = ORIENTED_EDGE('',*,*,#895,.T.);
#1029 = ORIENTED_EDGE('',*,*,#1030,.T.);
#1030 = EDGE_CURVE('',#868,#975,#1031,.T.);
#1031 = SURFACE_CURVE('',#1032,(#1036,#1043),.PCURVE_S1.);
#1032 = LINE('',#1033,#1034);
#1033 = CARTESIAN_POINT('',(36.75,-0.75,107.5));
#1034 = VECTOR('',#1035,1.);
#1035 = DIRECTION('',(-1.,0.,0.));
#1036 = PCURVE('',#800,#1037);
#1037 = DEFINITIONAL_REPRESENTATION('',(#1038),#1042);
#1038 = LINE('',#1039,#1040);
#1039 = CARTESIAN_POINT('',(0.,-8.5));
#1040 = VECTOR('',#1041,1.);
#1041 = DIRECTION('',(1.,0.));
#1042 = ( GEOMETRIC_REPRESENTATION_CONTEXT(2) 
PARAMETRIC_REPRESENTATION_CONTEXT() REPRESENTATION_CONTEXT('2D SPACE',''
  ) );
#1043 = PCURVE('',#1044,#1049);
#1044 = PLANE('',#1045);
#1045 = AXIS2_PLACEMENT_3D('',#1046,#1047,#1048);
#1046 = CARTESIAN_POINT('',(36.75,-0.75,108.2));
#1047 = DIRECTION('',(0.,1.,-0.));
#1048 = DIRECTION('',(-1.,0.,0.));
#1049 = DEFINITIONAL_REPRESENTATION('',(#1050),#1054);
#1050 = LINE('',#1051,#1052);
#1051 = CARTESIAN_POINT('',(0.,-0.7));
#1052 = VECTOR('',#1053,1.);
#1053 = DIRECTION('',(1.,0.));
#1054 = ( GEOMETRIC_REPRESENTATION_CONTEXT(2) 
PARAMETRIC_REPRESENTATION_CONTEXT() REPRESENTATION_CONTEXT('2D SPACE',''
  ) );
#1055 = ORIENTED_EDGE('',*,*,#974,.F.);
#1056 = ADVANCED_FACE('',(#1057),#884,.T.);
#1057 = FACE_BOUND('',#1058,.F.);
#1058 = EDGE_LOOP('',(#1059,#1060,#1080,#1109));
#1059 = ORIENTED_EDGE('',*,*,#867,.F.);
#1060 = ORIENTED_EDGE('',*,*,#1061,.T.);
#1061 = EDGE_CURVE('',#868,#1062,#1064,.T.);
#1062 = VERTEX_POINT('',#1063);
#1063 = CARTESIAN_POINT('',(36.75,-0.75,108.2));
#1064 = SURFACE_CURVE('',#1065,(#1068,#1074),.PCURVE_S1.);
#1065 = B_SPLINE_CURVE_WITH_KNOTS('',1,(#1066,#1067),.UNSPECIFIED.,.F.,
  .F.,(2,2),(0.,1.),.PIECEWISE_BEZIER_KNOTS.);
#1066 = CARTESIAN_POINT('',(36.75,-0.75,107.5));
#1067 = CARTESIAN_POINT('',(36.75,-0.75,108.2));
#1068 = PCURVE('',#884,#1069);
#1069 = DEFINITIONAL_REPRESENTATION('',(#1070),#1073);
#1070 = B_SPLINE_CURVE_WITH_KNOTS('',1,(#1071,#1072),.UNSPECIFIED.,.F.,
  .F.,(2,2),(0.,1.),.PIECEWISE_BEZIER_KNOTS.);
#1071 = CARTESIAN_POINT('',(-3.14159265359,0.));
#1072 = CARTESIAN_POINT('',(-3.14159265359,0.7));
#1073 = ( GEOMETRIC_REPRESENTATION_CONTEXT(2) 
PARAMETRIC_REPRESENTATION_CONTEXT() REPRESENTATION_CONTEXT('2D SPACE',''
  ) );
#1074 = PCURVE('',#1044,#1075);
#1075 = DEFINITIONAL_REPRESENTATION('',(#1076),#1079);
#1076 = B_SPLINE_CURVE_WITH_KNOTS('',1,(#1077,#1078),.UNSPECIFIED.,.F.,
  .F.,(2,2),(0.,1.),.PIECEWISE_BEZIER_KNOTS.);
#1077 = CARTESIAN_POINT('',(0.,-0.7));
#1078 = CARTESIAN_POINT('',(0.,0.));
#1079 = ( GEOMETRIC_REPRESENTATION_CONTEXT(2) 
PARAMETRIC_REPRESENTATION_CONTEXT() REPRESENTATION_CONTEXT('2D SPACE',''
  ) );
#1080 = ORIENTED_EDGE('',*,*,#1081,.F.);
#1081 = EDGE_CURVE('',#1082,#1062,#1084,.T.);
#1082 = VERTEX_POINT('',#1083);
#1083 = CARTESIAN_POINT('',(36.75,0.75,108.2));
#1084 = SURFACE_CURVE('',#1085,(#1090,#1097),.PCURVE_S1.);
#1085 = CIRCLE('',#1086,0.75);
#1086 = AXIS2_PLACEMENT_3D('',#1087,#1088,#1089);
#1087 = CARTESIAN_POINT('',(36.75,0.,108.2));
#1088 = DIRECTION('',(0.,0.,-1.));
#1089 = DIRECTION('',(0.,1.,0.));
#1090 = PCURVE('',#884,#1091);
#1091 = DEFINITIONAL_REPRESENTATION('',(#1092),#1096);
#1092 = LINE('',#1093,#1094);
#1093 = CARTESIAN_POINT('',(-0.,0.7));
#1094 = VECTOR('',#1095,1.);
#1095 = DIRECTION('',(-1.,0.));
#1096 = ( GEOMETRIC_REPRESENTATION_CONTEXT(2) 
PARAMETRIC_REPRESENTATION_CONTEXT() REPRESENTATION_CONTEXT('2D SPACE',''
  ) );
#1097 = PCURVE('',#1098,#1103);
#1098 = CONICAL_SURFACE('',#1099,0.75,0.785398163397);
#1099 = AXIS2_PLACEMENT_3D('',#1100,#1101,#1102);
#1100 = CARTESIAN_POINT('',(36.75,0.,108.2));
#1101 = DIRECTION('',(-0.,-0.,1.));
#1102 = DIRECTION('',(0.,1.,0.));
#1103 = DEFINITIONAL_REPRESENTATION('',(#1104),#1108);
#1104 = LINE('',#1105,#1106);
#1105 = CARTESIAN_POINT('',(-0.,0.));
#1106 = VECTOR('',#1107,1.);
#1107 = DIRECTION('',(-1.,0.));
#1108 = ( GEOMETRIC_REPRESENTATION_CONTEXT(2) 
PARAMETRIC_REPRESENTATION_CONTEXT() REPRESENTATION_CONTEXT('2D SPACE',''
  ) );
#1109 = ORIENTED_EDGE('',*,*,#1110,.F.);
#1110 = EDGE_CURVE('',#845,#1082,#1111,.T.);
#1111 = SURFACE_CURVE('',#1112,(#1115,#1121),.PCURVE_S1.);
#1112 = B_SPLINE_CURVE_WITH_KNOTS('',1,(#1113,#1114),.UNSPECIFIED.,.F.,
  .F.,(2,2),(0.,1.),.PIECEWISE_BEZIER_KNOTS.);
#1113 = CARTESIAN_POINT('',(36.75,0.75,107.5));
#1114 = CARTESIAN_POINT('',(36.75,0.75,108.2));
#1115 = PCURVE('',#884,#1116);
#1116 = DEFINITIONAL_REPRESENTATION('',(#1117),#1120);
#1117 = B_SPLINE_CURVE_WITH_KNOTS('',1,(#1118,#1119),.UNSPECIFIED.,.F.,
  .F.,(2,2),(0.,1.),.PIECEWISE_BEZIER_KNOTS.);
#1118 = CARTESIAN_POINT('',(0.,0.));
#1119 = CARTESIAN_POINT('',(0.,0.7));
#1120 = ( GEOMETRIC_REPRESENTATION_CONTEXT(2) 
PARAMETRIC_REPRESENTATION_CONTEXT() REPRESENTATION_CONTEXT('2D SPACE',''
  ) );
#1121 = PCURVE('',#957,#1122);
#1122 = DEFINITIONAL_REPRESENTATION('',(#1123),#1126);
#1123 = B_SPLINE_CURVE_WITH_KNOTS('',1,(#1124,#1125),.UNSPECIFIED.,.F.,
  .F.,(2,2),(0.,1.),.PIECEWISE_BEZIER_KNOTS.);
#1124 = CARTESIAN_POINT('',(73.5,-0.7));
#1125 = CARTESIAN_POINT('',(73.5,0.));
#1126 = ( GEOMETRIC_REPRESENTATION_CONTEXT(2) 
PARAMETRIC_REPRESENTATION_CONTEXT() REPRESENTATION_CONTEXT('2D SPACE',''
  ) );
#1127 = ADVANCED_FACE('',(#1128),#957,.F.);
#1128 = FACE_BOUND('',#1129,.F.);
#1129 = EDGE_LOOP('',(#1130,#1131,#1132,#1160));
#1130 = ORIENTED_EDGE('',*,*,#943,.T.);
#1131 = ORIENTED_EDGE('',*,*,#1110,.T.);
#1132 = ORIENTED_EDGE('',*,*,#1133,.F.);
#1133 = EDGE_CURVE('',#1134,#1082,#1136,.T.);
#1134 = VERTEX_POINT('',#1135);
#1135 = CARTESIAN_POINT('',(-36.75,0.75,108.2));
#1136 = SURFACE_CURVE('',#1137,(#1141,#1148),.PCURVE_S1.);
#1137 = LINE('',#1138,#1139);
#1138 = CARTESIAN_POINT('',(-36.75,0.75,108.2));
#1139 = VECTOR('',#1140,1.);
#1140 = DIRECTION('',(1.,0.,0.));
#1141 = PCURVE('',#957,#1142);
#1142 = DEFINITIONAL_REPRESENTATION('',(#1143),#1147);
#1143 = LINE('',#1144,#1145);
#1144 = CARTESIAN_POINT('',(0.,0.));
#1145 = VECTOR('',#1146,1.);
#1146 = DIRECTION('',(1.,0.));
#1147 = ( GEOMETRIC_REPRESENTATION_CONTEXT(2) 
PARAMETRIC_REPRESENTATION_CONTEXT() REPRESENTATION_CONTEXT('2D SPACE',''
  ) );
#1148 = PCURVE('',#1149,#1154);
#1149 = PLANE('',#1150);
#1150 = AXIS2_PLACEMENT_3D('',#1151,#1152,#1153);
#1151 = CARTESIAN_POINT('',(-36.75,1.55,109.));
#1152 = DIRECTION('',(0.,-0.707106781187,0.707106781187));
#1153 = DIRECTION('',(1.,0.,0.));
#1154 = DEFINITIONAL_REPRESENTATION('',(#1155),#1159);
#1155 = LINE('',#1156,#1157);
#1156 = CARTESIAN_POINT('',(0.,-1.131370849898));
#1157 = VECTOR('',#1158,1.);
#1158 = DIRECTION('',(1.,0.));
#1159 = ( GEOMETRIC_REPRESENTATION_CONTEXT(2) 
PARAMETRIC_REPRESENTATION_CONTEXT() REPRESENTATION_CONTEXT('2D SPACE',''
  ) );
#1160 = ORIENTED_EDGE('',*,*,#1161,.F.);
#1161 = EDGE_CURVE('',#921,#1134,#1162,.T.);
#1162 = SURFACE_CURVE('',#1163,(#1166,#1172),.PCURVE_S1.);
#1163 = B_SPLINE_CURVE_WITH_KNOTS('',1,(#1164,#1165),.UNSPECIFIED.,.F.,
  .F.,(2,2),(0.,1.),.PIECEWISE_BEZIER_KNOTS.);
#1164 = CARTESIAN_POINT('',(-36.75,0.75,107.5));
#1165 = CARTESIAN_POINT('',(-36.75,0.75,108.2));
#1166 = PCURVE('',#957,#1167);
#1167 = DEFINITIONAL_REPRESENTATION('',(#1168),#1171);
#1168 = B_SPLINE_CURVE_WITH_KNOTS('',1,(#1169,#1170),.UNSPECIFIED.,.F.,
  .F.,(2,2),(0.,1.),.PIECEWISE_BEZIER_KNOTS.);
#1169 = CARTESIAN_POINT('',(0.,-0.7));
#1170 = CARTESIAN_POINT('',(0.,0.));
#1171 = ( GEOMETRIC_REPRESENTATION_CONTEXT(2) 
PARAMETRIC_REPRESENTATION_CONTEXT() REPRESENTATION_CONTEXT('2D SPACE',''
  ) );
#1172 = PCURVE('',#1012,#1173);
#1173 = DEFINITIONAL_REPRESENTATION('',(#1174),#1177);
#1174 = B_SPLINE_CURVE_WITH_KNOTS('',1,(#1175,#1176),.UNSPECIFIED.,.F.,
  .F.,(2,2),(0.,1.),.PIECEWISE_BEZIER_KNOTS.);
#1175 = CARTESIAN_POINT('',(-3.14159265359,0.));
#1176 = CARTESIAN_POINT('',(-3.14159265359,0.7));
#1177 = ( GEOMETRIC_REPRESENTATION_CONTEXT(2) 
PARAMETRIC_REPRESENTATION_CONTEXT() REPRESENTATION_CONTEXT('2D SPACE',''
  ) );
#1178 = ADVANCED_FACE('',(#1179),#1012,.T.);
#1179 = FACE_BOUND('',#1180,.F.);
#1180 = EDGE_LOOP('',(#1181,#1182,#1183,#1212));
#1181 = ORIENTED_EDGE('',*,*,#997,.F.);
#1182 = ORIENTED_EDGE('',*,*,#1161,.T.);
#1183 = ORIENTED_EDGE('',*,*,#1184,.F.);
#1184 = EDGE_CURVE('',#1185,#1134,#1187,.T.);
#1185 = VERTEX_POINT('',#1186);
#1186 = CARTESIAN_POINT('',(-36.75,-0.75,108.2));
#1187 = SURFACE_CURVE('',#1188,(#1193,#1200),.PCURVE_S1.);
#1188 = CIRCLE('',#1189,0.75);
#1189 = AXIS2_PLACEMENT_3D('',#1190,#1191,#1192);
#1190 = CARTESIAN_POINT('',(-36.75,0.,108.2));
#1191 = DIRECTION('',(0.,-0.,-1.));
#1192 = DIRECTION('',(0.,-1.,0.));
#1193 = PCURVE('',#1012,#1194);
#1194 = DEFINITIONAL_REPRESENTATION('',(#1195),#1199);
#1195 = LINE('',#1196,#1197);
#1196 = CARTESIAN_POINT('',(-0.,0.7));
#1197 = VECTOR('',#1198,1.);
#1198 = DIRECTION('',(-1.,0.));
#1199 = ( GEOMETRIC_REPRESENTATION_CONTEXT(2) 
PARAMETRIC_REPRESENTATION_CONTEXT() REPRESENTATION_CONTEXT('2D SPACE',''
  ) );
#1200 = PCURVE('',#1201,#1206);
#1201 = CONICAL_SURFACE('',#1202,0.75,0.785398163397);
#1202 = AXIS2_PLACEMENT_3D('',#1203,#1204,#1205);
#1203 = CARTESIAN_POINT('',(-36.75,0.,108.2));
#1204 = DIRECTION('',(-0.,0.,1.));
#1205 = DIRECTION('',(0.,-1.,0.));
#1206 = DEFINITIONAL_REPRESENTATION('',(#1207),#1211);
#1207 = LINE('',#1208,#1209);
#1208 = CARTESIAN_POINT('',(-0.,0.));
#1209 = VECTOR('',#1210,1.);
#1210 = DIRECTION('',(-1.,0.));
#1211 = ( GEOMETRIC_REPRESENTATION_CONTEXT(2) 
PARAMETRIC_REPRESENTATION_CONTEXT() REPRESENTATION_CONTEXT('2D SPACE',''
  ) );
#1212 = ORIENTED_EDGE('',*,*,#1213,.F.);
#1213 = EDGE_CURVE('',#975,#1185,#1214,.T.);
#1214 = SURFACE_CURVE('',#1215,(#1218,#1224),.PCURVE_S1.);
#1215 = B_SPLINE_CURVE_WITH_KNOTS('',1,(#1216,#1217),.UNSPECIFIED.,.F.,
  .F.,(2,2),(0.,1.),.PIECEWISE_BEZIER_KNOTS.);
#1216 = CARTESIAN_POINT('',(-36.75,-0.75,107.5));
#1217 = CARTESIAN_POINT('',(-36.75,-0.75,108.2));
#1218 = PCURVE('',#1012,#1219);
#1219 = DEFINITIONAL_REPRESENTATION('',(#1220),#1223);
#1220 = B_SPLINE_CURVE_WITH_KNOTS('',1,(#1221,#1222),.UNSPECIFIED.,.F.,
  .F.,(2,2),(0.,1.),.PIECEWISE_BEZIER_KNOTS.);
#1221 = CARTESIAN_POINT('',(0.,0.));
#1222 = CARTESIAN_POINT('',(0.,0.7));
#1223 = ( GEOMETRIC_REPRESENTATION_CONTEXT(2) 
PARAMETRIC_REPRESENTATION_CONTEXT() REPRESENTATION_CONTEXT('2D SPACE',''
  ) );
#1224 = PCURVE('',#1044,#1225);
#1225 = DEFINITIONAL_REPRESENTATION('',(#1226),#1229);
#1226 = B_SPLINE_CURVE_WITH_KNOTS('',1,(#1227,#1228),.UNSPECIFIED.,.F.,
  .F.,(2,2),(0.,1.),.PIECEWISE_BEZIER_KNOTS.);
#1227 = CARTESIAN_POINT('',(73.5,-0.7));
#1228 = CARTESIAN_POINT('',(73.5,0.));
#1229 = ( GEOMETRIC_REPRESENTATION_CONTEXT(2) 
PARAMETRIC_REPRESENTATION_CONTEXT() REPRESENTATION_CONTEXT('2D SPACE',''
  ) );
#1230 = ADVANCED_FACE('',(#1231),#1044,.F.);
#1231 = FACE_BOUND('',#1232,.F.);
#1232 = EDGE_LOOP('',(#1233,#1234,#1235,#1261));
#1233 = ORIENTED_EDGE('',*,*,#1030,.T.);
#1234 = ORIENTED_EDGE('',*,*,#1213,.T.);
#1235 = ORIENTED_EDGE('',*,*,#1236,.F.);
#1236 = EDGE_CURVE('',#1062,#1185,#1237,.T.);
#1237 = SURFACE_CURVE('',#1238,(#1242,#1249),.PCURVE_S1.);
#1238 = LINE('',#1239,#1240);
#1239 = CARTESIAN_POINT('',(36.75,-0.75,108.2));
#1240 = VECTOR('',#1241,1.);
#1241 = DIRECTION('',(-1.,0.,0.));
#1242 = PCURVE('',#1044,#1243);
#1243 = DEFINITIONAL_REPRESENTATION('',(#1244),#1248);
#1244 = LINE('',#1245,#1246);
#1245 = CARTESIAN_POINT('',(0.,0.));
#1246 = VECTOR('',#1247,1.);
#1247 = DIRECTION('',(1.,0.));
#1248 = ( GEOMETRIC_REPRESENTATION_CONTEXT(2) 
PARAMETRIC_REPRESENTATION_CONTEXT() REPRESENTATION_CONTEXT('2D SPACE',''
  ) );
#1249 = PCURVE('',#1250,#1255);
#1250 = PLANE('',#1251);
#1251 = AXIS2_PLACEMENT_3D('',#1252,#1253,#1254);
#1252 = CARTESIAN_POINT('',(36.75,-1.55,109.));
#1253 = DIRECTION('',(0.,0.707106781187,0.707106781187));
#1254 = DIRECTION('',(-1.,0.,0.));
#1255 = DEFINITIONAL_REPRESENTATION('',(#1256),#1260);
#1256 = LINE('',#1257,#1258);
#1257 = CARTESIAN_POINT('',(0.,-1.131370849898));
#1258 = VECTOR('',#1259,1.);
#1259 = DIRECTION('',(1.,0.));
#1260 = ( GEOMETRIC_REPRESENTATION_CONTEXT(2) 
PARAMETRIC_REPRESENTATION_CONTEXT() REPRESENTATION_CONTEXT('2D SPACE',''
  ) );
#1261 = ORIENTED_EDGE('',*,*,#1061,.F.);
#1262 = ADVANCED_FACE('',(#1263),#1098,.T.);
#1263 = FACE_BOUND('',#1264,.F.);
#1264 = EDGE_LOOP('',(#1265,#1266,#1286,#1315));
#1265 = ORIENTED_EDGE('',*,*,#1081,.T.);
#1266 = ORIENTED_EDGE('',*,*,#1267,.T.);
#1267 = EDGE_CURVE('',#1062,#1268,#1270,.T.);
#1268 = VERTEX_POINT('',#1269);
#1269 = CARTESIAN_POINT('',(36.75,-1.55,109.));
#1270 = SURFACE_CURVE('',#1271,(#1274,#1280),.PCURVE_S1.);
#1271 = B_SPLINE_CURVE_WITH_KNOTS('',1,(#1272,#1273),.UNSPECIFIED.,.F.,
  .F.,(2,2),(0.,1.),.PIECEWISE_BEZIER_KNOTS.);
#1272 = CARTESIAN_POINT('',(36.75,-0.75,108.2));
#1273 = CARTESIAN_POINT('',(36.75,-1.55,109.));
#1274 = PCURVE('',#1098,#1275);
#1275 = DEFINITIONAL_REPRESENTATION('',(#1276),#1279);
#1276 = B_SPLINE_CURVE_WITH_KNOTS('',1,(#1277,#1278),.UNSPECIFIED.,.F.,
  .F.,(2,2),(0.,1.),.PIECEWISE_BEZIER_KNOTS.);
#1277 = CARTESIAN_POINT('',(-3.14159265359,0.));
#1278 = CARTESIAN_POINT('',(-3.14159265359,0.8));
#1279 = ( GEOMETRIC_REPRESENTATION_CONTEXT(2) 
PARAMETRIC_REPRESENTATION_CONTEXT() REPRESENTATION_CONTEXT('2D SPACE',''
  ) );
#1280 = PCURVE('',#1250,#1281);
#1281 = DEFINITIONAL_REPRESENTATION('',(#1282),#1285);
#1282 = B_SPLINE_CURVE_WITH_KNOTS('',1,(#1283,#1284),.UNSPECIFIED.,.F.,
  .F.,(2,2),(0.,1.),.PIECEWISE_BEZIER_KNOTS.);
#1283 = CARTESIAN_POINT('',(0.,-1.131370849898));
#1284 = CARTESIAN_POINT('',(0.,0.));
#1285 = ( GEOMETRIC_REPRESENTATION_CONTEXT(2) 
PARAMETRIC_REPRESENTATION_CONTEXT() REPRESENTATION_CONTEXT('2D SPACE',''
  ) );
#1286 = ORIENTED_EDGE('',*,*,#1287,.F.);
#1287 = EDGE_CURVE('',#1288,#1268,#1290,.T.);
#1288 = VERTEX_POINT('',#1289);
#1289 = CARTESIAN_POINT('',(36.75,1.55,109.));
#1290 = SURFACE_CURVE('',#1291,(#1296,#1303),.PCURVE_S1.);
#1291 = CIRCLE('',#1292,1.55);
#1292 = AXIS2_PLACEMENT_3D('',#1293,#1294,#1295);
#1293 = CARTESIAN_POINT('',(36.75,0.,109.));
#1294 = DIRECTION('',(0.,0.,-1.));
#1295 = DIRECTION('',(0.,1.,0.));
#1296 = PCURVE('',#1098,#1297);
#1297 = DEFINITIONAL_REPRESENTATION('',(#1298),#1302);
#1298 = LINE('',#1299,#1300);
#1299 = CARTESIAN_POINT('',(-0.,0.8));
#1300 = VECTOR('',#1301,1.);
#1301 = DIRECTION('',(-1.,0.));
#1302 = ( GEOMETRIC_REPRESENTATION_CONTEXT(2) 
PARAMETRIC_REPRESENTATION_CONTEXT() REPRESENTATION_CONTEXT('2D SPACE',''
  ) );
#1303 = PCURVE('',#1304,#1309);
#1304 = PLANE('',#1305);
#1305 = AXIS2_PLACEMENT_3D('',#1306,#1307,#1308);
#1306 = CARTESIAN_POINT('',(36.75,0.,109.));
#1307 = DIRECTION('',(0.,0.,-1.));
#1308 = DIRECTION('',(0.,1.,0.));
#1309 = DEFINITIONAL_REPRESENTATION('',(#1310),#1314);
#1310 = CIRCLE('',#1311,1.55);
#1311 = AXIS2_PLACEMENT_2D('',#1312,#1313);
#1312 = CARTESIAN_POINT('',(0.,0.));
#1313 = DIRECTION('',(1.,0.));
#1314 = ( GEOMETRIC_REPRESENTATION_CONTEXT(2) 
PARAMETRIC_REPRESENTATION_CONTEXT() REPRESENTATION_CONTEXT('2D SPACE',''
  ) );
#1315 = ORIENTED_EDGE('',*,*,#1316,.F.);
#1316 = EDGE_CURVE('',#1082,#1288,#1317,.T.);
#1317 = SURFACE_CURVE('',#1318,(#1321,#1327),.PCURVE_S1.);
#1318 = B_SPLINE_CURVE_WITH_KNOTS('',1,(#1319,#1320),.UNSPECIFIED.,.F.,
  .F.,(2,2),(0.,1.),.PIECEWISE_BEZIER_KNOTS.);
#1319 = CARTESIAN_POINT('',(36.75,0.75,108.2));
#1320 = CARTESIAN_POINT('',(36.75,1.55,109.));
#1321 = PCURVE('',#1098,#1322);
#1322 = DEFINITIONAL_REPRESENTATION('',(#1323),#1326);
#1323 = B_SPLINE_CURVE_WITH_KNOTS('',1,(#1324,#1325),.UNSPECIFIED.,.F.,
  .F.,(2,2),(0.,1.),.PIECEWISE_BEZIER_KNOTS.);
#1324 = CARTESIAN_POINT('',(0.,0.));
#1325 = CARTESIAN_POINT('',(0.,0.8));
#1326 = ( GEOMETRIC_REPRESENTATION_CONTEXT(2) 
PARAMETRIC_REPRESENTATION_CONTEXT() REPRESENTATION_CONTEXT('2D SPACE',''
  ) );
#1327 = PCURVE('',#1149,#1328);
#1328 = DEFINITIONAL_REPRESENTATION('',(#1329),#1332);
#1329 = B_SPLINE_CURVE_WITH_KNOTS('',1,(#1330,#1331),.UNSPECIFIED.,.F.,
  .F.,(2,2),(0.,1.),.PIECEWISE_BEZIER_KNOTS.);
#1330 = CARTESIAN_POINT('',(73.5,-1.131370849898));
#1331 = CARTESIAN_POINT('',(73.5,0.));
#1332 = ( GEOMETRIC_REPRESENTATION_CONTEXT(2) 
PARAMETRIC_REPRESENTATION_CONTEXT() REPRESENTATION_CONTEXT('2D SPACE',''
  ) );
#1333 = ADVANCED_FACE('',(#1334),#1149,.F.);
#1334 = FACE_BOUND('',#1335,.F.);
#1335 = EDGE_LOOP('',(#1336,#1337,#1338,#1361));
#1336 = ORIENTED_EDGE('',*,*,#1133,.T.);
#1337 = ORIENTED_EDGE('',*,*,#1316,.T.);
#1338 = ORIENTED_EDGE('',*,*,#1339,.F.);
#1339 = EDGE_CURVE('',#1340,#1288,#1342,.T.);
#1340 = VERTEX_POINT('',#1341);
#1341 = CARTESIAN_POINT('',(-36.75,1.55,109.));
#1342 = SURFACE_CURVE('',#1343,(#1347,#1354),.PCURVE_S1.);
#1343 = LINE('',#1344,#1345);
#1344 = CARTESIAN_POINT('',(-36.75,1.55,109.));
#1345 = VECTOR('',#1346,1.);
#1346 = DIRECTION('',(1.,0.,0.));
#1347 = PCURVE('',#1149,#1348);
#1348 = DEFINITIONAL_REPRESENTATION('',(#1349),#1353);
#1349 = LINE('',#1350,#1351);
#1350 = CARTESIAN_POINT('',(0.,0.));
#1351 = VECTOR('',#1352,1.);
#1352 = DIRECTION('',(1.,0.));
#1353 = ( GEOMETRIC_REPRESENTATION_CONTEXT(2) 
PARAMETRIC_REPRESENTATION_CONTEXT() REPRESENTATION_CONTEXT('2D SPACE',''
  ) );
#1354 = PCURVE('',#1304,#1355);
#1355 = DEFINITIONAL_REPRESENTATION('',(#1356),#1360);
#1356 = LINE('',#1357,#1358);
#1357 = CARTESIAN_POINT('',(1.55,-73.5));
#1358 = VECTOR('',#1359,1.);
#1359 = DIRECTION('',(0.,1.));
#1360 = ( GEOMETRIC_REPRESENTATION_CONTEXT(2) 
PARAMETRIC_REPRESENTATION_CONTEXT() REPRESENTATION_CONTEXT('2D SPACE',''
  ) );
#1361 = ORIENTED_EDGE('',*,*,#1362,.F.);
#1362 = EDGE_CURVE('',#1134,#1340,#1363,.T.);
#1363 = SURFACE_CURVE('',#1364,(#1367,#1373),.PCURVE_S1.);
#1364 = B_SPLINE_CURVE_WITH_KNOTS('',1,(#1365,#1366),.UNSPECIFIED.,.F.,
  .F.,(2,2),(0.,1.),.PIECEWISE_BEZIER_KNOTS.);
#1365 = CARTESIAN_POINT('',(-36.75,0.75,108.2));
#1366 = CARTESIAN_POINT('',(-36.75,1.55,109.));
#1367 = PCURVE('',#1149,#1368);
#1368 = DEFINITIONAL_REPRESENTATION('',(#1369),#1372);
#1369 = B_SPLINE_CURVE_WITH_KNOTS('',1,(#1370,#1371),.UNSPECIFIED.,.F.,
  .F.,(2,2),(0.,1.),.PIECEWISE_BEZIER_KNOTS.);
#1370 = CARTESIAN_POINT('',(0.,-1.131370849898));
#1371 = CARTESIAN_POINT('',(0.,0.));
#1372 = ( GEOMETRIC_REPRESENTATION_CONTEXT(2) 
PARAMETRIC_REPRESENTATION_CONTEXT() REPRESENTATION_CONTEXT('2D SPACE',''
  ) );
#1373 = PCURVE('',#1201,#1374);
#1374 = DEFINITIONAL_REPRESENTATION('',(#1375),#1378);
#1375 = B_SPLINE_CURVE_WITH_KNOTS('',1,(#1376,#1377),.UNSPECIFIED.,.F.,
  .F.,(2,2),(0.,1.),.PIECEWISE_BEZIER_KNOTS.);
#1376 = CARTESIAN_POINT('',(-3.14159265359,0.));
#1377 = CARTESIAN_POINT('',(-3.14159265359,0.8));
#1378 = ( GEOMETRIC_REPRESENTATION_CONTEXT(2) 
PARAMETRIC_REPRESENTATION_CONTEXT() REPRESENTATION_CONTEXT('2D SPACE',''
  ) );
#1379 = ADVANCED_FACE('',(#1380),#1201,.T.);
#1380 = FACE_BOUND('',#1381,.F.);
#1381 = EDGE_LOOP('',(#1382,#1383,#1384,#1408));
#1382 = ORIENTED_EDGE('',*,*,#1184,.T.);
#1383 = ORIENTED_EDGE('',*,*,#1362,.T.);
#1384 = ORIENTED_EDGE('',*,*,#1385,.F.);
#1385 = EDGE_CURVE('',#1386,#1340,#1388,.T.);
#1386 = VERTEX_POINT('',#1387);
#1387 = CARTESIAN_POINT('',(-36.75,-1.55,109.));
#1388 = SURFACE_CURVE('',#1389,(#1394,#1401),.PCURVE_S1.);
#1389 = CIRCLE('',#1390,1.55);
#1390 = AXIS2_PLACEMENT_3D('',#1391,#1392,#1393);
#1391 = CARTESIAN_POINT('',(-36.75,0.,109.));
#1392 = DIRECTION('',(0.,-0.,-1.));
#1393 = DIRECTION('',(0.,-1.,0.));
#1394 = PCURVE('',#1201,#1395);
#1395 = DEFINITIONAL_REPRESENTATION('',(#1396),#1400);
#1396 = LINE('',#1397,#1398);
#1397 = CARTESIAN_POINT('',(-0.,0.8));
#1398 = VECTOR('',#1399,1.);
#1399 = DIRECTION('',(-1.,0.));
#1400 = ( GEOMETRIC_REPRESENTATION_CONTEXT(2) 
PARAMETRIC_REPRESENTATION_CONTEXT() REPRESENTATION_CONTEXT('2D SPACE',''
  ) );
#1401 = PCURVE('',#1304,#1402);
#1402 = DEFINITIONAL_REPRESENTATION('',(#1403),#1407);
#1403 = CIRCLE('',#1404,1.55);
#1404 = AXIS2_PLACEMENT_2D('',#1405,#1406);
#1405 = CARTESIAN_POINT('',(0.,-73.5));
#1406 = DIRECTION('',(-1.,0.));
#1407 = ( GEOMETRIC_REPRESENTATION_CONTEXT(2) 
PARAMETRIC_REPRESENTATION_CONTEXT() REPRESENTATION_CONTEXT('2D SPACE',''
  ) );
#1408 = ORIENTED_EDGE('',*,*,#1409,.F.);
#1409 = EDGE_CURVE('',#1185,#1386,#1410,.T.);
#1410 = SURFACE_CURVE('',#1411,(#1414,#1420),.PCURVE_S1.);
#1411 = B_SPLINE_CURVE_WITH_KNOTS('',1,(#1412,#1413),.UNSPECIFIED.,.F.,
  .F.,(2,2),(0.,1.),.PIECEWISE_BEZIER_KNOTS.);
#1412 = CARTESIAN_POINT('',(-36.75,-0.75,108.2));
#1413 = CARTESIAN_POINT('',(-36.75,-1.55,109.));
#1414 = PCURVE('',#1201,#1415);
#1415 = DEFINITIONAL_REPRESENTATION('',(#1416),#1419);
#1416 = B_SPLINE_CURVE_WITH_KNOTS('',1,(#1417,#1418),.UNSPECIFIED.,.F.,
  .F.,(2,2),(0.,1.),.PIECEWISE_BEZIER_KNOTS.);
#1417 = CARTESIAN_POINT('',(0.,0.));
#1418 = CARTESIAN_POINT('',(0.,0.8));
#1419 = ( GEOMETRIC_REPRESENTATION_CONTEXT(2) 
PARAMETRIC_REPRESENTATION_CONTEXT() REPRESENTATION_CONTEXT('2D SPACE',''
  ) );
#1420 = PCURVE('',#1250,#1421);
#1421 = DEFINITIONAL_REPRESENTATION('',(#1422),#1425);
#1422 = B_SPLINE_CURVE_WITH_KNOTS('',1,(#1423,#1424),.UNSPECIFIED.,.F.,
  .F.,(2,2),(0.,1.),.PIECEWISE_BEZIER_KNOTS.);
#1423 = CARTESIAN_POINT('',(73.5,-1.131370849898));
#1424 = CARTESIAN_POINT('',(73.5,0.));
#1425 = ( GEOMETRIC_REPRESENTATION_CONTEXT(2) 
PARAMETRIC_REPRESENTATION_CONTEXT() REPRESENTATION_CONTEXT('2D SPACE',''
  ) );
#1426 = ADVANCED_FACE('',(#1427),#1250,.F.);
#1427 = FACE_BOUND('',#1428,.F.);
#1428 = EDGE_LOOP('',(#1429,#1430,#1431,#1452));
#1429 = ORIENTED_EDGE('',*,*,#1236,.T.);
#1430 = ORIENTED_EDGE('',*,*,#1409,.T.);
#1431 = ORIENTED_EDGE('',*,*,#1432,.F.);
#1432 = EDGE_CURVE('',#1268,#1386,#1433,.T.);
#1433 = SURFACE_CURVE('',#1434,(#1438,#1445),.PCURVE_S1.);
#1434 = LINE('',#1435,#1436);
#1435 = CARTESIAN_POINT('',(36.75,-1.55,109.));
#1436 = VECTOR('',#1437,1.);
#1437 = DIRECTION('',(-1.,0.,0.));
#1438 = PCURVE('',#1250,#1439);
#1439 = DEFINITIONAL_REPRESENTATION('',(#1440),#1444);
#1440 = LINE('',#1441,#1442);
#1441 = CARTESIAN_POINT('',(0.,0.));
#1442 = VECTOR('',#1443,1.);
#1443 = DIRECTION('',(1.,0.));
#1444 = ( GEOMETRIC_REPRESENTATION_CONTEXT(2) 
PARAMETRIC_REPRESENTATION_CONTEXT() REPRESENTATION_CONTEXT('2D SPACE',''
  ) );
#1445 = PCURVE('',#1304,#1446);
#1446 = DEFINITIONAL_REPRESENTATION('',(#1447),#1451);
#1447 = LINE('',#1448,#1449);
#1448 = CARTESIAN_POINT('',(-1.55,0.));
#1449 = VECTOR('',#1450,1.);
#1450 = DIRECTION('',(0.,-1.));
#1451 = ( GEOMETRIC_REPRESENTATION_CONTEXT(2) 
PARAMETRIC_REPRESENTATION_CONTEXT() REPRESENTATION_CONTEXT('2D SPACE',''
  ) );
#1452 = ORIENTED_EDGE('',*,*,#1267,.F.);
#1453 = ADVANCED_FACE('',(#1454),#1304,.F.);
#1454 = FACE_BOUND('',#1455,.F.);
#1455 = EDGE_LOOP('',(#1456,#1457,#1458,#1459));
#1456 = ORIENTED_EDGE('',*,*,#1339,.T.);
#1457 = ORIENTED_EDGE('',*,*,#1287,.T.);
#1458 = ORIENTED_EDGE('',*,*,#1432,.T.);
#1459 = ORIENTED_EDGE('',*,*,#1385,.T.);
#1460 = ( GEOMETRIC_REPRESENTATION_CONTEXT(3) 
GLOBAL_UNCERTAINTY_ASSIGNED_CONTEXT((#1464)) 
GLOBAL_UNIT_ASSIGNED_CONTEXT((#1461,#1462,#1463)) REPRESENTATION_CONTEXT
('Context #1','3D Context with UNIT and UNCERTAINTY') );
#1461 = ( LENGTH_UNIT() NAMED_UNIT(*) SI_UNIT(.MILLI.,.METRE.) );
#1462 = ( NAMED_UNIT(*) PLANE_ANGLE_UNIT() SI_UNIT($,.RADIAN.) );
#1463 = ( NAMED_UNIT(*) SI_UNIT($,.STERADIAN.) SOLID_ANGLE_UNIT() );
#1464 = UNCERTAINTY_MEASURE_WITH_UNIT(LENGTH_MEASURE(5.E-07),#1461,
  'distance_accuracy_value','confusion accuracy');
#1465 = CONTEXT_DEPENDENT_SHAPE_REPRESENTATION(#1466,#1468);
#1466 = ( REPRESENTATION_RELATIONSHIP('','',#40,#10) 
REPRESENTATION_RELATIONSHIP_WITH_TRANSFORMATION(#1467) 
SHAPE_REPRESENTATION_RELATIONSHIP() );
#1467 = ITEM_DEFINED_TRANSFORMATION('','',#11,#15);
#1468 = PRODUCT_DEFINITION_SHAPE('Placement','Placement of an item',
  #1469);
#1469 = NEXT_ASSEMBLY_USAGE_OCCURRENCE('8','','',#5,#35,$);
#1470 = PRODUCT_RELATED_PRODUCT_CATEGORY('part',$,(#37));
#1471 = SHAPE_DEFINITION_REPRESENTATION(#1472,#1478);
#1472 = PRODUCT_DEFINITION_SHAPE('','',#1473);
#1473 = PRODUCT_DEFINITION('design','',#1474,#1477);
#1474 = PRODUCT_DEFINITION_FORMATION('','',#1475);
#1475 = PRODUCT('Open CASCADE STEP translator 7.9 6.2',
  'Open CASCADE STEP translator 7.9 6.2','',(#1476));
#1476 = PRODUCT_CONTEXT('',#2,'mechanical');
#1477 = PRODUCT_DEFINITION_CONTEXT('part definition',#2,'design');
#1478 = ADVANCED_BREP_SHAPE_REPRESENTATION('',(#11,#1479),#1577);
#1479 = MANIFOLD_SOLID_BREP('',#1480);
#1480 = CLOSED_SHELL('',(#1481,#1569,#1573));
#1481 = ADVANCED_FACE('',(#1482),#1495,.T.);
#1482 = FACE_BOUND('',#1483,.T.);
#1483 = EDGE_LOOP('',(#1484,#1518,#1541,#1568));
#1484 = ORIENTED_EDGE('',*,*,#1485,.T.);
#1485 = EDGE_CURVE('',#1486,#1486,#1488,.T.);
#1486 = VERTEX_POINT('',#1487);
#1487 = CARTESIAN_POINT('',(-39.5,0.,54.5));
#1488 = SURFACE_CURVE('',#1489,(#1494,#1506),.PCURVE_S1.);
#1489 = CIRCLE('',#1490,2.);
#1490 = AXIS2_PLACEMENT_3D('',#1491,#1492,#1493);
#1491 = CARTESIAN_POINT('',(-41.5,0.,54.5));
#1492 = DIRECTION('',(0.,-1.,0.));
#1493 = DIRECTION('',(1.,0.,0.));
#1494 = PCURVE('',#1495,#1500);
#1495 = CYLINDRICAL_SURFACE('',#1496,2.);
#1496 = AXIS2_PLACEMENT_3D('',#1497,#1498,#1499);
#1497 = CARTESIAN_POINT('',(-41.5,0.,54.5));
#1498 = DIRECTION('',(0.,1.,0.));
#1499 = DIRECTION('',(1.,0.,0.));
#1500 = DEFINITIONAL_REPRESENTATION('',(#1501),#1505);
#1501 = LINE('',#1502,#1503);
#1502 = CARTESIAN_POINT('',(6.28318530718,0.));
#1503 = VECTOR('',#1504,1.);
#1504 = DIRECTION('',(-1.,0.));
#1505 = ( GEOMETRIC_REPRESENTATION_CONTEXT(2) 
PARAMETRIC_REPRESENTATION_CONTEXT() REPRESENTATION_CONTEXT('2D SPACE',''
  ) );
#1506 = PCURVE('',#1507,#1512);
#1507 = PLANE('',#1508);
#1508 = AXIS2_PLACEMENT_3D('',#1509,#1510,#1511);
#1509 = CARTESIAN_POINT('',(-41.5,0.,54.5));
#1510 = DIRECTION('',(-0.,-1.,-0.));
#1511 = DIRECTION('',(0.,0.,-1.));
#1512 = DEFINITIONAL_REPRESENTATION('',(#1513),#1517);
#1513 = CIRCLE('',#1514,2.);
#1514 = AXIS2_PLACEMENT_2D('',#1515,#1516);
#1515 = CARTESIAN_POINT('',(0.,0.));
#1516 = DIRECTION('',(0.,1.));
#1517 = ( GEOMETRIC_REPRESENTATION_CONTEXT(2) 
PARAMETRIC_REPRESENTATION_CONTEXT() REPRESENTATION_CONTEXT('2D SPACE',''
  ) );
#1518 = ORIENTED_EDGE('',*,*,#1519,.T.);
#1519 = EDGE_CURVE('',#1486,#1520,#1522,.T.);
#1520 = VERTEX_POINT('',#1521);
#1521 = CARTESIAN_POINT('',(-39.5,-12.,54.5));
#1522 = SEAM_CURVE('',#1523,(#1527,#1534),.PCURVE_S1.);
#1523 = LINE('',#1524,#1525);
#1524 = CARTESIAN_POINT('',(-39.5,0.,54.5));
#1525 = VECTOR('',#1526,1.);
#1526 = DIRECTION('',(0.,-1.,0.));
#1527 = PCURVE('',#1495,#1528);
#1528 = DEFINITIONAL_REPRESENTATION('',(#1529),#1533);
#1529 = LINE('',#1530,#1531);
#1530 = CARTESIAN_POINT('',(4.138911435803E-13,0.));
#1531 = VECTOR('',#1532,1.);
#1532 = DIRECTION('',(-0.,-1.));
#1533 = ( GEOMETRIC_REPRESENTATION_CONTEXT(2) 
PARAMETRIC_REPRESENTATION_CONTEXT() REPRESENTATION_CONTEXT('2D SPACE',''
  ) );
#1534 = PCURVE('',#1495,#1535);
#1535 = DEFINITIONAL_REPRESENTATION('',(#1536),#1540);
#1536 = LINE('',#1537,#1538);
#1537 = CARTESIAN_POINT('',(6.283185307179,0.));
#1538 = VECTOR('',#1539,1.);
#1539 = DIRECTION('',(-0.,-1.));
#1540 = ( GEOMETRIC_REPRESENTATION_CONTEXT(2) 
PARAMETRIC_REPRESENTATION_CONTEXT() REPRESENTATION_CONTEXT('2D SPACE',''
  ) );
#1541 = ORIENTED_EDGE('',*,*,#1542,.F.);
#1542 = EDGE_CURVE('',#1520,#1520,#1543,.T.);
#1543 = SURFACE_CURVE('',#1544,(#1549,#1556),.PCURVE_S1.);
#1544 = CIRCLE('',#1545,2.);
#1545 = AXIS2_PLACEMENT_3D('',#1546,#1547,#1548);
#1546 = CARTESIAN_POINT('',(-41.5,-12.,54.5));
#1547 = DIRECTION('',(0.,-1.,0.));
#1548 = DIRECTION('',(1.,0.,0.));
#1549 = PCURVE('',#1495,#1550);
#1550 = DEFINITIONAL_REPRESENTATION('',(#1551),#1555);
#1551 = LINE('',#1552,#1553);
#1552 = CARTESIAN_POINT('',(6.28318530718,-12.));
#1553 = VECTOR('',#1554,1.);
#1554 = DIRECTION('',(-1.,0.));
#1555 = ( GEOMETRIC_REPRESENTATION_CONTEXT(2) 
PARAMETRIC_REPRESENTATION_CONTEXT() REPRESENTATION_CONTEXT('2D SPACE',''
  ) );
#1556 = PCURVE('',#1557,#1562);
#1557 = PLANE('',#1558);
#1558 = AXIS2_PLACEMENT_3D('',#1559,#1560,#1561);
#1559 = CARTESIAN_POINT('',(-41.5,-12.,54.5));
#1560 = DIRECTION('',(-0.,-1.,-0.));
#1561 = DIRECTION('',(0.,0.,-1.));
#1562 = DEFINITIONAL_REPRESENTATION('',(#1563),#1567);
#1563 = CIRCLE('',#1564,2.);
#1564 = AXIS2_PLACEMENT_2D('',#1565,#1566);
#1565 = CARTESIAN_POINT('',(0.,0.));
#1566 = DIRECTION('',(0.,1.));
#1567 = ( GEOMETRIC_REPRESENTATION_CONTEXT(2) 
PARAMETRIC_REPRESENTATION_CONTEXT() REPRESENTATION_CONTEXT('2D SPACE',''
  ) );
#1568 = ORIENTED_EDGE('',*,*,#1519,.F.);
#1569 = ADVANCED_FACE('',(#1570),#1507,.F.);
#1570 = FACE_BOUND('',#1571,.F.);
#1571 = EDGE_LOOP('',(#1572));
#1572 = ORIENTED_EDGE('',*,*,#1485,.T.);
#1573 = ADVANCED_FACE('',(#1574),#1557,.T.);
#1574 = FACE_BOUND('',#1575,.T.);
#1575 = EDGE_LOOP('',(#1576));
#1576 = ORIENTED_EDGE('',*,*,#1542,.T.);
#1577 = ( GEOMETRIC_REPRESENTATION_CONTEXT(3) 
GLOBAL_UNCERTAINTY_ASSIGNED_CONTEXT((#1581)) 
GLOBAL_UNIT_ASSIGNED_CONTEXT((#1578,#1579,#1580)) REPRESENTATION_CONTEXT
('Context #1','3D Context with UNIT and UNCERTAINTY') );
#1578 = ( LENGTH_UNIT() NAMED_UNIT(*) SI_UNIT(.MILLI.,.METRE.) );
#1579 = ( NAMED_UNIT(*) PLANE_ANGLE_UNIT() SI_UNIT($,.RADIAN.) );
#1580 = ( NAMED_UNIT(*) SI_UNIT($,.STERADIAN.) SOLID_ANGLE_UNIT() );
#1581 = UNCERTAINTY_MEASURE_WITH_UNIT(LENGTH_MEASURE(1.E-07),#1578,
  'distance_accuracy_value','confusion accuracy');
#1582 = CONTEXT_DEPENDENT_SHAPE_REPRESENTATION(#1583,#1585);
#1583 = ( REPRESENTATION_RELATIONSHIP('','',#1478,#10) 
REPRESENTATION_RELATIONSHIP_WITH_TRANSFORMATION(#1584) 
SHAPE_REPRESENTATION_RELATIONSHIP() );
#1584 = ITEM_DEFINED_TRANSFORMATION('','',#11,#19);
#1585 = PRODUCT_DEFINITION_SHAPE('Placement','Placement of an item',
  #1586);
#1586 = NEXT_ASSEMBLY_USAGE_OCCURRENCE('9','','',#5,#1473,$);
#1587 = PRODUCT_RELATED_PRODUCT_CATEGORY('part',$,(#1475));
#1588 = SHAPE_DEFINITION_REPRESENTATION(#1589,#1595);
#1589 = PRODUCT_DEFINITION_SHAPE('','',#1590);
#1590 = PRODUCT_DEFINITION('design','',#1591,#1594);
#1591 = PRODUCT_DEFINITION_FORMATION('','',#1592);
#1592 = PRODUCT('Open CASCADE STEP translator 7.9 6.3',
  'Open CASCADE STEP translator 7.9 6.3','',(#1593));
#1593 = PRODUCT_CONTEXT('',#2,'mechanical');
#1594 = PRODUCT_DEFINITION_CONTEXT('part definition',#2,'design');
#1595 = ADVANCED_BREP_SHAPE_REPRESENTATION('',(#11,#1596),#1694);
#1596 = MANIFOLD_SOLID_BREP('',#1597);
#1597 = CLOSED_SHELL('',(#1598,#1686,#1690));
#1598 = ADVANCED_FACE('',(#1599),#1612,.T.);
#1599 = FACE_BOUND('',#1600,.T.);
#1600 = EDGE_LOOP('',(#1601,#1635,#1658,#1685));
#1601 = ORIENTED_EDGE('',*,*,#1602,.T.);
#1602 = EDGE_CURVE('',#1603,#1603,#1605,.T.);
#1603 = VERTEX_POINT('',#1604);
#1604 = CARTESIAN_POINT('',(43.5,0.,54.5));
#1605 = SURFACE_CURVE('',#1606,(#1611,#1623),.PCURVE_S1.);
#1606 = CIRCLE('',#1607,2.);
#1607 = AXIS2_PLACEMENT_3D('',#1608,#1609,#1610);
#1608 = CARTESIAN_POINT('',(41.5,0.,54.5));
#1609 = DIRECTION('',(0.,-1.,0.));
#1610 = DIRECTION('',(1.,0.,0.));
#1611 = PCURVE('',#1612,#1617);
#1612 = CYLINDRICAL_SURFACE('',#1613,2.);
#1613 = AXIS2_PLACEMENT_3D('',#1614,#1615,#1616);
#1614 = CARTESIAN_POINT('',(41.5,0.,54.5));
#1615 = DIRECTION('',(0.,1.,0.));
#1616 = DIRECTION('',(1.,0.,0.));
#1617 = DEFINITIONAL_REPRESENTATION('',(#1618),#1622);
#1618 = LINE('',#1619,#1620);
#1619 = CARTESIAN_POINT('',(6.28318530718,0.));
#1620 = VECTOR('',#1621,1.);
#1621 = DIRECTION('',(-1.,0.));
#1622 = ( GEOMETRIC_REPRESENTATION_CONTEXT(2) 
PARAMETRIC_REPRESENTATION_CONTEXT() REPRESENTATION_CONTEXT('2D SPACE',''
  ) );
#1623 = PCURVE('',#1624,#1629);
#1624 = PLANE('',#1625);
#1625 = AXIS2_PLACEMENT_3D('',#1626,#1627,#1628);
#1626 = CARTESIAN_POINT('',(41.5,0.,54.5));
#1627 = DIRECTION('',(-0.,-1.,-0.));
#1628 = DIRECTION('',(0.,0.,-1.));
#1629 = DEFINITIONAL_REPRESENTATION('',(#1630),#1634);
#1630 = CIRCLE('',#1631,2.);
#1631 = AXIS2_PLACEMENT_2D('',#1632,#1633);
#1632 = CARTESIAN_POINT('',(0.,0.));
#1633 = DIRECTION('',(0.,1.));
#1634 = ( GEOMETRIC_REPRESENTATION_CONTEXT(2) 
PARAMETRIC_REPRESENTATION_CONTEXT() REPRESENTATION_CONTEXT('2D SPACE',''
  ) );
#1635 = ORIENTED_EDGE('',*,*,#1636,.T.);
#1636 = EDGE_CURVE('',#1603,#1637,#1639,.T.);
#1637 = VERTEX_POINT('',#1638);
#1638 = CARTESIAN_POINT('',(43.5,-12.,54.5));
#1639 = SEAM_CURVE('',#1640,(#1644,#1651),.PCURVE_S1.);
#1640 = LINE('',#1641,#1642);
#1641 = CARTESIAN_POINT('',(43.5,0.,54.5));
#1642 = VECTOR('',#1643,1.);
#1643 = DIRECTION('',(0.,-1.,0.));
#1644 = PCURVE('',#1612,#1645);
#1645 = DEFINITIONAL_REPRESENTATION('',(#1646),#1650);
#1646 = LINE('',#1647,#1648);
#1647 = CARTESIAN_POINT('',(4.138911435803E-13,0.));
#1648 = VECTOR('',#1649,1.);
#1649 = DIRECTION('',(-0.,-1.));
#1650 = ( GEOMETRIC_REPRESENTATION_CONTEXT(2) 
PARAMETRIC_REPRESENTATION_CONTEXT() REPRESENTATION_CONTEXT('2D SPACE',''
  ) );
#1651 = PCURVE('',#1612,#1652);
#1652 = DEFINITIONAL_REPRESENTATION('',(#1653),#1657);
#1653 = LINE('',#1654,#1655);
#1654 = CARTESIAN_POINT('',(6.283185307179,0.));
#1655 = VECTOR('',#1656,1.);
#1656 = DIRECTION('',(-0.,-1.));
#1657 = ( GEOMETRIC_REPRESENTATION_CONTEXT(2) 
PARAMETRIC_REPRESENTATION_CONTEXT() REPRESENTATION_CONTEXT('2D SPACE',''
  ) );
#1658 = ORIENTED_EDGE('',*,*,#1659,.F.);
#1659 = EDGE_CURVE('',#1637,#1637,#1660,.T.);
#1660 = SURFACE_CURVE('',#1661,(#1666,#1673),.PCURVE_S1.);
#1661 = CIRCLE('',#1662,2.);
#1662 = AXIS2_PLACEMENT_3D('',#1663,#1664,#1665);
#1663 = CARTESIAN_POINT('',(41.5,-12.,54.5));
#1664 = DIRECTION('',(0.,-1.,0.));
#1665 = DIRECTION('',(1.,0.,0.));
#1666 = PCURVE('',#1612,#1667);
#1667 = DEFINITIONAL_REPRESENTATION('',(#1668),#1672);
#1668 = LINE('',#1669,#1670);
#1669 = CARTESIAN_POINT('',(6.28318530718,-12.));
#1670 = VECTOR('',#1671,1.);
#1671 = DIRECTION('',(-1.,0.));
#1672 = ( GEOMETRIC_REPRESENTATION_CONTEXT(2) 
PARAMETRIC_REPRESENTATION_CONTEXT() REPRESENTATION_CONTEXT('2D SPACE',''
  ) );
#1673 = PCURVE('',#1674,#1679);
#1674 = PLANE('',#1675);
#1675 = AXIS2_PLACEMENT_3D('',#1676,#1677,#1678);
#1676 = CARTESIAN_POINT('',(41.5,-12.,54.5));
#1677 = DIRECTION('',(-0.,-1.,-0.));
#1678 = DIRECTION('',(0.,0.,-1.));
#1679 = DEFINITIONAL_REPRESENTATION('',(#1680),#1684);
#1680 = CIRCLE('',#1681,2.);
#1681 = AXIS2_PLACEMENT_2D('',#1682,#1683);
#1682 = CARTESIAN_POINT('',(0.,0.));
#1683 = DIRECTION('',(0.,1.));
#1684 = ( GEOMETRIC_REPRESENTATION_CONTEXT(2) 
PARAMETRIC_REPRESENTATION_CONTEXT() REPRESENTATION_CONTEXT('2D SPACE',''
  ) );
#1685 = ORIENTED_EDGE('',*,*,#1636,.F.);
#1686 = ADVANCED_FACE('',(#1687),#1624,.F.);
#1687 = FACE_BOUND('',#1688,.F.);
#1688 = EDGE_LOOP('',(#1689));
#1689 = ORIENTED_EDGE('',*,*,#1602,.T.);
#1690 = ADVANCED_FACE('',(#1691),#1674,.T.);
#1691 = FACE_BOUND('',#1692,.T.);
#1692 = EDGE_LOOP('',(#1693));
#1693 = ORIENTED_EDGE('',*,*,#1659,.T.);
#1694 = ( GEOMETRIC_REPRESENTATION_CONTEXT(3) 
GLOBAL_UNCERTAINTY_ASSIGNED_CONTEXT((#1698)) 
GLOBAL_UNIT_ASSIGNED_CONTEXT((#1695,#1696,#1697)) REPRESENTATION_CONTEXT
('Context #1','3D Context with UNIT and UNCERTAINTY') );
#1695 = ( LENGTH_UNIT() NAMED_UNIT(*) SI_UNIT(.MILLI.,.METRE.) );
#1696 = ( NAMED_UNIT(*) PLANE_ANGLE_UNIT() SI_UNIT($,.RADIAN.) );
#1697 = ( NAMED_UNIT(*) SI_UNIT($,.STERADIAN.) SOLID_ANGLE_UNIT() );
#1698 = UNCERTAINTY_MEASURE_WITH_UNIT(LENGTH_MEASURE(1.E-07),#1695,
  'distance_accuracy_value','confusion accuracy');
#1699 = CONTEXT_DEPENDENT_SHAPE_REPRESENTATION(#1700,#1702);
#1700 = ( REPRESENTATION_RELATIONSHIP('','',#1595,#10) 
REPRESENTATION_RELATIONSHIP_WITH_TRANSFORMATION(#1701) 
SHAPE_REPRESENTATION_RELATIONSHIP() );
#1701 = ITEM_DEFINED_TRANSFORMATION('','',#11,#23);
#1702 = PRODUCT_DEFINITION_SHAPE('Placement','Placement of an item',
  #1703);
#1703 = NEXT_ASSEMBLY_USAGE_OCCURRENCE('10','','',#5,#1590,$);
#1704 = PRODUCT_RELATED_PRODUCT_CATEGORY('part',$,(#1592));
ENDSEC;
END-ISO-10303-21;
