ISO-10303-21;
HEADER;
FILE_DESCRIPTION(('Open CASCADE Model'),'2;1');
FILE_NAME('Open CASCADE Shape Model','2026-09-10T02:43:35',('Author'),(
    'Open CASCADE'),'Open CASCADE STEP processor 7.9','Open CASCADE 7.9'
  ,'Unknown');
FILE_SCHEMA(('AUTOMOTIVE_DESIGN { 1 0 10303 214 1 1 1 1 }'));
ENDSEC;
DATA;
#1 = APPLICATION_PROTOCOL_DEFINITION('international standard',
  'automotive_design',2000,#2);
#2 = APPLICATION_CONTEXT(
  'core data for automotive mechanical design processes');
#3 = SHAPE_DEFINITION_REPRESENTATION(#4,#10);
#4 = PRODUCT_DEFINITION_SHAPE('','',#5);
#5 = PRODUCT_DEFINITION('design','',#6,#9);
#6 = PRODUCT_DEFINITION_FORMATION('','',#7);
#7 = PRODUCT('Open CASCADE STEP translator 7.9 1',
  'Open CASCADE STEP translator 7.9 1','',(#8));
#8 = PRODUCT_CONTEXT('',#2,'mechanical');
#9 = PRODUCT_DEFINITION_CONTEXT('part definition',#2,'design');
#10 = ADVANCED_BREP_SHAPE_REPRESENTATION('',(#11,#15),#1179);
#11 = AXIS2_PLACEMENT_3D('',#12,#13,#14);
#12 = CARTESIAN_POINT('',(0.,0.,0.));
#13 = DIRECTION('',(0.,0.,1.));
#14 = DIRECTION('',(1.,0.,-0.));
#15 = BREP_WITH_VOIDS('',#16,(#983,#1081));
#16 = CLOSED_SHELL('',(#17,#105,#140,#175,#621,#676,#758,#807,#861,#888,
    #923,#956));
#17 = ADVANCED_FACE('',(#18),#32,.T.);
#18 = FACE_BOUND('',#19,.F.);
#19 = EDGE_LOOP('',(#20,#50,#77,#78));
#20 = ORIENTED_EDGE('',*,*,#21,.T.);
#21 = EDGE_CURVE('',#22,#24,#26,.T.);
#22 = VERTEX_POINT('',#23);
#23 = CARTESIAN_POINT('',(46.5,0.,0.));
#24 = VERTEX_POINT('',#25);
#25 = CARTESIAN_POINT('',(46.5,0.,69.9));
#26 = SEAM_CURVE('',#27,(#31,#43),.PCURVE_S1.);
#27 = LINE('',#28,#29);
#28 = CARTESIAN_POINT('',(46.5,0.,0.));
#29 = VECTOR('',#30,1.);
#30 = DIRECTION('',(0.,0.,1.));
#31 = PCURVE('',#32,#37);
#32 = CYLINDRICAL_SURFACE('',#33,46.5);
#33 = AXIS2_PLACEMENT_3D('',#34,#35,#36);
#34 = CARTESIAN_POINT('',(0.,0.,0.));
#35 = DIRECTION('',(-0.,-0.,-1.));
#36 = DIRECTION('',(1.,0.,0.));
#37 = DEFINITIONAL_REPRESENTATION('',(#38),#42);
#38 = LINE('',#39,#40);
#39 = CARTESIAN_POINT('',(-0.,0.));
#40 = VECTOR('',#41,1.);
#41 = DIRECTION('',(-0.,-1.));
#42 = ( GEOMETRIC_REPRESENTATION_CONTEXT(2) 
PARAMETRIC_REPRESENTATION_CONTEXT() REPRESENTATION_CONTEXT('2D SPACE',''
  ) );
#43 = PCURVE('',#32,#44);
#44 = DEFINITIONAL_REPRESENTATION('',(#45),#49);
#45 = LINE('',#46,#47);
#46 = CARTESIAN_POINT('',(-6.28318530718,0.));
#47 = VECTOR('',#48,1.);
#48 = DIRECTION('',(-0.,-1.));
#49 = ( GEOMETRIC_REPRESENTATION_CONTEXT(2) 
PARAMETRIC_REPRESENTATION_CONTEXT() REPRESENTATION_CONTEXT('2D SPACE',''
  ) );
#50 = ORIENTED_EDGE('',*,*,#51,.T.);
#51 = EDGE_CURVE('',#24,#24,#52,.T.);
#52 = SURFACE_CURVE('',#53,(#58,#65),.PCURVE_S1.);
#53 = CIRCLE('',#54,46.5);
#54 = AXIS2_PLACEMENT_3D('',#55,#56,#57);
#55 = CARTESIAN_POINT('',(0.,0.,69.9));
#56 = DIRECTION('',(0.,0.,1.));
#57 = DIRECTION('',(1.,0.,0.));
#58 = PCURVE('',#32,#59);
#59 = DEFINITIONAL_REPRESENTATION('',(#60),#64);
#60 = LINE('',#61,#62);
#61 = CARTESIAN_POINT('',(-0.,-69.9));
#62 = VECTOR('',#63,1.);
#63 = DIRECTION('',(-1.,0.));
#64 = ( GEOMETRIC_REPRESENTATION_CONTEXT(2) 
PARAMETRIC_REPRESENTATION_CONTEXT() REPRESENTATION_CONTEXT('2D SPACE',''
  ) );
#65 = PCURVE('',#66,#71);
#66 = PLANE('',#67);
#67 = AXIS2_PLACEMENT_3D('',#68,#69,#70);
#68 = CARTESIAN_POINT('',(-1.882068139409E-15,-1.61343992693E-17,69.9));
#69 = DIRECTION('',(0.,0.,1.));
#70 = DIRECTION('',(1.,0.,-0.));
#71 = DEFINITIONAL_REPRESENTATION('',(#72),#76);
#72 = CIRCLE('',#73,46.5);
#73 = AXIS2_PLACEMENT_2D('',#74,#75);
#74 = CARTESIAN_POINT('',(1.882068139409E-15,1.61343992693E-17));
#75 = DIRECTION('',(1.,0.));
#76 = ( GEOMETRIC_REPRESENTATION_CONTEXT(2) 
PARAMETRIC_REPRESENTATION_CONTEXT() REPRESENTATION_CONTEXT('2D SPACE',''
  ) );
#77 = ORIENTED_EDGE('',*,*,#21,.F.);
#78 = ORIENTED_EDGE('',*,*,#79,.F.);
#79 = EDGE_CURVE('',#22,#22,#80,.T.);
#80 = SURFACE_CURVE('',#81,(#86,#93),.PCURVE_S1.);
#81 = CIRCLE('',#82,46.5);
#82 = AXIS2_PLACEMENT_3D('',#83,#84,#85);
#83 = CARTESIAN_POINT('',(0.,0.,0.));
#84 = DIRECTION('',(0.,0.,1.));
#85 = DIRECTION('',(1.,0.,0.));
#86 = PCURVE('',#32,#87);
#87 = DEFINITIONAL_REPRESENTATION('',(#88),#92);
#88 = LINE('',#89,#90);
#89 = CARTESIAN_POINT('',(-0.,0.));
#90 = VECTOR('',#91,1.);
#91 = DIRECTION('',(-1.,0.));
#92 = ( GEOMETRIC_REPRESENTATION_CONTEXT(2) 
PARAMETRIC_REPRESENTATION_CONTEXT() REPRESENTATION_CONTEXT('2D SPACE',''
  ) );
#93 = PCURVE('',#94,#99);
#94 = PLANE('',#95);
#95 = AXIS2_PLACEMENT_3D('',#96,#97,#98);
#96 = CARTESIAN_POINT('',(-1.882068139409E-15,-1.61343992693E-17,0.));
#97 = DIRECTION('',(0.,0.,1.));
#98 = DIRECTION('',(1.,0.,-0.));
#99 = DEFINITIONAL_REPRESENTATION('',(#100),#104);
#100 = CIRCLE('',#101,46.5);
#101 = AXIS2_PLACEMENT_2D('',#102,#103);
#102 = CARTESIAN_POINT('',(1.882068139409E-15,1.61343992693E-17));
#103 = DIRECTION('',(1.,0.));
#104 = ( GEOMETRIC_REPRESENTATION_CONTEXT(2) 
PARAMETRIC_REPRESENTATION_CONTEXT() REPRESENTATION_CONTEXT('2D SPACE',''
  ) );
#105 = ADVANCED_FACE('',(#106,#109),#94,.F.);
#106 = FACE_BOUND('',#107,.F.);
#107 = EDGE_LOOP('',(#108));
#108 = ORIENTED_EDGE('',*,*,#79,.T.);
#109 = FACE_BOUND('',#110,.F.);
#110 = EDGE_LOOP('',(#111));
#111 = ORIENTED_EDGE('',*,*,#112,.F.);
#112 = EDGE_CURVE('',#113,#113,#115,.T.);
#113 = VERTEX_POINT('',#114);
#114 = CARTESIAN_POINT('',(37.8,0.,0.));
#115 = SURFACE_CURVE('',#116,(#121,#128),.PCURVE_S1.);
#116 = CIRCLE('',#117,37.8);
#117 = AXIS2_PLACEMENT_3D('',#118,#119,#120);
#118 = CARTESIAN_POINT('',(0.,0.,0.));
#119 = DIRECTION('',(0.,0.,1.));
#120 = DIRECTION('',(1.,0.,-0.));
#121 = PCURVE('',#94,#122);
#122 = DEFINITIONAL_REPRESENTATION('',(#123),#127);
#123 = CIRCLE('',#124,37.8);
#124 = AXIS2_PLACEMENT_2D('',#125,#126);
#125 = CARTESIAN_POINT('',(1.882068139409E-15,1.61343992693E-17));
#126 = DIRECTION('',(1.,0.));
#127 = ( GEOMETRIC_REPRESENTATION_CONTEXT(2) 
PARAMETRIC_REPRESENTATION_CONTEXT() REPRESENTATION_CONTEXT('2D SPACE',''
  ) );
#128 = PCURVE('',#129,#134);
#129 = CONICAL_SURFACE('',#130,37.8,1.055647906843);
#130 = AXIS2_PLACEMENT_3D('',#131,#132,#133);
#131 = CARTESIAN_POINT('',(0.,0.,0.));
#132 = DIRECTION('',(-0.,-0.,-1.));
#133 = DIRECTION('',(1.,0.,-0.));
#134 = DEFINITIONAL_REPRESENTATION('',(#135),#139);
#135 = LINE('',#136,#137);
#136 = CARTESIAN_POINT('',(-0.,-0.));
#137 = VECTOR('',#138,1.);
#138 = DIRECTION('',(-1.,-0.));
#139 = ( GEOMETRIC_REPRESENTATION_CONTEXT(2) 
PARAMETRIC_REPRESENTATION_CONTEXT() REPRESENTATION_CONTEXT('2D SPACE',''
  ) );
#140 = ADVANCED_FACE('',(#141,#144),#66,.T.);
#141 = FACE_BOUND('',#142,.T.);
#142 = EDGE_LOOP('',(#143));
#143 = ORIENTED_EDGE('',*,*,#51,.T.);
#144 = FACE_BOUND('',#145,.T.);
#145 = EDGE_LOOP('',(#146));
#146 = ORIENTED_EDGE('',*,*,#147,.F.);
#147 = EDGE_CURVE('',#148,#148,#150,.T.);
#148 = VERTEX_POINT('',#149);
#149 = CARTESIAN_POINT('',(44.75,0.,69.9));
#150 = SURFACE_CURVE('',#151,(#156,#163),.PCURVE_S1.);
#151 = CIRCLE('',#152,44.75);
#152 = AXIS2_PLACEMENT_3D('',#153,#154,#155);
#153 = CARTESIAN_POINT('',(0.,0.,69.9));
#154 = DIRECTION('',(0.,0.,1.));
#155 = DIRECTION('',(1.,0.,0.));
#156 = PCURVE('',#66,#157);
#157 = DEFINITIONAL_REPRESENTATION('',(#158),#162);
#158 = CIRCLE('',#159,44.75);
#159 = AXIS2_PLACEMENT_2D('',#160,#161);
#160 = CARTESIAN_POINT('',(1.882068139409E-15,1.61343992693E-17));
#161 = DIRECTION('',(1.,0.));
#162 = ( GEOMETRIC_REPRESENTATION_CONTEXT(2) 
PARAMETRIC_REPRESENTATION_CONTEXT() REPRESENTATION_CONTEXT('2D SPACE',''
  ) );
#163 = PCURVE('',#164,#169);
#164 = CYLINDRICAL_SURFACE('',#165,44.75);
#165 = AXIS2_PLACEMENT_3D('',#166,#167,#168);
#166 = CARTESIAN_POINT('',(0.,0.,69.9));
#167 = DIRECTION('',(-0.,-0.,-1.));
#168 = DIRECTION('',(1.,0.,0.));
#169 = DEFINITIONAL_REPRESENTATION('',(#170),#174);
#170 = LINE('',#171,#172);
#171 = CARTESIAN_POINT('',(-0.,0.));
#172 = VECTOR('',#173,1.);
#173 = DIRECTION('',(-1.,0.));
#174 = ( GEOMETRIC_REPRESENTATION_CONTEXT(2) 
PARAMETRIC_REPRESENTATION_CONTEXT() REPRESENTATION_CONTEXT('2D SPACE',''
  ) );
#175 = ADVANCED_FACE('',(#176),#129,.F.);
#176 = FACE_BOUND('',#177,.F.);
#177 = EDGE_LOOP('',(#178,#201,#202,#203,#270,#361,#470,#561));
#178 = ORIENTED_EDGE('',*,*,#179,.F.);
#179 = EDGE_CURVE('',#113,#180,#182,.T.);
#180 = VERTEX_POINT('',#181);
#181 = CARTESIAN_POINT('',(37.5,0.,0.169841269841));
#182 = SEAM_CURVE('',#183,(#187,#194),.PCURVE_S1.);
#183 = LINE('',#184,#185);
#184 = CARTESIAN_POINT('',(37.8,0.,0.));
#185 = VECTOR('',#186,1.);
#186 = DIRECTION('',(-0.870219610714,0.,0.492664012415));
#187 = PCURVE('',#129,#188);
#188 = DEFINITIONAL_REPRESENTATION('',(#189),#193);
#189 = LINE('',#190,#191);
#190 = CARTESIAN_POINT('',(-0.,-0.));
#191 = VECTOR('',#192,1.);
#192 = DIRECTION('',(-0.,-1.));
#193 = ( GEOMETRIC_REPRESENTATION_CONTEXT(2) 
PARAMETRIC_REPRESENTATION_CONTEXT() REPRESENTATION_CONTEXT('2D SPACE',''
  ) );
#194 = PCURVE('',#129,#195);
#195 = DEFINITIONAL_REPRESENTATION('',(#196),#200);
#196 = LINE('',#197,#198);
#197 = CARTESIAN_POINT('',(-6.28318530718,-0.));
#198 = VECTOR('',#199,1.);
#199 = DIRECTION('',(-0.,-1.));
#200 = ( GEOMETRIC_REPRESENTATION_CONTEXT(2) 
PARAMETRIC_REPRESENTATION_CONTEXT() REPRESENTATION_CONTEXT('2D SPACE',''
  ) );
#201 = ORIENTED_EDGE('',*,*,#112,.T.);
#202 = ORIENTED_EDGE('',*,*,#179,.T.);
#203 = ORIENTED_EDGE('',*,*,#204,.T.);
#204 = EDGE_CURVE('',#180,#205,#207,.T.);
#205 = VERTEX_POINT('',#206);
#206 = CARTESIAN_POINT('',(36.75,-0.75,0.590112210029));
#207 = SURFACE_CURVE('',#208,(#225,#245),.PCURVE_S1.);
#208 = B_SPLINE_CURVE_WITH_KNOTS('',8,(#209,#210,#211,#212,#213,#214,
    #215,#216,#217,#218,#219,#220,#221,#222,#223,#224),.UNSPECIFIED.,.F.
  ,.F.,(9,7,9),(0.,0.363278324605,1.),.UNSPECIFIED.);
#209 = CARTESIAN_POINT('',(37.5,0.,0.169841269841));
#210 = CARTESIAN_POINT('',(37.5,-6.193974728916E-02,0.169841269841));
#211 = CARTESIAN_POINT('',(37.494153860894,-0.123897574485,
    0.173084799636));
#212 = CARTESIAN_POINT('',(37.482455570439,-0.184674175029,
    0.179575162474));
#213 = CARTESIAN_POINT('',(37.465277997556,-0.243289947852,
    0.189108349707));
#214 = CARTESIAN_POINT('',(37.443190243259,-0.299010757603,
    0.201374039775));
#215 = CARTESIAN_POINT('',(37.416843055582,-0.351330621857,0.21601745269
    ));
#216 = CARTESIAN_POINT('',(37.386896849763,-0.399934165792,0.23267764199
    ));
#217 = CARTESIAN_POINT('',(37.296250167577,-0.523056069984,0.28316280138
    ));
#218 = CARTESIAN_POINT('',(37.229417009095,-0.589476104407,
    0.320440989818));
#219 = CARTESIAN_POINT('',(37.156137009089,-0.644003486788,
    0.361396763871));
#220 = CARTESIAN_POINT('',(37.078429203258,-0.686895936748,
    0.404929618941));
#221 = CARTESIAN_POINT('',(36.997918678844,-0.718586811378,
    0.450146975956));
#222 = CARTESIAN_POINT('',(36.915814075272,-0.739507993105,
    0.496379322341));
#223 = CARTESIAN_POINT('',(36.832978190429,-0.75,0.543144919016));
#224 = CARTESIAN_POINT('',(36.75,-0.75,0.590112210029));
#225 = PCURVE('',#129,#226);
#226 = DEFINITIONAL_REPRESENTATION('',(#227),#244);
#227 = B_SPLINE_CURVE_WITH_KNOTS('',8,(#228,#229,#230,#231,#232,#233,
    #234,#235,#236,#237,#238,#239,#240,#241,#242,#243),.UNSPECIFIED.,.F.
  ,.F.,(9,7,9),(0.,0.363278324605,1.),.UNSPECIFIED.);
#228 = CARTESIAN_POINT('',(-6.28318530718,-0.169841269841));
#229 = CARTESIAN_POINT('',(-6.281533580585,-0.169841269841));
#230 = CARTESIAN_POINT('',(-6.279881371683,-0.173084799636));
#231 = CARTESIAN_POINT('',(-6.278259646928,-0.179575162474));
#232 = CARTESIAN_POINT('',(-6.276693506289,-0.189108349707));
#233 = CARTESIAN_POINT('',(-6.275201810782,-0.201374039775));
#234 = CARTESIAN_POINT('',(-6.273797712654,-0.21601745269));
#235 = CARTESIAN_POINT('',(-6.27248958751,-0.23267764199));
#236 = CARTESIAN_POINT('',(-6.269165084776,-0.28316280138));
#237 = CARTESIAN_POINT('',(-6.267358561888,-0.320440989818));
#238 = CARTESIAN_POINT('',(-6.26586078032,-0.36139676387));
#239 = CARTESIAN_POINT('',(-6.264667077274,-0.404929618942));
#240 = CARTESIAN_POINT('',(-6.263768734561,-0.450146975956));
#241 = CARTESIAN_POINT('',(-6.26315715906,-0.496379322341));
#242 = CARTESIAN_POINT('',(-6.262826037104,-0.543144919016));
#243 = CARTESIAN_POINT('',(-6.262779976493,-0.590112210029));
#244 = ( GEOMETRIC_REPRESENTATION_CONTEXT(2) 
PARAMETRIC_REPRESENTATION_CONTEXT() REPRESENTATION_CONTEXT('2D SPACE',''
  ) );
#245 = PCURVE('',#246,#251);
#246 = CYLINDRICAL_SURFACE('',#247,0.75);
#247 = AXIS2_PLACEMENT_3D('',#248,#249,#250);
#248 = CARTESIAN_POINT('',(36.75,0.,0.));
#249 = DIRECTION('',(0.,0.,-1.));
#250 = DIRECTION('',(0.,1.,0.));
#251 = DEFINITIONAL_REPRESENTATION('',(#252),#269);
#252 = B_SPLINE_CURVE_WITH_KNOTS('',8,(#253,#254,#255,#256,#257,#258,
    #259,#260,#261,#262,#263,#264,#265,#266,#267,#268),.UNSPECIFIED.,.F.
  ,.F.,(9,7,9),(0.,0.363278324605,1.),.UNSPECIFIED.);
#253 = CARTESIAN_POINT('',(1.570796326795,-0.169841269841));
#254 = CARTESIAN_POINT('',(1.653382656514,-0.169841269841));
#255 = CARTESIAN_POINT('',(1.735992920462,-0.173084799635));
#256 = CARTESIAN_POINT('',(1.817887442533,-0.179575162474));
#257 = CARTESIAN_POINT('',(1.898617608981,-0.189108349707));
#258 = CARTESIAN_POINT('',(1.977891152533,-0.201374039775));
#259 = CARTESIAN_POINT('',(2.055513900031,-0.21601745269));
#260 = CARTESIAN_POINT('',(2.131373371259,-0.23267764199));
#261 = CARTESIAN_POINT('',(2.335228763505,-0.28316280138));
#262 = CARTESIAN_POINT('',(2.459377965207,-0.320440989818));
#263 = CARTESIAN_POINT('',(2.579182733486,-0.361396763871));
#264 = CARTESIAN_POINT('',(2.6954553848,-0.404929618941));
#265 = CARTESIAN_POINT('',(2.808973344276,-0.450146975956));
#266 = CARTESIAN_POINT('',(2.92050668111,-0.496379322341));
#267 = CARTESIAN_POINT('',(3.030955066352,-0.543144919016));
#268 = CARTESIAN_POINT('',(3.14159265359,-0.590112210029));
#269 = ( GEOMETRIC_REPRESENTATION_CONTEXT(2) 
PARAMETRIC_REPRESENTATION_CONTEXT() REPRESENTATION_CONTEXT('2D SPACE',''
  ) );
#270 = ORIENTED_EDGE('',*,*,#271,.F.);
#271 = EDGE_CURVE('',#272,#205,#274,.T.);
#272 = VERTEX_POINT('',#273);
#273 = CARTESIAN_POINT('',(-36.75,-0.75,0.590112210029));
#274 = SURFACE_CURVE('',#275,(#280,#349),.PCURVE_S1.);
#275 = HYPERBOLA('',#276,0.424603174603,0.75);
#276 = AXIS2_PLACEMENT_3D('',#277,#278,#279);
#277 = CARTESIAN_POINT('',(0.,-0.75,21.4));
#278 = DIRECTION('',(0.,-1.,0.));
#279 = DIRECTION('',(-0.,-0.,-1.));
#280 = PCURVE('',#129,#281);
#281 = DEFINITIONAL_REPRESENTATION('',(#282),#348);
#282 = B_SPLINE_CURVE_WITH_KNOTS('',8,(#283,#284,#285,#286,#287,#288,
    #289,#290,#291,#292,#293,#294,#295,#296,#297,#298,#299,#300,#301,
    #302,#303,#304,#305,#306,#307,#308,#309,#310,#311,#312,#313,#314,
    #315,#316,#317,#318,#319,#320,#321,#322,#323,#324,#325,#326,#327,
    #328,#329,#330,#331,#332,#333,#334,#335,#336,#337,#338,#339,#340,
    #341,#342,#343,#344,#345,#346,#347),.UNSPECIFIED.,.F.,.F.,(9,7,7,7,7
    ,7,7,7,7,9),(-4.613039922107,-3.459779941581,-2.45067745862,
    -1.567712786029,-0.795118697512,-0.119098870059,0.472418478962,
    1.507573839748,3.060306880928,4.613039922107),.UNSPECIFIED.);
#283 = CARTESIAN_POINT('',(-3.1614352255,-7.817175169021E-15));
#284 = CARTESIAN_POINT('',(-3.164295493309,-3.084363148738));
#285 = CARTESIAN_POINT('',(-3.167626901415,-5.660473067664));
#286 = CARTESIAN_POINT('',(-3.171519955415,-7.826001428352));
#287 = CARTESIAN_POINT('',(-3.176085993036,-9.656089668735));
#288 = CARTESIAN_POINT('',(-3.181463182307,-11.2098337937));
#289 = CARTESIAN_POINT('',(-3.187824709454,-12.53431111965));
#290 = CARTESIAN_POINT('',(-3.195390594805,-13.6674396978));
#291 = CARTESIAN_POINT('',(-3.212368190195,-15.49102328654));
#292 = CARTESIAN_POINT('',(-3.221430968348,-16.21910752542));
#293 = CARTESIAN_POINT('',(-3.231824133905,-16.84490201541));
#294 = CARTESIAN_POINT('',(-3.24377627409,-17.38486974606));
#295 = CARTESIAN_POINT('',(-3.25756219471,-17.85234441644));
#296 = CARTESIAN_POINT('',(-3.273515501191,-18.25824474134));
#297 = CARTESIAN_POINT('',(-3.292042879953,-18.61157216287));
#298 = CARTESIAN_POINT('',(-3.332532451074,-19.18950024628));
#299 = CARTESIAN_POINT('',(-3.353775834061,-19.42467093691));
#300 = CARTESIAN_POINT('',(-3.377697343728,-19.63031873739));
#301 = CARTESIAN_POINT('',(-3.404678328479,-19.81055299656));
#302 = CARTESIAN_POINT('',(-3.43515415346,-19.96877989663));
#303 = CARTESIAN_POINT('',(-3.469622112985,-20.10784165939));
#304 = CARTESIAN_POINT('',(-3.508632951324,-20.2301175367));
#305 = CARTESIAN_POINT('',(-3.591341604428,-20.43165247929));
#306 = CARTESIAN_POINT('',(-3.633844177628,-20.51437813945));
#307 = CARTESIAN_POINT('',(-3.680624446965,-20.58711611784));
#308 = CARTESIAN_POINT('',(-3.732059540582,-20.65097833917));
#309 = CARTESIAN_POINT('',(-3.788504937296,-20.70689029871));
#310 = CARTESIAN_POINT('',(-3.850241711047,-20.7556209662));
#311 = CARTESIAN_POINT('',(-3.917397302881,-20.79780464994));
#312 = CARTESIAN_POINT('',(-4.053227023339,-20.86558622058));
#313 = CARTESIAN_POINT('',(-4.120663172267,-20.89259826746));
#314 = CARTESIAN_POINT('',(-4.192057862629,-20.91533510035));
#315 = CARTESIAN_POINT('',(-4.267185949658,-20.93407061353));
#316 = CARTESIAN_POINT('',(-4.345619926534,-20.94901605786));
#317 = CARTESIAN_POINT('',(-4.426717446741,-20.96032540629));
#318 = CARTESIAN_POINT('',(-4.509663990663,-20.96809848409));
#319 = CARTESIAN_POINT('',(-4.666989026484,-20.9761298206));
#320 = CARTESIAN_POINT('',(-4.741142116278,-20.97720598207));
#321 = CARTESIAN_POINT('',(-4.8154389336,-20.97564157589));
#322 = CARTESIAN_POINT('',(-4.889236371945,-20.97143665755));
#323 = CARTESIAN_POINT('',(-4.961909480815,-20.96456067351));
#324 = CARTESIAN_POINT('',(-5.03290297517,-20.95495210474));
#325 = CARTESIAN_POINT('',(-5.101764004013,-20.94251719028));
#326 = CARTESIAN_POINT('',(-5.284342482867,-20.90019617707));
#327 = CARTESIAN_POINT('',(-5.392966312452,-20.86421632461));
#328 = CARTESIAN_POINT('',(-5.492212079698,-20.81850107471));
#329 = CARTESIAN_POINT('',(-5.581298641158,-20.76204010645));
#330 = CARTESIAN_POINT('',(-5.660573201523,-20.69346319678));
#331 = CARTESIAN_POINT('',(-5.730744630524,-20.61097421218));
#332 = CARTESIAN_POINT('',(-5.792696940224,-20.51225077907));
#333 = CARTESIAN_POINT('',(-5.92926938619,-20.21733182132));
#334 = CARTESIAN_POINT('',(-5.994735301892,-19.99708099239));
#335 = CARTESIAN_POINT('',(-6.046753434472,-19.72337396933));
#336 = CARTESIAN_POINT('',(-6.08843152707,-19.38256886632));
#337 = CARTESIAN_POINT('',(-6.121986072449,-18.95633565258));
#338 = CARTESIAN_POINT('',(-6.149186889152,-18.41967861636));
#339 = CARTESIAN_POINT('',(-6.171351712918,-17.73794551958));
#340 = CARTESIAN_POINT('',(-6.20766280099,-15.98362398434));
#341 = CARTESIAN_POINT('',(-6.221808750758,-14.91103486875));
#342 = CARTESIAN_POINT('',(-6.232969144272,-13.59266952721));
#343 = CARTESIAN_POINT('',(-6.241862296167,-11.96244874885));
#344 = CARTESIAN_POINT('',(-6.249006555729,-9.932594912761));
#345 = CARTESIAN_POINT('',(-6.254786629269,-7.384148313979));
#346 = CARTESIAN_POINT('',(-6.259491710861,-4.15274322608));
#347 = CARTESIAN_POINT('',(-6.263342735269,-4.770894536145E-15));
#348 = ( GEOMETRIC_REPRESENTATION_CONTEXT(2) 
PARAMETRIC_REPRESENTATION_CONTEXT() REPRESENTATION_CONTEXT('2D SPACE',''
  ) );
#349 = PCURVE('',#350,#355);
#350 = PLANE('',#351);
#351 = AXIS2_PLACEMENT_3D('',#352,#353,#354);
#352 = CARTESIAN_POINT('',(36.75,-0.75,0.));
#353 = DIRECTION('',(0.,-1.,0.));
#354 = DIRECTION('',(-1.,0.,0.));
#355 = DEFINITIONAL_REPRESENTATION('',(#356),#360);
#356 = ( BOUNDED_CURVE() B_SPLINE_CURVE(2,(#357,#358,#359),
.UNSPECIFIED.,.F.,.F.) B_SPLINE_CURVE_WITH_KNOTS((3,3),(-4.613039922107,
4.613039922107),.PIECEWISE_BEZIER_KNOTS.) CURVE() 
GEOMETRIC_REPRESENTATION_ITEM() RATIONAL_B_SPLINE_CURVE((1.,50.4,1.)) 
REPRESENTATION_ITEM('') );
#357 = CARTESIAN_POINT('',(74.542558791381,-7.105427357601E-15));
#358 = CARTESIAN_POINT('',(36.75,-21.39157533383));
#359 = CARTESIAN_POINT('',(-1.042558791381,-7.105427357601E-15));
#360 = ( GEOMETRIC_REPRESENTATION_CONTEXT(2) 
PARAMETRIC_REPRESENTATION_CONTEXT() REPRESENTATION_CONTEXT('2D SPACE',''
  ) );
#361 = ORIENTED_EDGE('',*,*,#362,.T.);
#362 = EDGE_CURVE('',#272,#363,#365,.T.);
#363 = VERTEX_POINT('',#364);
#364 = CARTESIAN_POINT('',(-36.75,0.75,0.590112210029));
#365 = SURFACE_CURVE('',#366,(#397,#431),.PCURVE_S1.);
#366 = B_SPLINE_CURVE_WITH_KNOTS('',8,(#367,#368,#369,#370,#371,#372,
    #373,#374,#375,#376,#377,#378,#379,#380,#381,#382,#383,#384,#385,
    #386,#387,#388,#389,#390,#391,#392,#393,#394,#395,#396),
  .UNSPECIFIED.,.F.,.F.,(9,7,7,7,9),(0.,0.31786964747,0.499560045775,
    0.682119034809,1.),.UNSPECIFIED.);
#367 = CARTESIAN_POINT('',(-36.75,-0.75,0.590112210029));
#368 = CARTESIAN_POINT('',(-36.83285227553,-0.75,0.543216189325));
#369 = CARTESIAN_POINT('',(-36.91556246569,-0.739539815272,
    0.496521370926));
#370 = CARTESIAN_POINT('',(-36.99754423475,-0.718682053815,
    0.450357823749));
#371 = CARTESIAN_POINT('',(-37.07793897105,-0.687088587885,
    0.405204953082));
#372 = CARTESIAN_POINT('',(-37.15554482115,-0.644329809582,
    0.361728518961));
#373 = CARTESIAN_POINT('',(-37.22874638783,-0.589974601405,
    0.320815798758));
#374 = CARTESIAN_POINT('',(-37.2955370817,-0.523764343002,0.283560549165
    ));
#375 = CARTESIAN_POINT('',(-37.38626021927,-0.400945174337,
    0.233031873285));
#376 = CARTESIAN_POINT('',(-37.41627880364,-0.352396950726,
    0.216331137848));
#377 = CARTESIAN_POINT('',(-37.44270639473,-0.300126764733,
    0.201642820162));
#378 = CARTESIAN_POINT('',(-37.46488278933,-0.244446833823,
    0.189327754395));
#379 = CARTESIAN_POINT('',(-37.48215591724,-0.185860158582,
    0.179741448311));
#380 = CARTESIAN_POINT('',(-37.49395415387,-0.125098579347,
    0.173195600317));
#381 = CARTESIAN_POINT('',(-37.4999012555,-6.314034160526E-02,
    0.169896054752));
#382 = CARTESIAN_POINT('',(-37.50009734289,6.10684968806E-02,
    0.169787262562));
#383 = CARTESIAN_POINT('',(-37.49429032725,0.123355417038,0.173009086501
    ));
#384 = CARTESIAN_POINT('',(-37.4825677055,0.184458163415,0.17951291474)
  );
#385 = CARTESIAN_POINT('',(-37.4653067328,0.243380555691,0.189092330891)
  );
#386 = CARTESIAN_POINT('',(-37.44308549982,0.299376702156,0.201432116035
    ));
#387 = CARTESIAN_POINT('',(-37.41656536759,0.351933681722,0.216171708696
    ));
#388 = CARTESIAN_POINT('',(-37.38641696448,0.400732975807,0.232944573307
    ));
#389 = CARTESIAN_POINT('',(-37.29553676086,0.523764777346,0.283560727857
    ));
#390 = CARTESIAN_POINT('',(-37.22874629852,0.589974464299,0.320815849107
    ));
#391 = CARTESIAN_POINT('',(-37.15554506232,0.644329630332,0.361728384875
    ));
#392 = CARTESIAN_POINT('',(-37.07793931889,0.687088455313,0.405204757676
    ));
#393 = CARTESIAN_POINT('',(-36.99754421906,0.718682227791,0.450357830885
    ));
#394 = CARTESIAN_POINT('',(-36.91556182077,0.739540077922,0.49652173288)
  );
#395 = CARTESIAN_POINT('',(-36.83285121594,0.75,0.543216789076));
#396 = CARTESIAN_POINT('',(-36.75,0.75,0.590112210029));
#397 = PCURVE('',#129,#398);
#398 = DEFINITIONAL_REPRESENTATION('',(#399),#430);
#399 = B_SPLINE_CURVE_WITH_KNOTS('',8,(#400,#401,#402,#403,#404,#405,
    #406,#407,#408,#409,#410,#411,#412,#413,#414,#415,#416,#417,#418,
    #419,#420,#421,#422,#423,#424,#425,#426,#427,#428,#429),
  .UNSPECIFIED.,.F.,.F.,(9,7,7,7,9),(0.,0.31786964747,0.499560045775,
    0.682119034809,1.),.UNSPECIFIED.);
#400 = CARTESIAN_POINT('',(-3.161997984276,-0.590112210029));
#401 = CARTESIAN_POINT('',(-3.16195199356,-0.543216189325));
#402 = CARTESIAN_POINT('',(-3.161621806203,-0.496521370926));
#403 = CARTESIAN_POINT('',(-3.161012010767,-0.45035782375));
#404 = CARTESIAN_POINT('',(-3.160116345098,-0.405204953081));
#405 = CARTESIAN_POINT('',(-3.158926262825,-0.361728518962));
#406 = CARTESIAN_POINT('',(-3.157433092317,-0.320815798758));
#407 = CARTESIAN_POINT('',(-3.15563214029,-0.283560549165));
#408 = CARTESIAN_POINT('',(-3.152315593699,-0.233031873285));
#409 = CARTESIAN_POINT('',(-3.151008883692,-0.216331137848));
#410 = CARTESIAN_POINT('',(-3.14960605196,-0.201642820162));
#411 = CARTESIAN_POINT('',(-3.148115393331,-0.189327754395));
#412 = CARTESIAN_POINT('',(-3.146549984991,-0.179741448311));
#413 = CARTESIAN_POINT('',(-3.144928630705,-0.173195600317));
#414 = CARTESIAN_POINT('',(-3.143276396155,-0.169896054752));
#415 = CARTESIAN_POINT('',(-3.139964160218,-0.169787262562));
#416 = CARTESIAN_POINT('',(-3.138303190086,-0.173009086501));
#417 = CARTESIAN_POINT('',(-3.13667278203,-0.17951291474));
#418 = CARTESIAN_POINT('',(-3.135098459649,-0.189092330891));
#419 = CARTESIAN_POINT('',(-3.133599385386,-0.201432116035));
#420 = CARTESIAN_POINT('',(-3.132188892778,-0.216171708696));
#421 = CARTESIAN_POINT('',(-3.130875443582,-0.232944573307));
#422 = CARTESIAN_POINT('',(-3.127553155161,-0.283560727857));
#423 = CARTESIAN_POINT('',(-3.125752218423,-0.320815849107));
#424 = CARTESIAN_POINT('',(-3.124259049267,-0.361728384874));
#425 = CARTESIAN_POINT('',(-3.123068965874,-0.405204757676));
#426 = CARTESIAN_POINT('',(-3.12217329178,-0.450357830885));
#427 = CARTESIAN_POINT('',(-3.121563493479,-0.49652173288));
#428 = CARTESIAN_POINT('',(-3.121233313031,-0.543216789076));
#429 = CARTESIAN_POINT('',(-3.121187322903,-0.590112210029));
#430 = ( GEOMETRIC_REPRESENTATION_CONTEXT(2) 
PARAMETRIC_REPRESENTATION_CONTEXT() REPRESENTATION_CONTEXT('2D SPACE',''
  ) );
#431 = PCURVE('',#432,#437);
#432 = CYLINDRICAL_SURFACE('',#433,0.75);
#433 = AXIS2_PLACEMENT_3D('',#434,#435,#436);
#434 = CARTESIAN_POINT('',(-36.75,0.,0.));
#435 = DIRECTION('',(0.,-0.,-1.));
#436 = DIRECTION('',(0.,-1.,0.));
#437 = DEFINITIONAL_REPRESENTATION('',(#438),#469);
#438 = B_SPLINE_CURVE_WITH_KNOTS('',8,(#439,#440,#441,#442,#443,#444,
    #445,#446,#447,#448,#449,#450,#451,#452,#453,#454,#455,#456,#457,
    #458,#459,#460,#461,#462,#463,#464,#465,#466,#467,#468),
  .UNSPECIFIED.,.F.,.F.,(9,7,7,7,9),(0.,0.31786964747,0.499560045775,
    0.682119034809,1.),.UNSPECIFIED.);
#439 = CARTESIAN_POINT('',(0.,-0.590112210029));
#440 = CARTESIAN_POINT('',(0.110469700718,-0.543216189325));
#441 = CARTESIAN_POINT('',(0.220750484044,-0.496521370926));
#442 = CARTESIAN_POINT('',(0.332110715217,-0.45035782375));
#443 = CARTESIAN_POINT('',(0.445446128218,-0.405204953081));
#444 = CARTESIAN_POINT('',(0.561524223261,-0.361728518962));
#445 = CARTESIAN_POINT('',(0.681118723208,-0.320815798758));
#446 = CARTESIAN_POINT('',(0.805039540609,-0.283560549165));
#447 = CARTESIAN_POINT('',(1.00863057242,-0.233031873285));
#448 = CARTESIAN_POINT('',(1.084478061436,-0.216331137848));
#449 = CARTESIAN_POINT('',(1.162090254062,-0.201642820162));
#450 = CARTESIAN_POINT('',(1.241357045321,-0.189327754395));
#451 = CARTESIAN_POINT('',(1.322085959129,-0.179741448311));
#452 = CARTESIAN_POINT('',(1.403985873202,-0.173195600317));
#453 = CARTESIAN_POINT('',(1.486609101058,-0.169896054752));
#454 = CARTESIAN_POINT('',(1.65222109208,-0.169787262562));
#455 = CARTESIAN_POINT('',(1.735257816614,-0.173009086501));
#456 = CARTESIAN_POINT('',(1.817575507559,-0.17951291474));
#457 = CARTESIAN_POINT('',(1.898718110021,-0.189092330891));
#458 = CARTESIAN_POINT('',(1.978388805865,-0.201432116035));
#459 = CARTESIAN_POINT('',(2.056390729384,-0.216171708696));
#460 = CARTESIAN_POINT('',(2.132610330558,-0.232944573307));
#461 = CARTESIAN_POINT('',(2.33655383297,-0.283560727857));
#462 = CARTESIAN_POINT('',(2.460473855564,-0.320815849107));
#463 = CARTESIAN_POINT('',(2.580068092254,-0.361728384874));
#464 = CARTESIAN_POINT('',(2.696146033127,-0.405204757676));
#465 = CARTESIAN_POINT('',(2.809482054067,-0.450357830885));
#466 = CARTESIAN_POINT('',(2.920843026418,-0.49652173288));
#467 = CARTESIAN_POINT('',(3.031124365663,-0.543216789076));
#468 = CARTESIAN_POINT('',(3.14159265359,-0.590112210029));
#469 = ( GEOMETRIC_REPRESENTATION_CONTEXT(2) 
PARAMETRIC_REPRESENTATION_CONTEXT() REPRESENTATION_CONTEXT('2D SPACE',''
  ) );
#470 = ORIENTED_EDGE('',*,*,#471,.F.);
#471 = EDGE_CURVE('',#472,#363,#474,.T.);
#472 = VERTEX_POINT('',#473);
#473 = CARTESIAN_POINT('',(36.75,0.75,0.590112210029));
#474 = SURFACE_CURVE('',#475,(#480,#549),.PCURVE_S1.);
#475 = HYPERBOLA('',#476,0.424603174603,0.75);
#476 = AXIS2_PLACEMENT_3D('',#477,#478,#479);
#477 = CARTESIAN_POINT('',(0.,0.75,21.4));
#478 = DIRECTION('',(0.,1.,0.));
#479 = DIRECTION('',(0.,0.,-1.));
#480 = PCURVE('',#129,#481);
#481 = DEFINITIONAL_REPRESENTATION('',(#482),#548);
#482 = B_SPLINE_CURVE_WITH_KNOTS('',8,(#483,#484,#485,#486,#487,#488,
    #489,#490,#491,#492,#493,#494,#495,#496,#497,#498,#499,#500,#501,
    #502,#503,#504,#505,#506,#507,#508,#509,#510,#511,#512,#513,#514,
    #515,#516,#517,#518,#519,#520,#521,#522,#523,#524,#525,#526,#527,
    #528,#529,#530,#531,#532,#533,#534,#535,#536,#537,#538,#539,#540,
    #541,#542,#543,#544,#545,#546,#547),.UNSPECIFIED.,.F.,.F.,(9,7,7,7,7
    ,7,7,7,7,9),(-4.613039922107,-3.459779941581,-2.45067745862,
    -1.567712786029,-0.795118697512,-0.119098870059,0.472418478961,
    1.507573839748,3.060306880928,4.613039922107),.UNSPECIFIED.);
#483 = CARTESIAN_POINT('',(-1.984257191054E-02,-7.817175169021E-15));
#484 = CARTESIAN_POINT('',(-2.270283971938E-02,-3.084363148738));
#485 = CARTESIAN_POINT('',(-2.603424782311E-02,-5.660473067664));
#486 = CARTESIAN_POINT('',(-2.992730183651E-02,-7.826001428352));
#487 = CARTESIAN_POINT('',(-3.449333943925E-02,-9.656089668735));
#488 = CARTESIAN_POINT('',(-3.987052873455E-02,-11.2098337937));
#489 = CARTESIAN_POINT('',(-4.623205586417E-02,-12.53431111965));
#490 = CARTESIAN_POINT('',(-5.379794121544E-02,-13.6674396978));
#491 = CARTESIAN_POINT('',(-7.077553660538E-02,-15.49102328654));
#492 = CARTESIAN_POINT('',(-7.983831475834E-02,-16.21910752542));
#493 = CARTESIAN_POINT('',(-9.023148031457E-02,-16.84490201541));
#494 = CARTESIAN_POINT('',(-0.1021836205,-17.38486974606));
#495 = CARTESIAN_POINT('',(-0.11596954112,-17.85234441644));
#496 = CARTESIAN_POINT('',(-0.131922847601,-18.25824474134));
#497 = CARTESIAN_POINT('',(-0.150450226364,-18.61157216287));
#498 = CARTESIAN_POINT('',(-0.190939797485,-19.18950024628));
#499 = CARTESIAN_POINT('',(-0.212183180472,-19.42467093691));
#500 = CARTESIAN_POINT('',(-0.236104690138,-19.63031873739));
#501 = CARTESIAN_POINT('',(-0.263085674889,-19.81055299656));
#502 = CARTESIAN_POINT('',(-0.293561499869,-19.96877989663));
#503 = CARTESIAN_POINT('',(-0.328029459396,-20.10784165939));
#504 = CARTESIAN_POINT('',(-0.367040297734,-20.2301175367));
#505 = CARTESIAN_POINT('',(-0.449748950839,-20.43165247929));
#506 = CARTESIAN_POINT('',(-0.492251524038,-20.51437813945));
#507 = CARTESIAN_POINT('',(-0.539031793375,-20.58711611784));
#508 = CARTESIAN_POINT('',(-0.590466886992,-20.65097833917));
#509 = CARTESIAN_POINT('',(-0.646912283706,-20.70689029871));
#510 = CARTESIAN_POINT('',(-0.708649057457,-20.7556209662));
#511 = CARTESIAN_POINT('',(-0.775804649291,-20.79780464994));
#512 = CARTESIAN_POINT('',(-0.91163436975,-20.86558622058));
#513 = CARTESIAN_POINT('',(-0.979070518677,-20.89259826746));
#514 = CARTESIAN_POINT('',(-1.05046520904,-20.91533510035));
#515 = CARTESIAN_POINT('',(-1.125593296068,-20.93407061353));
#516 = CARTESIAN_POINT('',(-1.204027272944,-20.94901605786));
#517 = CARTESIAN_POINT('',(-1.285124793151,-20.96032540629));
#518 = CARTESIAN_POINT('',(-1.368071337073,-20.96809848409));
#519 = CARTESIAN_POINT('',(-1.525396372894,-20.9761298206));
#520 = CARTESIAN_POINT('',(-1.599549462688,-20.97720598207));
#521 = CARTESIAN_POINT('',(-1.67384628001,-20.97564157589));
#522 = CARTESIAN_POINT('',(-1.747643718355,-20.97143665755));
#523 = CARTESIAN_POINT('',(-1.820316827226,-20.96456067351));
#524 = CARTESIAN_POINT('',(-1.89131032158,-20.95495210474));
#525 = CARTESIAN_POINT('',(-1.960171350423,-20.94251719028));
#526 = CARTESIAN_POINT('',(-2.142749829277,-20.90019617707));
#527 = CARTESIAN_POINT('',(-2.251373658858,-20.86421632461));
#528 = CARTESIAN_POINT('',(-2.350619426134,-20.81850107471));
#529 = CARTESIAN_POINT('',(-2.439705987539,-20.76204010645));
#530 = CARTESIAN_POINT('',(-2.518980547971,-20.69346319678));
#531 = CARTESIAN_POINT('',(-2.589151976929,-20.61097421218));
#532 = CARTESIAN_POINT('',(-2.651104286634,-20.51225077907));
#533 = CARTESIAN_POINT('',(-2.7876767326,-20.21733182132));
#534 = CARTESIAN_POINT('',(-2.853142648304,-19.99708099239));
#535 = CARTESIAN_POINT('',(-2.905160780894,-19.72337396933));
#536 = CARTESIAN_POINT('',(-2.946838873477,-19.38256886632));
#537 = CARTESIAN_POINT('',(-2.980393418868,-18.95633565258));
#538 = CARTESIAN_POINT('',(-3.007594235565,-18.41967861636));
#539 = CARTESIAN_POINT('',(-3.029759059329,-17.73794551958));
#540 = CARTESIAN_POINT('',(-3.066070147401,-15.98362398434));
#541 = CARTESIAN_POINT('',(-3.080216097147,-14.91103486875));
#542 = CARTESIAN_POINT('',(-3.091376490751,-13.59266952724));
#543 = CARTESIAN_POINT('',(-3.100269642517,-11.96244874884));
#544 = CARTESIAN_POINT('',(-3.107413902213,-9.932594912768));
#545 = CARTESIAN_POINT('',(-3.113193975662,-7.384148313974));
#546 = CARTESIAN_POINT('',(-3.117899057272,-4.15274322608));
#547 = CARTESIAN_POINT('',(-3.121750081679,-7.817175169021E-15));
#548 = ( GEOMETRIC_REPRESENTATION_CONTEXT(2) 
PARAMETRIC_REPRESENTATION_CONTEXT() REPRESENTATION_CONTEXT('2D SPACE',''
  ) );
#549 = PCURVE('',#550,#555);
#550 = PLANE('',#551);
#551 = AXIS2_PLACEMENT_3D('',#552,#553,#554);
#552 = CARTESIAN_POINT('',(-36.75,0.75,0.));
#553 = DIRECTION('',(0.,1.,0.));
#554 = DIRECTION('',(1.,0.,0.));
#555 = DEFINITIONAL_REPRESENTATION('',(#556),#560);
#556 = ( BOUNDED_CURVE() B_SPLINE_CURVE(2,(#557,#558,#559),
.UNSPECIFIED.,.F.,.F.) B_SPLINE_CURVE_WITH_KNOTS((3,3),(-4.613039922107,
4.613039922107),.PIECEWISE_BEZIER_KNOTS.) CURVE() 
GEOMETRIC_REPRESENTATION_ITEM() RATIONAL_B_SPLINE_CURVE((1.,50.4,1.)) 
REPRESENTATION_ITEM('') );
#557 = CARTESIAN_POINT('',(74.542558791381,-7.105427357601E-15));
#558 = CARTESIAN_POINT('',(36.75,-21.39157533383));
#559 = CARTESIAN_POINT('',(-1.042558791381,-7.105427357601E-15));
#560 = ( GEOMETRIC_REPRESENTATION_CONTEXT(2) 
PARAMETRIC_REPRESENTATION_CONTEXT() REPRESENTATION_CONTEXT('2D SPACE',''
  ) );
#561 = ORIENTED_EDGE('',*,*,#562,.T.);
#562 = EDGE_CURVE('',#472,#180,#563,.T.);
#563 = SURFACE_CURVE('',#564,(#581,#601),.PCURVE_S1.);
#564 = B_SPLINE_CURVE_WITH_KNOTS('',8,(#565,#566,#567,#568,#569,#570,
    #571,#572,#573,#574,#575,#576,#577,#578,#579,#580),.UNSPECIFIED.,.F.
  ,.F.,(9,7,9),(0.,0.635749954163,1.),.UNSPECIFIED.);
#565 = CARTESIAN_POINT('',(36.75,0.75,0.590112210029));
#566 = CARTESIAN_POINT('',(36.832852275539,0.75,0.543216189325));
#567 = CARTESIAN_POINT('',(36.915562465693,0.739539815271,0.496521370926
    ));
#568 = CARTESIAN_POINT('',(36.997544234754,0.718682053816,0.450357823749
    ));
#569 = CARTESIAN_POINT('',(37.07793897105,0.687088587884,0.405204953082)
  );
#570 = CARTESIAN_POINT('',(37.155544821155,0.644329809583,0.361728518962
    ));
#571 = CARTESIAN_POINT('',(37.228746387836,0.589974601405,0.320815798758
    ));
#572 = CARTESIAN_POINT('',(37.295537081704,0.523764343002,0.283560549165
    ));
#573 = CARTESIAN_POINT('',(37.386338595192,0.400839070584,0.23298822145)
  );
#574 = CARTESIAN_POINT('',(37.416422102394,0.352165336531,0.21625141383)
  );
#575 = CARTESIAN_POINT('',(37.44289600602,0.299751800784,0.201537435168)
  );
#576 = CARTESIAN_POINT('',(37.465094905106,0.243913818032,0.189209962224
    ));
#577 = CARTESIAN_POINT('',(37.482362093186,0.185159329967,0.179627024693
    ));
#578 = CARTESIAN_POINT('',(37.494122712603,0.124227178317,0.173102081274
    ));
#579 = CARTESIAN_POINT('',(37.5,6.210454974118E-02,0.169841269841));
#580 = CARTESIAN_POINT('',(37.5,0.,0.169841269841));
#581 = PCURVE('',#129,#582);
#582 = DEFINITIONAL_REPRESENTATION('',(#583),#600);
#583 = B_SPLINE_CURVE_WITH_KNOTS('',8,(#584,#585,#586,#587,#588,#589,
    #590,#591,#592,#593,#594,#595,#596,#597,#598,#599),.UNSPECIFIED.,.F.
  ,.F.,(9,7,9),(0.,0.635749954163,1.),.UNSPECIFIED.);
#584 = CARTESIAN_POINT('',(-2.040533068654E-02,-0.590112210029));
#585 = CARTESIAN_POINT('',(-2.035933997017E-02,-0.543216189325));
#586 = CARTESIAN_POINT('',(-2.002915261296E-02,-0.496521370926));
#587 = CARTESIAN_POINT('',(-1.941935717713E-02,-0.450357823749));
#588 = CARTESIAN_POINT('',(-1.852369150779E-02,-0.405204953082));
#589 = CARTESIAN_POINT('',(-1.733360923523E-02,-0.361728518961));
#590 = CARTESIAN_POINT('',(-1.584043872747E-02,-0.320815798758));
#591 = CARTESIAN_POINT('',(-1.403948669977E-02,-0.283560549165));
#592 = CARTESIAN_POINT('',(-1.072007493711E-02,-0.23298822145));
#593 = CARTESIAN_POINT('',(-9.409995982097E-03,-0.21625141383));
#594 = CARTESIAN_POINT('',(-8.003335030556E-03,-0.201537435168));
#595 = CARTESIAN_POINT('',(-6.508470022221E-03,-0.189209962224));
#596 = CARTESIAN_POINT('',(-4.938605827222E-03,-0.179627024693));
#597 = CARTESIAN_POINT('',(-3.312724938068E-03,-0.173102081274));
#598 = CARTESIAN_POINT('',(-1.656121326431E-03,-0.169841269841));
#599 = CARTESIAN_POINT('',(0.,-0.169841269841));
#600 = ( GEOMETRIC_REPRESENTATION_CONTEXT(2) 
PARAMETRIC_REPRESENTATION_CONTEXT() REPRESENTATION_CONTEXT('2D SPACE',''
  ) );
#601 = PCURVE('',#246,#602);
#602 = DEFINITIONAL_REPRESENTATION('',(#603),#620);
#603 = B_SPLINE_CURVE_WITH_KNOTS('',8,(#604,#605,#606,#607,#608,#609,
    #610,#611,#612,#613,#614,#615,#616,#617,#618,#619),.UNSPECIFIED.,.F.
  ,.F.,(9,7,9),(0.,0.635749954163,1.),.UNSPECIFIED.);
#604 = CARTESIAN_POINT('',(0.,-0.590112210029));
#605 = CARTESIAN_POINT('',(0.110469700718,-0.543216189325));
#606 = CARTESIAN_POINT('',(0.220750484043,-0.496521370926));
#607 = CARTESIAN_POINT('',(0.332110715218,-0.450357823749));
#608 = CARTESIAN_POINT('',(0.445446128216,-0.405204953082));
#609 = CARTESIAN_POINT('',(0.561524223262,-0.361728518962));
#610 = CARTESIAN_POINT('',(0.681118723207,-0.320815798758));
#611 = CARTESIAN_POINT('',(0.805039540609,-0.283560549165));
#612 = CARTESIAN_POINT('',(1.008806455166,-0.23298822145));
#613 = CARTESIAN_POINT('',(1.084839984327,-0.21625141383));
#614 = CARTESIAN_POINT('',(1.162647014917,-0.201537435168));
#615 = CARTESIAN_POINT('',(1.242115729339,-0.189209962224));
#616 = CARTESIAN_POINT('',(1.323051465596,-0.179627024693));
#617 = CARTESIAN_POINT('',(1.40516026232,-0.173102081274));
#618 = CARTESIAN_POINT('',(1.487990260473,-0.169841269841));
#619 = CARTESIAN_POINT('',(1.570796326795,-0.169841269841));
#620 = ( GEOMETRIC_REPRESENTATION_CONTEXT(2) 
PARAMETRIC_REPRESENTATION_CONTEXT() REPRESENTATION_CONTEXT('2D SPACE',''
  ) );
#621 = ADVANCED_FACE('',(#622),#164,.T.);
#622 = FACE_BOUND('',#623,.F.);
#623 = EDGE_LOOP('',(#624,#647,#674,#675));
#624 = ORIENTED_EDGE('',*,*,#625,.T.);
#625 = EDGE_CURVE('',#148,#626,#628,.T.);
#626 = VERTEX_POINT('',#627);
#627 = CARTESIAN_POINT('',(44.75,0.,80.7));
#628 = SEAM_CURVE('',#629,(#633,#640),.PCURVE_S1.);
#629 = LINE('',#630,#631);
#630 = CARTESIAN_POINT('',(44.75,0.,69.9));
#631 = VECTOR('',#632,1.);
#632 = DIRECTION('',(0.,0.,1.));
#633 = PCURVE('',#164,#634);
#634 = DEFINITIONAL_REPRESENTATION('',(#635),#639);
#635 = LINE('',#636,#637);
#636 = CARTESIAN_POINT('',(-0.,0.));
#637 = VECTOR('',#638,1.);
#638 = DIRECTION('',(-0.,-1.));
#639 = ( GEOMETRIC_REPRESENTATION_CONTEXT(2) 
PARAMETRIC_REPRESENTATION_CONTEXT() REPRESENTATION_CONTEXT('2D SPACE',''
  ) );
#640 = PCURVE('',#164,#641);
#641 = DEFINITIONAL_REPRESENTATION('',(#642),#646);
#642 = LINE('',#643,#644);
#643 = CARTESIAN_POINT('',(-6.28318530718,0.));
#644 = VECTOR('',#645,1.);
#645 = DIRECTION('',(-0.,-1.));
#646 = ( GEOMETRIC_REPRESENTATION_CONTEXT(2) 
PARAMETRIC_REPRESENTATION_CONTEXT() REPRESENTATION_CONTEXT('2D SPACE',''
  ) );
#647 = ORIENTED_EDGE('',*,*,#648,.T.);
#648 = EDGE_CURVE('',#626,#626,#649,.T.);
#649 = SURFACE_CURVE('',#650,(#655,#662),.PCURVE_S1.);
#650 = CIRCLE('',#651,44.75);
#651 = AXIS2_PLACEMENT_3D('',#652,#653,#654);
#652 = CARTESIAN_POINT('',(0.,0.,80.7));
#653 = DIRECTION('',(0.,0.,1.));
#654 = DIRECTION('',(1.,0.,0.));
#655 = PCURVE('',#164,#656);
#656 = DEFINITIONAL_REPRESENTATION('',(#657),#661);
#657 = LINE('',#658,#659);
#658 = CARTESIAN_POINT('',(-0.,-10.8));
#659 = VECTOR('',#660,1.);
#660 = DIRECTION('',(-1.,0.));
#661 = ( GEOMETRIC_REPRESENTATION_CONTEXT(2) 
PARAMETRIC_REPRESENTATION_CONTEXT() REPRESENTATION_CONTEXT('2D SPACE',''
  ) );
#662 = PCURVE('',#663,#668);
#663 = PLANE('',#664);
#664 = AXIS2_PLACEMENT_3D('',#665,#666,#667);
#665 = CARTESIAN_POINT('',(-2.933502854163E-15,4.040240899597E-15,80.7)
  );
#666 = DIRECTION('',(0.,0.,1.));
#667 = DIRECTION('',(1.,0.,-0.));
#668 = DEFINITIONAL_REPRESENTATION('',(#669),#673);
#669 = CIRCLE('',#670,44.75);
#670 = AXIS2_PLACEMENT_2D('',#671,#672);
#671 = CARTESIAN_POINT('',(2.933502854163E-15,-4.040240899597E-15));
#672 = DIRECTION('',(1.,0.));
#673 = ( GEOMETRIC_REPRESENTATION_CONTEXT(2) 
PARAMETRIC_REPRESENTATION_CONTEXT() REPRESENTATION_CONTEXT('2D SPACE',''
  ) );
#674 = ORIENTED_EDGE('',*,*,#625,.F.);
#675 = ORIENTED_EDGE('',*,*,#147,.F.);
#676 = ADVANCED_FACE('',(#677),#246,.F.);
#677 = FACE_BOUND('',#678,.F.);
#678 = EDGE_LOOP('',(#679,#680,#703,#736,#757));
#679 = ORIENTED_EDGE('',*,*,#562,.F.);
#680 = ORIENTED_EDGE('',*,*,#681,.T.);
#681 = EDGE_CURVE('',#472,#682,#684,.T.);
#682 = VERTEX_POINT('',#683);
#683 = CARTESIAN_POINT('',(36.75,0.75,109.));
#684 = SURFACE_CURVE('',#685,(#689,#696),.PCURVE_S1.);
#685 = LINE('',#686,#687);
#686 = CARTESIAN_POINT('',(36.75,0.75,0.));
#687 = VECTOR('',#688,1.);
#688 = DIRECTION('',(0.,0.,1.));
#689 = PCURVE('',#246,#690);
#690 = DEFINITIONAL_REPRESENTATION('',(#691),#695);
#691 = LINE('',#692,#693);
#692 = CARTESIAN_POINT('',(0.,0.));
#693 = VECTOR('',#694,1.);
#694 = DIRECTION('',(0.,-1.));
#695 = ( GEOMETRIC_REPRESENTATION_CONTEXT(2) 
PARAMETRIC_REPRESENTATION_CONTEXT() REPRESENTATION_CONTEXT('2D SPACE',''
  ) );
#696 = PCURVE('',#550,#697);
#697 = DEFINITIONAL_REPRESENTATION('',(#698),#702);
#698 = LINE('',#699,#700);
#699 = CARTESIAN_POINT('',(73.5,0.));
#700 = VECTOR('',#701,1.);
#701 = DIRECTION('',(0.,-1.));
#702 = ( GEOMETRIC_REPRESENTATION_CONTEXT(2) 
PARAMETRIC_REPRESENTATION_CONTEXT() REPRESENTATION_CONTEXT('2D SPACE',''
  ) );
#703 = ORIENTED_EDGE('',*,*,#704,.T.);
#704 = EDGE_CURVE('',#682,#705,#707,.T.);
#705 = VERTEX_POINT('',#706);
#706 = CARTESIAN_POINT('',(36.75,-0.75,109.));
#707 = SURFACE_CURVE('',#708,(#713,#720),.PCURVE_S1.);
#708 = CIRCLE('',#709,0.75);
#709 = AXIS2_PLACEMENT_3D('',#710,#711,#712);
#710 = CARTESIAN_POINT('',(36.75,0.,109.));
#711 = DIRECTION('',(0.,0.,-1.));
#712 = DIRECTION('',(0.,1.,0.));
#713 = PCURVE('',#246,#714);
#714 = DEFINITIONAL_REPRESENTATION('',(#715),#719);
#715 = LINE('',#716,#717);
#716 = CARTESIAN_POINT('',(0.,-109.));
#717 = VECTOR('',#718,1.);
#718 = DIRECTION('',(1.,0.));
#719 = ( GEOMETRIC_REPRESENTATION_CONTEXT(2) 
PARAMETRIC_REPRESENTATION_CONTEXT() REPRESENTATION_CONTEXT('2D SPACE',''
  ) );
#720 = PCURVE('',#721,#726);
#721 = PLANE('',#722);
#722 = AXIS2_PLACEMENT_3D('',#723,#724,#725);
#723 = CARTESIAN_POINT('',(-4.403329231825E-15,5.790076070423E-16,109.)
  );
#724 = DIRECTION('',(0.,0.,1.));
#725 = DIRECTION('',(1.,0.,-0.));
#726 = DEFINITIONAL_REPRESENTATION('',(#727),#735);
#727 = ( BOUNDED_CURVE() B_SPLINE_CURVE(2,(#728,#729,#730,#731,#732,#733
,#734),.UNSPECIFIED.,.T.,.F.) B_SPLINE_CURVE_WITH_KNOTS((1,2,2,2,2,1),(
    -2.094395102393,0.,2.094395102393,4.188790204786,6.28318530718,
8.377580409573),.UNSPECIFIED.) CURVE() GEOMETRIC_REPRESENTATION_ITEM() 
RATIONAL_B_SPLINE_CURVE((1.,0.5,1.,0.5,1.,0.5,1.)) REPRESENTATION_ITEM(
  '') );
#728 = CARTESIAN_POINT('',(36.75,0.75));
#729 = CARTESIAN_POINT('',(38.049038105677,0.75));
#730 = CARTESIAN_POINT('',(37.399519052838,-0.375));
#731 = CARTESIAN_POINT('',(36.75,-1.5));
#732 = CARTESIAN_POINT('',(36.100480947162,-0.375));
#733 = CARTESIAN_POINT('',(35.450961894323,0.75));
#734 = CARTESIAN_POINT('',(36.75,0.75));
#735 = ( GEOMETRIC_REPRESENTATION_CONTEXT(2) 
PARAMETRIC_REPRESENTATION_CONTEXT() REPRESENTATION_CONTEXT('2D SPACE',''
  ) );
#736 = ORIENTED_EDGE('',*,*,#737,.F.);
#737 = EDGE_CURVE('',#205,#705,#738,.T.);
#738 = SURFACE_CURVE('',#739,(#743,#750),.PCURVE_S1.);
#739 = LINE('',#740,#741);
#740 = CARTESIAN_POINT('',(36.75,-0.75,0.));
#741 = VECTOR('',#742,1.);
#742 = DIRECTION('',(0.,0.,1.));
#743 = PCURVE('',#246,#744);
#744 = DEFINITIONAL_REPRESENTATION('',(#745),#749);
#745 = LINE('',#746,#747);
#746 = CARTESIAN_POINT('',(3.14159265359,0.));
#747 = VECTOR('',#748,1.);
#748 = DIRECTION('',(0.,-1.));
#749 = ( GEOMETRIC_REPRESENTATION_CONTEXT(2) 
PARAMETRIC_REPRESENTATION_CONTEXT() REPRESENTATION_CONTEXT('2D SPACE',''
  ) );
#750 = PCURVE('',#350,#751);
#751 = DEFINITIONAL_REPRESENTATION('',(#752),#756);
#752 = LINE('',#753,#754);
#753 = CARTESIAN_POINT('',(0.,-0.));
#754 = VECTOR('',#755,1.);
#755 = DIRECTION('',(0.,-1.));
#756 = ( GEOMETRIC_REPRESENTATION_CONTEXT(2) 
PARAMETRIC_REPRESENTATION_CONTEXT() REPRESENTATION_CONTEXT('2D SPACE',''
  ) );
#757 = ORIENTED_EDGE('',*,*,#204,.F.);
#758 = ADVANCED_FACE('',(#759),#550,.F.);
#759 = FACE_BOUND('',#760,.F.);
#760 = EDGE_LOOP('',(#761,#762,#785,#806));
#761 = ORIENTED_EDGE('',*,*,#471,.T.);
#762 = ORIENTED_EDGE('',*,*,#763,.T.);
#763 = EDGE_CURVE('',#363,#764,#766,.T.);
#764 = VERTEX_POINT('',#765);
#765 = CARTESIAN_POINT('',(-36.75,0.75,109.));
#766 = SURFACE_CURVE('',#767,(#771,#778),.PCURVE_S1.);
#767 = LINE('',#768,#769);
#768 = CARTESIAN_POINT('',(-36.75,0.75,0.));
#769 = VECTOR('',#770,1.);
#770 = DIRECTION('',(0.,0.,1.));
#771 = PCURVE('',#550,#772);
#772 = DEFINITIONAL_REPRESENTATION('',(#773),#777);
#773 = LINE('',#774,#775);
#774 = CARTESIAN_POINT('',(0.,0.));
#775 = VECTOR('',#776,1.);
#776 = DIRECTION('',(0.,-1.));
#777 = ( GEOMETRIC_REPRESENTATION_CONTEXT(2) 
PARAMETRIC_REPRESENTATION_CONTEXT() REPRESENTATION_CONTEXT('2D SPACE',''
  ) );
#778 = PCURVE('',#432,#779);
#779 = DEFINITIONAL_REPRESENTATION('',(#780),#784);
#780 = LINE('',#781,#782);
#781 = CARTESIAN_POINT('',(3.14159265359,0.));
#782 = VECTOR('',#783,1.);
#783 = DIRECTION('',(0.,-1.));
#784 = ( GEOMETRIC_REPRESENTATION_CONTEXT(2) 
PARAMETRIC_REPRESENTATION_CONTEXT() REPRESENTATION_CONTEXT('2D SPACE',''
  ) );
#785 = ORIENTED_EDGE('',*,*,#786,.T.);
#786 = EDGE_CURVE('',#764,#682,#787,.T.);
#787 = SURFACE_CURVE('',#788,(#792,#799),.PCURVE_S1.);
#788 = LINE('',#789,#790);
#789 = CARTESIAN_POINT('',(-36.75,0.75,109.));
#790 = VECTOR('',#791,1.);
#791 = DIRECTION('',(1.,0.,0.));
#792 = PCURVE('',#550,#793);
#793 = DEFINITIONAL_REPRESENTATION('',(#794),#798);
#794 = LINE('',#795,#796);
#795 = CARTESIAN_POINT('',(0.,-109.));
#796 = VECTOR('',#797,1.);
#797 = DIRECTION('',(1.,0.));
#798 = ( GEOMETRIC_REPRESENTATION_CONTEXT(2) 
PARAMETRIC_REPRESENTATION_CONTEXT() REPRESENTATION_CONTEXT('2D SPACE',''
  ) );
#799 = PCURVE('',#721,#800);
#800 = DEFINITIONAL_REPRESENTATION('',(#801),#805);
#801 = LINE('',#802,#803);
#802 = CARTESIAN_POINT('',(-36.75,0.75));
#803 = VECTOR('',#804,1.);
#804 = DIRECTION('',(1.,0.));
#805 = ( GEOMETRIC_REPRESENTATION_CONTEXT(2) 
PARAMETRIC_REPRESENTATION_CONTEXT() REPRESENTATION_CONTEXT('2D SPACE',''
  ) );
#806 = ORIENTED_EDGE('',*,*,#681,.F.);
#807 = ADVANCED_FACE('',(#808),#432,.F.);
#808 = FACE_BOUND('',#809,.F.);
#809 = EDGE_LOOP('',(#810,#811,#834,#860));
#810 = ORIENTED_EDGE('',*,*,#362,.F.);
#811 = ORIENTED_EDGE('',*,*,#812,.T.);
#812 = EDGE_CURVE('',#272,#813,#815,.T.);
#813 = VERTEX_POINT('',#814);
#814 = CARTESIAN_POINT('',(-36.75,-0.75,109.));
#815 = SURFACE_CURVE('',#816,(#820,#827),.PCURVE_S1.);
#816 = LINE('',#817,#818);
#817 = CARTESIAN_POINT('',(-36.75,-0.75,0.));
#818 = VECTOR('',#819,1.);
#819 = DIRECTION('',(0.,0.,1.));
#820 = PCURVE('',#432,#821);
#821 = DEFINITIONAL_REPRESENTATION('',(#822),#826);
#822 = LINE('',#823,#824);
#823 = CARTESIAN_POINT('',(0.,0.));
#824 = VECTOR('',#825,1.);
#825 = DIRECTION('',(0.,-1.));
#826 = ( GEOMETRIC_REPRESENTATION_CONTEXT(2) 
PARAMETRIC_REPRESENTATION_CONTEXT() REPRESENTATION_CONTEXT('2D SPACE',''
  ) );
#827 = PCURVE('',#350,#828);
#828 = DEFINITIONAL_REPRESENTATION('',(#829),#833);
#829 = LINE('',#830,#831);
#830 = CARTESIAN_POINT('',(73.5,0.));
#831 = VECTOR('',#832,1.);
#832 = DIRECTION('',(0.,-1.));
#833 = ( GEOMETRIC_REPRESENTATION_CONTEXT(2) 
PARAMETRIC_REPRESENTATION_CONTEXT() REPRESENTATION_CONTEXT('2D SPACE',''
  ) );
#834 = ORIENTED_EDGE('',*,*,#835,.T.);
#835 = EDGE_CURVE('',#813,#764,#836,.T.);
#836 = SURFACE_CURVE('',#837,(#842,#849),.PCURVE_S1.);
#837 = CIRCLE('',#838,0.75);
#838 = AXIS2_PLACEMENT_3D('',#839,#840,#841);
#839 = CARTESIAN_POINT('',(-36.75,0.,109.));
#840 = DIRECTION('',(0.,-0.,-1.));
#841 = DIRECTION('',(0.,-1.,0.));
#842 = PCURVE('',#432,#843);
#843 = DEFINITIONAL_REPRESENTATION('',(#844),#848);
#844 = LINE('',#845,#846);
#845 = CARTESIAN_POINT('',(0.,-109.));
#846 = VECTOR('',#847,1.);
#847 = DIRECTION('',(1.,0.));
#848 = ( GEOMETRIC_REPRESENTATION_CONTEXT(2) 
PARAMETRIC_REPRESENTATION_CONTEXT() REPRESENTATION_CONTEXT('2D SPACE',''
  ) );
#849 = PCURVE('',#721,#850);
#850 = DEFINITIONAL_REPRESENTATION('',(#851),#859);
#851 = ( BOUNDED_CURVE() B_SPLINE_CURVE(2,(#852,#853,#854,#855,#856,#857
,#858),.UNSPECIFIED.,.T.,.F.) B_SPLINE_CURVE_WITH_KNOTS((1,2,2,2,2,1),(
    -2.094395102393,0.,2.094395102393,4.188790204786,6.28318530718,
8.377580409573),.UNSPECIFIED.) CURVE() GEOMETRIC_REPRESENTATION_ITEM() 
RATIONAL_B_SPLINE_CURVE((1.,0.5,1.,0.5,1.,0.5,1.)) REPRESENTATION_ITEM(
  '') );
#852 = CARTESIAN_POINT('',(-36.75,-0.75));
#853 = CARTESIAN_POINT('',(-38.04903810567,-0.75));
#854 = CARTESIAN_POINT('',(-37.39951905283,0.375));
#855 = CARTESIAN_POINT('',(-36.75,1.5));
#856 = CARTESIAN_POINT('',(-36.10048094716,0.375));
#857 = CARTESIAN_POINT('',(-35.45096189432,-0.75));
#858 = CARTESIAN_POINT('',(-36.75,-0.75));
#859 = ( GEOMETRIC_REPRESENTATION_CONTEXT(2) 
PARAMETRIC_REPRESENTATION_CONTEXT() REPRESENTATION_CONTEXT('2D SPACE',''
  ) );
#860 = ORIENTED_EDGE('',*,*,#763,.F.);
#861 = ADVANCED_FACE('',(#862),#350,.F.);
#862 = FACE_BOUND('',#863,.F.);
#863 = EDGE_LOOP('',(#864,#865,#866,#887));
#864 = ORIENTED_EDGE('',*,*,#271,.T.);
#865 = ORIENTED_EDGE('',*,*,#737,.T.);
#866 = ORIENTED_EDGE('',*,*,#867,.T.);
#867 = EDGE_CURVE('',#705,#813,#868,.T.);
#868 = SURFACE_CURVE('',#869,(#873,#880),.PCURVE_S1.);
#869 = LINE('',#870,#871);
#870 = CARTESIAN_POINT('',(36.75,-0.75,109.));
#871 = VECTOR('',#872,1.);
#872 = DIRECTION('',(-1.,0.,0.));
#873 = PCURVE('',#350,#874);
#874 = DEFINITIONAL_REPRESENTATION('',(#875),#879);
#875 = LINE('',#876,#877);
#876 = CARTESIAN_POINT('',(0.,-109.));
#877 = VECTOR('',#878,1.);
#878 = DIRECTION('',(1.,0.));
#879 = ( GEOMETRIC_REPRESENTATION_CONTEXT(2) 
PARAMETRIC_REPRESENTATION_CONTEXT() REPRESENTATION_CONTEXT('2D SPACE',''
  ) );
#880 = PCURVE('',#721,#881);
#881 = DEFINITIONAL_REPRESENTATION('',(#882),#886);
#882 = LINE('',#883,#884);
#883 = CARTESIAN_POINT('',(36.75,-0.75));
#884 = VECTOR('',#885,1.);
#885 = DIRECTION('',(-1.,0.));
#886 = ( GEOMETRIC_REPRESENTATION_CONTEXT(2) 
PARAMETRIC_REPRESENTATION_CONTEXT() REPRESENTATION_CONTEXT('2D SPACE',''
  ) );
#887 = ORIENTED_EDGE('',*,*,#812,.F.);
#888 = ADVANCED_FACE('',(#889,#892),#663,.T.);
#889 = FACE_BOUND('',#890,.T.);
#890 = EDGE_LOOP('',(#891));
#891 = ORIENTED_EDGE('',*,*,#648,.T.);
#892 = FACE_BOUND('',#893,.T.);
#893 = EDGE_LOOP('',(#894));
#894 = ORIENTED_EDGE('',*,*,#895,.F.);
#895 = EDGE_CURVE('',#896,#896,#898,.T.);
#896 = VERTEX_POINT('',#897);
#897 = CARTESIAN_POINT('',(39.75,0.,80.7));
#898 = SURFACE_CURVE('',#899,(#904,#911),.PCURVE_S1.);
#899 = CIRCLE('',#900,39.75);
#900 = AXIS2_PLACEMENT_3D('',#901,#902,#903);
#901 = CARTESIAN_POINT('',(0.,0.,80.7));
#902 = DIRECTION('',(0.,0.,1.));
#903 = DIRECTION('',(1.,0.,0.));
#904 = PCURVE('',#663,#905);
#905 = DEFINITIONAL_REPRESENTATION('',(#906),#910);
#906 = CIRCLE('',#907,39.75);
#907 = AXIS2_PLACEMENT_2D('',#908,#909);
#908 = CARTESIAN_POINT('',(2.933502854163E-15,-4.040240899597E-15));
#909 = DIRECTION('',(1.,0.));
#910 = ( GEOMETRIC_REPRESENTATION_CONTEXT(2) 
PARAMETRIC_REPRESENTATION_CONTEXT() REPRESENTATION_CONTEXT('2D SPACE',''
  ) );
#911 = PCURVE('',#912,#917);
#912 = CYLINDRICAL_SURFACE('',#913,39.75);
#913 = AXIS2_PLACEMENT_3D('',#914,#915,#916);
#914 = CARTESIAN_POINT('',(0.,0.,80.7));
#915 = DIRECTION('',(-0.,-0.,-1.));
#916 = DIRECTION('',(1.,0.,0.));
#917 = DEFINITIONAL_REPRESENTATION('',(#918),#922);
#918 = LINE('',#919,#920);
#919 = CARTESIAN_POINT('',(-0.,0.));
#920 = VECTOR('',#921,1.);
#921 = DIRECTION('',(-1.,0.));
#922 = ( GEOMETRIC_REPRESENTATION_CONTEXT(2) 
PARAMETRIC_REPRESENTATION_CONTEXT() REPRESENTATION_CONTEXT('2D SPACE',''
  ) );
#923 = ADVANCED_FACE('',(#924,#950),#721,.T.);
#924 = FACE_BOUND('',#925,.T.);
#925 = EDGE_LOOP('',(#926));
#926 = ORIENTED_EDGE('',*,*,#927,.T.);
#927 = EDGE_CURVE('',#928,#928,#930,.T.);
#928 = VERTEX_POINT('',#929);
#929 = CARTESIAN_POINT('',(39.75,0.,109.));
#930 = SURFACE_CURVE('',#931,(#936,#943),.PCURVE_S1.);
#931 = CIRCLE('',#932,39.75);
#932 = AXIS2_PLACEMENT_3D('',#933,#934,#935);
#933 = CARTESIAN_POINT('',(0.,0.,109.));
#934 = DIRECTION('',(0.,0.,1.));
#935 = DIRECTION('',(1.,0.,0.));
#936 = PCURVE('',#721,#937);
#937 = DEFINITIONAL_REPRESENTATION('',(#938),#942);
#938 = CIRCLE('',#939,39.75);
#939 = AXIS2_PLACEMENT_2D('',#940,#941);
#940 = CARTESIAN_POINT('',(4.403329231825E-15,-5.790076070423E-16));
#941 = DIRECTION('',(1.,0.));
#942 = ( GEOMETRIC_REPRESENTATION_CONTEXT(2) 
PARAMETRIC_REPRESENTATION_CONTEXT() REPRESENTATION_CONTEXT('2D SPACE',''
  ) );
#943 = PCURVE('',#912,#944);
#944 = DEFINITIONAL_REPRESENTATION('',(#945),#949);
#945 = LINE('',#946,#947);
#946 = CARTESIAN_POINT('',(-0.,-28.3));
#947 = VECTOR('',#948,1.);
#948 = DIRECTION('',(-1.,0.));
#949 = ( GEOMETRIC_REPRESENTATION_CONTEXT(2) 
PARAMETRIC_REPRESENTATION_CONTEXT() REPRESENTATION_CONTEXT('2D SPACE',''
  ) );
#950 = FACE_BOUND('',#951,.T.);
#951 = EDGE_LOOP('',(#952,#953,#954,#955));
#952 = ORIENTED_EDGE('',*,*,#786,.T.);
#953 = ORIENTED_EDGE('',*,*,#704,.T.);
#954 = ORIENTED_EDGE('',*,*,#867,.T.);
#955 = ORIENTED_EDGE('',*,*,#835,.T.);
#956 = ADVANCED_FACE('',(#957),#912,.T.);
#957 = FACE_BOUND('',#958,.F.);
#958 = EDGE_LOOP('',(#959,#980,#981,#982));
#959 = ORIENTED_EDGE('',*,*,#960,.T.);
#960 = EDGE_CURVE('',#896,#928,#961,.T.);
#961 = SEAM_CURVE('',#962,(#966,#973),.PCURVE_S1.);
#962 = LINE('',#963,#964);
#963 = CARTESIAN_POINT('',(39.75,0.,80.7));
#964 = VECTOR('',#965,1.);
#965 = DIRECTION('',(0.,0.,1.));
#966 = PCURVE('',#912,#967);
#967 = DEFINITIONAL_REPRESENTATION('',(#968),#972);
#968 = LINE('',#969,#970);
#969 = CARTESIAN_POINT('',(-0.,0.));
#970 = VECTOR('',#971,1.);
#971 = DIRECTION('',(-0.,-1.));
#972 = ( GEOMETRIC_REPRESENTATION_CONTEXT(2) 
PARAMETRIC_REPRESENTATION_CONTEXT() REPRESENTATION_CONTEXT('2D SPACE',''
  ) );
#973 = PCURVE('',#912,#974);
#974 = DEFINITIONAL_REPRESENTATION('',(#975),#979);
#975 = LINE('',#976,#977);
#976 = CARTESIAN_POINT('',(-6.28318530718,0.));
#977 = VECTOR('',#978,1.);
#978 = DIRECTION('',(-0.,-1.));
#979 = ( GEOMETRIC_REPRESENTATION_CONTEXT(2) 
PARAMETRIC_REPRESENTATION_CONTEXT() REPRESENTATION_CONTEXT('2D SPACE',''
  ) );
#980 = ORIENTED_EDGE('',*,*,#927,.T.);
#981 = ORIENTED_EDGE('',*,*,#960,.F.);
#982 = ORIENTED_EDGE('',*,*,#895,.F.);
#983 = ORIENTED_CLOSED_SHELL('',*,#984,.F.);
#984 = CLOSED_SHELL('',(#985,#1073,#1077));
#985 = ADVANCED_FACE('',(#986),#1000,.T.);
#986 = FACE_BOUND('',#987,.T.);
#987 = EDGE_LOOP('',(#988,#1018,#1045,#1046));
#988 = ORIENTED_EDGE('',*,*,#989,.T.);
#989 = EDGE_CURVE('',#990,#992,#994,.T.);
#990 = VERTEX_POINT('',#991);
#991 = CARTESIAN_POINT('',(-40.61,0.,54.5));
#992 = VERTEX_POINT('',#993);
#993 = CARTESIAN_POINT('',(-40.61,0.,44.5));
#994 = SEAM_CURVE('',#995,(#999,#1011),.PCURVE_S1.);
#995 = LINE('',#996,#997);
#996 = CARTESIAN_POINT('',(-40.61,0.,54.5));
#997 = VECTOR('',#998,1.);
#998 = DIRECTION('',(-0.,-0.,-1.));
#999 = PCURVE('',#1000,#1005);
#1000 = CYLINDRICAL_SURFACE('',#1001,0.89);
#1001 = AXIS2_PLACEMENT_3D('',#1002,#1003,#1004);
#1002 = CARTESIAN_POINT('',(-41.5,0.,54.5));
#1003 = DIRECTION('',(0.,0.,1.));
#1004 = DIRECTION('',(1.,0.,0.));
#1005 = DEFINITIONAL_REPRESENTATION('',(#1006),#1010);
#1006 = LINE('',#1007,#1008);
#1007 = CARTESIAN_POINT('',(0.,0.));
#1008 = VECTOR('',#1009,1.);
#1009 = DIRECTION('',(0.,-1.));
#1010 = ( GEOMETRIC_REPRESENTATION_CONTEXT(2) 
PARAMETRIC_REPRESENTATION_CONTEXT() REPRESENTATION_CONTEXT('2D SPACE',''
  ) );
#1011 = PCURVE('',#1000,#1012);
#1012 = DEFINITIONAL_REPRESENTATION('',(#1013),#1017);
#1013 = LINE('',#1014,#1015);
#1014 = CARTESIAN_POINT('',(6.28318530718,0.));
#1015 = VECTOR('',#1016,1.);
#1016 = DIRECTION('',(0.,-1.));
#1017 = ( GEOMETRIC_REPRESENTATION_CONTEXT(2) 
PARAMETRIC_REPRESENTATION_CONTEXT() REPRESENTATION_CONTEXT('2D SPACE',''
  ) );
#1018 = ORIENTED_EDGE('',*,*,#1019,.T.);
#1019 = EDGE_CURVE('',#992,#992,#1020,.T.);
#1020 = SURFACE_CURVE('',#1021,(#1026,#1033),.PCURVE_S1.);
#1021 = CIRCLE('',#1022,0.89);
#1022 = AXIS2_PLACEMENT_3D('',#1023,#1024,#1025);
#1023 = CARTESIAN_POINT('',(-41.5,0.,44.5));
#1024 = DIRECTION('',(0.,0.,1.));
#1025 = DIRECTION('',(1.,0.,0.));
#1026 = PCURVE('',#1000,#1027);
#1027 = DEFINITIONAL_REPRESENTATION('',(#1028),#1032);
#1028 = LINE('',#1029,#1030);
#1029 = CARTESIAN_POINT('',(0.,-10.));
#1030 = VECTOR('',#1031,1.);
#1031 = DIRECTION('',(1.,0.));
#1032 = ( GEOMETRIC_REPRESENTATION_CONTEXT(2) 
PARAMETRIC_REPRESENTATION_CONTEXT() REPRESENTATION_CONTEXT('2D SPACE',''
  ) );
#1033 = PCURVE('',#1034,#1039);
#1034 = PLANE('',#1035);
#1035 = AXIS2_PLACEMENT_3D('',#1036,#1037,#1038);
#1036 = CARTESIAN_POINT('',(-41.5,1.168286122289E-17,44.5));
#1037 = DIRECTION('',(0.,0.,1.));
#1038 = DIRECTION('',(1.,0.,-0.));
#1039 = DEFINITIONAL_REPRESENTATION('',(#1040),#1044);
#1040 = CIRCLE('',#1041,0.89);
#1041 = AXIS2_PLACEMENT_2D('',#1042,#1043);
#1042 = CARTESIAN_POINT('',(-7.105427357601E-15,-1.168286122289E-17));
#1043 = DIRECTION('',(1.,0.));
#1044 = ( GEOMETRIC_REPRESENTATION_CONTEXT(2) 
PARAMETRIC_REPRESENTATION_CONTEXT() REPRESENTATION_CONTEXT('2D SPACE',''
  ) );
#1045 = ORIENTED_EDGE('',*,*,#989,.F.);
#1046 = ORIENTED_EDGE('',*,*,#1047,.F.);
#1047 = EDGE_CURVE('',#990,#990,#1048,.T.);
#1048 = SURFACE_CURVE('',#1049,(#1054,#1061),.PCURVE_S1.);
#1049 = CIRCLE('',#1050,0.89);
#1050 = AXIS2_PLACEMENT_3D('',#1051,#1052,#1053);
#1051 = CARTESIAN_POINT('',(-41.5,0.,54.5));
#1052 = DIRECTION('',(0.,0.,1.));
#1053 = DIRECTION('',(1.,0.,0.));
#1054 = PCURVE('',#1000,#1055);
#1055 = DEFINITIONAL_REPRESENTATION('',(#1056),#1060);
#1056 = LINE('',#1057,#1058);
#1057 = CARTESIAN_POINT('',(0.,0.));
#1058 = VECTOR('',#1059,1.);
#1059 = DIRECTION('',(1.,0.));
#1060 = ( GEOMETRIC_REPRESENTATION_CONTEXT(2) 
PARAMETRIC_REPRESENTATION_CONTEXT() REPRESENTATION_CONTEXT('2D SPACE',''
  ) );
#1061 = PCURVE('',#1062,#1067);
#1062 = PLANE('',#1063);
#1063 = AXIS2_PLACEMENT_3D('',#1064,#1065,#1066);
#1064 = CARTESIAN_POINT('',(-41.5,1.168286122289E-17,54.5));
#1065 = DIRECTION('',(0.,0.,1.));
#1066 = DIRECTION('',(1.,0.,-0.));
#1067 = DEFINITIONAL_REPRESENTATION('',(#1068),#1072);
#1068 = CIRCLE('',#1069,0.89);
#1069 = AXIS2_PLACEMENT_2D('',#1070,#1071);
#1070 = CARTESIAN_POINT('',(-7.105427357601E-15,-1.168286122289E-17));
#1071 = DIRECTION('',(1.,0.));
#1072 = ( GEOMETRIC_REPRESENTATION_CONTEXT(2) 
PARAMETRIC_REPRESENTATION_CONTEXT() REPRESENTATION_CONTEXT('2D SPACE',''
  ) );
#1073 = ADVANCED_FACE('',(#1074),#1062,.T.);
#1074 = FACE_BOUND('',#1075,.T.);
#1075 = EDGE_LOOP('',(#1076));
#1076 = ORIENTED_EDGE('',*,*,#1047,.T.);
#1077 = ADVANCED_FACE('',(#1078),#1034,.F.);
#1078 = FACE_BOUND('',#1079,.F.);
#1079 = EDGE_LOOP('',(#1080));
#1080 = ORIENTED_EDGE('',*,*,#1019,.T.);
#1081 = ORIENTED_CLOSED_SHELL('',*,#1082,.F.);
#1082 = CLOSED_SHELL('',(#1083,#1171,#1175));
#1083 = ADVANCED_FACE('',(#1084),#1098,.T.);
#1084 = FACE_BOUND('',#1085,.T.);
#1085 = EDGE_LOOP('',(#1086,#1116,#1143,#1144));
#1086 = ORIENTED_EDGE('',*,*,#1087,.T.);
#1087 = EDGE_CURVE('',#1088,#1090,#1092,.T.);
#1088 = VERTEX_POINT('',#1089);
#1089 = CARTESIAN_POINT('',(42.39,0.,54.5));
#1090 = VERTEX_POINT('',#1091);
#1091 = CARTESIAN_POINT('',(42.39,0.,44.5));
#1092 = SEAM_CURVE('',#1093,(#1097,#1109),.PCURVE_S1.);
#1093 = LINE('',#1094,#1095);
#1094 = CARTESIAN_POINT('',(42.39,0.,54.5));
#1095 = VECTOR('',#1096,1.);
#1096 = DIRECTION('',(-0.,-0.,-1.));
#1097 = PCURVE('',#1098,#1103);
#1098 = CYLINDRICAL_SURFACE('',#1099,0.89);
#1099 = AXIS2_PLACEMENT_3D('',#1100,#1101,#1102);
#1100 = CARTESIAN_POINT('',(41.5,0.,54.5));
#1101 = DIRECTION('',(0.,0.,1.));
#1102 = DIRECTION('',(1.,0.,0.));
#1103 = DEFINITIONAL_REPRESENTATION('',(#1104),#1108);
#1104 = LINE('',#1105,#1106);
#1105 = CARTESIAN_POINT('',(0.,0.));
#1106 = VECTOR('',#1107,1.);
#1107 = DIRECTION('',(0.,-1.));
#1108 = ( GEOMETRIC_REPRESENTATION_CONTEXT(2) 
PARAMETRIC_REPRESENTATION_CONTEXT() REPRESENTATION_CONTEXT('2D SPACE',''
  ) );
#1109 = PCURVE('',#1098,#1110);
#1110 = DEFINITIONAL_REPRESENTATION('',(#1111),#1115);
#1111 = LINE('',#1112,#1113);
#1112 = CARTESIAN_POINT('',(6.28318530718,0.));
#1113 = VECTOR('',#1114,1.);
#1114 = DIRECTION('',(0.,-1.));
#1115 = ( GEOMETRIC_REPRESENTATION_CONTEXT(2) 
PARAMETRIC_REPRESENTATION_CONTEXT() REPRESENTATION_CONTEXT('2D SPACE',''
  ) );
#1116 = ORIENTED_EDGE('',*,*,#1117,.T.);
#1117 = EDGE_CURVE('',#1090,#1090,#1118,.T.);
#1118 = SURFACE_CURVE('',#1119,(#1124,#1131),.PCURVE_S1.);
#1119 = CIRCLE('',#1120,0.89);
#1120 = AXIS2_PLACEMENT_3D('',#1121,#1122,#1123);
#1121 = CARTESIAN_POINT('',(41.5,0.,44.5));
#1122 = DIRECTION('',(0.,0.,1.));
#1123 = DIRECTION('',(1.,0.,0.));
#1124 = PCURVE('',#1098,#1125);
#1125 = DEFINITIONAL_REPRESENTATION('',(#1126),#1130);
#1126 = LINE('',#1127,#1128);
#1127 = CARTESIAN_POINT('',(0.,-10.));
#1128 = VECTOR('',#1129,1.);
#1129 = DIRECTION('',(1.,0.));
#1130 = ( GEOMETRIC_REPRESENTATION_CONTEXT(2) 
PARAMETRIC_REPRESENTATION_CONTEXT() REPRESENTATION_CONTEXT('2D SPACE',''
  ) );
#1131 = PCURVE('',#1132,#1137);
#1132 = PLANE('',#1133);
#1133 = AXIS2_PLACEMENT_3D('',#1134,#1135,#1136);
#1134 = CARTESIAN_POINT('',(41.5,1.168286122289E-17,44.5));
#1135 = DIRECTION('',(0.,0.,1.));
#1136 = DIRECTION('',(1.,0.,-0.));
#1137 = DEFINITIONAL_REPRESENTATION('',(#1138),#1142);
#1138 = CIRCLE('',#1139,0.89);
#1139 = AXIS2_PLACEMENT_2D('',#1140,#1141);
#1140 = CARTESIAN_POINT('',(7.105427357601E-15,-1.168286122289E-17));
#1141 = DIRECTION('',(1.,0.));
#1142 = ( GEOMETRIC_REPRESENTATION_CONTEXT(2) 
PARAMETRIC_REPRESENTATION_CONTEXT() REPRESENTATION_CONTEXT('2D SPACE',''
  ) );
#1143 = ORIENTED_EDGE('',*,*,#1087,.F.);
#1144 = ORIENTED_EDGE('',*,*,#1145,.F.);
#1145 = EDGE_CURVE('',#1088,#1088,#1146,.T.);
#1146 = SURFACE_CURVE('',#1147,(#1152,#1159),.PCURVE_S1.);
#1147 = CIRCLE('',#1148,0.89);
#1148 = AXIS2_PLACEMENT_3D('',#1149,#1150,#1151);
#1149 = CARTESIAN_POINT('',(41.5,0.,54.5));
#1150 = DIRECTION('',(0.,0.,1.));
#1151 = DIRECTION('',(1.,0.,0.));
#1152 = PCURVE('',#1098,#1153);
#1153 = DEFINITIONAL_REPRESENTATION('',(#1154),#1158);
#1154 = LINE('',#1155,#1156);
#1155 = CARTESIAN_POINT('',(0.,0.));
#1156 = VECTOR('',#1157,1.);
#1157 = DIRECTION('',(1.,0.));
#1158 = ( GEOMETRIC_REPRESENTATION_CONTEXT(2) 
PARAMETRIC_REPRESENTATION_CONTEXT() REPRESENTATION_CONTEXT('2D SPACE',''
  ) );
#1159 = PCURVE('',#1160,#1165);
#1160 = PLANE('',#1161);
#1161 = AXIS2_PLACEMENT_3D('',#1162,#1163,#1164);
#1162 = CARTESIAN_POINT('',(41.5,1.168286122289E-17,54.5));
#1163 = DIRECTION('',(0.,0.,1.));
#1164 = DIRECTION('',(1.,0.,-0.));
#1165 = DEFINITIONAL_REPRESENTATION('',(#1166),#1170);
#1166 = CIRCLE('',#1167,0.89);
#1167 = AXIS2_PLACEMENT_2D('',#1168,#1169);
#1168 = CARTESIAN_POINT('',(7.105427357601E-15,-1.168286122289E-17));
#1169 = DIRECTION('',(1.,0.));
#1170 = ( GEOMETRIC_REPRESENTATION_CONTEXT(2) 
PARAMETRIC_REPRESENTATION_CONTEXT() REPRESENTATION_CONTEXT('2D SPACE',''
  ) );
#1171 = ADVANCED_FACE('',(#1172),#1160,.T.);
#1172 = FACE_BOUND('',#1173,.T.);
#1173 = EDGE_LOOP('',(#1174));
#1174 = ORIENTED_EDGE('',*,*,#1145,.T.);
#1175 = ADVANCED_FACE('',(#1176),#1132,.F.);
#1176 = FACE_BOUND('',#1177,.F.);
#1177 = EDGE_LOOP('',(#1178));
#1178 = ORIENTED_EDGE('',*,*,#1117,.T.);
#1179 = ( GEOMETRIC_REPRESENTATION_CONTEXT(3) 
GLOBAL_UNCERTAINTY_ASSIGNED_CONTEXT((#1183)) 
GLOBAL_UNIT_ASSIGNED_CONTEXT((#1180,#1181,#1182)) REPRESENTATION_CONTEXT
('Context #1','3D Context with UNIT and UNCERTAINTY') );
#1180 = ( LENGTH_UNIT() NAMED_UNIT(*) SI_UNIT(.MILLI.,.METRE.) );
#1181 = ( NAMED_UNIT(*) PLANE_ANGLE_UNIT() SI_UNIT($,.RADIAN.) );
#1182 = ( NAMED_UNIT(*) SI_UNIT($,.STERADIAN.) SOLID_ANGLE_UNIT() );
#1183 = UNCERTAINTY_MEASURE_WITH_UNIT(LENGTH_MEASURE(1.E-07),#1180,
  'distance_accuracy_value','confusion accuracy');
#1184 = PRODUCT_RELATED_PRODUCT_CATEGORY('part',$,(#7));
ENDSEC;
END-ISO-10303-21;
