ISO-10303-21;
HEADER;
FILE_DESCRIPTION(('Open CASCADE Model'),'2;1');
FILE_NAME('Open CASCADE Shape Model','2026-09-10T14:14:24',('Author'),(
    'Open CASCADE'),'Open CASCADE STEP processor 7.9','Open CASCADE 7.9'
  ,'Unknown');
FILE_SCHEMA(('AUTOMOTIVE_DESIGN { 1 0 10303 214 1 1 1 1 }'));
ENDSEC;
DATA;
#1 = APPLICATION_PROTOCOL_DEFINITION('international standard',
  'automotive_design',2000,#2);
#2 = APPLICATION_CONTEXT(
  'core data for automotive mechanical design processes');
#3 = SHAPE_DEFINITION_REPRESENTATION(#4,#10);
#4 = PRODUCT_DEFINITION_SHAPE('','',#5);
#5 = PRODUCT_DEFINITION('design','',#6,#9);
#6 = PRODUCT_DEFINITION_FORMATION('','',#7);
#7 = PRODUCT('Open CASCADE STEP translator 7.9 4',
  'Open CASCADE STEP translator 7.9 4','',(#8));
#8 = PRODUCT_CONTEXT('',#2,'mechanical');
#9 = PRODUCT_DEFINITION_CONTEXT('part definition',#2,'design');
#10 = ADVANCED_BREP_SHAPE_REPRESENTATION('',(#11,#15),#1355);
#11 = AXIS2_PLACEMENT_3D('',#12,#13,#14);
#12 = CARTESIAN_POINT('',(0.,0.,0.));
#13 = DIRECTION('',(0.,0.,1.));
#14 = DIRECTION('',(1.,0.,-0.));
#15 = MANIFOLD_SOLID_BREP('',#16);
#16 = CLOSED_SHELL('',(#17,#135,#271,#501,#549,#873,#948,#975,#1003,
    #1031,#1059,#1147,#1194,#1221,#1247,#1297,#1321,#1348));
#17 = ADVANCED_FACE('',(#18),#33,.T.);
#18 = FACE_BOUND('',#19,.F.);
#19 = EDGE_LOOP('',(#20,#56,#82,#111));
#20 = ORIENTED_EDGE('',*,*,#21,.F.);
#21 = EDGE_CURVE('',#22,#24,#26,.T.);
#22 = VERTEX_POINT('',#23);
#23 = CARTESIAN_POINT('',(46.499999888813,3.215651064169E-03,0.));
#24 = VERTEX_POINT('',#25);
#25 = CARTESIAN_POINT('',(-46.49999988881,3.215651064172E-03,0.));
#26 = SURFACE_CURVE('',#27,(#32,#44),.PCURVE_S1.);
#27 = CIRCLE('',#28,46.5);
#28 = AXIS2_PLACEMENT_3D('',#29,#30,#31);
#29 = CARTESIAN_POINT('',(0.,0.,0.));
#30 = DIRECTION('',(0.,0.,1.));
#31 = DIRECTION('',(1.,0.,0.));
#32 = PCURVE('',#33,#38);
#33 = CYLINDRICAL_SURFACE('',#34,46.5);
#34 = AXIS2_PLACEMENT_3D('',#35,#36,#37);
#35 = CARTESIAN_POINT('',(0.,0.,0.));
#36 = DIRECTION('',(-0.,-0.,-1.));
#37 = DIRECTION('',(1.,0.,0.));
#38 = DEFINITIONAL_REPRESENTATION('',(#39),#43);
#39 = LINE('',#40,#41);
#40 = CARTESIAN_POINT('',(-0.,0.));
#41 = VECTOR('',#42,1.);
#42 = DIRECTION('',(-1.,0.));
#43 = ( GEOMETRIC_REPRESENTATION_CONTEXT(2) 
PARAMETRIC_REPRESENTATION_CONTEXT() REPRESENTATION_CONTEXT('2D SPACE',''
  ) );
#44 = PCURVE('',#45,#50);
#45 = PLANE('',#46);
#46 = AXIS2_PLACEMENT_3D('',#47,#48,#49);
#47 = CARTESIAN_POINT('',(-1.882068139409E-15,-1.61343992693E-17,0.));
#48 = DIRECTION('',(0.,0.,1.));
#49 = DIRECTION('',(1.,0.,-0.));
#50 = DEFINITIONAL_REPRESENTATION('',(#51),#55);
#51 = CIRCLE('',#52,46.5);
#52 = AXIS2_PLACEMENT_2D('',#53,#54);
#53 = CARTESIAN_POINT('',(1.882068139409E-15,1.61343992693E-17));
#54 = DIRECTION('',(1.,0.));
#55 = ( GEOMETRIC_REPRESENTATION_CONTEXT(2) 
PARAMETRIC_REPRESENTATION_CONTEXT() REPRESENTATION_CONTEXT('2D SPACE',''
  ) );
#56 = ORIENTED_EDGE('',*,*,#57,.F.);
#57 = EDGE_CURVE('',#58,#22,#60,.T.);
#58 = VERTEX_POINT('',#59);
#59 = CARTESIAN_POINT('',(46.499999888813,3.215651064169E-03,69.9));
#60 = SURFACE_CURVE('',#61,(#65,#71),.PCURVE_S1.);
#61 = LINE('',#62,#63);
#62 = CARTESIAN_POINT('',(46.499999888813,3.215651064169E-03,0.));
#63 = VECTOR('',#64,1.);
#64 = DIRECTION('',(-0.,-0.,-1.));
#65 = PCURVE('',#33,#66);
#66 = DEFINITIONAL_REPRESENTATION('',(#67),#70);
#67 = B_SPLINE_CURVE_WITH_KNOTS('',1,(#68,#69),.UNSPECIFIED.,.F.,.F.,(2,
    2),(-69.9000006,6.E-07),.PIECEWISE_BEZIER_KNOTS.);
#68 = CARTESIAN_POINT('',(-6.915378638134E-05,-69.9000006));
#69 = CARTESIAN_POINT('',(-6.915378638134E-05,6.E-07));
#70 = ( GEOMETRIC_REPRESENTATION_CONTEXT(2) 
PARAMETRIC_REPRESENTATION_CONTEXT() REPRESENTATION_CONTEXT('2D SPACE',''
  ) );
#71 = PCURVE('',#72,#77);
#72 = PLANE('',#73);
#73 = AXIS2_PLACEMENT_3D('',#74,#75,#76);
#74 = CARTESIAN_POINT('',(1.723583053445E-02,3.215651064169E-03,
    59.570304582995));
#75 = DIRECTION('',(-0.,-1.,-0.));
#76 = DIRECTION('',(0.,0.,-1.));
#77 = DEFINITIONAL_REPRESENTATION('',(#78),#81);
#78 = B_SPLINE_CURVE_WITH_KNOTS('',1,(#79,#80),.UNSPECIFIED.,.F.,.F.,(2,
    2),(-69.9000006,6.E-07),.PIECEWISE_BEZIER_KNOTS.);
#79 = CARTESIAN_POINT('',(-10.329696017,46.482764058278));
#80 = CARTESIAN_POINT('',(59.570305182995,46.482764058278));
#81 = ( GEOMETRIC_REPRESENTATION_CONTEXT(2) 
PARAMETRIC_REPRESENTATION_CONTEXT() REPRESENTATION_CONTEXT('2D SPACE',''
  ) );
#82 = ORIENTED_EDGE('',*,*,#83,.T.);
#83 = EDGE_CURVE('',#58,#84,#86,.T.);
#84 = VERTEX_POINT('',#85);
#85 = CARTESIAN_POINT('',(-46.49999988881,3.215651064172E-03,69.9));
#86 = SURFACE_CURVE('',#87,(#92,#99),.PCURVE_S1.);
#87 = CIRCLE('',#88,46.5);
#88 = AXIS2_PLACEMENT_3D('',#89,#90,#91);
#89 = CARTESIAN_POINT('',(0.,0.,69.9));
#90 = DIRECTION('',(0.,0.,1.));
#91 = DIRECTION('',(1.,0.,0.));
#92 = PCURVE('',#33,#93);
#93 = DEFINITIONAL_REPRESENTATION('',(#94),#98);
#94 = LINE('',#95,#96);
#95 = CARTESIAN_POINT('',(-0.,-69.9));
#96 = VECTOR('',#97,1.);
#97 = DIRECTION('',(-1.,0.));
#98 = ( GEOMETRIC_REPRESENTATION_CONTEXT(2) 
PARAMETRIC_REPRESENTATION_CONTEXT() REPRESENTATION_CONTEXT('2D SPACE',''
  ) );
#99 = PCURVE('',#100,#105);
#100 = PLANE('',#101);
#101 = AXIS2_PLACEMENT_3D('',#102,#103,#104);
#102 = CARTESIAN_POINT('',(-1.882068139409E-15,-1.61343992693E-17,69.9)
  );
#103 = DIRECTION('',(0.,0.,1.));
#104 = DIRECTION('',(1.,0.,-0.));
#105 = DEFINITIONAL_REPRESENTATION('',(#106),#110);
#106 = CIRCLE('',#107,46.5);
#107 = AXIS2_PLACEMENT_2D('',#108,#109);
#108 = CARTESIAN_POINT('',(1.882068139409E-15,1.61343992693E-17));
#109 = DIRECTION('',(1.,0.));
#110 = ( GEOMETRIC_REPRESENTATION_CONTEXT(2) 
PARAMETRIC_REPRESENTATION_CONTEXT() REPRESENTATION_CONTEXT('2D SPACE',''
  ) );
#111 = ORIENTED_EDGE('',*,*,#112,.T.);
#112 = EDGE_CURVE('',#84,#24,#113,.T.);
#113 = SURFACE_CURVE('',#114,(#118,#124),.PCURVE_S1.);
#114 = LINE('',#115,#116);
#115 = CARTESIAN_POINT('',(-46.49999988881,3.215651064169E-03,0.));
#116 = VECTOR('',#117,1.);
#117 = DIRECTION('',(-0.,-0.,-1.));
#118 = PCURVE('',#33,#119);
#119 = DEFINITIONAL_REPRESENTATION('',(#120),#123);
#120 = B_SPLINE_CURVE_WITH_KNOTS('',1,(#121,#122),.UNSPECIFIED.,.F.,.F.,
  (2,2),(-69.9000006,6.E-07),.PIECEWISE_BEZIER_KNOTS.);
#121 = CARTESIAN_POINT('',(-3.141523499803,-69.9000006));
#122 = CARTESIAN_POINT('',(-3.141523499803,6.E-07));
#123 = ( GEOMETRIC_REPRESENTATION_CONTEXT(2) 
PARAMETRIC_REPRESENTATION_CONTEXT() REPRESENTATION_CONTEXT('2D SPACE',''
  ) );
#124 = PCURVE('',#125,#130);
#125 = PLANE('',#126);
#126 = AXIS2_PLACEMENT_3D('',#127,#128,#129);
#127 = CARTESIAN_POINT('',(1.723583053445E-02,3.215651064169E-03,
    59.570304582995));
#128 = DIRECTION('',(-0.,-1.,-0.));
#129 = DIRECTION('',(0.,0.,-1.));
#130 = DEFINITIONAL_REPRESENTATION('',(#131),#134);
#131 = B_SPLINE_CURVE_WITH_KNOTS('',1,(#132,#133),.UNSPECIFIED.,.F.,.F.,
  (2,2),(-69.9000006,6.E-07),.PIECEWISE_BEZIER_KNOTS.);
#132 = CARTESIAN_POINT('',(-10.329696017,-46.51723571934));
#133 = CARTESIAN_POINT('',(59.570305182995,-46.51723571934));
#134 = ( GEOMETRIC_REPRESENTATION_CONTEXT(2) 
PARAMETRIC_REPRESENTATION_CONTEXT() REPRESENTATION_CONTEXT('2D SPACE',''
  ) );
#135 = ADVANCED_FACE('',(#136),#45,.F.);
#136 = FACE_BOUND('',#137,.F.);
#137 = EDGE_LOOP('',(#138,#159,#160,#181,#225));
#138 = ORIENTED_EDGE('',*,*,#139,.T.);
#139 = EDGE_CURVE('',#140,#22,#142,.T.);
#140 = VERTEX_POINT('',#141);
#141 = CARTESIAN_POINT('',(37.799999863222,3.215651064169E-03,0.));
#142 = SURFACE_CURVE('',#143,(#147,#153),.PCURVE_S1.);
#143 = LINE('',#144,#145);
#144 = CARTESIAN_POINT('',(8.617915267224E-03,3.215651064169E-03,0.));
#145 = VECTOR('',#146,1.);
#146 = DIRECTION('',(1.,0.,0.));
#147 = PCURVE('',#45,#148);
#148 = DEFINITIONAL_REPRESENTATION('',(#149),#152);
#149 = B_SPLINE_CURVE_WITH_KNOTS('',1,(#150,#151),.UNSPECIFIED.,.F.,.F.,
  (2,2),(-46.50861791526,46.491382084733),.PIECEWISE_BEZIER_KNOTS.);
#150 = CARTESIAN_POINT('',(-46.5,3.215651064169E-03));
#151 = CARTESIAN_POINT('',(46.5,3.215651064169E-03));
#152 = ( GEOMETRIC_REPRESENTATION_CONTEXT(2) 
PARAMETRIC_REPRESENTATION_CONTEXT() REPRESENTATION_CONTEXT('2D SPACE',''
  ) );
#153 = PCURVE('',#72,#154);
#154 = DEFINITIONAL_REPRESENTATION('',(#155),#158);
#155 = B_SPLINE_CURVE_WITH_KNOTS('',1,(#156,#157),.UNSPECIFIED.,.F.,.F.,
  (2,2),(-46.50861791526,46.491382084733),.PIECEWISE_BEZIER_KNOTS.);
#156 = CARTESIAN_POINT('',(59.570304582995,-46.51723583053));
#157 = CARTESIAN_POINT('',(59.570304582995,46.482764169466));
#158 = ( GEOMETRIC_REPRESENTATION_CONTEXT(2) 
PARAMETRIC_REPRESENTATION_CONTEXT() REPRESENTATION_CONTEXT('2D SPACE',''
  ) );
#159 = ORIENTED_EDGE('',*,*,#21,.T.);
#160 = ORIENTED_EDGE('',*,*,#161,.T.);
#161 = EDGE_CURVE('',#24,#162,#164,.T.);
#162 = VERTEX_POINT('',#163);
#163 = CARTESIAN_POINT('',(-37.79999986322,3.215651064173E-03,0.));
#164 = SURFACE_CURVE('',#165,(#169,#175),.PCURVE_S1.);
#165 = LINE('',#166,#167);
#166 = CARTESIAN_POINT('',(8.617915267224E-03,3.215651064169E-03,0.));
#167 = VECTOR('',#168,1.);
#168 = DIRECTION('',(1.,0.,0.));
#169 = PCURVE('',#45,#170);
#170 = DEFINITIONAL_REPRESENTATION('',(#171),#174);
#171 = B_SPLINE_CURVE_WITH_KNOTS('',1,(#172,#173),.UNSPECIFIED.,.F.,.F.,
  (2,2),(-46.50861791526,46.491382084733),.PIECEWISE_BEZIER_KNOTS.);
#172 = CARTESIAN_POINT('',(-46.5,3.215651064169E-03));
#173 = CARTESIAN_POINT('',(46.5,3.215651064169E-03));
#174 = ( GEOMETRIC_REPRESENTATION_CONTEXT(2) 
PARAMETRIC_REPRESENTATION_CONTEXT() REPRESENTATION_CONTEXT('2D SPACE',''
  ) );
#175 = PCURVE('',#125,#176);
#176 = DEFINITIONAL_REPRESENTATION('',(#177),#180);
#177 = B_SPLINE_CURVE_WITH_KNOTS('',1,(#178,#179),.UNSPECIFIED.,.F.,.F.,
  (2,2),(-46.50861791526,46.491382084733),.PIECEWISE_BEZIER_KNOTS.);
#178 = CARTESIAN_POINT('',(59.570304582995,-46.51723583053));
#179 = CARTESIAN_POINT('',(59.570304582995,46.482764169466));
#180 = ( GEOMETRIC_REPRESENTATION_CONTEXT(2) 
PARAMETRIC_REPRESENTATION_CONTEXT() REPRESENTATION_CONTEXT('2D SPACE',''
  ) );
#181 = ORIENTED_EDGE('',*,*,#182,.F.);
#182 = EDGE_CURVE('',#183,#162,#185,.T.);
#183 = VERTEX_POINT('',#184);
#184 = CARTESIAN_POINT('',(-37.79213073791,0.771267974243,0.));
#185 = SURFACE_CURVE('',#186,(#191,#198),.PCURVE_S1.);
#186 = CIRCLE('',#187,37.8);
#187 = AXIS2_PLACEMENT_3D('',#188,#189,#190);
#188 = CARTESIAN_POINT('',(0.,0.,0.));
#189 = DIRECTION('',(0.,0.,1.));
#190 = DIRECTION('',(1.,0.,0.));
#191 = PCURVE('',#45,#192);
#192 = DEFINITIONAL_REPRESENTATION('',(#193),#197);
#193 = CIRCLE('',#194,37.8);
#194 = AXIS2_PLACEMENT_2D('',#195,#196);
#195 = CARTESIAN_POINT('',(1.882068139409E-15,1.61343992693E-17));
#196 = DIRECTION('',(1.,0.));
#197 = ( GEOMETRIC_REPRESENTATION_CONTEXT(2) 
PARAMETRIC_REPRESENTATION_CONTEXT() REPRESENTATION_CONTEXT('2D SPACE',''
  ) );
#198 = PCURVE('',#199,#220);
#199 = B_SPLINE_SURFACE_WITH_KNOTS('',9,1,(
    (#200,#201)
    ,(#202,#203)
    ,(#204,#205)
    ,(#206,#207)
    ,(#208,#209)
    ,(#210,#211)
    ,(#212,#213)
    ,(#214,#215)
    ,(#216,#217)
    ,(#218,#219
    )),.UNSPECIFIED.,.F.,.F.,.F.,(10,10),(2,2),(3.14159265359,
    6.28318530718),(0.,1.),.PIECEWISE_BEZIER_KNOTS.);
#200 = CARTESIAN_POINT('',(-37.79213073791,0.771267974243,0.));
#201 = CARTESIAN_POINT('',(-36.75,0.75,99.));
#202 = CARTESIAN_POINT('',(-37.79562806637,0.599898879786,0.));
#203 = CARTESIAN_POINT('',(-37.01179938779,0.75,99.));
#204 = CARTESIAN_POINT('',(-37.79825118407,0.428511943798,0.));
#205 = CARTESIAN_POINT('',(-37.27360149249,0.647191900061,
    98.999999999999));
#206 = CARTESIAN_POINT('',(-37.79999998699,0.257112263859,0.));
#207 = CARTESIAN_POINT('',(-37.48924283384,0.44157278914,99.000000000004
    ));
#208 = CARTESIAN_POINT('',(-37.80087440579,8.570493754982E-02,0.));
#209 = CARTESIAN_POINT('',(-37.61268047281,0.157317457926,
    98.999999999993));
#210 = CARTESIAN_POINT('',(-37.80087440579,-8.570493754981E-02,0.));
#211 = CARTESIAN_POINT('',(-37.61268047282,-0.157317457926,
    99.000000000007));
#212 = CARTESIAN_POINT('',(-37.79999998699,-0.257112263859,0.));
#213 = CARTESIAN_POINT('',(-37.48924283383,-0.44157278914,
    98.999999999994));
#214 = CARTESIAN_POINT('',(-37.79825118407,-0.428511943798,0.));
#215 = CARTESIAN_POINT('',(-37.2736014925,-0.647191900061,
    99.000000000003));
#216 = CARTESIAN_POINT('',(-37.79562806637,-0.599898879786,0.));
#217 = CARTESIAN_POINT('',(-37.01179938779,-0.75,98.999999999999));
#218 = CARTESIAN_POINT('',(-37.79213073791,-0.771267974243,0.));
#219 = CARTESIAN_POINT('',(-36.75,-0.75,99.));
#220 = DEFINITIONAL_REPRESENTATION('',(#221),#224);
#221 = B_SPLINE_CURVE_WITH_KNOTS('',1,(#222,#223),.UNSPECIFIED.,.F.,.F.,
  (2,2),(3.121187322903,3.161997984276),.PIECEWISE_BEZIER_KNOTS.);
#222 = CARTESIAN_POINT('',(3.14159265359,0.));
#223 = CARTESIAN_POINT('',(6.28318530718,0.));
#224 = ( GEOMETRIC_REPRESENTATION_CONTEXT(2) 
PARAMETRIC_REPRESENTATION_CONTEXT() REPRESENTATION_CONTEXT('2D SPACE',''
  ) );
#225 = ORIENTED_EDGE('',*,*,#226,.F.);
#226 = EDGE_CURVE('',#140,#183,#227,.T.);
#227 = SURFACE_CURVE('',#228,(#233,#240),.PCURVE_S1.);
#228 = CIRCLE('',#229,37.8);
#229 = AXIS2_PLACEMENT_3D('',#230,#231,#232);
#230 = CARTESIAN_POINT('',(0.,0.,0.));
#231 = DIRECTION('',(0.,0.,1.));
#232 = DIRECTION('',(1.,0.,0.));
#233 = PCURVE('',#45,#234);
#234 = DEFINITIONAL_REPRESENTATION('',(#235),#239);
#235 = CIRCLE('',#236,37.8);
#236 = AXIS2_PLACEMENT_2D('',#237,#238);
#237 = CARTESIAN_POINT('',(1.882068139409E-15,1.61343992693E-17));
#238 = DIRECTION('',(1.,0.));
#239 = ( GEOMETRIC_REPRESENTATION_CONTEXT(2) 
PARAMETRIC_REPRESENTATION_CONTEXT() REPRESENTATION_CONTEXT('2D SPACE',''
  ) );
#240 = PCURVE('',#241,#266);
#241 = B_SPLINE_SURFACE_WITH_KNOTS('',11,1,(
    (#242,#243)
    ,(#244,#245)
    ,(#246,#247)
    ,(#248,#249)
    ,(#250,#251)
    ,(#252,#253)
    ,(#254,#255)
    ,(#256,#257)
    ,(#258,#259)
    ,(#260,#261)
    ,(#262,#263)
    ,(#264,#265
    )),.UNSPECIFIED.,.F.,.F.,.F.,(12,12),(2,2),(-73.5,0.),(0.,1.),
  .PIECEWISE_BEZIER_KNOTS.);
#242 = CARTESIAN_POINT('',(37.8,-7.105427357601E-15,0.));
#243 = CARTESIAN_POINT('',(36.75,0.75,99.));
#244 = CARTESIAN_POINT('',(37.8,10.725534618702,0.));
#245 = CARTESIAN_POINT('',(30.068181818182,0.75,99.));
#246 = CARTESIAN_POINT('',(34.452359659639,21.451068457069,0.));
#247 = CARTESIAN_POINT('',(23.386363636364,0.75,99.));
#248 = CARTESIAN_POINT('',(27.757079789678,31.015652162493,0.));
#249 = CARTESIAN_POINT('',(16.704545454545,0.75,99.));
#250 = CARTESIAN_POINT('',(18.167101192845,38.2582922896,0.));
#251 = CARTESIAN_POINT('',(10.022727272727,0.75,99.));
#252 = CARTESIAN_POINT('',(6.588333853533,42.220109895496,0.));
#253 = CARTESIAN_POINT('',(3.340909090909,0.75,99.));
#254 = CARTESIAN_POINT('',(-5.725506764718,42.345748249928,0.));
#255 = CARTESIAN_POINT('',(-3.340909090909,0.75,99.));
#256 = CARTESIAN_POINT('',(-17.38270020679,38.621007601877,0.));
#257 = CARTESIAN_POINT('',(-10.02272727272,0.75,99.));
#258 = CARTESIAN_POINT('',(-27.11846055823,31.575548363709,0.));
#259 = CARTESIAN_POINT('',(-16.70454545454,0.75,99.));
#260 = CARTESIAN_POINT('',(-34.00750154424,22.149565747081,0.));
#261 = CARTESIAN_POINT('',(-23.38636363636,0.75,99.));
#262 = CARTESIAN_POINT('',(-37.57328784484,11.494569734672,0.));
#263 = CARTESIAN_POINT('',(-30.06818181818,0.75,99.));
#264 = CARTESIAN_POINT('',(-37.79213073791,0.771267974243,0.));
#265 = CARTESIAN_POINT('',(-36.75,0.75,99.));
#266 = DEFINITIONAL_REPRESENTATION('',(#267),#270);
#267 = B_SPLINE_CURVE_WITH_KNOTS('',1,(#268,#269),.UNSPECIFIED.,.F.,.F.,
  (2,2),(0.,3.121187322903),.PIECEWISE_BEZIER_KNOTS.);
#268 = CARTESIAN_POINT('',(-73.5,0.));
#269 = CARTESIAN_POINT('',(0.,0.));
#270 = ( GEOMETRIC_REPRESENTATION_CONTEXT(2) 
PARAMETRIC_REPRESENTATION_CONTEXT() REPRESENTATION_CONTEXT('2D SPACE',''
  ) );
#271 = ADVANCED_FACE('',(#272),#125,.T.);
#272 = FACE_BOUND('',#273,.T.);
#273 = EDGE_LOOP('',(#274,#295,#296,#297,#341,#367,#399,#425,#451,#477)
  );
#274 = ORIENTED_EDGE('',*,*,#275,.F.);
#275 = EDGE_CURVE('',#84,#276,#278,.T.);
#276 = VERTEX_POINT('',#277);
#277 = CARTESIAN_POINT('',(-44.74999988446,3.215651064184E-03,69.9));
#278 = SURFACE_CURVE('',#279,(#283,#289),.PCURVE_S1.);
#279 = LINE('',#280,#281);
#280 = CARTESIAN_POINT('',(8.617915267224E-03,3.215651064169E-03,69.9));
#281 = VECTOR('',#282,1.);
#282 = DIRECTION('',(1.,0.,0.));
#283 = PCURVE('',#125,#284);
#284 = DEFINITIONAL_REPRESENTATION('',(#285),#288);
#285 = B_SPLINE_CURVE_WITH_KNOTS('',1,(#286,#287),.UNSPECIFIED.,.F.,.F.,
  (2,2),(-46.50861791526,46.491382084733),.PIECEWISE_BEZIER_KNOTS.);
#286 = CARTESIAN_POINT('',(-10.329695417,-46.51723583053));
#287 = CARTESIAN_POINT('',(-10.329695417,46.482764169466));
#288 = ( GEOMETRIC_REPRESENTATION_CONTEXT(2) 
PARAMETRIC_REPRESENTATION_CONTEXT() REPRESENTATION_CONTEXT('2D SPACE',''
  ) );
#289 = PCURVE('',#100,#290);
#290 = DEFINITIONAL_REPRESENTATION('',(#291),#294);
#291 = B_SPLINE_CURVE_WITH_KNOTS('',1,(#292,#293),.UNSPECIFIED.,.F.,.F.,
  (2,2),(-46.50861791526,46.491382084733),.PIECEWISE_BEZIER_KNOTS.);
#292 = CARTESIAN_POINT('',(-46.5,3.215651064169E-03));
#293 = CARTESIAN_POINT('',(46.5,3.215651064169E-03));
#294 = ( GEOMETRIC_REPRESENTATION_CONTEXT(2) 
PARAMETRIC_REPRESENTATION_CONTEXT() REPRESENTATION_CONTEXT('2D SPACE',''
  ) );
#295 = ORIENTED_EDGE('',*,*,#112,.T.);
#296 = ORIENTED_EDGE('',*,*,#161,.T.);
#297 = ORIENTED_EDGE('',*,*,#298,.T.);
#298 = EDGE_CURVE('',#162,#299,#301,.T.);
#299 = VERTEX_POINT('',#300);
#300 = CARTESIAN_POINT('',(-37.49999310636,3.215651064169E-03,99.));
#301 = SURFACE_CURVE('',#302,(#313,#327),.PCURVE_S1.);
#302 = B_SPLINE_CURVE_WITH_KNOTS('',5,(#303,#304,#305,#306,#307,#308,
    #309,#310,#311,#312),.UNSPECIFIED.,.F.,.F.,(6,4,6),(0.,
    0.842000002341,1.),.UNSPECIFIED.);
#303 = CARTESIAN_POINT('',(-37.79999986322,3.215651064169E-03,0.));
#304 = CARTESIAN_POINT('',(-37.74947719294,3.215651064169E-03,
    16.67160003621));
#305 = CARTESIAN_POINT('',(-37.69895569905,3.215651064169E-03,
    33.343200080328));
#306 = CARTESIAN_POINT('',(-37.64843464845,3.215651064169E-03,
    50.014800127493));
#307 = CARTESIAN_POINT('',(-37.5979139459,3.215651064169E-03,
    66.686400176616));
#308 = CARTESIAN_POINT('',(-37.53791335563,3.215651064169E-03,
    86.486400181712));
#309 = CARTESIAN_POINT('',(-37.52843326995,3.215651064169E-03,
    89.614800136223));
#310 = CARTESIAN_POINT('',(-37.51895319101,3.215651064169E-03,
    92.743200090777));
#311 = CARTESIAN_POINT('',(-37.50947311822,3.215651064169E-03,
    95.87160004537));
#312 = CARTESIAN_POINT('',(-37.49999305105,3.215651064169E-03,99.));
#313 = PCURVE('',#125,#314);
#314 = DEFINITIONAL_REPRESENTATION('',(#315),#326);
#315 = B_SPLINE_CURVE_WITH_KNOTS('',5,(#316,#317,#318,#319,#320,#321,
    #322,#323,#324,#325),.UNSPECIFIED.,.F.,.F.,(6,4,6),(0.,
    0.842000002341,1.),.UNSPECIFIED.);
#316 = CARTESIAN_POINT('',(59.570304582995,-37.81723569375));
#317 = CARTESIAN_POINT('',(42.898704546785,-37.76671302347));
#318 = CARTESIAN_POINT('',(26.227104502667,-37.71619152958));
#319 = CARTESIAN_POINT('',(9.555504455501,-37.66567047899));
#320 = CARTESIAN_POINT('',(-7.116095593621,-37.61514977643));
#321 = CARTESIAN_POINT('',(-26.91609559871,-37.55514918616));
#322 = CARTESIAN_POINT('',(-30.04449555322,-37.54566910048));
#323 = CARTESIAN_POINT('',(-33.17289550778,-37.53618902155));
#324 = CARTESIAN_POINT('',(-36.30129546237,-37.52670894875));
#325 = CARTESIAN_POINT('',(-39.429695417,-37.51722888159));
#326 = ( GEOMETRIC_REPRESENTATION_CONTEXT(2) 
PARAMETRIC_REPRESENTATION_CONTEXT() REPRESENTATION_CONTEXT('2D SPACE',''
  ) );
#327 = PCURVE('',#199,#328);
#328 = DEFINITIONAL_REPRESENTATION('',(#329),#340);
#329 = B_SPLINE_CURVE_WITH_KNOTS('',5,(#330,#331,#332,#333,#334,#335,
    #336,#337,#338,#339),.UNSPECIFIED.,.F.,.F.,(6,4,6),(0.,
    0.842000002341,1.),.UNSPECIFIED.);
#330 = CARTESIAN_POINT('',(4.705840306591,0.));
#331 = CARTESIAN_POINT('',(4.706421881993,0.168400000366));
#332 = CARTESIAN_POINT('',(4.706874680023,0.336800000811));
#333 = CARTESIAN_POINT('',(4.707253622333,0.505200001288));
#334 = CARTESIAN_POINT('',(4.707575128213,0.673600001784));
#335 = CARTESIAN_POINT('',(4.707906365778,0.873600001835));
#336 = CARTESIAN_POINT('',(4.707957191511,0.905200001376));
#337 = CARTESIAN_POINT('',(4.708006594054,0.936800000917));
#338 = CARTESIAN_POINT('',(4.708054651287,0.968400000458));
#339 = CARTESIAN_POINT('',(4.708101432352,1.));
#340 = ( GEOMETRIC_REPRESENTATION_CONTEXT(2) 
PARAMETRIC_REPRESENTATION_CONTEXT() REPRESENTATION_CONTEXT('2D SPACE',''
  ) );
#341 = ORIENTED_EDGE('',*,*,#342,.F.);
#342 = EDGE_CURVE('',#343,#299,#345,.T.);
#343 = VERTEX_POINT('',#344);
#344 = CARTESIAN_POINT('',(-37.49999310636,3.215651064169E-03,108.5));
#345 = SURFACE_CURVE('',#346,(#350,#356),.PCURVE_S1.);
#346 = LINE('',#347,#348);
#347 = CARTESIAN_POINT('',(-37.49999310636,3.215651064169E-03,99.));
#348 = VECTOR('',#349,1.);
#349 = DIRECTION('',(0.,-0.,-1.));
#350 = PCURVE('',#125,#351);
#351 = DEFINITIONAL_REPRESENTATION('',(#352),#355);
#352 = B_SPLINE_CURVE_WITH_KNOTS('',1,(#353,#354),.UNSPECIFIED.,.F.,.F.,
  (2,2),(-9.5000006,6.000000070117E-07),.PIECEWISE_BEZIER_KNOTS.);
#353 = CARTESIAN_POINT('',(-48.929696017,-37.51722893689));
#354 = CARTESIAN_POINT('',(-39.429694817,-37.51722893689));
#355 = ( GEOMETRIC_REPRESENTATION_CONTEXT(2) 
PARAMETRIC_REPRESENTATION_CONTEXT() REPRESENTATION_CONTEXT('2D SPACE',''
  ) );
#356 = PCURVE('',#357,#362);
#357 = CYLINDRICAL_SURFACE('',#358,0.75);
#358 = AXIS2_PLACEMENT_3D('',#359,#360,#361);
#359 = CARTESIAN_POINT('',(-36.75,0.,99.));
#360 = DIRECTION('',(0.,-0.,-1.));
#361 = DIRECTION('',(0.,-1.,0.));
#362 = DEFINITIONAL_REPRESENTATION('',(#363),#366);
#363 = B_SPLINE_CURVE_WITH_KNOTS('',1,(#364,#365),.UNSPECIFIED.,.F.,.F.,
  (2,2),(-9.5000006,6.000000070117E-07),.PIECEWISE_BEZIER_KNOTS.);
#364 = CARTESIAN_POINT('',(1.575083874683,-9.5000006));
#365 = CARTESIAN_POINT('',(1.575083874683,6.000000070117E-07));
#366 = ( GEOMETRIC_REPRESENTATION_CONTEXT(2) 
PARAMETRIC_REPRESENTATION_CONTEXT() REPRESENTATION_CONTEXT('2D SPACE',''
  ) );
#367 = ORIENTED_EDGE('',*,*,#368,.T.);
#368 = EDGE_CURVE('',#343,#369,#371,.T.);
#369 = VERTEX_POINT('',#370);
#370 = CARTESIAN_POINT('',(-37.99999586382,3.215651064169E-03,109.));
#371 = SURFACE_CURVE('',#372,(#377,#384),.PCURVE_S1.);
#372 = HYPERBOLA('',#373,3.215651064169E-03,3.215651064169E-03);
#373 = AXIS2_PLACEMENT_3D('',#374,#375,#376);
#374 = CARTESIAN_POINT('',(-36.75,3.215651064169E-03,107.75));
#375 = DIRECTION('',(-0.,-1.,0.));
#376 = DIRECTION('',(-0.,0.,1.));
#377 = PCURVE('',#125,#378);
#378 = DEFINITIONAL_REPRESENTATION('',(#379),#383);
#379 = ( BOUNDED_CURVE() B_SPLINE_CURVE(2,(#380,#381,#382),
.UNSPECIFIED.,.F.,.F.) B_SPLINE_CURVE_WITH_KNOTS((3,3),(6.145185945837,
6.656014510904),.PIECEWISE_BEZIER_KNOTS.) CURVE() 
GEOMETRIC_REPRESENTATION_ITEM() RATIONAL_B_SPLINE_CURVE((1.,
1.03279593871,1.)) REPRESENTATION_ITEM('') );
#380 = CARTESIAN_POINT('',(-48.929695417,-37.51722893689));
#381 = CARTESIAN_POINT('',(-49.11719472763,-37.70472997094));
#382 = CARTESIAN_POINT('',(-49.429695417,-38.01723169436));
#383 = ( GEOMETRIC_REPRESENTATION_CONTEXT(2) 
PARAMETRIC_REPRESENTATION_CONTEXT() REPRESENTATION_CONTEXT('2D SPACE',''
  ) );
#384 = PCURVE('',#385,#390);
#385 = CONICAL_SURFACE('',#386,0.75,0.785398163397);
#386 = AXIS2_PLACEMENT_3D('',#387,#388,#389);
#387 = CARTESIAN_POINT('',(-36.75,0.,108.5));
#388 = DIRECTION('',(-0.,0.,1.));
#389 = DIRECTION('',(0.,-1.,0.));
#390 = DEFINITIONAL_REPRESENTATION('',(#391),#398);
#391 = B_SPLINE_CURVE_WITH_KNOTS('',5,(#392,#393,#394,#395,#396,#397),
  .UNSPECIFIED.,.F.,.F.,(6,6),(6.145185945837,6.656014510904),
  .PIECEWISE_BEZIER_KNOTS.);
#392 = CARTESIAN_POINT('',(-1.575083874683,1.7763568394E-15));
#393 = CARTESIAN_POINT('',(-1.574645835638,7.662358046634E-02));
#394 = CARTESIAN_POINT('',(-1.574263734942,0.163032119383));
#395 = CARTESIAN_POINT('',(-1.573928059907,0.260895136508));
#396 = CARTESIAN_POINT('',(-1.573631673911,0.372293281308));
#397 = CARTESIAN_POINT('',(-1.573368850484,0.5));
#398 = ( GEOMETRIC_REPRESENTATION_CONTEXT(2) 
PARAMETRIC_REPRESENTATION_CONTEXT() REPRESENTATION_CONTEXT('2D SPACE',''
  ) );
#399 = ORIENTED_EDGE('',*,*,#400,.F.);
#400 = EDGE_CURVE('',#401,#369,#403,.T.);
#401 = VERTEX_POINT('',#402);
#402 = CARTESIAN_POINT('',(-39.74999986993,3.215651064183E-03,109.));
#403 = SURFACE_CURVE('',#404,(#408,#414),.PCURVE_S1.);
#404 = LINE('',#405,#406);
#405 = CARTESIAN_POINT('',(8.617915267223E-03,3.215651064169E-03,109.));
#406 = VECTOR('',#407,1.);
#407 = DIRECTION('',(1.,0.,0.));
#408 = PCURVE('',#125,#409);
#409 = DEFINITIONAL_REPRESENTATION('',(#410),#413);
#410 = B_SPLINE_CURVE_WITH_KNOTS('',1,(#411,#412),.UNSPECIFIED.,.F.,.F.,
  (2,2),(-39.75861791526,39.741382084733),.PIECEWISE_BEZIER_KNOTS.);
#411 = CARTESIAN_POINT('',(-49.429695417,-39.76723583053));
#412 = CARTESIAN_POINT('',(-49.429695417,39.732764169466));
#413 = ( GEOMETRIC_REPRESENTATION_CONTEXT(2) 
PARAMETRIC_REPRESENTATION_CONTEXT() REPRESENTATION_CONTEXT('2D SPACE',''
  ) );
#414 = PCURVE('',#415,#420);
#415 = PLANE('',#416);
#416 = AXIS2_PLACEMENT_3D('',#417,#418,#419);
#417 = CARTESIAN_POINT('',(-4.403329231825E-15,5.790076070423E-16,109.)
  );
#418 = DIRECTION('',(0.,0.,1.));
#419 = DIRECTION('',(1.,0.,-0.));
#420 = DEFINITIONAL_REPRESENTATION('',(#421),#424);
#421 = B_SPLINE_CURVE_WITH_KNOTS('',1,(#422,#423),.UNSPECIFIED.,.F.,.F.,
  (2,2),(-39.75861791526,39.741382084733),.PIECEWISE_BEZIER_KNOTS.);
#422 = CARTESIAN_POINT('',(-39.75,3.215651064168E-03));
#423 = CARTESIAN_POINT('',(39.75,3.215651064168E-03));
#424 = ( GEOMETRIC_REPRESENTATION_CONTEXT(2) 
PARAMETRIC_REPRESENTATION_CONTEXT() REPRESENTATION_CONTEXT('2D SPACE',''
  ) );
#425 = ORIENTED_EDGE('',*,*,#426,.T.);
#426 = EDGE_CURVE('',#401,#427,#429,.T.);
#427 = VERTEX_POINT('',#428);
#428 = CARTESIAN_POINT('',(-39.74999986993,3.215651064183E-03,80.7));
#429 = SURFACE_CURVE('',#430,(#434,#440),.PCURVE_S1.);
#430 = LINE('',#431,#432);
#431 = CARTESIAN_POINT('',(-39.74999986993,3.215651064169E-03,80.7));
#432 = VECTOR('',#433,1.);
#433 = DIRECTION('',(-0.,-0.,-1.));
#434 = PCURVE('',#125,#435);
#435 = DEFINITIONAL_REPRESENTATION('',(#436),#439);
#436 = B_SPLINE_CURVE_WITH_KNOTS('',1,(#437,#438),.UNSPECIFIED.,.F.,.F.,
  (2,2),(-28.3000006,6.000000070117E-07),.PIECEWISE_BEZIER_KNOTS.);
#437 = CARTESIAN_POINT('',(-49.429696017,-39.76723570046));
#438 = CARTESIAN_POINT('',(-21.129694817,-39.76723570046));
#439 = ( GEOMETRIC_REPRESENTATION_CONTEXT(2) 
PARAMETRIC_REPRESENTATION_CONTEXT() REPRESENTATION_CONTEXT('2D SPACE',''
  ) );
#440 = PCURVE('',#441,#446);
#441 = CYLINDRICAL_SURFACE('',#442,39.75);
#442 = AXIS2_PLACEMENT_3D('',#443,#444,#445);
#443 = CARTESIAN_POINT('',(0.,0.,80.7));
#444 = DIRECTION('',(-0.,-0.,-1.));
#445 = DIRECTION('',(1.,0.,0.));
#446 = DEFINITIONAL_REPRESENTATION('',(#447),#450);
#447 = B_SPLINE_CURVE_WITH_KNOTS('',1,(#448,#449),.UNSPECIFIED.,.F.,.F.,
  (2,2),(-28.3000006,6.000000070117E-07),.PIECEWISE_BEZIER_KNOTS.);
#448 = CARTESIAN_POINT('',(-3.141511756708,-28.3000006));
#449 = CARTESIAN_POINT('',(-3.141511756708,6.000000070117E-07));
#450 = ( GEOMETRIC_REPRESENTATION_CONTEXT(2) 
PARAMETRIC_REPRESENTATION_CONTEXT() REPRESENTATION_CONTEXT('2D SPACE',''
  ) );
#451 = ORIENTED_EDGE('',*,*,#452,.F.);
#452 = EDGE_CURVE('',#453,#427,#455,.T.);
#453 = VERTEX_POINT('',#454);
#454 = CARTESIAN_POINT('',(-44.74999988446,3.215651064184E-03,80.7));
#455 = SURFACE_CURVE('',#456,(#460,#466),.PCURVE_S1.);
#456 = LINE('',#457,#458);
#457 = CARTESIAN_POINT('',(8.617915267224E-03,3.215651064169E-03,80.7));
#458 = VECTOR('',#459,1.);
#459 = DIRECTION('',(1.,0.,0.));
#460 = PCURVE('',#125,#461);
#461 = DEFINITIONAL_REPRESENTATION('',(#462),#465);
#462 = B_SPLINE_CURVE_WITH_KNOTS('',1,(#463,#464),.UNSPECIFIED.,.F.,.F.,
  (2,2),(-44.75861791526,44.741382084733),.PIECEWISE_BEZIER_KNOTS.);
#463 = CARTESIAN_POINT('',(-21.129695417,-44.76723583053));
#464 = CARTESIAN_POINT('',(-21.129695417,44.732764169466));
#465 = ( GEOMETRIC_REPRESENTATION_CONTEXT(2) 
PARAMETRIC_REPRESENTATION_CONTEXT() REPRESENTATION_CONTEXT('2D SPACE',''
  ) );
#466 = PCURVE('',#467,#472);
#467 = PLANE('',#468);
#468 = AXIS2_PLACEMENT_3D('',#469,#470,#471);
#469 = CARTESIAN_POINT('',(-2.933502854163E-15,4.040240899597E-15,80.7)
  );
#470 = DIRECTION('',(0.,0.,1.));
#471 = DIRECTION('',(1.,0.,-0.));
#472 = DEFINITIONAL_REPRESENTATION('',(#473),#476);
#473 = B_SPLINE_CURVE_WITH_KNOTS('',1,(#474,#475),.UNSPECIFIED.,.F.,.F.,
  (2,2),(-44.75861791526,44.741382084733),.PIECEWISE_BEZIER_KNOTS.);
#474 = CARTESIAN_POINT('',(-44.75,3.215651064165E-03));
#475 = CARTESIAN_POINT('',(44.75,3.215651064165E-03));
#476 = ( GEOMETRIC_REPRESENTATION_CONTEXT(2) 
PARAMETRIC_REPRESENTATION_CONTEXT() REPRESENTATION_CONTEXT('2D SPACE',''
  ) );
#477 = ORIENTED_EDGE('',*,*,#478,.T.);
#478 = EDGE_CURVE('',#453,#276,#479,.T.);
#479 = SURFACE_CURVE('',#480,(#484,#490),.PCURVE_S1.);
#480 = LINE('',#481,#482);
#481 = CARTESIAN_POINT('',(-44.74999988446,3.215651064169E-03,69.9));
#482 = VECTOR('',#483,1.);
#483 = DIRECTION('',(-0.,-0.,-1.));
#484 = PCURVE('',#125,#485);
#485 = DEFINITIONAL_REPRESENTATION('',(#486),#489);
#486 = B_SPLINE_CURVE_WITH_KNOTS('',1,(#487,#488),.UNSPECIFIED.,.F.,.F.,
  (2,2),(-10.8000006,6.000000070117E-07),.PIECEWISE_BEZIER_KNOTS.);
#487 = CARTESIAN_POINT('',(-21.129696017,-44.76723571499));
#488 = CARTESIAN_POINT('',(-10.329694817,-44.76723571499));
#489 = ( GEOMETRIC_REPRESENTATION_CONTEXT(2) 
PARAMETRIC_REPRESENTATION_CONTEXT() REPRESENTATION_CONTEXT('2D SPACE',''
  ) );
#490 = PCURVE('',#491,#496);
#491 = CYLINDRICAL_SURFACE('',#492,44.75);
#492 = AXIS2_PLACEMENT_3D('',#493,#494,#495);
#493 = CARTESIAN_POINT('',(0.,0.,69.9));
#494 = DIRECTION('',(-0.,-0.,-1.));
#495 = DIRECTION('',(1.,0.,0.));
#496 = DEFINITIONAL_REPRESENTATION('',(#497),#500);
#497 = B_SPLINE_CURVE_WITH_KNOTS('',1,(#498,#499),.UNSPECIFIED.,.F.,.F.,
  (2,2),(-10.8000006,6.000000070117E-07),.PIECEWISE_BEZIER_KNOTS.);
#498 = CARTESIAN_POINT('',(-3.141520795465,-10.8000006));
#499 = CARTESIAN_POINT('',(-3.141520795465,6.000000070117E-07));
#500 = ( GEOMETRIC_REPRESENTATION_CONTEXT(2) 
PARAMETRIC_REPRESENTATION_CONTEXT() REPRESENTATION_CONTEXT('2D SPACE',''
  ) );
#501 = ADVANCED_FACE('',(#502),#100,.T.);
#502 = FACE_BOUND('',#503,.T.);
#503 = EDGE_LOOP('',(#504,#525,#526,#527));
#504 = ORIENTED_EDGE('',*,*,#505,.T.);
#505 = EDGE_CURVE('',#506,#58,#508,.T.);
#506 = VERTEX_POINT('',#507);
#507 = CARTESIAN_POINT('',(44.749999884465,3.215651064169E-03,69.9));
#508 = SURFACE_CURVE('',#509,(#513,#519),.PCURVE_S1.);
#509 = LINE('',#510,#511);
#510 = CARTESIAN_POINT('',(8.617915267224E-03,3.215651064169E-03,69.9));
#511 = VECTOR('',#512,1.);
#512 = DIRECTION('',(1.,0.,0.));
#513 = PCURVE('',#100,#514);
#514 = DEFINITIONAL_REPRESENTATION('',(#515),#518);
#515 = B_SPLINE_CURVE_WITH_KNOTS('',1,(#516,#517),.UNSPECIFIED.,.F.,.F.,
  (2,2),(-46.50861791526,46.491382084733),.PIECEWISE_BEZIER_KNOTS.);
#516 = CARTESIAN_POINT('',(-46.5,3.215651064169E-03));
#517 = CARTESIAN_POINT('',(46.5,3.215651064169E-03));
#518 = ( GEOMETRIC_REPRESENTATION_CONTEXT(2) 
PARAMETRIC_REPRESENTATION_CONTEXT() REPRESENTATION_CONTEXT('2D SPACE',''
  ) );
#519 = PCURVE('',#72,#520);
#520 = DEFINITIONAL_REPRESENTATION('',(#521),#524);
#521 = B_SPLINE_CURVE_WITH_KNOTS('',1,(#522,#523),.UNSPECIFIED.,.F.,.F.,
  (2,2),(-46.50861791526,46.491382084733),.PIECEWISE_BEZIER_KNOTS.);
#522 = CARTESIAN_POINT('',(-10.329695417,-46.51723583053));
#523 = CARTESIAN_POINT('',(-10.329695417,46.482764169466));
#524 = ( GEOMETRIC_REPRESENTATION_CONTEXT(2) 
PARAMETRIC_REPRESENTATION_CONTEXT() REPRESENTATION_CONTEXT('2D SPACE',''
  ) );
#525 = ORIENTED_EDGE('',*,*,#83,.T.);
#526 = ORIENTED_EDGE('',*,*,#275,.T.);
#527 = ORIENTED_EDGE('',*,*,#528,.F.);
#528 = EDGE_CURVE('',#506,#276,#529,.T.);
#529 = SURFACE_CURVE('',#530,(#535,#542),.PCURVE_S1.);
#530 = CIRCLE('',#531,44.75);
#531 = AXIS2_PLACEMENT_3D('',#532,#533,#534);
#532 = CARTESIAN_POINT('',(0.,0.,69.9));
#533 = DIRECTION('',(0.,0.,1.));
#534 = DIRECTION('',(1.,0.,0.));
#535 = PCURVE('',#100,#536);
#536 = DEFINITIONAL_REPRESENTATION('',(#537),#541);
#537 = CIRCLE('',#538,44.75);
#538 = AXIS2_PLACEMENT_2D('',#539,#540);
#539 = CARTESIAN_POINT('',(1.882068139409E-15,1.61343992693E-17));
#540 = DIRECTION('',(1.,0.));
#541 = ( GEOMETRIC_REPRESENTATION_CONTEXT(2) 
PARAMETRIC_REPRESENTATION_CONTEXT() REPRESENTATION_CONTEXT('2D SPACE',''
  ) );
#542 = PCURVE('',#491,#543);
#543 = DEFINITIONAL_REPRESENTATION('',(#544),#548);
#544 = LINE('',#545,#546);
#545 = CARTESIAN_POINT('',(-0.,0.));
#546 = VECTOR('',#547,1.);
#547 = DIRECTION('',(-1.,0.));
#548 = ( GEOMETRIC_REPRESENTATION_CONTEXT(2) 
PARAMETRIC_REPRESENTATION_CONTEXT() REPRESENTATION_CONTEXT('2D SPACE',''
  ) );
#549 = ADVANCED_FACE('',(#550),#72,.T.);
#550 = FACE_BOUND('',#551,.T.);
#551 = EDGE_LOOP('',(#552,#553,#554,#575,#596,#617,#638,#670,#696,#845,
    #872));
#552 = ORIENTED_EDGE('',*,*,#57,.F.);
#553 = ORIENTED_EDGE('',*,*,#505,.F.);
#554 = ORIENTED_EDGE('',*,*,#555,.F.);
#555 = EDGE_CURVE('',#556,#506,#558,.T.);
#556 = VERTEX_POINT('',#557);
#557 = CARTESIAN_POINT('',(44.749999884465,3.215651064169E-03,80.7));
#558 = SURFACE_CURVE('',#559,(#563,#569),.PCURVE_S1.);
#559 = LINE('',#560,#561);
#560 = CARTESIAN_POINT('',(44.749999884465,3.215651064169E-03,69.9));
#561 = VECTOR('',#562,1.);
#562 = DIRECTION('',(-0.,-0.,-1.));
#563 = PCURVE('',#72,#564);
#564 = DEFINITIONAL_REPRESENTATION('',(#565),#568);
#565 = B_SPLINE_CURVE_WITH_KNOTS('',1,(#566,#567),.UNSPECIFIED.,.F.,.F.,
  (2,2),(-10.8000006,6.000000070117E-07),.PIECEWISE_BEZIER_KNOTS.);
#566 = CARTESIAN_POINT('',(-21.129696017,44.73276405393));
#567 = CARTESIAN_POINT('',(-10.329694817,44.73276405393));
#568 = ( GEOMETRIC_REPRESENTATION_CONTEXT(2) 
PARAMETRIC_REPRESENTATION_CONTEXT() REPRESENTATION_CONTEXT('2D SPACE',''
  ) );
#569 = PCURVE('',#491,#570);
#570 = DEFINITIONAL_REPRESENTATION('',(#571),#574);
#571 = B_SPLINE_CURVE_WITH_KNOTS('',1,(#572,#573),.UNSPECIFIED.,.F.,.F.,
  (2,2),(-10.8000006,6.000000070117E-07),.PIECEWISE_BEZIER_KNOTS.);
#572 = CARTESIAN_POINT('',(-7.185812440081E-05,-10.8000006));
#573 = CARTESIAN_POINT('',(-7.185812440081E-05,6.000000070117E-07));
#574 = ( GEOMETRIC_REPRESENTATION_CONTEXT(2) 
PARAMETRIC_REPRESENTATION_CONTEXT() REPRESENTATION_CONTEXT('2D SPACE',''
  ) );
#575 = ORIENTED_EDGE('',*,*,#576,.F.);
#576 = EDGE_CURVE('',#577,#556,#579,.T.);
#577 = VERTEX_POINT('',#578);
#578 = CARTESIAN_POINT('',(39.749999869932,3.215651064169E-03,80.7));
#579 = SURFACE_CURVE('',#580,(#584,#590),.PCURVE_S1.);
#580 = LINE('',#581,#582);
#581 = CARTESIAN_POINT('',(8.617915267224E-03,3.215651064169E-03,80.7));
#582 = VECTOR('',#583,1.);
#583 = DIRECTION('',(1.,0.,0.));
#584 = PCURVE('',#72,#585);
#585 = DEFINITIONAL_REPRESENTATION('',(#586),#589);
#586 = B_SPLINE_CURVE_WITH_KNOTS('',1,(#587,#588),.UNSPECIFIED.,.F.,.F.,
  (2,2),(-44.75861791526,44.741382084733),.PIECEWISE_BEZIER_KNOTS.);
#587 = CARTESIAN_POINT('',(-21.129695417,-44.76723583053));
#588 = CARTESIAN_POINT('',(-21.129695417,44.732764169466));
#589 = ( GEOMETRIC_REPRESENTATION_CONTEXT(2) 
PARAMETRIC_REPRESENTATION_CONTEXT() REPRESENTATION_CONTEXT('2D SPACE',''
  ) );
#590 = PCURVE('',#467,#591);
#591 = DEFINITIONAL_REPRESENTATION('',(#592),#595);
#592 = B_SPLINE_CURVE_WITH_KNOTS('',1,(#593,#594),.UNSPECIFIED.,.F.,.F.,
  (2,2),(-44.75861791526,44.741382084733),.PIECEWISE_BEZIER_KNOTS.);
#593 = CARTESIAN_POINT('',(-44.75,3.215651064165E-03));
#594 = CARTESIAN_POINT('',(44.75,3.215651064165E-03));
#595 = ( GEOMETRIC_REPRESENTATION_CONTEXT(2) 
PARAMETRIC_REPRESENTATION_CONTEXT() REPRESENTATION_CONTEXT('2D SPACE',''
  ) );
#596 = ORIENTED_EDGE('',*,*,#597,.F.);
#597 = EDGE_CURVE('',#598,#577,#600,.T.);
#598 = VERTEX_POINT('',#599);
#599 = CARTESIAN_POINT('',(39.749999869932,3.215651064169E-03,109.));
#600 = SURFACE_CURVE('',#601,(#605,#611),.PCURVE_S1.);
#601 = LINE('',#602,#603);
#602 = CARTESIAN_POINT('',(39.749999869932,3.215651064169E-03,80.7));
#603 = VECTOR('',#604,1.);
#604 = DIRECTION('',(-0.,-0.,-1.));
#605 = PCURVE('',#72,#606);
#606 = DEFINITIONAL_REPRESENTATION('',(#607),#610);
#607 = B_SPLINE_CURVE_WITH_KNOTS('',1,(#608,#609),.UNSPECIFIED.,.F.,.F.,
  (2,2),(-28.3000006,6.000000070117E-07),.PIECEWISE_BEZIER_KNOTS.);
#608 = CARTESIAN_POINT('',(-49.429696017,39.732764039397));
#609 = CARTESIAN_POINT('',(-21.129694817,39.732764039397));
#610 = ( GEOMETRIC_REPRESENTATION_CONTEXT(2) 
PARAMETRIC_REPRESENTATION_CONTEXT() REPRESENTATION_CONTEXT('2D SPACE',''
  ) );
#611 = PCURVE('',#441,#612);
#612 = DEFINITIONAL_REPRESENTATION('',(#613),#616);
#613 = B_SPLINE_CURVE_WITH_KNOTS('',1,(#614,#615),.UNSPECIFIED.,.F.,.F.,
  (2,2),(-28.3000006,6.000000070117E-07),.PIECEWISE_BEZIER_KNOTS.);
#614 = CARTESIAN_POINT('',(-8.08968822057E-05,-28.3000006));
#615 = CARTESIAN_POINT('',(-8.08968822057E-05,6.000000070117E-07));
#616 = ( GEOMETRIC_REPRESENTATION_CONTEXT(2) 
PARAMETRIC_REPRESENTATION_CONTEXT() REPRESENTATION_CONTEXT('2D SPACE',''
  ) );
#617 = ORIENTED_EDGE('',*,*,#618,.F.);
#618 = EDGE_CURVE('',#619,#598,#621,.T.);
#619 = VERTEX_POINT('',#620);
#620 = CARTESIAN_POINT('',(37.999995863828,3.215651064169E-03,109.));
#621 = SURFACE_CURVE('',#622,(#626,#632),.PCURVE_S1.);
#622 = LINE('',#623,#624);
#623 = CARTESIAN_POINT('',(8.617915267223E-03,3.215651064169E-03,109.));
#624 = VECTOR('',#625,1.);
#625 = DIRECTION('',(1.,0.,0.));
#626 = PCURVE('',#72,#627);
#627 = DEFINITIONAL_REPRESENTATION('',(#628),#631);
#628 = B_SPLINE_CURVE_WITH_KNOTS('',1,(#629,#630),.UNSPECIFIED.,.F.,.F.,
  (2,2),(-39.75861791526,39.741382084733),.PIECEWISE_BEZIER_KNOTS.);
#629 = CARTESIAN_POINT('',(-49.429695417,-39.76723583053));
#630 = CARTESIAN_POINT('',(-49.429695417,39.732764169466));
#631 = ( GEOMETRIC_REPRESENTATION_CONTEXT(2) 
PARAMETRIC_REPRESENTATION_CONTEXT() REPRESENTATION_CONTEXT('2D SPACE',''
  ) );
#632 = PCURVE('',#415,#633);
#633 = DEFINITIONAL_REPRESENTATION('',(#634),#637);
#634 = B_SPLINE_CURVE_WITH_KNOTS('',1,(#635,#636),.UNSPECIFIED.,.F.,.F.,
  (2,2),(-39.75861791526,39.741382084733),.PIECEWISE_BEZIER_KNOTS.);
#635 = CARTESIAN_POINT('',(-39.75,3.215651064168E-03));
#636 = CARTESIAN_POINT('',(39.75,3.215651064168E-03));
#637 = ( GEOMETRIC_REPRESENTATION_CONTEXT(2) 
PARAMETRIC_REPRESENTATION_CONTEXT() REPRESENTATION_CONTEXT('2D SPACE',''
  ) );
#638 = ORIENTED_EDGE('',*,*,#639,.T.);
#639 = EDGE_CURVE('',#619,#640,#642,.T.);
#640 = VERTEX_POINT('',#641);
#641 = CARTESIAN_POINT('',(37.49999310636,3.215651064169E-03,108.5));
#642 = SURFACE_CURVE('',#643,(#648,#655),.PCURVE_S1.);
#643 = HYPERBOLA('',#644,3.215651064169E-03,3.215651064169E-03);
#644 = AXIS2_PLACEMENT_3D('',#645,#646,#647);
#645 = CARTESIAN_POINT('',(36.75,3.215651064169E-03,107.75));
#646 = DIRECTION('',(-0.,-1.,0.));
#647 = DIRECTION('',(0.,-0.,1.));
#648 = PCURVE('',#72,#649);
#649 = DEFINITIONAL_REPRESENTATION('',(#650),#654);
#650 = ( BOUNDED_CURVE() B_SPLINE_CURVE(2,(#651,#652,#653),
.UNSPECIFIED.,.F.,.F.) B_SPLINE_CURVE_WITH_KNOTS((3,3),(-6.656014510904,
-6.145185945837),.PIECEWISE_BEZIER_KNOTS.) CURVE() 
GEOMETRIC_REPRESENTATION_ITEM() RATIONAL_B_SPLINE_CURVE((1.,
1.03279593871,1.)) REPRESENTATION_ITEM('') );
#651 = CARTESIAN_POINT('',(-49.429695417,37.982760033294));
#652 = CARTESIAN_POINT('',(-49.11719472763,37.670258309877));
#653 = CARTESIAN_POINT('',(-48.929695417,37.482757275826));
#654 = ( GEOMETRIC_REPRESENTATION_CONTEXT(2) 
PARAMETRIC_REPRESENTATION_CONTEXT() REPRESENTATION_CONTEXT('2D SPACE',''
  ) );
#655 = PCURVE('',#656,#661);
#656 = CONICAL_SURFACE('',#657,0.75,0.785398163397);
#657 = AXIS2_PLACEMENT_3D('',#658,#659,#660);
#658 = CARTESIAN_POINT('',(36.75,0.,108.5));
#659 = DIRECTION('',(-0.,-0.,1.));
#660 = DIRECTION('',(0.,1.,0.));
#661 = DEFINITIONAL_REPRESENTATION('',(#662),#669);
#662 = B_SPLINE_CURVE_WITH_KNOTS('',5,(#663,#664,#665,#666,#667,#668),
  .UNSPECIFIED.,.F.,.F.,(6,6),(-6.656014510904,-6.145185945837),
  .PIECEWISE_BEZIER_KNOTS.);
#663 = CARTESIAN_POINT('',(-1.568223803106,0.5));
#664 = CARTESIAN_POINT('',(-1.567960979679,0.372293281308));
#665 = CARTESIAN_POINT('',(-1.567664593682,0.260895136508));
#666 = CARTESIAN_POINT('',(-1.567328918647,0.163032119383));
#667 = CARTESIAN_POINT('',(-1.566946817951,7.662358046634E-02));
#668 = CARTESIAN_POINT('',(-1.566508778906,1.7763568394E-15));
#669 = ( GEOMETRIC_REPRESENTATION_CONTEXT(2) 
PARAMETRIC_REPRESENTATION_CONTEXT() REPRESENTATION_CONTEXT('2D SPACE',''
  ) );
#670 = ORIENTED_EDGE('',*,*,#671,.T.);
#671 = EDGE_CURVE('',#640,#672,#674,.T.);
#672 = VERTEX_POINT('',#673);
#673 = CARTESIAN_POINT('',(37.49999310636,3.215651064169E-03,99.));
#674 = SURFACE_CURVE('',#675,(#679,#685),.PCURVE_S1.);
#675 = LINE('',#676,#677);
#676 = CARTESIAN_POINT('',(37.49999310636,3.215651064169E-03,99.));
#677 = VECTOR('',#678,1.);
#678 = DIRECTION('',(0.,0.,-1.));
#679 = PCURVE('',#72,#680);
#680 = DEFINITIONAL_REPRESENTATION('',(#681),#684);
#681 = B_SPLINE_CURVE_WITH_KNOTS('',1,(#682,#683),.UNSPECIFIED.,.F.,.F.,
  (2,2),(-9.5000006,6.000000070117E-07),.PIECEWISE_BEZIER_KNOTS.);
#682 = CARTESIAN_POINT('',(-48.929696017,37.482757275826));
#683 = CARTESIAN_POINT('',(-39.429694817,37.482757275826));
#684 = ( GEOMETRIC_REPRESENTATION_CONTEXT(2) 
PARAMETRIC_REPRESENTATION_CONTEXT() REPRESENTATION_CONTEXT('2D SPACE',''
  ) );
#685 = PCURVE('',#686,#691);
#686 = CYLINDRICAL_SURFACE('',#687,0.75);
#687 = AXIS2_PLACEMENT_3D('',#688,#689,#690);
#688 = CARTESIAN_POINT('',(36.75,0.,99.));
#689 = DIRECTION('',(0.,0.,-1.));
#690 = DIRECTION('',(0.,1.,0.));
#691 = DEFINITIONAL_REPRESENTATION('',(#692),#695);
#692 = B_SPLINE_CURVE_WITH_KNOTS('',1,(#693,#694),.UNSPECIFIED.,.F.,.F.,
  (2,2),(-9.5000006,6.000000070117E-07),.PIECEWISE_BEZIER_KNOTS.);
#693 = CARTESIAN_POINT('',(1.566508778906,-9.5000006));
#694 = CARTESIAN_POINT('',(1.566508778906,6.000000070117E-07));
#695 = ( GEOMETRIC_REPRESENTATION_CONTEXT(2) 
PARAMETRIC_REPRESENTATION_CONTEXT() REPRESENTATION_CONTEXT('2D SPACE',''
  ) );
#696 = ORIENTED_EDGE('',*,*,#697,.F.);
#697 = EDGE_CURVE('',#698,#672,#700,.T.);
#698 = VERTEX_POINT('',#699);
#699 = CARTESIAN_POINT('',(37.79549808851,3.215651064169E-03,
    0.424465940471));
#700 = SURFACE_CURVE('',#701,(#740,#782),.PCURVE_S1.);
#701 = B_SPLINE_CURVE_WITH_KNOTS('',7,(#702,#703,#704,#705,#706,#707,
    #708,#709,#710,#711,#712,#713,#714,#715,#716,#717,#718,#719,#720,
    #721,#722,#723,#724,#725,#726,#727,#728,#729,#730,#731,#732,#733,
    #734,#735,#736,#737,#738,#739),.UNSPECIFIED.,.F.,.F.,(8,6,6,6,6,6,8)
  ,(0.,7.444457893322E-02,0.194737178131,0.376728889695,0.558632199441,
    0.969465938579,1.),.UNSPECIFIED.);
#702 = CARTESIAN_POINT('',(37.79549808851,3.215651064169E-03,
    0.424465940472));
#703 = CARTESIAN_POINT('',(37.784487678795,3.215651064169E-03,
    1.472436526121));
#704 = CARTESIAN_POINT('',(37.774079655472,3.215651064169E-03,
    2.520388913424));
#705 = CARTESIAN_POINT('',(37.764299506447,3.215651064169E-03,
    3.568326469891));
#706 = CARTESIAN_POINT('',(37.75516233108,3.215651064169E-03,
    4.616253937396));
#707 = CARTESIAN_POINT('',(37.746667755997,3.215651064169E-03,
    5.664176979381));
#708 = CARTESIAN_POINT('',(37.738799490643,3.215651064169E-03,
    6.712101595765));
#709 = CARTESIAN_POINT('',(37.719782215159,3.215651064169E-03,
    9.453352690673));
#710 = CARTESIAN_POINT('',(37.709596967784,3.215651064169E-03,
    11.146690676231));
#711 = CARTESIAN_POINT('',(37.700856448026,3.215651064169E-03,
    12.840070342546));
#712 = CARTESIAN_POINT('',(37.693359055565,3.215651064169E-03,
    14.533510450967));
#713 = CARTESIAN_POINT('',(37.686876375477,3.215651064169E-03,
    16.227018824199));
#714 = CARTESIAN_POINT('',(37.681213624166,3.215651064169E-03,
    17.92059586375));
#715 = CARTESIAN_POINT('',(37.66862395726,3.215651064169E-03,
    22.176560942312));
#716 = CARTESIAN_POINT('',(37.662538922623,3.215651064169E-03,
    24.739032933084));
#717 = CARTESIAN_POINT('',(37.657369855022,3.215651064169E-03,
    27.301640445644));
#718 = CARTESIAN_POINT('',(37.652712717304,3.215651064169E-03,
    29.864358786017));
#719 = CARTESIAN_POINT('',(37.648341300933,3.215651064169E-03,
    32.427165772377));
#720 = CARTESIAN_POINT('',(37.644093709297,3.215651064169E-03,
    34.990043015845));
#721 = CARTESIAN_POINT('',(37.635642987494,3.215651064169E-03,
    40.114665350437));
#722 = CARTESIAN_POINT('',(37.631439493486,3.215651064169E-03,
    42.676411111583));
#723 = CARTESIAN_POINT('',(37.627153280933,3.215651064169E-03,
    45.238201927529));
#724 = CARTESIAN_POINT('',(37.622730448874,3.215651064169E-03,
    47.800028149514));
#725 = CARTESIAN_POINT('',(37.618141283688,3.215651064169E-03,
    50.36188249142));
#726 = CARTESIAN_POINT('',(37.613366940457,3.215651064169E-03,
    52.923759893227));
#727 = CARTESIAN_POINT('',(37.597176408798,3.215651064169E-03,
    61.27177443464));
#728 = CARTESIAN_POINT('',(37.58496245611,3.215651064169E-03,
    67.057986809817));
#729 = CARTESIAN_POINT('',(37.571648670421,3.215651064169E-03,
    72.844258016996));
#730 = CARTESIAN_POINT('',(37.557321814297,3.215651064169E-03,
    78.630565931244));
#731 = CARTESIAN_POINT('',(37.542039490392,3.215651064169E-03,
    84.416896944487));
#732 = CARTESIAN_POINT('',(37.525881493148,3.215651064169E-03,
    90.203245076415));
#733 = CARTESIAN_POINT('',(37.507652529736,3.215651064169E-03,
    96.419666311501));
#734 = CARTESIAN_POINT('',(37.506386968305,3.215651064169E-03,
    96.849721746555));
#735 = CARTESIAN_POINT('',(37.505116962781,3.215651064169E-03,
    97.279777255952));
#736 = CARTESIAN_POINT('',(37.503842540857,3.215651064169E-03,
    97.709832837794));
#737 = CARTESIAN_POINT('',(37.502563730054,3.215651064169E-03,
    98.139888490251));
#738 = CARTESIAN_POINT('',(37.501280557727,3.215651064169E-03,
    98.569944211555));
#739 = CARTESIAN_POINT('',(37.499993051058,3.215651064169E-03,99.));
#740 = PCURVE('',#72,#741);
#741 = DEFINITIONAL_REPRESENTATION('',(#742),#781);
#742 = B_SPLINE_CURVE_WITH_KNOTS('',7,(#743,#744,#745,#746,#747,#748,
    #749,#750,#751,#752,#753,#754,#755,#756,#757,#758,#759,#760,#761,
    #762,#763,#764,#765,#766,#767,#768,#769,#770,#771,#772,#773,#774,
    #775,#776,#777,#778,#779,#780),.UNSPECIFIED.,.F.,.F.,(8,6,6,6,6,6,8)
  ,(0.,7.444457893322E-02,0.194737178131,0.376728889695,0.558632199441,
    0.969465938579,1.),.UNSPECIFIED.);
#743 = CARTESIAN_POINT('',(59.145838642523,37.778262257976));
#744 = CARTESIAN_POINT('',(58.097868056874,37.767251848261));
#745 = CARTESIAN_POINT('',(57.049915669571,37.756843824938));
#746 = CARTESIAN_POINT('',(56.001978113104,37.747063675913));
#747 = CARTESIAN_POINT('',(54.954050645599,37.737926500546));
#748 = CARTESIAN_POINT('',(53.906127603614,37.729431925462));
#749 = CARTESIAN_POINT('',(52.85820298723,37.721563660109));
#750 = CARTESIAN_POINT('',(50.116951892322,37.702546384625));
#751 = CARTESIAN_POINT('',(48.423613906764,37.692361137249));
#752 = CARTESIAN_POINT('',(46.730234240449,37.683620617492));
#753 = CARTESIAN_POINT('',(45.036794132027,37.676123225031));
#754 = CARTESIAN_POINT('',(43.343285758796,37.669640544942));
#755 = CARTESIAN_POINT('',(41.649708719245,37.663977793631));
#756 = CARTESIAN_POINT('',(37.393743640683,37.651388126725));
#757 = CARTESIAN_POINT('',(34.831271649911,37.645303092089));
#758 = CARTESIAN_POINT('',(32.268664137351,37.640134024487));
#759 = CARTESIAN_POINT('',(29.705945796978,37.635476886769));
#760 = CARTESIAN_POINT('',(27.143138810618,37.631105470398));
#761 = CARTESIAN_POINT('',(24.58026156715,37.626857878763));
#762 = CARTESIAN_POINT('',(19.455639232558,37.618407156959));
#763 = CARTESIAN_POINT('',(16.893893471412,37.614203662951));
#764 = CARTESIAN_POINT('',(14.332102655465,37.609917450399));
#765 = CARTESIAN_POINT('',(11.770276433481,37.60549461834));
#766 = CARTESIAN_POINT('',(9.208422091575,37.600905453153));
#767 = CARTESIAN_POINT('',(6.646544689768,37.596131109923));
#768 = CARTESIAN_POINT('',(-1.701469851645,37.579940578264));
#769 = CARTESIAN_POINT('',(-7.487682226822,37.567726625575));
#770 = CARTESIAN_POINT('',(-13.273953434,37.554412839886));
#771 = CARTESIAN_POINT('',(-19.06026134824,37.540085983762));
#772 = CARTESIAN_POINT('',(-24.84659236149,37.524803659857));
#773 = CARTESIAN_POINT('',(-30.63294049342,37.508645662614));
#774 = CARTESIAN_POINT('',(-36.8493617285,37.490416699201));
#775 = CARTESIAN_POINT('',(-37.27941716356,37.489151137771));
#776 = CARTESIAN_POINT('',(-37.70947267295,37.487881132247));
#777 = CARTESIAN_POINT('',(-38.1395282548,37.486606710322));
#778 = CARTESIAN_POINT('',(-38.56958390725,37.48532789952));
#779 = CARTESIAN_POINT('',(-38.99963962856,37.484044727192));
#780 = CARTESIAN_POINT('',(-39.429695417,37.482757220523));
#781 = ( GEOMETRIC_REPRESENTATION_CONTEXT(2) 
PARAMETRIC_REPRESENTATION_CONTEXT() REPRESENTATION_CONTEXT('2D SPACE',''
  ) );
#782 = PCURVE('',#783,#804);
#783 = B_SPLINE_SURFACE_WITH_KNOTS('',9,1,(
    (#784,#785)
    ,(#786,#787)
    ,(#788,#789)
    ,(#790,#791)
    ,(#792,#793)
    ,(#794,#795)
    ,(#796,#797)
    ,(#798,#799)
    ,(#800,#801)
    ,(#802,#803
    )),.UNSPECIFIED.,.F.,.F.,.F.,(10,10),(2,2),(3.14159265359,
    6.28318530718),(0.,1.),.PIECEWISE_BEZIER_KNOTS.);
#784 = CARTESIAN_POINT('',(37.792130737918,-0.771267974243,0.));
#785 = CARTESIAN_POINT('',(36.75,-0.75,99.));
#786 = CARTESIAN_POINT('',(37.793879402147,-0.685583427015,0.));
#787 = CARTESIAN_POINT('',(37.011799387799,-0.75,99.));
#788 = CARTESIAN_POINT('',(37.795409506102,-0.599894419434,0.));
#789 = CARTESIAN_POINT('',(37.273601492499,-0.647191900061,
    98.999999999999));
#790 = CARTESIAN_POINT('',(37.796721043281,-0.514201588687,0.));
#791 = CARTESIAN_POINT('',(37.48924283384,-0.44157278914,99.000000000004
    ));
#792 = CARTESIAN_POINT('',(37.797814007183,-0.428505571955,0.));
#793 = CARTESIAN_POINT('',(37.612680472816,-0.157317457926,
    98.999999999993));
#794 = CARTESIAN_POINT('',(37.798688391308,-0.342807006425,0.));
#795 = CARTESIAN_POINT('',(37.612680472822,0.157317457926,
    99.000000000007));
#796 = CARTESIAN_POINT('',(37.799344189153,-0.25710652928,0.));
#797 = CARTESIAN_POINT('',(37.489242833835,0.44157278914,98.999999999994
    ));
#798 = CARTESIAN_POINT('',(37.799781394217,-0.171404777705,0.));
#799 = CARTESIAN_POINT('',(37.2736014925,0.647191900061,99.000000000003)
  );
#800 = CARTESIAN_POINT('',(37.8,-8.570238888347E-02,0.));
#801 = CARTESIAN_POINT('',(37.011799387799,0.75,98.999999999999));
#802 = CARTESIAN_POINT('',(37.8,-9.27036225562E-15,0.));
#803 = CARTESIAN_POINT('',(36.75,0.75,99.));
#804 = DEFINITIONAL_REPRESENTATION('',(#805),#844);
#805 = B_SPLINE_CURVE_WITH_KNOTS('',7,(#806,#807,#808,#809,#810,#811,
    #812,#813,#814,#815,#816,#817,#818,#819,#820,#821,#822,#823,#824,
    #825,#826,#827,#828,#829,#830,#831,#832,#833,#834,#835,#836,#837,
    #838,#839,#840,#841,#842,#843),.UNSPECIFIED.,.F.,.F.,(8,6,6,6,6,6,8)
  ,(0.,7.444457893322E-02,0.194737178131,0.376728889695,0.558632199441,
    0.969465938579,1.),.UNSPECIFIED.);
#806 = CARTESIAN_POINT('',(6.28318530718,4.287534752238E-03));
#807 = CARTESIAN_POINT('',(6.250709821606,1.487309622344E-02));
#808 = CARTESIAN_POINT('',(6.217445618083,2.545847387297E-02));
#809 = CARTESIAN_POINT('',(6.183525991574,3.604370171607E-02));
#810 = CARTESIAN_POINT('',(6.149120277905,4.662882765047E-02));
#811 = CARTESIAN_POINT('',(6.114421679986,5.721390888264E-02));
#812 = CARTESIAN_POINT('',(6.079629672181,6.779900601783E-02));
#813 = CARTESIAN_POINT('',(5.988852023997,9.54884110169E-02));
#814 = CARTESIAN_POINT('',(5.933010807836,0.112592835113));
#815 = CARTESIAN_POINT('',(5.87817589031,0.129697680228));
#816 = CARTESIAN_POINT('',(5.82503078246,0.146803135868));
#817 = CARTESIAN_POINT('',(5.773951687044,0.163909281053));
#818 = CARTESIAN_POINT('',(5.725114284813,0.181016119836));
#819 = CARTESIAN_POINT('',(5.60814681126,0.224005666084));
#820 = CARTESIAN_POINT('',(5.542968829799,0.249889221546));
#821 = CARTESIAN_POINT('',(5.48320470482,0.275774145916));
#822 = CARTESIAN_POINT('',(5.428342440606,0.301660189758));
#823 = CARTESIAN_POINT('',(5.377849356257,0.327547129014));
#824 = CARTESIAN_POINT('',(5.331221911639,0.353434777938));
#825 = CARTESIAN_POINT('',(5.244831908879,0.405198639903));
#826 = CARTESIAN_POINT('',(5.205066330071,0.431074859713));
#827 = CARTESIAN_POINT('',(5.168274746935,0.456951534622));
#828 = CARTESIAN_POINT('',(5.134077428918,0.482828567167));
#829 = CARTESIAN_POINT('',(5.102160625326,0.508705883752));
#830 = CARTESIAN_POINT('',(5.072267500121,0.534583433265));
#831 = CARTESIAN_POINT('',(4.98074106444,0.618906812471));
#832 = CARTESIAN_POINT('',(4.926510430843,0.677353402119));
#833 = CARTESIAN_POINT('',(4.878979447734,0.73580058603));
#834 = CARTESIAN_POINT('',(4.836718624009,0.79424814072));
#835 = CARTESIAN_POINT('',(4.798712521819,0.852695928732));
#836 = CARTESIAN_POINT('',(4.764234579081,0.911143889661));
#837 = CARTESIAN_POINT('',(4.730388376002,0.973936023348));
#838 = CARTESIAN_POINT('',(4.728063301912,0.978280017642));
#839 = CARTESIAN_POINT('',(4.725754425156,0.982624012686));
#840 = CARTESIAN_POINT('',(4.723461523756,0.986968008463));
#841 = CARTESIAN_POINT('',(4.721184380835,0.991312004952));
#842 = CARTESIAN_POINT('',(4.718922784615,0.995656002137));
#843 = CARTESIAN_POINT('',(4.716676528418,1.));
#844 = ( GEOMETRIC_REPRESENTATION_CONTEXT(2) 
PARAMETRIC_REPRESENTATION_CONTEXT() REPRESENTATION_CONTEXT('2D SPACE',''
  ) );
#845 = ORIENTED_EDGE('',*,*,#846,.F.);
#846 = EDGE_CURVE('',#140,#698,#847,.T.);
#847 = SURFACE_CURVE('',#848,(#854,#863),.PCURVE_S1.);
#848 = B_SPLINE_CURVE_WITH_KNOTS('',4,(#849,#850,#851,#852,#853),
  .UNSPECIFIED.,.F.,.F.,(5,5),(0.,1.),.PIECEWISE_BEZIER_KNOTS.);
#849 = CARTESIAN_POINT('',(37.799999863222,3.215651064169E-03,0.));
#850 = CARTESIAN_POINT('',(37.798872306425,3.215651064169E-03,
    0.106116472814));
#851 = CARTESIAN_POINT('',(37.797746152333,3.215651064169E-03,
    0.212232953833));
#852 = CARTESIAN_POINT('',(37.796621409969,3.215651064169E-03,
    0.318349443055));
#853 = CARTESIAN_POINT('',(37.79549808851,3.215651064169E-03,
    0.424465940471));
#854 = PCURVE('',#72,#855);
#855 = DEFINITIONAL_REPRESENTATION('',(#856),#862);
#856 = B_SPLINE_CURVE_WITH_KNOTS('',4,(#857,#858,#859,#860,#861),
  .UNSPECIFIED.,.F.,.F.,(5,5),(0.,1.),.PIECEWISE_BEZIER_KNOTS.);
#857 = CARTESIAN_POINT('',(59.570304582995,37.782764032688));
#858 = CARTESIAN_POINT('',(59.464188110181,37.78163647589));
#859 = CARTESIAN_POINT('',(59.358071629162,37.780510321799));
#860 = CARTESIAN_POINT('',(59.25195513994,37.779385579434));
#861 = CARTESIAN_POINT('',(59.145838642524,37.778262257976));
#862 = ( GEOMETRIC_REPRESENTATION_CONTEXT(2) 
PARAMETRIC_REPRESENTATION_CONTEXT() REPRESENTATION_CONTEXT('2D SPACE',''
  ) );
#863 = PCURVE('',#241,#864);
#864 = DEFINITIONAL_REPRESENTATION('',(#865),#871);
#865 = B_SPLINE_CURVE_WITH_KNOTS('',4,(#866,#867,#868,#869,#870),
  .UNSPECIFIED.,.F.,.F.,(5,5),(0.,1.),.PIECEWISE_BEZIER_KNOTS.);
#866 = CARTESIAN_POINT('',(-73.49799670631,0.));
#867 = CARTESIAN_POINT('',(-73.49849538238,1.071883563781E-03));
#868 = CARTESIAN_POINT('',(-73.49899548388,2.143767210432E-03));
#869 = CARTESIAN_POINT('',(-73.49949701997,3.215650939946E-03));
#870 = CARTESIAN_POINT('',(-73.5,4.287534752235E-03));
#871 = ( GEOMETRIC_REPRESENTATION_CONTEXT(2) 
PARAMETRIC_REPRESENTATION_CONTEXT() REPRESENTATION_CONTEXT('2D SPACE',''
  ) );
#872 = ORIENTED_EDGE('',*,*,#139,.T.);
#873 = ADVANCED_FACE('',(#874),#241,.F.);
#874 = FACE_BOUND('',#875,.F.);
#875 = EDGE_LOOP('',(#876,#877,#878,#900,#928));
#876 = ORIENTED_EDGE('',*,*,#846,.F.);
#877 = ORIENTED_EDGE('',*,*,#226,.T.);
#878 = ORIENTED_EDGE('',*,*,#879,.T.);
#879 = EDGE_CURVE('',#183,#880,#882,.T.);
#880 = VERTEX_POINT('',#881);
#881 = CARTESIAN_POINT('',(-36.75,0.75,99.));
#882 = SURFACE_CURVE('',#883,(#886,#893),.PCURVE_S1.);
#883 = B_SPLINE_CURVE_WITH_KNOTS('',1,(#884,#885),.UNSPECIFIED.,.F.,.F.,
  (2,2),(0.,1.),.PIECEWISE_BEZIER_KNOTS.);
#884 = CARTESIAN_POINT('',(-37.79213073791,0.771267974243,0.));
#885 = CARTESIAN_POINT('',(-36.75,0.75,99.));
#886 = PCURVE('',#241,#887);
#887 = DEFINITIONAL_REPRESENTATION('',(#888),#892);
#888 = LINE('',#889,#890);
#889 = CARTESIAN_POINT('',(0.,0.));
#890 = VECTOR('',#891,1.);
#891 = DIRECTION('',(0.,1.));
#892 = ( GEOMETRIC_REPRESENTATION_CONTEXT(2) 
PARAMETRIC_REPRESENTATION_CONTEXT() REPRESENTATION_CONTEXT('2D SPACE',''
  ) );
#893 = PCURVE('',#199,#894);
#894 = DEFINITIONAL_REPRESENTATION('',(#895),#899);
#895 = LINE('',#896,#897);
#896 = CARTESIAN_POINT('',(3.14159265359,0.));
#897 = VECTOR('',#898,1.);
#898 = DIRECTION('',(0.,1.));
#899 = ( GEOMETRIC_REPRESENTATION_CONTEXT(2) 
PARAMETRIC_REPRESENTATION_CONTEXT() REPRESENTATION_CONTEXT('2D SPACE',''
  ) );
#900 = ORIENTED_EDGE('',*,*,#901,.T.);
#901 = EDGE_CURVE('',#880,#902,#904,.T.);
#902 = VERTEX_POINT('',#903);
#903 = CARTESIAN_POINT('',(36.75,0.75,99.));
#904 = SURFACE_CURVE('',#905,(#909,#916),.PCURVE_S1.);
#905 = LINE('',#906,#907);
#906 = CARTESIAN_POINT('',(-36.75,0.75,99.));
#907 = VECTOR('',#908,1.);
#908 = DIRECTION('',(1.,0.,0.));
#909 = PCURVE('',#241,#910);
#910 = DEFINITIONAL_REPRESENTATION('',(#911),#915);
#911 = LINE('',#912,#913);
#912 = CARTESIAN_POINT('',(0.,1.));
#913 = VECTOR('',#914,1.);
#914 = DIRECTION('',(-1.,0.));
#915 = ( GEOMETRIC_REPRESENTATION_CONTEXT(2) 
PARAMETRIC_REPRESENTATION_CONTEXT() REPRESENTATION_CONTEXT('2D SPACE',''
  ) );
#916 = PCURVE('',#917,#922);
#917 = PLANE('',#918);
#918 = AXIS2_PLACEMENT_3D('',#919,#920,#921);
#919 = CARTESIAN_POINT('',(-36.75,0.75,99.));
#920 = DIRECTION('',(0.,1.,0.));
#921 = DIRECTION('',(1.,0.,0.));
#922 = DEFINITIONAL_REPRESENTATION('',(#923),#927);
#923 = LINE('',#924,#925);
#924 = CARTESIAN_POINT('',(0.,0.));
#925 = VECTOR('',#926,1.);
#926 = DIRECTION('',(1.,0.));
#927 = ( GEOMETRIC_REPRESENTATION_CONTEXT(2) 
PARAMETRIC_REPRESENTATION_CONTEXT() REPRESENTATION_CONTEXT('2D SPACE',''
  ) );
#928 = ORIENTED_EDGE('',*,*,#929,.F.);
#929 = EDGE_CURVE('',#698,#902,#930,.T.);
#930 = SURFACE_CURVE('',#931,(#934,#941),.PCURVE_S1.);
#931 = B_SPLINE_CURVE_WITH_KNOTS('',1,(#932,#933),.UNSPECIFIED.,.F.,.F.,
  (2,2),(0.,1.),.PIECEWISE_BEZIER_KNOTS.);
#932 = CARTESIAN_POINT('',(37.8,-7.105427357601E-15,0.));
#933 = CARTESIAN_POINT('',(36.75,0.75,99.));
#934 = PCURVE('',#241,#935);
#935 = DEFINITIONAL_REPRESENTATION('',(#936),#940);
#936 = LINE('',#937,#938);
#937 = CARTESIAN_POINT('',(-73.5,0.));
#938 = VECTOR('',#939,1.);
#939 = DIRECTION('',(0.,1.));
#940 = ( GEOMETRIC_REPRESENTATION_CONTEXT(2) 
PARAMETRIC_REPRESENTATION_CONTEXT() REPRESENTATION_CONTEXT('2D SPACE',''
  ) );
#941 = PCURVE('',#783,#942);
#942 = DEFINITIONAL_REPRESENTATION('',(#943),#947);
#943 = LINE('',#944,#945);
#944 = CARTESIAN_POINT('',(6.28318530718,0.));
#945 = VECTOR('',#946,1.);
#946 = DIRECTION('',(0.,1.));
#947 = ( GEOMETRIC_REPRESENTATION_CONTEXT(2) 
PARAMETRIC_REPRESENTATION_CONTEXT() REPRESENTATION_CONTEXT('2D SPACE',''
  ) );
#948 = ADVANCED_FACE('',(#949),#199,.F.);
#949 = FACE_BOUND('',#950,.F.);
#950 = EDGE_LOOP('',(#951,#952,#953,#954));
#951 = ORIENTED_EDGE('',*,*,#879,.F.);
#952 = ORIENTED_EDGE('',*,*,#182,.T.);
#953 = ORIENTED_EDGE('',*,*,#298,.T.);
#954 = ORIENTED_EDGE('',*,*,#955,.T.);
#955 = EDGE_CURVE('',#299,#880,#956,.T.);
#956 = SURFACE_CURVE('',#957,(#962,#969),.PCURVE_S1.);
#957 = CIRCLE('',#958,0.75);
#958 = AXIS2_PLACEMENT_3D('',#959,#960,#961);
#959 = CARTESIAN_POINT('',(-36.75,0.,99.));
#960 = DIRECTION('',(0.,-0.,-1.));
#961 = DIRECTION('',(0.,-1.,0.));
#962 = PCURVE('',#199,#963);
#963 = DEFINITIONAL_REPRESENTATION('',(#964),#968);
#964 = LINE('',#965,#966);
#965 = CARTESIAN_POINT('',(6.28318530718,1.));
#966 = VECTOR('',#967,1.);
#967 = DIRECTION('',(-1.,0.));
#968 = ( GEOMETRIC_REPRESENTATION_CONTEXT(2) 
PARAMETRIC_REPRESENTATION_CONTEXT() REPRESENTATION_CONTEXT('2D SPACE',''
  ) );
#969 = PCURVE('',#357,#970);
#970 = DEFINITIONAL_REPRESENTATION('',(#971),#974);
#971 = B_SPLINE_CURVE_WITH_KNOTS('',1,(#972,#973),.UNSPECIFIED.,.F.,.F.,
  (2,2),(0.,3.14159265359),.PIECEWISE_BEZIER_KNOTS.);
#972 = CARTESIAN_POINT('',(0.,0.));
#973 = CARTESIAN_POINT('',(3.14159265359,0.));
#974 = ( GEOMETRIC_REPRESENTATION_CONTEXT(2) 
PARAMETRIC_REPRESENTATION_CONTEXT() REPRESENTATION_CONTEXT('2D SPACE',''
  ) );
#975 = ADVANCED_FACE('',(#976),#491,.T.);
#976 = FACE_BOUND('',#977,.F.);
#977 = EDGE_LOOP('',(#978,#979,#980,#1002));
#978 = ORIENTED_EDGE('',*,*,#528,.F.);
#979 = ORIENTED_EDGE('',*,*,#555,.F.);
#980 = ORIENTED_EDGE('',*,*,#981,.T.);
#981 = EDGE_CURVE('',#556,#453,#982,.T.);
#982 = SURFACE_CURVE('',#983,(#988,#995),.PCURVE_S1.);
#983 = CIRCLE('',#984,44.75);
#984 = AXIS2_PLACEMENT_3D('',#985,#986,#987);
#985 = CARTESIAN_POINT('',(0.,0.,80.7));
#986 = DIRECTION('',(0.,0.,1.));
#987 = DIRECTION('',(1.,0.,0.));
#988 = PCURVE('',#491,#989);
#989 = DEFINITIONAL_REPRESENTATION('',(#990),#994);
#990 = LINE('',#991,#992);
#991 = CARTESIAN_POINT('',(-0.,-10.8));
#992 = VECTOR('',#993,1.);
#993 = DIRECTION('',(-1.,0.));
#994 = ( GEOMETRIC_REPRESENTATION_CONTEXT(2) 
PARAMETRIC_REPRESENTATION_CONTEXT() REPRESENTATION_CONTEXT('2D SPACE',''
  ) );
#995 = PCURVE('',#467,#996);
#996 = DEFINITIONAL_REPRESENTATION('',(#997),#1001);
#997 = CIRCLE('',#998,44.75);
#998 = AXIS2_PLACEMENT_2D('',#999,#1000);
#999 = CARTESIAN_POINT('',(2.933502854163E-15,-4.040240899597E-15));
#1000 = DIRECTION('',(1.,0.));
#1001 = ( GEOMETRIC_REPRESENTATION_CONTEXT(2) 
PARAMETRIC_REPRESENTATION_CONTEXT() REPRESENTATION_CONTEXT('2D SPACE',''
  ) );
#1002 = ORIENTED_EDGE('',*,*,#478,.T.);
#1003 = ADVANCED_FACE('',(#1004),#467,.T.);
#1004 = FACE_BOUND('',#1005,.T.);
#1005 = EDGE_LOOP('',(#1006,#1007,#1008,#1009));
#1006 = ORIENTED_EDGE('',*,*,#576,.T.);
#1007 = ORIENTED_EDGE('',*,*,#981,.T.);
#1008 = ORIENTED_EDGE('',*,*,#452,.T.);
#1009 = ORIENTED_EDGE('',*,*,#1010,.F.);
#1010 = EDGE_CURVE('',#577,#427,#1011,.T.);
#1011 = SURFACE_CURVE('',#1012,(#1017,#1024),.PCURVE_S1.);
#1012 = CIRCLE('',#1013,39.75);
#1013 = AXIS2_PLACEMENT_3D('',#1014,#1015,#1016);
#1014 = CARTESIAN_POINT('',(0.,0.,80.7));
#1015 = DIRECTION('',(0.,0.,1.));
#1016 = DIRECTION('',(1.,0.,0.));
#1017 = PCURVE('',#467,#1018);
#1018 = DEFINITIONAL_REPRESENTATION('',(#1019),#1023);
#1019 = CIRCLE('',#1020,39.75);
#1020 = AXIS2_PLACEMENT_2D('',#1021,#1022);
#1021 = CARTESIAN_POINT('',(2.933502854163E-15,-4.040240899597E-15));
#1022 = DIRECTION('',(1.,0.));
#1023 = ( GEOMETRIC_REPRESENTATION_CONTEXT(2) 
PARAMETRIC_REPRESENTATION_CONTEXT() REPRESENTATION_CONTEXT('2D SPACE',''
  ) );
#1024 = PCURVE('',#441,#1025);
#1025 = DEFINITIONAL_REPRESENTATION('',(#1026),#1030);
#1026 = LINE('',#1027,#1028);
#1027 = CARTESIAN_POINT('',(-0.,0.));
#1028 = VECTOR('',#1029,1.);
#1029 = DIRECTION('',(-1.,0.));
#1030 = ( GEOMETRIC_REPRESENTATION_CONTEXT(2) 
PARAMETRIC_REPRESENTATION_CONTEXT() REPRESENTATION_CONTEXT('2D SPACE',''
  ) );
#1031 = ADVANCED_FACE('',(#1032),#441,.T.);
#1032 = FACE_BOUND('',#1033,.F.);
#1033 = EDGE_LOOP('',(#1034,#1035,#1036,#1058));
#1034 = ORIENTED_EDGE('',*,*,#1010,.F.);
#1035 = ORIENTED_EDGE('',*,*,#597,.F.);
#1036 = ORIENTED_EDGE('',*,*,#1037,.T.);
#1037 = EDGE_CURVE('',#598,#401,#1038,.T.);
#1038 = SURFACE_CURVE('',#1039,(#1044,#1051),.PCURVE_S1.);
#1039 = CIRCLE('',#1040,39.75);
#1040 = AXIS2_PLACEMENT_3D('',#1041,#1042,#1043);
#1041 = CARTESIAN_POINT('',(0.,0.,109.));
#1042 = DIRECTION('',(0.,0.,1.));
#1043 = DIRECTION('',(1.,0.,0.));
#1044 = PCURVE('',#441,#1045);
#1045 = DEFINITIONAL_REPRESENTATION('',(#1046),#1050);
#1046 = LINE('',#1047,#1048);
#1047 = CARTESIAN_POINT('',(-0.,-28.3));
#1048 = VECTOR('',#1049,1.);
#1049 = DIRECTION('',(-1.,0.));
#1050 = ( GEOMETRIC_REPRESENTATION_CONTEXT(2) 
PARAMETRIC_REPRESENTATION_CONTEXT() REPRESENTATION_CONTEXT('2D SPACE',''
  ) );
#1051 = PCURVE('',#415,#1052);
#1052 = DEFINITIONAL_REPRESENTATION('',(#1053),#1057);
#1053 = CIRCLE('',#1054,39.75);
#1054 = AXIS2_PLACEMENT_2D('',#1055,#1056);
#1055 = CARTESIAN_POINT('',(4.403329231825E-15,-5.790076070423E-16));
#1056 = DIRECTION('',(1.,0.));
#1057 = ( GEOMETRIC_REPRESENTATION_CONTEXT(2) 
PARAMETRIC_REPRESENTATION_CONTEXT() REPRESENTATION_CONTEXT('2D SPACE',''
  ) );
#1058 = ORIENTED_EDGE('',*,*,#426,.T.);
#1059 = ADVANCED_FACE('',(#1060),#415,.T.);
#1060 = FACE_BOUND('',#1061,.T.);
#1061 = EDGE_LOOP('',(#1062,#1063,#1064,#1065,#1093,#1121));
#1062 = ORIENTED_EDGE('',*,*,#618,.T.);
#1063 = ORIENTED_EDGE('',*,*,#1037,.T.);
#1064 = ORIENTED_EDGE('',*,*,#400,.T.);
#1065 = ORIENTED_EDGE('',*,*,#1066,.T.);
#1066 = EDGE_CURVE('',#369,#1067,#1069,.T.);
#1067 = VERTEX_POINT('',#1068);
#1068 = CARTESIAN_POINT('',(-36.75,1.25,109.));
#1069 = SURFACE_CURVE('',#1070,(#1075,#1086),.PCURVE_S1.);
#1070 = CIRCLE('',#1071,1.25);
#1071 = AXIS2_PLACEMENT_3D('',#1072,#1073,#1074);
#1072 = CARTESIAN_POINT('',(-36.75,1.110223024625E-16,109.));
#1073 = DIRECTION('',(0.,-0.,-1.));
#1074 = DIRECTION('',(0.,-1.,0.));
#1075 = PCURVE('',#415,#1076);
#1076 = DEFINITIONAL_REPRESENTATION('',(#1077),#1085);
#1077 = ( BOUNDED_CURVE() B_SPLINE_CURVE(2,(#1078,#1079,#1080,#1081,
#1082,#1083,#1084),.UNSPECIFIED.,.T.,.F.) B_SPLINE_CURVE_WITH_KNOTS((1,2
    ,2,2,2,1),(-2.094395102393,0.,2.094395102393,4.188790204786,
6.28318530718,8.377580409573),.UNSPECIFIED.) CURVE() 
GEOMETRIC_REPRESENTATION_ITEM() RATIONAL_B_SPLINE_CURVE((1.,0.5,1.,0.5,
1.,0.5,1.)) REPRESENTATION_ITEM('') );
#1078 = CARTESIAN_POINT('',(-36.75,-1.25));
#1079 = CARTESIAN_POINT('',(-38.91506350946,-1.25));
#1080 = CARTESIAN_POINT('',(-37.83253175473,0.625));
#1081 = CARTESIAN_POINT('',(-36.75,2.5));
#1082 = CARTESIAN_POINT('',(-35.66746824526,0.625));
#1083 = CARTESIAN_POINT('',(-34.58493649053,-1.25));
#1084 = CARTESIAN_POINT('',(-36.75,-1.25));
#1085 = ( GEOMETRIC_REPRESENTATION_CONTEXT(2) 
PARAMETRIC_REPRESENTATION_CONTEXT() REPRESENTATION_CONTEXT('2D SPACE',''
  ) );
#1086 = PCURVE('',#385,#1087);
#1087 = DEFINITIONAL_REPRESENTATION('',(#1088),#1092);
#1088 = LINE('',#1089,#1090);
#1089 = CARTESIAN_POINT('',(-0.,0.5));
#1090 = VECTOR('',#1091,1.);
#1091 = DIRECTION('',(-1.,0.));
#1092 = ( GEOMETRIC_REPRESENTATION_CONTEXT(2) 
PARAMETRIC_REPRESENTATION_CONTEXT() REPRESENTATION_CONTEXT('2D SPACE',''
  ) );
#1093 = ORIENTED_EDGE('',*,*,#1094,.T.);
#1094 = EDGE_CURVE('',#1067,#1095,#1097,.T.);
#1095 = VERTEX_POINT('',#1096);
#1096 = CARTESIAN_POINT('',(36.75,1.25,109.));
#1097 = SURFACE_CURVE('',#1098,(#1102,#1109),.PCURVE_S1.);
#1098 = LINE('',#1099,#1100);
#1099 = CARTESIAN_POINT('',(-36.75,1.25,109.));
#1100 = VECTOR('',#1101,1.);
#1101 = DIRECTION('',(1.,0.,0.));
#1102 = PCURVE('',#415,#1103);
#1103 = DEFINITIONAL_REPRESENTATION('',(#1104),#1108);
#1104 = LINE('',#1105,#1106);
#1105 = CARTESIAN_POINT('',(-36.75,1.25));
#1106 = VECTOR('',#1107,1.);
#1107 = DIRECTION('',(1.,0.));
#1108 = ( GEOMETRIC_REPRESENTATION_CONTEXT(2) 
PARAMETRIC_REPRESENTATION_CONTEXT() REPRESENTATION_CONTEXT('2D SPACE',''
  ) );
#1109 = PCURVE('',#1110,#1115);
#1110 = PLANE('',#1111);
#1111 = AXIS2_PLACEMENT_3D('',#1112,#1113,#1114);
#1112 = CARTESIAN_POINT('',(-36.75,1.25,109.));
#1113 = DIRECTION('',(0.,-0.707106781187,0.707106781187));
#1114 = DIRECTION('',(1.,0.,0.));
#1115 = DEFINITIONAL_REPRESENTATION('',(#1116),#1120);
#1116 = LINE('',#1117,#1118);
#1117 = CARTESIAN_POINT('',(0.,0.));
#1118 = VECTOR('',#1119,1.);
#1119 = DIRECTION('',(1.,0.));
#1120 = ( GEOMETRIC_REPRESENTATION_CONTEXT(2) 
PARAMETRIC_REPRESENTATION_CONTEXT() REPRESENTATION_CONTEXT('2D SPACE',''
  ) );
#1121 = ORIENTED_EDGE('',*,*,#1122,.T.);
#1122 = EDGE_CURVE('',#1095,#619,#1123,.T.);
#1123 = SURFACE_CURVE('',#1124,(#1129,#1140),.PCURVE_S1.);
#1124 = CIRCLE('',#1125,1.25);
#1125 = AXIS2_PLACEMENT_3D('',#1126,#1127,#1128);
#1126 = CARTESIAN_POINT('',(36.75,-1.110223024625E-16,109.));
#1127 = DIRECTION('',(0.,0.,-1.));
#1128 = DIRECTION('',(0.,1.,0.));
#1129 = PCURVE('',#415,#1130);
#1130 = DEFINITIONAL_REPRESENTATION('',(#1131),#1139);
#1131 = ( BOUNDED_CURVE() B_SPLINE_CURVE(2,(#1132,#1133,#1134,#1135,
#1136,#1137,#1138),.UNSPECIFIED.,.T.,.F.) B_SPLINE_CURVE_WITH_KNOTS((1,2
    ,2,2,2,1),(-2.094395102393,0.,2.094395102393,4.188790204786,
6.28318530718,8.377580409573),.UNSPECIFIED.) CURVE() 
GEOMETRIC_REPRESENTATION_ITEM() RATIONAL_B_SPLINE_CURVE((1.,0.5,1.,0.5,
1.,0.5,1.)) REPRESENTATION_ITEM('') );
#1132 = CARTESIAN_POINT('',(36.75,1.25));
#1133 = CARTESIAN_POINT('',(38.915063509461,1.25));
#1134 = CARTESIAN_POINT('',(37.832531754731,-0.625));
#1135 = CARTESIAN_POINT('',(36.75,-2.5));
#1136 = CARTESIAN_POINT('',(35.667468245269,-0.625));
#1137 = CARTESIAN_POINT('',(34.584936490539,1.25));
#1138 = CARTESIAN_POINT('',(36.75,1.25));
#1139 = ( GEOMETRIC_REPRESENTATION_CONTEXT(2) 
PARAMETRIC_REPRESENTATION_CONTEXT() REPRESENTATION_CONTEXT('2D SPACE',''
  ) );
#1140 = PCURVE('',#656,#1141);
#1141 = DEFINITIONAL_REPRESENTATION('',(#1142),#1146);
#1142 = LINE('',#1143,#1144);
#1143 = CARTESIAN_POINT('',(-0.,0.5));
#1144 = VECTOR('',#1145,1.);
#1145 = DIRECTION('',(-1.,0.));
#1146 = ( GEOMETRIC_REPRESENTATION_CONTEXT(2) 
PARAMETRIC_REPRESENTATION_CONTEXT() REPRESENTATION_CONTEXT('2D SPACE',''
  ) );
#1147 = ADVANCED_FACE('',(#1148),#385,.F.);
#1148 = FACE_BOUND('',#1149,.T.);
#1149 = EDGE_LOOP('',(#1150,#1151,#1175,#1193));
#1150 = ORIENTED_EDGE('',*,*,#368,.F.);
#1151 = ORIENTED_EDGE('',*,*,#1152,.T.);
#1152 = EDGE_CURVE('',#343,#1153,#1155,.T.);
#1153 = VERTEX_POINT('',#1154);
#1154 = CARTESIAN_POINT('',(-36.75,0.75,108.5));
#1155 = SURFACE_CURVE('',#1156,(#1161,#1168),.PCURVE_S1.);
#1156 = CIRCLE('',#1157,0.75);
#1157 = AXIS2_PLACEMENT_3D('',#1158,#1159,#1160);
#1158 = CARTESIAN_POINT('',(-36.75,0.,108.5));
#1159 = DIRECTION('',(0.,-0.,-1.));
#1160 = DIRECTION('',(0.,-1.,0.));
#1161 = PCURVE('',#385,#1162);
#1162 = DEFINITIONAL_REPRESENTATION('',(#1163),#1167);
#1163 = LINE('',#1164,#1165);
#1164 = CARTESIAN_POINT('',(-0.,0.));
#1165 = VECTOR('',#1166,1.);
#1166 = DIRECTION('',(-1.,0.));
#1167 = ( GEOMETRIC_REPRESENTATION_CONTEXT(2) 
PARAMETRIC_REPRESENTATION_CONTEXT() REPRESENTATION_CONTEXT('2D SPACE',''
  ) );
#1168 = PCURVE('',#357,#1169);
#1169 = DEFINITIONAL_REPRESENTATION('',(#1170),#1174);
#1170 = LINE('',#1171,#1172);
#1171 = CARTESIAN_POINT('',(0.,-9.5));
#1172 = VECTOR('',#1173,1.);
#1173 = DIRECTION('',(1.,0.));
#1174 = ( GEOMETRIC_REPRESENTATION_CONTEXT(2) 
PARAMETRIC_REPRESENTATION_CONTEXT() REPRESENTATION_CONTEXT('2D SPACE',''
  ) );
#1175 = ORIENTED_EDGE('',*,*,#1176,.T.);
#1176 = EDGE_CURVE('',#1153,#1067,#1177,.T.);
#1177 = SURFACE_CURVE('',#1178,(#1181,#1187),.PCURVE_S1.);
#1178 = B_SPLINE_CURVE_WITH_KNOTS('',1,(#1179,#1180),.UNSPECIFIED.,.F.,
  .F.,(2,2),(0.,1.),.PIECEWISE_BEZIER_KNOTS.);
#1179 = CARTESIAN_POINT('',(-36.75,0.75,108.5));
#1180 = CARTESIAN_POINT('',(-36.75,1.25,109.));
#1181 = PCURVE('',#385,#1182);
#1182 = DEFINITIONAL_REPRESENTATION('',(#1183),#1186);
#1183 = B_SPLINE_CURVE_WITH_KNOTS('',1,(#1184,#1185),.UNSPECIFIED.,.F.,
  .F.,(2,2),(0.,1.),.PIECEWISE_BEZIER_KNOTS.);
#1184 = CARTESIAN_POINT('',(-3.14159265359,0.));
#1185 = CARTESIAN_POINT('',(-3.14159265359,0.5));
#1186 = ( GEOMETRIC_REPRESENTATION_CONTEXT(2) 
PARAMETRIC_REPRESENTATION_CONTEXT() REPRESENTATION_CONTEXT('2D SPACE',''
  ) );
#1187 = PCURVE('',#1110,#1188);
#1188 = DEFINITIONAL_REPRESENTATION('',(#1189),#1192);
#1189 = B_SPLINE_CURVE_WITH_KNOTS('',1,(#1190,#1191),.UNSPECIFIED.,.F.,
  .F.,(2,2),(0.,1.),.PIECEWISE_BEZIER_KNOTS.);
#1190 = CARTESIAN_POINT('',(0.,-0.707106781187));
#1191 = CARTESIAN_POINT('',(0.,0.));
#1192 = ( GEOMETRIC_REPRESENTATION_CONTEXT(2) 
PARAMETRIC_REPRESENTATION_CONTEXT() REPRESENTATION_CONTEXT('2D SPACE',''
  ) );
#1193 = ORIENTED_EDGE('',*,*,#1066,.F.);
#1194 = ADVANCED_FACE('',(#1195),#357,.F.);
#1195 = FACE_BOUND('',#1196,.F.);
#1196 = EDGE_LOOP('',(#1197,#1198,#1199,#1200));
#1197 = ORIENTED_EDGE('',*,*,#955,.F.);
#1198 = ORIENTED_EDGE('',*,*,#342,.F.);
#1199 = ORIENTED_EDGE('',*,*,#1152,.T.);
#1200 = ORIENTED_EDGE('',*,*,#1201,.F.);
#1201 = EDGE_CURVE('',#880,#1153,#1202,.T.);
#1202 = SURFACE_CURVE('',#1203,(#1207,#1214),.PCURVE_S1.);
#1203 = LINE('',#1204,#1205);
#1204 = CARTESIAN_POINT('',(-36.75,0.75,99.));
#1205 = VECTOR('',#1206,1.);
#1206 = DIRECTION('',(0.,0.,1.));
#1207 = PCURVE('',#357,#1208);
#1208 = DEFINITIONAL_REPRESENTATION('',(#1209),#1213);
#1209 = LINE('',#1210,#1211);
#1210 = CARTESIAN_POINT('',(3.14159265359,0.));
#1211 = VECTOR('',#1212,1.);
#1212 = DIRECTION('',(0.,-1.));
#1213 = ( GEOMETRIC_REPRESENTATION_CONTEXT(2) 
PARAMETRIC_REPRESENTATION_CONTEXT() REPRESENTATION_CONTEXT('2D SPACE',''
  ) );
#1214 = PCURVE('',#917,#1215);
#1215 = DEFINITIONAL_REPRESENTATION('',(#1216),#1220);
#1216 = LINE('',#1217,#1218);
#1217 = CARTESIAN_POINT('',(0.,0.));
#1218 = VECTOR('',#1219,1.);
#1219 = DIRECTION('',(0.,-1.));
#1220 = ( GEOMETRIC_REPRESENTATION_CONTEXT(2) 
PARAMETRIC_REPRESENTATION_CONTEXT() REPRESENTATION_CONTEXT('2D SPACE',''
  ) );
#1221 = ADVANCED_FACE('',(#1222),#783,.F.);
#1222 = FACE_BOUND('',#1223,.F.);
#1223 = EDGE_LOOP('',(#1224,#1225,#1226));
#1224 = ORIENTED_EDGE('',*,*,#697,.F.);
#1225 = ORIENTED_EDGE('',*,*,#929,.T.);
#1226 = ORIENTED_EDGE('',*,*,#1227,.T.);
#1227 = EDGE_CURVE('',#902,#672,#1228,.T.);
#1228 = SURFACE_CURVE('',#1229,(#1234,#1241),.PCURVE_S1.);
#1229 = CIRCLE('',#1230,0.75);
#1230 = AXIS2_PLACEMENT_3D('',#1231,#1232,#1233);
#1231 = CARTESIAN_POINT('',(36.75,0.,99.));
#1232 = DIRECTION('',(0.,0.,-1.));
#1233 = DIRECTION('',(0.,1.,0.));
#1234 = PCURVE('',#783,#1235);
#1235 = DEFINITIONAL_REPRESENTATION('',(#1236),#1240);
#1236 = LINE('',#1237,#1238);
#1237 = CARTESIAN_POINT('',(6.28318530718,1.));
#1238 = VECTOR('',#1239,1.);
#1239 = DIRECTION('',(-1.,0.));
#1240 = ( GEOMETRIC_REPRESENTATION_CONTEXT(2) 
PARAMETRIC_REPRESENTATION_CONTEXT() REPRESENTATION_CONTEXT('2D SPACE',''
  ) );
#1241 = PCURVE('',#686,#1242);
#1242 = DEFINITIONAL_REPRESENTATION('',(#1243),#1246);
#1243 = B_SPLINE_CURVE_WITH_KNOTS('',1,(#1244,#1245),.UNSPECIFIED.,.F.,
  .F.,(2,2),(0.,3.14159265359),.PIECEWISE_BEZIER_KNOTS.);
#1244 = CARTESIAN_POINT('',(0.,0.));
#1245 = CARTESIAN_POINT('',(3.14159265359,0.));
#1246 = ( GEOMETRIC_REPRESENTATION_CONTEXT(2) 
PARAMETRIC_REPRESENTATION_CONTEXT() REPRESENTATION_CONTEXT('2D SPACE',''
  ) );
#1247 = ADVANCED_FACE('',(#1248),#686,.F.);
#1248 = FACE_BOUND('',#1249,.F.);
#1249 = EDGE_LOOP('',(#1250,#1251,#1274,#1296));
#1250 = ORIENTED_EDGE('',*,*,#1227,.F.);
#1251 = ORIENTED_EDGE('',*,*,#1252,.T.);
#1252 = EDGE_CURVE('',#902,#1253,#1255,.T.);
#1253 = VERTEX_POINT('',#1254);
#1254 = CARTESIAN_POINT('',(36.75,0.75,108.5));
#1255 = SURFACE_CURVE('',#1256,(#1260,#1267),.PCURVE_S1.);
#1256 = LINE('',#1257,#1258);
#1257 = CARTESIAN_POINT('',(36.75,0.75,99.));
#1258 = VECTOR('',#1259,1.);
#1259 = DIRECTION('',(0.,0.,1.));
#1260 = PCURVE('',#686,#1261);
#1261 = DEFINITIONAL_REPRESENTATION('',(#1262),#1266);
#1262 = LINE('',#1263,#1264);
#1263 = CARTESIAN_POINT('',(0.,0.));
#1264 = VECTOR('',#1265,1.);
#1265 = DIRECTION('',(0.,-1.));
#1266 = ( GEOMETRIC_REPRESENTATION_CONTEXT(2) 
PARAMETRIC_REPRESENTATION_CONTEXT() REPRESENTATION_CONTEXT('2D SPACE',''
  ) );
#1267 = PCURVE('',#917,#1268);
#1268 = DEFINITIONAL_REPRESENTATION('',(#1269),#1273);
#1269 = LINE('',#1270,#1271);
#1270 = CARTESIAN_POINT('',(73.5,0.));
#1271 = VECTOR('',#1272,1.);
#1272 = DIRECTION('',(0.,-1.));
#1273 = ( GEOMETRIC_REPRESENTATION_CONTEXT(2) 
PARAMETRIC_REPRESENTATION_CONTEXT() REPRESENTATION_CONTEXT('2D SPACE',''
  ) );
#1274 = ORIENTED_EDGE('',*,*,#1275,.T.);
#1275 = EDGE_CURVE('',#1253,#640,#1276,.T.);
#1276 = SURFACE_CURVE('',#1277,(#1282,#1289),.PCURVE_S1.);
#1277 = CIRCLE('',#1278,0.75);
#1278 = AXIS2_PLACEMENT_3D('',#1279,#1280,#1281);
#1279 = CARTESIAN_POINT('',(36.75,0.,108.5));
#1280 = DIRECTION('',(0.,0.,-1.));
#1281 = DIRECTION('',(0.,1.,0.));
#1282 = PCURVE('',#686,#1283);
#1283 = DEFINITIONAL_REPRESENTATION('',(#1284),#1288);
#1284 = LINE('',#1285,#1286);
#1285 = CARTESIAN_POINT('',(0.,-9.5));
#1286 = VECTOR('',#1287,1.);
#1287 = DIRECTION('',(1.,0.));
#1288 = ( GEOMETRIC_REPRESENTATION_CONTEXT(2) 
PARAMETRIC_REPRESENTATION_CONTEXT() REPRESENTATION_CONTEXT('2D SPACE',''
  ) );
#1289 = PCURVE('',#656,#1290);
#1290 = DEFINITIONAL_REPRESENTATION('',(#1291),#1295);
#1291 = LINE('',#1292,#1293);
#1292 = CARTESIAN_POINT('',(-0.,0.));
#1293 = VECTOR('',#1294,1.);
#1294 = DIRECTION('',(-1.,0.));
#1295 = ( GEOMETRIC_REPRESENTATION_CONTEXT(2) 
PARAMETRIC_REPRESENTATION_CONTEXT() REPRESENTATION_CONTEXT('2D SPACE',''
  ) );
#1296 = ORIENTED_EDGE('',*,*,#671,.T.);
#1297 = ADVANCED_FACE('',(#1298),#656,.F.);
#1298 = FACE_BOUND('',#1299,.T.);
#1299 = EDGE_LOOP('',(#1300,#1318,#1319,#1320));
#1300 = ORIENTED_EDGE('',*,*,#1301,.F.);
#1301 = EDGE_CURVE('',#1253,#1095,#1302,.T.);
#1302 = SURFACE_CURVE('',#1303,(#1306,#1312),.PCURVE_S1.);
#1303 = B_SPLINE_CURVE_WITH_KNOTS('',1,(#1304,#1305),.UNSPECIFIED.,.F.,
  .F.,(2,2),(0.,1.),.PIECEWISE_BEZIER_KNOTS.);
#1304 = CARTESIAN_POINT('',(36.75,0.75,108.5));
#1305 = CARTESIAN_POINT('',(36.75,1.25,109.));
#1306 = PCURVE('',#656,#1307);
#1307 = DEFINITIONAL_REPRESENTATION('',(#1308),#1311);
#1308 = B_SPLINE_CURVE_WITH_KNOTS('',1,(#1309,#1310),.UNSPECIFIED.,.F.,
  .F.,(2,2),(0.,1.),.PIECEWISE_BEZIER_KNOTS.);
#1309 = CARTESIAN_POINT('',(0.,0.));
#1310 = CARTESIAN_POINT('',(0.,0.5));
#1311 = ( GEOMETRIC_REPRESENTATION_CONTEXT(2) 
PARAMETRIC_REPRESENTATION_CONTEXT() REPRESENTATION_CONTEXT('2D SPACE',''
  ) );
#1312 = PCURVE('',#1110,#1313);
#1313 = DEFINITIONAL_REPRESENTATION('',(#1314),#1317);
#1314 = B_SPLINE_CURVE_WITH_KNOTS('',1,(#1315,#1316),.UNSPECIFIED.,.F.,
  .F.,(2,2),(0.,1.),.PIECEWISE_BEZIER_KNOTS.);
#1315 = CARTESIAN_POINT('',(73.5,-0.707106781187));
#1316 = CARTESIAN_POINT('',(73.5,0.));
#1317 = ( GEOMETRIC_REPRESENTATION_CONTEXT(2) 
PARAMETRIC_REPRESENTATION_CONTEXT() REPRESENTATION_CONTEXT('2D SPACE',''
  ) );
#1318 = ORIENTED_EDGE('',*,*,#1275,.T.);
#1319 = ORIENTED_EDGE('',*,*,#639,.F.);
#1320 = ORIENTED_EDGE('',*,*,#1122,.F.);
#1321 = ADVANCED_FACE('',(#1322),#917,.F.);
#1322 = FACE_BOUND('',#1323,.F.);
#1323 = EDGE_LOOP('',(#1324,#1325,#1326,#1347));
#1324 = ORIENTED_EDGE('',*,*,#901,.F.);
#1325 = ORIENTED_EDGE('',*,*,#1201,.T.);
#1326 = ORIENTED_EDGE('',*,*,#1327,.T.);
#1327 = EDGE_CURVE('',#1153,#1253,#1328,.T.);
#1328 = SURFACE_CURVE('',#1329,(#1333,#1340),.PCURVE_S1.);
#1329 = LINE('',#1330,#1331);
#1330 = CARTESIAN_POINT('',(-36.75,0.75,108.5));
#1331 = VECTOR('',#1332,1.);
#1332 = DIRECTION('',(1.,0.,0.));
#1333 = PCURVE('',#917,#1334);
#1334 = DEFINITIONAL_REPRESENTATION('',(#1335),#1339);
#1335 = LINE('',#1336,#1337);
#1336 = CARTESIAN_POINT('',(0.,-9.5));
#1337 = VECTOR('',#1338,1.);
#1338 = DIRECTION('',(1.,0.));
#1339 = ( GEOMETRIC_REPRESENTATION_CONTEXT(2) 
PARAMETRIC_REPRESENTATION_CONTEXT() REPRESENTATION_CONTEXT('2D SPACE',''
  ) );
#1340 = PCURVE('',#1110,#1341);
#1341 = DEFINITIONAL_REPRESENTATION('',(#1342),#1346);
#1342 = LINE('',#1343,#1344);
#1343 = CARTESIAN_POINT('',(0.,-0.707106781187));
#1344 = VECTOR('',#1345,1.);
#1345 = DIRECTION('',(1.,0.));
#1346 = ( GEOMETRIC_REPRESENTATION_CONTEXT(2) 
PARAMETRIC_REPRESENTATION_CONTEXT() REPRESENTATION_CONTEXT('2D SPACE',''
  ) );
#1347 = ORIENTED_EDGE('',*,*,#1252,.F.);
#1348 = ADVANCED_FACE('',(#1349),#1110,.T.);
#1349 = FACE_BOUND('',#1350,.T.);
#1350 = EDGE_LOOP('',(#1351,#1352,#1353,#1354));
#1351 = ORIENTED_EDGE('',*,*,#1327,.T.);
#1352 = ORIENTED_EDGE('',*,*,#1301,.T.);
#1353 = ORIENTED_EDGE('',*,*,#1094,.F.);
#1354 = ORIENTED_EDGE('',*,*,#1176,.F.);
#1355 = ( GEOMETRIC_REPRESENTATION_CONTEXT(3) 
GLOBAL_UNCERTAINTY_ASSIGNED_CONTEXT((#1359)) 
GLOBAL_UNIT_ASSIGNED_CONTEXT((#1356,#1357,#1358)) REPRESENTATION_CONTEXT
('Context #1','3D Context with UNIT and UNCERTAINTY') );
#1356 = ( LENGTH_UNIT() NAMED_UNIT(*) SI_UNIT(.MILLI.,.METRE.) );
#1357 = ( NAMED_UNIT(*) PLANE_ANGLE_UNIT() SI_UNIT($,.RADIAN.) );
#1358 = ( NAMED_UNIT(*) SI_UNIT($,.STERADIAN.) SOLID_ANGLE_UNIT() );
#1359 = UNCERTAINTY_MEASURE_WITH_UNIT(LENGTH_MEASURE(1.E-06),#1356,
  'distance_accuracy_value','confusion accuracy');
#1360 = PRODUCT_RELATED_PRODUCT_CATEGORY('part',$,(#7));
ENDSEC;
END-ISO-10303-21;
